  0
SECTION
  2
HEADER
  9
$ACADVER
  1
AC1027
  9
$ACADMAINTVER
 70
   125
  9
$DWGCODEPAGE
  3
ANSI_1252
  9
$LASTSAVEDBY
  1
aimrl
  9
$REQUIREDVERSIONS
160
                 0
  9
$INSBASE
 10
0.0
 20
0.0
 30
0.0
  9
$EXTMIN
 10
-0.0257876912670554
 20
-15.9161108010349
 30
0.0
  9
$EXTMAX
 10
41.16342251840195
 20
16.09066887103441
 30
0.0
  9
$LIMMIN
 10
0.0
 20
0.0
  9
$LIMMAX
 10
420.0
 20
297.0
  9
$ORTHOMODE
 70
     0
  9
$REGENMODE
 70
     1
  9
$FILLMODE
 70
     1
  9
$QTEXTMODE
 70
     0
  9
$MIRRTEXT
 70
     1
  9
$LTSCALE
 40
1.0
  9
$ATTMODE
 70
     1
  9
$TEXTSIZE
 40
4.593001805535095
  9
$TRACEWID
 40
1.0
  9
$TEXTSTYLE
  7
Standard
  9
$CLAYER
  8
Copper_Raster
  9
$CELTYPE
  6
ByLayer
  9
$CECOLOR
 62
   256
  9
$CELTSCALE
 40
1.0
  9
$DISPSILH
 70
     0
  9
$DIMSCALE
 40
1.0
  9
$DIMASZ
 40
3.301999999999999
  9
$DIMEXO
 40
1.0
  9
$DIMDLI
 40
3.75
  9
$DIMRND
 40
0.0
  9
$DIMDLE
 40
0.0
  9
$DIMEXE
 40
1.0
  9
$DIMTP
 40
0.0
  9
$DIMTM
 40
0.0
  9
$DIMTXT
 40
3.5
  9
$DIMCEN
 40
2.5
  9
$DIMTSZ
 40
0.0
  9
$DIMTOL
 70
     0
  9
$DIMLIM
 70
     0
  9
$DIMTIH
 70
     1
  9
$DIMTOH
 70
     1
  9
$DIMSE1
 70
     0
  9
$DIMSE2
 70
     0
  9
$DIMTAD
 70
     1
  9
$DIMZIN
 70
     1
  9
$DIMBLK
  1

  9
$DIMASO
 70
     1
  9
$DIMSHO
 70
     1
  9
$DIMPOST
  1

  9
$DIMAPOST
  1

  9
$DIMALT
 70
     0
  9
$DIMALTD
 70
     3
  9
$DIMALTF
 40
0.0393700787401575
  9
$DIMLFAC
 40
1.0
  9
$DIMTOFL
 70
     1
  9
$DIMTVP
 40
0.0
  9
$DIMTIX
 70
     0
  9
$DIMSOXD
 70
     0
  9
$DIMSAH
 70
     0
  9
$DIMBLK1
  1

  9
$DIMBLK2
  1

  9
$DIMSTYLE
  2
ISO-25
  9
$DIMCLRD
 70
     0
  9
$DIMCLRE
 70
     0
  9
$DIMCLRT
 70
     0
  9
$DIMTFAC
 40
1.0
  9
$DIMGAP
 40
1.524
  9
$DIMJUST
 70
     0
  9
$DIMSD1
 70
     0
  9
$DIMSD2
 70
     0
  9
$DIMTOLJ
 70
     0
  9
$DIMTZIN
 70
     1
  9
$DIMALTZ
 70
     0
  9
$DIMALTTZ
 70
     0
  9
$DIMUPT
 70
     0
  9
$DIMDEC
 70
     2
  9
$DIMTDEC
 70
     2
  9
$DIMALTU
 70
     2
  9
$DIMALTTD
 70
     3
  9
$DIMTXSTY
  7
Standard
  9
$DIMAUNIT
 70
     0
  9
$DIMADEC
 70
     2
  9
$DIMALTRND
 40
0.0
  9
$DIMAZIN
 70
     0
  9
$DIMDSEP
 70
    44
  9
$DIMATFIT
 70
     3
  9
$DIMFRAC
 70
     0
  9
$DIMLDRBLK
  1

  9
$DIMLUNIT
 70
     2
  9
$DIMLWD
 70
    -2
  9
$DIMLWE
 70
    -2
  9
$DIMTMOVE
 70
     0
  9
$DIMFXL
 40
1.0
  9
$DIMFXLON
 70
     0
  9
$DIMJOGANG
 40
0.7853981633974483
  9
$DIMTFILL
 70
     0
  9
$DIMTFILLCLR
 70
     0
  9
$DIMARCSYM
 70
     0
  9
$DIMLTYPE
  6

  9
$DIMLTEX1
  6

  9
$DIMLTEX2
  6

  9
$DIMTXTDIRECTION
 70
     0
  9
$LUNITS
 70
     2
  9
$LUPREC
 70
     2
  9
$SKETCHINC
 40
1.0
  9
$FILLETRAD
 40
10.0
  9
$AUNITS
 70
     0
  9
$AUPREC
 70
     2
  9
$MENU
  1
.
  9
$ELEVATION
 40
0.0
  9
$PELEVATION
 40
0.0
  9
$THICKNESS
 40
0.0
  9
$LIMCHECK
 70
     0
  9
$CHAMFERA
 40
0.0
  9
$CHAMFERB
 40
0.0
  9
$CHAMFERC
 40
0.0
  9
$CHAMFERD
 40
0.0
  9
$SKPOLY
 70
     0
  9
$TDCREATE
 40
2459286.560509259
  9
$TDUCREATE
 40
2459286.852181817
  9
$TDUPDATE
 40
2459287.784918982
  9
$TDUUPDATE
 40
2459288.076585648
  9
$TDINDWG
 40
0.0399189931
  9
$TDUSRTIMER
 40
0.0399189931
  9
$USRTIMER
 70
     1
  9
$ANGBASE
 50
0.0
  9
$ANGDIR
 70
     0
  9
$PDMODE
 70
     0
  9
$PDSIZE
 40
-1.0
  9
$PLINEWID
 40
0.0
  9
$SPLFRAME
 70
     0
  9
$SPLINETYPE
 70
     6
  9
$SPLINESEGS
 70
     8
  9
$HANDSEED
  5
7AA
  9
$SURFTAB1
 70
     6
  9
$SURFTAB2
 70
     6
  9
$SURFTYPE
 70
     6
  9
$SURFU
 70
     6
  9
$SURFV
 70
     6
  9
$UCSBASE
  2

  9
$UCSNAME
  2

  9
$UCSORG
 10
0.0
 20
0.0
 30
0.0
  9
$UCSXDIR
 10
1.0
 20
0.0
 30
0.0
  9
$UCSYDIR
 10
0.0
 20
1.0
 30
0.0
  9
$UCSORTHOREF
  2

  9
$UCSORTHOVIEW
 70
     0
  9
$UCSORGTOP
 10
0.0
 20
0.0
 30
0.0
  9
$UCSORGBOTTOM
 10
0.0
 20
0.0
 30
0.0
  9
$UCSORGLEFT
 10
0.0
 20
0.0
 30
0.0
  9
$UCSORGRIGHT
 10
0.0
 20
0.0
 30
0.0
  9
$UCSORGFRONT
 10
0.0
 20
0.0
 30
0.0
  9
$UCSORGBACK
 10
0.0
 20
0.0
 30
0.0
  9
$PUCSBASE
  2

  9
$PUCSNAME
  2

  9
$PUCSORG
 10
0.0
 20
0.0
 30
0.0
  9
$PUCSXDIR
 10
1.0
 20
0.0
 30
0.0
  9
$PUCSYDIR
 10
0.0
 20
1.0
 30
0.0
  9
$PUCSORTHOREF
  2

  9
$PUCSORTHOVIEW
 70
     0
  9
$PUCSORGTOP
 10
0.0
 20
0.0
 30
0.0
  9
$PUCSORGBOTTOM
 10
0.0
 20
0.0
 30
0.0
  9
$PUCSORGLEFT
 10
0.0
 20
0.0
 30
0.0
  9
$PUCSORGRIGHT
 10
0.0
 20
0.0
 30
0.0
  9
$PUCSORGFRONT
 10
0.0
 20
0.0
 30
0.0
  9
$PUCSORGBACK
 10
0.0
 20
0.0
 30
0.0
  9
$USERI1
 70
     0
  9
$USERI2
 70
     0
  9
$USERI3
 70
     0
  9
$USERI4
 70
     0
  9
$USERI5
 70
     0
  9
$USERR1
 40
0.0
  9
$USERR2
 40
0.0
  9
$USERR3
 40
0.0
  9
$USERR4
 40
0.0
  9
$USERR5
 40
0.0
  9
$WORLDVIEW
 70
     1
  9
$SHADEDGE
 70
     3
  9
$SHADEDIF
 70
    70
  9
$TILEMODE
 70
     1
  9
$MAXACTVP
 70
    64
  9
$PINSBASE
 10
0.0
 20
0.0
 30
0.0
  9
$PLIMCHECK
 70
     0
  9
$PEXTMIN
 10
1.000000000000000E+20
 20
1.000000000000000E+20
 30
1.000000000000000E+20
  9
$PEXTMAX
 10
-1.000000000000000E+20
 20
-1.000000000000000E+20
 30
-1.000000000000000E+20
  9
$PLIMMIN
 10
0.0
 20
0.0
  9
$PLIMMAX
 10
420.0
 20
297.0
  9
$UNITMODE
 70
     0
  9
$VISRETAIN
 70
     1
  9
$PLINEGEN
 70
     0
  9
$PSLTSCALE
 70
     1
  9
$TREEDEPTH
 70
  3020
  9
$CMLSTYLE
  2
Standard
  9
$CMLJUST
 70
     0
  9
$CMLSCALE
 40
20.0
  9
$PROXYGRAPHICS
 70
     1
  9
$MEASUREMENT
 70
     1
  9
$CELWEIGHT
370
    -1
  9
$ENDCAPS
280
     0
  9
$JOINSTYLE
280
     0
  9
$LWDISPLAY
290
     1
  9
$INSUNITS
 70
     4
  9
$HYPERLINKBASE
  1

  9
$STYLESHEET
  1

  9
$XEDIT
290
     1
  9
$CEPSNTYPE
380
     0
  9
$PSTYLEMODE
290
     1
  9
$FINGERPRINTGUID
  2
{46f04682-0aa6-42d4-bc0a-79e390661815}
  9
$VERSIONGUID
  2
{2DD6B8B2-B81F-2840-9331-33EF5DB34CE0}
  9
$EXTNAMES
290
     1
  9
$PSVPSCALE
 40
0.0
  9
$OLESTARTUP
290
     0
  9
$SORTENTS
280
   127
  9
$INDEXCTL
280
     0
  9
$HIDETEXT
280
     0
  9
$XCLIPFRAME
280
     2
  9
$HALOGAP
280
     0
  9
$OBSCOLOR
 70
   257
  9
$OBSLTYPE
280
     0
  9
$INTERSECTIONDISPLAY
280
     0
  9
$INTERSECTIONCOLOR
 70
   257
  9
$DIMASSOC
280
     1
  9
$PROJECTNAME
  1

  9
$CAMERADISPLAY
290
     0
  9
$LENSLENGTH
 40
50.0
  9
$CAMERAHEIGHT
 40
0.0
  9
$STEPSPERSEC
 40
2.0
  9
$STEPSIZE
 40
6.0
  9
$3DDWFPREC
 40
2.0
  9
$PSOLWIDTH
 40
0.25
  9
$PSOLHEIGHT
 40
4.0
  9
$LOFTANG1
 40
1.570796326794896
  9
$LOFTANG2
 40
1.570796326794896
  9
$LOFTMAG1
 40
0.0
  9
$LOFTMAG2
 40
0.0
  9
$LOFTPARAM
 70
     7
  9
$LOFTNORMALS
280
     1
  9
$LATITUDE
 40
37.795
  9
$LONGITUDE
 40
-122.394
  9
$NORTHDIRECTION
 40
0.0
  9
$TIMEZONE
 70
 -8000
  9
$LIGHTGLYPHDISPLAY
280
     1
  9
$TILEMODELIGHTSYNCH
280
     1
  9
$CMATERIAL
347
C8
  9
$SOLIDHIST
280
     0
  9
$SHOWHIST
280
     1
  9
$DWFFRAME
280
     2
  9
$DGNFRAME
280
     0
  9
$REALWORLDSCALE
290
     1
  9
$INTERFERECOLOR
 62
     1
  9
$INTERFEREOBJVS
345
EA
  9
$INTERFEREVPVS
346
E7
  9
$CSHADOW
280
     0
  9
$SHADOWPLANELOCATION
 40
0.0
  0
ENDSEC
  0
SECTION
  2
CLASSES
  0
CLASS
  1
ACDBDICTIONARYWDFLT
  2
AcDbDictionaryWithDefault
  3
ObjectDBX Classes
 90
        0
 91
        1
280
     0
281
     0
  0
CLASS
  1
VISUALSTYLE
  2
AcDbVisualStyle
  3
ObjectDBX Classes
 90
     4095
 91
       24
280
     0
281
     0
  0
CLASS
  1
MATERIAL
  2
AcDbMaterial
  3
ObjectDBX Classes
 90
     1153
 91
        3
280
     0
281
     0
  0
CLASS
  1
SCALE
  2
AcDbScale
  3
ObjectDBX Classes
 90
     1153
 91
       33
280
     0
281
     0
  0
CLASS
  1
TABLESTYLE
  2
AcDbTableStyle
  3
ObjectDBX Classes
 90
     4095
 91
        1
280
     0
281
     0
  0
CLASS
  1
MLEADERSTYLE
  2
AcDbMLeaderStyle
  3
ACDB_MLEADERSTYLE_CLASS
 90
     4095
 91
        1
280
     0
281
     0
  0
CLASS
  1
SUN
  2
AcDbSun
  3
SCENEOE
 90
     1153
 91
        0
280
     0
281
     0
  0
CLASS
  1
ACDBSECTIONVIEWSTYLE
  2
AcDbSectionViewStyle
  3
ObjectDBX Classes
 90
     1025
 91
        1
280
     0
281
     0
  0
CLASS
  1
ACDBDETAILVIEWSTYLE
  2
AcDbDetailViewStyle
  3
ObjectDBX Classes
 90
     1025
 91
        1
280
     0
281
     0
  0
CLASS
  1
DICTIONARYVAR
  2
AcDbDictionaryVar
  3
ObjectDBX Classes
 90
        0
 91
        9
280
     0
281
     0
  0
CLASS
  1
CELLSTYLEMAP
  2
AcDbCellStyleMap
  3
ObjectDBX Classes
 90
     1152
 91
        1
280
     0
281
     0
  0
ENDSEC
  0
SECTION
  2
TABLES
  0
TABLE
  2
VPORT
  5
8
330
0
100
AcDbSymbolTable
 70
     1
1001
ACAD
1000
DbSaveVer
1071
      224
  0
VPORT
  5
29
330
8
100
AcDbSymbolTableRecord
100
AcDbViewportTableRecord
  2
*Active
 70
     0
 10
0.0
 20
0.0
 11
1.0
 21
1.0
 12
18.10275485863576
 22
6.783747976519748
 13
0.0
 23
0.0
 14
10.0
 24
10.0
 15
10.0
 25
10.0
 16
0.0
 26
0.0
 36
1.0
 17
0.0
 27
0.0
 37
0.0
 40
25.21334757027614
 41
1.81358189081225
 42
50.0
 43
0.0
 44
0.0
 50
0.0
 51
0.0
 71
     0
 72
  2000
 73
     1
 74
     3
 75
     0
 76
     0
 77
     0
 78
     0
281
     0
 65
     1
110
0.0
120
0.0
130
0.0
111
1.0
121
0.0
131
0.0
112
0.0
122
1.0
132
0.0
 79
     0
146
0.0
348
E6
 60
     3
 61
     5
292
     1
282
     1
141
0.0
142
0.0
 63
   250
421
  3355443
1001
ACAD_NAV_VCDISPLAY
1070
     3
  0
ENDTAB
  0
TABLE
  2
LTYPE
  5
5
330
0
100
AcDbSymbolTable
 70
     8
  0
LTYPE
  5
14
330
5
100
AcDbSymbolTableRecord
100
AcDbLinetypeTableRecord
  2
ByBlock
 70
     0
  3

 72
    65
 73
     0
 40
0.0
  0
LTYPE
  5
15
330
5
100
AcDbSymbolTableRecord
100
AcDbLinetypeTableRecord
  2
ByLayer
 70
     0
  3

 72
    65
 73
     0
 40
0.0
  0
LTYPE
  5
16
330
5
100
AcDbSymbolTableRecord
100
AcDbLinetypeTableRecord
  2
Continuous
 70
     0
  3
Solid line
 72
    65
 73
     0
 40
0.0
  0
LTYPE
  5
6E
330
5
100
AcDbSymbolTableRecord
100
AcDbLinetypeTableRecord
  2
HIDDEN
 70
     0
  3
Hidden __ __ __ __ __ __ __ __ __ __ __ __ __ __
 72
    65
 73
     2
 40
1.905
 49
1.27
 74
     0
 49
-0.635
 74
     0
  0
LTYPE
  5
6F
330
5
100
AcDbSymbolTableRecord
100
AcDbLinetypeTableRecord
  2
PHANTOM
 70
     0
  3
Phantom ______  __  __  ______  __  __  ______
 72
    65
 73
     6
 40
12.7
 49
6.349999999999999
 74
     0
 49
-1.27
 74
     0
 49
1.27
 74
     0
 49
-1.27
 74
     0
 49
1.27
 74
     0
 49
-1.27
 74
     0
  0
LTYPE
  5
70
330
5
100
AcDbSymbolTableRecord
100
AcDbLinetypeTableRecord
  2
CENTER
 70
     0
  3
Center ____ _ ____ _ ____ _ ____ _ ____ _ ____
 72
    65
 73
     4
 40
10.16
 49
6.349999999999999
 74
     0
 49
-1.27
 74
     0
 49
1.27
 74
     0
 49
-1.27
 74
     0
  0
LTYPE
  5
71
330
5
100
AcDbSymbolTableRecord
100
AcDbLinetypeTableRecord
  2
CENTERX2
 70
     0
  3
Center (2x) ________  __  ________  __  _____
 72
    65
 73
     4
 40
20.32
 49
12.7
 74
     0
 49
-2.54
 74
     0
 49
2.54
 74
     0
 49
-2.54
 74
     0
  0
LTYPE
  5
72
330
5
100
AcDbSymbolTableRecord
100
AcDbLinetypeTableRecord
  2
DOT2
 70
     0
  3
Dot (.5x) ........................................
 72
    65
 73
     2
 40
0.635
 49
0.0
 74
     0
 49
-0.635
 74
     0
  0
ENDTAB
  0
TABLE
  2
LAYER
  5
2
102
{ACAD_XDICTIONARY
360
27F
102
}
330
0
100
AcDbSymbolTable
 70
     5
  0
LAYER
  5
10
102
{ACAD_XDICTIONARY
360
274
102
}
330
2
100
AcDbSymbolTableRecord
100
AcDbLayerTableRecord
  2
0
 70
     0
 62
    -7
  6
Continuous
370
    -3
390
F
347
D8
348
0
  0
LAYER
  5
73
102
{ACAD_XDICTIONARY
360
276
102
}
330
2
100
AcDbSymbolTableRecord
100
AcDbLayerTableRecord
  2
DIMENSIONS
 70
     0
 62
   -18
  6
Continuous
370
    -3
390
F
347
D8
348
0
  0
LAYER
  5
74
102
{ACAD_XDICTIONARY
360
278
102
}
330
2
100
AcDbSymbolTableRecord
100
AcDbLayerTableRecord
  2
FINAL_RELEASECUT
 70
     0
 62
     1
  6
Continuous
370
    -3
390
F
347
D8
348
0
  0
LAYER
  5
11A
102
{ACAD_XDICTIONARY
360
27A
102
}
330
2
100
AcDbSymbolTableRecord
100
AcDbLayerTableRecord
  2
Copper_Raster
 70
     0
 62
    92
  6
Continuous
370
    -3
390
F
347
D8
348
0
1001
AcAecLayerStandard
1000

1000

1001
AcCmTransparency
1071
        0
  0
LAYER
  5
293
330
2
100
AcDbSymbolTableRecord
100
AcDbLayerTableRecord
  2
Text
 70
     0
 62
   130
  6
Continuous
370
    -3
390
F
347
D8
348
0
1001
AcAecLayerStandard
1000

1000

1001
AcCmTransparency
1071
        0
  0
ENDTAB
  0
TABLE
  2
STYLE
  5
3
330
0
100
AcDbSymbolTable
 70
     2
  0
STYLE
  5
11
330
3
100
AcDbSymbolTableRecord
100
AcDbTextStyleTableRecord
  2
Standard
 70
     0
 40
0.0
 41
1.0
 50
0.0
 71
     0
 42
4.593001805535095
  3
txt
  4

  0
STYLE
  5
C2
330
3
100
AcDbSymbolTableRecord
100
AcDbTextStyleTableRecord
  2
SLDTEXTSTYLE0
 70
     0
 40
0.0
 41
0.7
 50
0.0
 71
     0
 42
3.5
  3
TXT
  4

  0
ENDTAB
  0
TABLE
  2
VIEW
  5
6
330
0
100
AcDbSymbolTable
 70
     1
  0
ENDTAB
  0
TABLE
  2
UCS
  5
7
330
0
100
AcDbSymbolTable
 70
     0
  0
ENDTAB
  0
TABLE
  2
APPID
  5
9
330
0
100
AcDbSymbolTable
 70
     5
  0
APPID
  5
12
330
9
100
AcDbSymbolTableRecord
100
AcDbRegAppTableRecord
  2
ACAD
 70
     0
  0
APPID
  5
105
330
9
100
AcDbSymbolTableRecord
100
AcDbRegAppTableRecord
  2
ACAD_EXEMPT_FROM_CAD_STANDARDS
 70
     0
  0
APPID
  5
10F
330
9
100
AcDbSymbolTableRecord
100
AcDbRegAppTableRecord
  2
ACAD_NAV_VCDISPLAY
 70
     0
  0
APPID
  5
11B
330
9
100
AcDbSymbolTableRecord
100
AcDbRegAppTableRecord
  2
AcAecLayerStandard
 70
     0
  0
APPID
  5
11C
330
9
100
AcDbSymbolTableRecord
100
AcDbRegAppTableRecord
  2
AcCmTransparency
 70
     0
  0
ENDTAB
  0
TABLE
  2
DIMSTYLE
  5
A
330
0
100
AcDbSymbolTable
 70
     2
100
AcDbDimStyleTable
 71
     1
340
27
  0
DIMSTYLE
105
27
330
A
100
AcDbSymbolTableRecord
100
AcDbDimStyleTableRecord
  2
ISO-25
 70
     0
 41
2.5
 42
0.625
 43
3.75
 44
1.25
 73
     0
 74
     0
 77
     1
 78
     8
140
2.5
141
2.5
143
0.03937007874016
147
0.625
171
     3
172
     1
271
     2
272
     2
274
     3
278
    44
283
     0
284
     8
340
11
  0
ENDTAB
  0
TABLE
  2
BLOCK_RECORD
  5
1
330
0
100
AcDbSymbolTable
 70
     9
  0
BLOCK_RECORD
  5
1F
330
1
100
AcDbSymbolTableRecord
100
AcDbBlockTableRecord
  2
*Model_Space
340
22
 70
     0
280
     1
281
     0
  0
BLOCK_RECORD
  5
1B
330
1
100
AcDbSymbolTableRecord
100
AcDbBlockTableRecord
  2
*Paper_Space
340
1E
 70
     0
280
     1
281
     0
  0
BLOCK_RECORD
  5
23
330
1
100
AcDbSymbolTableRecord
100
AcDbBlockTableRecord
  2
*Paper_Space0
340
26
 70
     0
280
     1
281
     0
  0
BLOCK_RECORD
  5
2BE
330
1
100
AcDbSymbolTableRecord
100
AcDbBlockTableRecord
  2
A$C6f453532
340
0
 70
     4
280
     1
281
     0
  0
ENDTAB
  0
ENDSEC
  0
SECTION
  2
BLOCKS
  0
BLOCK
  5
20
330
1F
100
AcDbEntity
  8
0
100
AcDbBlockBegin
  2
*Model_Space
 70
     0
 10
0.0
 20
0.0
 30
0.0
  3
*Model_Space
  1

  0
ENDBLK
  5
21
330
1F
100
AcDbEntity
  8
0
100
AcDbBlockEnd
  0
BLOCK
  5
1C
330
1B
100
AcDbEntity
 67
     1
  8
0
100
AcDbBlockBegin
  2
*Paper_Space
 70
     0
 10
0.0
 20
0.0
 30
0.0
  3
*Paper_Space
  1

  0
ENDBLK
  5
1D
330
1B
100
AcDbEntity
 67
     1
  8
0
100
AcDbBlockEnd
  0
BLOCK
  5
24
330
23
100
AcDbEntity
 67
     1
  8
0
100
AcDbBlockBegin
  2
*Paper_Space0
 70
     0
 10
0.0
 20
0.0
 30
0.0
  3
*Paper_Space0
  1

  0
ENDBLK
  5
25
330
23
100
AcDbEntity
 67
     1
  8
0
100
AcDbBlockEnd
  0
BLOCK
  5
2C0
330
2BE
100
AcDbEntity
  8
0
100
AcDbBlockBegin
  2
A$C6f453532
 70
     0
 10
0.0
 20
0.0
 30
0.0
  3
A$C6f453532
  1

  0
MTEXT
  5
2BF
330
2BE
100
AcDbEntity
  8
Text
100
AcDbMText
 10
0.0
 20
0.0
 30
0.0
 40
0.5
 41
4.443980388984073
 46
0.0
 71
     1
 72
     5
  1
{\fVerdana|b0|i0|c0|p34;BIAS}
 11
0.0000000000000001
 21
1.0
 31
0.0
 73
     1
 44
1.0
1001
ACAD
1000
ACAD_MTEXT_COLUMN_INFO_BEGIN
1070
    75
1070
     2
1070
    79
1070
     0
1070
    76
1070
     1
1070
    78
1070
     0
1070
    48
1040
4.443980388984073
1070
    49
1040
22.96500902767548
1070
    50
1070
     1
1040
0.0
1000
ACAD_MTEXT_COLUMN_INFO_END
  0
ENDBLK
  5
2C1
330
2BE
100
AcDbEntity
  8
0
100
AcDbBlockEnd
  0
ENDSEC
  0
SECTION
  2
ENTITIES
  0
ARC
  5
75
330
1F
100
AcDbEntity
  8
0
  6
Continuous
 62
     7
370
    25
100
AcDbCircle
 10
7.0
 20
7.5
 30
0.0
 40
1.0
100
AcDbArc
 50
0.0
 51
90.0
  0
LINE
  5
76
330
1F
100
AcDbEntity
  8
0
  6
Continuous
 62
     7
370
    25
100
AcDbLine
 10
8.0
 20
7.5
 30
0.0
 11
8.0
 21
1.0
 31
0.0
  0
ARC
  5
77
330
1F
100
AcDbEntity
  8
0
  6
Continuous
 62
     7
370
    25
100
AcDbCircle
 10
7.0
 20
1.0
 30
0.0
 40
1.0
100
AcDbArc
 50
270.0
 51
0.0
  0
LINE
  5
78
330
1F
100
AcDbEntity
  8
0
  6
Continuous
 62
     7
370
    25
100
AcDbLine
 10
7.0
 20
0.0
 30
0.0
 11
4.899999999999977
 21
0.0
 31
0.0
  0
LINE
  5
79
330
1F
100
AcDbEntity
  8
0
  6
Continuous
 62
     7
370
    25
100
AcDbLine
 10
4.899999999999977
 20
0.0
 30
0.0
 11
4.899999999999977
 21
1.0
 31
0.0
  0
LINE
  5
7A
330
1F
100
AcDbEntity
  8
0
  6
Continuous
 62
     7
370
    25
100
AcDbLine
 10
5.0
 20
1.0
 30
0.0
 11
4.899999999999977
 21
1.0
 31
0.0
  0
LINE
  5
7B
330
1F
100
AcDbEntity
  8
0
  6
Continuous
 62
     7
370
    25
100
AcDbLine
 10
5.0
 20
2.699999999999988
 30
0.0
 11
5.0
 21
1.0
 31
0.0
  0
LINE
  5
7C
330
1F
100
AcDbEntity
  8
0
  6
Continuous
 62
     7
370
    25
100
AcDbLine
 10
4.899999999999977
 20
2.699999999999988
 30
0.0
 11
5.0
 21
2.699999999999988
 31
0.0
  0
LINE
  5
7D
330
1F
100
AcDbEntity
  8
0
  6
Continuous
 62
     7
370
    25
100
AcDbLine
 10
4.899999999999977
 20
2.699999999999988
 30
0.0
 11
5.979203511175626
 21
2.857585622569814
 31
0.0
  0
ARC
  5
7E
330
1F
100
AcDbEntity
  8
0
  6
Continuous
 62
     7
370
    25
100
AcDbCircle
 10
5.900000000000005
 20
3.400000000000005
 30
0.0
 40
0.5481665376740251
100
AcDbArc
 50
278.3076341199423
 51
0.0
  0
LINE
  5
7F
330
1F
100
AcDbEntity
  8
0
  6
Continuous
 62
     7
370
    25
100
AcDbLine
 10
6.448166537673984
 20
3.400000000000005
 30
0.0
 11
6.448166537673984
 21
4.400000000000005
 31
0.0
  0
LINE
  5
80
330
1F
100
AcDbEntity
  8
0
  6
Continuous
 62
     7
370
    25
100
AcDbLine
 10
6.5
 20
4.400000000000005
 30
0.0
 11
6.448166537673984
 21
4.400000000000005
 31
0.0
  0
LINE
  5
81
330
1F
100
AcDbEntity
  8
0
  6
Continuous
 62
     7
370
    25
100
AcDbLine
 10
6.5
 20
6.099999999999994
 30
0.0
 11
6.5
 21
4.400000000000005
 31
0.0
  0
LINE
  5
82
330
1F
100
AcDbEntity
  8
0
  6
Continuous
 62
     7
370
    25
100
AcDbLine
 10
6.448166537673984
 20
6.099999999999994
 30
0.0
 11
6.5
 21
6.099999999999994
 31
0.0
  0
LINE
  5
83
330
1F
100
AcDbEntity
  8
0
  6
Continuous
 62
     7
370
    25
100
AcDbLine
 10
6.448166537673984
 20
6.099999999999994
 30
0.0
 11
6.448166537673984
 21
8.5
 31
0.0
  0
LINE
  5
84
330
1F
100
AcDbEntity
  8
0
  6
Continuous
 62
     7
370
    25
100
AcDbLine
 10
6.448166537673984
 20
8.5
 30
0.0
 11
7.0
 21
8.5
 31
0.0
  0
LINE
  5
85
330
1F
100
AcDbEntity
  8
0
  6
Continuous
 62
     7
370
    25
100
AcDbLine
 10
1.5
 20
0.0
 30
0.0
 11
1.5
 21
8.5
 31
0.0
  0
LINE
  5
86
330
1F
100
AcDbEntity
  8
0
  6
Continuous
 62
     7
370
    25
100
AcDbLine
 10
1.5
 20
8.5
 30
0.0
 11
5.448166537673984
 21
8.5
 31
0.0
  0
LINE
  5
87
330
1F
100
AcDbEntity
  8
0
  6
Continuous
 62
     7
370
    25
100
AcDbLine
 10
5.448166537673984
 20
8.5
 30
0.0
 11
5.448166537673984
 21
3.790648177449781
 31
0.0
  0
LINE
  5
88
330
1F
100
AcDbEntity
  8
0
  6
Continuous
 62
     7
370
    25
100
AcDbLine
 10
5.448166537673984
 20
3.790648177449781
 30
0.0
 11
4.327755977670847
 21
3.627045489167585
 31
0.0
  0
ARC
  5
89
330
1F
100
AcDbEntity
  8
0
  6
Continuous
 62
     7
370
    25
100
AcDbCircle
 10
4.400000000000005
 20
3.132292216073068
 30
0.0
 40
0.5000000000000337
100
AcDbArc
 50
98.30763411994389
 51
180.0
  0
LINE
  5
8A
330
1F
100
AcDbEntity
  8
0
  6
Continuous
 62
     7
370
    25
100
AcDbLine
 10
3.900000000000005
 20
3.132292216073068
 30
0.0
 11
3.900000000000005
 21
0.0
 31
0.0
  0
LINE
  5
8B
330
1F
100
AcDbEntity
  8
0
  6
Continuous
 62
     7
370
    25
100
AcDbLine
 10
3.900000000000005
 20
0.0
 30
0.0
 11
1.5
 21
0.0
 31
0.0
  0
LINE
  5
8C
330
1F
100
AcDbEntity
  8
0
  6
Continuous
 62
     7
370
    25
100
AcDbLine
 10
0.2999999999999829
 20
7.0
 30
0.0
 11
0.2999999999999829
 21
4.0
 31
0.0
  0
LINE
  5
8D
330
1F
100
AcDbEntity
  8
0
  6
Continuous
 62
     7
370
    25
100
AcDbLine
 10
0.0
 20
7.0
 30
0.0
 11
0.2999999999999829
 21
7.0
 31
0.0
  0
LINE
  5
8E
330
1F
100
AcDbEntity
  8
0
  6
Continuous
 62
     7
370
    25
100
AcDbLine
 10
0.0
 20
8.5
 30
0.0
 11
0.0
 21
7.0
 31
0.0
  0
ARC
  5
8F
330
1F
100
AcDbEntity
  8
0
  6
Continuous
 62
     7
370
    25
100
AcDbCircle
 10
1.299999999999982
 20
1.0
 30
0.0
 40
1.0
100
AcDbArc
 50
180.0
 51
270.0
  0
LINE
  5
90
330
1F
100
AcDbEntity
  8
0
  6
Continuous
 62
     7
370
    25
100
AcDbLine
 10
0.2999999999999829
 20
2.0
 30
0.0
 11
0.2999999999999829
 21
1.0
 31
0.0
  0
LINE
  5
91
330
1F
100
AcDbEntity
  8
0
  6
Continuous
 62
     7
370
    25
100
AcDbLine
 10
0.0
 20
2.0
 30
0.0
 11
0.2999999999999829
 21
2.0
 31
0.0
  0
LINE
  5
92
330
1F
100
AcDbEntity
  8
0
  6
Continuous
 62
     7
370
    25
100
AcDbLine
 10
0.0
 20
4.0
 30
0.0
 11
0.0
 21
2.0
 31
0.0
  0
LINE
  5
93
330
1F
100
AcDbEntity
  8
0
  6
Continuous
 62
     7
370
    25
100
AcDbLine
 10
0.2999999999999829
 20
4.0
 30
0.0
 11
0.0
 21
4.0
 31
0.0
  0
LINE
  5
94
330
1F
100
AcDbEntity
  8
0
  6
Continuous
 62
     7
370
    25
100
AcDbLine
 10
1.5
 20
8.5
 30
0.0
 11
0.0
 21
8.5
 31
0.0
  0
LINE
  5
95
330
1F
100
AcDbEntity
  8
0
  6
Continuous
 62
     7
370
    25
100
AcDbLine
 10
1.299999999999982
 20
0.0
 30
0.0
 11
1.5
 21
0.0
 31
0.0
  0
LINE
  5
96
330
1F
100
AcDbEntity
  8
0
  6
Continuous
 62
     7
370
    25
100
AcDbLine
 10
5.900000000000005
 20
6.099999999999994
 30
0.0
 11
5.900000000000005
 21
4.400000000000005
 31
0.0
  0
LINE
  5
97
330
1F
100
AcDbEntity
  8
0
  6
Continuous
 62
     7
370
    25
100
AcDbLine
 10
4.400000000000005
 20
2.699999999999988
 30
0.0
 11
4.400000000000005
 21
1.0
 31
0.0
  0
LINE
  5
98
330
1F
100
AcDbEntity
  8
0
  6
Continuous
 62
     7
370
    25
100
AcDbLine
 10
6.448166537673984
 20
8.5
 30
0.0
 11
5.448166537673984
 21
8.5
 31
0.0
  0
LINE
  5
99
330
1F
100
AcDbEntity
  8
0
  6
Continuous
 62
     7
370
    25
100
AcDbLine
 10
6.448166537673984
 20
6.099999999999994
 30
0.0
 11
5.900000000000005
 21
6.099999999999994
 31
0.0
  0
LINE
  5
9A
330
1F
100
AcDbEntity
  8
0
  6
Continuous
 62
     7
370
    25
100
AcDbLine
 10
5.900000000000005
 20
4.400000000000005
 30
0.0
 11
6.448166537673984
 21
4.400000000000005
 31
0.0
  0
LINE
  5
9B
330
1F
100
AcDbEntity
  8
0
  6
Continuous
 62
     7
370
    25
100
AcDbLine
 10
4.899999999999977
 20
2.699999999999988
 30
0.0
 11
4.400000000000005
 21
2.699999999999988
 31
0.0
  0
LINE
  5
9C
330
1F
100
AcDbEntity
  8
0
  6
Continuous
 62
     7
370
    25
100
AcDbLine
 10
4.400000000000005
 20
1.0
 30
0.0
 11
4.899999999999977
 21
1.0
 31
0.0
  0
LINE
  5
9D
330
1F
100
AcDbEntity
  8
0
  6
Continuous
 62
     7
370
    25
100
AcDbLine
 10
3.900000000000005
 20
0.0
 30
0.0
 11
4.899999999999977
 21
0.0
 31
0.0
  0
LINE
  5
9E
330
1F
100
AcDbEntity
  8
0
  6
Continuous
 62
     7
370
    25
100
AcDbLine
 10
4.37421230873295
 20
15.66041285824011
 30
0.0
 11
1.474212308732944
 21
15.66041285824011
 31
0.0
  0
LINE
  5
9F
330
1F
100
AcDbEntity
  8
0
  6
Continuous
 62
     7
370
    25
100
AcDbLine
 10
4.37421230873295
 20
15.66041285824011
 30
0.0
 11
4.37421230873295
 21
12.36041285824012
 31
0.0
  0
LINE
  5
A0
330
1F
100
AcDbEntity
  8
0
  6
Continuous
 62
     7
370
    25
100
AcDbLine
 10
4.37421230873295
 20
12.36041285824012
 30
0.0
 11
5.87421230873295
 21
12.36041285824012
 31
0.0
  0
LINE
  5
A1
330
1F
100
AcDbEntity
  8
0
  6
Continuous
 62
     7
370
    25
100
AcDbLine
 10
5.87421230873295
 20
12.36041285824012
 30
0.0
 11
5.87421230873295
 21
8.660412858240107
 31
0.0
  0
LINE
  5
A2
330
1F
100
AcDbEntity
  8
0
  6
Continuous
 62
     7
370
    25
100
AcDbLine
 10
1.474212308732944
 20
8.660412858240107
 30
0.0
 11
5.87421230873295
 21
8.660412858240107
 31
0.0
  0
LINE
  5
A3
330
1F
100
AcDbEntity
  8
0
  6
Continuous
 62
     7
370
    25
100
AcDbLine
 10
1.474212308732944
 20
8.660412858240107
 30
0.0
 11
1.474212308732944
 21
15.66041285824011
 31
0.0
  0
LINE
  5
A4
330
1F
100
AcDbEntity
  8
0
  6
Continuous
 62
     7
370
    25
100
AcDbLine
 10
6.474212308732944
 20
13.56041285824014
 30
0.0
 11
6.474212308732944
 21
15.66041285824011
 31
0.0
  0
LINE
  5
A5
330
1F
100
AcDbEntity
  8
0
  6
Continuous
 62
     7
370
    25
100
AcDbLine
 10
5.87421230873295
 20
12.96041285824012
 30
0.0
 11
6.474212308732944
 21
13.56041285824014
 31
0.0
  0
LINE
  5
A6
330
1F
100
AcDbEntity
  8
0
  6
Continuous
 62
     7
370
    25
100
AcDbLine
 10
4.974212308732944
 20
12.96041285824012
 30
0.0
 11
5.87421230873295
 21
12.96041285824012
 31
0.0
  0
LINE
  5
A7
330
1F
100
AcDbEntity
  8
0
  6
Continuous
 62
     7
370
    25
100
AcDbLine
 10
4.974212308732944
 20
12.96041285824012
 30
0.0
 11
4.974212308732944
 21
15.66041285824011
 31
0.0
  0
LINE
  5
A8
330
1F
100
AcDbEntity
  8
0
  6
Continuous
 62
     7
370
    25
100
AcDbLine
 10
6.474212308732944
 20
15.66041285824011
 30
0.0
 11
4.974212308732944
 21
15.66041285824011
 31
0.0
  0
LINE
  5
A9
330
1F
100
AcDbEntity
  8
0
  6
Continuous
 62
     7
370
    25
100
AcDbLine
 10
6.474212308732944
 20
8.660412858240107
 30
0.0
 11
6.974212308732944
 21
8.660412858240107
 31
0.0
  0
LINE
  5
AA
330
1F
100
AcDbEntity
  8
0
  6
Continuous
 62
     7
370
    25
100
AcDbLine
 10
6.474212308732944
 20
12.36041285824012
 30
0.0
 11
7.074212308732938
 21
12.96041285824012
 31
0.0
  0
LINE
  5
AB
330
1F
100
AcDbEntity
  8
0
  6
Continuous
 62
     7
370
    25
100
AcDbLine
 10
7.074212308732938
 20
12.96041285824012
 30
0.0
 11
7.074212308732938
 21
15.65540029534673
 31
0.0
  0
LINE
  5
AC
330
1F
100
AcDbEntity
  8
0
  6
Continuous
 62
     7
370
    25
100
AcDbLine
 10
7.974212308732944
 20
9.660412858240107
 30
0.0
 11
7.974212308732944
 21
14.66041285824011
 31
0.0
  0
ARC
  5
AD
330
1F
100
AcDbEntity
  8
0
  6
Continuous
 62
     7
370
    25
100
AcDbCircle
 10
6.974212308732944
 20
14.66041285824011
 30
0.0
 40
1.000000000000009
100
AcDbArc
 50
0.0
 51
84.26082952273359
  0
ARC
  5
AE
330
1F
100
AcDbEntity
  8
0
  6
Continuous
 62
     7
370
    25
100
AcDbCircle
 10
6.974212308732944
 20
9.660412858240107
 30
0.0
 40
1.0
100
AcDbArc
 50
270.0
 51
0.0
  0
LINE
  5
AF
330
1F
100
AcDbEntity
  8
0
  6
Continuous
 62
     7
370
    25
100
AcDbLine
 10
6.474212308732944
 20
8.660412858240107
 30
0.0
 11
6.474212308732944
 21
12.36041285824012
 31
0.0
  0
LINE
  5
B0
330
1F
100
AcDbEntity
  8
0
  6
Continuous
 62
     7
370
    25
100
AcDbLine
 10
0.2742123087329276
 20
10.16041285824011
 30
0.0
 11
-0.0257876912670554
 21
10.16041285824011
 31
0.0
  0
LINE
  5
B1
330
1F
100
AcDbEntity
  8
0
  6
Continuous
 62
     7
370
    25
100
AcDbLine
 10
0.2742123087329276
 20
13.6604128582401
 30
0.0
 11
-0.0257876912670554
 21
13.6604128582401
 31
0.0
  0
ARC
  5
B2
330
1F
100
AcDbEntity
  8
0
  6
Continuous
 62
     7
370
    25
100
AcDbCircle
 10
1.274212308732927
 20
14.66041285824011
 30
0.0
 40
1.0
100
AcDbArc
 50
90.0
 51
180.0
  0
LINE
  5
B3
330
1F
100
AcDbEntity
  8
0
  6
Continuous
 62
     7
370
    25
100
AcDbLine
 10
-0.0257876912670554
 20
11.66041285824011
 30
0.0
 11
0.2742123087329276
 21
11.66041285824011
 31
0.0
  0
LINE
  5
B4
330
1F
100
AcDbEntity
  8
0
  6
Continuous
 62
     7
370
    25
100
AcDbLine
 10
-0.0257876912670554
 20
13.6604128582401
 30
0.0
 11
-0.0257876912670554
 21
11.66041285824011
 31
0.0
  0
LINE
  5
B5
330
1F
100
AcDbEntity
  8
0
  6
Continuous
 62
     7
370
    25
100
AcDbLine
 10
0.2742123087329276
 20
14.66041285824011
 30
0.0
 11
0.2742123087329276
 21
13.6604128582401
 31
0.0
  0
LINE
  5
B6
330
1F
100
AcDbEntity
  8
0
  6
Continuous
 62
     7
370
    25
100
AcDbLine
 10
0.2742123087329276
 20
11.66041285824011
 30
0.0
 11
0.2742123087329276
 21
10.16041285824011
 31
0.0
  0
LINE
  5
B7
330
1F
100
AcDbEntity
  8
0
  6
Continuous
 62
     7
370
    25
100
AcDbLine
 10
-0.0257876912670554
 20
10.16041285824011
 30
0.0
 11
-0.0257876912670554
 21
8.660412858240107
 31
0.0
  0
LINE
  5
B8
330
1F
100
AcDbEntity
  8
0
  6
Continuous
 62
     7
370
    25
100
AcDbLine
 10
-0.0257876912670554
 20
8.660412858240107
 30
0.0
 11
1.474212308732944
 21
8.660412858240107
 31
0.0
  0
LINE
  5
B9
330
1F
100
AcDbEntity
  8
0
  6
Continuous
 62
     7
370
    25
100
AcDbLine
 10
1.474212308732944
 20
15.66041285824011
 30
0.0
 11
1.274212308732927
 21
15.66041285824011
 31
0.0
  0
LINE
  5
BA
330
1F
100
AcDbEntity
  8
0
  6
Continuous
 62
     7
370
    25
100
AcDbLine
 10
6.474212308732944
 20
11.2604128582401
 30
0.0
 11
5.87421230873295
 21
11.2604128582401
 31
0.0
  0
LINE
  5
BB
330
1F
100
AcDbEntity
  8
0
  6
Continuous
 62
     7
370
    25
100
AcDbLine
 10
4.37421230873295
 20
12.96041285824012
 30
0.0
 11
4.974212308732944
 21
12.96041285824012
 31
0.0
  0
ARC
  5
BC
330
1F
100
AcDbEntity
  8
0
  6
Continuous
 62
     7
370
    25
100
AcDbCircle
 10
6.974212308732944
 20
14.66041285824011
 30
0.0
 40
1.0
100
AcDbArc
 50
84.26082952273359
 51
90.0
  0
LINE
  5
BD
330
1F
100
AcDbEntity
  8
0
  6
Continuous
 62
     7
370
    25
100
AcDbLine
 10
6.974212308732944
 20
15.66041285824011
 30
0.0
 11
6.474212308732944
 21
15.66041285824011
 31
0.0
  0
LINE
  5
BE
330
1F
100
AcDbEntity
  8
0
  6
Continuous
 62
     7
370
    25
100
AcDbLine
 10
4.37421230873295
 20
14.66041285824011
 30
0.0
 11
4.974212308732944
 21
14.66041285824011
 31
0.0
  0
LINE
  5
BF
330
1F
100
AcDbEntity
  8
0
  6
Continuous
 62
     7
370
    25
100
AcDbLine
 10
4.37421230873295
 20
15.66041285824011
 30
0.0
 11
4.974212308732944
 21
15.66041285824011
 31
0.0
  0
LINE
  5
C0
330
1F
100
AcDbEntity
  8
0
  6
Continuous
 62
     7
370
    25
100
AcDbLine
 10
5.87421230873295
 20
9.560412858240113
 30
0.0
 11
6.474212308732944
 21
9.560412858240113
 31
0.0
  0
LINE
  5
C1
330
1F
100
AcDbEntity
  8
0
  6
Continuous
 62
     7
370
    25
100
AcDbLine
 10
5.87421230873295
 20
8.660412858240107
 30
0.0
 11
6.474212308732944
 21
8.660412858240107
 31
0.0
  0
LINE
  5
172
330
1F
100
AcDbEntity
  8
Copper_Raster
  6
Continuous
370
    25
100
AcDbLine
 10
4.899999999999977
 20
0.0
 30
0.0
 11
4.899999999999977
 21
1.0
 31
0.0
  0
LINE
  5
173
330
1F
100
AcDbEntity
  8
Copper_Raster
  6
Continuous
370
    25
100
AcDbLine
 10
5.0
 20
1.0
 30
0.0
 11
4.899999999999977
 21
1.0
 31
0.0
  0
LINE
  5
174
330
1F
100
AcDbEntity
  8
Copper_Raster
  6
Continuous
370
    25
100
AcDbLine
 10
5.0
 20
2.699999999999988
 30
0.0
 11
5.0
 21
1.0
 31
0.0
  0
LINE
  5
175
330
1F
100
AcDbEntity
  8
Copper_Raster
  6
Continuous
370
    25
100
AcDbLine
 10
4.899999999999977
 20
2.699999999999988
 30
0.0
 11
5.0
 21
2.699999999999988
 31
0.0
  0
LINE
  5
176
330
1F
100
AcDbEntity
  8
Copper_Raster
  6
Continuous
370
    25
100
AcDbLine
 10
4.899999999999977
 20
2.699999999999988
 30
0.0
 11
5.979203511175626
 21
2.857585622569814
 31
0.0
  0
ARC
  5
177
330
1F
100
AcDbEntity
  8
Copper_Raster
  6
Continuous
370
    25
100
AcDbCircle
 10
5.900000000000005
 20
3.400000000000005
 30
0.0
 40
0.5481665376740251
100
AcDbArc
 50
278.3076341199422
 51
0.0
  0
LINE
  5
178
330
1F
100
AcDbEntity
  8
Copper_Raster
  6
Continuous
370
    25
100
AcDbLine
 10
6.448166537673984
 20
3.400000000000005
 30
0.0
 11
6.448166537673984
 21
4.400000000000005
 31
0.0
  0
LINE
  5
179
330
1F
100
AcDbEntity
  8
Copper_Raster
  6
Continuous
370
    25
100
AcDbLine
 10
6.5
 20
4.400000000000005
 30
0.0
 11
6.448166537673984
 21
4.400000000000005
 31
0.0
  0
LINE
  5
17A
330
1F
100
AcDbEntity
  8
Copper_Raster
  6
Continuous
370
    25
100
AcDbLine
 10
6.5
 20
6.099999999999994
 30
0.0
 11
6.5
 21
4.400000000000005
 31
0.0
  0
LINE
  5
17B
330
1F
100
AcDbEntity
  8
Copper_Raster
  6
Continuous
370
    25
100
AcDbLine
 10
6.448166537673984
 20
6.099999999999994
 30
0.0
 11
6.5
 21
6.099999999999994
 31
0.0
  0
LINE
  5
17C
330
1F
100
AcDbEntity
  8
Copper_Raster
  6
Continuous
370
    25
100
AcDbLine
 10
6.448166537673984
 20
6.099999999999994
 30
0.0
 11
6.448166537673984
 21
8.5
 31
0.0
  0
LINE
  5
17E
330
1F
100
AcDbEntity
  8
Copper_Raster
  6
Continuous
370
    25
100
AcDbLine
 10
1.5
 20
0.0
 30
0.0
 11
1.5
 21
8.5
 31
0.0
  0
LINE
  5
180
330
1F
100
AcDbEntity
  8
Copper_Raster
  6
Continuous
370
    25
100
AcDbLine
 10
5.448166537673984
 20
8.5
 30
0.0
 11
5.448166537673984
 21
3.790648177449781
 31
0.0
  0
LINE
  5
181
330
1F
100
AcDbEntity
  8
Copper_Raster
  6
Continuous
370
    25
100
AcDbLine
 10
5.448166537673984
 20
3.790648177449781
 30
0.0
 11
4.327755977670847
 21
3.627045489167585
 31
0.0
  0
ARC
  5
182
330
1F
100
AcDbEntity
  8
Copper_Raster
  6
Continuous
370
    25
100
AcDbCircle
 10
4.400000000000005
 20
3.132292216073068
 30
0.0
 40
0.5000000000000337
100
AcDbArc
 50
98.30763411994389
 51
180.0
  0
LINE
  5
183
330
1F
100
AcDbEntity
  8
Copper_Raster
  6
Continuous
370
    25
100
AcDbLine
 10
3.900000000000005
 20
3.132292216073068
 30
0.0
 11
3.900000000000005
 21
0.0
 31
0.0
  0
LINE
  5
18E
330
1F
100
AcDbEntity
  8
Copper_Raster
  6
Continuous
370
    25
100
AcDbLine
 10
1.299999999999982
 20
0.0
 30
0.0
 11
1.5
 21
0.0
 31
0.0
  0
LINE
  5
198
330
1F
100
AcDbEntity
  8
Copper_Raster
  6
Continuous
370
    25
100
AcDbLine
 10
4.400000000000005
 20
15.70997756672074
 30
0.0
 11
4.400000000000005
 21
12.40997756672075
 31
0.0
  0
LINE
  5
199
330
1F
100
AcDbEntity
  8
Copper_Raster
  6
Continuous
370
    25
100
AcDbLine
 10
4.400000000000005
 20
12.40997756672075
 30
0.0
 11
5.900000000000005
 21
12.40997756672075
 31
0.0
  0
LINE
  5
19A
330
1F
100
AcDbEntity
  8
Copper_Raster
  6
Continuous
370
    25
100
AcDbLine
 10
5.900000000000005
 20
12.40997756672075
 30
0.0
 11
5.900000000000005
 21
8.709977566720738
 31
0.0
  0
LINE
  5
19C
330
1F
100
AcDbEntity
  8
Copper_Raster
  6
Continuous
370
    25
100
AcDbLine
 10
1.5
 20
8.709977566720738
 30
0.0
 11
1.5
 21
15.70997756672074
 31
0.0
  0
LINE
  5
19D
330
1F
100
AcDbEntity
  8
Copper_Raster
  6
Continuous
370
    25
100
AcDbLine
 10
6.5
 20
13.60997756672077
 30
0.0
 11
6.5
 21
15.70997756672074
 31
0.0
  0
LINE
  5
19E
330
1F
100
AcDbEntity
  8
Copper_Raster
  6
Continuous
370
    25
100
AcDbLine
 10
5.900000000000005
 20
13.00997756672075
 30
0.0
 11
6.5
 21
13.60997756672077
 31
0.0
  0
LINE
  5
19F
330
1F
100
AcDbEntity
  8
Copper_Raster
  6
Continuous
370
    25
100
AcDbLine
 10
5.0
 20
13.00997756672075
 30
0.0
 11
5.900000000000005
 21
13.00997756672075
 31
0.0
  0
LINE
  5
1A0
330
1F
100
AcDbEntity
  8
Copper_Raster
  6
Continuous
370
    25
100
AcDbLine
 10
5.0
 20
13.00997756672075
 30
0.0
 11
5.0
 21
15.70997756672074
 31
0.0
  0
LINE
  5
1A3
330
1F
100
AcDbEntity
  8
Copper_Raster
  6
Continuous
370
    25
100
AcDbLine
 10
6.5
 20
12.40997756672075
 30
0.0
 11
7.099999999999994
 21
13.00997756672075
 31
0.0
  0
LINE
  5
1A4
330
1F
100
AcDbEntity
  8
Copper_Raster
  6
Continuous
370
    25
100
AcDbLine
 10
7.099999999999994
 20
13.00997756672075
 30
0.0
 11
7.099999999999994
 21
15.70496500382737
 31
0.0
  0
LINE
  5
1A8
330
1F
100
AcDbEntity
  8
Copper_Raster
  6
Continuous
370
    25
100
AcDbLine
 10
6.5
 20
8.709977566720738
 30
0.0
 11
6.5
 21
12.40997756672075
 31
0.0
  0
LINE
  5
1B2
330
1F
100
AcDbEntity
  8
Copper_Raster
  6
Continuous
370
    25
100
AcDbLine
 10
1.5
 20
15.70997756672074
 30
0.0
 11
1.299999999999982
 21
15.70997756672074
 31
0.0
  0
ARC
  5
20C
330
1F
100
AcDbEntity
  8
FINAL_RELEASECUT
  6
Continuous
370
    25
100
AcDbCircle
 10
7.0
 20
7.5
 30
0.0
 40
1.0
100
AcDbArc
 50
0.0
 51
90.0
  0
LINE
  5
20D
330
1F
100
AcDbEntity
  8
FINAL_RELEASECUT
  6
Continuous
370
    25
100
AcDbLine
 10
8.0
 20
7.5
 30
0.0
 11
8.0
 21
1.0
 31
0.0
  0
ARC
  5
20E
330
1F
100
AcDbEntity
  8
FINAL_RELEASECUT
  6
Continuous
370
    25
100
AcDbCircle
 10
7.0
 20
1.0
 30
0.0
 40
1.0
100
AcDbArc
 50
270.0
 51
0.0
  0
LINE
  5
20F
330
1F
100
AcDbEntity
  8
FINAL_RELEASECUT
  6
Continuous
370
    25
100
AcDbLine
 10
7.0
 20
0.0
 30
0.0
 11
4.899999999999977
 21
0.0
 31
0.0
  0
LINE
  5
211
330
1F
100
AcDbEntity
  8
FINAL_RELEASECUT
  6
Continuous
370
    25
100
AcDbLine
 10
5.0
 20
1.0
 30
0.0
 11
4.899999999999977
 21
1.0
 31
0.0
  0
LINE
  5
212
330
1F
100
AcDbEntity
  8
FINAL_RELEASECUT
  6
Continuous
370
    25
100
AcDbLine
 10
5.0
 20
2.699999999999988
 30
0.0
 11
5.0
 21
1.0
 31
0.0
  0
LINE
  5
213
330
1F
100
AcDbEntity
  8
FINAL_RELEASECUT
  6
Continuous
370
    25
100
AcDbLine
 10
4.899999999999977
 20
2.699999999999988
 30
0.0
 11
5.0
 21
2.699999999999988
 31
0.0
  0
LINE
  5
217
330
1F
100
AcDbEntity
  8
FINAL_RELEASECUT
  6
Continuous
370
    25
100
AcDbLine
 10
6.5
 20
4.400000000000005
 30
0.0
 11
6.448166537673984
 21
4.400000000000005
 31
0.0
  0
LINE
  5
218
330
1F
100
AcDbEntity
  8
FINAL_RELEASECUT
  6
Continuous
370
    25
100
AcDbLine
 10
6.5
 20
6.099999999999994
 30
0.0
 11
6.5
 21
4.400000000000005
 31
0.0
  0
LINE
  5
219
330
1F
100
AcDbEntity
  8
FINAL_RELEASECUT
  6
Continuous
370
    25
100
AcDbLine
 10
6.448166537673984
 20
6.099999999999994
 30
0.0
 11
6.5
 21
6.099999999999994
 31
0.0
  0
LINE
  5
21B
330
1F
100
AcDbEntity
  8
FINAL_RELEASECUT
  6
Continuous
370
    25
100
AcDbLine
 10
6.448166537673984
 20
8.5
 30
0.0
 11
7.0
 21
8.5
 31
0.0
  0
LINE
  5
21D
330
1F
100
AcDbEntity
  8
FINAL_RELEASECUT
  6
Continuous
370
    25
100
AcDbLine
 10
1.5
 20
8.5
 30
0.0
 11
5.448166537673984
 21
8.5
 31
0.0
  0
LINE
  5
222
330
1F
100
AcDbEntity
  8
FINAL_RELEASECUT
  6
Continuous
370
    25
100
AcDbLine
 10
3.900000000000005
 20
0.0
 30
0.0
 11
1.5
 21
0.0
 31
0.0
  0
LINE
  5
223
330
1F
100
AcDbEntity
  8
FINAL_RELEASECUT
  6
Continuous
370
    25
100
AcDbLine
 10
0.2999999999999829
 20
7.0
 30
0.0
 11
0.2999999999999829
 21
4.0
 31
0.0
  0
LINE
  5
224
330
1F
100
AcDbEntity
  8
FINAL_RELEASECUT
  6
Continuous
370
    25
100
AcDbLine
 10
0.0
 20
7.0
 30
0.0
 11
0.2999999999999829
 21
7.0
 31
0.0
  0
LINE
  5
225
330
1F
100
AcDbEntity
  8
FINAL_RELEASECUT
  6
Continuous
370
    25
100
AcDbLine
 10
0.0
 20
8.5
 30
0.0
 11
0.0
 21
7.0
 31
0.0
  0
ARC
  5
226
330
1F
100
AcDbEntity
  8
FINAL_RELEASECUT
  6
Continuous
370
    25
100
AcDbCircle
 10
1.299999999999982
 20
1.0
 30
0.0
 40
1.0
100
AcDbArc
 50
180.0
 51
270.0
  0
LINE
  5
227
330
1F
100
AcDbEntity
  8
FINAL_RELEASECUT
  6
Continuous
370
    25
100
AcDbLine
 10
0.2999999999999829
 20
2.0
 30
0.0
 11
0.2999999999999829
 21
1.0
 31
0.0
  0
LINE
  5
228
330
1F
100
AcDbEntity
  8
FINAL_RELEASECUT
  6
Continuous
370
    25
100
AcDbLine
 10
0.0
 20
2.0
 30
0.0
 11
0.2999999999999829
 21
2.0
 31
0.0
  0
LINE
  5
229
330
1F
100
AcDbEntity
  8
FINAL_RELEASECUT
  6
Continuous
370
    25
100
AcDbLine
 10
0.0
 20
4.0
 30
0.0
 11
0.0
 21
2.0
 31
0.0
  0
LINE
  5
22A
330
1F
100
AcDbEntity
  8
FINAL_RELEASECUT
  6
Continuous
370
    25
100
AcDbLine
 10
0.2999999999999829
 20
4.0
 30
0.0
 11
0.0
 21
4.0
 31
0.0
  0
LINE
  5
22B
330
1F
100
AcDbEntity
  8
FINAL_RELEASECUT
  6
Continuous
370
    25
100
AcDbLine
 10
1.5
 20
8.5
 30
0.0
 11
0.0
 21
8.5
 31
0.0
  0
LINE
  5
22C
330
1F
100
AcDbEntity
  8
FINAL_RELEASECUT
  6
Continuous
370
    25
100
AcDbLine
 10
1.299999999999982
 20
0.0
 30
0.0
 11
1.5
 21
0.0
 31
0.0
  0
LINE
  5
22D
330
1F
100
AcDbEntity
  8
FINAL_RELEASECUT
  6
Continuous
370
    25
100
AcDbLine
 10
5.900000000000005
 20
6.099999999999994
 30
0.0
 11
5.900000000000005
 21
4.400000000000005
 31
0.0
  0
LINE
  5
22E
330
1F
100
AcDbEntity
  8
FINAL_RELEASECUT
  6
Continuous
370
    25
100
AcDbLine
 10
4.400000000000005
 20
2.699999999999988
 30
0.0
 11
4.400000000000005
 21
1.0
 31
0.0
  0
LINE
  5
22F
330
1F
100
AcDbEntity
  8
FINAL_RELEASECUT
  6
Continuous
370
    25
100
AcDbLine
 10
6.448166537673984
 20
8.5
 30
0.0
 11
5.448166537673984
 21
8.5
 31
0.0
  0
LINE
  5
230
330
1F
100
AcDbEntity
  8
FINAL_RELEASECUT
  6
Continuous
370
    25
100
AcDbLine
 10
6.448166537673984
 20
6.099999999999994
 30
0.0
 11
5.900000000000005
 21
6.099999999999994
 31
0.0
  0
LINE
  5
231
330
1F
100
AcDbEntity
  8
FINAL_RELEASECUT
  6
Continuous
370
    25
100
AcDbLine
 10
5.900000000000005
 20
4.400000000000005
 30
0.0
 11
6.448166537673984
 21
4.400000000000005
 31
0.0
  0
LINE
  5
232
330
1F
100
AcDbEntity
  8
FINAL_RELEASECUT
  6
Continuous
370
    25
100
AcDbLine
 10
4.899999999999977
 20
2.699999999999988
 30
0.0
 11
4.400000000000005
 21
2.699999999999988
 31
0.0
  0
LINE
  5
233
330
1F
100
AcDbEntity
  8
FINAL_RELEASECUT
  6
Continuous
370
    25
100
AcDbLine
 10
4.400000000000005
 20
1.0
 30
0.0
 11
4.899999999999977
 21
1.0
 31
0.0
  0
LINE
  5
234
330
1F
100
AcDbEntity
  8
FINAL_RELEASECUT
  6
Continuous
370
    25
100
AcDbLine
 10
3.900000000000005
 20
0.0
 30
0.0
 11
4.899999999999977
 21
0.0
 31
0.0
  0
LINE
  5
235
330
1F
100
AcDbEntity
  8
FINAL_RELEASECUT
  6
Continuous
370
    25
100
AcDbLine
 10
4.400000000000005
 20
15.70997756672074
 30
0.0
 11
1.5
 21
15.70997756672074
 31
0.0
  0
LINE
  5
236
330
1F
100
AcDbEntity
  8
FINAL_RELEASECUT
  6
Continuous
370
    25
100
AcDbLine
 10
4.400000000000005
 20
14.70997756672073
 30
0.0
 11
4.400000000000005
 21
13.00997756672075
 31
0.0
  0
LINE
  5
238
330
1F
100
AcDbEntity
  8
FINAL_RELEASECUT
  6
Continuous
370
    25
100
AcDbLine
 10
5.900000000000004
 20
11.30997756672073
 30
0.0
 11
5.900000000000005
 21
9.609977566720743
 31
0.0
  0
LINE
  5
239
330
1F
100
AcDbEntity
  8
FINAL_RELEASECUT
  6
Continuous
370
    25
100
AcDbLine
 10
1.5
 20
8.709977566720738
 30
0.0
 11
5.900000000000005
 21
8.709977566720738
 31
0.0
  0
LINE
  5
23E
330
1F
100
AcDbEntity
  8
FINAL_RELEASECUT
  6
Continuous
370
    25
100
AcDbLine
 10
5.0
 20
13.00997756672075
 30
0.0
 11
4.999999999999999
 21
14.70997756672073
 31
0.0
  0
LINE
  5
23F
330
1F
100
AcDbEntity
  8
FINAL_RELEASECUT
  6
Continuous
370
    25
100
AcDbLine
 10
6.5
 20
15.70997756672074
 30
0.0
 11
5.0
 21
15.70997756672074
 31
0.0
  0
LINE
  5
240
330
1F
100
AcDbEntity
  8
FINAL_RELEASECUT
  6
Continuous
370
    25
100
AcDbLine
 10
6.5
 20
8.709977566720738
 30
0.0
 11
7.0
 21
8.709977566720738
 31
0.0
  0
LINE
  5
243
330
1F
100
AcDbEntity
  8
FINAL_RELEASECUT
  6
Continuous
370
    25
100
AcDbLine
 10
8.0
 20
9.709977566720738
 30
0.0
 11
8.0
 21
14.70997756672074
 31
0.0
  0
ARC
  5
244
330
1F
100
AcDbEntity
  8
FINAL_RELEASECUT
  6
Continuous
370
    25
100
AcDbCircle
 10
7.0
 20
14.70997756672074
 30
0.0
 40
1.000000000000009
100
AcDbArc
 50
0.0
 51
84.26082952273354
  0
ARC
  5
245
330
1F
100
AcDbEntity
  8
FINAL_RELEASECUT
  6
Continuous
370
    25
100
AcDbCircle
 10
7.0
 20
9.709977566720738
 30
0.0
 40
1.0
100
AcDbArc
 50
270.0
 51
0.0
  0
LINE
  5
246
330
1F
100
AcDbEntity
  8
FINAL_RELEASECUT
  6
Continuous
370
    25
100
AcDbLine
 10
6.5
 20
9.609977566720743
 30
0.0
 11
6.5
 21
11.30997756672073
 31
0.0
  0
LINE
  5
247
330
1F
100
AcDbEntity
  8
FINAL_RELEASECUT
  6
Continuous
370
    25
100
AcDbLine
 10
0.2999999999999829
 20
10.20997756672074
 30
0.0
 11
0.0
 21
10.20997756672074
 31
0.0
  0
LINE
  5
248
330
1F
100
AcDbEntity
  8
FINAL_RELEASECUT
  6
Continuous
370
    25
100
AcDbLine
 10
0.2999999999999829
 20
13.70997756672074
 30
0.0
 11
0.0
 21
13.70997756672074
 31
0.0
  0
ARC
  5
249
330
1F
100
AcDbEntity
  8
FINAL_RELEASECUT
  6
Continuous
370
    25
100
AcDbCircle
 10
1.299999999999982
 20
14.70997756672074
 30
0.0
 40
1.0
100
AcDbArc
 50
90.0
 51
180.0
  0
LINE
  5
24A
330
1F
100
AcDbEntity
  8
FINAL_RELEASECUT
  6
Continuous
370
    25
100
AcDbLine
 10
0.0
 20
11.70997756672074
 30
0.0
 11
0.2999999999999829
 21
11.70997756672074
 31
0.0
  0
LINE
  5
24B
330
1F
100
AcDbEntity
  8
FINAL_RELEASECUT
  6
Continuous
370
    25
100
AcDbLine
 10
0.0
 20
13.70997756672074
 30
0.0
 11
0.0
 21
11.70997756672074
 31
0.0
  0
LINE
  5
24C
330
1F
100
AcDbEntity
  8
FINAL_RELEASECUT
  6
Continuous
370
    25
100
AcDbLine
 10
0.2999999999999829
 20
14.70997756672074
 30
0.0
 11
0.2999999999999829
 21
13.70997756672074
 31
0.0
  0
LINE
  5
24D
330
1F
100
AcDbEntity
  8
FINAL_RELEASECUT
  6
Continuous
370
    25
100
AcDbLine
 10
0.2999999999999829
 20
11.70997756672074
 30
0.0
 11
0.2999999999999829
 21
10.20997756672074
 31
0.0
  0
LINE
  5
24E
330
1F
100
AcDbEntity
  8
FINAL_RELEASECUT
  6
Continuous
370
    25
100
AcDbLine
 10
0.0
 20
10.20997756672074
 30
0.0
 11
0.0
 21
8.709977566720738
 31
0.0
  0
LINE
  5
24F
330
1F
100
AcDbEntity
  8
FINAL_RELEASECUT
  6
Continuous
370
    25
100
AcDbLine
 10
0.0
 20
8.709977566720738
 30
0.0
 11
1.5
 21
8.709977566720738
 31
0.0
  0
LINE
  5
250
330
1F
100
AcDbEntity
  8
FINAL_RELEASECUT
  6
Continuous
370
    25
100
AcDbLine
 10
1.5
 20
15.70997756672074
 30
0.0
 11
1.299999999999982
 21
15.70997756672074
 31
0.0
  0
LINE
  5
251
330
1F
100
AcDbEntity
  8
FINAL_RELEASECUT
  6
Continuous
370
    25
100
AcDbLine
 10
6.5
 20
11.30997756672073
 30
0.0
 11
5.900000000000005
 21
11.30997756672073
 31
0.0
  0
LINE
  5
252
330
1F
100
AcDbEntity
  8
FINAL_RELEASECUT
  6
Continuous
370
    25
100
AcDbLine
 10
4.400000000000005
 20
13.00997756672075
 30
0.0
 11
5.0
 21
13.00997756672075
 31
0.0
  0
ARC
  5
253
330
1F
100
AcDbEntity
  8
FINAL_RELEASECUT
  6
Continuous
370
    25
100
AcDbCircle
 10
7.0
 20
14.70997756672074
 30
0.0
 40
1.0
100
AcDbArc
 50
84.26082952273354
 51
90.0
  0
LINE
  5
254
330
1F
100
AcDbEntity
  8
FINAL_RELEASECUT
  6
Continuous
370
    25
100
AcDbLine
 10
7.0
 20
15.70997756672074
 30
0.0
 11
6.5
 21
15.70997756672074
 31
0.0
  0
LINE
  5
255
330
1F
100
AcDbEntity
  8
FINAL_RELEASECUT
  6
Continuous
370
    25
100
AcDbLine
 10
4.400000000000005
 20
14.70997756672074
 30
0.0
 11
5.0
 21
14.70997756672074
 31
0.0
  0
LINE
  5
256
330
1F
100
AcDbEntity
  8
FINAL_RELEASECUT
  6
Continuous
370
    25
100
AcDbLine
 10
4.400000000000005
 20
15.70997756672074
 30
0.0
 11
5.0
 21
15.70997756672074
 31
0.0
  0
LINE
  5
257
330
1F
100
AcDbEntity
  8
FINAL_RELEASECUT
  6
Continuous
370
    25
100
AcDbLine
 10
5.900000000000005
 20
9.609977566720743
 30
0.0
 11
6.5
 21
9.609977566720743
 31
0.0
  0
LINE
  5
258
330
1F
100
AcDbEntity
  8
FINAL_RELEASECUT
  6
Continuous
370
    25
100
AcDbLine
 10
5.900000000000005
 20
8.709977566720738
 30
0.0
 11
6.5
 21
8.709977566720738
 31
0.0
  0
LINE
  5
259
330
1F
100
AcDbEntity
  8
Copper_Raster
100
AcDbLine
 10
1.5
 20
15.70997756672074
 30
0.0
 11
0.0000000000000002
 21
15.70997756672074
 31
0.0
  0
LINE
  5
265
330
1F
100
AcDbEntity
  8
Copper_Raster
100
AcDbLine
 10
0.0000000000000001
 20
0.0000000000000002
 30
0.0
 11
1.5
 21
0.0000000000000002
 31
0.0
  0
LINE
  5
269
330
1F
100
AcDbEntity
  8
Copper_Raster
100
AcDbLine
 10
4.400000000000005
 20
15.70997756672074
 30
0.0
 11
4.400000000000005
 21
15.94929215790628
 31
0.0
  0
LINE
  5
26A
330
1F
100
AcDbEntity
  8
Copper_Raster
100
AcDbLine
 10
4.400000000000005
 20
15.94929215790628
 30
0.0
 11
5.0
 21
15.94929215790628
 31
0.0
  0
LINE
  5
26B
330
1F
100
AcDbEntity
  8
Copper_Raster
100
AcDbLine
 10
5.0
 20
15.94929215790628
 30
0.0
 11
5.0
 21
15.70997756672074
 31
0.0
  0
LINE
  5
26D
330
1F
100
AcDbEntity
  8
Copper_Raster
100
AcDbLine
 10
6.5
 20
15.70997756672074
 30
0.0
 11
6.5
 21
15.94929215790628
 31
0.0
  0
LINE
  5
26E
330
1F
100
AcDbEntity
  8
Copper_Raster
100
AcDbLine
 10
6.5
 20
15.94929215790628
 30
0.0
 11
7.099999999999994
 21
15.94929215790628
 31
0.0
  0
LINE
  5
26F
330
1F
100
AcDbEntity
  8
Copper_Raster
100
AcDbLine
 10
7.099999999999994
 20
15.94929215790628
 30
0.0
 11
7.099999999999994
 21
15.70496500382737
 31
0.0
  0
LINE
  5
270
330
1F
100
AcDbEntity
  8
Copper_Raster
100
AcDbLine
 10
3.900000000000005
 20
0.0
 30
0.0
 11
3.900000000000005
 21
-0.1783624090523967
 31
0.0
  0
LINE
  5
271
330
1F
100
AcDbEntity
  8
Copper_Raster
100
AcDbLine
 10
3.900000000000005
 20
-0.1783624090523967
 30
0.0
 11
4.899999999999977
 21
-0.1783624090523967
 31
0.0
  0
LINE
  5
272
330
1F
100
AcDbEntity
  8
Copper_Raster
100
AcDbLine
 10
4.899999999999977
 20
-0.1783624090523967
 30
0.0
 11
4.899999999999977
 21
0.0
 31
0.0
  0
MTEXT
  5
28C
330
1F
100
AcDbEntity
  8
Text
100
AcDbMText
 10
1.948296065232511
 20
9.861084629829093
 30
0.0
 40
0.8
 41
4.443980388984073
 46
0.0
 71
     1
 72
     5
  1
{\fVerdana|b0|i0|c0|p34;AIMRL}
 73
     1
 44
1.0
1001
ACAD
1000
ACAD_MTEXT_COLUMN_INFO_BEGIN
1070
    75
1070
     2
1070
    79
1070
     0
1070
    76
1070
     1
1070
    78
1070
     0
1070
    48
1040
4.443980388984073
1070
    49
1040
22.96500902767548
1070
    50
1070
     1
1040
0.0
1000
ACAD_MTEXT_COLUMN_INFO_END
  0
MTEXT
  5
292
330
1F
100
AcDbEntity
  8
Text
100
AcDbMText
 10
5.129999999999999
 20
7.099999999999999
 30
0.0
 40
0.8
 41
4.443980388984073
 46
0.0
 71
     1
 72
     5
  1
{\fVerdana|b0|i0|c0|p34;AIMRL}
 11
-1.0
 21
0.0000000000000001
 31
0.0
 73
     1
 44
1.0
1001
ACAD
1000
ACAD_MTEXT_COLUMN_INFO_BEGIN
1070
    75
1070
     2
1070
    79
1070
     0
1070
    76
1070
     1
1070
    78
1070
     0
1070
    48
1040
4.443980388984073
1070
    49
1040
22.96500902767548
1070
    50
1070
     1
1040
0.0
1000
ACAD_MTEXT_COLUMN_INFO_END
  0
LINE
  5
2AC
330
1F
100
AcDbEntity
  8
Copper_Raster
100
AcDbLine
 10
6.5
 20
8.709977566720738
 30
0.0
 11
6.448166537673984
 21
8.5
 31
0.0
  0
LINE
  5
2AD
330
1F
100
AcDbEntity
  8
Copper_Raster
100
AcDbLine
 10
5.900000000000005
 20
8.709977566720738
 30
0.0
 11
5.448166537673984
 21
8.5
 31
0.0
  0
LINE
  5
2AE
330
1F
100
AcDbEntity
  8
Copper_Raster
100
AcDbLine
 10
1.5
 20
8.709977566720738
 30
0.0
 11
1.5
 21
8.5
 31
0.0
  0
LINE
  5
2B0
330
1F
100
AcDbEntity
  8
Copper_Raster
100
AcDbLine
 10
0.0000000000000002
 20
15.70997756672074
 30
0.0
 11
0.0000000000000001
 21
0.0000000000000002
 31
0.0
  0
MTEXT
  5
2B6
330
1F
100
AcDbEntity
  8
Text
100
AcDbMText
 10
1.879527509691911
 20
11.43719342097409
 30
0.0
 40
0.5
 41
4.443980388984073
 46
0.0
 71
     1
 72
     5
  1
{\fVerdana|b0|i0|c0|p34;BIAS}
 11
0.0000000000000001
 21
1.0
 31
0.0
 73
     1
 44
1.0
1001
ACAD
1000
ACAD_MTEXT_COLUMN_INFO_BEGIN
1070
    75
1070
     2
1070
    79
1070
     0
1070
    76
1070
     1
1070
    78
1070
     0
1070
    48
1040
4.443980388984073
1070
    49
1040
22.96500902767548
1070
    50
1070
     1
1040
0.0
1000
ACAD_MTEXT_COLUMN_INFO_END
  0
MTEXT
  5
2C3
330
1F
100
AcDbEntity
  8
Text
100
AcDbMText
 10
7.875058973899967
 20
7.297823696978753
 30
0.0
 40
0.4
 41
4.443980388984073
 46
0.0
 71
     1
 72
     5
  1
{\fVerdana|b0|i0|c0|p34;GND}
 11
-1.0
 21
0.0000000000000001
 31
0.0
 73
     1
 44
1.0
1001
ACAD
1000
ACAD_MTEXT_COLUMN_INFO_BEGIN
1070
    75
1070
     2
1070
    79
1070
     0
1070
    76
1070
     1
1070
    78
1070
     0
1070
    48
1040
4.443980388984073
1070
    49
1040
22.96500902767548
1070
    50
1070
     1
1040
0.0
1000
ACAD_MTEXT_COLUMN_INFO_END
  0
LINE
  5
334
330
1F
100
AcDbEntity
  8
Copper_Raster
  6
Continuous
370
    25
100
AcDbLine
 10
13.24566150990404
 20
0.0160654262541011
 30
0.0
 11
13.24566150990404
 21
1.016065426254101
 31
0.0
  0
LINE
  5
335
330
1F
100
AcDbEntity
  8
Copper_Raster
  6
Continuous
370
    25
100
AcDbLine
 10
13.34566150990406
 20
1.016065426254101
 30
0.0
 11
13.24566150990404
 21
1.016065426254101
 31
0.0
  0
LINE
  5
336
330
1F
100
AcDbEntity
  8
Copper_Raster
  6
Continuous
370
    25
100
AcDbLine
 10
13.34566150990406
 20
2.716065426254089
 30
0.0
 11
13.34566150990406
 21
1.016065426254101
 31
0.0
  0
LINE
  5
337
330
1F
100
AcDbEntity
  8
Copper_Raster
  6
Continuous
370
    25
100
AcDbLine
 10
13.24566150990404
 20
2.716065426254089
 30
0.0
 11
13.34566150990406
 21
2.716065426254089
 31
0.0
  0
LINE
  5
338
330
1F
100
AcDbEntity
  8
Copper_Raster
  6
Continuous
370
    25
100
AcDbLine
 10
13.24566150990404
 20
2.716065426254089
 30
0.0
 11
14.32486502107969
 21
2.873651048823915
 31
0.0
  0
ARC
  5
339
330
1F
100
AcDbEntity
  8
Copper_Raster
  6
Continuous
370
    25
100
AcDbCircle
 10
14.24566150990407
 20
3.416065426254106
 30
0.0
 40
0.5481665376740251
100
AcDbArc
 50
278.3076341199422
 51
0.0
  0
LINE
  5
33A
330
1F
100
AcDbEntity
  8
Copper_Raster
  6
Continuous
370
    25
100
AcDbLine
 10
14.79382804757804
 20
3.416065426254106
 30
0.0
 11
14.79382804757804
 21
4.416065426254107
 31
0.0
  0
LINE
  5
33B
330
1F
100
AcDbEntity
  8
Copper_Raster
  6
Continuous
370
    25
100
AcDbLine
 10
14.84566150990406
 20
4.416065426254107
 30
0.0
 11
14.79382804757804
 21
4.416065426254107
 31
0.0
  0
LINE
  5
33C
330
1F
100
AcDbEntity
  8
Copper_Raster
  6
Continuous
370
    25
100
AcDbLine
 10
14.84566150990406
 20
6.116065426254095
 30
0.0
 11
14.84566150990406
 21
4.416065426254107
 31
0.0
  0
LINE
  5
33D
330
1F
100
AcDbEntity
  8
Copper_Raster
  6
Continuous
370
    25
100
AcDbLine
 10
14.79382804757804
 20
6.116065426254095
 30
0.0
 11
14.84566150990406
 21
6.116065426254095
 31
0.0
  0
LINE
  5
33E
330
1F
100
AcDbEntity
  8
Copper_Raster
  6
Continuous
370
    25
100
AcDbLine
 10
14.79382804757804
 20
6.116065426254095
 30
0.0
 11
14.79382804757804
 21
8.516065426254101
 31
0.0
  0
LINE
  5
33F
330
1F
100
AcDbEntity
  8
Copper_Raster
  6
Continuous
370
    25
100
AcDbLine
 10
9.845661509904061
 20
0.0160654262541011
 30
0.0
 11
9.845661509904061
 21
8.516065426254101
 31
0.0
  0
LINE
  5
340
330
1F
100
AcDbEntity
  8
Copper_Raster
  6
Continuous
370
    25
100
AcDbLine
 10
13.79382804757804
 20
8.516065426254101
 30
0.0
 11
13.79382804757804
 21
3.806713603703883
 31
0.0
  0
LINE
  5
341
330
1F
100
AcDbEntity
  8
Copper_Raster
  6
Continuous
370
    25
100
AcDbLine
 10
13.79382804757804
 20
3.806713603703883
 30
0.0
 11
12.67341748757491
 21
3.643110915421686
 31
0.0
  0
ARC
  5
342
330
1F
100
AcDbEntity
  8
Copper_Raster
  6
Continuous
370
    25
100
AcDbCircle
 10
12.74566150990407
 20
3.148357642327169
 30
0.0
 40
0.5000000000000337
100
AcDbArc
 50
98.30763411994389
 51
180.0
  0
LINE
  5
343
330
1F
100
AcDbEntity
  8
Copper_Raster
  6
Continuous
370
    25
100
AcDbLine
 10
12.24566150990407
 20
3.148357642327169
 30
0.0
 11
12.24566150990407
 21
0.0160654262541011
 31
0.0
  0
LINE
  5
344
330
1F
100
AcDbEntity
  8
Copper_Raster
  6
Continuous
370
    25
100
AcDbLine
 10
9.645661509904044
 20
0.0160654262541011
 30
0.0
 11
9.845661509904061
 21
0.0160654262541011
 31
0.0
  0
LINE
  5
345
330
1F
100
AcDbEntity
  8
Copper_Raster
  6
Continuous
370
    25
100
AcDbLine
 10
12.74566150990407
 20
15.72604299297484
 30
0.0
 11
12.74566150990407
 21
12.42604299297485
 31
0.0
  0
LINE
  5
346
330
1F
100
AcDbEntity
  8
Copper_Raster
  6
Continuous
370
    25
100
AcDbLine
 10
12.74566150990407
 20
12.42604299297485
 30
0.0
 11
14.24566150990407
 21
12.42604299297485
 31
0.0
  0
LINE
  5
347
330
1F
100
AcDbEntity
  8
Copper_Raster
  6
Continuous
370
    25
100
AcDbLine
 10
14.24566150990407
 20
12.42604299297485
 30
0.0
 11
14.24566150990407
 21
8.726042992974839
 31
0.0
  0
LINE
  5
348
330
1F
100
AcDbEntity
  8
Copper_Raster
  6
Continuous
370
    25
100
AcDbLine
 10
9.845661509904061
 20
8.726042992974839
 30
0.0
 11
9.845661509904061
 21
15.72604299297484
 31
0.0
  0
LINE
  5
349
330
1F
100
AcDbEntity
  8
Copper_Raster
  6
Continuous
370
    25
100
AcDbLine
 10
14.84566150990406
 20
13.62604299297487
 30
0.0
 11
14.84566150990406
 21
15.72604299297484
 31
0.0
  0
LINE
  5
34A
330
1F
100
AcDbEntity
  8
Copper_Raster
  6
Continuous
370
    25
100
AcDbLine
 10
14.24566150990407
 20
13.02604299297485
 30
0.0
 11
14.84566150990406
 21
13.62604299297487
 31
0.0
  0
LINE
  5
34B
330
1F
100
AcDbEntity
  8
Copper_Raster
  6
Continuous
370
    25
100
AcDbLine
 10
13.34566150990406
 20
13.02604299297485
 30
0.0
 11
14.24566150990407
 21
13.02604299297485
 31
0.0
  0
LINE
  5
34C
330
1F
100
AcDbEntity
  8
Copper_Raster
  6
Continuous
370
    25
100
AcDbLine
 10
13.34566150990406
 20
13.02604299297485
 30
0.0
 11
13.34566150990406
 21
15.72604299297484
 31
0.0
  0
LINE
  5
34D
330
1F
100
AcDbEntity
  8
Copper_Raster
  6
Continuous
370
    25
100
AcDbLine
 10
14.84566150990406
 20
12.42604299297485
 30
0.0
 11
15.44566150990405
 21
13.02604299297485
 31
0.0
  0
LINE
  5
34E
330
1F
100
AcDbEntity
  8
Copper_Raster
  6
Continuous
370
    25
100
AcDbLine
 10
15.44566150990405
 20
13.02604299297485
 30
0.0
 11
15.44566150990405
 21
15.72103043008147
 31
0.0
  0
LINE
  5
34F
330
1F
100
AcDbEntity
  8
Copper_Raster
  6
Continuous
370
    25
100
AcDbLine
 10
14.84566150990406
 20
8.726042992974839
 30
0.0
 11
14.84566150990406
 21
12.42604299297485
 31
0.0
  0
LINE
  5
350
330
1F
100
AcDbEntity
  8
Copper_Raster
  6
Continuous
370
    25
100
AcDbLine
 10
9.845661509904061
 20
15.72604299297484
 30
0.0
 11
9.645661509904044
 21
15.72604299297484
 31
0.0
  0
ARC
  5
351
330
1F
100
AcDbEntity
  8
FINAL_RELEASECUT
  6
Continuous
370
    25
100
AcDbCircle
 10
15.34566150990406
 20
7.516065426254101
 30
0.0
 40
1.0
100
AcDbArc
 50
0.0
 51
90.0
  0
LINE
  5
352
330
1F
100
AcDbEntity
  8
FINAL_RELEASECUT
  6
Continuous
370
    25
100
AcDbLine
 10
16.34566150990406
 20
7.516065426254101
 30
0.0
 11
16.34566150990406
 21
1.016065426254101
 31
0.0
  0
ARC
  5
353
330
1F
100
AcDbEntity
  8
FINAL_RELEASECUT
  6
Continuous
370
    25
100
AcDbCircle
 10
15.34566150990406
 20
1.016065426254101
 30
0.0
 40
1.0
100
AcDbArc
 50
270.0
 51
0.0
  0
LINE
  5
354
330
1F
100
AcDbEntity
  8
FINAL_RELEASECUT
  6
Continuous
370
    25
100
AcDbLine
 10
15.34566150990406
 20
0.0160654262541011
 30
0.0
 11
13.24566150990404
 21
0.0160654262541011
 31
0.0
  0
LINE
  5
355
330
1F
100
AcDbEntity
  8
FINAL_RELEASECUT
  6
Continuous
370
    25
100
AcDbLine
 10
13.34566150990406
 20
1.016065426254101
 30
0.0
 11
13.24566150990404
 21
1.016065426254101
 31
0.0
  0
LINE
  5
356
330
1F
100
AcDbEntity
  8
FINAL_RELEASECUT
  6
Continuous
370
    25
100
AcDbLine
 10
13.34566150990406
 20
2.716065426254089
 30
0.0
 11
13.34566150990406
 21
1.016065426254101
 31
0.0
  0
LINE
  5
357
330
1F
100
AcDbEntity
  8
FINAL_RELEASECUT
  6
Continuous
370
    25
100
AcDbLine
 10
13.24566150990404
 20
2.716065426254089
 30
0.0
 11
13.34566150990406
 21
2.716065426254089
 31
0.0
  0
LINE
  5
358
330
1F
100
AcDbEntity
  8
FINAL_RELEASECUT
  6
Continuous
370
    25
100
AcDbLine
 10
14.84566150990406
 20
4.416065426254107
 30
0.0
 11
14.79382804757804
 21
4.416065426254107
 31
0.0
  0
LINE
  5
359
330
1F
100
AcDbEntity
  8
FINAL_RELEASECUT
  6
Continuous
370
    25
100
AcDbLine
 10
14.84566150990406
 20
6.116065426254095
 30
0.0
 11
14.84566150990406
 21
4.416065426254107
 31
0.0
  0
LINE
  5
35A
330
1F
100
AcDbEntity
  8
FINAL_RELEASECUT
  6
Continuous
370
    25
100
AcDbLine
 10
14.79382804757804
 20
6.116065426254095
 30
0.0
 11
14.84566150990406
 21
6.116065426254095
 31
0.0
  0
LINE
  5
35B
330
1F
100
AcDbEntity
  8
FINAL_RELEASECUT
  6
Continuous
370
    25
100
AcDbLine
 10
14.79382804757804
 20
8.516065426254101
 30
0.0
 11
15.34566150990406
 21
8.516065426254101
 31
0.0
  0
LINE
  5
35C
330
1F
100
AcDbEntity
  8
FINAL_RELEASECUT
  6
Continuous
370
    25
100
AcDbLine
 10
9.845661509904061
 20
8.516065426254101
 30
0.0
 11
13.79382804757804
 21
8.516065426254101
 31
0.0
  0
LINE
  5
35D
330
1F
100
AcDbEntity
  8
FINAL_RELEASECUT
  6
Continuous
370
    25
100
AcDbLine
 10
12.24566150990407
 20
0.0160654262541011
 30
0.0
 11
9.845661509904061
 21
0.0160654262541011
 31
0.0
  0
LINE
  5
35E
330
1F
100
AcDbEntity
  8
FINAL_RELEASECUT
  6
Continuous
370
    25
100
AcDbLine
 10
8.645661509904044
 20
7.016065426254101
 30
0.0
 11
8.645661509904044
 21
4.016065426254101
 31
0.0
  0
LINE
  5
35F
330
1F
100
AcDbEntity
  8
FINAL_RELEASECUT
  6
Continuous
370
    25
100
AcDbLine
 10
8.345661509904061
 20
7.016065426254101
 30
0.0
 11
8.645661509904044
 21
7.016065426254101
 31
0.0
  0
LINE
  5
360
330
1F
100
AcDbEntity
  8
FINAL_RELEASECUT
  6
Continuous
370
    25
100
AcDbLine
 10
8.345661509904061
 20
8.516065426254101
 30
0.0
 11
8.345661509904061
 21
7.016065426254101
 31
0.0
  0
ARC
  5
361
330
1F
100
AcDbEntity
  8
FINAL_RELEASECUT
  6
Continuous
370
    25
100
AcDbCircle
 10
9.645661509904044
 20
1.016065426254101
 30
0.0
 40
1.0
100
AcDbArc
 50
180.0
 51
270.0
  0
LINE
  5
362
330
1F
100
AcDbEntity
  8
FINAL_RELEASECUT
  6
Continuous
370
    25
100
AcDbLine
 10
8.645661509904044
 20
2.016065426254101
 30
0.0
 11
8.645661509904044
 21
1.016065426254101
 31
0.0
  0
LINE
  5
363
330
1F
100
AcDbEntity
  8
FINAL_RELEASECUT
  6
Continuous
370
    25
100
AcDbLine
 10
8.345661509904061
 20
2.016065426254101
 30
0.0
 11
8.645661509904044
 21
2.016065426254101
 31
0.0
  0
LINE
  5
364
330
1F
100
AcDbEntity
  8
FINAL_RELEASECUT
  6
Continuous
370
    25
100
AcDbLine
 10
8.345661509904061
 20
4.016065426254101
 30
0.0
 11
8.345661509904061
 21
2.016065426254101
 31
0.0
  0
LINE
  5
365
330
1F
100
AcDbEntity
  8
FINAL_RELEASECUT
  6
Continuous
370
    25
100
AcDbLine
 10
8.645661509904044
 20
4.016065426254101
 30
0.0
 11
8.345661509904061
 21
4.016065426254101
 31
0.0
  0
LINE
  5
366
330
1F
100
AcDbEntity
  8
FINAL_RELEASECUT
  6
Continuous
370
    25
100
AcDbLine
 10
9.845661509904061
 20
8.516065426254101
 30
0.0
 11
8.345661509904061
 21
8.516065426254101
 31
0.0
  0
LINE
  5
367
330
1F
100
AcDbEntity
  8
FINAL_RELEASECUT
  6
Continuous
370
    25
100
AcDbLine
 10
9.645661509904044
 20
0.0160654262541011
 30
0.0
 11
9.845661509904061
 21
0.0160654262541011
 31
0.0
  0
LINE
  5
368
330
1F
100
AcDbEntity
  8
FINAL_RELEASECUT
  6
Continuous
370
    25
100
AcDbLine
 10
14.24566150990407
 20
6.116065426254095
 30
0.0
 11
14.24566150990407
 21
4.416065426254107
 31
0.0
  0
LINE
  5
369
330
1F
100
AcDbEntity
  8
FINAL_RELEASECUT
  6
Continuous
370
    25
100
AcDbLine
 10
12.74566150990407
 20
2.716065426254089
 30
0.0
 11
12.74566150990407
 21
1.016065426254101
 31
0.0
  0
LINE
  5
36A
330
1F
100
AcDbEntity
  8
FINAL_RELEASECUT
  6
Continuous
370
    25
100
AcDbLine
 10
14.79382804757804
 20
8.516065426254101
 30
0.0
 11
13.79382804757804
 21
8.516065426254101
 31
0.0
  0
LINE
  5
36B
330
1F
100
AcDbEntity
  8
FINAL_RELEASECUT
  6
Continuous
370
    25
100
AcDbLine
 10
14.79382804757804
 20
6.116065426254095
 30
0.0
 11
14.24566150990407
 21
6.116065426254095
 31
0.0
  0
LINE
  5
36C
330
1F
100
AcDbEntity
  8
FINAL_RELEASECUT
  6
Continuous
370
    25
100
AcDbLine
 10
14.24566150990407
 20
4.416065426254107
 30
0.0
 11
14.79382804757804
 21
4.416065426254107
 31
0.0
  0
LINE
  5
36D
330
1F
100
AcDbEntity
  8
FINAL_RELEASECUT
  6
Continuous
370
    25
100
AcDbLine
 10
13.24566150990404
 20
2.716065426254089
 30
0.0
 11
12.74566150990407
 21
2.716065426254089
 31
0.0
  0
LINE
  5
36E
330
1F
100
AcDbEntity
  8
FINAL_RELEASECUT
  6
Continuous
370
    25
100
AcDbLine
 10
12.74566150990407
 20
1.016065426254101
 30
0.0
 11
13.24566150990404
 21
1.016065426254101
 31
0.0
  0
LINE
  5
36F
330
1F
100
AcDbEntity
  8
FINAL_RELEASECUT
  6
Continuous
370
    25
100
AcDbLine
 10
12.24566150990407
 20
0.0160654262541011
 30
0.0
 11
13.24566150990404
 21
0.0160654262541011
 31
0.0
  0
LINE
  5
370
330
1F
100
AcDbEntity
  8
FINAL_RELEASECUT
  6
Continuous
370
    25
100
AcDbLine
 10
12.74566150990407
 20
15.72604299297484
 30
0.0
 11
9.845661509904061
 21
15.72604299297484
 31
0.0
  0
LINE
  5
371
330
1F
100
AcDbEntity
  8
FINAL_RELEASECUT
  6
Continuous
370
    25
100
AcDbLine
 10
12.74566150990407
 20
14.72604299297484
 30
0.0
 11
12.74566150990407
 21
13.02604299297485
 31
0.0
  0
LINE
  5
372
330
1F
100
AcDbEntity
  8
FINAL_RELEASECUT
  6
Continuous
370
    25
100
AcDbLine
 10
14.24566150990407
 20
11.32604299297483
 30
0.0
 11
14.24566150990407
 21
9.626042992974845
 31
0.0
  0
LINE
  5
373
330
1F
100
AcDbEntity
  8
FINAL_RELEASECUT
  6
Continuous
370
    25
100
AcDbLine
 10
9.845661509904061
 20
8.726042992974839
 30
0.0
 11
14.24566150990407
 21
8.726042992974839
 31
0.0
  0
LINE
  5
374
330
1F
100
AcDbEntity
  8
FINAL_RELEASECUT
  6
Continuous
370
    25
100
AcDbLine
 10
13.34566150990406
 20
13.02604299297485
 30
0.0
 11
13.34566150990406
 21
14.72604299297484
 31
0.0
  0
LINE
  5
375
330
1F
100
AcDbEntity
  8
FINAL_RELEASECUT
  6
Continuous
370
    25
100
AcDbLine
 10
14.84566150990406
 20
15.72604299297484
 30
0.0
 11
13.34566150990406
 21
15.72604299297484
 31
0.0
  0
LINE
  5
376
330
1F
100
AcDbEntity
  8
FINAL_RELEASECUT
  6
Continuous
370
    25
100
AcDbLine
 10
14.84566150990406
 20
8.726042992974839
 30
0.0
 11
15.34566150990406
 21
8.726042992974839
 31
0.0
  0
LINE
  5
377
330
1F
100
AcDbEntity
  8
FINAL_RELEASECUT
  6
Continuous
370
    25
100
AcDbLine
 10
16.34566150990406
 20
9.726042992974839
 30
0.0
 11
16.34566150990406
 21
14.72604299297484
 31
0.0
  0
ARC
  5
378
330
1F
100
AcDbEntity
  8
FINAL_RELEASECUT
  6
Continuous
370
    25
100
AcDbCircle
 10
15.34566150990406
 20
14.72604299297484
 30
0.0
 40
1.000000000000009
100
AcDbArc
 50
0.0
 51
84.26082952273354
  0
ARC
  5
379
330
1F
100
AcDbEntity
  8
FINAL_RELEASECUT
  6
Continuous
370
    25
100
AcDbCircle
 10
15.34566150990406
 20
9.726042992974839
 30
0.0
 40
1.0
100
AcDbArc
 50
270.0
 51
0.0
  0
LINE
  5
37A
330
1F
100
AcDbEntity
  8
FINAL_RELEASECUT
  6
Continuous
370
    25
100
AcDbLine
 10
14.84566150990406
 20
9.626042992974845
 30
0.0
 11
14.84566150990406
 21
11.32604299297483
 31
0.0
  0
LINE
  5
37B
330
1F
100
AcDbEntity
  8
FINAL_RELEASECUT
  6
Continuous
370
    25
100
AcDbLine
 10
8.645661509904044
 20
10.22604299297484
 30
0.0
 11
8.345661509904061
 21
10.22604299297484
 31
0.0
  0
LINE
  5
37C
330
1F
100
AcDbEntity
  8
FINAL_RELEASECUT
  6
Continuous
370
    25
100
AcDbLine
 10
8.645661509904044
 20
13.72604299297484
 30
0.0
 11
8.345661509904061
 21
13.72604299297484
 31
0.0
  0
ARC
  5
37D
330
1F
100
AcDbEntity
  8
FINAL_RELEASECUT
  6
Continuous
370
    25
100
AcDbCircle
 10
9.645661509904044
 20
14.72604299297484
 30
0.0
 40
1.0
100
AcDbArc
 50
90.0
 51
180.0
  0
LINE
  5
37E
330
1F
100
AcDbEntity
  8
FINAL_RELEASECUT
  6
Continuous
370
    25
100
AcDbLine
 10
8.345661509904061
 20
11.72604299297484
 30
0.0
 11
8.645661509904044
 21
11.72604299297484
 31
0.0
  0
LINE
  5
37F
330
1F
100
AcDbEntity
  8
FINAL_RELEASECUT
  6
Continuous
370
    25
100
AcDbLine
 10
8.345661509904061
 20
13.72604299297484
 30
0.0
 11
8.345661509904061
 21
11.72604299297484
 31
0.0
  0
LINE
  5
380
330
1F
100
AcDbEntity
  8
FINAL_RELEASECUT
  6
Continuous
370
    25
100
AcDbLine
 10
8.645661509904044
 20
14.72604299297484
 30
0.0
 11
8.645661509904044
 21
13.72604299297484
 31
0.0
  0
LINE
  5
381
330
1F
100
AcDbEntity
  8
FINAL_RELEASECUT
  6
Continuous
370
    25
100
AcDbLine
 10
8.645661509904044
 20
11.72604299297484
 30
0.0
 11
8.645661509904044
 21
10.22604299297484
 31
0.0
  0
LINE
  5
382
330
1F
100
AcDbEntity
  8
FINAL_RELEASECUT
  6
Continuous
370
    25
100
AcDbLine
 10
8.345661509904061
 20
10.22604299297484
 30
0.0
 11
8.345661509904061
 21
8.726042992974839
 31
0.0
  0
LINE
  5
383
330
1F
100
AcDbEntity
  8
FINAL_RELEASECUT
  6
Continuous
370
    25
100
AcDbLine
 10
8.345661509904061
 20
8.726042992974839
 30
0.0
 11
9.845661509904061
 21
8.726042992974839
 31
0.0
  0
LINE
  5
384
330
1F
100
AcDbEntity
  8
FINAL_RELEASECUT
  6
Continuous
370
    25
100
AcDbLine
 10
9.845661509904061
 20
15.72604299297484
 30
0.0
 11
9.645661509904044
 21
15.72604299297484
 31
0.0
  0
LINE
  5
385
330
1F
100
AcDbEntity
  8
FINAL_RELEASECUT
  6
Continuous
370
    25
100
AcDbLine
 10
14.84566150990406
 20
11.32604299297483
 30
0.0
 11
14.24566150990407
 21
11.32604299297483
 31
0.0
  0
LINE
  5
386
330
1F
100
AcDbEntity
  8
FINAL_RELEASECUT
  6
Continuous
370
    25
100
AcDbLine
 10
12.74566150990407
 20
13.02604299297485
 30
0.0
 11
13.34566150990406
 21
13.02604299297485
 31
0.0
  0
ARC
  5
387
330
1F
100
AcDbEntity
  8
FINAL_RELEASECUT
  6
Continuous
370
    25
100
AcDbCircle
 10
15.34566150990406
 20
14.72604299297484
 30
0.0
 40
1.0
100
AcDbArc
 50
84.26082952273354
 51
90.0
  0
LINE
  5
388
330
1F
100
AcDbEntity
  8
FINAL_RELEASECUT
  6
Continuous
370
    25
100
AcDbLine
 10
15.34566150990406
 20
15.72604299297484
 30
0.0
 11
14.84566150990406
 21
15.72604299297484
 31
0.0
  0
LINE
  5
389
330
1F
100
AcDbEntity
  8
FINAL_RELEASECUT
  6
Continuous
370
    25
100
AcDbLine
 10
12.74566150990407
 20
14.72604299297484
 30
0.0
 11
13.34566150990406
 21
14.72604299297484
 31
0.0
  0
LINE
  5
38A
330
1F
100
AcDbEntity
  8
FINAL_RELEASECUT
  6
Continuous
370
    25
100
AcDbLine
 10
12.74566150990407
 20
15.72604299297484
 30
0.0
 11
13.34566150990406
 21
15.72604299297484
 31
0.0
  0
LINE
  5
38B
330
1F
100
AcDbEntity
  8
FINAL_RELEASECUT
  6
Continuous
370
    25
100
AcDbLine
 10
14.24566150990407
 20
9.626042992974845
 30
0.0
 11
14.84566150990406
 21
9.626042992974845
 31
0.0
  0
LINE
  5
38C
330
1F
100
AcDbEntity
  8
FINAL_RELEASECUT
  6
Continuous
370
    25
100
AcDbLine
 10
14.24566150990407
 20
8.726042992974839
 30
0.0
 11
14.84566150990406
 21
8.726042992974839
 31
0.0
  0
LINE
  5
38D
330
1F
100
AcDbEntity
  8
Copper_Raster
100
AcDbLine
 10
9.845661509904061
 20
15.72604299297484
 30
0.0
 11
8.345661509904061
 21
15.72604299297484
 31
0.0
  0
LINE
  5
38E
330
1F
100
AcDbEntity
  8
Copper_Raster
100
AcDbLine
 10
8.345661509904061
 20
0.0160654262541014
 30
0.0
 11
9.845661509904061
 21
0.0160654262541014
 31
0.0
  0
LINE
  5
38F
330
1F
100
AcDbEntity
  8
Copper_Raster
100
AcDbLine
 10
12.74566150990407
 20
15.72604299297484
 30
0.0
 11
12.74566150990407
 21
15.96535758416038
 31
0.0
  0
LINE
  5
390
330
1F
100
AcDbEntity
  8
Copper_Raster
100
AcDbLine
 10
12.74566150990407
 20
15.96535758416038
 30
0.0
 11
13.34566150990406
 21
15.96535758416038
 31
0.0
  0
LINE
  5
391
330
1F
100
AcDbEntity
  8
Copper_Raster
100
AcDbLine
 10
13.34566150990406
 20
15.96535758416038
 30
0.0
 11
13.34566150990406
 21
15.72604299297484
 31
0.0
  0
LINE
  5
392
330
1F
100
AcDbEntity
  8
Copper_Raster
100
AcDbLine
 10
14.84566150990406
 20
15.72604299297484
 30
0.0
 11
14.84566150990406
 21
15.96535758416038
 31
0.0
  0
LINE
  5
393
330
1F
100
AcDbEntity
  8
Copper_Raster
100
AcDbLine
 10
14.84566150990406
 20
15.96535758416038
 30
0.0
 11
15.44566150990405
 21
15.96535758416038
 31
0.0
  0
LINE
  5
394
330
1F
100
AcDbEntity
  8
Copper_Raster
100
AcDbLine
 10
15.44566150990405
 20
15.96535758416038
 30
0.0
 11
15.44566150990405
 21
15.72103043008147
 31
0.0
  0
LINE
  5
395
330
1F
100
AcDbEntity
  8
Copper_Raster
100
AcDbLine
 10
12.24566150990407
 20
0.0160654262541011
 30
0.0
 11
12.24566150990407
 21
-0.1622969827982956
 31
0.0
  0
LINE
  5
396
330
1F
100
AcDbEntity
  8
Copper_Raster
100
AcDbLine
 10
12.24566150990407
 20
-0.1622969827982956
 30
0.0
 11
13.24566150990404
 21
-0.1622969827982956
 31
0.0
  0
LINE
  5
397
330
1F
100
AcDbEntity
  8
Copper_Raster
100
AcDbLine
 10
13.24566150990404
 20
-0.1622969827982956
 30
0.0
 11
13.24566150990404
 21
0.0160654262541011
 31
0.0
  0
MTEXT
  5
398
330
1F
100
AcDbEntity
  8
Text
100
AcDbMText
 10
10.29395757513657
 20
9.877150056083195
 30
0.0
 40
0.8
 41
4.443980388984073
 46
0.0
 71
     1
 72
     5
  1
{\fVerdana|b0|i0|c0|p34;AIMRL}
 73
     1
 44
1.0
1001
ACAD
1000
ACAD_MTEXT_COLUMN_INFO_BEGIN
1070
    75
1070
     2
1070
    79
1070
     0
1070
    76
1070
     1
1070
    78
1070
     0
1070
    48
1040
4.443980388984073
1070
    49
1040
22.96500902767548
1070
    50
1070
     1
1040
0.0
1000
ACAD_MTEXT_COLUMN_INFO_END
  0
MTEXT
  5
399
330
1F
100
AcDbEntity
  8
Text
100
AcDbMText
 10
13.47566150990406
 20
7.116065426254101
 30
0.0
 40
0.8
 41
4.443980388984073
 46
0.0
 71
     1
 72
     5
  1
{\fVerdana|b0|i0|c0|p34;AIMRL}
 11
-1.0
 21
0.0000000000000001
 31
0.0
 73
     1
 44
1.0
1001
ACAD
1000
ACAD_MTEXT_COLUMN_INFO_BEGIN
1070
    75
1070
     2
1070
    79
1070
     0
1070
    76
1070
     1
1070
    78
1070
     0
1070
    48
1040
4.443980388984073
1070
    49
1040
22.96500902767548
1070
    50
1070
     1
1040
0.0
1000
ACAD_MTEXT_COLUMN_INFO_END
  0
LINE
  5
39A
330
1F
100
AcDbEntity
  8
Copper_Raster
100
AcDbLine
 10
14.84566150990406
 20
8.726042992974839
 30
0.0
 11
14.79382804757804
 21
8.516065426254101
 31
0.0
  0
LINE
  5
39B
330
1F
100
AcDbEntity
  8
Copper_Raster
100
AcDbLine
 10
14.24566150990407
 20
8.726042992974839
 30
0.0
 11
13.79382804757804
 21
8.516065426254101
 31
0.0
  0
LINE
  5
39C
330
1F
100
AcDbEntity
  8
Copper_Raster
100
AcDbLine
 10
9.845661509904061
 20
8.726042992974839
 30
0.0
 11
9.845661509904061
 21
8.516065426254101
 31
0.0
  0
LINE
  5
39D
330
1F
100
AcDbEntity
  8
Copper_Raster
100
AcDbLine
 10
8.345661509904061
 20
15.72604299297484
 30
0.0
 11
8.345661509904061
 21
0.0160654262541014
 31
0.0
  0
MTEXT
  5
39E
330
1F
100
AcDbEntity
  8
Text
100
AcDbMText
 10
10.22518901959597
 20
11.4532588472282
 30
0.0
 40
0.5
 41
4.443980388984073
 46
0.0
 71
     1
 72
     5
  1
{\fVerdana|b0|i0|c0|p34;BIAS}
 11
0.0000000000000001
 21
1.0
 31
0.0
 73
     1
 44
1.0
1001
ACAD
1000
ACAD_MTEXT_COLUMN_INFO_BEGIN
1070
    75
1070
     2
1070
    79
1070
     0
1070
    76
1070
     1
1070
    78
1070
     0
1070
    48
1040
4.443980388984073
1070
    49
1040
22.96500902767548
1070
    50
1070
     1
1040
0.0
1000
ACAD_MTEXT_COLUMN_INFO_END
  0
MTEXT
  5
39F
330
1F
100
AcDbEntity
  8
Text
100
AcDbMText
 10
16.22072048380403
 20
7.313889123232854
 30
0.0
 40
0.4
 41
4.443980388984073
 46
0.0
 71
     1
 72
     5
  1
{\fVerdana|b0|i0|c0|p34;GND}
 11
-1.0
 21
0.0000000000000001
 31
0.0
 73
     1
 44
1.0
1001
ACAD
1000
ACAD_MTEXT_COLUMN_INFO_BEGIN
1070
    75
1070
     2
1070
    79
1070
     0
1070
    76
1070
     1
1070
    78
1070
     0
1070
    48
1040
4.443980388984073
1070
    49
1040
22.96500902767548
1070
    50
1070
     1
1040
0.0
1000
ACAD_MTEXT_COLUMN_INFO_END
  0
MTEXT
  5
474
330
1F
100
AcDbEntity
  8
Text
100
AcDbMText
 10
19.4725901161662
 20
9.874650310499191
 30
0.0
 40
0.8
 41
4.443980388984072
 46
0.0
 71
     1
 72
     5
  1
{\fVerdana|b0|i0|c0|p34;AIMRL}
 73
     1
 44
1.0
1001
ACAD
1000
ACAD_MTEXT_COLUMN_INFO_BEGIN
1070
    75
1070
     2
1070
    79
1070
     0
1070
    76
1070
     1
1070
    78
1070
     0
1070
    48
1040
4.443980388984072
1070
    49
1040
22.96500902767547
1070
    50
1070
     1
1040
0.0
1000
ACAD_MTEXT_COLUMN_INFO_END
  0
MTEXT
  5
475
330
1F
100
AcDbEntity
  8
Text
100
AcDbMText
 10
23.06242447988779
 20
7.16917667993971
 30
0.0
 40
0.8
 41
4.443980388984072
 46
0.0
 71
     1
 72
     5
  1
{\fVerdana|b0|i0|c0|p34;AIMRL}
 11
-1.0
 21
0.0000000000000001
 31
0.0
 73
     1
 44
1.0
1001
ACAD
1000
ACAD_MTEXT_COLUMN_INFO_BEGIN
1070
    75
1070
     2
1070
    79
1070
     0
1070
    76
1070
     1
1070
    78
1070
     0
1070
    48
1040
4.443980388984072
1070
    49
1040
22.96500902767547
1070
    50
1070
     1
1040
0.0
1000
ACAD_MTEXT_COLUMN_INFO_END
  0
MTEXT
  5
47A
330
1F
100
AcDbEntity
  8
Text
100
AcDbMText
 10
23.19326176430116
 20
6.460782982048897
 30
0.0
 40
0.5
 41
4.443980388984072
 46
0.0
 71
     1
 72
     5
  1
{\fVerdana|b0|i0|c0|p34;BIAS}
 11
-0.0000000000000002
 21
-1.0
 31
0.0
 73
     1
 44
1.0
1001
ACAD
1000
ACAD_MTEXT_COLUMN_INFO_BEGIN
1070
    75
1070
     2
1070
    79
1070
     0
1070
    76
1070
     1
1070
    78
1070
     0
1070
    48
1040
4.443980388984072
1070
    49
1040
22.96500902767547
1070
    50
1070
     1
1040
0.0
1000
ACAD_MTEXT_COLUMN_INFO_END
  0
MTEXT
  5
47B
330
1F
100
AcDbEntity
  8
Text
100
AcDbMText
 10
17.03359055069472
 20
9.96024970387333
 30
0.0
 40
0.4
 41
4.443980388984072
 46
0.0
 71
     1
 72
     5
  1
{\fVerdana|b0|i0|c0|p34;GND}
 73
     1
 44
1.0
1001
ACAD
1000
ACAD_MTEXT_COLUMN_INFO_BEGIN
1070
    75
1070
     2
1070
    79
1070
     0
1070
    76
1070
     1
1070
    78
1070
     0
1070
    48
1040
4.443980388984072
1070
    49
1040
22.96500902767547
1070
    50
1070
     1
1040
0.0
1000
ACAD_MTEXT_COLUMN_INFO_END
  0
LINE
  5
4F7
330
1F
100
AcDbEntity
  8
Copper_Raster
  6
Continuous
370
    25
100
AcDbLine
 10
23.35575725290505
 20
0.0455301933473602
 30
0.0
 11
23.35575725290505
 21
8.54553019334736
 31
0.0
  0
LINE
  5
4FC
330
1F
100
AcDbEntity
  8
Copper_Raster
  6
Continuous
370
    25
100
AcDbLine
 10
23.55575725290507
 20
0.0455301933473602
 30
0.0
 11
23.35575725290505
 21
0.0455301933473602
 31
0.0
  0
LINE
  5
500
330
1F
100
AcDbEntity
  8
Copper_Raster
  6
Continuous
370
    25
100
AcDbLine
 10
23.35575725290505
 20
8.755507760068098
 30
0.0
 11
23.35575725290505
 21
15.7555077600681
 31
0.0
  0
LINE
  5
503
330
1F
100
AcDbEntity
  8
Copper_Raster
  6
Continuous
370
    25
100
AcDbLine
 10
19.85575725290505
 20
13.05550776006811
 30
0.0
 11
18.95575725290504
 21
13.05550776006811
 31
0.0
  0
LINE
  5
504
330
1F
100
AcDbEntity
  8
Copper_Raster
  6
Continuous
370
    25
100
AcDbLine
 10
19.85575725290505
 20
13.05550776006811
 30
0.0
 11
19.85575725290505
 21
15.7555077600681
 31
0.0
  0
LINE
  5
507
330
1F
100
AcDbEntity
  8
Copper_Raster
  6
Continuous
370
    25
100
AcDbLine
 10
18.35575725290505
 20
8.755507760068098
 30
0.0
 11
18.35575725290505
 21
12.45550776006811
 31
0.0
  0
LINE
  5
508
330
1F
100
AcDbEntity
  8
Copper_Raster
  6
Continuous
370
    25
100
AcDbLine
 10
23.35575725290505
 20
15.7555077600681
 30
0.0
 11
23.55575725290507
 21
15.7555077600681
 31
0.0
  0
ARC
  5
509
330
1F
100
AcDbEntity
  8
FINAL_RELEASECUT
  6
Continuous
370
    25
100
AcDbCircle
 10
17.85575725290505
 20
7.54553019334736
 30
0.0
 40
1.0
100
AcDbArc
 50
90.0
 51
180.0
  0
LINE
  5
50A
330
1F
100
AcDbEntity
  8
FINAL_RELEASECUT
  6
Continuous
370
    25
100
AcDbLine
 10
16.85575725290505
 20
7.54553019334736
 30
0.0
 11
16.85575725290505
 21
1.04553019334736
 31
0.0
  0
ARC
  5
50B
330
1F
100
AcDbEntity
  8
FINAL_RELEASECUT
  6
Continuous
370
    25
100
AcDbCircle
 10
17.85575725290505
 20
1.04553019334736
 30
0.0
 40
1.0
100
AcDbArc
 50
180.0
 51
270.0
  0
LINE
  5
50C
330
1F
100
AcDbEntity
  8
FINAL_RELEASECUT
  6
Continuous
370
    25
100
AcDbLine
 10
17.85575725290505
 20
0.0455301933473602
 30
0.0
 11
19.95575725290507
 21
0.0455301933473602
 31
0.0
  0
LINE
  5
50D
330
1F
100
AcDbEntity
  8
FINAL_RELEASECUT
  6
Continuous
370
    25
100
AcDbLine
 10
19.85575725290505
 20
1.04553019334736
 30
0.0
 11
19.95575725290507
 21
1.04553019334736
 31
0.0
  0
LINE
  5
50E
330
1F
100
AcDbEntity
  8
FINAL_RELEASECUT
  6
Continuous
370
    25
100
AcDbLine
 10
19.85575725290505
 20
2.745530193347348
 30
0.0
 11
19.85575725290505
 21
1.04553019334736
 31
0.0
  0
LINE
  5
50F
330
1F
100
AcDbEntity
  8
FINAL_RELEASECUT
  6
Continuous
370
    25
100
AcDbLine
 10
19.95575725290507
 20
2.745530193347348
 30
0.0
 11
19.85575725290505
 21
2.745530193347348
 31
0.0
  0
LINE
  5
510
330
1F
100
AcDbEntity
  8
FINAL_RELEASECUT
  6
Continuous
370
    25
100
AcDbLine
 10
18.35575725290505
 20
4.445530193347366
 30
0.0
 11
18.40759071523106
 21
4.445530193347366
 31
0.0
  0
LINE
  5
511
330
1F
100
AcDbEntity
  8
FINAL_RELEASECUT
  6
Continuous
370
    25
100
AcDbLine
 10
18.35575725290505
 20
6.145530193347354
 30
0.0
 11
18.35575725290505
 21
4.445530193347366
 31
0.0
  0
LINE
  5
512
330
1F
100
AcDbEntity
  8
FINAL_RELEASECUT
  6
Continuous
370
    25
100
AcDbLine
 10
18.40759071523106
 20
6.145530193347354
 30
0.0
 11
18.35575725290505
 21
6.145530193347354
 31
0.0
  0
LINE
  5
513
330
1F
100
AcDbEntity
  8
FINAL_RELEASECUT
  6
Continuous
370
    25
100
AcDbLine
 10
18.40759071523106
 20
8.54553019334736
 30
0.0
 11
17.85575725290505
 21
8.54553019334736
 31
0.0
  0
LINE
  5
514
330
1F
100
AcDbEntity
  8
FINAL_RELEASECUT
  6
Continuous
370
    25
100
AcDbLine
 10
23.35575725290505
 20
8.54553019334736
 30
0.0
 11
19.40759071523106
 21
8.54553019334736
 31
0.0
  0
LINE
  5
515
330
1F
100
AcDbEntity
  8
FINAL_RELEASECUT
  6
Continuous
370
    25
100
AcDbLine
 10
20.95575725290505
 20
0.0455301933473602
 30
0.0
 11
23.35575725290505
 21
0.0455301933473602
 31
0.0
  0
LINE
  5
516
330
1F
100
AcDbEntity
  8
FINAL_RELEASECUT
  6
Continuous
370
    25
100
AcDbLine
 10
24.55575725290507
 20
7.04553019334736
 30
0.0
 11
24.55575725290507
 21
4.04553019334736
 31
0.0
  0
LINE
  5
517
330
1F
100
AcDbEntity
  8
FINAL_RELEASECUT
  6
Continuous
370
    25
100
AcDbLine
 10
24.85575725290505
 20
7.04553019334736
 30
0.0
 11
24.55575725290507
 21
7.04553019334736
 31
0.0
  0
LINE
  5
518
330
1F
100
AcDbEntity
  8
FINAL_RELEASECUT
  6
Continuous
370
    25
100
AcDbLine
 10
24.85575725290505
 20
8.54553019334736
 30
0.0
 11
24.85575725290505
 21
7.04553019334736
 31
0.0
  0
ARC
  5
519
330
1F
100
AcDbEntity
  8
FINAL_RELEASECUT
  6
Continuous
370
    25
100
AcDbCircle
 10
23.55575725290507
 20
1.04553019334736
 30
0.0
 40
1.0
100
AcDbArc
 50
270.0
 51
0.000000000000007
  0
LINE
  5
51A
330
1F
100
AcDbEntity
  8
FINAL_RELEASECUT
  6
Continuous
370
    25
100
AcDbLine
 10
24.55575725290507
 20
2.04553019334736
 30
0.0
 11
24.55575725290507
 21
1.04553019334736
 31
0.0
  0
LINE
  5
51B
330
1F
100
AcDbEntity
  8
FINAL_RELEASECUT
  6
Continuous
370
    25
100
AcDbLine
 10
24.85575725290505
 20
2.04553019334736
 30
0.0
 11
24.55575725290507
 21
2.04553019334736
 31
0.0
  0
LINE
  5
51C
330
1F
100
AcDbEntity
  8
FINAL_RELEASECUT
  6
Continuous
370
    25
100
AcDbLine
 10
24.85575725290505
 20
4.04553019334736
 30
0.0
 11
24.85575725290505
 21
2.04553019334736
 31
0.0
  0
LINE
  5
51D
330
1F
100
AcDbEntity
  8
FINAL_RELEASECUT
  6
Continuous
370
    25
100
AcDbLine
 10
24.55575725290507
 20
4.04553019334736
 30
0.0
 11
24.85575725290505
 21
4.04553019334736
 31
0.0
  0
LINE
  5
51E
330
1F
100
AcDbEntity
  8
FINAL_RELEASECUT
  6
Continuous
370
    25
100
AcDbLine
 10
23.35575725290505
 20
8.54553019334736
 30
0.0
 11
24.85575725290505
 21
8.54553019334736
 31
0.0
  0
LINE
  5
51F
330
1F
100
AcDbEntity
  8
FINAL_RELEASECUT
  6
Continuous
370
    25
100
AcDbLine
 10
23.55575725290507
 20
0.0455301933473602
 30
0.0
 11
23.35575725290505
 21
0.0455301933473602
 31
0.0
  0
LINE
  5
520
330
1F
100
AcDbEntity
  8
FINAL_RELEASECUT
  6
Continuous
370
    25
100
AcDbLine
 10
18.95575725290504
 20
6.145530193347354
 30
0.0
 11
18.95575725290504
 21
4.445530193347366
 31
0.0
  0
LINE
  5
521
330
1F
100
AcDbEntity
  8
FINAL_RELEASECUT
  6
Continuous
370
    25
100
AcDbLine
 10
20.45575725290504
 20
2.745530193347348
 30
0.0
 11
20.45575725290504
 21
1.04553019334736
 31
0.0
  0
LINE
  5
522
330
1F
100
AcDbEntity
  8
FINAL_RELEASECUT
  6
Continuous
370
    25
100
AcDbLine
 10
18.40759071523106
 20
8.54553019334736
 30
0.0
 11
19.40759071523106
 21
8.54553019334736
 31
0.0
  0
LINE
  5
523
330
1F
100
AcDbEntity
  8
FINAL_RELEASECUT
  6
Continuous
370
    25
100
AcDbLine
 10
18.40759071523106
 20
6.145530193347354
 30
0.0
 11
18.95575725290504
 21
6.145530193347354
 31
0.0
  0
LINE
  5
524
330
1F
100
AcDbEntity
  8
FINAL_RELEASECUT
  6
Continuous
370
    25
100
AcDbLine
 10
18.95575725290504
 20
4.445530193347366
 30
0.0
 11
18.40759071523106
 21
4.445530193347366
 31
0.0
  0
LINE
  5
525
330
1F
100
AcDbEntity
  8
FINAL_RELEASECUT
  6
Continuous
370
    25
100
AcDbLine
 10
19.95575725290507
 20
2.745530193347348
 30
0.0
 11
20.45575725290504
 21
2.745530193347348
 31
0.0
  0
LINE
  5
526
330
1F
100
AcDbEntity
  8
FINAL_RELEASECUT
  6
Continuous
370
    25
100
AcDbLine
 10
20.45575725290504
 20
1.04553019334736
 30
0.0
 11
19.95575725290507
 21
1.04553019334736
 31
0.0
  0
LINE
  5
527
330
1F
100
AcDbEntity
  8
FINAL_RELEASECUT
  6
Continuous
370
    25
100
AcDbLine
 10
20.95575725290505
 20
0.0455301933473602
 30
0.0
 11
19.95575725290507
 21
0.0455301933473602
 31
0.0
  0
LINE
  5
528
330
1F
100
AcDbEntity
  8
FINAL_RELEASECUT
  6
Continuous
370
    25
100
AcDbLine
 10
20.45575725290504
 20
15.7555077600681
 30
0.0
 11
23.35575725290505
 21
15.7555077600681
 31
0.0
  0
LINE
  5
529
330
1F
100
AcDbEntity
  8
FINAL_RELEASECUT
  6
Continuous
370
    25
100
AcDbLine
 10
20.45575725290504
 20
14.7555077600681
 30
0.0
 11
20.45575725290504
 21
13.05550776006811
 31
0.0
  0
LINE
  5
52A
330
1F
100
AcDbEntity
  8
FINAL_RELEASECUT
  6
Continuous
370
    25
100
AcDbLine
 10
18.95575725290504
 20
11.35550776006809
 30
0.0
 11
18.95575725290504
 21
9.655507760068104
 31
0.0
  0
LINE
  5
52B
330
1F
100
AcDbEntity
  8
FINAL_RELEASECUT
  6
Continuous
370
    25
100
AcDbLine
 10
23.35575725290505
 20
8.755507760068098
 30
0.0
 11
18.95575725290504
 21
8.755507760068098
 31
0.0
  0
LINE
  5
52C
330
1F
100
AcDbEntity
  8
FINAL_RELEASECUT
  6
Continuous
370
    25
100
AcDbLine
 10
19.85575725290505
 20
13.05550776006811
 30
0.0
 11
19.85575725290505
 21
14.7555077600681
 31
0.0
  0
LINE
  5
52D
330
1F
100
AcDbEntity
  8
FINAL_RELEASECUT
  6
Continuous
370
    25
100
AcDbLine
 10
18.35575725290505
 20
15.7555077600681
 30
0.0
 11
19.85575725290505
 21
15.7555077600681
 31
0.0
  0
LINE
  5
52E
330
1F
100
AcDbEntity
  8
FINAL_RELEASECUT
  6
Continuous
370
    25
100
AcDbLine
 10
18.35575725290505
 20
8.755507760068098
 30
0.0
 11
17.85575725290505
 21
8.755507760068098
 31
0.0
  0
LINE
  5
52F
330
1F
100
AcDbEntity
  8
FINAL_RELEASECUT
  6
Continuous
370
    25
100
AcDbLine
 10
16.85575725290505
 20
9.755507760068098
 30
0.0
 11
16.85575725290505
 21
14.7555077600681
 31
0.0
  0
ARC
  5
530
330
1F
100
AcDbEntity
  8
FINAL_RELEASECUT
  6
Continuous
370
    25
100
AcDbCircle
 10
17.85575725290505
 20
14.7555077600681
 30
0.0
 40
1.000000000000009
100
AcDbArc
 50
95.73917047726647
 51
180.0
  0
ARC
  5
531
330
1F
100
AcDbEntity
  8
FINAL_RELEASECUT
  6
Continuous
370
    25
100
AcDbCircle
 10
17.85575725290505
 20
9.755507760068098
 30
0.0
 40
1.0
100
AcDbArc
 50
180.0
 51
270.0
  0
LINE
  5
532
330
1F
100
AcDbEntity
  8
FINAL_RELEASECUT
  6
Continuous
370
    25
100
AcDbLine
 10
18.35575725290505
 20
9.655507760068104
 30
0.0
 11
18.35575725290505
 21
11.35550776006809
 31
0.0
  0
LINE
  5
533
330
1F
100
AcDbEntity
  8
FINAL_RELEASECUT
  6
Continuous
370
    25
100
AcDbLine
 10
24.55575725290507
 20
10.2555077600681
 30
0.0
 11
24.85575725290505
 21
10.2555077600681
 31
0.0
  0
LINE
  5
534
330
1F
100
AcDbEntity
  8
FINAL_RELEASECUT
  6
Continuous
370
    25
100
AcDbLine
 10
24.55575725290507
 20
13.7555077600681
 30
0.0
 11
24.85575725290505
 21
13.7555077600681
 31
0.0
  0
ARC
  5
535
330
1F
100
AcDbEntity
  8
FINAL_RELEASECUT
  6
Continuous
370
    25
100
AcDbCircle
 10
23.55575725290507
 20
14.7555077600681
 30
0.0
 40
1.0
100
AcDbArc
 50
0.000000000000007
 51
90.0
  0
LINE
  5
536
330
1F
100
AcDbEntity
  8
FINAL_RELEASECUT
  6
Continuous
370
    25
100
AcDbLine
 10
24.85575725290505
 20
11.7555077600681
 30
0.0
 11
24.55575725290507
 21
11.7555077600681
 31
0.0
  0
LINE
  5
537
330
1F
100
AcDbEntity
  8
FINAL_RELEASECUT
  6
Continuous
370
    25
100
AcDbLine
 10
24.85575725290505
 20
13.7555077600681
 30
0.0
 11
24.85575725290505
 21
11.7555077600681
 31
0.0
  0
LINE
  5
538
330
1F
100
AcDbEntity
  8
FINAL_RELEASECUT
  6
Continuous
370
    25
100
AcDbLine
 10
24.55575725290507
 20
14.7555077600681
 30
0.0
 11
24.55575725290507
 21
13.7555077600681
 31
0.0
  0
LINE
  5
539
330
1F
100
AcDbEntity
  8
FINAL_RELEASECUT
  6
Continuous
370
    25
100
AcDbLine
 10
24.55575725290507
 20
11.7555077600681
 30
0.0
 11
24.55575725290507
 21
10.2555077600681
 31
0.0
  0
LINE
  5
53A
330
1F
100
AcDbEntity
  8
FINAL_RELEASECUT
  6
Continuous
370
    25
100
AcDbLine
 10
24.85575725290505
 20
10.2555077600681
 30
0.0
 11
24.85575725290505
 21
8.755507760068098
 31
0.0
  0
LINE
  5
53B
330
1F
100
AcDbEntity
  8
FINAL_RELEASECUT
  6
Continuous
370
    25
100
AcDbLine
 10
24.85575725290505
 20
8.755507760068098
 30
0.0
 11
23.35575725290505
 21
8.755507760068098
 31
0.0
  0
LINE
  5
53C
330
1F
100
AcDbEntity
  8
FINAL_RELEASECUT
  6
Continuous
370
    25
100
AcDbLine
 10
23.35575725290505
 20
15.7555077600681
 30
0.0
 11
23.55575725290507
 21
15.7555077600681
 31
0.0
  0
LINE
  5
53D
330
1F
100
AcDbEntity
  8
FINAL_RELEASECUT
  6
Continuous
370
    25
100
AcDbLine
 10
18.35575725290505
 20
11.35550776006809
 30
0.0
 11
18.95575725290504
 21
11.35550776006809
 31
0.0
  0
LINE
  5
53E
330
1F
100
AcDbEntity
  8
FINAL_RELEASECUT
  6
Continuous
370
    25
100
AcDbLine
 10
20.45575725290504
 20
13.05550776006811
 30
0.0
 11
19.85575725290505
 21
13.05550776006811
 31
0.0
  0
ARC
  5
53F
330
1F
100
AcDbEntity
  8
FINAL_RELEASECUT
  6
Continuous
370
    25
100
AcDbCircle
 10
17.85575725290505
 20
14.7555077600681
 30
0.0
 40
1.0
100
AcDbArc
 50
90.0
 51
95.73917047726647
  0
LINE
  5
540
330
1F
100
AcDbEntity
  8
FINAL_RELEASECUT
  6
Continuous
370
    25
100
AcDbLine
 10
17.85575725290505
 20
15.7555077600681
 30
0.0
 11
18.35575725290505
 21
15.7555077600681
 31
0.0
  0
LINE
  5
541
330
1F
100
AcDbEntity
  8
FINAL_RELEASECUT
  6
Continuous
370
    25
100
AcDbLine
 10
20.45575725290504
 20
14.7555077600681
 30
0.0
 11
19.85575725290505
 21
14.7555077600681
 31
0.0
  0
LINE
  5
542
330
1F
100
AcDbEntity
  8
FINAL_RELEASECUT
  6
Continuous
370
    25
100
AcDbLine
 10
20.45575725290504
 20
15.7555077600681
 30
0.0
 11
19.85575725290505
 21
15.7555077600681
 31
0.0
  0
LINE
  5
543
330
1F
100
AcDbEntity
  8
FINAL_RELEASECUT
  6
Continuous
370
    25
100
AcDbLine
 10
18.95575725290504
 20
9.655507760068104
 30
0.0
 11
18.35575725290505
 21
9.655507760068104
 31
0.0
  0
LINE
  5
544
330
1F
100
AcDbEntity
  8
FINAL_RELEASECUT
  6
Continuous
370
    25
100
AcDbLine
 10
18.95575725290504
 20
8.755507760068098
 30
0.0
 11
18.35575725290505
 21
8.755507760068098
 31
0.0
  0
LINE
  5
545
330
1F
100
AcDbEntity
  8
Copper_Raster
100
AcDbLine
 10
23.35575725290505
 20
15.7555077600681
 30
0.0
 11
24.85575725290505
 21
15.7555077600681
 31
0.0
  0
LINE
  5
546
330
1F
100
AcDbEntity
  8
Copper_Raster
100
AcDbLine
 10
24.85575725290505
 20
0.0455301933473604
 30
0.0
 11
23.35575725290505
 21
0.0455301933473604
 31
0.0
  0
LINE
  5
549
330
1F
100
AcDbEntity
  8
Copper_Raster
100
AcDbLine
 10
19.85575725290505
 20
15.99482235125364
 30
0.0
 11
19.85575725290505
 21
15.7555077600681
 31
0.0
  0
LINE
  5
554
330
1F
100
AcDbEntity
  8
Copper_Raster
100
AcDbLine
 10
23.35575725290505
 20
8.755507760068098
 30
0.0
 11
23.35575725290505
 21
8.54553019334736
 31
0.0
  0
LINE
  5
555
330
1F
100
AcDbEntity
  8
Copper_Raster
100
AcDbLine
 10
24.85575725290505
 20
15.7555077600681
 30
0.0
 11
24.85575725290505
 21
0.0455301933473604
 31
0.0
  0
ARC
  5
6A4
330
1F
100
AcDbEntity
  8
Copper_Raster
100
AcDbCircle
 10
18.95575725290504
 20
12.45550776006811
 30
0.0
 40
0.5999999999999961
100
AcDbArc
 50
89.99999999999994
 51
179.9999999999998
  0
LINE
  5
6A6
330
1F
100
AcDbEntity
  8
Copper_Raster
100
AcDbLine
 10
19.40759071523106
 20
8.755507760068098
 30
0.0
 11
19.40759071523106
 21
8.755507760068098
 31
0.0
  0
LINE
  5
6A7
330
1F
100
AcDbEntity
  8
Copper_Raster
100
AcDbLine
 10
19.40759071523106
 20
8.755507760068098
 30
0.0
 11
19.40759071523106
 21
12.2555077600681
 31
0.0
  0
LINE
  5
6A8
330
1F
100
AcDbEntity
  8
Copper_Raster
100
AcDbLine
 10
19.40759071523106
 20
12.2555077600681
 30
0.0
 11
21.00759071523107
 21
12.2555077600681
 31
0.0
  0
LINE
  5
6A9
330
1F
100
AcDbEntity
  8
Copper_Raster
100
AcDbLine
 10
21.00759071523107
 20
12.2555077600681
 30
0.0
 11
21.00759071523107
 21
16.0655077600681
 31
0.0
  0
LINE
  5
6AA
330
1F
100
AcDbEntity
  8
Copper_Raster
100
AcDbLine
 10
21.00759071523107
 20
16.0655077600681
 30
0.0
 11
19.84619485204916
 21
16.0655077600681
 31
0.0
  0
LINE
  5
6AB
330
1F
100
AcDbEntity
  8
Copper_Raster
100
AcDbLine
 10
19.84619485204916
 20
16.0655077600681
 30
0.0
 11
19.84619485204916
 21
16.0655077600681
 31
0.0
  0
LINE
  5
6AC
330
1F
100
AcDbEntity
  8
Copper_Raster
100
AcDbLine
 10
19.84619485204916
 20
16.0655077600681
 30
0.0
 11
19.85575725290505
 21
15.99482235125364
 31
0.0
  0
LINE
  5
6AD
330
1F
100
AcDbEntity
  8
Copper_Raster
100
AcDbLine
 10
18.35575725290505
 20
8.755507760068098
 30
0.0
 11
18.35575725290505
 21
6.145530193347354
 31
0.0
  0
LINE
  5
6AE
330
1F
100
AcDbEntity
  8
Copper_Raster
100
AcDbLine
 10
18.35575725290505
 20
6.145530193347354
 30
0.0
 11
18.35575725290505
 21
4.445530193347366
 31
0.0
  0
LINE
  5
6AF
330
1F
100
AcDbEntity
  8
Copper_Raster
100
AcDbLine
 10
18.95575725290504
 20
4.445530193347366
 30
0.0
 11
18.95575725290504
 21
6.145530193347354
 31
0.0
  0
LINE
  5
6B0
330
1F
100
AcDbEntity
  8
Copper_Raster
100
AcDbLine
 10
18.95575725290504
 20
6.145530193347354
 30
0.0
 11
18.95575725290504
 21
8.54553019334736
 31
0.0
  0
LINE
  5
6B1
330
1F
100
AcDbEntity
  8
Copper_Raster
100
AcDbLine
 10
18.95575725290504
 20
8.54553019334736
 30
0.0
 11
19.40759071523106
 21
8.755507760068098
 31
0.0
  0
LINE
  5
6B2
330
1F
100
AcDbEntity
  8
Copper_Raster
100
AcDbLine
 10
20.45575725290504
 20
-0.5550733876391974
 30
0.0
 11
20.45575725290504
 21
2.745530193347348
 31
0.0
  0
LINE
  5
6B3
330
1F
100
AcDbEntity
  8
Copper_Raster
100
AcDbLine
 10
20.45575725290504
 20
-0.5550733876391974
 30
0.0
 11
19.85575725290505
 21
-0.5550733876391973
 31
0.0
  0
LINE
  5
6B4
330
1F
100
AcDbEntity
  8
Copper_Raster
100
AcDbLine
 10
19.85575725290505
 20
-0.5550733876391973
 30
0.0
 11
19.85575725290505
 21
1.04553019334736
 31
0.0
  0
LINE
  5
6B5
330
1F
100
AcDbEntity
  8
Copper_Raster
100
AcDbLine
 10
19.85575725290505
 20
1.04553019334736
 30
0.0
 11
19.85575725290505
 21
2.745530193347348
 31
0.0
  0
LINE
  5
6B6
330
1F
100
AcDbEntity
  8
Copper_Raster
100
AcDbLine
 10
19.85575725290505
 20
2.745530193347348
 30
0.0
 11
18.95575725290504
 21
2.740980707677636
 31
0.0
  0
LINE
  5
6B8
330
1F
100
AcDbEntity
  8
Copper_Raster
100
AcDbLine
 10
18.95575725290504
 20
2.740980707677636
 30
0.0
 11
18.44264430021542
 21
2.227867754988015
 31
0.0
  0
LINE
  5
6B9
330
1F
100
AcDbEntity
  8
Copper_Raster
100
AcDbLine
 10
18.44264430021542
 20
2.227867754988015
 30
0.0
 11
18.44264430021542
 21
-0.4690390270547158
 31
0.0
  0
LINE
  5
6BA
330
1F
100
AcDbEntity
  8
Copper_Raster
100
AcDbLine
 10
18.44264430021542
 20
-0.4690390270547158
 30
0.0
 11
17.94279784999691
 21
-0.4814295962085901
 31
0.0
  0
LINE
  5
6BB
330
1F
100
AcDbEntity
  8
Copper_Raster
100
AcDbLine
 10
17.94279784999691
 20
-0.4814295962085901
 30
0.0
 11
17.94279784999691
 21
2.738746950046053
 31
0.0
  0
LINE
  5
6BD
330
1F
100
AcDbEntity
  8
Copper_Raster
100
AcDbLine
 10
17.94279784999691
 20
2.738746950046053
 30
0.0
 11
18.35575725290505
 21
3.134576243808112
 31
0.0
  0
LINE
  5
6BE
330
1F
100
AcDbEntity
  8
Copper_Raster
100
AcDbLine
 10
18.35575725290505
 20
3.134576243808112
 30
0.0
 11
18.35575725290505
 21
4.445530193347366
 31
0.0
  0
LINE
  5
6BF
330
1F
100
AcDbEntity
  8
Copper_Raster
100
AcDbLine
 10
18.95575725290504
 20
4.445530193347366
 30
0.0
 11
18.95575725290504
 21
3.361419011431507
 31
0.0
  0
LINE
  5
6C0
330
1F
100
AcDbEntity
  8
Copper_Raster
100
AcDbLine
 10
18.95575725290504
 20
3.361419011431507
 30
0.0
 11
20.45575725290505
 21
3.361419011431508
 31
0.0
  0
LINE
  5
6C1
330
1F
100
AcDbEntity
  8
Copper_Raster
100
AcDbLine
 10
20.45575725290505
 20
3.361419011431508
 30
0.0
 11
20.45575725290505
 21
2.745530193347348
 31
0.0
  0
MTEXT
  5
72D
330
1F
100
AcDbEntity
  8
Text
100
AcDbMText
 10
27.90434556378058
 20
9.841341286302792
 30
0.0
 40
0.8
 41
4.443980388984072
 46
0.0
 71
     1
 72
     5
  1
{\fVerdana|b0|i0|c0|p34;AIMRL}
 73
     1
 44
1.0
1001
ACAD
1000
ACAD_MTEXT_COLUMN_INFO_BEGIN
1070
    75
1070
     2
1070
    79
1070
     0
1070
    76
1070
     1
1070
    78
1070
     0
1070
    48
1040
4.443980388984072
1070
    49
1040
22.96500902767547
1070
    50
1070
     1
1040
0.0
1000
ACAD_MTEXT_COLUMN_INFO_END
  0
MTEXT
  5
72E
330
1F
100
AcDbEntity
  8
Text
100
AcDbMText
 10
31.49417992750217
 20
7.135867655743311
 30
0.0
 40
0.8
 41
4.443980388984072
 46
0.0
 71
     1
 72
     5
  1
{\fVerdana|b0|i0|c0|p34;AIMRL}
 11
-1.0
 21
0.0000000000000001
 31
0.0
 73
     1
 44
1.0
1001
ACAD
1000
ACAD_MTEXT_COLUMN_INFO_BEGIN
1070
    75
1070
     2
1070
    79
1070
     0
1070
    76
1070
     1
1070
    78
1070
     0
1070
    48
1040
4.443980388984072
1070
    49
1040
22.96500902767547
1070
    50
1070
     1
1040
0.0
1000
ACAD_MTEXT_COLUMN_INFO_END
  0
MTEXT
  5
72F
330
1F
100
AcDbEntity
  8
Text
100
AcDbMText
 10
31.62501721191553
 20
6.427473957852498
 30
0.0
 40
0.5
 41
4.443980388984072
 46
0.0
 71
     1
 72
     5
  1
{\fVerdana|b0|i0|c0|p34;BIAS}
 11
-0.0000000000000002
 21
-1.0
 31
0.0
 73
     1
 44
1.0
1001
ACAD
1000
ACAD_MTEXT_COLUMN_INFO_BEGIN
1070
    75
1070
     2
1070
    79
1070
     0
1070
    76
1070
     1
1070
    78
1070
     0
1070
    48
1040
4.443980388984072
1070
    49
1040
22.96500902767547
1070
    50
1070
     1
1040
0.0
1000
ACAD_MTEXT_COLUMN_INFO_END
  0
MTEXT
  5
730
330
1F
100
AcDbEntity
  8
Text
100
AcDbMText
 10
25.4653459983091
 20
9.926940679676931
 30
0.0
 40
0.4
 41
4.443980388984072
 46
0.0
 71
     1
 72
     5
  1
{\fVerdana|b0|i0|c0|p34;GND}
 73
     1
 44
1.0
1001
ACAD
1000
ACAD_MTEXT_COLUMN_INFO_BEGIN
1070
    75
1070
     2
1070
    79
1070
     0
1070
    76
1070
     1
1070
    78
1070
     0
1070
    48
1040
4.443980388984072
1070
    49
1040
22.96500902767547
1070
    50
1070
     1
1040
0.0
1000
ACAD_MTEXT_COLUMN_INFO_END
  0
LINE
  5
731
330
1F
100
AcDbEntity
  8
Copper_Raster
  6
Continuous
370
    25
100
AcDbLine
 10
31.78751270051943
 20
0.0122211691509615
 30
0.0
 11
31.78751270051943
 21
8.512221169150961
 31
0.0
  0
LINE
  5
732
330
1F
100
AcDbEntity
  8
Copper_Raster
  6
Continuous
370
    25
100
AcDbLine
 10
31.98751270051944
 20
0.0122211691509615
 30
0.0
 11
31.78751270051943
 21
0.0122211691509615
 31
0.0
  0
LINE
  5
733
330
1F
100
AcDbEntity
  8
Copper_Raster
  6
Continuous
370
    25
100
AcDbLine
 10
31.78751270051943
 20
8.7221987358717
 30
0.0
 11
31.78751270051943
 21
15.7221987358717
 31
0.0
  0
LINE
  5
734
330
1F
100
AcDbEntity
  8
Copper_Raster
  6
Continuous
370
    25
100
AcDbLine
 10
28.28751270051943
 20
13.02219873587171
 30
0.0
 11
27.38751270051942
 21
13.02219873587171
 31
0.0
  0
LINE
  5
735
330
1F
100
AcDbEntity
  8
Copper_Raster
  6
Continuous
370
    25
100
AcDbLine
 10
28.28751270051943
 20
13.02219873587171
 30
0.0
 11
28.28751270051943
 21
15.7221987358717
 31
0.0
  0
LINE
  5
736
330
1F
100
AcDbEntity
  8
Copper_Raster
  6
Continuous
370
    25
100
AcDbLine
 10
26.78751270051943
 20
8.7221987358717
 30
0.0
 11
26.78751270051943
 21
12.42219873587172
 31
0.0
  0
LINE
  5
737
330
1F
100
AcDbEntity
  8
Copper_Raster
  6
Continuous
370
    25
100
AcDbLine
 10
31.78751270051943
 20
15.7221987358717
 30
0.0
 11
31.98751270051944
 21
15.7221987358717
 31
0.0
  0
ARC
  5
738
330
1F
100
AcDbEntity
  8
FINAL_RELEASECUT
  6
Continuous
370
    25
100
AcDbCircle
 10
26.28751270051943
 20
7.512221169150961
 30
0.0
 40
1.0
100
AcDbArc
 50
90.0
 51
180.0
  0
LINE
  5
739
330
1F
100
AcDbEntity
  8
FINAL_RELEASECUT
  6
Continuous
370
    25
100
AcDbLine
 10
25.28751270051943
 20
7.512221169150961
 30
0.0
 11
25.28751270051943
 21
1.012221169150961
 31
0.0
  0
ARC
  5
73A
330
1F
100
AcDbEntity
  8
FINAL_RELEASECUT
  6
Continuous
370
    25
100
AcDbCircle
 10
26.28751270051943
 20
1.012221169150961
 30
0.0
 40
1.0
100
AcDbArc
 50
180.0
 51
270.0
  0
LINE
  5
73B
330
1F
100
AcDbEntity
  8
FINAL_RELEASECUT
  6
Continuous
370
    25
100
AcDbLine
 10
26.28751270051943
 20
0.0122211691509615
 30
0.0
 11
28.38751270051945
 21
0.0122211691509615
 31
0.0
  0
LINE
  5
73C
330
1F
100
AcDbEntity
  8
FINAL_RELEASECUT
  6
Continuous
370
    25
100
AcDbLine
 10
28.28751270051943
 20
1.012221169150961
 30
0.0
 11
28.38751270051945
 21
1.012221169150961
 31
0.0
  0
LINE
  5
73D
330
1F
100
AcDbEntity
  8
FINAL_RELEASECUT
  6
Continuous
370
    25
100
AcDbLine
 10
28.28751270051943
 20
2.71222116915095
 30
0.0
 11
28.28751270051943
 21
1.012221169150961
 31
0.0
  0
LINE
  5
73E
330
1F
100
AcDbEntity
  8
FINAL_RELEASECUT
  6
Continuous
370
    25
100
AcDbLine
 10
28.38751270051945
 20
2.71222116915095
 30
0.0
 11
28.28751270051943
 21
2.71222116915095
 31
0.0
  0
LINE
  5
73F
330
1F
100
AcDbEntity
  8
FINAL_RELEASECUT
  6
Continuous
370
    25
100
AcDbLine
 10
26.78751270051943
 20
4.412221169150967
 30
0.0
 11
26.83934616284544
 21
4.412221169150967
 31
0.0
  0
LINE
  5
740
330
1F
100
AcDbEntity
  8
FINAL_RELEASECUT
  6
Continuous
370
    25
100
AcDbLine
 10
26.78751270051943
 20
6.112221169150956
 30
0.0
 11
26.78751270051943
 21
4.412221169150967
 31
0.0
  0
LINE
  5
741
330
1F
100
AcDbEntity
  8
FINAL_RELEASECUT
  6
Continuous
370
    25
100
AcDbLine
 10
26.83934616284544
 20
6.112221169150956
 30
0.0
 11
26.78751270051943
 21
6.112221169150956
 31
0.0
  0
LINE
  5
742
330
1F
100
AcDbEntity
  8
FINAL_RELEASECUT
  6
Continuous
370
    25
100
AcDbLine
 10
26.83934616284544
 20
8.512221169150961
 30
0.0
 11
26.28751270051943
 21
8.512221169150961
 31
0.0
  0
LINE
  5
743
330
1F
100
AcDbEntity
  8
FINAL_RELEASECUT
  6
Continuous
370
    25
100
AcDbLine
 10
31.78751270051943
 20
8.512221169150961
 30
0.0
 11
27.83934616284544
 21
8.512221169150961
 31
0.0
  0
LINE
  5
744
330
1F
100
AcDbEntity
  8
FINAL_RELEASECUT
  6
Continuous
370
    25
100
AcDbLine
 10
29.38751270051942
 20
0.0122211691509615
 30
0.0
 11
31.78751270051943
 21
0.0122211691509615
 31
0.0
  0
LINE
  5
745
330
1F
100
AcDbEntity
  8
FINAL_RELEASECUT
  6
Continuous
370
    25
100
AcDbLine
 10
32.98751270051945
 20
7.012221169150961
 30
0.0
 11
32.98751270051945
 21
4.012221169150961
 31
0.0
  0
LINE
  5
746
330
1F
100
AcDbEntity
  8
FINAL_RELEASECUT
  6
Continuous
370
    25
100
AcDbLine
 10
33.28751270051943
 20
7.012221169150961
 30
0.0
 11
32.98751270051945
 21
7.012221169150961
 31
0.0
  0
LINE
  5
747
330
1F
100
AcDbEntity
  8
FINAL_RELEASECUT
  6
Continuous
370
    25
100
AcDbLine
 10
33.28751270051943
 20
8.512221169150961
 30
0.0
 11
33.28751270051943
 21
7.012221169150961
 31
0.0
  0
ARC
  5
748
330
1F
100
AcDbEntity
  8
FINAL_RELEASECUT
  6
Continuous
370
    25
100
AcDbCircle
 10
31.98751270051944
 20
1.012221169150961
 30
0.0
 40
1.0
100
AcDbArc
 50
270.0
 51
0.0000000000000064
  0
LINE
  5
749
330
1F
100
AcDbEntity
  8
FINAL_RELEASECUT
  6
Continuous
370
    25
100
AcDbLine
 10
32.98751270051945
 20
2.012221169150961
 30
0.0
 11
32.98751270051945
 21
1.012221169150961
 31
0.0
  0
LINE
  5
74A
330
1F
100
AcDbEntity
  8
FINAL_RELEASECUT
  6
Continuous
370
    25
100
AcDbLine
 10
33.28751270051943
 20
2.012221169150961
 30
0.0
 11
32.98751270051945
 21
2.012221169150961
 31
0.0
  0
LINE
  5
74B
330
1F
100
AcDbEntity
  8
FINAL_RELEASECUT
  6
Continuous
370
    25
100
AcDbLine
 10
33.28751270051943
 20
4.012221169150961
 30
0.0
 11
33.28751270051943
 21
2.012221169150961
 31
0.0
  0
LINE
  5
74C
330
1F
100
AcDbEntity
  8
FINAL_RELEASECUT
  6
Continuous
370
    25
100
AcDbLine
 10
32.98751270051945
 20
4.012221169150961
 30
0.0
 11
33.28751270051943
 21
4.012221169150961
 31
0.0
  0
LINE
  5
74D
330
1F
100
AcDbEntity
  8
FINAL_RELEASECUT
  6
Continuous
370
    25
100
AcDbLine
 10
31.78751270051943
 20
8.512221169150961
 30
0.0
 11
33.28751270051943
 21
8.512221169150961
 31
0.0
  0
LINE
  5
74E
330
1F
100
AcDbEntity
  8
FINAL_RELEASECUT
  6
Continuous
370
    25
100
AcDbLine
 10
31.98751270051944
 20
0.0122211691509615
 30
0.0
 11
31.78751270051943
 21
0.0122211691509615
 31
0.0
  0
LINE
  5
74F
330
1F
100
AcDbEntity
  8
FINAL_RELEASECUT
  6
Continuous
370
    25
100
AcDbLine
 10
27.38751270051942
 20
6.112221169150956
 30
0.0
 11
27.38751270051942
 21
4.412221169150967
 31
0.0
  0
LINE
  5
750
330
1F
100
AcDbEntity
  8
FINAL_RELEASECUT
  6
Continuous
370
    25
100
AcDbLine
 10
28.88751270051942
 20
2.71222116915095
 30
0.0
 11
28.88751270051942
 21
1.012221169150961
 31
0.0
  0
LINE
  5
751
330
1F
100
AcDbEntity
  8
FINAL_RELEASECUT
  6
Continuous
370
    25
100
AcDbLine
 10
26.83934616284544
 20
8.512221169150961
 30
0.0
 11
27.83934616284544
 21
8.512221169150961
 31
0.0
  0
LINE
  5
752
330
1F
100
AcDbEntity
  8
FINAL_RELEASECUT
  6
Continuous
370
    25
100
AcDbLine
 10
26.83934616284544
 20
6.112221169150956
 30
0.0
 11
27.38751270051942
 21
6.112221169150956
 31
0.0
  0
LINE
  5
753
330
1F
100
AcDbEntity
  8
FINAL_RELEASECUT
  6
Continuous
370
    25
100
AcDbLine
 10
27.38751270051942
 20
4.412221169150967
 30
0.0
 11
26.83934616284544
 21
4.412221169150967
 31
0.0
  0
LINE
  5
754
330
1F
100
AcDbEntity
  8
FINAL_RELEASECUT
  6
Continuous
370
    25
100
AcDbLine
 10
28.38751270051945
 20
2.71222116915095
 30
0.0
 11
28.88751270051942
 21
2.71222116915095
 31
0.0
  0
LINE
  5
755
330
1F
100
AcDbEntity
  8
FINAL_RELEASECUT
  6
Continuous
370
    25
100
AcDbLine
 10
28.88751270051942
 20
1.012221169150961
 30
0.0
 11
28.38751270051945
 21
1.012221169150961
 31
0.0
  0
LINE
  5
756
330
1F
100
AcDbEntity
  8
FINAL_RELEASECUT
  6
Continuous
370
    25
100
AcDbLine
 10
29.38751270051942
 20
0.0122211691509615
 30
0.0
 11
28.38751270051945
 21
0.0122211691509615
 31
0.0
  0
LINE
  5
757
330
1F
100
AcDbEntity
  8
FINAL_RELEASECUT
  6
Continuous
370
    25
100
AcDbLine
 10
28.88751270051942
 20
15.7221987358717
 30
0.0
 11
31.78751270051943
 21
15.7221987358717
 31
0.0
  0
LINE
  5
758
330
1F
100
AcDbEntity
  8
FINAL_RELEASECUT
  6
Continuous
370
    25
100
AcDbLine
 10
28.88751270051942
 20
14.7221987358717
 30
0.0
 11
28.88751270051942
 21
13.02219873587171
 31
0.0
  0
LINE
  5
759
330
1F
100
AcDbEntity
  8
FINAL_RELEASECUT
  6
Continuous
370
    25
100
AcDbLine
 10
27.38751270051942
 20
11.32219873587169
 30
0.0
 11
27.38751270051942
 21
9.622198735871705
 31
0.0
  0
LINE
  5
75A
330
1F
100
AcDbEntity
  8
FINAL_RELEASECUT
  6
Continuous
370
    25
100
AcDbLine
 10
31.78751270051943
 20
8.7221987358717
 30
0.0
 11
27.38751270051942
 21
8.7221987358717
 31
0.0
  0
LINE
  5
75B
330
1F
100
AcDbEntity
  8
FINAL_RELEASECUT
  6
Continuous
370
    25
100
AcDbLine
 10
28.28751270051943
 20
13.02219873587171
 30
0.0
 11
28.28751270051943
 21
14.7221987358717
 31
0.0
  0
LINE
  5
75C
330
1F
100
AcDbEntity
  8
FINAL_RELEASECUT
  6
Continuous
370
    25
100
AcDbLine
 10
26.78751270051943
 20
15.7221987358717
 30
0.0
 11
28.28751270051943
 21
15.7221987358717
 31
0.0
  0
LINE
  5
75D
330
1F
100
AcDbEntity
  8
FINAL_RELEASECUT
  6
Continuous
370
    25
100
AcDbLine
 10
26.78751270051943
 20
8.7221987358717
 30
0.0
 11
26.28751270051943
 21
8.7221987358717
 31
0.0
  0
LINE
  5
75E
330
1F
100
AcDbEntity
  8
FINAL_RELEASECUT
  6
Continuous
370
    25
100
AcDbLine
 10
25.28751270051943
 20
9.7221987358717
 30
0.0
 11
25.28751270051943
 21
14.7221987358717
 31
0.0
  0
ARC
  5
75F
330
1F
100
AcDbEntity
  8
FINAL_RELEASECUT
  6
Continuous
370
    25
100
AcDbCircle
 10
26.28751270051943
 20
14.7221987358717
 30
0.0
 40
1.000000000000009
100
AcDbArc
 50
95.73917047726647
 51
180.0
  0
ARC
  5
760
330
1F
100
AcDbEntity
  8
FINAL_RELEASECUT
  6
Continuous
370
    25
100
AcDbCircle
 10
26.28751270051943
 20
9.7221987358717
 30
0.0
 40
1.0
100
AcDbArc
 50
180.0
 51
270.0
  0
LINE
  5
761
330
1F
100
AcDbEntity
  8
FINAL_RELEASECUT
  6
Continuous
370
    25
100
AcDbLine
 10
26.78751270051943
 20
9.622198735871705
 30
0.0
 11
26.78751270051943
 21
11.32219873587169
 31
0.0
  0
LINE
  5
762
330
1F
100
AcDbEntity
  8
FINAL_RELEASECUT
  6
Continuous
370
    25
100
AcDbLine
 10
32.98751270051945
 20
10.2221987358717
 30
0.0
 11
33.28751270051943
 21
10.2221987358717
 31
0.0
  0
LINE
  5
763
330
1F
100
AcDbEntity
  8
FINAL_RELEASECUT
  6
Continuous
370
    25
100
AcDbLine
 10
32.98751270051945
 20
13.7221987358717
 30
0.0
 11
33.28751270051943
 21
13.7221987358717
 31
0.0
  0
ARC
  5
764
330
1F
100
AcDbEntity
  8
FINAL_RELEASECUT
  6
Continuous
370
    25
100
AcDbCircle
 10
31.98751270051944
 20
14.7221987358717
 30
0.0
 40
1.0
100
AcDbArc
 50
0.0000000000000064
 51
90.0
  0
LINE
  5
765
330
1F
100
AcDbEntity
  8
FINAL_RELEASECUT
  6
Continuous
370
    25
100
AcDbLine
 10
33.28751270051943
 20
11.7221987358717
 30
0.0
 11
32.98751270051945
 21
11.7221987358717
 31
0.0
  0
LINE
  5
766
330
1F
100
AcDbEntity
  8
FINAL_RELEASECUT
  6
Continuous
370
    25
100
AcDbLine
 10
33.28751270051943
 20
13.7221987358717
 30
0.0
 11
33.28751270051943
 21
11.7221987358717
 31
0.0
  0
LINE
  5
767
330
1F
100
AcDbEntity
  8
FINAL_RELEASECUT
  6
Continuous
370
    25
100
AcDbLine
 10
32.98751270051945
 20
14.7221987358717
 30
0.0
 11
32.98751270051945
 21
13.7221987358717
 31
0.0
  0
LINE
  5
768
330
1F
100
AcDbEntity
  8
FINAL_RELEASECUT
  6
Continuous
370
    25
100
AcDbLine
 10
32.98751270051945
 20
11.7221987358717
 30
0.0
 11
32.98751270051945
 21
10.2221987358717
 31
0.0
  0
LINE
  5
769
330
1F
100
AcDbEntity
  8
FINAL_RELEASECUT
  6
Continuous
370
    25
100
AcDbLine
 10
33.28751270051943
 20
10.2221987358717
 30
0.0
 11
33.28751270051943
 21
8.7221987358717
 31
0.0
  0
LINE
  5
76A
330
1F
100
AcDbEntity
  8
FINAL_RELEASECUT
  6
Continuous
370
    25
100
AcDbLine
 10
33.28751270051943
 20
8.7221987358717
 30
0.0
 11
31.78751270051943
 21
8.7221987358717
 31
0.0
  0
LINE
  5
76B
330
1F
100
AcDbEntity
  8
FINAL_RELEASECUT
  6
Continuous
370
    25
100
AcDbLine
 10
31.78751270051943
 20
15.7221987358717
 30
0.0
 11
31.98751270051944
 21
15.7221987358717
 31
0.0
  0
LINE
  5
76C
330
1F
100
AcDbEntity
  8
FINAL_RELEASECUT
  6
Continuous
370
    25
100
AcDbLine
 10
26.78751270051943
 20
11.32219873587169
 30
0.0
 11
27.38751270051942
 21
11.32219873587169
 31
0.0
  0
LINE
  5
76D
330
1F
100
AcDbEntity
  8
FINAL_RELEASECUT
  6
Continuous
370
    25
100
AcDbLine
 10
28.88751270051942
 20
13.02219873587171
 30
0.0
 11
28.28751270051943
 21
13.02219873587171
 31
0.0
  0
ARC
  5
76E
330
1F
100
AcDbEntity
  8
FINAL_RELEASECUT
  6
Continuous
370
    25
100
AcDbCircle
 10
26.28751270051943
 20
14.7221987358717
 30
0.0
 40
1.0
100
AcDbArc
 50
90.0
 51
95.73917047726647
  0
LINE
  5
76F
330
1F
100
AcDbEntity
  8
FINAL_RELEASECUT
  6
Continuous
370
    25
100
AcDbLine
 10
26.28751270051943
 20
15.7221987358717
 30
0.0
 11
26.78751270051943
 21
15.7221987358717
 31
0.0
  0
LINE
  5
770
330
1F
100
AcDbEntity
  8
FINAL_RELEASECUT
  6
Continuous
370
    25
100
AcDbLine
 10
28.88751270051942
 20
14.7221987358717
 30
0.0
 11
28.28751270051943
 21
14.7221987358717
 31
0.0
  0
LINE
  5
771
330
1F
100
AcDbEntity
  8
FINAL_RELEASECUT
  6
Continuous
370
    25
100
AcDbLine
 10
28.88751270051942
 20
15.7221987358717
 30
0.0
 11
28.28751270051943
 21
15.7221987358717
 31
0.0
  0
LINE
  5
772
330
1F
100
AcDbEntity
  8
FINAL_RELEASECUT
  6
Continuous
370
    25
100
AcDbLine
 10
27.38751270051942
 20
9.622198735871705
 30
0.0
 11
26.78751270051943
 21
9.622198735871705
 31
0.0
  0
LINE
  5
773
330
1F
100
AcDbEntity
  8
FINAL_RELEASECUT
  6
Continuous
370
    25
100
AcDbLine
 10
27.38751270051942
 20
8.7221987358717
 30
0.0
 11
26.78751270051943
 21
8.7221987358717
 31
0.0
  0
LINE
  5
774
330
1F
100
AcDbEntity
  8
Copper_Raster
100
AcDbLine
 10
31.78751270051943
 20
15.7221987358717
 30
0.0
 11
33.28751270051943
 21
15.7221987358717
 31
0.0
  0
LINE
  5
775
330
1F
100
AcDbEntity
  8
Copper_Raster
100
AcDbLine
 10
33.28751270051943
 20
0.0122211691509617
 30
0.0
 11
31.78751270051943
 21
0.0122211691509617
 31
0.0
  0
LINE
  5
776
330
1F
100
AcDbEntity
  8
Copper_Raster
100
AcDbLine
 10
28.28751270051943
 20
15.96151332705725
 30
0.0
 11
28.28751270051943
 21
15.7221987358717
 31
0.0
  0
LINE
  5
777
330
1F
100
AcDbEntity
  8
Copper_Raster
100
AcDbLine
 10
31.78751270051943
 20
8.7221987358717
 30
0.0
 11
31.78751270051943
 21
8.512221169150961
 31
0.0
  0
LINE
  5
778
330
1F
100
AcDbEntity
  8
Copper_Raster
100
AcDbLine
 10
33.28751270051943
 20
15.7221987358717
 30
0.0
 11
33.28751270051943
 21
0.0122211691509617
 31
0.0
  0
ARC
  5
779
330
1F
100
AcDbEntity
  8
Copper_Raster
100
AcDbCircle
 10
27.38751270051942
 20
12.42219873587171
 30
0.0
 40
0.5999999999999961
100
AcDbArc
 50
90.0
 51
179.9999999999998
  0
LINE
  5
77A
330
1F
100
AcDbEntity
  8
Copper_Raster
100
AcDbLine
 10
27.83934616284544
 20
8.7221987358717
 30
0.0
 11
27.83934616284544
 21
8.7221987358717
 31
0.0
  0
LINE
  5
77B
330
1F
100
AcDbEntity
  8
Copper_Raster
100
AcDbLine
 10
27.83934616284544
 20
8.7221987358717
 30
0.0
 11
27.83934616284544
 21
12.2221987358717
 31
0.0
  0
LINE
  5
77C
330
1F
100
AcDbEntity
  8
Copper_Raster
100
AcDbLine
 10
27.83934616284544
 20
12.2221987358717
 30
0.0
 11
29.43934616284544
 21
12.2221987358717
 31
0.0
  0
LINE
  5
77D
330
1F
100
AcDbEntity
  8
Copper_Raster
100
AcDbLine
 10
29.43934616284544
 20
12.2221987358717
 30
0.0
 11
29.43934616284544
 21
16.0321987358717
 31
0.0
  0
LINE
  5
77E
330
1F
100
AcDbEntity
  8
Copper_Raster
100
AcDbLine
 10
29.43934616284544
 20
16.0321987358717
 30
0.0
 11
28.27795029966354
 21
16.0321987358717
 31
0.0
  0
LINE
  5
77F
330
1F
100
AcDbEntity
  8
Copper_Raster
100
AcDbLine
 10
28.27795029966354
 20
16.0321987358717
 30
0.0
 11
28.27795029966354
 21
16.0321987358717
 31
0.0
  0
LINE
  5
780
330
1F
100
AcDbEntity
  8
Copper_Raster
100
AcDbLine
 10
28.27795029966354
 20
16.0321987358717
 30
0.0
 11
28.28751270051943
 21
15.96151332705725
 31
0.0
  0
LINE
  5
781
330
1F
100
AcDbEntity
  8
Copper_Raster
100
AcDbLine
 10
26.78751270051943
 20
8.7221987358717
 30
0.0
 11
26.78751270051943
 21
6.112221169150956
 31
0.0
  0
LINE
  5
782
330
1F
100
AcDbEntity
  8
Copper_Raster
100
AcDbLine
 10
26.78751270051943
 20
6.112221169150956
 30
0.0
 11
26.78751270051943
 21
4.412221169150967
 31
0.0
  0
LINE
  5
783
330
1F
100
AcDbEntity
  8
Copper_Raster
100
AcDbLine
 10
27.38751270051942
 20
4.412221169150967
 30
0.0
 11
27.38751270051942
 21
6.112221169150956
 31
0.0
  0
LINE
  5
784
330
1F
100
AcDbEntity
  8
Copper_Raster
100
AcDbLine
 10
27.38751270051942
 20
6.112221169150956
 30
0.0
 11
27.38751270051942
 21
8.512221169150961
 31
0.0
  0
LINE
  5
785
330
1F
100
AcDbEntity
  8
Copper_Raster
100
AcDbLine
 10
27.38751270051942
 20
8.512221169150961
 30
0.0
 11
27.83934616284544
 21
8.7221987358717
 31
0.0
  0
LINE
  5
786
330
1F
100
AcDbEntity
  8
Copper_Raster
100
AcDbLine
 10
28.88751270051942
 20
-0.5883824118355961
 30
0.0
 11
28.88751270051942
 21
2.71222116915095
 31
0.0
  0
LINE
  5
787
330
1F
100
AcDbEntity
  8
Copper_Raster
100
AcDbLine
 10
28.88751270051942
 20
-0.5883824118355961
 30
0.0
 11
28.28751270051942
 21
-0.588382411835596
 31
0.0
  0
LINE
  5
788
330
1F
100
AcDbEntity
  8
Copper_Raster
100
AcDbLine
 10
28.28751270051942
 20
-0.588382411835596
 30
0.0
 11
28.28751270051943
 21
1.012221169150961
 31
0.0
  0
LINE
  5
789
330
1F
100
AcDbEntity
  8
Copper_Raster
100
AcDbLine
 10
28.28751270051943
 20
1.012221169150961
 30
0.0
 11
28.28751270051943
 21
2.71222116915095
 31
0.0
  0
LINE
  5
78A
330
1F
100
AcDbEntity
  8
Copper_Raster
100
AcDbLine
 10
28.28751270051943
 20
2.71222116915095
 30
0.0
 11
27.38751270051942
 21
2.707671683481237
 31
0.0
  0
LINE
  5
78B
330
1F
100
AcDbEntity
  8
Copper_Raster
100
AcDbLine
 10
27.38751270051942
 20
2.707671683481237
 30
0.0
 11
26.8743997478298
 21
2.194558730791616
 31
0.0
  0
LINE
  5
78C
330
1F
100
AcDbEntity
  8
Copper_Raster
100
AcDbLine
 10
26.8743997478298
 20
2.194558730791616
 30
0.0
 11
26.8743997478298
 21
-0.5023480512511145
 31
0.0
  0
LINE
  5
78D
330
1F
100
AcDbEntity
  8
Copper_Raster
100
AcDbLine
 10
26.8743997478298
 20
-0.5023480512511145
 30
0.0
 11
26.37455329761129
 21
-0.5147386204049888
 31
0.0
  0
LINE
  5
78E
330
1F
100
AcDbEntity
  8
Copper_Raster
100
AcDbLine
 10
26.37455329761129
 20
-0.5147386204049888
 30
0.0
 11
26.37455329761129
 21
2.705437925849655
 31
0.0
  0
LINE
  5
78F
330
1F
100
AcDbEntity
  8
Copper_Raster
100
AcDbLine
 10
26.37455329761129
 20
2.705437925849655
 30
0.0
 11
26.78751270051943
 21
3.101267219611713
 31
0.0
  0
LINE
  5
790
330
1F
100
AcDbEntity
  8
Copper_Raster
100
AcDbLine
 10
26.78751270051943
 20
3.101267219611713
 30
0.0
 11
26.78751270051943
 21
4.412221169150967
 31
0.0
  0
LINE
  5
791
330
1F
100
AcDbEntity
  8
Copper_Raster
100
AcDbLine
 10
27.38751270051942
 20
4.412221169150967
 30
0.0
 11
27.38751270051942
 21
3.328109987235109
 31
0.0
  0
LINE
  5
792
330
1F
100
AcDbEntity
  8
Copper_Raster
100
AcDbLine
 10
27.38751270051942
 20
3.328109987235109
 30
0.0
 11
28.88751270051943
 21
3.328109987235109
 31
0.0
  0
LINE
  5
793
330
1F
100
AcDbEntity
  8
Copper_Raster
100
AcDbLine
 10
28.88751270051943
 20
3.328109987235109
 30
0.0
 11
28.88751270051943
 21
2.71222116915095
 31
0.0
  0
ENDSEC
  0
SECTION
  2
OBJECTS
  0
DICTIONARY
  5
C
330
0
100
AcDbDictionary
281
     1
  3
ACAD_CIP_PREVIOUS_PRODUCT_INFO
350
104
  3
ACAD_COLOR
350
F9
  3
ACAD_DETAILVIEWSTYLE
350
100
  3
ACAD_GROUP
350
D
  3
ACAD_LAYOUT
350
1A
  3
ACAD_MATERIAL
350
C7
  3
ACAD_MLEADERSTYLE
350
FC
  3
ACAD_MLINESTYLE
350
17
  3
ACAD_PLOTSETTINGS
350
19
  3
ACAD_PLOTSTYLENAME
350
E
  3
ACAD_SCALELIST
350
47
  3
ACAD_SECTIONVIEWSTYLE
350
FE
  3
ACAD_TABLESTYLE
350
FA
  3
ACAD_VISUALSTYLE
350
E0
  3
ACDB_RECOMPOSE_DATA
350
79D
  3
AcDbVariableDictionary
350
110
  3
AcDsDecomposeData
350
7A3
  0
DICTIONARY
  5
27F
330
2
100
AcDbDictionary
280
     1
281
     1
  3
ACAD_LAYERSTATES
360
280
  0
DICTIONARY
  5
274
330
10
100
AcDbDictionary
280
     1
281
     1
  3
ADSK_XREC_LAYER_RECONCILED
360
275
  0
DICTIONARY
  5
276
330
73
100
AcDbDictionary
280
     1
281
     1
  3
ADSK_XREC_LAYER_RECONCILED
360
277
  0
DICTIONARY
  5
278
330
74
100
AcDbDictionary
280
     1
281
     1
  3
ADSK_XREC_LAYER_RECONCILED
360
279
  0
DICTIONARY
  5
27A
330
11A
100
AcDbDictionary
280
     1
281
     1
  3
ADSK_XREC_LAYER_RECONCILED
360
27B
  0
XRECORD
  5
104
102
{ACAD_REACTORS
330
C
102
}
330
C
100
AcDbXrecord
280
     1
300
ACD
300
2021
300

  0
DICTIONARY
  5
F9
102
{ACAD_REACTORS
330
C
102
}
330
C
100
AcDbDictionary
281
     1
  0
DICTIONARY
  5
100
102
{ACAD_REACTORS
330
C
102
}
330
C
100
AcDbDictionary
281
     1
  3
Metric50
350
101
  0
DICTIONARY
  5
D
102
{ACAD_REACTORS
330
C
102
}
330
C
100
AcDbDictionary
281
     1
  0
DICTIONARY
  5
1A
102
{ACAD_REACTORS
330
C
102
}
330
C
100
AcDbDictionary
281
     1
  3
Layout1
350
1E
  3
Layout2
350
26
  3
Model
350
22
  0
DICTIONARY
  5
C7
102
{ACAD_REACTORS
330
C
102
}
330
C
100
AcDbDictionary
281
     1
  3
ByBlock
350
D0
  3
ByLayer
350
C8
  3
Global
350
D8
  0
DICTIONARY
  5
FC
102
{ACAD_REACTORS
330
C
102
}
330
C
100
AcDbDictionary
281
     1
  3
Standard
350
FD
  0
DICTIONARY
  5
17
102
{ACAD_REACTORS
330
C
102
}
330
C
100
AcDbDictionary
281
     1
  3
Standard
350
18
  0
DICTIONARY
  5
19
102
{ACAD_REACTORS
330
C
102
}
330
C
100
AcDbDictionary
281
     1
  0
ACDBDICTIONARYWDFLT
  5
E
102
{ACAD_REACTORS
330
C
102
}
330
C
100
AcDbDictionary
281
     1
  3
Normal
350
F
100
AcDbDictionaryWithDefault
340
F
  0
DICTIONARY
  5
47
102
{ACAD_REACTORS
330
C
102
}
330
C
100
AcDbDictionary
281
     1
  3
A0
350
48
  3
A1
350
49
  3
A2
350
4A
  3
A3
350
4B
  3
A4
350
4C
  3
A5
350
4D
  3
A6
350
4E
  3
A7
350
4F
  3
A8
350
50
  3
A9
350
51
  3
B0
350
52
  3
B1
350
53
  3
B2
350
54
  3
B3
350
55
  3
B4
350
56
  3
B5
350
57
  3
B6
350
58
  3
B7
350
59
  3
B8
350
5A
  3
B9
350
5B
  3
C0
350
5C
  3
C1
350
5D
  3
C2
350
5E
  3
C3
350
5F
  3
C4
350
60
  3
C5
350
61
  3
C6
350
62
  3
C7
350
63
  3
C8
350
64
  3
C9
350
65
  3
D0
350
66
  3
D1
350
67
  3
D2
350
68
  0
DICTIONARY
  5
FE
102
{ACAD_REACTORS
330
C
102
}
330
C
100
AcDbDictionary
281
     1
  3
Metric50
350
FF
  0
DICTIONARY
  5
FA
102
{ACAD_REACTORS
330
C
102
}
330
C
100
AcDbDictionary
281
     1
  3
Standard
350
FB
  0
DICTIONARY
  5
E0
102
{ACAD_REACTORS
330
C
102
}
330
C
100
AcDbDictionary
281
     1
  3
2dWireframe
350
E6
  3
Basic
350
E5
  3
Brighten
350
EC
  3
ColorChange
350
F0
  3
Conceptual
350
E9
  3
Dim
350
EB
  3
EdgeColorOff
350
F8
  3
Facepattern
350
EF
  3
Flat
350
E1
  3
FlatWithEdges
350
E2
  3
Gouraud
350
E3
  3
GouraudWithEdges
350
E4
  3
Hidden
350
E8
  3
JitterOff
350
F6
  3
Linepattern
350
EE
  3
OverhangOff
350
F7
  3
Realistic
350
EA
  3
Shaded
350
F5
  3
Shaded with edges
350
F4
  3
Shades of Gray
350
F1
  3
Sketchy
350
F2
  3
Thicken
350
ED
  3
Wireframe
350
E7
  3
X-Ray
350
F3
  0
XRECORD
  5
79D
102
{ACAD_REACTORS
330
C
102
}
330
C
100
AcDbXrecord
280
     1
 90
        1
330
FB
330
28C
330
292
330
2B6
330
2BF
330
2C3
330
398
330
399
330
39E
330
39F
330
474
330
475
330
47A
330
47B
330
72D
330
72E
330
72F
330
730
  0
DICTIONARY
  5
110
102
{ACAD_REACTORS
330
C
102
}
330
C
100
AcDbDictionary
281
     1
  3
CANNOSCALE
350
116
  3
CMLEADERSTYLE
350
112
  3
CTABLESTYLE
350
111
  3
CVIEWDETAILSTYLE
350
113
  3
CVIEWSECTIONSTYLE
350
114
  3
LAYEREVAL
350
118
  3
LAYERNOTIFY
350
119
  3
LIGHTINGUNITS
350
117
  3
MSLTSCALE
350
115
  0
DICTIONARY
  5
7A3
102
{ACAD_REACTORS
330
C
102
}
330
C
100
AcDbDictionary
281
     1
  3
AcDsRecords
350
7A5
  3
AcDsSchemas
350
7A4
1001
ACAD
1070
     2
  0
DICTIONARY
  5
280
102
{ACAD_REACTORS
330
27F
102
}
330
27F
100
AcDbDictionary
281
     1
  0
XRECORD
  5
275
102
{ACAD_REACTORS
330
274
102
}
330
274
100
AcDbXrecord
280
     1
290
     1
  0
XRECORD
  5
277
102
{ACAD_REACTORS
330
276
102
}
330
276
100
AcDbXrecord
280
     1
290
     1
  0
XRECORD
  5
279
102
{ACAD_REACTORS
330
278
102
}
330
278
100
AcDbXrecord
280
     1
290
     1
  0
XRECORD
  5
27B
102
{ACAD_REACTORS
330
27A
102
}
330
27A
100
AcDbXrecord
280
     1
290
     1
  0
ACDBDETAILVIEWSTYLE
  5
101
102
{ACAD_XDICTIONARY
360
7A8
102
}
102
{ACAD_REACTORS
330
100
102
}
330
100
100
AcDbModelDocViewStyle
 70
     0
  3
Metric50
290
     0
100
AcDbDetailViewStyle
 70
     0
 71
     0
 90
        3
 71
     1
340
11
 62
   256
 40
5.0
340
0
 62
   256
 40
5.0
300

 40
0.0
280
     1
 71
     2
340
16
 90
       25
 62
   256
 71
     3
340
11
 62
   256
 40
5.0
 90
        0
 40
15.0
 90
        1
300
%<\AcVar ViewDetailId>% (%<\AcVar ViewScale \f "%sn">%)
 71
     4
340
16
 90
       25
 62
   256
340
16
 90
       25
 62
   256
280
     0
  0
LAYOUT
  5
1E
102
{ACAD_REACTORS
330
1A
102
}
330
1A
100
AcDbPlotSettings
  1

  2
none_device
  4

  6

 40
0.0
 41
0.0
 42
0.0
 43
0.0
 44
0.0
 45
0.0
 46
0.0
 47
0.0
 48
0.0
 49
0.0
140
0.0
141
0.0
142
1.0
143
1.0
 70
   688
 72
     1
 73
     0
 74
     5
  7

 75
    16
147
1.0
 76
     0
 77
     2
 78
   300
148
0.0
149
0.0
100
AcDbLayout
  1
Layout1
 70
     1
 71
     1
 10
0.0
 20
0.0
 11
420.0
 21
297.0
 12
0.0
 22
0.0
 32
0.0
 14
1.000000000000000E+20
 24
1.000000000000000E+20
 34
1.000000000000000E+20
 15
-1.000000000000000E+20
 25
-1.000000000000000E+20
 35
-1.000000000000000E+20
146
0.0
 13
0.0
 23
0.0
 33
0.0
 16
1.0
 26
0.0
 36
0.0
 17
0.0
 27
1.0
 37
0.0
 76
     0
330
1B
  0
LAYOUT
  5
26
102
{ACAD_REACTORS
330
1A
102
}
330
1A
100
AcDbPlotSettings
  1

  2
none_device
  4

  6

 40
0.0
 41
0.0
 42
0.0
 43
0.0
 44
0.0
 45
0.0
 46
0.0
 47
0.0
 48
0.0
 49
0.0
140
0.0
141
0.0
142
1.0
143
1.0
 70
   688
 72
     1
 73
     0
 74
     5
  7

 75
    16
147
1.0
 76
     0
 77
     2
 78
   300
148
0.0
149
0.0
100
AcDbLayout
  1
Layout2
 70
     1
 71
     2
 10
0.0
 20
0.0
 11
0.0
 21
0.0
 12
0.0
 22
0.0
 32
0.0
 14
0.0
 24
0.0
 34
0.0
 15
0.0
 25
0.0
 35
0.0
146
0.0
 13
0.0
 23
0.0
 33
0.0
 16
1.0
 26
0.0
 36
0.0
 17
0.0
 27
1.0
 37
0.0
 76
     0
330
23
  0
LAYOUT
  5
22
102
{ACAD_REACTORS
330
1A
102
}
330
1A
100
AcDbPlotSettings
  1

  2
none_device
  4
Letter_(8.50_x_11.00_Inches)
  6

 40
6.349999999999999
 41
6.349999999999999
 42
6.350005079999999
 43
6.350005079999999
 44
215.9
 45
279.4
 46
0.0
 47
0.0
 48
0.0
 49
0.0
140
0.0
141
0.0
142
1.0
143
1.0
 70
  1712
 72
     1
 73
     0
 74
     0
  7

 75
     0
147
1.0
 76
     0
 77
     2
 78
   300
148
0.0
149
0.0
100
AcDbLayout
  1
Model
 70
     1
 71
     0
 10
0.0
 20
0.0
 11
420.0
 21
297.0
 12
0.0
 22
0.0
 32
0.0
 14
0.0
 24
0.0
 34
0.0
 15
420.0
 25
297.0
 35
0.0
146
0.0
 13
0.0
 23
0.0
 33
0.0
 16
1.0
 26
0.0
 36
0.0
 17
0.0
 27
1.0
 37
0.0
 76
     0
330
1F
331
29
  0
MATERIAL
  5
D0
102
{ACAD_XDICTIONARY
360
D1
102
}
102
{ACAD_REACTORS
330
C7
102
}
330
C7
100
AcDbMaterial
  1
ByBlock
 72
     0
 43
0.0008202099737533
 43
0.0
 43
0.0
 43
0.0
 43
0.0
 43
0.0008202099737533
 43
0.0
 43
0.0
 43
0.0
 43
0.0
 43
1.0
 43
0.0
 43
0.0
 43
0.0
 43
0.0
 43
1.0
 77
     0
 47
0.0008202099737533
 47
0.0
 47
0.0
 47
0.0
 47
0.0
 47
0.0008202099737533
 47
0.0
 47
0.0
 47
0.0
 47
0.0
 47
1.0
 47
0.0
 47
0.0
 47
0.0
 47
0.0
 47
1.0
171
     0
 49
0.0008202099737533
 49
0.0
 49
0.0
 49
0.0
 49
0.0
 49
0.0008202099737533
 49
0.0
 49
0.0
 49
0.0
 49
0.0
 49
1.0
 49
0.0
 49
0.0
 49
0.0
 49
0.0
 49
1.0
175
     0
142
0.0008202099737533
142
0.0
142
0.0
142
0.0
142
0.0
142
0.0008202099737533
142
0.0
142
0.0
142
0.0
142
0.0
142
1.0
142
0.0
142
0.0
142
0.0
142
0.0
142
1.0
179
     0
144
0.0008202099737533
144
0.0
144
0.0
144
0.0
144
0.0
144
0.0008202099737533
144
0.0
144
0.0
144
0.0
144
0.0
144
1.0
144
0.0
144
0.0
144
0.0
144
0.0
144
1.0
147
0.0008202099737533
147
0.0
147
0.0
147
0.0
147
0.0
147
0.0008202099737533
147
0.0
147
0.0
147
0.0
147
0.0
147
1.0
147
0.0
147
0.0
147
0.0
147
0.0
147
1.0
  0
MATERIAL
  5
C8
102
{ACAD_XDICTIONARY
360
C9
102
}
102
{ACAD_REACTORS
330
C7
102
}
330
C7
100
AcDbMaterial
  1
ByLayer
 72
     0
 43
0.0008202099737533
 43
0.0
 43
0.0
 43
0.0
 43
0.0
 43
0.0008202099737533
 43
0.0
 43
0.0
 43
0.0
 43
0.0
 43
1.0
 43
0.0
 43
0.0
 43
0.0
 43
0.0
 43
1.0
 77
     0
 47
0.0008202099737533
 47
0.0
 47
0.0
 47
0.0
 47
0.0
 47
0.0008202099737533
 47
0.0
 47
0.0
 47
0.0
 47
0.0
 47
1.0
 47
0.0
 47
0.0
 47
0.0
 47
0.0
 47
1.0
171
     0
 49
0.0008202099737533
 49
0.0
 49
0.0
 49
0.0
 49
0.0
 49
0.0008202099737533
 49
0.0
 49
0.0
 49
0.0
 49
0.0
 49
1.0
 49
0.0
 49
0.0
 49
0.0
 49
0.0
 49
1.0
175
     0
142
0.0008202099737533
142
0.0
142
0.0
142
0.0
142
0.0
142
0.0008202099737533
142
0.0
142
0.0
142
0.0
142
0.0
142
1.0
142
0.0
142
0.0
142
0.0
142
0.0
142
1.0
179
     0
144
0.0008202099737533
144
0.0
144
0.0
144
0.0
144
0.0
144
0.0008202099737533
144
0.0
144
0.0
144
0.0
144
0.0
144
1.0
144
0.0
144
0.0
144
0.0
144
0.0
144
1.0
147
0.0008202099737533
147
0.0
147
0.0
147
0.0
147
0.0
147
0.0008202099737533
147
0.0
147
0.0
147
0.0
147
0.0
147
1.0
147
0.0
147
0.0
147
0.0
147
0.0
147
1.0
  0
MATERIAL
  5
D8
102
{ACAD_XDICTIONARY
360
D9
102
}
102
{ACAD_REACTORS
330
C7
102
}
330
C7
100
AcDbMaterial
  1
Global
 72
     0
 43
0.0008202099737533
 43
0.0
 43
0.0
 43
0.0
 43
0.0
 43
0.0008202099737533
 43
0.0
 43
0.0
 43
0.0
 43
0.0
 43
1.0
 43
0.0
 43
0.0
 43
0.0
 43
0.0
 43
1.0
 77
     0
 47
0.0008202099737533
 47
0.0
 47
0.0
 47
0.0
 47
0.0
 47
0.0008202099737533
 47
0.0
 47
0.0
 47
0.0
 47
0.0
 47
1.0
 47
0.0
 47
0.0
 47
0.0
 47
0.0
 47
1.0
171
     0
 49
0.0008202099737533
 49
0.0
 49
0.0
 49
0.0
 49
0.0
 49
0.0008202099737533
 49
0.0
 49
0.0
 49
0.0
 49
0.0
 49
1.0
 49
0.0
 49
0.0
 49
0.0
 49
0.0
 49
1.0
175
     0
142
0.0008202099737533
142
0.0
142
0.0
142
0.0
142
0.0
142
0.0008202099737533
142
0.0
142
0.0
142
0.0
142
0.0
142
1.0
142
0.0
142
0.0
142
0.0
142
0.0
142
1.0
179
     0
144
0.0008202099737533
144
0.0
144
0.0
144
0.0
144
0.0
144
0.0008202099737533
144
0.0
144
0.0
144
0.0
144
0.0
144
1.0
144
0.0
144
0.0
144
0.0
144
0.0
144
1.0
147
0.0008202099737533
147
0.0
147
0.0
147
0.0
147
0.0
147
0.0008202099737533
147
0.0
147
0.0
147
0.0
147
0.0
147
1.0
147
0.0
147
0.0
147
0.0
147
0.0
147
1.0
  0
MLEADERSTYLE
  5
FD
102
{ACAD_REACTORS
330
FC
102
}
330
FC
100
AcDbMLeaderStyle
179
     2
170
     2
171
     1
172
     0
 90
        2
 40
0.0
 41
0.0
173
     1
 91
-1056964608
340
14
 92
       -2
290
     1
 42
2.0
291
     1
 43
0.36
  3
Standard
 44
4.0
300

342
11
174
     1
178
     6
175
     1
176
     0
 93
-1056964608
 45
4.0
292
     0
297
     0
 46
4.0
 94
-1056964608
 47
1.0
 49
1.0
140
1.0
293
     1
141
0.0
294
     1
177
     0
142
1.0
295
     0
296
     0
143
0.125
271
     0
272
     9
273
     9
298
     1
  0
MLINESTYLE
  5
18
102
{ACAD_REACTORS
330
17
102
}
330
17
100
AcDbMlineStyle
  2
STANDARD
 70
     0
  3

 62
   256
 51
90.0
 52
90.0
 71
     2
 49
0.5
 62
   256
  6
BYLAYER
 49
-0.5
 62
   256
  6
BYLAYER
  0
ACDBPLACEHOLDER
  5
F
102
{ACAD_REACTORS
330
E
102
}
330
E
  0
SCALE
  5
48
102
{ACAD_REACTORS
330
47
102
}
330
47
100
AcDbScale
 70
     0
300
1:1
140
1.0
141
1.0
290
     1
  0
SCALE
  5
49
102
{ACAD_REACTORS
330
47
102
}
330
47
100
AcDbScale
 70
     0
300
1:2
140
1.0
141
2.0
290
     0
  0
SCALE
  5
4A
102
{ACAD_REACTORS
330
47
102
}
330
47
100
AcDbScale
 70
     0
300
1:4
140
1.0
141
4.0
290
     0
  0
SCALE
  5
4B
102
{ACAD_REACTORS
330
47
102
}
330
47
100
AcDbScale
 70
     0
300
1:5
140
1.0
141
5.0
290
     0
  0
SCALE
  5
4C
102
{ACAD_REACTORS
330
47
102
}
330
47
100
AcDbScale
 70
     0
300
1:8
140
1.0
141
8.0
290
     0
  0
SCALE
  5
4D
102
{ACAD_REACTORS
330
47
102
}
330
47
100
AcDbScale
 70
     0
300
1:10
140
1.0
141
10.0
290
     0
  0
SCALE
  5
4E
102
{ACAD_REACTORS
330
47
102
}
330
47
100
AcDbScale
 70
     0
300
1:16
140
1.0
141
16.0
290
     0
  0
SCALE
  5
4F
102
{ACAD_REACTORS
330
47
102
}
330
47
100
AcDbScale
 70
     0
300
1:20
140
1.0
141
20.0
290
     0
  0
SCALE
  5
50
102
{ACAD_REACTORS
330
47
102
}
330
47
100
AcDbScale
 70
     0
300
1:30
140
1.0
141
30.0
290
     0
  0
SCALE
  5
51
102
{ACAD_REACTORS
330
47
102
}
330
47
100
AcDbScale
 70
     0
300
1:40
140
1.0
141
40.0
290
     0
  0
SCALE
  5
52
102
{ACAD_REACTORS
330
47
102
}
330
47
100
AcDbScale
 70
     0
300
1:50
140
1.0
141
50.0
290
     0
  0
SCALE
  5
53
102
{ACAD_REACTORS
330
47
102
}
330
47
100
AcDbScale
 70
     0
300
1:100
140
1.0
141
100.0
290
     0
  0
SCALE
  5
54
102
{ACAD_REACTORS
330
47
102
}
330
47
100
AcDbScale
 70
     0
300
2:1
140
2.0
141
1.0
290
     0
  0
SCALE
  5
55
102
{ACAD_REACTORS
330
47
102
}
330
47
100
AcDbScale
 70
     0
300
4:1
140
4.0
141
1.0
290
     0
  0
SCALE
  5
56
102
{ACAD_REACTORS
330
47
102
}
330
47
100
AcDbScale
 70
     0
300
8:1
140
8.0
141
1.0
290
     0
  0
SCALE
  5
57
102
{ACAD_REACTORS
330
47
102
}
330
47
100
AcDbScale
 70
     0
300
10:1
140
10.0
141
1.0
290
     0
  0
SCALE
  5
58
102
{ACAD_REACTORS
330
47
102
}
330
47
100
AcDbScale
 70
     0
300
100:1
140
100.0
141
1.0
290
     0
  0
SCALE
  5
59
102
{ACAD_REACTORS
330
47
102
}
330
47
100
AcDbScale
 70
     0
300
1/128" = 1'-0"
140
0.0078125
141
12.0
290
     0
  0
SCALE
  5
5A
102
{ACAD_REACTORS
330
47
102
}
330
47
100
AcDbScale
 70
     0
300
1/64" = 1'-0"
140
0.015625
141
12.0
290
     0
  0
SCALE
  5
5B
102
{ACAD_REACTORS
330
47
102
}
330
47
100
AcDbScale
 70
     0
300
1/32" = 1'-0"
140
0.03125
141
12.0
290
     0
  0
SCALE
  5
5C
102
{ACAD_REACTORS
330
47
102
}
330
47
100
AcDbScale
 70
     0
300
1/16" = 1'-0"
140
0.0625
141
12.0
290
     0
  0
SCALE
  5
5D
102
{ACAD_REACTORS
330
47
102
}
330
47
100
AcDbScale
 70
     0
300
3/32" = 1'-0"
140
0.09375
141
12.0
290
     0
  0
SCALE
  5
5E
102
{ACAD_REACTORS
330
47
102
}
330
47
100
AcDbScale
 70
     0
300
1/8" = 1'-0"
140
0.125
141
12.0
290
     0
  0
SCALE
  5
5F
102
{ACAD_REACTORS
330
47
102
}
330
47
100
AcDbScale
 70
     0
300
3/16" = 1'-0"
140
0.1875
141
12.0
290
     0
  0
SCALE
  5
60
102
{ACAD_REACTORS
330
47
102
}
330
47
100
AcDbScale
 70
     0
300
1/4" = 1'-0"
140
0.25
141
12.0
290
     0
  0
SCALE
  5
61
102
{ACAD_REACTORS
330
47
102
}
330
47
100
AcDbScale
 70
     0
300
3/8" = 1'-0"
140
0.375
141
12.0
290
     0
  0
SCALE
  5
62
102
{ACAD_REACTORS
330
47
102
}
330
47
100
AcDbScale
 70
     0
300
1/2" = 1'-0"
140
0.5
141
12.0
290
     0
  0
SCALE
  5
63
102
{ACAD_REACTORS
330
47
102
}
330
47
100
AcDbScale
 70
     0
300
3/4" = 1'-0"
140
0.75
141
12.0
290
     0
  0
SCALE
  5
64
102
{ACAD_REACTORS
330
47
102
}
330
47
100
AcDbScale
 70
     0
300
1" = 1'-0"
140
1.0
141
12.0
290
     0
  0
SCALE
  5
65
102
{ACAD_REACTORS
330
47
102
}
330
47
100
AcDbScale
 70
     0
300
1-1/2" = 1'-0"
140
1.5
141
12.0
290
     0
  0
SCALE
  5
66
102
{ACAD_REACTORS
330
47
102
}
330
47
100
AcDbScale
 70
     0
300
3" = 1'-0"
140
3.0
141
12.0
290
     0
  0
SCALE
  5
67
102
{ACAD_REACTORS
330
47
102
}
330
47
100
AcDbScale
 70
     0
300
6" = 1'-0"
140
6.0
141
12.0
290
     0
  0
SCALE
  5
68
102
{ACAD_REACTORS
330
47
102
}
330
47
100
AcDbScale
 70
     0
300
1'-0" = 1'-0"
140
12.0
141
12.0
290
     0
  0
ACDBSECTIONVIEWSTYLE
  5
FF
102
{ACAD_XDICTIONARY
360
7A6
102
}
102
{ACAD_REACTORS
330
FE
102
}
330
FE
100
AcDbModelDocViewStyle
 70
     0
  3
Metric50
290
     0
100
AcDbSectionViewStyle
 70
     0
 71
     0
 90
      102
 71
     1
340
11
 62
   256
 40
5.0
340
0
340
0
 62
   256
 40
5.0
300
I, O, Q, S, X, Z
 40
10.0
 90
        0
 40
2.5
 90
        0
 71
     2
340
16
 90
       25
 62
   256
340
16
 90
       50
 62
   256
 40
5.0
 40
2.5
 40
5.0
 71
     3
340
11
 62
   256
 40
5.0
 90
        0
 40
15.0
 90
        1
300
%<\AcVar ViewSectionStartId>%-%<\AcVar ViewSectionEndId>% (%<\AcVar ViewScale \f "%sn">%)
 71
     4
 62
   256
 62
   257
300
ANSI31
 40
1.0
 90
        0
290
     0
290
     0
 90
        6
 40
0.0
 40
1.570796326794896
 40
0.2617993877991494
 40
1.308996938995747
 40
-0.2617993877991494
 40
1.832595714594046
  0
TABLESTYLE
  5
FB
102
{ACAD_XDICTIONARY
360
79B
102
}
102
{ACAD_REACTORS
330
FA
102
}
330
FA
100
AcDbTableStyle
280
     0
  3
Standard
 70
     0
 71
     0
 40
1.5
 41
1.5
280
     0
281
     0
  7
Standard
140
4.5
170
     2
 62
     0
 63
     7
283
     0
 90
      512
 91
        0
  1

274
    -2
284
     1
 64
     0
275
    -2
285
     1
 65
     0
276
    -2
286
     1
 66
     0
277
    -2
287
     1
 67
     0
278
    -2
288
     1
 68
     0
279
    -2
289
     1
 69
     0
  7
Standard
140
6.0
170
     5
 62
     0
 63
     7
283
     0
 90
      512
 91
        0
  1

274
    -2
284
     1
 64
     0
275
    -2
285
     1
 65
     0
276
    -2
286
     1
 66
     0
277
    -2
287
     1
 67
     0
278
    -2
288
     1
 68
     0
279
    -2
289
     1
 69
     0
  7
Standard
140
4.5
170
     5
 62
     0
 63
     7
283
     0
 90
      512
 91
        0
  1

274
    -2
284
     1
 64
     0
275
    -2
285
     1
 65
     0
276
    -2
286
     1
 66
     0
277
    -2
287
     1
 67
     0
278
    -2
288
     1
 68
     0
279
    -2
289
     1
 69
     0
  0
VISUALSTYLE
  5
E6
102
{ACAD_REACTORS
330
E0
102
}
330
E0
100
AcDbVisualStyle
  2
2dWireframe
 70
     4
177
     3
291
     0
 70
    58
 90
        0
176
     1
 90
        2
176
     1
 90
        0
176
     1
 90
        0
176
     1
 40
0.6
176
     1
 40
30.0
176
     1
 62
     7
420
 16777215
176
     1
 90
        1
176
     1
 90
        4
176
     1
 62
     7
176
     1
 62
   257
176
     1
 90
        1
176
     1
 90
        1
176
     1
 40
1.0
176
     1
 90
        0
176
     1
 62
   257
176
     1
 40
1.0
176
     1
 90
        1
176
     1
 90
        6
176
     1
 90
        2
176
     1
 62
     7
176
     1
 90
        5
176
     1
 90
        0
176
     1
 90
        0
176
     1
290
     0
176
     1
 90
        1
176
     1
 40
0.0
176
     1
 90
        0
176
     1
290
     1
176
     1
290
     1
176
     1
290
     0
176
     1
290
     0
176
     1
290
     0
176
     1
290
     0
176
     1
290
     0
176
     1
290
     0
176
     1
290
     0
176
     1
 90
       50
176
     1
 40
0.0
176
     1
 40
1.0
176
     1
 90
        0
176
     1
 62
    18
420
        0
176
     1
 90
       50
176
     1
 90
        3
176
     1
 62
     5
420
      255
176
     1
290
     0
176
     1
 90
       50
176
     1
 90
       50
176
     1
 90
       50
176
     1
290
     0
176
     1
 90
       50
176
     1
 62
   256
176
     0
 40
1.0
176
     0
 90
        2
176
     1
  1
strokes_ogs.tif
176
     1
290
     0
176
     1
 40
1.0
176
     1
 40
1.0
176
     1
1001
ACAD
1000
AcDbSavedByObjectVersion
1070
     0
  0
VISUALSTYLE
  5
E5
102
{ACAD_REACTORS
330
E0
102
}
330
E0
100
AcDbVisualStyle
  2
Basic
 70
     7
177
     3
291
     1
 70
    58
 90
        1
176
     1
 90
        0
176
     1
 90
        1
176
     1
 90
        0
176
     1
 40
0.6
176
     1
 40
30.0
176
     1
 62
     7
420
 16777215
176
     1
 90
        0
176
     1
 90
        4
176
     1
 62
     7
176
     1
 62
   257
176
     1
 90
        1
176
     1
 90
        1
176
     1
 40
1.0
176
     1
 90
        8
176
     1
 62
     7
176
     1
 40
1.0
176
     1
 90
        1
176
     1
 90
        6
176
     1
 90
        2
176
     1
 62
     7
176
     1
 90
        5
176
     1
 90
        0
176
     1
 90
        0
176
     1
290
     0
176
     1
 90
        1
176
     1
 40
0.0
176
     1
 90
        0
176
     1
290
     0
176
     1
290
     1
176
     1
290
     1
176
     1
290
     0
176
     1
290
     0
176
     1
290
     0
176
     1
290
     0
176
     1
290
     0
176
     1
290
     0
176
     1
 90
       50
176
     1
 40
0.0
176
     1
 40
1.0
176
     1
 90
        0
176
     1
 62
    18
420
        0
176
     1
 90
       50
176
     1
 90
        3
176
     1
 62
     5
420
      255
176
     1
290
     0
176
     1
 90
       50
176
     1
 90
       50
176
     1
 90
       50
176
     1
290
     0
176
     1
 90
       50
176
     1
 62
   256
176
     0
 40
1.0
176
     0
 90
        2
176
     1
  1
strokes_ogs.tif
176
     1
290
     0
176
     1
 40
1.0
176
     1
 40
1.0
176
     1
1001
ACAD
1000
AcDbSavedByObjectVersion
1070
     0
  0
VISUALSTYLE
  5
EC
102
{ACAD_REACTORS
330
E0
102
}
330
E0
100
AcDbVisualStyle
  2
Brighten
 70
    12
177
     3
291
     1
 70
    58
 90
        2
176
     1
 90
        2
176
     1
 90
        0
176
     1
 90
        0
176
     1
 40
0.6
176
     1
 40
30.0
176
     1
 62
     7
420
 16777215
176
     1
 90
        1
176
     1
 90
        4
176
     1
 62
     7
176
     1
 62
   257
176
     1
 90
        1
176
     1
 90
        1
176
     1
 40
1.0
176
     1
 90
        8
176
     1
 62
     7
176
     1
 40
1.0
176
     1
 90
        1
176
     1
 90
        6
176
     1
 90
        2
176
     1
 62
     7
176
     1
 90
        5
176
     1
 90
        0
176
     1
 90
        0
176
     1
290
     0
176
     1
 90
        1
176
     1
 40
50.0
176
     1
 90
        0
176
     1
290
     0
176
     1
290
     1
176
     1
290
     1
176
     1
290
     0
176
     1
290
     0
176
     1
290
     0
176
     1
290
     0
176
     1
290
     0
176
     1
290
     0
176
     1
 90
       50
176
     1
 40
0.0
176
     1
 40
1.0
176
     1
 90
        0
176
     1
 62
    18
420
        0
176
     1
 90
       50
176
     1
 90
        3
176
     1
 62
     5
420
      255
176
     1
290
     0
176
     1
 90
       50
176
     1
 90
       50
176
     1
 90
       50
176
     1
290
     0
176
     1
 90
       50
176
     1
 62
   256
176
     0
 40
1.0
176
     0
 90
        2
176
     1
  1
strokes_ogs.tif
176
     1
290
     0
176
     1
 40
1.0
176
     1
 40
1.0
176
     1
1001
ACAD
1000
AcDbSavedByObjectVersion
1070
     0
  0
VISUALSTYLE
  5
F0
102
{ACAD_REACTORS
330
E0
102
}
330
E0
100
AcDbVisualStyle
  2
ColorChange
 70
    16
177
     3
291
     1
 70
    58
 90
        2
176
     1
 90
        2
176
     1
 90
        3
176
     1
 90
        0
176
     1
 40
0.6
176
     1
 40
30.0
176
     1
 62
     8
420
  8421504
176
     1
 90
        1
176
     1
 90
        4
176
     1
 62
     7
176
     1
 62
   257
176
     1
 90
        1
176
     1
 90
        1
176
     1
 40
1.0
176
     1
 90
        8
176
     1
 62
     8
420
  8421504
176
     1
 40
1.0
176
     1
 90
        1
176
     1
 90
        6
176
     1
 90
        2
176
     1
 62
     7
176
     1
 90
        5
176
     1
 90
        0
176
     1
 90
        0
176
     1
290
     0
176
     1
 90
        1
176
     1
 40
0.0
176
     1
 90
        0
176
     1
290
     0
176
     1
290
     1
176
     1
290
     1
176
     1
290
     0
176
     1
290
     0
176
     1
290
     0
176
     1
290
     0
176
     1
290
     0
176
     1
290
     0
176
     1
 90
       50
176
     1
 40
0.0
176
     1
 40
1.0
176
     1
 90
        0
176
     1
 62
    18
420
        0
176
     1
 90
       50
176
     1
 90
        3
176
     1
 62
     5
420
      255
176
     1
290
     0
176
     1
 90
       50
176
     1
 90
       50
176
     1
 90
       50
176
     1
290
     0
176
     1
 90
       50
176
     1
 62
   256
176
     0
 40
1.0
176
     0
 90
        2
176
     1
  1
strokes_ogs.tif
176
     1
290
     0
176
     1
 40
1.0
176
     1
 40
1.0
176
     1
1001
ACAD
1000
AcDbSavedByObjectVersion
1070
     0
  0
VISUALSTYLE
  5
E9
102
{ACAD_REACTORS
330
E0
102
}
330
E0
100
AcDbVisualStyle
  2
Conceptual
 70
     9
177
     3
291
     0
 70
    58
 90
        3
176
     1
 90
        2
176
     1
 90
        0
176
     1
 90
        0
176
     1
 40
0.6
176
     1
 40
30.0
176
     1
 62
     7
420
 16777215
176
     1
 90
        2
176
     1
 90
        2
176
     1
 62
     7
176
     1
 62
   257
176
     1
 90
        1
176
     1
 90
        1
176
     1
 40
179.0
176
     1
 90
        8
176
     1
 62
     7
176
     1
 40
1.0
176
     1
 90
        1
176
     1
 90
        6
176
     1
 90
        2
176
     1
 62
     7
176
     1
 90
        3
176
     1
 90
        0
176
     1
 90
        0
176
     1
290
     0
176
     1
 90
        1
176
     1
 40
0.0
176
     1
 90
        0
176
     1
290
     0
176
     1
290
     1
176
     1
290
     1
176
     1
290
     0
176
     1
290
     0
176
     1
290
     0
176
     1
290
     0
176
     1
290
     0
176
     1
290
     0
176
     1
 90
       50
176
     1
 40
0.0
176
     1
 40
1.0
176
     1
 90
        0
176
     1
 62
    18
420
        0
176
     1
 90
       50
176
     1
 90
        3
176
     1
 62
     5
420
      255
176
     1
290
     0
176
     1
 90
       50
176
     1
 90
       50
176
     1
 90
       50
176
     1
290
     0
176
     1
 90
       50
176
     1
 62
   256
176
     0
 40
1.0
176
     0
 90
        2
176
     1
  1
strokes_ogs.tif
176
     1
290
     0
176
     1
 40
1.0
176
     1
 40
1.0
176
     1
1001
ACAD
1000
AcDbSavedByObjectVersion
1070
     0
  0
VISUALSTYLE
  5
EB
102
{ACAD_REACTORS
330
E0
102
}
330
E0
100
AcDbVisualStyle
  2
Dim
 70
    11
177
     3
291
     1
 70
    58
 90
        2
176
     1
 90
        2
176
     1
 90
        0
176
     1
 90
        0
176
     1
 40
0.6
176
     1
 40
30.0
176
     1
 62
     7
420
 16777215
176
     1
 90
        1
176
     1
 90
        4
176
     1
 62
     7
176
     1
 62
   257
176
     1
 90
        1
176
     1
 90
        1
176
     1
 40
1.0
176
     1
 90
        8
176
     1
 62
     7
176
     1
 40
1.0
176
     1
 90
        1
176
     1
 90
        6
176
     1
 90
        2
176
     1
 62
     7
176
     1
 90
        5
176
     1
 90
        0
176
     1
 90
        0
176
     1
290
     0
176
     1
 90
        1
176
     1
 40
-50.0
176
     1
 90
        0
176
     1
290
     0
176
     1
290
     1
176
     1
290
     1
176
     1
290
     0
176
     1
290
     0
176
     1
290
     0
176
     1
290
     0
176
     1
290
     0
176
     1
290
     0
176
     1
 90
       50
176
     1
 40
0.0
176
     1
 40
1.0
176
     1
 90
        0
176
     1
 62
    18
420
        0
176
     1
 90
       50
176
     1
 90
        3
176
     1
 62
     5
420
      255
176
     1
290
     0
176
     1
 90
       50
176
     1
 90
       50
176
     1
 90
       50
176
     1
290
     0
176
     1
 90
       50
176
     1
 62
   256
176
     0
 40
1.0
176
     0
 90
        2
176
     1
  1
strokes_ogs.tif
176
     1
290
     0
176
     1
 40
1.0
176
     1
 40
1.0
176
     1
1001
ACAD
1000
AcDbSavedByObjectVersion
1070
     0
  0
VISUALSTYLE
  5
F8
102
{ACAD_REACTORS
330
E0
102
}
330
E0
100
AcDbVisualStyle
  2
EdgeColorOff
 70
    22
177
     3
291
     1
 70
    58
 90
        2
176
     0
 90
        2
176
     0
 90
        0
176
     0
 90
        0
176
     0
 40
0.6
176
     0
 40
30.0
176
     0
 62
     7
420
 16777215
176
     0
 90
        1
176
     0
 90
        4
176
     0
 62
     7
176
     0
 62
   257
176
     0
 90
        1
176
     0
 90
        1
176
     0
 40
1.0
176
     0
 90
        8
176
     2
 62
     7
176
     0
 40
1.0
176
     0
 90
        1
176
     0
 90
        6
176
     0
 90
        2
176
     0
 62
     7
176
     0
 90
        5
176
     0
 90
        0
176
     0
 90
        0
176
     0
290
     0
176
     0
 90
        1
176
     0
 40
0.0
176
     0
 90
        0
176
     0
290
     0
176
     0
290
     1
176
     0
290
     1
176
     0
290
     0
176
     0
290
     0
176
     0
290
     0
176
     0
290
     0
176
     0
290
     0
176
     0
290
     0
176
     0
 90
       50
176
     0
 40
0.0
176
     0
 40
1.0
176
     0
 90
        0
176
     0
 62
    18
420
        0
176
     0
 90
       50
176
     0
 90
        3
176
     0
 62
     5
420
      255
176
     0
290
     0
176
     0
 90
       50
176
     0
 90
       50
176
     0
 90
       50
176
     0
290
     0
176
     0
 90
       50
176
     0
 62
   256
176
     0
 40
1.0
176
     0
 90
        2
176
     0
  1
strokes_ogs.tif
176
     0
290
     0
176
     0
 40
1.0
176
     0
 40
1.0
176
     0
1001
ACAD
1000
AcDbSavedByObjectVersion
1070
     0
  0
VISUALSTYLE
  5
EF
102
{ACAD_REACTORS
330
E0
102
}
330
E0
100
AcDbVisualStyle
  2
Facepattern
 70
    15
177
     3
291
     1
 70
    58
 90
        2
176
     1
 90
        2
176
     1
 90
        0
176
     1
 90
        0
176
     1
 40
0.6
176
     1
 40
30.0
176
     1
 62
     7
420
 16777215
176
     1
 90
        1
176
     1
 90
        4
176
     1
 62
     7
176
     1
 62
   257
176
     1
 90
        1
176
     1
 90
        1
176
     1
 40
1.0
176
     1
 90
        8
176
     1
 62
     7
176
     1
 40
1.0
176
     1
 90
        1
176
     1
 90
        6
176
     1
 90
        2
176
     1
 62
     7
176
     1
 90
        5
176
     1
 90
        0
176
     1
 90
        0
176
     1
290
     0
176
     1
 90
        1
176
     1
 40
0.0
176
     1
 90
        0
176
     1
290
     0
176
     1
290
     1
176
     1
290
     1
176
     1
290
     0
176
     1
290
     0
176
     1
290
     0
176
     1
290
     0
176
     1
290
     0
176
     1
290
     0
176
     1
 90
       50
176
     1
 40
0.0
176
     1
 40
1.0
176
     1
 90
        0
176
     1
 62
    18
420
        0
176
     1
 90
       50
176
     1
 90
        3
176
     1
 62
     5
420
      255
176
     1
290
     0
176
     1
 90
       50
176
     1
 90
       50
176
     1
 90
       50
176
     1
290
     0
176
     1
 90
       50
176
     1
 62
   256
176
     0
 40
1.0
176
     0
 90
        2
176
     1
  1
strokes_ogs.tif
176
     1
290
     0
176
     1
 40
1.0
176
     1
 40
1.0
176
     1
1001
ACAD
1000
AcDbSavedByObjectVersion
1070
     0
  0
VISUALSTYLE
  5
E1
102
{ACAD_REACTORS
330
E0
102
}
330
E0
100
AcDbVisualStyle
  2
Flat
 70
     0
177
     3
291
     1
 70
    58
 90
        2
176
     1
 90
        1
176
     1
 90
        1
176
     1
 90
        2
176
     1
 40
0.6
176
     1
 40
30.0
176
     1
 62
     7
420
 16777215
176
     1
 90
        0
176
     1
 90
        0
176
     1
 62
     7
176
     1
 62
   257
176
     1
 90
        1
176
     1
 90
        1
176
     1
 40
1.0
176
     1
 90
        8
176
     1
 62
     7
176
     1
 40
1.0
176
     1
 90
        1
176
     1
 90
        6
176
     1
 90
        2
176
     1
 62
     7
176
     1
 90
        5
176
     1
 90
        0
176
     1
 90
        0
176
     1
290
     0
176
     1
 90
       13
176
     1
 40
0.0
176
     1
 90
        0
176
     1
290
     0
176
     1
290
     1
176
     1
290
     1
176
     1
290
     0
176
     1
290
     0
176
     1
290
     0
176
     1
290
     0
176
     1
290
     0
176
     1
290
     0
176
     1
 90
       50
176
     1
 40
0.0
176
     1
 40
1.0
176
     1
 90
        0
176
     1
 62
    18
420
        0
176
     1
 90
       50
176
     1
 90
        3
176
     1
 62
     5
420
      255
176
     1
290
     0
176
     1
 90
       50
176
     1
 90
       50
176
     1
 90
       50
176
     1
290
     0
176
     1
 90
       50
176
     1
 62
   256
176
     0
 40
1.0
176
     0
 90
        2
176
     1
  1
strokes_ogs.tif
176
     1
290
     0
176
     1
 40
1.0
176
     1
 40
1.0
176
     1
1001
ACAD
1000
AcDbSavedByObjectVersion
1070
     0
  0
VISUALSTYLE
  5
E2
102
{ACAD_REACTORS
330
E0
102
}
330
E0
100
AcDbVisualStyle
  2
FlatWithEdges
 70
     1
177
     3
291
     1
 70
    58
 90
        2
176
     1
 90
        1
176
     1
 90
        1
176
     1
 90
        2
176
     1
 40
0.6
176
     1
 40
30.0
176
     1
 62
     7
420
 16777215
176
     1
 90
        1
176
     1
 90
        0
176
     1
 62
     7
176
     1
 62
   257
176
     1
 90
        1
176
     1
 90
        1
176
     1
 40
1.0
176
     1
 90
        0
176
     1
 62
   257
176
     1
 40
1.0
176
     1
 90
        1
176
     1
 90
        6
176
     1
 90
        2
176
     1
 62
     7
176
     1
 90
        5
176
     1
 90
        0
176
     1
 90
        0
176
     1
290
     0
176
     1
 90
       13
176
     1
 40
0.0
176
     1
 90
        0
176
     1
290
     0
176
     1
290
     1
176
     1
290
     1
176
     1
290
     0
176
     1
290
     0
176
     1
290
     0
176
     1
290
     0
176
     1
290
     0
176
     1
290
     0
176
     1
 90
       50
176
     1
 40
0.0
176
     1
 40
1.0
176
     1
 90
        0
176
     1
 62
    18
420
        0
176
     1
 90
       50
176
     1
 90
        3
176
     1
 62
     5
420
      255
176
     1
290
     0
176
     1
 90
       50
176
     1
 90
       50
176
     1
 90
       50
176
     1
290
     0
176
     1
 90
       50
176
     1
 62
   256
176
     0
 40
1.0
176
     0
 90
        2
176
     1
  1
strokes_ogs.tif
176
     1
290
     0
176
     1
 40
1.0
176
     1
 40
1.0
176
     1
1001
ACAD
1000
AcDbSavedByObjectVersion
1070
     0
  0
VISUALSTYLE
  5
E3
102
{ACAD_REACTORS
330
E0
102
}
330
E0
100
AcDbVisualStyle
  2
Gouraud
 70
     2
177
     3
291
     1
 70
    58
 90
        2
176
     1
 90
        2
176
     1
 90
        1
176
     1
 90
        2
176
     1
 40
0.6
176
     1
 40
30.0
176
     1
 62
     7
420
 16777215
176
     1
 90
        0
176
     1
 90
        0
176
     1
 62
     7
176
     1
 62
   257
176
     1
 90
        1
176
     1
 90
        1
176
     1
 40
1.0
176
     1
 90
        0
176
     1
 62
     7
176
     1
 40
1.0
176
     1
 90
        1
176
     1
 90
        6
176
     1
 90
        2
176
     1
 62
     7
176
     1
 90
        5
176
     1
 90
        0
176
     1
 90
        0
176
     1
290
     0
176
     1
 90
       13
176
     1
 40
0.0
176
     1
 90
        0
176
     1
290
     0
176
     1
290
     1
176
     1
290
     1
176
     1
290
     0
176
     1
290
     0
176
     1
290
     0
176
     1
290
     0
176
     1
290
     0
176
     1
290
     0
176
     1
 90
       50
176
     1
 40
0.0
176
     1
 40
1.0
176
     1
 90
        0
176
     1
 62
    18
420
        0
176
     1
 90
       50
176
     1
 90
        3
176
     1
 62
     5
420
      255
176
     1
290
     0
176
     1
 90
       50
176
     1
 90
       50
176
     1
 90
       50
176
     1
290
     0
176
     1
 90
       50
176
     1
 62
   256
176
     0
 40
1.0
176
     0
 90
        2
176
     1
  1
strokes_ogs.tif
176
     1
290
     0
176
     1
 40
1.0
176
     1
 40
1.0
176
     1
1001
ACAD
1000
AcDbSavedByObjectVersion
1070
     0
  0
VISUALSTYLE
  5
E4
102
{ACAD_REACTORS
330
E0
102
}
330
E0
100
AcDbVisualStyle
  2
GouraudWithEdges
 70
     3
177
     3
291
     1
 70
    58
 90
        2
176
     1
 90
        2
176
     1
 90
        1
176
     1
 90
        2
176
     1
 40
0.6
176
     1
 40
30.0
176
     1
 62
     7
420
 16777215
176
     1
 90
        1
176
     1
 90
        0
176
     1
 62
     7
176
     1
 62
   257
176
     1
 90
        1
176
     1
 90
        1
176
     1
 40
1.0
176
     1
 90
        0
176
     1
 62
   257
176
     1
 40
1.0
176
     1
 90
        1
176
     1
 90
        6
176
     1
 90
        2
176
     1
 62
     7
176
     1
 90
        5
176
     1
 90
        0
176
     1
 90
        0
176
     1
290
     0
176
     1
 90
       13
176
     1
 40
0.0
176
     1
 90
        0
176
     1
290
     0
176
     1
290
     1
176
     1
290
     1
176
     1
290
     0
176
     1
290
     0
176
     1
290
     0
176
     1
290
     0
176
     1
290
     0
176
     1
290
     0
176
     1
 90
       50
176
     1
 40
0.0
176
     1
 40
1.0
176
     1
 90
        0
176
     1
 62
    18
420
        0
176
     1
 90
       50
176
     1
 90
        3
176
     1
 62
     5
420
      255
176
     1
290
     0
176
     1
 90
       50
176
     1
 90
       50
176
     1
 90
       50
176
     1
290
     0
176
     1
 90
       50
176
     1
 62
   256
176
     0
 40
1.0
176
     0
 90
        2
176
     1
  1
strokes_ogs.tif
176
     1
290
     0
176
     1
 40
1.0
176
     1
 40
1.0
176
     1
1001
ACAD
1000
AcDbSavedByObjectVersion
1070
     0
  0
VISUALSTYLE
  5
E8
102
{ACAD_REACTORS
330
E0
102
}
330
E0
100
AcDbVisualStyle
  2
Hidden
 70
     6
177
     3
291
     0
 70
    58
 90
        1
176
     1
 90
        2
176
     1
 90
        2
176
     1
 90
        0
176
     1
 40
0.6
176
     1
 40
30.0
176
     1
 62
     7
420
 16777215
176
     1
 90
        2
176
     1
 90
        2
176
     1
 62
     7
176
     1
 62
   257
176
     1
 90
        2
176
     1
 90
        1
176
     1
 40
40.0
176
     1
 90
        0
176
     1
 62
   257
176
     1
 40
1.0
176
     1
 90
        1
176
     1
 90
        6
176
     1
 90
        2
176
     1
 62
     7
176
     1
 90
        3
176
     1
 90
        0
176
     1
 90
        0
176
     1
290
     0
176
     1
 90
        1
176
     1
 40
0.0
176
     1
 90
        0
176
     1
290
     0
176
     1
290
     1
176
     1
290
     1
176
     1
290
     0
176
     1
290
     0
176
     1
290
     0
176
     1
290
     0
176
     1
290
     0
176
     1
290
     0
176
     1
 90
       50
176
     1
 40
0.0
176
     1
 40
1.0
176
     1
 90
        0
176
     1
 62
    18
420
        0
176
     1
 90
       50
176
     1
 90
        3
176
     1
 62
     5
420
      255
176
     1
290
     0
176
     1
 90
       50
176
     1
 90
       50
176
     1
 90
       50
176
     1
290
     0
176
     1
 90
       50
176
     1
 62
   256
176
     0
 40
1.0
176
     0
 90
        2
176
     1
  1
strokes_ogs.tif
176
     1
290
     0
176
     1
 40
1.0
176
     1
 40
1.0
176
     1
1001
ACAD
1000
AcDbSavedByObjectVersion
1070
     0
  0
VISUALSTYLE
  5
F6
102
{ACAD_REACTORS
330
E0
102
}
330
E0
100
AcDbVisualStyle
  2
JitterOff
 70
    20
177
     3
291
     1
 70
    58
 90
        2
176
     0
 90
        2
176
     0
 90
        0
176
     0
 90
        0
176
     0
 40
0.6
176
     0
 40
30.0
176
     0
 62
     7
420
 16777215
176
     0
 90
        1
176
     0
 90
        4
176
     0
 62
     7
176
     0
 62
   257
176
     0
 90
        1
176
     0
 90
        1
176
     0
 40
1.0
176
     0
 90
       10
176
     2
 62
     7
176
     0
 40
1.0
176
     0
 90
        1
176
     0
 90
        6
176
     0
 90
        2
176
     0
 62
     7
176
     0
 90
        5
176
     0
 90
        0
176
     0
 90
        0
176
     0
290
     0
176
     0
 90
        1
176
     0
 40
0.0
176
     0
 90
        0
176
     0
290
     0
176
     0
290
     1
176
     0
290
     1
176
     0
290
     0
176
     0
290
     0
176
     0
290
     0
176
     0
290
     0
176
     0
290
     0
176
     0
290
     0
176
     0
 90
       50
176
     0
 40
0.0
176
     0
 40
1.0
176
     0
 90
        0
176
     0
 62
    18
420
        0
176
     0
 90
       50
176
     0
 90
        3
176
     0
 62
     5
420
      255
176
     0
290
     0
176
     0
 90
       50
176
     0
 90
       50
176
     0
 90
       50
176
     0
290
     0
176
     0
 90
       50
176
     0
 62
   256
176
     0
 40
1.0
176
     0
 90
        2
176
     0
  1
strokes_ogs.tif
176
     0
290
     0
176
     0
 40
1.0
176
     0
 40
1.0
176
     0
1001
ACAD
1000
AcDbSavedByObjectVersion
1070
     0
  0
VISUALSTYLE
  5
EE
102
{ACAD_REACTORS
330
E0
102
}
330
E0
100
AcDbVisualStyle
  2
Linepattern
 70
    14
177
     3
291
     1
 70
    58
 90
        2
176
     1
 90
        2
176
     1
 90
        0
176
     1
 90
        0
176
     1
 40
0.6
176
     1
 40
30.0
176
     1
 62
     7
420
 16777215
176
     1
 90
        1
176
     1
 90
        4
176
     1
 62
     7
176
     1
 62
   257
176
     1
 90
        7
176
     1
 90
        7
176
     1
 40
1.0
176
     1
 90
        8
176
     1
 62
     7
176
     1
 40
1.0
176
     1
 90
        1
176
     1
 90
        6
176
     1
 90
        2
176
     1
 62
     7
176
     1
 90
        5
176
     1
 90
        0
176
     1
 90
        0
176
     1
290
     0
176
     1
 90
        1
176
     1
 40
0.0
176
     1
 90
        0
176
     1
290
     0
176
     1
290
     1
176
     1
290
     1
176
     1
290
     0
176
     1
290
     0
176
     1
290
     0
176
     1
290
     0
176
     1
290
     0
176
     1
290
     0
176
     1
 90
       50
176
     1
 40
0.0
176
     1
 40
1.0
176
     1
 90
        0
176
     1
 62
    18
420
        0
176
     1
 90
       50
176
     1
 90
        3
176
     1
 62
     5
420
      255
176
     1
290
     0
176
     1
 90
       50
176
     1
 90
       50
176
     1
 90
       50
176
     1
290
     0
176
     1
 90
       50
176
     1
 62
   256
176
     0
 40
1.0
176
     0
 90
        2
176
     1
  1
strokes_ogs.tif
176
     1
290
     0
176
     1
 40
1.0
176
     1
 40
1.0
176
     1
1001
ACAD
1000
AcDbSavedByObjectVersion
1070
     0
  0
VISUALSTYLE
  5
F7
102
{ACAD_REACTORS
330
E0
102
}
330
E0
100
AcDbVisualStyle
  2
OverhangOff
 70
    21
177
     3
291
     1
 70
    58
 90
        2
176
     0
 90
        2
176
     0
 90
        0
176
     0
 90
        0
176
     0
 40
0.6
176
     0
 40
30.0
176
     0
 62
     7
420
 16777215
176
     0
 90
        1
176
     0
 90
        4
176
     0
 62
     7
176
     0
 62
   257
176
     0
 90
        1
176
     0
 90
        1
176
     0
 40
1.0
176
     0
 90
        9
176
     2
 62
     7
176
     0
 40
1.0
176
     0
 90
        1
176
     0
 90
        6
176
     0
 90
        2
176
     0
 62
     7
176
     0
 90
        5
176
     0
 90
        0
176
     0
 90
        0
176
     0
290
     0
176
     0
 90
        1
176
     0
 40
0.0
176
     0
 90
        0
176
     0
290
     0
176
     0
290
     1
176
     0
290
     1
176
     0
290
     0
176
     0
290
     0
176
     0
290
     0
176
     0
290
     0
176
     0
290
     0
176
     0
290
     0
176
     0
 90
       50
176
     0
 40
0.0
176
     0
 40
1.0
176
     0
 90
        0
176
     0
 62
    18
420
        0
176
     0
 90
       50
176
     0
 90
        3
176
     0
 62
     5
420
      255
176
     0
290
     0
176
     0
 90
       50
176
     0
 90
       50
176
     0
 90
       50
176
     0
290
     0
176
     0
 90
       50
176
     0
 62
   256
176
     0
 40
1.0
176
     0
 90
        2
176
     0
  1
strokes_ogs.tif
176
     0
290
     0
176
     0
 40
1.0
176
     0
 40
1.0
176
     0
1001
ACAD
1000
AcDbSavedByObjectVersion
1070
     0
  0
VISUALSTYLE
  5
EA
102
{ACAD_REACTORS
330
E0
102
}
330
E0
100
AcDbVisualStyle
  2
Realistic
 70
     8
177
     3
291
     0
 70
    58
 90
        2
176
     1
 90
        3
176
     1
 90
        0
176
     1
 90
        2
176
     1
 40
0.6
176
     1
 40
30.0
176
     1
 62
     7
420
 16777215
176
     1
 90
        0
176
     1
 90
        0
176
     1
 62
     7
176
     1
 62
   257
176
     1
 90
        1
176
     1
 90
        1
176
     1
 40
1.0
176
     1
 90
        8
176
     1
 62
   257
176
     1
 40
1.0
176
     1
 90
        1
176
     1
 90
        6
176
     1
 90
        2
176
     1
 62
     7
176
     1
 90
        3
176
     1
 90
        0
176
     1
 90
        0
176
     1
290
     0
176
     1
 90
       13
176
     1
 40
0.0
176
     1
 90
        0
176
     1
290
     0
176
     1
290
     1
176
     1
290
     1
176
     1
290
     0
176
     1
290
     0
176
     1
290
     0
176
     1
290
     0
176
     1
290
     0
176
     1
290
     0
176
     1
 90
       50
176
     1
 40
0.0
176
     1
 40
1.0
176
     1
 90
        0
176
     1
 62
    18
420
        0
176
     1
 90
       50
176
     1
 90
        3
176
     1
 62
     5
420
      255
176
     1
290
     0
176
     1
 90
       50
176
     1
 90
       50
176
     1
 90
       50
176
     1
290
     0
176
     1
 90
       50
176
     1
 62
   256
176
     0
 40
1.0
176
     0
 90
        2
176
     1
  1
strokes_ogs.tif
176
     1
290
     0
176
     1
 40
1.0
176
     1
 40
1.0
176
     1
1001
ACAD
1000
AcDbSavedByObjectVersion
1070
     0
  0
VISUALSTYLE
  5
F5
102
{ACAD_REACTORS
330
E0
102
}
330
E0
100
AcDbVisualStyle
  2
Shaded
 70
    27
177
     3
291
     0
 70
    58
 90
        2
176
     1
 90
        2
176
     1
 90
        1
176
     1
 90
        2
176
     1
 40
0.6
176
     1
 40
30.0
176
     1
 62
     7
420
 16777215
176
     1
 90
        0
176
     1
 90
        4
176
     1
 62
     7
176
     1
 62
   257
176
     1
 90
        1
176
     1
 90
        1
176
     1
 40
1.0
176
     1
 90
        8
176
     1
 62
   257
176
     1
 40
1.0
176
     1
 90
        1
176
     1
 90
        6
176
     1
 90
        2
176
     1
 62
     8
420
  7895160
176
     1
 90
        3
176
     1
 90
        0
176
     1
 90
        0
176
     1
290
     0
176
     1
 90
        5
176
     1
 40
0.0
176
     1
 90
        0
176
     1
290
     0
176
     1
290
     1
176
     1
290
     1
176
     1
290
     0
176
     1
290
     0
176
     1
290
     0
176
     1
290
     0
176
     1
290
     0
176
     1
290
     0
176
     1
 90
       50
176
     1
 40
0.0
176
     1
 40
1.0
176
     1
 90
        0
176
     1
 62
    18
420
        0
176
     1
 90
       50
176
     1
 90
        3
176
     1
 62
     5
420
      255
176
     1
290
     0
176
     1
 90
       50
176
     1
 90
       50
176
     1
 90
       50
176
     1
290
     0
176
     1
 90
       50
176
     1
 62
   256
176
     0
 40
1.0
176
     0
 90
        2
176
     1
  1
strokes_ogs.tif
176
     1
290
     0
176
     1
 40
1.0
176
     1
 40
1.0
176
     1
1001
ACAD
1000
AcDbSavedByObjectVersion
1070
     0
  0
VISUALSTYLE
  5
F4
102
{ACAD_REACTORS
330
E0
102
}
330
E0
100
AcDbVisualStyle
  2
Shaded with edges
 70
    26
177
     3
291
     0
 70
    58
 90
        2
176
     1
 90
        2
176
     1
 90
        1
176
     1
 90
        2
176
     1
 40
0.6
176
     1
 40
30.0
176
     1
 62
     7
420
 16777215
176
     1
 90
        1
176
     1
 90
        2
176
     1
 62
     7
176
     1
 62
   257
176
     1
 90
        2
176
     1
 90
        1
176
     1
 40
1.0
176
     1
 90
        8
176
     1
 62
   257
176
     1
 40
1.0
176
     1
 90
        1
176
     1
 90
        6
176
     1
 90
        2
176
     1
 62
     7
176
     1
 90
        3
176
     1
 90
        0
176
     1
 90
        0
176
     1
290
     0
176
     1
 90
        5
176
     1
 40
0.0
176
     1
 90
        0
176
     1
290
     0
176
     1
290
     1
176
     1
290
     1
176
     1
290
     0
176
     1
290
     0
176
     1
290
     0
176
     1
290
     0
176
     1
290
     0
176
     1
290
     0
176
     1
 90
       50
176
     1
 40
0.0
176
     1
 40
1.0
176
     1
 90
        0
176
     1
 62
    18
420
        0
176
     1
 90
       50
176
     1
 90
        3
176
     1
 62
     5
420
      255
176
     1
290
     0
176
     1
 90
       50
176
     1
 90
       50
176
     1
 90
       50
176
     1
290
     0
176
     1
 90
       50
176
     1
 62
   256
176
     0
 40
1.0
176
     0
 90
        2
176
     1
  1
strokes_ogs.tif
176
     1
290
     0
176
     1
 40
1.0
176
     1
 40
1.0
176
     1
1001
ACAD
1000
AcDbSavedByObjectVersion
1070
     0
  0
VISUALSTYLE
  5
F1
102
{ACAD_REACTORS
330
E0
102
}
330
E0
100
AcDbVisualStyle
  2
Shades of Gray
 70
    23
177
     3
291
     0
 70
    58
 90
        2
176
     1
 90
        2
176
     1
 90
        3
176
     1
 90
        0
176
     1
 40
0.6
176
     1
 40
30.0
176
     1
 62
     7
420
 16777215
176
     1
 90
        2
176
     1
 90
        2
176
     1
 62
     7
176
     1
 62
     7
176
     1
 90
        1
176
     1
 90
        1
176
     1
 40
40.0
176
     1
 90
        8
176
     1
 62
     7
176
     1
 40
1.0
176
     1
 90
        1
176
     1
 90
        6
176
     1
 90
        2
176
     1
 62
     7
176
     1
 90
        3
176
     1
 90
        0
176
     1
 90
        0
176
     1
290
     0
176
     1
 90
        1
176
     1
 40
0.0
176
     1
 90
        0
176
     1
290
     0
176
     1
290
     1
176
     1
290
     1
176
     1
290
     0
176
     1
290
     0
176
     1
290
     0
176
     1
290
     0
176
     1
290
     0
176
     1
290
     0
176
     1
 90
       50
176
     1
 40
0.0
176
     1
 40
1.0
176
     1
 90
        0
176
     1
 62
    18
420
        0
176
     1
 90
       50
176
     1
 90
        3
176
     1
 62
     5
420
      255
176
     1
290
     0
176
     1
 90
       50
176
     1
 90
       50
176
     1
 90
       50
176
     1
290
     0
176
     1
 90
       50
176
     1
 62
   256
176
     0
 40
1.0
176
     0
 90
        2
176
     1
  1
strokes_ogs.tif
176
     1
290
     0
176
     1
 40
1.0
176
     1
 40
1.0
176
     1
1001
ACAD
1000
AcDbSavedByObjectVersion
1070
     0
  0
VISUALSTYLE
  5
F2
102
{ACAD_REACTORS
330
E0
102
}
330
E0
100
AcDbVisualStyle
  2
Sketchy
 70
    24
177
     3
291
     0
 70
    58
 90
        1
176
     1
 90
        2
176
     1
 90
        2
176
     1
 90
        0
176
     1
 40
0.6
176
     1
 40
30.0
176
     1
 62
     7
420
 16777215
176
     1
 90
        2
176
     1
 90
        2
176
     1
 62
     7
176
     1
 62
     7
176
     1
 90
        1
176
     1
 90
        1
176
     1
 40
40.0
176
     1
 90
       11
176
     1
 62
     7
176
     1
 40
1.0
176
     1
 90
        1
176
     1
 90
        6
176
     1
 90
        2
176
     1
 62
     7
176
     1
 90
        6
176
     1
 90
        0
176
     1
 90
        0
176
     1
290
     0
176
     1
 90
        1
176
     1
 40
0.0
176
     1
 90
        0
176
     1
290
     0
176
     1
290
     1
176
     1
290
     1
176
     1
290
     0
176
     1
290
     0
176
     1
290
     0
176
     1
290
     0
176
     1
290
     0
176
     1
290
     0
176
     1
 90
       50
176
     1
 40
0.0
176
     1
 40
1.0
176
     1
 90
        0
176
     1
 62
    18
420
        0
176
     1
 90
       50
176
     1
 90
        3
176
     1
 62
     5
420
      255
176
     1
290
     0
176
     1
 90
       50
176
     1
 90
       50
176
     1
 90
       50
176
     1
290
     0
176
     1
 90
       50
176
     1
 62
   256
176
     0
 40
1.0
176
     0
 90
        2
176
     1
  1
strokes_ogs.tif
176
     1
290
     0
176
     1
 40
1.0
176
     1
 40
1.0
176
     1
1001
ACAD
1000
AcDbSavedByObjectVersion
1070
     0
  0
VISUALSTYLE
  5
ED
102
{ACAD_REACTORS
330
E0
102
}
330
E0
100
AcDbVisualStyle
  2
Thicken
 70
    13
177
     3
291
     1
 70
    58
 90
        2
176
     1
 90
        2
176
     1
 90
        0
176
     1
 90
        0
176
     1
 40
0.6
176
     1
 40
30.0
176
     1
 62
     7
420
 16777215
176
     1
 90
        1
176
     1
 90
        4
176
     1
 62
     7
176
     1
 62
   257
176
     1
 90
        1
176
     1
 90
        1
176
     1
 40
1.0
176
     1
 90
       12
176
     1
 62
     7
176
     1
 40
1.0
176
     1
 90
        1
176
     1
 90
        6
176
     1
 90
        2
176
     1
 62
     7
176
     1
 90
        5
176
     1
 90
        0
176
     1
 90
        0
176
     1
290
     0
176
     1
 90
        1
176
     1
 40
0.0
176
     1
 90
        0
176
     1
290
     0
176
     1
290
     1
176
     1
290
     1
176
     1
290
     0
176
     1
290
     0
176
     1
290
     0
176
     1
290
     0
176
     1
290
     0
176
     1
290
     0
176
     1
 90
       50
176
     1
 40
0.0
176
     1
 40
1.0
176
     1
 90
        0
176
     1
 62
    18
420
        0
176
     1
 90
       50
176
     1
 90
        3
176
     1
 62
     5
420
      255
176
     1
290
     0
176
     1
 90
       50
176
     1
 90
       50
176
     1
 90
       50
176
     1
290
     0
176
     1
 90
       50
176
     1
 62
   256
176
     0
 40
1.0
176
     0
 90
        2
176
     1
  1
strokes_ogs.tif
176
     1
290
     0
176
     1
 40
1.0
176
     1
 40
1.0
176
     1
1001
ACAD
1000
AcDbSavedByObjectVersion
1070
     0
  0
VISUALSTYLE
  5
E7
102
{ACAD_REACTORS
330
E0
102
}
330
E0
100
AcDbVisualStyle
  2
Wireframe
 70
     5
177
     3
291
     0
 70
    58
 90
        0
176
     1
 90
        2
176
     1
 90
        0
176
     1
 90
        0
176
     1
 40
0.6
176
     1
 40
30.0
176
     1
 62
     7
420
 16777215
176
     1
 90
        1
176
     1
 90
        4
176
     1
 62
     7
176
     1
 62
   257
176
     1
 90
        1
176
     1
 90
        1
176
     1
 40
1.0
176
     1
 90
        0
176
     1
 62
   257
176
     1
 40
1.0
176
     1
 90
        1
176
     1
 90
        6
176
     1
 90
        2
176
     1
 62
     7
176
     1
 90
        3
176
     1
 90
        0
176
     1
 90
        0
176
     1
290
     0
176
     1
 90
        1
176
     1
 40
0.0
176
     1
 90
        0
176
     1
290
     0
176
     1
290
     1
176
     1
290
     1
176
     1
290
     0
176
     1
290
     0
176
     1
290
     0
176
     1
290
     0
176
     1
290
     0
176
     1
290
     0
176
     1
 90
       50
176
     1
 40
0.0
176
     1
 40
1.0
176
     1
 90
        0
176
     1
 62
    18
420
        0
176
     1
 90
       50
176
     1
 90
        3
176
     1
 62
     5
420
      255
176
     1
290
     0
176
     1
 90
       50
176
     1
 90
       50
176
     1
 90
       50
176
     1
290
     0
176
     1
 90
       50
176
     1
 62
   256
176
     0
 40
1.0
176
     0
 90
        2
176
     1
  1
strokes_ogs.tif
176
     1
290
     0
176
     1
 40
1.0
176
     1
 40
1.0
176
     1
1001
ACAD
1000
AcDbSavedByObjectVersion
1070
     0
  0
VISUALSTYLE
  5
F3
102
{ACAD_REACTORS
330
E0
102
}
330
E0
100
AcDbVisualStyle
  2
X-Ray
 70
    25
177
     3
291
     0
 70
    58
 90
        2
176
     1
 90
        2
176
     1
 90
        1
176
     1
 90
        1
176
     1
 40
0.5
176
     1
 40
30.0
176
     1
 62
     7
420
 16777215
176
     1
 90
        1
176
     1
 90
        0
176
     1
 62
     7
176
     1
 62
   257
176
     1
 90
        1
176
     1
 90
        1
176
     1
 40
1.0
176
     1
 90
        8
176
     1
 62
     7
176
     1
 40
1.0
176
     1
 90
        1
176
     1
 90
        6
176
     1
 90
        2
176
     1
 62
     7
176
     1
 90
        3
176
     1
 90
        0
176
     1
 90
        0
176
     1
290
     0
176
     1
 90
       13
176
     1
 40
0.0
176
     1
 90
        0
176
     1
290
     0
176
     1
290
     1
176
     1
290
     1
176
     1
290
     0
176
     1
290
     0
176
     1
290
     0
176
     1
290
     0
176
     1
290
     0
176
     1
290
     0
176
     1
 90
       50
176
     1
 40
0.0
176
     1
 40
1.0
176
     1
 90
        0
176
     1
 62
    18
420
        0
176
     1
 90
       50
176
     1
 90
        3
176
     1
 62
     5
420
      255
176
     1
290
     0
176
     1
 90
       50
176
     1
 90
       50
176
     1
 90
       50
176
     1
290
     0
176
     1
 90
       50
176
     1
 62
   256
176
     0
 40
1.0
176
     0
 90
        2
176
     1
  1
strokes_ogs.tif
176
     1
290
     0
176
     1
 40
1.0
176
     1
 40
1.0
176
     1
1001
ACAD
1000
AcDbSavedByObjectVersion
1070
     0
  0
DICTIONARYVAR
  5
116
102
{ACAD_REACTORS
330
110
102
}
330
110
100
DictionaryVariables
280
     0
  1
1:1
  0
DICTIONARYVAR
  5
112
102
{ACAD_REACTORS
330
110
102
}
330
110
100
DictionaryVariables
280
     0
  1
STANDARD
  0
DICTIONARYVAR
  5
111
102
{ACAD_REACTORS
330
110
102
}
330
110
100
DictionaryVariables
280
     0
  1
STANDARD
  0
DICTIONARYVAR
  5
113
102
{ACAD_REACTORS
330
110
102
}
330
110
100
DictionaryVariables
280
     0
  1
Metric50
  0
DICTIONARYVAR
  5
114
102
{ACAD_REACTORS
330
110
102
}
330
110
100
DictionaryVariables
280
     0
  1
Metric50
  0
DICTIONARYVAR
  5
118
102
{ACAD_REACTORS
330
110
102
}
330
110
100
DictionaryVariables
280
     0
  1
1
  0
DICTIONARYVAR
  5
119
102
{ACAD_REACTORS
330
110
102
}
330
110
100
DictionaryVariables
280
     0
  1
15
  0
DICTIONARYVAR
  5
117
102
{ACAD_REACTORS
330
110
102
}
330
110
100
DictionaryVariables
280
     0
  1
0
  0
DICTIONARYVAR
  5
115
102
{ACAD_REACTORS
330
110
102
}
330
110
100
DictionaryVariables
280
     0
  1
0
  0
DICTIONARY
  5
7A5
102
{ACAD_REACTORS
330
7A3
102
}
330
7A3
100
AcDbDictionary
281
     1
  0
DICTIONARY
  5
7A4
102
{ACAD_REACTORS
330
7A3
102
}
330
7A3
100
AcDbDictionary
281
     1
  3
2220124364128
350
79E
  3
2220124364144
350
79F
  3
2220124364160
350
7A0
  3
2220124364176
350
7A1
  3
2220124364192
350
7A2
  0
DICTIONARY
  5
7A8
330
101
100
AcDbDictionary
280
     1
281
     1
  3
ACAD_XREC_ROUNDTRIP
360
7A9
  0
DICTIONARY
  5
D1
330
D0
100
AcDbDictionary
280
     1
281
     1
  3
BUMPTILE
360
D3
  3
DIFFUSETILE
360
D2
  3
OPACITYTILE
360
D6
  3
REFLECTIONTILE
360
D5
  3
REFRACTIONTILE
360
D7
  3
SPECULARTILE
360
D4
  0
DICTIONARY
  5
C9
330
C8
100
AcDbDictionary
280
     1
281
     1
  3
BUMPTILE
360
CB
  3
DIFFUSETILE
360
CA
  3
OPACITYTILE
360
CE
  3
REFLECTIONTILE
360
CD
  3
REFRACTIONTILE
360
CF
  3
SPECULARTILE
360
CC
  0
DICTIONARY
  5
D9
330
D8
100
AcDbDictionary
280
     1
281
     1
  3
BUMPTILE
360
DB
  3
DIFFUSETILE
360
DA
  3
OPACITYTILE
360
DE
  3
REFLECTIONTILE
360
DD
  3
REFRACTIONTILE
360
DF
  3
SPECULARTILE
360
DC
  0
DICTIONARY
  5
7A6
330
FF
100
AcDbDictionary
280
     1
281
     1
  3
ACAD_XREC_ROUNDTRIP
360
7A7
  0
DICTIONARY
  5
79B
330
FB
100
AcDbDictionary
280
     1
281
     1
  3
ACAD_ROUNDTRIP_2008_TABLESTYLE_CELLSTYLEMAP
360
79C
  0
XRECORD
  5
79E
102
{ACAD_REACTORS
330
7A4
102
}
330
7A4
100
AcDbXrecord
280
     1
  1
AcDb_Thumbnail_Schema
102
{ATTRRECORD
341
79F
  2
AcDbDs::TreatedAsObjectData
280
     1
291
     1
102
ATTRRECORD}
102
{ATTRRECORD
341
7A0
  2
AcDbDs::Legacy
280
     1
291
     1
102
ATTRRECORD}
  2
AcDbDs::ID
280
    10
 91
        8
102
{ATTRRECORD
341
7A1
  2
AcDs:Indexable
280
     1
291
     1
102
ATTRRECORD}
102
{ATTRRECORD
341
7A2
  2
AcDbDs::HandleAttribute
280
     7
282
     1
102
ATTRRECORD}
  2
Thumbnail_Data
280
    15
 91
        0
  0
XRECORD
  5
79F
102
{ACAD_REACTORS
330
7A4
102
}
330
7A4
100
AcDbXrecord
280
     1
  1
AcDbDs::TreatedAsObjectDataSchema
  2
AcDbDs::TreatedAsObjectData
280
     1
 91
        0
  0
XRECORD
  5
7A0
102
{ACAD_REACTORS
330
7A4
102
}
330
7A4
100
AcDbXrecord
280
     1
  1
AcDbDs::LegacySchema
  2
AcDbDs::Legacy
280
     1
 91
        0
  0
XRECORD
  5
7A1
102
{ACAD_REACTORS
330
7A4
102
}
330
7A4
100
AcDbXrecord
280
     1
  1
AcDbDs::IndexedPropertySchema
  2
AcDs:Indexable
280
     1
 91
        0
  0
XRECORD
  5
7A2
102
{ACAD_REACTORS
330
7A4
102
}
330
7A4
100
AcDbXrecord
280
     1
  1
AcDbDs::HandleAttributeSchema
  2
AcDbDs::HandleAttribute
280
     7
 91
        1
284
     1
  0
XRECORD
  5
7A9
102
{ACAD_REACTORS
330
7A8
102
}
330
7A8
100
AcDbXrecord
280
     1
102
DISPLAYNAME
  1
Metric50
102
FLAGS
 90
        0
  0
XRECORD
  5
D3
102
{ACAD_REACTORS
330
D1
102
}
330
D1
100
AcDbXrecord
280
     1
270
     1
271
     1
  0
XRECORD
  5
D2
102
{ACAD_REACTORS
330
D1
102
}
330
D1
100
AcDbXrecord
280
     1
270
     1
271
     1
  0
XRECORD
  5
D6
102
{ACAD_REACTORS
330
D1
102
}
330
D1
100
AcDbXrecord
280
     1
270
     1
271
     1
  0
XRECORD
  5
D5
102
{ACAD_REACTORS
330
D1
102
}
330
D1
100
AcDbXrecord
280
     1
270
     1
271
     1
  0
XRECORD
  5
D7
102
{ACAD_REACTORS
330
D1
102
}
330
D1
100
AcDbXrecord
280
     1
270
     1
271
     1
  0
XRECORD
  5
D4
102
{ACAD_REACTORS
330
D1
102
}
330
D1
100
AcDbXrecord
280
     1
270
     1
271
     1
  0
XRECORD
  5
CB
102
{ACAD_REACTORS
330
C9
102
}
330
C9
100
AcDbXrecord
280
     1
270
     1
271
     1
  0
XRECORD
  5
CA
102
{ACAD_REACTORS
330
C9
102
}
330
C9
100
AcDbXrecord
280
     1
270
     1
271
     1
  0
XRECORD
  5
CE
102
{ACAD_REACTORS
330
C9
102
}
330
C9
100
AcDbXrecord
280
     1
270
     1
271
     1
  0
XRECORD
  5
CD
102
{ACAD_REACTORS
330
C9
102
}
330
C9
100
AcDbXrecord
280
     1
270
     1
271
     1
  0
XRECORD
  5
CF
102
{ACAD_REACTORS
330
C9
102
}
330
C9
100
AcDbXrecord
280
     1
270
     1
271
     1
  0
XRECORD
  5
CC
102
{ACAD_REACTORS
330
C9
102
}
330
C9
100
AcDbXrecord
280
     1
270
     1
271
     1
  0
XRECORD
  5
DB
102
{ACAD_REACTORS
330
D9
102
}
330
D9
100
AcDbXrecord
280
     1
270
     1
271
     1
  0
XRECORD
  5
DA
102
{ACAD_REACTORS
330
D9
102
}
330
D9
100
AcDbXrecord
280
     1
270
     1
271
     1
  0
XRECORD
  5
DE
102
{ACAD_REACTORS
330
D9
102
}
330
D9
100
AcDbXrecord
280
     1
270
     1
271
     1
  0
XRECORD
  5
DD
102
{ACAD_REACTORS
330
D9
102
}
330
D9
100
AcDbXrecord
280
     1
270
     1
271
     1
  0
XRECORD
  5
DF
102
{ACAD_REACTORS
330
D9
102
}
330
D9
100
AcDbXrecord
280
     1
270
     1
271
     1
  0
XRECORD
  5
DC
102
{ACAD_REACTORS
330
D9
102
}
330
D9
100
AcDbXrecord
280
     1
270
     1
271
     1
  0
XRECORD
  5
7A7
102
{ACAD_REACTORS
330
7A6
102
}
330
7A6
100
AcDbXrecord
280
     1
102
DISPLAYNAME
  1
Metric50
102
FLAGS
 90
        0
  0
CELLSTYLEMAP
  5
79C
102
{ACAD_REACTORS
330
79B
102
}
330
79B
100
AcDbCellStyleMap
 90
        3
300
CELLSTYLE
  1
TABLEFORMAT_BEGIN
 90
        5
170
     1
 91
        0
 92
    32768
 62
   257
 93
        1
300
CONTENTFORMAT
  1
CONTENTFORMAT_BEGIN
 90
        0
 91
        0
 92
      512
 93
        0
300

 40
0.0
140
1.0
 94
        5
 62
     0
340
11
144
6.0
309
CONTENTFORMAT_END
171
     1
301
MARGIN
  1
CELLMARGIN_BEGIN
 40
1.5
 40
1.5
 40
1.5
 40
1.5
 40
4.5
 40
4.5
309
CELLMARGIN_END
 94
        6
 95
        1
302
GRIDFORMAT
  1
GRIDFORMAT_BEGIN
 90
        0
 91
        1
 62
     0
 92
       -2
340
0
 93
        0
 40
1.125
309
GRIDFORMAT_END
 95
        2
302
GRIDFORMAT
  1
GRIDFORMAT_BEGIN
 90
        0
 91
        1
 62
     0
 92
       -2
340
0
 93
        0
 40
1.125
309
GRIDFORMAT_END
 95
        4
302
GRIDFORMAT
  1
GRIDFORMAT_BEGIN
 90
        0
 91
        1
 62
     0
 92
       -2
340
0
 93
        0
 40
1.125
309
GRIDFORMAT_END
 95
        8
302
GRIDFORMAT
  1
GRIDFORMAT_BEGIN
 90
        0
 91
        1
 62
     0
 92
       -2
340
0
 93
        0
 40
1.125
309
GRIDFORMAT_END
 95
       16
302
GRIDFORMAT
  1
GRIDFORMAT_BEGIN
 90
        0
 91
        1
 62
     0
 92
       -2
340
0
 93
        0
 40
1.125
309
GRIDFORMAT_END
 95
       32
302
GRIDFORMAT
  1
GRIDFORMAT_BEGIN
 90
        0
 91
        1
 62
     0
 92
       -2
340
0
 93
        0
 40
1.125
309
GRIDFORMAT_END
309
TABLEFORMAT_END
  1
CELLSTYLE_BEGIN
 90
        1
 91
        1
300
_TITLE
309
CELLSTYLE_END
300
CELLSTYLE
  1
TABLEFORMAT_BEGIN
 90
        5
170
     1
 91
        0
 92
        0
 62
   257
 93
        1
300
CONTENTFORMAT
  1
CONTENTFORMAT_BEGIN
 90
        0
 91
        0
 92
      512
 93
        0
300

 40
0.0
140
1.0
 94
        5
 62
     0
340
11
144
4.5
309
CONTENTFORMAT_END
171
     1
301
MARGIN
  1
CELLMARGIN_BEGIN
 40
1.5
 40
1.5
 40
1.5
 40
1.5
 40
4.5
 40
4.5
309
CELLMARGIN_END
 94
        6
 95
        1
302
GRIDFORMAT
  1
GRIDFORMAT_BEGIN
 90
        0
 91
        1
 62
     0
 92
       -2
340
0
 93
        0
 40
1.125
309
GRIDFORMAT_END
 95
        2
302
GRIDFORMAT
  1
GRIDFORMAT_BEGIN
 90
        0
 91
        1
 62
     0
 92
       -2
340
0
 93
        0
 40
1.125
309
GRIDFORMAT_END
 95
        4
302
GRIDFORMAT
  1
GRIDFORMAT_BEGIN
 90
        0
 91
        1
 62
     0
 92
       -2
340
0
 93
        0
 40
1.125
309
GRIDFORMAT_END
 95
        8
302
GRIDFORMAT
  1
GRIDFORMAT_BEGIN
 90
        0
 91
        1
 62
     0
 92
       -2
340
0
 93
        0
 40
1.125
309
GRIDFORMAT_END
 95
       16
302
GRIDFORMAT
  1
GRIDFORMAT_BEGIN
 90
        0
 91
        1
 62
     0
 92
       -2
340
0
 93
        0
 40
1.125
309
GRIDFORMAT_END
 95
       32
302
GRIDFORMAT
  1
GRIDFORMAT_BEGIN
 90
        0
 91
        1
 62
     0
 92
       -2
340
0
 93
        0
 40
1.125
309
GRIDFORMAT_END
309
TABLEFORMAT_END
  1
CELLSTYLE_BEGIN
 90
        2
 91
        1
300
_HEADER
309
CELLSTYLE_END
300
CELLSTYLE
  1
TABLEFORMAT_BEGIN
 90
        5
170
     1
 91
        0
 92
        0
 62
   257
 93
        1
300
CONTENTFORMAT
  1
CONTENTFORMAT_BEGIN
 90
        0
 91
        0
 92
      512
 93
        0
300

 40
0.0
140
1.0
 94
        2
 62
     0
340
11
144
4.5
309
CONTENTFORMAT_END
171
     1
301
MARGIN
  1
CELLMARGIN_BEGIN
 40
1.5
 40
1.5
 40
1.5
 40
1.5
 40
4.5
 40
4.5
309
CELLMARGIN_END
 94
        6
 95
        1
302
GRIDFORMAT
  1
GRIDFORMAT_BEGIN
 90
        0
 91
        1
 62
     0
 92
       -2
340
0
 93
        0
 40
1.125
309
GRIDFORMAT_END
 95
        2
302
GRIDFORMAT
  1
GRIDFORMAT_BEGIN
 90
        0
 91
        1
 62
     0
 92
       -2
340
0
 93
        0
 40
1.125
309
GRIDFORMAT_END
 95
        4
302
GRIDFORMAT
  1
GRIDFORMAT_BEGIN
 90
        0
 91
        1
 62
     0
 92
       -2
340
0
 93
        0
 40
1.125
309
GRIDFORMAT_END
 95
        8
302
GRIDFORMAT
  1
GRIDFORMAT_BEGIN
 90
        0
 91
        1
 62
     0
 92
       -2
340
0
 93
        0
 40
1.125
309
GRIDFORMAT_END
 95
       16
302
GRIDFORMAT
  1
GRIDFORMAT_BEGIN
 90
        0
 91
        1
 62
     0
 92
       -2
340
0
 93
        0
 40
1.125
309
GRIDFORMAT_END
 95
       32
302
GRIDFORMAT
  1
GRIDFORMAT_BEGIN
 90
        0
 91
        1
 62
     0
 92
       -2
340
0
 93
        0
 40
1.125
309
GRIDFORMAT_END
309
TABLEFORMAT_END
  1
CELLSTYLE_BEGIN
 90
        3
 91
        2
300
_DATA
309
CELLSTYLE_END
  0
ENDSEC
  0
SECTION
  2
ACDSDATA
 70
     2
 71
     8
  0
ACDSSCHEMA
 90
        0
  1
AcDb_Thumbnail_Schema
  2
AcDbDs::ID
280
    10
 91
        8
  2
Thumbnail_Data
280
    15
 91
        0
101
ACDSRECORD
 95
        0
 90
        1
  2
AcDbDs::TreatedAsObjectData
280
     1
291
     1
101
ACDSRECORD
 95
        0
 90
        2
  2
AcDbDs::Legacy
280
     1
291
     1
101
ACDSRECORD
  1
AcDbDs::ID
 90
        3
  2
AcDs:Indexable
280
     1
291
     1
101
ACDSRECORD
  1
AcDbDs::ID
 90
        4
  2
AcDbDs::HandleAttribute
280
     7
282
     1
  0
ACDSSCHEMA
 90
        1
  1
AcDbDs::TreatedAsObjectDataSchema
  2
AcDbDs::TreatedAsObjectData
280
     1
 91
        0
  0
ACDSSCHEMA
 90
        2
  1
AcDbDs::LegacySchema
  2
AcDbDs::Legacy
280
     1
 91
        0
  0
ACDSSCHEMA
 90
        3
  1
AcDbDs::IndexedPropertySchema
  2
AcDs:Indexable
280
     1
 91
        0
  0
ACDSSCHEMA
 90
        4
  1
AcDbDs::HandleAttributeSchema
  2
AcDbDs::HandleAttribute
280
     7
 91
        1
284
     1
  0
ACDSRECORD
 90
        0
  2
AcDbDs::ID
280
    10
320
22
  2
Thumbnail_Data
280
    15
 94
     2002
310
89504E470D0A1A0A0000000D49484452000001000000008D08030000006FF554E600000300504C5445212830FFFFFF2128300000000000000000000000000000000000000000000000000000330000660000990000CC0000FF0033000033330033660033990033CC0033FF0066000066330066660066990066CC0066FF0099
310
000099330099660099990099CC0099FF00CC0000CC3300CC6600CC9900CCCC00CCFF00FF0000FF3300FF6600FF9900FFCC00FFFF3300003300333300663300993300CC3300FF3333003333333333663333993333CC3333FF3366003366333366663366993366CC3366FF3399003399333399663399993399CC3399FF33CC00
310
33CC3333CC6633CC9933CCCC33CCFF33FF0033FF3333FF6633FF9933FFCC33FFFF6600006600336600666600996600CC6600FF6633006633336633666633996633CC6633FF6666006666336666666666996666CC6666FF6699006699336699666699996699CC6699FF66CC0066CC3366CC6666CC9966CCCC66CCFF66FF0066
310
FF3366FF6666FF9966FFCC66FFFF9900009900339900669900999900CC9900FF9933009933339933669933999933CC9933FF9966009966339966669966999966CC9966FF9999009999339999669999999999CC9999FF99CC0099CC3399CC6699CC9999CCCC99CCFF99FF0099FF3399FF6699FF9999FFCC99FFFFCC0000CC00
310
33CC0066CC0099CC00CCCC00FFCC3300CC3333CC3366CC3399CC33CCCC33FFCC6600CC6633CC6666CC6699CC66CCCC66FFCC9900CC9933CC9966CC9999CC99CCCC99FFCCCC00CCCC33CCCC66CCCC99CCCCCCCCCCFFCCFF00CCFF33CCFF66CCFF99CCFFCCCCFFFFFF0000FF0033FF0066FF0099FF00CCFF00FFFF3300FF3333
310
FF3366FF3399FF33CCFF33FFFF6600FF6633FF6666FF6699FF66CCFF66FFFF9900FF9933FF9966FF9999FF99CCFF99FFFFCC00FFCC33FFCC66FFCC99FFCCCCFFCCFFFFFF00FFFF33FFFF66FFFF99FFFFCCFFFFFF0000000D0D0D1A1A1A2828283535354343435050505D5D5D6B6B6B787878868686939393A1A1A1AEAEAEBB
310
BBBBC9C9C9D6D6D6E4E4E4F1F1F1FFFFFF0000000000000000000000000000000000000000000000000000000000002E4550F10000048D4944415478DAED9C6172AB300C8475105D81FBFFD3D9DE0430C8B66C4BF3308474B79D92A64B405F1D232BC64410044110044110044110044110F48C78D74B4ED57A3CB6F722E46C
310
F315BCD2315872F1FA7D3EEEBBB5FDB3CD4E39B7A9CDFE4B1166D0FEDF00F64372FD3CABC7225DB7B69FEE1450BF05ACE19D4F06ED570010AB55160098D2514D7701E0739646F88D88565BDAC6EC77024847F501D87D24E33E807723C7EDD700107202588F6ABB0D00AB53281451D00E009700103BA4BDABF10250F60380D4
310
11C9E6F302E8D8E53A00F6A5599FBD07C06967D553496DA30880A69D00000000E01100320D80BCA405D02400146C015766820300AC22720060FA3100AC33F03180CCFE6A0069E4493E00A65D47748EA25D003CF66B012C1FD5CFDBF92753EE6ED85544D9F87D0CC065FF5A006CF6A311003EFB7D008E885C00D8BE32040038
310
ED7301A8CAD319511BC06967FA0900545ED5FB00AC51740580CD7A5E13C0D0FE3E00A3EB50D0FE5300B254F856001202708C052E07106C01F21000FA73004415BB3AC361AB92A60018195D0FC0D83E7F3458A4E36E002A9BD1003AA57C0BC0D00E0000000000F008009906409E0240B11640930050B005D04B002C5B7AE105
310
10B35F0D60CD8396F58B8EA4A84C84CEBD3E8E850CFB91CDA888B6CCC6DCC502E0B3CF05B01EBB3D182A019C76D66D678F8853B669EF520270DA6701586200960E80AC567E46B4B40050C87E3180847BD7B201690248FF9ACA9E03288AE5F62E87472864BFA3136475A1721C9DB53BF50AFE01BEC803F500632A9A9E9476FC
310
CDE15EEDACFBCD1D011FAF65EC93B667A7EBB7CF06C0C74F979B737706809BD08A8882F6B96F81A32D1693F37CEE6C68CFAE3308DAEF03B0F76A3177D6ABB9220ADA6F0630CC044B3700E80BFB9E3A6497B5F5626AE701F703E89CDC562F5C96BC2C5EDB4B771D51CA688E14877A0046BC262442F6C959002C7BE196FF0530
310
B27F390012AB4DEFFE6F04D03E39138061F70070D5039CBC6EA808559D60B7225464B02100E54763235EF210009A068000E00F0258FB0A00700350F6FB00443E1CE5E687A36C8FDE9A0086F61B01043E18E16659FCCD2D000000000000000000600E8037A4C25313A12680A11D8321413DE0EBABC29754841E2D8B1F13D5C7
310
00F4B4F6DF0090CDD2F700A85FF1D500D88CAE09C0BCA3A104D05AFDA401C0619F07805B1135707900D8B46878CBCC3300EC5FC4D55EA806D07E711380D77E0380BC098E007069D759C3B1FED04B006C131E726F078035652103C0C5A30E0037AFB900EA3B79BB004CFB1991BAA5D603805DBC5E04A05C616600C0697F0280
310
990A5F0140A5C22E0073C7029D16300D000100000000003C02409A895004406D170B4033B3B101B4ED327535B9C664E50E007B5D95792D60F2727A7F0B80B146640780B5A2641B40727B23926700880BC03E8BD958D1941B6E3ADCA388D23D0541FB65A970D9D7D400D2FD0296BB06A07BC475867BB6E46E35C95E977ED617
310
EF02D0A77205006BA560AE6F0AE8B8851BEE13502FA2EAAD13E13549C1438CDC310051FB0BA496DD7601E05F0350B415EF08DD698720088220088220088220088220088220088220088236FD03DEE83E5D3683ECCF0000000049454E44AE426082
  0
ENDSEC
  0
EOF
