  0
SECTION
  2
HEADER
  9
$ACADVER
  1
AC1015
  9
$ACADMAINTVER
 70
     6
  9
$DWGCODEPAGE
  3
ANSI_1252
  9
$INSBASE
 10
0.0
 20
0.0
 30
0.0
  9
$EXTMIN
 10
0.0
 20
0.0
 30
0.0
  9
$EXTMAX
 10
841.0
 20
594.0
 30
0.0
  9
$LIMMIN
 10
0.0
 20
0.0
  9
$LIMMAX
 10
841.0
 20
594.0
  9
$ORTHOMODE
 70
     0
  9
$REGENMODE
 70
     1
  9
$FILLMODE
 70
     1
  9
$QTEXTMODE
 70
     0
  9
$MIRRTEXT
 70
     1
  9
$LTSCALE
 40
1.0
  9
$ATTMODE
 70
     1
  9
$TEXTSIZE
 40
3.5
  9
$TRACEWID
 40
1.0
  9
$TEXTSTYLE
  7
Standard
  9
$CLAYER
  8
0
  9
$CELTYPE
  6
ByLayer
  9
$CECOLOR
 62
   256
  9
$CELTSCALE
 40
1.0
  9
$DISPSILH
 70
     0
  9
$DIMSCALE
 40
1.0
  9
$DIMASZ
 40
0.33
  9
$DIMEXO
 40
1.0
  9
$DIMDLI
 40
3.75
  9
$DIMRND
 40
0.0
  9
$DIMDLE
 40
0.0
  9
$DIMEXE
 40
1.0
  9
$DIMTP
 40
0.0
  9
$DIMTM
 40
0.0
  9
$DIMTXT
 40
0.35
  9
$DIMCEN
 40
2.5
  9
$DIMTSZ
 40
0.0
  9
$DIMTOL
 70
     0
  9
$DIMLIM
 70
     0
  9
$DIMTIH
 70
     1
  9
$DIMTOH
 70
     1
  9
$DIMSE1
 70
     0
  9
$DIMSE2
 70
     0
  9
$DIMTAD
 70
     1
  9
$DIMZIN
 70
     1
  9
$DIMBLK
  1

  9
$DIMASO
 70
     1
  9
$DIMSHO
 70
     1
  9
$DIMPOST
  1

  9
$DIMAPOST
  1

  9
$DIMALT
 70
     0
  9
$DIMALTD
 70
     3
  9
$DIMALTF
 40
0.0393700787
  9
$DIMLFAC
 40
1.0
  9
$DIMTOFL
 70
     1
  9
$DIMTVP
 40
0.0
  9
$DIMTIX
 70
     0
  9
$DIMSOXD
 70
     0
  9
$DIMSAH
 70
     0
  9
$DIMBLK1
  1

  9
$DIMBLK2
  1

  9
$DIMSTYLE
  2
ISO-25
  9
$DIMCLRD
 70
     0
  9
$DIMCLRE
 70
     0
  9
$DIMCLRT
 70
     0
  9
$DIMTFAC
 40
1.0
  9
$DIMGAP
 40
1.524
  9
$DIMJUST
 70
     0
  9
$DIMSD1
 70
     0
  9
$DIMSD2
 70
     0
  9
$DIMTOLJ
 70
     0
  9
$DIMTZIN
 70
     1
  9
$DIMALTZ
 70
     0
  9
$DIMALTTZ
 70
     0
  9
$DIMUPT
 70
     0
  9
$DIMDEC
 70
     2
  9
$DIMTDEC
 70
     2
  9
$DIMALTU
 70
     2
  9
$DIMALTTD
 70
     3
  9
$DIMTXSTY
  7
Standard
  9
$DIMAUNIT
 70
     0
  9
$DIMADEC
 70
     2
  9
$DIMALTRND
 40
0.0
  9
$DIMAZIN
 70
     0
  9
$DIMDSEP
 70
    44
  9
$DIMATFIT
 70
     3
  9
$DIMFRAC
 70
     0
  9
$DIMLDRBLK
  1

  9
$DIMLUNIT
 70
     2
  9
$DIMLWD
 70
    -2
  9
$DIMLWE
 70
    -2
  9
$DIMTMOVE
 70
     0
  9
$LUNITS
 70
     2
  9
$LUPREC
 70
     2
  9
$SKETCHINC
 40
1.0
  9
$FILLETRAD
 40
10.0
  9
$AUNITS
 70
     0
  9
$AUPREC
 70
     2
  9
$MENU
  1
.
  9
$ELEVATION
 40
0.0
  9
$PELEVATION
 40
0.0
  9
$THICKNESS
 40
0.0
  9
$LIMCHECK
 70
     0
  9
$CHAMFERA
 40
0.0
  9
$CHAMFERB
 40
0.0
  9
$CHAMFERC
 40
0.0
  9
$CHAMFERD
 40
0.0
  9
$SKPOLY
 70
     0
  9
$TDCREATE
 40
2459465.475010185
  9
$TDUCREATE
 40
2459465.725010185
  9
$TDUPDATE
 40
2459465.475011377
  9
$TDUUPDATE
 40
2459465.725011377
  9
$TDINDWG
 40
0.0000000116
  9
$TDUSRTIMER
 40
0.0000000116
  9
$USRTIMER
 70
     1
  9
$ANGBASE
 50
0.0
  9
$ANGDIR
 70
     0
  9
$PDMODE
 70
     0
  9
$PDSIZE
 40
-1.0
  9
$PLINEWID
 40
0.0
  9
$SPLFRAME
 70
     0
  9
$SPLINETYPE
 70
     6
  9
$SPLINESEGS
 70
     8
  9
$HANDSEED
  5
3D6
  9
$SURFTAB1
 70
     6
  9
$SURFTAB2
 70
     6
  9
$SURFTYPE
 70
     6
  9
$SURFU
 70
     6
  9
$SURFV
 70
     6
  9
$UCSBASE
  2

  9
$UCSNAME
  2

  9
$UCSORG
 10
0.0
 20
0.0
 30
0.0
  9
$UCSXDIR
 10
1.0
 20
0.0
 30
0.0
  9
$UCSYDIR
 10
0.0
 20
1.0
 30
0.0
  9
$UCSORTHOREF
  2

  9
$UCSORTHOVIEW
 70
     0
  9
$UCSORGTOP
 10
0.0
 20
0.0
 30
0.0
  9
$UCSORGBOTTOM
 10
0.0
 20
0.0
 30
0.0
  9
$UCSORGLEFT
 10
0.0
 20
0.0
 30
0.0
  9
$UCSORGRIGHT
 10
0.0
 20
0.0
 30
0.0
  9
$UCSORGFRONT
 10
0.0
 20
0.0
 30
0.0
  9
$UCSORGBACK
 10
0.0
 20
0.0
 30
0.0
  9
$PUCSBASE
  2

  9
$PUCSNAME
  2

  9
$PUCSORG
 10
0.0
 20
0.0
 30
0.0
  9
$PUCSXDIR
 10
1.0
 20
0.0
 30
0.0
  9
$PUCSYDIR
 10
0.0
 20
1.0
 30
0.0
  9
$PUCSORTHOREF
  2

  9
$PUCSORTHOVIEW
 70
     0
  9
$PUCSORGTOP
 10
0.0
 20
0.0
 30
0.0
  9
$PUCSORGBOTTOM
 10
0.0
 20
0.0
 30
0.0
  9
$PUCSORGLEFT
 10
0.0
 20
0.0
 30
0.0
  9
$PUCSORGRIGHT
 10
0.0
 20
0.0
 30
0.0
  9
$PUCSORGFRONT
 10
0.0
 20
0.0
 30
0.0
  9
$PUCSORGBACK
 10
0.0
 20
0.0
 30
0.0
  9
$USERI1
 70
     0
  9
$USERI2
 70
     0
  9
$USERI3
 70
     0
  9
$USERI4
 70
     0
  9
$USERI5
 70
     0
  9
$USERR1
 40
0.0
  9
$USERR2
 40
0.0
  9
$USERR3
 40
0.0
  9
$USERR4
 40
0.0
  9
$USERR5
 40
0.0
  9
$WORLDVIEW
 70
     1
  9
$SHADEDGE
 70
     3
  9
$SHADEDIF
 70
    70
  9
$TILEMODE
 70
     1
  9
$MAXACTVP
 70
    64
  9
$PINSBASE
 10
0.0
 20
0.0
 30
0.0
  9
$PLIMCHECK
 70
     0
  9
$PEXTMIN
 10
1.0000000000E+20
 20
1.0000000000E+20
 30
1.0000000000E+20
  9
$PEXTMAX
 10
-1.0000000000E+20
 20
-1.0000000000E+20
 30
-1.0000000000E+20
  9
$PLIMMIN
 10
0.0
 20
0.0
  9
$PLIMMAX
 10
420.0
 20
297.0
  9
$UNITMODE
 70
     0
  9
$VISRETAIN
 70
     1
  9
$PLINEGEN
 70
     0
  9
$PSLTSCALE
 70
     1
  9
$TREEDEPTH
 70
  3020
  9
$CMLSTYLE
  2
Standard
  9
$CMLJUST
 70
     0
  9
$CMLSCALE
 40
20.0
  9
$PROXYGRAPHICS
 70
     1
  9
$MEASUREMENT
 70
     1
  9
$CELWEIGHT
370
    -1
  9
$ENDCAPS
280
     0
  9
$JOINSTYLE
280
     0
  9
$LWDISPLAY
290
     1
  9
$INSUNITS
 70
     4
  9
$HYPERLINKBASE
  1

  9
$STYLESHEET
  1

  9
$XEDIT
290
     1
  9
$CEPSNTYPE
380
     0
  9
$PSTYLEMODE
290
     1
  9
$FINGERPRINTGUID
  2
{8dda3813-729f-4aaa-9a7e-2c9de1f12d2b}
  9
$VERSIONGUID
  2
{FAEB1C32-E019-11D5-929B-00C0DF256EC4}
  9
$EXTNAMES
290
     1
  9
$PSVPSCALE
 40
0.0
  9
$OLESTARTUP
290
     0
  0
ENDSEC
  0
SECTION
  2
CLASSES
  0
CLASS
  1
ACDBDICTIONARYWDFLT
  2
AcDbDictionaryWithDefault
  3
ObjectDBX Classes
 90
        0
280
     0
281
     0
  0
CLASS
  1
VISUALSTYLE
  2
AcDbVisualStyle
  3
ObjectDBX Classes
 90
     4095
280
     0
281
     0
  0
CLASS
  1
MATERIAL
  2
AcDbMaterial
  3
ObjectDBX Classes
 90
     1153
280
     0
281
     0
  0
CLASS
  1
SCALE
  2
AcDbScale
  3
ObjectDBX Classes
 90
     1153
280
     0
281
     0
  0
CLASS
  1
TABLESTYLE
  2
AcDbTableStyle
  3
ObjectDBX Classes
 90
     4095
280
     0
281
     0
  0
CLASS
  1
MLEADERSTYLE
  2
AcDbMLeaderStyle
  3
ACDB_MLEADERSTYLE_CLASS
 90
     4095
280
     0
281
     0
  0
CLASS
  1
SUN
  2
AcDbSun
  3
SCENEOE
 90
     1153
280
     0
281
     0
  0
CLASS
  1
ACDBPLACEHOLDER
  2
AcDbPlaceHolder
  3
ObjectDBX Classes
 90
        0
280
     0
281
     0
  0
CLASS
  1
LAYOUT
  2
AcDbLayout
  3
ObjectDBX Classes
 90
        0
280
     0
281
     0
  0
ENDSEC
  0
SECTION
  2
TABLES
  0
TABLE
  2
VPORT
  5
8
330
0
100
AcDbSymbolTable
 70
     1
  0
VPORT
  5
29
330
8
100
AcDbSymbolTableRecord
100
AcDbViewportTableRecord
  2
*Active
 70
     0
 10
0.0
 20
0.0
 11
1.0
 21
1.0
 12
420.5
 22
297.0
 13
0.0
 23
0.0
 14
10.0
 24
10.0
 15
10.0
 25
10.0
 16
0.0
 26
0.0
 36
1.0
 17
0.0
 27
0.0
 37
0.0
 40
594.0
 41
1.4158249158
 42
50.0
 43
0.0
 44
0.0
 50
0.0
 51
0.0
 71
     0
 72
  2000
 73
     1
 74
     3
 75
     0
 76
     0
 77
     0
 78
     0
281
     0
 65
     1
110
0.0
120
0.0
130
0.0
111
1.0
121
0.0
131
0.0
112
0.0
122
1.0
132
0.0
 79
     0
146
0.0
  0
ENDTAB
  0
TABLE
  2
LTYPE
  5
5
330
0
100
AcDbSymbolTable
 70
     6
  0
LTYPE
  5
14
330
5
100
AcDbSymbolTableRecord
100
AcDbLinetypeTableRecord
  2
ByBlock
 70
     0
  3

 72
    65
 73
     0
 40
0.0
  0
LTYPE
  5
15
330
5
100
AcDbSymbolTableRecord
100
AcDbLinetypeTableRecord
  2
ByLayer
 70
     0
  3

 72
    65
 73
     0
 40
0.0
  0
LTYPE
  5
16
330
5
100
AcDbSymbolTableRecord
100
AcDbLinetypeTableRecord
  2
Continuous
 70
     0
  3
Solid line
 72
    65
 73
     0
 40
0.0
  0
LTYPE
  5
6E
330
5
100
AcDbSymbolTableRecord
100
AcDbLinetypeTableRecord
  2
HIDDEN
 70
     0
  3
Hidden __ __ __ __ __ __ __ __ __ __ __ __ __ __
 72
    65
 73
     2
 40
1.905
 49
1.27
 74
     0
 49
-0.635
 74
     0
  0
LTYPE
  5
6F
330
5
100
AcDbSymbolTableRecord
100
AcDbLinetypeTableRecord
  2
PHANTOM
 70
     0
  3
Phantom ______  __  __  ______  __  __  ______
 72
    65
 73
     6
 40
12.7
 49
6.35
 74
     0
 49
-1.27
 74
     0
 49
1.27
 74
     0
 49
-1.27
 74
     0
 49
1.27
 74
     0
 49
-1.27
 74
     0
  0
LTYPE
  5
70
330
5
100
AcDbSymbolTableRecord
100
AcDbLinetypeTableRecord
  2
CENTER
 70
     0
  3
Center ____ _ ____ _ ____ _ ____ _ ____ _ ____
 72
    65
 73
     4
 40
10.16
 49
6.35
 74
     0
 49
-1.27
 74
     0
 49
1.27
 74
     0
 49
-1.27
 74
     0
  0
LTYPE
  5
71
330
5
100
AcDbSymbolTableRecord
100
AcDbLinetypeTableRecord
  2
CENTERX2
 70
     0
  3
Center (2x) ________  __  ________  __  _____
 72
    65
 73
     4
 40
20.32
 49
12.7
 74
     0
 49
-2.54
 74
     0
 49
2.54
 74
     0
 49
-2.54
 74
     0
  0
LTYPE
  5
72
330
5
100
AcDbSymbolTableRecord
100
AcDbLinetypeTableRecord
  2
DOT2
 70
     0
  3
Dot (.5x) ........................................
 72
    65
 73
     2
 40
0.635
 49
0.0
 74
     0
 49
-0.635
 74
     0
  0
ENDTAB
  0
TABLE
  2
LAYER
  5
2
330
0
100
AcDbSymbolTable
 70
    12
  0
LAYER
  5
10
330
2
100
AcDbSymbolTableRecord
100
AcDbLayerTableRecord
  2
0
 70
     0
 62
     7
  6
Continuous
370
    -3
390
F
  0
LAYER
  5
73
330
2
100
AcDbSymbolTableRecord
100
AcDbLayerTableRecord
  2
OUTLINE
 70
     0
 62
    17
  6
Continuous
370
    -3
390
F
  0
LAYER
  5
74
330
2
100
AcDbSymbolTableRecord
100
AcDbLayerTableRecord
  2
HOLES
 70
     0
 62
    30
  6
Continuous
370
    -3
390
F
  0
LAYER
  5
75
330
2
100
AcDbSymbolTableRecord
100
AcDbLayerTableRecord
  2
PZT
 70
     0
 62
     3
  6
Continuous
370
    -3
390
F
  0
LAYER
  5
76
330
2
100
AcDbSymbolTableRecord
100
AcDbLayerTableRecord
  2
CARBON
 70
     0
 62
     5
  6
Continuous
370
    -3
390
F
  0
LAYER
  5
77
330
2
100
AcDbSymbolTableRecord
100
AcDbLayerTableRecord
  2
COPPER_A
 70
     0
 62
     6
  6
Continuous
370
    -3
390
F
  0
LAYER
  5
78
330
2
100
AcDbSymbolTableRecord
100
AcDbLayerTableRecord
  2
COPPER_B
 70
     0
 62
   211
  6
Continuous
370
    -3
390
F
  0
LAYER
  5
79
330
2
100
AcDbSymbolTableRecord
100
AcDbLayerTableRecord
  2
PZT_A
 70
     0
 62
   100
  6
Continuous
370
    -3
390
F
  0
LAYER
  5
7A
330
2
100
AcDbSymbolTableRecord
100
AcDbLayerTableRecord
  2
PZT_RASTER
 70
     0
 62
   116
  6
Continuous
370
    -3
390
F
  0
LAYER
  5
7B
330
2
100
AcDbSymbolTableRecord
100
AcDbLayerTableRecord
  2
MARKERS
 70
     0
 62
     1
  6
Continuous
370
    -3
390
F
  0
LAYER
  5
7C
330
2
100
AcDbSymbolTableRecord
100
AcDbLayerTableRecord
  2
PZT_SIDES
 70
     0
 62
     2
  6
Continuous
370
    -3
390
F
  0
LAYER
  5
7D
330
2
100
AcDbSymbolTableRecord
100
AcDbLayerTableRecord
  2
PZT_RELEASE
 70
     0
 62
    11
  6
Continuous
370
    -3
390
F
  0
ENDTAB
  0
TABLE
  2
STYLE
  5
3
330
0
100
AcDbSymbolTable
 70
     2
  0
STYLE
  5
11
330
3
100
AcDbSymbolTableRecord
100
AcDbTextStyleTableRecord
  2
Standard
 70
     0
 40
0.0
 41
1.0
 50
0.0
 71
     0
 42
3.5
  3
txt
  4

  0
STYLE
  5
3D2
330
3
100
AcDbSymbolTableRecord
100
AcDbTextStyleTableRecord
  2
SLDTEXTSTYLE0
 70
     0
 40
0.0
 41
0.7
 50
0.0
 71
     0
 42
3.5
  3
TXT
  4

  0
ENDTAB
  0
TABLE
  2
VIEW
  5
6
330
0
100
AcDbSymbolTable
 70
     0
  0
ENDTAB
  0
TABLE
  2
UCS
  5
7
330
0
100
AcDbSymbolTable
 70
     0
  0
ENDTAB
  0
TABLE
  2
APPID
  5
9
330
0
100
AcDbSymbolTable
 70
     1
  0
APPID
  5
12
330
9
100
AcDbSymbolTableRecord
100
AcDbRegAppTableRecord
  2
ACAD
 70
     0
  0
ENDTAB
  0
TABLE
  2
DIMSTYLE
  5
A
330
0
100
AcDbSymbolTable
 70
     1
100
AcDbDimStyleTable
  0
DIMSTYLE
105
27
330
A
100
AcDbSymbolTableRecord
100
AcDbDimStyleTableRecord
  2
ISO-25
 70
     0
 41
2.5
 42
0.625
 43
3.75
 44
1.25
 73
     0
 74
     0
 77
     1
 78
     8
140
2.5
141
2.5
143
0.0393700787
147
0.625
171
     3
172
     1
178
     0
271
     2
272
     2
274
     3
278
    44
283
     0
284
     8
340
11
  0
ENDTAB
  0
TABLE
  2
BLOCK_RECORD
  5
1
330
0
100
AcDbSymbolTable
 70
     1
  0
BLOCK_RECORD
  5
1F
330
1
100
AcDbSymbolTableRecord
100
AcDbBlockTableRecord
  2
*Model_Space
340
22
  0
BLOCK_RECORD
  5
1B
330
1
100
AcDbSymbolTableRecord
100
AcDbBlockTableRecord
  2
*Paper_Space
340
1E
  0
BLOCK_RECORD
  5
23
330
1
100
AcDbSymbolTableRecord
100
AcDbBlockTableRecord
  2
*Paper_Space0
340
26
  0
ENDTAB
  0
ENDSEC
  0
SECTION
  2
BLOCKS
  0
BLOCK
  5
20
330
1F
100
AcDbEntity
  8
0
100
AcDbBlockBegin
  2
*Model_Space
 70
     0
 10
0.0
 20
0.0
 30
0.0
  3
*Model_Space
  1

  0
ENDBLK
  5
21
330
1F
100
AcDbEntity
  8
0
100
AcDbBlockEnd
  0
BLOCK
  5
1C
330
1B
100
AcDbEntity
 67
     1
  8
0
100
AcDbBlockBegin
  2
*Paper_Space
 70
     0
 10
0.0
 20
0.0
 30
0.0
  3
*Paper_Space
  1

  0
ENDBLK
  5
1D
330
1B
100
AcDbEntity
 67
     1
  8
0
100
AcDbBlockEnd
  0
BLOCK
  5
24
330
23
100
AcDbEntity
  8
0
100
AcDbBlockBegin
  2
*Paper_Space0
 70
     0
 10
0.0
 20
0.0
 30
0.0
  3
*Paper_Space0
  1

  0
ENDBLK
  5
25
330
23
100
AcDbEntity
  8
0
100
AcDbBlockEnd
  0
ENDSEC
  0
SECTION
  2
ENTITIES
  0
LINE
  5
7E
330
1F
100
AcDbEntity
  8
OUTLINE
100
AcDbLine
 10
155.125167419
 20
199.6899186751
 30
0.0
 11
183.125167419
 21
199.6899186751
 31
0.0
  0
LINE
  5
7F
330
1F
100
AcDbEntity
  8
OUTLINE
100
AcDbLine
 10
155.125167419
 20
199.6899186751
 30
0.0
 11
155.125167419
 21
181.6899186751
 31
0.0
  0
LINE
  5
80
330
1F
100
AcDbEntity
  8
OUTLINE
100
AcDbLine
 10
155.125167419
 20
181.6899186751
 30
0.0
 11
183.125167419
 21
181.6899186751
 31
0.0
  0
LINE
  5
81
330
1F
100
AcDbEntity
  8
OUTLINE
100
AcDbLine
 10
183.125167419
 20
199.6899186751
 30
0.0
 11
183.125167419
 21
181.6899186751
 31
0.0
  0
LINE
  5
82
330
1F
100
AcDbEntity
  8
MARKERS
100
AcDbLine
 10
159.3146598535
 20
196.8943763408
 30
0.0
 11
159.3146598535
 21
195.6960381006
 31
0.0
  0
LINE
  5
83
330
1F
100
AcDbEntity
  8
MARKERS
100
AcDbLine
 10
158.7787407824
 20
196.2952072207
 30
0.0
 11
159.8108812156
 21
196.2952072207
 31
0.0
  0
LINE
  5
84
330
1F
100
AcDbEntity
  8
MARKERS
100
AcDbLine
 10
179.7937114468
 20
184.6764147511
 30
0.0
 11
179.7937114468
 21
183.6353198898
 31
0.0
  0
LINE
  5
85
330
1F
100
AcDbEntity
  8
MARKERS
100
AcDbLine
 10
179.7937114468
 20
183.6353198898
 30
0.0
 11
179.3011523342
 21
184.1278790024
 31
0.0
  0
LINE
  5
86
330
1F
100
AcDbEntity
  8
MARKERS
100
AcDbLine
 10
179.3011523342
 20
184.1278790024
 30
0.0
 11
180.2534713546
 21
184.1278790024
 31
0.0
  0
LINE
  5
87
330
1F
100
AcDbEntity
  8
MARKERS
100
AcDbLine
 10
181.2975301705
 20
188.8120070054
 30
0.0
 11
181.2975301705
 21
187.0921253153
 31
0.0
  0
LINE
  5
88
330
1F
100
AcDbEntity
  8
MARKERS
100
AcDbLine
 10
182.1878654865
 20
187.9520661604
 30
0.0
 11
180.3725441647
 21
187.9520661604
 31
0.0
  0
LINE
  5
89
330
1F
100
AcDbEntity
  8
MARKERS
100
AcDbLine
 10
159.3146598535
 20
196.8943763408
 30
0.0
 11
158.7787407824
 21
196.2952072207
 31
0.0
  0
LINE
  5
8A
330
1F
100
AcDbEntity
  8
MARKERS
100
AcDbLine
 10
159.3146598535
 20
195.6960381006
 30
0.0
 11
159.8108812156
 21
196.2952072207
 31
0.0
  0
LINE
  5
8B
330
1F
100
AcDbEntity
  8
MARKERS
100
AcDbLine
 10
179.7937114468
 20
184.6764147511
 30
0.0
 11
180.2534713546
 21
184.6764147511
 31
0.0
  0
LINE
  5
8C
330
1F
100
AcDbEntity
  8
MARKERS
100
AcDbLine
 10
180.2534713546
 20
184.6764147511
 30
0.0
 11
180.2534713546
 21
184.1278790024
 31
0.0
  0
LINE
  5
8D
330
1F
100
AcDbEntity
  8
MARKERS
100
AcDbLine
 10
155.4393008733
 20
198.8797573378
 30
0.0
 11
155.4393008733
 21
199.3797573378
 31
0.0
  0
LINE
  5
8E
330
1F
100
AcDbEntity
  8
MARKERS
100
AcDbLine
 10
155.4393008733
 20
199.3797573378
 30
0.0
 11
155.9393008733
 21
199.3797573378
 31
0.0
  0
LINE
  5
8F
330
1F
100
AcDbEntity
  8
MARKERS
100
AcDbLine
 10
182.92076084
 20
182.53085573
 30
0.0
 11
182.92076084
 21
182.03085573
 31
0.0
  0
LINE
  5
90
330
1F
100
AcDbEntity
  8
MARKERS
100
AcDbLine
 10
182.92076084
 20
182.03085573
 30
0.0
 11
182.42076084
 21
182.03085573
 31
0.0
  0
LINE
  5
91
330
1F
100
AcDbEntity
  8
MARKERS
100
AcDbLine
 10
164.9561042016
 20
183.00229701
 30
0.0
 11
164.9561042016
 21
182.4555929
 31
0.0
  0
LINE
  5
92
330
1F
100
AcDbEntity
  8
MARKERS
100
AcDbLine
 10
164.9561042016
 20
182.4555929
 30
0.0
 11
166.37682545
 21
182.4555929
 31
0.0
  0
LINE
  5
93
330
1F
100
AcDbEntity
  8
MARKERS
100
AcDbLine
 10
166.37682545
 20
182.4555929
 30
0.0
 11
164.9561042016
 21
183.00229701
 31
0.0
  0
CIRCLE
  5
94
330
1F
100
AcDbEntity
  8
HOLES
100
AcDbCircle
 10
156.625167419
 20
198.1899186751
 30
0.0
 40
0.8499999999999801
  0
CIRCLE
  5
95
330
1F
100
AcDbEntity
  8
HOLES
100
AcDbCircle
 10
181.625167419
 20
185.6899186751
 30
0.0
 40
0.8499999999999801
  0
ARC
  5
96
330
1F
100
AcDbEntity
  8
PZT
  6
Continuous
370
    25
100
AcDbCircle
 10
162.5046020607
 20
182.6631647573
 30
0.0
 40
0.0300000000000011
100
AcDbArc
 50
180.0
 51
270.0
  0
ARC
  5
97
330
1F
100
AcDbEntity
  8
PZT
  6
Continuous
370
    25
100
AcDbCircle
 10
162.4446020607
 20
183.6031647573
 30
0.0
 40
0.0300000000000011
100
AcDbArc
 50
0.0
 51
90.0
  0
ARC
  5
98
330
1F
100
AcDbEntity
  8
PZT
  6
Continuous
370
    25
100
AcDbCircle
 10
162.3546020607
 20
183.6031647573
 30
0.0
 40
0.0300000000000011
100
AcDbArc
 50
90.0
 51
180.0
  0
ARC
  5
99
330
1F
100
AcDbEntity
  8
PZT
  6
Continuous
370
    25
100
AcDbCircle
 10
162.2946020607
 20
182.6631647573
 30
0.0
 40
0.0300000000000011
100
AcDbArc
 50
270.0
 51
0.0
  0
ARC
  5
9A
330
1F
100
AcDbEntity
  8
PZT
  6
Continuous
370
    25
100
AcDbCircle
 10
156.3546020607
 20
182.6631647573
 30
0.0
 40
0.0300000000000011
100
AcDbArc
 50
180.0
 51
270.0
  0
ARC
  5
9B
330
1F
100
AcDbEntity
  8
PZT
  6
Continuous
370
    25
100
AcDbCircle
 10
156.2946020607
 20
183.6031647573
 30
0.0
 40
0.0300000000000011
100
AcDbArc
 50
0.0
 51
90.0
  0
ARC
  5
9C
330
1F
100
AcDbEntity
  8
PZT
  6
Continuous
370
    25
100
AcDbCircle
 10
156.2046020607
 20
183.6031647573
 30
0.0
 40
0.0300000000000011
100
AcDbArc
 50
90.0
 51
180.0
  0
ARC
  5
9D
330
1F
100
AcDbEntity
  8
PZT
  6
Continuous
370
    25
100
AcDbCircle
 10
156.1446020607
 20
182.6631647573
 30
0.0
 40
0.0300000000000011
100
AcDbArc
 50
270.0
 51
0.0
  0
ARC
  5
9E
330
1F
100
AcDbEntity
  8
PZT
  6
Continuous
370
    25
100
AcDbCircle
 10
155.7046020607
 20
182.6631647573
 30
0.0
 40
0.0300000000000011
100
AcDbArc
 50
180.0
 51
270.0
  0
ARC
  5
9F
330
1F
100
AcDbEntity
  8
PZT
  6
Continuous
370
    25
100
AcDbCircle
 10
155.7046020607
 20
184.1031647573
 30
0.0
 40
0.0300000000000011
100
AcDbArc
 50
90.0
 51
180.0
  0
ARC
  5
A0
330
1F
100
AcDbEntity
  8
PZT
  6
Continuous
370
    25
100
AcDbCircle
 10
156.0246020607
 20
184.4331647573
 30
0.0
 40
0.2999999999999829
100
AcDbArc
 50
270.0
 51
0.0
  0
ARC
  5
A1
330
1F
100
AcDbEntity
  8
PZT
  6
Continuous
370
    25
100
AcDbCircle
 10
156.3546020607
 20
184.6300487408
 30
0.0
 40
0.0300000000000011
100
AcDbArc
 50
168.140220879
 51
180.0
  0
ARC
  5
A2
330
1F
100
AcDbEntity
  8
PZT
  6
Continuous
370
    25
100
AcDbCircle
 10
158.3946020607
 20
194.6362807738
 30
0.0
 40
0.0300000000000105
100
AcDbArc
 50
348.1402208791
 51
0.0
  0
ARC
  5
A3
330
1F
100
AcDbEntity
  8
PZT
  6
Continuous
370
    25
100
AcDbCircle
 10
158.4546020607
 20
195.1031647573
 30
0.0
 40
0.0300000000000011
100
AcDbArc
 50
90.0
 51
180.0
  0
ARC
  5
A4
330
1F
100
AcDbEntity
  8
PZT
  6
Continuous
370
    25
100
AcDbCircle
 10
158.8946020607
 20
195.1031647573
 30
0.0
 40
0.0300000000000011
100
AcDbArc
 50
0.0
 51
90.0
  0
ARC
  5
A5
330
1F
100
AcDbEntity
  8
PZT
  6
Continuous
370
    25
100
AcDbCircle
 10
158.9546020607
 20
194.7631647573
 30
0.0
 40
0.0300000000000011
100
AcDbArc
 50
180.0
 51
270.0
  0
ARC
  5
A6
330
1F
100
AcDbEntity
  8
PZT
  6
Continuous
370
    25
100
AcDbCircle
 10
159.6946020607
 20
194.7631647573
 30
0.0
 40
0.0300000000000296
100
AcDbArc
 50
270.0
 51
0.0
  0
ARC
  5
A7
330
1F
100
AcDbEntity
  8
PZT
  6
Continuous
370
    25
100
AcDbCircle
 10
159.7546020607
 20
195.1031647573
 30
0.0
 40
0.0300000000000011
100
AcDbArc
 50
90.0
 51
180.0
  0
ARC
  5
A8
330
1F
100
AcDbEntity
  8
PZT
  6
Continuous
370
    25
100
AcDbCircle
 10
160.1946020607
 20
195.1031647573
 30
0.0
 40
0.0300000000000296
100
AcDbArc
 50
0.0
 51
90.0
  0
ARC
  5
A9
330
1F
100
AcDbEntity
  8
PZT
  6
Continuous
370
    25
100
AcDbCircle
 10
160.2546020607
 20
194.6362807738
 30
0.0
 40
0.0300000000000105
100
AcDbArc
 50
180.0
 51
191.8597791209
  0
ARC
  5
AA
330
1F
100
AcDbEntity
  8
PZT
  6
Continuous
370
    25
100
AcDbCircle
 10
162.2946020607
 20
184.6300487408
 30
0.0
 40
0.0300000000000164
100
AcDbArc
 50
0.0
 51
11.8597791209
  0
ARC
  5
AB
330
1F
100
AcDbEntity
  8
PZT
  6
Continuous
370
    25
100
AcDbCircle
 10
162.6246020607
 20
184.4331647573
 30
0.0
 40
0.3000000000000114
100
AcDbArc
 50
180.0
 51
270.0
  0
ARC
  5
AC
330
1F
100
AcDbEntity
  8
PZT
  6
Continuous
370
    25
100
AcDbCircle
 10
162.9446020607
 20
184.1031647573
 30
0.0
 40
0.0300000000000011
100
AcDbArc
 50
0.0
 51
90.0
  0
ARC
  5
AD
330
1F
100
AcDbEntity
  8
PZT
  6
Continuous
370
    25
100
AcDbCircle
 10
162.9446020607
 20
182.6631647573
 30
0.0
 40
0.0300000000000011
100
AcDbArc
 50
270.0
 51
0.0
  0
LINE
  5
AE
330
1F
100
AcDbEntity
  8
PZT
  6
Continuous
370
    25
100
AcDbLine
 10
155.6746020607
 20
184.1031647573
 30
0.0
 11
155.6746020607
 21
182.6631647573
 31
0.0
  0
LINE
  5
AF
330
1F
100
AcDbEntity
  8
PZT
  6
Continuous
370
    25
100
AcDbLine
 10
156.0246020607
 20
184.1331647573
 30
0.0
 11
155.7046020607
 21
184.1331647573
 31
0.0
  0
LINE
  5
B0
330
1F
100
AcDbEntity
  8
PZT
  6
Continuous
370
    25
100
AcDbLine
 10
156.3246020607
 20
184.6300487408
 30
0.0
 11
156.3246020607
 21
184.4331647573
 31
0.0
  0
LINE
  5
B1
330
1F
100
AcDbEntity
  8
PZT
  6
Continuous
370
    25
100
AcDbLine
 10
158.4239616656
 20
194.6301152568
 30
0.0
 11
156.3252424558
 21
184.6362142578
 31
0.0
  0
LINE
  5
B2
330
1F
100
AcDbEntity
  8
PZT
  6
Continuous
370
    25
100
AcDbLine
 10
158.4246020607
 20
195.1031647573
 30
0.0
 11
158.4246020607
 21
194.6362807738
 31
0.0
  0
LINE
  5
B3
330
1F
100
AcDbEntity
  8
PZT
  6
Continuous
370
    25
100
AcDbLine
 10
158.8946020607
 20
195.1331647573
 30
0.0
 11
158.4546020607
 21
195.1331647573
 31
0.0
  0
LINE
  5
B4
330
1F
100
AcDbEntity
  8
PZT
  6
Continuous
370
    25
100
AcDbLine
 10
158.9246020607
 20
194.7631647573
 30
0.0
 11
158.9246020607
 21
195.1031647573
 31
0.0
  0
LINE
  5
B5
330
1F
100
AcDbEntity
  8
PZT
  6
Continuous
370
    25
100
AcDbLine
 10
159.6946020607
 20
194.7331647573
 30
0.0
 11
158.9546020607
 21
194.7331647573
 31
0.0
  0
LINE
  5
B6
330
1F
100
AcDbEntity
  8
PZT
  6
Continuous
370
    25
100
AcDbLine
 10
159.7246020607
 20
195.1031647573
 30
0.0
 11
159.7246020607
 21
194.7631647573
 31
0.0
  0
LINE
  5
B7
330
1F
100
AcDbEntity
  8
PZT
  6
Continuous
370
    25
100
AcDbLine
 10
160.1946020607
 20
195.1331647573
 30
0.0
 11
159.7546020607
 21
195.1331647573
 31
0.0
  0
LINE
  5
B8
330
1F
100
AcDbEntity
  8
PZT
  6
Continuous
370
    25
100
AcDbLine
 10
160.2246020607
 20
194.6362807738
 30
0.0
 11
160.2246020607
 21
195.1031647573
 31
0.0
  0
LINE
  5
B9
330
1F
100
AcDbEntity
  8
PZT
  6
Continuous
370
    25
100
AcDbLine
 10
162.3239616656
 20
184.6362142578
 30
0.0
 11
160.2252424558
 21
194.6301152568
 31
0.0
  0
LINE
  5
BA
330
1F
100
AcDbEntity
  8
PZT
  6
Continuous
370
    25
100
AcDbLine
 10
162.3246020607
 20
184.4331647573
 30
0.0
 11
162.3246020607
 21
184.6300487408
 31
0.0
  0
LINE
  5
BB
330
1F
100
AcDbEntity
  8
PZT
  6
Continuous
370
    25
100
AcDbLine
 10
162.9446020607
 20
184.1331647573
 30
0.0
 11
162.6246020607
 21
184.1331647573
 31
0.0
  0
LINE
  5
BC
330
1F
100
AcDbEntity
  8
PZT
  6
Continuous
370
    25
100
AcDbLine
 10
162.9746020607
 20
182.6631647573
 30
0.0
 11
162.9746020607
 21
184.1031647573
 31
0.0
  0
LINE
  5
BD
330
1F
100
AcDbEntity
  8
PZT
  6
Continuous
370
    25
100
AcDbLine
 10
162.5046020607
 20
182.6331647573
 30
0.0
 11
162.9446020607
 21
182.6331647573
 31
0.0
  0
LINE
  5
BE
330
1F
100
AcDbEntity
  8
PZT
  6
Continuous
370
    25
100
AcDbLine
 10
162.4746020607
 20
183.6031647573
 30
0.0
 11
162.4746020607
 21
182.6631647573
 31
0.0
  0
LINE
  5
BF
330
1F
100
AcDbEntity
  8
PZT
  6
Continuous
370
    25
100
AcDbLine
 10
162.3546020607
 20
183.6331647573
 30
0.0
 11
162.4446020607
 21
183.6331647573
 31
0.0
  0
LINE
  5
C0
330
1F
100
AcDbEntity
  8
PZT
  6
Continuous
370
    25
100
AcDbLine
 10
162.3246020607
 20
182.6631647573
 30
0.0
 11
162.3246020607
 21
183.6031647573
 31
0.0
  0
LINE
  5
C1
330
1F
100
AcDbEntity
  8
PZT
  6
Continuous
370
    25
100
AcDbLine
 10
156.3546020607
 20
182.6331647573
 30
0.0
 11
162.2946020607
 21
182.6331647573
 31
0.0
  0
LINE
  5
C2
330
1F
100
AcDbEntity
  8
PZT
  6
Continuous
370
    25
100
AcDbLine
 10
156.3246020607
 20
183.6031647573
 30
0.0
 11
156.3246020607
 21
182.6631647573
 31
0.0
  0
LINE
  5
C3
330
1F
100
AcDbEntity
  8
PZT
  6
Continuous
370
    25
100
AcDbLine
 10
156.2046020607
 20
183.6331647573
 30
0.0
 11
156.2946020607
 21
183.6331647573
 31
0.0
  0
LINE
  5
C4
330
1F
100
AcDbEntity
  8
PZT
  6
Continuous
370
    25
100
AcDbLine
 10
156.1746020607
 20
182.6631647573
 30
0.0
 11
156.1746020607
 21
183.6031647573
 31
0.0
  0
LINE
  5
C5
330
1F
100
AcDbEntity
  8
PZT
  6
Continuous
370
    25
100
AcDbLine
 10
155.7046020607
 20
182.6331647573
 30
0.0
 11
156.1446020607
 21
182.6331647573
 31
0.0
  0
LINE
  5
C6
330
1F
100
AcDbEntity
  8
CARBON
100
AcDbLine
 10
159.6918878207
 20
183.3997672336
 30
0.0
 11
161.1918878207
 21
183.3997672336
 31
0.0
  0
LINE
  5
C7
330
1F
100
AcDbEntity
  8
CARBON
100
AcDbLine
 10
159.6918878207
 20
184.1997672336
 30
0.0
 11
161.1918878207
 21
184.1997672336
 31
0.0
  0
LINE
  5
C8
330
1F
100
AcDbEntity
  8
PZT_RELEASE
100
AcDbLine
 10
155.5213268158
 20
182.634880486
 30
0.0
 11
163.139775795
 21
182.634880486
 31
0.0
  0
LINE
  5
C9
330
1F
100
AcDbEntity
  8
PZT_SIDES
100
AcDbLine
 10
158.4246020607
 20
194.6362807738
 30
0.0
 11
158.4246020607
 21
195.2362807738
 31
0.0
  0
LINE
  5
CA
330
1F
100
AcDbEntity
  8
PZT_SIDES
100
AcDbLine
 10
160.2246020607
 20
194.6362807738
 30
0.0
 11
160.2246020607
 21
195.2362807738
 31
0.0
  0
LINE
  5
CB
330
1F
100
AcDbEntity
  8
PZT_SIDES
100
AcDbLine
 10
158.4239616656
 20
194.6301152568
 30
0.0
 11
156.3252424558
 21
184.6362142578
 31
0.0
  0
LINE
  5
CC
330
1F
100
AcDbEntity
  8
PZT_SIDES
100
AcDbLine
 10
160.2252424558
 20
194.6301152568
 30
0.0
 11
162.3239616656
 21
184.6362142578
 31
0.0
  0
LINE
  5
CD
330
1F
100
AcDbEntity
  8
PZT_SIDES
100
AcDbLine
 10
162.3246020607
 20
184.6300487408
 30
0.0
 11
162.3246020607
 21
184.4331647573
 31
0.0
  0
LINE
  5
CE
330
1F
100
AcDbEntity
  8
PZT_RASTER
100
AcDbLine
 10
158.4239616656
 20
194.6301152568
 30
0.0
 11
160.2228863319
 21
194.6301152568
 31
0.0
  0
LINE
  5
CF
330
1F
100
AcDbEntity
  8
PZT_RASTER
100
AcDbLine
 10
158.4239616656
 20
194.6301152568
 30
0.0
 11
158.4239616656
 21
195.1314490285
 31
0.0
  0
LINE
  5
D0
330
1F
100
AcDbEntity
  8
PZT_RASTER
100
AcDbLine
 10
158.4239616656
 20
195.1314490285
 30
0.0
 11
160.2228863319
 21
195.1314490285
 31
0.0
  0
LINE
  5
D1
330
1F
100
AcDbEntity
  8
PZT_RASTER
100
AcDbLine
 10
160.2228863319
 20
194.6301152568
 30
0.0
 11
160.2228863319
 21
195.1314490285
 31
0.0
  0
LINE
  5
D2
330
1F
100
AcDbEntity
  8
PZT_SIDES
100
AcDbLine
 10
162.6246020607
 20
184.1331647573
 30
0.0
 11
162.9446020607
 21
184.1331647573
 31
0.0
  0
LINE
  5
D3
330
1F
100
AcDbEntity
  8
PZT_SIDES
100
AcDbLine
 10
162.9746020607
 20
184.1031647573
 30
0.0
 11
162.9746020607
 21
182.6631647573
 31
0.0
  0
LINE
  5
D4
330
1F
100
AcDbEntity
  8
PZT_SIDES
100
AcDbLine
 10
162.3546020607
 20
183.6331647573
 30
0.0
 11
162.4446020607
 21
183.6331647573
 31
0.0
  0
LINE
  5
D5
330
1F
100
AcDbEntity
  8
PZT_SIDES
100
AcDbLine
 10
162.4746020607
 20
183.6031647573
 30
0.0
 11
162.4746020607
 21
182.6631647573
 31
0.0
  0
LINE
  5
D6
330
1F
100
AcDbEntity
  8
PZT_SIDES
100
AcDbLine
 10
162.5046020607
 20
182.6331647573
 30
0.0
 11
162.9446020607
 21
182.6331647573
 31
0.0
  0
LINE
  5
D7
330
1F
100
AcDbEntity
  8
PZT_SIDES
100
AcDbLine
 10
162.3246020607
 20
183.6031647573
 30
0.0
 11
162.3246020607
 21
182.5031647573
 31
0.0
  0
LINE
  5
D8
330
1F
100
AcDbEntity
  8
PZT_SIDES
100
AcDbLine
 10
156.3246020607
 20
184.6300487408
 30
0.0
 11
156.3246020607
 21
184.4331647573
 31
0.0
  0
LINE
  5
D9
330
1F
100
AcDbEntity
  8
PZT_SIDES
100
AcDbLine
 10
156.0246020607
 20
184.1331647573
 30
0.0
 11
155.7046020607
 21
184.1331647573
 31
0.0
  0
LINE
  5
DA
330
1F
100
AcDbEntity
  8
PZT_SIDES
100
AcDbLine
 10
155.6746020607
 20
184.1031647573
 30
0.0
 11
155.6746020607
 21
182.6631647573
 31
0.0
  0
LINE
  5
DB
330
1F
100
AcDbEntity
  8
PZT_SIDES
100
AcDbLine
 10
155.7046020607
 20
182.6331647573
 30
0.0
 11
156.1446020607
 21
182.6331647573
 31
0.0
  0
LINE
  5
DC
330
1F
100
AcDbEntity
  8
PZT_SIDES
100
AcDbLine
 10
156.1746020607
 20
182.6631647573
 30
0.0
 11
156.1746020607
 21
183.6031647573
 31
0.0
  0
LINE
  5
DD
330
1F
100
AcDbEntity
  8
PZT_SIDES
100
AcDbLine
 10
156.2046020607
 20
183.6331647573
 30
0.0
 11
156.2946020607
 21
183.6331647573
 31
0.0
  0
LINE
  5
DE
330
1F
100
AcDbEntity
  8
PZT_SIDES
100
AcDbLine
 10
156.3246020607
 20
183.6031647573
 30
0.0
 11
156.3246020607
 21
182.5031647573
 31
0.0
  0
LINE
  5
DF
330
1F
100
AcDbEntity
  8
PZT_RELEASE
100
AcDbLine
 10
158.8946020607
 20
195.1331647573
 30
0.0
 11
158.3446020607
 21
195.1331647573
 31
0.0
  0
LINE
  5
E0
330
1F
100
AcDbEntity
  8
PZT_RELEASE
100
AcDbLine
 10
158.9246020607
 20
195.1031647573
 30
0.0
 11
158.9246020607
 21
194.7631647573
 31
0.0
  0
LINE
  5
E1
330
1F
100
AcDbEntity
  8
PZT_RELEASE
100
AcDbLine
 10
158.9546020607
 20
194.7331647573
 30
0.0
 11
159.6946020607
 21
194.7331647573
 31
0.0
  0
LINE
  5
E2
330
1F
100
AcDbEntity
  8
PZT_RELEASE
100
AcDbLine
 10
159.7246020607
 20
194.7631647573
 30
0.0
 11
159.7246020607
 21
195.1031647573
 31
0.0
  0
LINE
  5
E3
330
1F
100
AcDbEntity
  8
PZT_RASTER
100
AcDbLine
 10
162.972886332
 20
182.634880486
 30
0.0
 11
155.6556140984
 21
182.634880486
 31
0.0
  0
LINE
  5
E4
330
1F
100
AcDbEntity
  8
PZT_RASTER
100
AcDbLine
 10
162.972886332
 20
182.634880486
 30
0.0
 11
162.972886332
 21
184.6300487408
 31
0.0
  0
LINE
  5
E5
330
1F
100
AcDbEntity
  8
PZT_RASTER
100
AcDbLine
 10
162.972886332
 20
184.6300487408
 30
0.0
 11
155.6556140984
 21
184.6300487408
 31
0.0
  0
LINE
  5
E6
330
1F
100
AcDbEntity
  8
PZT_RASTER
100
AcDbLine
 10
155.6556140984
 20
182.634880486
 30
0.0
 11
155.6556140984
 21
184.6300487408
 31
0.0
  0
LINE
  5
E7
330
1F
100
AcDbEntity
  8
PZT_RELEASE
100
AcDbLine
 10
159.7546020607
 20
195.1331647573
 30
0.0
 11
160.3046020607
 21
195.1331647573
 31
0.0
  0
LINE
  5
E8
330
1F
100
AcDbEntity
  8
COPPER_A
100
AcDbLine
 10
158.4231980628
 20
195.1396892402
 30
0.0
 11
160.2223412285
 21
195.1396892402
 31
0.0
  0
LINE
  5
E9
330
1F
100
AcDbEntity
  8
COPPER_A
100
AcDbLine
 10
158.4231980628
 20
195.1396892402
 30
0.0
 11
158.4231980628
 21
194.6362807738
 31
0.0
  0
LINE
  5
EA
330
1F
100
AcDbEntity
  8
COPPER_A
100
AcDbLine
 10
158.4231980628
 20
194.6362807738
 30
0.0
 11
160.2223412285
 21
194.6362807738
 31
0.0
  0
LINE
  5
EB
330
1F
100
AcDbEntity
  8
COPPER_A
100
AcDbLine
 10
160.2223412285
 20
195.1396892402
 30
0.0
 11
160.2223412285
 21
194.6362807738
 31
0.0
  0
LINE
  5
EC
330
1F
100
AcDbEntity
  8
COPPER_A
100
AcDbLine
 10
157.2590334282
 20
184.6300487408
 30
0.0
 11
156.7045481904
 21
183.2825326525
 31
0.0
  0
LINE
  5
ED
330
1F
100
AcDbEntity
  8
COPPER_A
100
AcDbLine
 10
156.7045481904
 20
183.2825326525
 30
0.0
 11
155.5320429481
 21
183.2825326525
 31
0.0
  0
LINE
  5
EE
330
1F
100
AcDbEntity
  8
COPPER_A
100
AcDbLine
 10
155.5320429481
 20
183.2825326525
 30
0.0
 11
155.5320429481
 21
182.5085636748
 31
0.0
  0
LINE
  5
EF
330
1F
100
AcDbEntity
  8
COPPER_A
100
AcDbLine
 10
155.5320429481
 20
182.5085636748
 30
0.0
 11
163.219749734
 21
182.5085636748
 31
0.0
  0
LINE
  5
F0
330
1F
100
AcDbEntity
  8
COPPER_A
100
AcDbLine
 10
163.219749734
 20
182.5085636748
 30
0.0
 11
163.219749734
 21
183.2421014372
 31
0.0
  0
LINE
  5
F1
330
1F
100
AcDbEntity
  8
COPPER_A
100
AcDbLine
 10
163.219749734
 20
183.2421014372
 30
0.0
 11
160.7418938278
 21
183.2421014372
 31
0.0
  0
LINE
  5
F2
330
1F
100
AcDbEntity
  8
COPPER_A
100
AcDbLine
 10
160.7418938278
 20
183.2421014372
 30
0.0
 11
160.7418938278
 21
184.3510719127
 31
0.0
  0
LINE
  5
F3
330
1F
100
AcDbEntity
  8
COPPER_A
100
AcDbLine
 10
160.7418938278
 20
184.3510719127
 30
0.0
 11
162.4446020607
 21
184.3510719127
 31
0.0
  0
LINE
  5
F4
330
1F
100
AcDbEntity
  8
COPPER_A
100
AcDbLine
 10
162.4446020607
 20
184.3510719127
 30
0.0
 11
162.4446020607
 21
184.6300487408
 31
0.0
  0
LINE
  5
F5
330
1F
100
AcDbEntity
  8
COPPER_A
100
AcDbLine
 10
162.4446020607
 20
184.6300487408
 30
0.0
 11
157.2590334282
 21
184.6300487408
 31
0.0
  0
LINE
  5
F6
330
1F
100
AcDbEntity
  8
COPPER_B
100
AcDbLine
 10
163.0793484527
 20
183.3236117411
 30
0.0
 11
162.1008461043
 21
183.3236117411
 31
0.0
  0
LINE
  5
F7
330
1F
100
AcDbEntity
  8
COPPER_B
100
AcDbLine
 10
162.1008461043
 20
183.3236117411
 30
0.0
 11
161.4431605807
 21
184.6300487408
 31
0.0
  0
LINE
  5
F8
330
1F
100
AcDbEntity
  8
COPPER_B
100
AcDbLine
 10
161.4431605807
 20
184.6300487408
 30
0.0
 11
157.4976764548
 21
184.6300487408
 31
0.0
  0
LINE
  5
F9
330
1F
100
AcDbEntity
  8
COPPER_B
100
AcDbLine
 10
157.4976764548
 20
184.6300487408
 30
0.0
 11
157.4976764548
 21
183.2825326525
 31
0.0
  0
LINE
  5
FA
330
1F
100
AcDbEntity
  8
COPPER_B
100
AcDbLine
 10
157.4976764548
 20
183.2825326525
 30
0.0
 11
157.1872913013
 21
183.2825326525
 31
0.0
  0
LINE
  5
FB
330
1F
100
AcDbEntity
  8
COPPER_B
100
AcDbLine
 10
157.1872913013
 20
183.2825326525
 30
0.0
 11
157.1872913013
 21
184.3510719127
 31
0.0
  0
LINE
  5
FC
330
1F
100
AcDbEntity
  8
COPPER_B
100
AcDbLine
 10
157.1872913013
 20
184.3510719127
 30
0.0
 11
156.0246020607
 21
184.3510719127
 31
0.0
  0
LINE
  5
FD
330
1F
100
AcDbEntity
  8
COPPER_B
100
AcDbLine
 10
156.0246020607
 20
184.3510719127
 30
0.0
 11
156.0246020607
 21
184.1231647573
 31
0.0
  0
LINE
  5
FE
330
1F
100
AcDbEntity
  8
COPPER_B
100
AcDbLine
 10
156.9242530356
 20
184.1431647573
 30
0.0
 11
156.9242530356
 21
183.2825326525
 31
0.0
  0
LINE
  5
FF
330
1F
100
AcDbEntity
  8
COPPER_B
100
AcDbLine
 10
156.9242530356
 20
183.2825326525
 30
0.0
 11
155.5774971152
 21
183.2825326525
 31
0.0
  0
LINE
  5
100
330
1F
100
AcDbEntity
  8
COPPER_B
100
AcDbLine
 10
155.5774971152
 20
183.2825326525
 30
0.0
 11
155.5774971152
 21
182.6131647573
 31
0.0
  0
LINE
  5
101
330
1F
100
AcDbEntity
  8
COPPER_B
100
AcDbLine
 10
155.5774971152
 20
182.6131647573
 30
0.0
 11
163.0793484527
 21
182.6131647573
 31
0.0
  0
LINE
  5
102
330
1F
100
AcDbEntity
  8
COPPER_B
100
AcDbLine
 10
163.0793484527
 20
182.6131647573
 30
0.0
 11
163.0793484527
 21
183.3236117411
 31
0.0
  0
LINE
  5
103
330
1F
100
AcDbEntity
  8
COPPER_B
100
AcDbLine
 10
156.9242530356
 20
184.1431647573
 30
0.0
 11
156.0246020607
 21
184.1231647573
 31
0.0
  0
LINE
  5
104
330
1F
100
AcDbEntity
  8
COPPER_B
100
AcDbLine
 10
158.4246020607
 20
195.1353556959
 30
0.0
 11
160.2223412285
 21
195.1353556959
 31
0.0
  0
LINE
  5
105
330
1F
100
AcDbEntity
  8
COPPER_B
100
AcDbLine
 10
158.4246020607
 20
195.1353556959
 30
0.0
 11
158.4246020607
 21
194.6362807738
 31
0.0
  0
LINE
  5
106
330
1F
100
AcDbEntity
  8
COPPER_B
100
AcDbLine
 10
158.4246020607
 20
194.6362807738
 30
0.0
 11
160.2223412285
 21
194.6362807738
 31
0.0
  0
LINE
  5
107
330
1F
100
AcDbEntity
  8
COPPER_B
100
AcDbLine
 10
160.2223412285
 20
195.1353556959
 30
0.0
 11
160.2223412285
 21
194.6362807738
 31
0.0
  0
ARC
  5
108
330
1F
100
AcDbEntity
  8
CARBON
100
AcDbCircle
 10
159.6918878207
 20
183.7997672336
 30
0.0
 40
0.4000000000000341
100
AcDbArc
 50
90.0
 51
270.0
  0
ARC
  5
109
330
1F
100
AcDbEntity
  8
CARBON
100
AcDbCircle
 10
161.1918878207
 20
183.7997672336
 30
0.0
 40
0.4000000000000341
100
AcDbArc
 50
270.0
 51
90.0
  0
CIRCLE
  5
10A
330
1F
100
AcDbEntity
  8
PZT_A
100
AcDbCircle
 10
161.1870986166
 20
183.8021197428
 30
0.0
 40
0.3749999999999947
  0
ARC
  5
10B
330
1F
100
AcDbEntity
  8
PZT_RELEASE
100
AcDbCircle
 10
158.8946020607
 20
195.1031647573
 30
0.0
 40
0.0300000000000011
100
AcDbArc
 50
0.0
 51
90.0
  0
ARC
  5
10C
330
1F
100
AcDbEntity
  8
PZT_SIDES
100
AcDbCircle
 10
162.2946020607
 20
184.6300487408
 30
0.0
 40
0.030000000000072
100
AcDbArc
 50
0.0
 51
11.8597791209
  0
ARC
  5
10D
330
1F
100
AcDbEntity
  8
PZT_SIDES
100
AcDbCircle
 10
162.6246020607
 20
184.4331647573
 30
0.0
 40
0.3000000000000114
100
AcDbArc
 50
180.0
 51
270.0
  0
ARC
  5
10E
330
1F
100
AcDbEntity
  8
PZT_SIDES
100
AcDbCircle
 10
162.9446020607
 20
184.1031647573
 30
0.0
 40
0.0300000000000011
100
AcDbArc
 50
0.0
 51
90.0
  0
ARC
  5
10F
330
1F
100
AcDbEntity
  8
PZT_SIDES
100
AcDbCircle
 10
162.9446020607
 20
182.6631647573
 30
0.0
 40
0.0300000000000011
100
AcDbArc
 50
270.0
 51
0.0
  0
ARC
  5
110
330
1F
100
AcDbEntity
  8
PZT_SIDES
100
AcDbCircle
 10
162.5046020607
 20
182.6631647573
 30
0.0
 40
0.0300000000000011
100
AcDbArc
 50
180.0
 51
270.0
  0
ARC
  5
111
330
1F
100
AcDbEntity
  8
PZT_SIDES
100
AcDbCircle
 10
162.4446020607
 20
183.6031647573
 30
0.0
 40
0.0300000000000011
100
AcDbArc
 50
0.0
 51
90.0
  0
ARC
  5
112
330
1F
100
AcDbEntity
  8
PZT_SIDES
100
AcDbCircle
 10
162.3546020607
 20
183.6031647573
 30
0.0
 40
0.0300000000000011
100
AcDbArc
 50
90.0
 51
180.0
  0
ARC
  5
113
330
1F
100
AcDbEntity
  8
PZT_SIDES
100
AcDbCircle
 10
160.2546020607
 20
194.6362807738
 30
0.0
 40
0.0300000000000383
100
AcDbArc
 50
180.0
 51
191.8597791209
  0
ARC
  5
114
330
1F
100
AcDbEntity
  8
PZT_SIDES
100
AcDbCircle
 10
158.3946020607
 20
194.6362807738
 30
0.0
 40
0.0300000000000105
100
AcDbArc
 50
348.1402208791
 51
0.0
  0
ARC
  5
115
330
1F
100
AcDbEntity
  8
PZT_SIDES
100
AcDbCircle
 10
156.3546020607
 20
184.6300487408
 30
0.0
 40
0.0300000000000011
100
AcDbArc
 50
168.140220879
 51
180.0
  0
ARC
  5
116
330
1F
100
AcDbEntity
  8
PZT_SIDES
100
AcDbCircle
 10
156.0246020607
 20
184.4331647573
 30
0.0
 40
0.2999999999999829
100
AcDbArc
 50
270.0
 51
0.0
  0
ARC
  5
117
330
1F
100
AcDbEntity
  8
PZT_SIDES
100
AcDbCircle
 10
155.7046020607
 20
184.1031647573
 30
0.0
 40
0.0300000000000011
100
AcDbArc
 50
90.0
 51
180.0
  0
ARC
  5
118
330
1F
100
AcDbEntity
  8
PZT_SIDES
100
AcDbCircle
 10
155.7046020607
 20
182.6631647573
 30
0.0
 40
0.0300000000000011
100
AcDbArc
 50
180.0
 51
270.0
  0
ARC
  5
119
330
1F
100
AcDbEntity
  8
PZT_SIDES
100
AcDbCircle
 10
156.1446020607
 20
182.6631647573
 30
0.0
 40
0.0300000000000011
100
AcDbArc
 50
270.0
 51
0.0
  0
ARC
  5
11A
330
1F
100
AcDbEntity
  8
PZT_SIDES
100
AcDbCircle
 10
156.2046020607
 20
183.6031647573
 30
0.0
 40
0.0300000000000011
100
AcDbArc
 50
90.0
 51
180.0
  0
ARC
  5
11B
330
1F
100
AcDbEntity
  8
PZT_SIDES
100
AcDbCircle
 10
156.2946020607
 20
183.6031647573
 30
0.0
 40
0.0300000000000011
100
AcDbArc
 50
0.0
 51
90.0
  0
ARC
  5
11C
330
1F
100
AcDbEntity
  8
PZT_RELEASE
100
AcDbCircle
 10
158.9546020607
 20
194.7631647573
 30
0.0
 40
0.0300000000000011
100
AcDbArc
 50
180.0
 51
270.0
  0
ARC
  5
11D
330
1F
100
AcDbEntity
  8
PZT_RELEASE
100
AcDbCircle
 10
159.6946020607
 20
194.7631647573
 30
0.0
 40
0.0300000000000296
100
AcDbArc
 50
270.0
 51
0.0
  0
ARC
  5
11E
330
1F
100
AcDbEntity
  8
PZT_RELEASE
100
AcDbCircle
 10
159.7546020607
 20
195.1031647573
 30
0.0
 40
0.0300000000000011
100
AcDbArc
 50
90.0000000001
 51
180.0
  0
CIRCLE
  5
11F
330
1F
100
AcDbEntity
  8
COPPER_A
100
AcDbCircle
 10
161.1918878207
 20
183.7997672336
 30
0.0
 40
0.3961532604650749
  0
ARC
  5
120
330
1F
100
AcDbEntity
  8
PZT
  6
Continuous
370
    25
100
AcDbCircle
 10
159.9987339352
 20
198.4457337587
 30
0.0
 40
0.0300000000000011
100
AcDbArc
 50
0.0
 51
90.0
  0
ARC
  5
121
330
1F
100
AcDbEntity
  8
PZT
  6
Continuous
370
    25
100
AcDbCircle
 10
160.0587339352
 20
197.5057337587
 30
0.0
 40
0.0300000000000011
100
AcDbArc
 50
180.0
 51
270.0
  0
ARC
  5
122
330
1F
100
AcDbEntity
  8
PZT
  6
Continuous
370
    25
100
AcDbCircle
 10
160.1487339352
 20
197.5057337587
 30
0.0
 40
0.0300000000000011
100
AcDbArc
 50
270.0
 51
0.0
  0
ARC
  5
123
330
1F
100
AcDbEntity
  8
PZT
  6
Continuous
370
    25
100
AcDbCircle
 10
160.2087339352
 20
198.4457337587
 30
0.0
 40
0.0300000000000011
100
AcDbArc
 50
90.0
 51
180.0
  0
ARC
  5
124
330
1F
100
AcDbEntity
  8
PZT
  6
Continuous
370
    25
100
AcDbCircle
 10
166.1487339352
 20
198.4457337587
 30
0.0
 40
0.0300000000000011
100
AcDbArc
 50
0.0
 51
90.0
  0
ARC
  5
125
330
1F
100
AcDbEntity
  8
PZT
  6
Continuous
370
    25
100
AcDbCircle
 10
166.2087339352
 20
197.5057337587
 30
0.0
 40
0.0300000000000011
100
AcDbArc
 50
180.0
 51
270.0
  0
ARC
  5
126
330
1F
100
AcDbEntity
  8
PZT
  6
Continuous
370
    25
100
AcDbCircle
 10
166.2987339352
 20
197.5057337587
 30
0.0
 40
0.0300000000000011
100
AcDbArc
 50
270.0
 51
0.0
  0
ARC
  5
127
330
1F
100
AcDbEntity
  8
PZT
  6
Continuous
370
    25
100
AcDbCircle
 10
166.3587339352
 20
198.4457337587
 30
0.0
 40
0.0300000000000011
100
AcDbArc
 50
90.0
 51
180.0
  0
ARC
  5
128
330
1F
100
AcDbEntity
  8
PZT
  6
Continuous
370
    25
100
AcDbCircle
 10
166.7987339352
 20
198.4457337587
 30
0.0
 40
0.0300000000000011
100
AcDbArc
 50
0.0
 51
90.0
  0
ARC
  5
129
330
1F
100
AcDbEntity
  8
PZT
  6
Continuous
370
    25
100
AcDbCircle
 10
166.7987339352
 20
197.0057337587
 30
0.0
 40
0.0300000000000011
100
AcDbArc
 50
270.0
 51
0.0
  0
ARC
  5
12A
330
1F
100
AcDbEntity
  8
PZT
  6
Continuous
370
    25
100
AcDbCircle
 10
166.4787339352
 20
196.6757337587
 30
0.0
 40
0.3000000000000114
100
AcDbArc
 50
90.0
 51
180.0
  0
ARC
  5
12B
330
1F
100
AcDbEntity
  8
PZT
  6
Continuous
370
    25
100
AcDbCircle
 10
166.1487339352
 20
196.4788497752
 30
0.0
 40
0.0300000000000164
100
AcDbArc
 50
348.1402208791
 51
0.0
  0
ARC
  5
12C
330
1F
100
AcDbEntity
  8
PZT
  6
Continuous
370
    25
100
AcDbCircle
 10
164.1087339352
 20
186.4726177422
 30
0.0
 40
0.0300000000000011
100
AcDbArc
 50
168.140220879
 51
180.0
  0
ARC
  5
12D
330
1F
100
AcDbEntity
  8
PZT
  6
Continuous
370
    25
100
AcDbCircle
 10
164.0487339352
 20
186.0057337587
 30
0.0
 40
0.0300000000000011
100
AcDbArc
 50
270.0
 51
0.0
  0
ARC
  5
12E
330
1F
100
AcDbEntity
  8
PZT
  6
Continuous
370
    25
100
AcDbCircle
 10
163.6087339352
 20
186.0057337587
 30
0.0
 40
0.0300000000000011
100
AcDbArc
 50
180.0
 51
270.0
  0
ARC
  5
12F
330
1F
100
AcDbEntity
  8
PZT
  6
Continuous
370
    25
100
AcDbCircle
 10
163.5487339352
 20
186.3457337587
 30
0.0
 40
0.0300000000000011
100
AcDbArc
 50
0.0
 51
90.0
  0
ARC
  5
130
330
1F
100
AcDbEntity
  8
PZT
  6
Continuous
370
    25
100
AcDbCircle
 10
162.8087339352
 20
186.3457337587
 30
0.0
 40
0.0300000000000011
100
AcDbArc
 50
90.0
 51
180.0
  0
ARC
  5
131
330
1F
100
AcDbEntity
  8
PZT
  6
Continuous
370
    25
100
AcDbCircle
 10
162.7487339352
 20
186.0057337587
 30
0.0
 40
0.0300000000000011
100
AcDbArc
 50
270.0
 51
0.0
  0
ARC
  5
132
330
1F
100
AcDbEntity
  8
PZT
  6
Continuous
370
    25
100
AcDbCircle
 10
162.3087339352
 20
186.0057337587
 30
0.0
 40
0.0300000000000011
100
AcDbArc
 50
180.0
 51
270.0
  0
ARC
  5
133
330
1F
100
AcDbEntity
  8
PZT
  6
Continuous
370
    25
100
AcDbCircle
 10
162.2487339352
 20
186.4726177422
 30
0.0
 40
0.0300000000000011
100
AcDbArc
 50
0.0
 51
11.859779121
  0
ARC
  5
134
330
1F
100
AcDbEntity
  8
PZT
  6
Continuous
370
    25
100
AcDbCircle
 10
160.2087339352
 20
196.4788497752
 30
0.0
 40
0.0299999999999885
100
AcDbArc
 50
180.0
 51
191.859779121
  0
ARC
  5
135
330
1F
100
AcDbEntity
  8
PZT
  6
Continuous
370
    25
100
AcDbCircle
 10
159.8787339352
 20
196.6757337587
 30
0.0
 40
0.3000000000000398
100
AcDbArc
 50
0.0
 51
90.0
  0
ARC
  5
136
330
1F
100
AcDbEntity
  8
PZT
  6
Continuous
370
    25
100
AcDbCircle
 10
159.5587339352
 20
197.0057337587
 30
0.0
 40
0.0300000000000011
100
AcDbArc
 50
180.0
 51
270.0
  0
ARC
  5
137
330
1F
100
AcDbEntity
  8
PZT
  6
Continuous
370
    25
100
AcDbCircle
 10
159.5587339352
 20
198.4457337587
 30
0.0
 40
0.0300000000000011
100
AcDbArc
 50
90.0
 51
180.0
  0
LINE
  5
138
330
1F
100
AcDbEntity
  8
PZT
  6
Continuous
370
    25
100
AcDbLine
 10
166.8287339352
 20
197.0057337587
 30
0.0
 11
166.8287339352
 21
198.4457337587
 31
0.0
  0
LINE
  5
139
330
1F
100
AcDbEntity
  8
PZT
  6
Continuous
370
    25
100
AcDbLine
 10
166.4787339352
 20
196.9757337587
 30
0.0
 11
166.7987339352
 21
196.9757337587
 31
0.0
  0
LINE
  5
13A
330
1F
100
AcDbEntity
  8
PZT
  6
Continuous
370
    25
100
AcDbLine
 10
166.1787339352
 20
196.4788497752
 30
0.0
 11
166.1787339352
 21
196.6757337587
 31
0.0
  0
LINE
  5
13B
330
1F
100
AcDbEntity
  8
PZT
  6
Continuous
370
    25
100
AcDbLine
 10
164.0793743303
 20
186.4787832592
 30
0.0
 11
166.1780935401
 21
196.4726842582
 31
0.0
  0
LINE
  5
13C
330
1F
100
AcDbEntity
  8
PZT
  6
Continuous
370
    25
100
AcDbLine
 10
164.0787339352
 20
186.0057337587
 30
0.0
 11
164.0787339352
 21
186.4726177422
 31
0.0
  0
LINE
  5
13D
330
1F
100
AcDbEntity
  8
PZT
  6
Continuous
370
    25
100
AcDbLine
 10
163.6087339352
 20
185.9757337587
 30
0.0
 11
164.0487339352
 21
185.9757337587
 31
0.0
  0
LINE
  5
13E
330
1F
100
AcDbEntity
  8
PZT
  6
Continuous
370
    25
100
AcDbLine
 10
163.5787339352
 20
186.3457337587
 30
0.0
 11
163.5787339352
 21
186.0057337587
 31
0.0
  0
LINE
  5
13F
330
1F
100
AcDbEntity
  8
PZT
  6
Continuous
370
    25
100
AcDbLine
 10
162.8087339352
 20
186.3757337587
 30
0.0
 11
163.5487339352
 21
186.3757337587
 31
0.0
  0
LINE
  5
140
330
1F
100
AcDbEntity
  8
PZT
  6
Continuous
370
    25
100
AcDbLine
 10
162.7787339352
 20
186.0057337587
 30
0.0
 11
162.7787339352
 21
186.3457337587
 31
0.0
  0
LINE
  5
141
330
1F
100
AcDbEntity
  8
PZT
  6
Continuous
370
    25
100
AcDbLine
 10
162.3087339352
 20
185.9757337587
 30
0.0
 11
162.7487339352
 21
185.9757337587
 31
0.0
  0
LINE
  5
142
330
1F
100
AcDbEntity
  8
PZT
  6
Continuous
370
    25
100
AcDbLine
 10
162.2787339352
 20
186.4726177422
 30
0.0
 11
162.2787339352
 21
186.0057337587
 31
0.0
  0
LINE
  5
143
330
1F
100
AcDbEntity
  8
PZT
  6
Continuous
370
    25
100
AcDbLine
 10
160.1793743303
 20
196.4726842582
 30
0.0
 11
162.2780935401
 21
186.4787832592
 31
0.0
  0
LINE
  5
144
330
1F
100
AcDbEntity
  8
PZT
  6
Continuous
370
    25
100
AcDbLine
 10
160.1787339352
 20
196.6757337587
 30
0.0
 11
160.1787339352
 21
196.4788497752
 31
0.0
  0
LINE
  5
145
330
1F
100
AcDbEntity
  8
PZT
  6
Continuous
370
    25
100
AcDbLine
 10
159.5587339352
 20
196.9757337587
 30
0.0
 11
159.8787339352
 21
196.9757337587
 31
0.0
  0
LINE
  5
146
330
1F
100
AcDbEntity
  8
PZT
  6
Continuous
370
    25
100
AcDbLine
 10
159.5287339352
 20
198.4457337587
 30
0.0
 11
159.5287339352
 21
197.0057337587
 31
0.0
  0
LINE
  5
147
330
1F
100
AcDbEntity
  8
PZT
  6
Continuous
370
    25
100
AcDbLine
 10
159.9987339352
 20
198.4757337587
 30
0.0
 11
159.5587339352
 21
198.4757337587
 31
0.0
  0
LINE
  5
148
330
1F
100
AcDbEntity
  8
PZT
  6
Continuous
370
    25
100
AcDbLine
 10
160.0287339352
 20
197.5057337587
 30
0.0
 11
160.0287339352
 21
198.4457337587
 31
0.0
  0
LINE
  5
149
330
1F
100
AcDbEntity
  8
PZT
  6
Continuous
370
    25
100
AcDbLine
 10
160.1487339352
 20
197.4757337587
 30
0.0
 11
160.0587339352
 21
197.4757337587
 31
0.0
  0
LINE
  5
14A
330
1F
100
AcDbEntity
  8
PZT
  6
Continuous
370
    25
100
AcDbLine
 10
160.1787339352
 20
198.4457337587
 30
0.0
 11
160.1787339352
 21
197.5057337587
 31
0.0
  0
LINE
  5
14B
330
1F
100
AcDbEntity
  8
PZT
  6
Continuous
370
    25
100
AcDbLine
 10
166.1487339352
 20
198.4757337587
 30
0.0
 11
160.2087339352
 21
198.4757337587
 31
0.0
  0
LINE
  5
14C
330
1F
100
AcDbEntity
  8
PZT
  6
Continuous
370
    25
100
AcDbLine
 10
166.1787339352
 20
197.5057337587
 30
0.0
 11
166.1787339352
 21
198.4457337587
 31
0.0
  0
LINE
  5
14D
330
1F
100
AcDbEntity
  8
PZT
  6
Continuous
370
    25
100
AcDbLine
 10
166.2987339352
 20
197.4757337587
 30
0.0
 11
166.2087339352
 21
197.4757337587
 31
0.0
  0
LINE
  5
14E
330
1F
100
AcDbEntity
  8
PZT
  6
Continuous
370
    25
100
AcDbLine
 10
166.3287339352
 20
198.4457337587
 30
0.0
 11
166.3287339352
 21
197.5057337587
 31
0.0
  0
LINE
  5
14F
330
1F
100
AcDbEntity
  8
PZT
  6
Continuous
370
    25
100
AcDbLine
 10
166.7987339352
 20
198.4757337587
 30
0.0
 11
166.3587339352
 21
198.4757337587
 31
0.0
  0
LINE
  5
150
330
1F
100
AcDbEntity
  8
CARBON
100
AcDbLine
 10
162.8114481752
 20
197.7091312824
 30
0.0
 11
161.3114481752
 21
197.7091312824
 31
0.0
  0
LINE
  5
151
330
1F
100
AcDbEntity
  8
CARBON
100
AcDbLine
 10
162.8114481752
 20
196.9091312824
 30
0.0
 11
161.3114481752
 21
196.9091312824
 31
0.0
  0
LINE
  5
152
330
1F
100
AcDbEntity
  8
PZT_RELEASE
100
AcDbLine
 10
166.9820091801
 20
198.4740180299
 30
0.0
 11
159.3635602009
 21
198.4740180299
 31
0.0
  0
LINE
  5
153
330
1F
100
AcDbEntity
  8
PZT_SIDES
100
AcDbLine
 10
164.0787339352
 20
186.4726177422
 30
0.0
 11
164.0787339352
 21
185.8726177422
 31
0.0
  0
LINE
  5
154
330
1F
100
AcDbEntity
  8
PZT_SIDES
100
AcDbLine
 10
162.2787339352
 20
186.4726177422
 30
0.0
 11
162.2787339352
 21
185.8726177422
 31
0.0
  0
LINE
  5
155
330
1F
100
AcDbEntity
  8
PZT_SIDES
100
AcDbLine
 10
164.0793743303
 20
186.4787832592
 30
0.0
 11
166.1780935401
 21
196.4726842582
 31
0.0
  0
LINE
  5
156
330
1F
100
AcDbEntity
  8
PZT_SIDES
100
AcDbLine
 10
162.2780935401
 20
186.4787832592
 30
0.0
 11
160.1793743303
 21
196.4726842582
 31
0.0
  0
LINE
  5
157
330
1F
100
AcDbEntity
  8
PZT_SIDES
100
AcDbLine
 10
160.1787339352
 20
196.4788497752
 30
0.0
 11
160.1787339352
 21
196.6757337587
 31
0.0
  0
LINE
  5
158
330
1F
100
AcDbEntity
  8
PZT_RASTER
100
AcDbLine
 10
164.0793743303
 20
186.4787832592
 30
0.0
 11
162.2804496639
 21
186.4787832592
 31
0.0
  0
LINE
  5
159
330
1F
100
AcDbEntity
  8
PZT_RASTER
100
AcDbLine
 10
164.0793743303
 20
186.4787832592
 30
0.0
 11
164.0793743303
 21
185.9774494874
 31
0.0
  0
LINE
  5
15A
330
1F
100
AcDbEntity
  8
PZT_RASTER
100
AcDbLine
 10
164.0793743303
 20
185.9774494874
 30
0.0
 11
162.2804496639
 21
185.9774494874
 31
0.0
  0
LINE
  5
15B
330
1F
100
AcDbEntity
  8
PZT_RASTER
100
AcDbLine
 10
162.2804496639
 20
186.4787832592
 30
0.0
 11
162.2804496639
 21
185.9774494874
 31
0.0
  0
LINE
  5
15C
330
1F
100
AcDbEntity
  8
PZT_SIDES
100
AcDbLine
 10
159.8787339352
 20
196.9757337587
 30
0.0
 11
159.5587339352
 21
196.9757337587
 31
0.0
  0
LINE
  5
15D
330
1F
100
AcDbEntity
  8
PZT_SIDES
100
AcDbLine
 10
159.5287339352
 20
197.0057337587
 30
0.0
 11
159.5287339352
 21
198.4457337587
 31
0.0
  0
LINE
  5
15E
330
1F
100
AcDbEntity
  8
PZT_SIDES
100
AcDbLine
 10
160.1487339352
 20
197.4757337587
 30
0.0
 11
160.0587339352
 21
197.4757337587
 31
0.0
  0
LINE
  5
15F
330
1F
100
AcDbEntity
  8
PZT_SIDES
100
AcDbLine
 10
160.0287339352
 20
197.5057337587
 30
0.0
 11
160.0287339352
 21
198.4457337587
 31
0.0
  0
LINE
  5
160
330
1F
100
AcDbEntity
  8
PZT_SIDES
100
AcDbLine
 10
159.9987339352
 20
198.4757337587
 30
0.0
 11
159.5587339352
 21
198.4757337587
 31
0.0
  0
LINE
  5
161
330
1F
100
AcDbEntity
  8
PZT_SIDES
100
AcDbLine
 10
160.1787339352
 20
197.5057337587
 30
0.0
 11
160.1787339352
 21
198.6057337587
 31
0.0
  0
LINE
  5
162
330
1F
100
AcDbEntity
  8
PZT_SIDES
100
AcDbLine
 10
166.1787339352
 20
196.4788497752
 30
0.0
 11
166.1787339352
 21
196.6757337587
 31
0.0
  0
LINE
  5
163
330
1F
100
AcDbEntity
  8
PZT_SIDES
100
AcDbLine
 10
166.4787339352
 20
196.9757337587
 30
0.0
 11
166.7987339352
 21
196.9757337587
 31
0.0
  0
LINE
  5
164
330
1F
100
AcDbEntity
  8
PZT_SIDES
100
AcDbLine
 10
166.8287339352
 20
197.0057337587
 30
0.0
 11
166.8287339352
 21
198.4457337587
 31
0.0
  0
LINE
  5
165
330
1F
100
AcDbEntity
  8
PZT_SIDES
100
AcDbLine
 10
166.7987339352
 20
198.4757337587
 30
0.0
 11
166.3587339352
 21
198.4757337587
 31
0.0
  0
LINE
  5
166
330
1F
100
AcDbEntity
  8
PZT_SIDES
100
AcDbLine
 10
166.3287339352
 20
198.4457337587
 30
0.0
 11
166.3287339352
 21
197.5057337587
 31
0.0
  0
LINE
  5
167
330
1F
100
AcDbEntity
  8
PZT_SIDES
100
AcDbLine
 10
166.2987339352
 20
197.4757337587
 30
0.0
 11
166.2087339352
 21
197.4757337587
 31
0.0
  0
LINE
  5
168
330
1F
100
AcDbEntity
  8
PZT_SIDES
100
AcDbLine
 10
166.1787339352
 20
197.5057337587
 30
0.0
 11
166.1787339352
 21
198.6057337587
 31
0.0
  0
LINE
  5
169
330
1F
100
AcDbEntity
  8
PZT_RELEASE
100
AcDbLine
 10
163.6087339352
 20
185.9757337587
 30
0.0
 11
164.1587339352
 21
185.9757337587
 31
0.0
  0
LINE
  5
16A
330
1F
100
AcDbEntity
  8
PZT_RELEASE
100
AcDbLine
 10
163.5787339352
 20
186.0057337587
 30
0.0
 11
163.5787339352
 21
186.3457337587
 31
0.0
  0
LINE
  5
16B
330
1F
100
AcDbEntity
  8
PZT_RELEASE
100
AcDbLine
 10
163.5487339352
 20
186.3757337587
 30
0.0
 11
162.8087339352
 21
186.3757337587
 31
0.0
  0
LINE
  5
16C
330
1F
100
AcDbEntity
  8
PZT_RELEASE
100
AcDbLine
 10
162.7787339352
 20
186.3457337587
 30
0.0
 11
162.7787339352
 21
186.0057337587
 31
0.0
  0
LINE
  5
16D
330
1F
100
AcDbEntity
  8
PZT_RASTER
100
AcDbLine
 10
159.5304496639
 20
198.4740180299
 30
0.0
 11
166.8477218975
 21
198.4740180299
 31
0.0
  0
LINE
  5
16E
330
1F
100
AcDbEntity
  8
PZT_RASTER
100
AcDbLine
 10
159.5304496639
 20
198.4740180299
 30
0.0
 11
159.5304496639
 21
196.4788497752
 31
0.0
  0
LINE
  5
16F
330
1F
100
AcDbEntity
  8
PZT_RASTER
100
AcDbLine
 10
159.5304496639
 20
196.4788497752
 30
0.0
 11
166.8477218975
 21
196.4788497752
 31
0.0
  0
LINE
  5
170
330
1F
100
AcDbEntity
  8
PZT_RASTER
100
AcDbLine
 10
166.8477218975
 20
198.4740180299
 30
0.0
 11
166.8477218975
 21
196.4788497752
 31
0.0
  0
LINE
  5
171
330
1F
100
AcDbEntity
  8
PZT_RELEASE
100
AcDbLine
 10
162.7487339352
 20
185.9757337587
 30
0.0
 11
162.1987339352
 21
185.9757337587
 31
0.0
  0
LINE
  5
172
330
1F
100
AcDbEntity
  8
COPPER_A
100
AcDbLine
 10
164.080137933
 20
185.9692092758
 30
0.0
 11
162.2809947673
 21
185.9692092758
 31
0.0
  0
LINE
  5
173
330
1F
100
AcDbEntity
  8
COPPER_A
100
AcDbLine
 10
164.080137933
 20
185.9692092758
 30
0.0
 11
164.080137933
 21
186.4726177422
 31
0.0
  0
LINE
  5
174
330
1F
100
AcDbEntity
  8
COPPER_A
100
AcDbLine
 10
164.080137933
 20
186.4726177422
 30
0.0
 11
162.2809947673
 21
186.4726177422
 31
0.0
  0
LINE
  5
175
330
1F
100
AcDbEntity
  8
COPPER_A
100
AcDbLine
 10
162.2809947673
 20
185.9692092758
 30
0.0
 11
162.2809947673
 21
186.4726177422
 31
0.0
  0
LINE
  5
176
330
1F
100
AcDbEntity
  8
COPPER_A
100
AcDbLine
 10
165.2443025677
 20
196.4788497752
 30
0.0
 11
165.7987878055
 21
197.8263658635
 31
0.0
  0
LINE
  5
177
330
1F
100
AcDbEntity
  8
COPPER_A
100
AcDbLine
 10
165.7987878055
 20
197.8263658635
 30
0.0
 11
166.9712930478
 21
197.8263658635
 31
0.0
  0
LINE
  5
178
330
1F
100
AcDbEntity
  8
COPPER_A
100
AcDbLine
 10
166.9712930478
 20
197.8263658635
 30
0.0
 11
166.9712930478
 21
198.6003348412
 31
0.0
  0
LINE
  5
179
330
1F
100
AcDbEntity
  8
COPPER_A
100
AcDbLine
 10
166.9712930478
 20
198.6003348412
 30
0.0
 11
159.2835862619
 21
198.6003348412
 31
0.0
  0
LINE
  5
17A
330
1F
100
AcDbEntity
  8
COPPER_A
100
AcDbLine
 10
159.2835862619
 20
198.6003348412
 30
0.0
 11
159.2835862619
 21
197.8667970787
 31
0.0
  0
LINE
  5
17B
330
1F
100
AcDbEntity
  8
COPPER_A
100
AcDbLine
 10
159.2835862619
 20
197.8667970787
 30
0.0
 11
161.7614421681
 21
197.8667970787
 31
0.0
  0
LINE
  5
17C
330
1F
100
AcDbEntity
  8
COPPER_A
100
AcDbLine
 10
161.7614421681
 20
197.8667970787
 30
0.0
 11
161.7614421681
 21
196.7578266032
 31
0.0
  0
LINE
  5
17D
330
1F
100
AcDbEntity
  8
COPPER_A
100
AcDbLine
 10
161.7614421681
 20
196.7578266032
 30
0.0
 11
160.0587339352
 21
196.7578266032
 31
0.0
  0
LINE
  5
17E
330
1F
100
AcDbEntity
  8
COPPER_A
100
AcDbLine
 10
160.0587339352
 20
196.7578266032
 30
0.0
 11
160.0587339352
 21
196.4788497752
 31
0.0
  0
LINE
  5
17F
330
1F
100
AcDbEntity
  8
COPPER_A
100
AcDbLine
 10
160.0587339352
 20
196.4788497752
 30
0.0
 11
165.2443025677
 21
196.4788497752
 31
0.0
  0
LINE
  5
180
330
1F
100
AcDbEntity
  8
COPPER_B
100
AcDbLine
 10
159.4239875432
 20
197.7852867749
 30
0.0
 11
160.4024898915
 21
197.7852867749
 31
0.0
  0
LINE
  5
181
330
1F
100
AcDbEntity
  8
COPPER_B
100
AcDbLine
 10
160.4024898915
 20
197.7852867749
 30
0.0
 11
161.0601754152
 21
196.4788497752
 31
0.0
  0
LINE
  5
182
330
1F
100
AcDbEntity
  8
COPPER_B
100
AcDbLine
 10
161.0601754152
 20
196.4788497752
 30
0.0
 11
165.0056595411
 21
196.4788497752
 31
0.0
  0
LINE
  5
183
330
1F
100
AcDbEntity
  8
COPPER_B
100
AcDbLine
 10
165.0056595411
 20
196.4788497752
 30
0.0
 11
165.0056595411
 21
197.8263658635
 31
0.0
  0
LINE
  5
184
330
1F
100
AcDbEntity
  8
COPPER_B
100
AcDbLine
 10
165.0056595411
 20
197.8263658635
 30
0.0
 11
165.3160446946
 21
197.8263658635
 31
0.0
  0
LINE
  5
185
330
1F
100
AcDbEntity
  8
COPPER_B
100
AcDbLine
 10
165.3160446946
 20
197.8263658635
 30
0.0
 11
165.3160446946
 21
196.7578266032
 31
0.0
  0
LINE
  5
186
330
1F
100
AcDbEntity
  8
COPPER_B
100
AcDbLine
 10
165.3160446946
 20
196.7578266032
 30
0.0
 11
166.4787339352
 21
196.7578266032
 31
0.0
  0
LINE
  5
187
330
1F
100
AcDbEntity
  8
COPPER_B
100
AcDbLine
 10
166.4787339352
 20
196.7578266032
 30
0.0
 11
166.4787339352
 21
196.9857337587
 31
0.0
  0
LINE
  5
188
330
1F
100
AcDbEntity
  8
COPPER_B
100
AcDbLine
 10
165.5790829603
 20
196.9657337587
 30
0.0
 11
165.5790829603
 21
197.8263658635
 31
0.0
  0
LINE
  5
189
330
1F
100
AcDbEntity
  8
COPPER_B
100
AcDbLine
 10
165.5790829603
 20
197.8263658635
 30
0.0
 11
166.9258388806
 21
197.8263658635
 31
0.0
  0
LINE
  5
18A
330
1F
100
AcDbEntity
  8
COPPER_B
100
AcDbLine
 10
166.9258388806
 20
197.8263658635
 30
0.0
 11
166.9258388806
 21
198.4957337587
 31
0.0
  0
LINE
  5
18B
330
1F
100
AcDbEntity
  8
COPPER_B
100
AcDbLine
 10
166.9258388806
 20
198.4957337587
 30
0.0
 11
159.4239875432
 21
198.4957337587
 31
0.0
  0
LINE
  5
18C
330
1F
100
AcDbEntity
  8
COPPER_B
100
AcDbLine
 10
159.4239875432
 20
198.4957337587
 30
0.0
 11
159.4239875432
 21
197.7852867749
 31
0.0
  0
LINE
  5
18D
330
1F
100
AcDbEntity
  8
COPPER_B
100
AcDbLine
 10
165.5790829603
 20
196.9657337587
 30
0.0
 11
166.4787339352
 21
196.9857337587
 31
0.0
  0
LINE
  5
18E
330
1F
100
AcDbEntity
  8
COPPER_B
100
AcDbLine
 10
164.0787339352
 20
185.9735428201
 30
0.0
 11
162.2809947673
 21
185.9735428201
 31
0.0
  0
LINE
  5
18F
330
1F
100
AcDbEntity
  8
COPPER_B
100
AcDbLine
 10
164.0787339352
 20
185.9735428201
 30
0.0
 11
164.0787339352
 21
186.4726177422
 31
0.0
  0
LINE
  5
190
330
1F
100
AcDbEntity
  8
COPPER_B
100
AcDbLine
 10
164.0787339352
 20
186.4726177422
 30
0.0
 11
162.2809947673
 21
186.4726177422
 31
0.0
  0
LINE
  5
191
330
1F
100
AcDbEntity
  8
COPPER_B
100
AcDbLine
 10
162.2809947673
 20
185.9735428201
 30
0.0
 11
162.2809947673
 21
186.4726177422
 31
0.0
  0
ARC
  5
192
330
1F
100
AcDbEntity
  8
CARBON
100
AcDbCircle
 10
162.8114481752
 20
197.3091312824
 30
0.0
 40
0.4000000000000057
100
AcDbArc
 50
270.0
 51
90.0
  0
ARC
  5
193
330
1F
100
AcDbEntity
  8
CARBON
100
AcDbCircle
 10
161.3114481752
 20
197.3091312824
 30
0.0
 40
0.4000000000000057
100
AcDbArc
 50
90.0
 51
270.0
  0
CIRCLE
  5
194
330
1F
100
AcDbEntity
  8
PZT_A
100
AcDbCircle
 10
161.3162373793
 20
197.3067787732
 30
0.0
 40
0.3749999999999758
  0
ARC
  5
195
330
1F
100
AcDbEntity
  8
PZT_RELEASE
100
AcDbCircle
 10
163.6087339352
 20
186.0057337587
 30
0.0
 40
0.0300000000000011
100
AcDbArc
 50
180.0
 51
270.0
  0
ARC
  5
196
330
1F
100
AcDbEntity
  8
PZT_SIDES
100
AcDbCircle
 10
160.2087339352
 20
196.4788497752
 30
0.0
 40
0.030000000000058
100
AcDbArc
 50
180.0
 51
191.8597791209
  0
ARC
  5
197
330
1F
100
AcDbEntity
  8
PZT_SIDES
100
AcDbCircle
 10
159.8787339352
 20
196.6757337587
 30
0.0
 40
0.3000000000000114
100
AcDbArc
 50
0.0
 51
90.0
  0
ARC
  5
198
330
1F
100
AcDbEntity
  8
PZT_SIDES
100
AcDbCircle
 10
159.5587339352
 20
197.0057337587
 30
0.0
 40
0.0300000000000011
100
AcDbArc
 50
180.0
 51
270.0
  0
ARC
  5
199
330
1F
100
AcDbEntity
  8
PZT_SIDES
100
AcDbCircle
 10
159.5587339352
 20
198.4457337587
 30
0.0
 40
0.0300000000000011
100
AcDbArc
 50
90.0
 51
180.0
  0
ARC
  5
19A
330
1F
100
AcDbEntity
  8
PZT_SIDES
100
AcDbCircle
 10
159.9987339352
 20
198.4457337587
 30
0.0
 40
0.0300000000000011
100
AcDbArc
 50
0.0
 51
90.0
  0
ARC
  5
19B
330
1F
100
AcDbEntity
  8
PZT_SIDES
100
AcDbCircle
 10
160.0587339352
 20
197.5057337587
 30
0.0
 40
0.0300000000000011
100
AcDbArc
 50
180.0
 51
270.0
  0
ARC
  5
19C
330
1F
100
AcDbEntity
  8
PZT_SIDES
100
AcDbCircle
 10
160.1487339352
 20
197.5057337587
 30
0.0
 40
0.0300000000000011
100
AcDbArc
 50
270.0
 51
0.0
  0
ARC
  5
19D
330
1F
100
AcDbEntity
  8
PZT_SIDES
100
AcDbCircle
 10
162.2487339352
 20
186.4726177422
 30
0.0
 40
0.0300000000000011
100
AcDbArc
 50
0.0
 51
11.859779121
  0
ARC
  5
19E
330
1F
100
AcDbEntity
  8
PZT_SIDES
100
AcDbCircle
 10
164.1087339352
 20
186.4726177422
 30
0.0
 40
0.0300000000000164
100
AcDbArc
 50
168.1402208791
 51
180.0
  0
ARC
  5
19F
330
1F
100
AcDbEntity
  8
PZT_SIDES
100
AcDbCircle
 10
166.1487339352
 20
196.4788497752
 30
0.0
 40
0.0300000000000011
100
AcDbArc
 50
348.140220879
 51
0.0
  0
ARC
  5
1A0
330
1F
100
AcDbEntity
  8
PZT_SIDES
100
AcDbCircle
 10
166.4787339352
 20
196.6757337587
 30
0.0
 40
0.3000000000000114
100
AcDbArc
 50
90.0
 51
180.0
  0
ARC
  5
1A1
330
1F
100
AcDbEntity
  8
PZT_SIDES
100
AcDbCircle
 10
166.7987339352
 20
197.0057337587
 30
0.0
 40
0.0300000000000011
100
AcDbArc
 50
270.0
 51
0.0
  0
ARC
  5
1A2
330
1F
100
AcDbEntity
  8
PZT_SIDES
100
AcDbCircle
 10
166.7987339352
 20
198.4457337587
 30
0.0
 40
0.0300000000000011
100
AcDbArc
 50
0.0
 51
90.0
  0
ARC
  5
1A3
330
1F
100
AcDbEntity
  8
PZT_SIDES
100
AcDbCircle
 10
166.3587339352
 20
198.4457337587
 30
0.0
 40
0.0300000000000011
100
AcDbArc
 50
90.0
 51
180.0
  0
ARC
  5
1A4
330
1F
100
AcDbEntity
  8
PZT_SIDES
100
AcDbCircle
 10
166.2987339352
 20
197.5057337587
 30
0.0
 40
0.0300000000000011
100
AcDbArc
 50
270.0
 51
0.0
  0
ARC
  5
1A5
330
1F
100
AcDbEntity
  8
PZT_SIDES
100
AcDbCircle
 10
166.2087339352
 20
197.5057337587
 30
0.0
 40
0.0300000000000011
100
AcDbArc
 50
180.0
 51
270.0000000001
  0
ARC
  5
1A6
330
1F
100
AcDbEntity
  8
PZT_RELEASE
100
AcDbCircle
 10
163.5487339352
 20
186.3457337587
 30
0.0
 40
0.0300000000000296
100
AcDbArc
 50
0.0
 51
90.0
  0
ARC
  5
1A7
330
1F
100
AcDbEntity
  8
PZT_RELEASE
100
AcDbCircle
 10
162.8087339352
 20
186.3457337587
 30
0.0
 40
0.0300000000000296
100
AcDbArc
 50
90.0
 51
180.0
  0
ARC
  5
1A8
330
1F
100
AcDbEntity
  8
PZT_RELEASE
100
AcDbCircle
 10
162.7487339352
 20
186.0057337587
 30
0.0
 40
0.0300000000000011
100
AcDbArc
 50
270.0
 51
0.0
  0
CIRCLE
  5
1A9
330
1F
100
AcDbEntity
  8
COPPER_A
100
AcDbCircle
 10
161.3114481752
 20
197.3091312824
 30
0.0
 40
0.3961532604650666
  0
ARC
  5
1AA
330
1F
100
AcDbEntity
  8
PZT
  6
Continuous
370
    25
100
AcDbCircle
 10
170.3712966758
 20
183.5988334514
 30
0.0
 40
0.0300000000000011
100
AcDbArc
 50
180.0
 51
270.0
  0
ARC
  5
1AB
330
1F
100
AcDbEntity
  8
PZT
  6
Continuous
370
    25
100
AcDbCircle
 10
170.3112966758
 20
184.5388334514
 30
0.0
 40
0.0300000000000011
100
AcDbArc
 50
0.0
 51
90.0
  0
ARC
  5
1AC
330
1F
100
AcDbEntity
  8
PZT
  6
Continuous
370
    25
100
AcDbCircle
 10
170.2212966758
 20
184.5388334514
 30
0.0
 40
0.0300000000000011
100
AcDbArc
 50
90.0
 51
180.0
  0
ARC
  5
1AD
330
1F
100
AcDbEntity
  8
PZT
  6
Continuous
370
    25
100
AcDbCircle
 10
170.1612966758
 20
183.5988334514
 30
0.0
 40
0.0300000000000011
100
AcDbArc
 50
270.0
 51
0.0
  0
ARC
  5
1AE
330
1F
100
AcDbEntity
  8
PZT
  6
Continuous
370
    25
100
AcDbCircle
 10
164.2212966758
 20
183.5988334514
 30
0.0
 40
0.0300000000000011
100
AcDbArc
 50
180.0
 51
270.0
  0
ARC
  5
1AF
330
1F
100
AcDbEntity
  8
PZT
  6
Continuous
370
    25
100
AcDbCircle
 10
164.1612966758
 20
184.5388334514
 30
0.0
 40
0.0300000000000011
100
AcDbArc
 50
0.0
 51
90.0
  0
ARC
  5
1B0
330
1F
100
AcDbEntity
  8
PZT
  6
Continuous
370
    25
100
AcDbCircle
 10
164.0712966758
 20
184.5388334514
 30
0.0
 40
0.0300000000000011
100
AcDbArc
 50
90.0
 51
180.0
  0
ARC
  5
1B1
330
1F
100
AcDbEntity
  8
PZT
  6
Continuous
370
    25
100
AcDbCircle
 10
164.0112966758
 20
183.5988334514
 30
0.0
 40
0.0300000000000011
100
AcDbArc
 50
270.0
 51
0.0
  0
ARC
  5
1B2
330
1F
100
AcDbEntity
  8
PZT
  6
Continuous
370
    25
100
AcDbCircle
 10
163.5712966758
 20
183.5988334514
 30
0.0
 40
0.0300000000000011
100
AcDbArc
 50
180.0
 51
270.0
  0
ARC
  5
1B3
330
1F
100
AcDbEntity
  8
PZT
  6
Continuous
370
    25
100
AcDbCircle
 10
163.5712966758
 20
185.0388334514
 30
0.0
 40
0.0300000000000011
100
AcDbArc
 50
90.0
 51
180.0
  0
ARC
  5
1B4
330
1F
100
AcDbEntity
  8
PZT
  6
Continuous
370
    25
100
AcDbCircle
 10
163.8912966758
 20
185.3688334514
 30
0.0
 40
0.3000000000000114
100
AcDbArc
 50
270.0
 51
0.0
  0
ARC
  5
1B5
330
1F
100
AcDbEntity
  8
PZT
  6
Continuous
370
    25
100
AcDbCircle
 10
164.2212966758
 20
185.5657174348
 30
0.0
 40
0.0300000000000011
100
AcDbArc
 50
168.140220879
 51
180.0
  0
ARC
  5
1B6
330
1F
100
AcDbEntity
  8
PZT
  6
Continuous
370
    25
100
AcDbCircle
 10
166.2612966758
 20
195.5719494679
 30
0.0
 40
0.0300000000000164
100
AcDbArc
 50
348.1402208791
 51
0.0
  0
ARC
  5
1B7
330
1F
100
AcDbEntity
  8
PZT
  6
Continuous
370
    25
100
AcDbCircle
 10
166.3212966758
 20
196.0388334514
 30
0.0
 40
0.0300000000000011
100
AcDbArc
 50
90.0
 51
180.0
  0
ARC
  5
1B8
330
1F
100
AcDbEntity
  8
PZT
  6
Continuous
370
    25
100
AcDbCircle
 10
166.7612966758
 20
196.0388334514
 30
0.0
 40
0.0300000000000011
100
AcDbArc
 50
0.0
 51
90.0
  0
ARC
  5
1B9
330
1F
100
AcDbEntity
  8
PZT
  6
Continuous
370
    25
100
AcDbCircle
 10
166.8212966758
 20
195.6988334514
 30
0.0
 40
0.0300000000000011
100
AcDbArc
 50
180.0
 51
270.0
  0
ARC
  5
1BA
330
1F
100
AcDbEntity
  8
PZT
  6
Continuous
370
    25
100
AcDbCircle
 10
167.5612966758
 20
195.6988334514
 30
0.0
 40
0.0300000000000011
100
AcDbArc
 50
270.0
 51
0.0
  0
ARC
  5
1BB
330
1F
100
AcDbEntity
  8
PZT
  6
Continuous
370
    25
100
AcDbCircle
 10
167.6212966758
 20
196.0388334514
 30
0.0
 40
0.0300000000000011
100
AcDbArc
 50
90.0
 51
180.0
  0
ARC
  5
1BC
330
1F
100
AcDbEntity
  8
PZT
  6
Continuous
370
    25
100
AcDbCircle
 10
168.0612966758
 20
196.0388334514
 30
0.0
 40
0.0300000000000011
100
AcDbArc
 50
0.0
 51
90.0
  0
ARC
  5
1BD
330
1F
100
AcDbEntity
  8
PZT
  6
Continuous
370
    25
100
AcDbCircle
 10
168.1212966758
 20
195.5719494679
 30
0.0
 40
0.0299999999999885
100
AcDbArc
 50
180.0
 51
191.859779121
  0
ARC
  5
1BE
330
1F
100
AcDbEntity
  8
PZT
  6
Continuous
370
    25
100
AcDbCircle
 10
170.1612966758
 20
185.5657174348
 30
0.0
 40
0.0300000000000164
100
AcDbArc
 50
0.0
 51
11.8597791209
  0
ARC
  5
1BF
330
1F
100
AcDbEntity
  8
PZT
  6
Continuous
370
    25
100
AcDbCircle
 10
170.4912966758
 20
185.3688334514
 30
0.0
 40
0.3000000000000114
100
AcDbArc
 50
180.0
 51
270.0
  0
ARC
  5
1C0
330
1F
100
AcDbEntity
  8
PZT
  6
Continuous
370
    25
100
AcDbCircle
 10
170.8112966758
 20
185.0388334514
 30
0.0
 40
0.0300000000000011
100
AcDbArc
 50
0.0
 51
90.0
  0
ARC
  5
1C1
330
1F
100
AcDbEntity
  8
PZT
  6
Continuous
370
    25
100
AcDbCircle
 10
170.8112966758
 20
183.5988334514
 30
0.0
 40
0.0300000000000011
100
AcDbArc
 50
270.0
 51
0.0
  0
LINE
  5
1C2
330
1F
100
AcDbEntity
  8
PZT
  6
Continuous
370
    25
100
AcDbLine
 10
163.5412966758
 20
185.0388334514
 30
0.0
 11
163.5412966758
 21
183.5988334514
 31
0.0
  0
LINE
  5
1C3
330
1F
100
AcDbEntity
  8
PZT
  6
Continuous
370
    25
100
AcDbLine
 10
163.8912966758
 20
185.0688334514
 30
0.0
 11
163.5712966758
 21
185.0688334514
 31
0.0
  0
LINE
  5
1C4
330
1F
100
AcDbEntity
  8
PZT
  6
Continuous
370
    25
100
AcDbLine
 10
164.1912966758
 20
185.5657174348
 30
0.0
 11
164.1912966758
 21
185.3688334514
 31
0.0
  0
LINE
  5
1C5
330
1F
100
AcDbEntity
  8
PZT
  6
Continuous
370
    25
100
AcDbLine
 10
166.2906562807
 20
195.5657839509
 30
0.0
 11
164.1919370709
 21
185.5718829519
 31
0.0
  0
LINE
  5
1C6
330
1F
100
AcDbEntity
  8
PZT
  6
Continuous
370
    25
100
AcDbLine
 10
166.2912966758
 20
196.0388334514
 30
0.0
 11
166.2912966758
 21
195.5719494679
 31
0.0
  0
LINE
  5
1C7
330
1F
100
AcDbEntity
  8
PZT
  6
Continuous
370
    25
100
AcDbLine
 10
166.7612966758
 20
196.0688334514
 30
0.0
 11
166.3212966758
 21
196.0688334514
 31
0.0
  0
LINE
  5
1C8
330
1F
100
AcDbEntity
  8
PZT
  6
Continuous
370
    25
100
AcDbLine
 10
166.7912966758
 20
195.6988334514
 30
0.0
 11
166.7912966758
 21
196.0388334514
 31
0.0
  0
LINE
  5
1C9
330
1F
100
AcDbEntity
  8
PZT
  6
Continuous
370
    25
100
AcDbLine
 10
167.5612966758
 20
195.6688334514
 30
0.0
 11
166.8212966758
 21
195.6688334514
 31
0.0
  0
LINE
  5
1CA
330
1F
100
AcDbEntity
  8
PZT
  6
Continuous
370
    25
100
AcDbLine
 10
167.5912966758
 20
196.0388334514
 30
0.0
 11
167.5912966758
 21
195.6988334514
 31
0.0
  0
LINE
  5
1CB
330
1F
100
AcDbEntity
  8
PZT
  6
Continuous
370
    25
100
AcDbLine
 10
168.0612966758
 20
196.0688334514
 30
0.0
 11
167.6212966758
 21
196.0688334514
 31
0.0
  0
LINE
  5
1CC
330
1F
100
AcDbEntity
  8
PZT
  6
Continuous
370
    25
100
AcDbLine
 10
168.0912966758
 20
195.5719494679
 30
0.0
 11
168.0912966758
 21
196.0388334514
 31
0.0
  0
LINE
  5
1CD
330
1F
100
AcDbEntity
  8
PZT
  6
Continuous
370
    25
100
AcDbLine
 10
170.1906562807
 20
185.5718829519
 30
0.0
 11
168.0919370709
 21
195.5657839509
 31
0.0
  0
LINE
  5
1CE
330
1F
100
AcDbEntity
  8
PZT
  6
Continuous
370
    25
100
AcDbLine
 10
170.1912966758
 20
185.3688334514
 30
0.0
 11
170.1912966758
 21
185.5657174348
 31
0.0
  0
LINE
  5
1CF
330
1F
100
AcDbEntity
  8
PZT
  6
Continuous
370
    25
100
AcDbLine
 10
170.8112966758
 20
185.0688334514
 30
0.0
 11
170.4912966758
 21
185.0688334514
 31
0.0
  0
LINE
  5
1D0
330
1F
100
AcDbEntity
  8
PZT
  6
Continuous
370
    25
100
AcDbLine
 10
170.8412966758
 20
183.5988334514
 30
0.0
 11
170.8412966758
 21
185.0388334514
 31
0.0
  0
LINE
  5
1D1
330
1F
100
AcDbEntity
  8
PZT
  6
Continuous
370
    25
100
AcDbLine
 10
170.3712966758
 20
183.5688334514
 30
0.0
 11
170.8112966758
 21
183.5688334514
 31
0.0
  0
LINE
  5
1D2
330
1F
100
AcDbEntity
  8
PZT
  6
Continuous
370
    25
100
AcDbLine
 10
170.3412966758
 20
184.5388334514
 30
0.0
 11
170.3412966758
 21
183.5988334514
 31
0.0
  0
LINE
  5
1D3
330
1F
100
AcDbEntity
  8
PZT
  6
Continuous
370
    25
100
AcDbLine
 10
170.2212966758
 20
184.5688334514
 30
0.0
 11
170.3112966758
 21
184.5688334514
 31
0.0
  0
LINE
  5
1D4
330
1F
100
AcDbEntity
  8
PZT
  6
Continuous
370
    25
100
AcDbLine
 10
170.1912966758
 20
183.5988334514
 30
0.0
 11
170.1912966758
 21
184.5388334514
 31
0.0
  0
LINE
  5
1D5
330
1F
100
AcDbEntity
  8
PZT
  6
Continuous
370
    25
100
AcDbLine
 10
164.2212966758
 20
183.5688334514
 30
0.0
 11
170.1612966758
 21
183.5688334514
 31
0.0
  0
LINE
  5
1D6
330
1F
100
AcDbEntity
  8
PZT
  6
Continuous
370
    25
100
AcDbLine
 10
164.1912966758
 20
184.5388334514
 30
0.0
 11
164.1912966758
 21
183.5988334514
 31
0.0
  0
LINE
  5
1D7
330
1F
100
AcDbEntity
  8
PZT
  6
Continuous
370
    25
100
AcDbLine
 10
164.0712966758
 20
184.5688334514
 30
0.0
 11
164.1612966758
 21
184.5688334514
 31
0.0
  0
LINE
  5
1D8
330
1F
100
AcDbEntity
  8
PZT
  6
Continuous
370
    25
100
AcDbLine
 10
164.0412966758
 20
183.5988334514
 30
0.0
 11
164.0412966758
 21
184.5388334514
 31
0.0
  0
LINE
  5
1D9
330
1F
100
AcDbEntity
  8
PZT
  6
Continuous
370
    25
100
AcDbLine
 10
163.5712966758
 20
183.5688334514
 30
0.0
 11
164.0112966758
 21
183.5688334514
 31
0.0
  0
LINE
  5
1DA
330
1F
100
AcDbEntity
  8
CARBON
100
AcDbLine
 10
167.5585824357
 20
184.3354359277
 30
0.0
 11
169.0585824357
 21
184.3354359277
 31
0.0
  0
LINE
  5
1DB
330
1F
100
AcDbEntity
  8
CARBON
100
AcDbLine
 10
167.5585824357
 20
185.1354359277
 30
0.0
 11
169.0585824357
 21
185.1354359277
 31
0.0
  0
LINE
  5
1DC
330
1F
100
AcDbEntity
  8
PZT_RELEASE
100
AcDbLine
 10
163.3880214309
 20
183.5705491801
 30
0.0
 11
171.0064704101
 21
183.5705491801
 31
0.0
  0
LINE
  5
1DD
330
1F
100
AcDbEntity
  8
PZT_SIDES
100
AcDbLine
 10
166.2912966758
 20
195.5719494679
 30
0.0
 11
166.2912966758
 21
196.1719494679
 31
0.0
  0
LINE
  5
1DE
330
1F
100
AcDbEntity
  8
PZT_SIDES
100
AcDbLine
 10
168.0912966758
 20
195.5719494679
 30
0.0
 11
168.0912966758
 21
196.1719494679
 31
0.0
  0
LINE
  5
1DF
330
1F
100
AcDbEntity
  8
PZT_SIDES
100
AcDbLine
 10
166.2906562807
 20
195.5657839509
 30
0.0
 11
164.1919370709
 21
185.5718829519
 31
0.0
  0
LINE
  5
1E0
330
1F
100
AcDbEntity
  8
PZT_SIDES
100
AcDbLine
 10
168.0919370709
 20
195.5657839509
 30
0.0
 11
170.1906562807
 21
185.5718829519
 31
0.0
  0
LINE
  5
1E1
330
1F
100
AcDbEntity
  8
PZT_SIDES
100
AcDbLine
 10
170.1912966758
 20
185.5657174348
 30
0.0
 11
170.1912966758
 21
185.3688334514
 31
0.0
  0
LINE
  5
1E2
330
1F
100
AcDbEntity
  8
PZT_RASTER
100
AcDbLine
 10
166.2906562807
 20
195.5657839509
 30
0.0
 11
168.089580947
 21
195.5657839509
 31
0.0
  0
LINE
  5
1E3
330
1F
100
AcDbEntity
  8
PZT_RASTER
100
AcDbLine
 10
166.2906562807
 20
195.5657839509
 30
0.0
 11
166.2906562807
 21
196.0671177226
 31
0.0
  0
LINE
  5
1E4
330
1F
100
AcDbEntity
  8
PZT_RASTER
100
AcDbLine
 10
166.2906562807
 20
196.0671177226
 30
0.0
 11
168.089580947
 21
196.0671177226
 31
0.0
  0
LINE
  5
1E5
330
1F
100
AcDbEntity
  8
PZT_RASTER
100
AcDbLine
 10
168.089580947
 20
195.5657839509
 30
0.0
 11
168.089580947
 21
196.0671177226
 31
0.0
  0
LINE
  5
1E6
330
1F
100
AcDbEntity
  8
PZT_SIDES
100
AcDbLine
 10
170.4912966758
 20
185.0688334514
 30
0.0
 11
170.8112966758
 21
185.0688334514
 31
0.0
  0
LINE
  5
1E7
330
1F
100
AcDbEntity
  8
PZT_SIDES
100
AcDbLine
 10
170.8412966758
 20
185.0388334514
 30
0.0
 11
170.8412966758
 21
183.5988334514
 31
0.0
  0
LINE
  5
1E8
330
1F
100
AcDbEntity
  8
PZT_SIDES
100
AcDbLine
 10
170.2212966758
 20
184.5688334514
 30
0.0
 11
170.3112966758
 21
184.5688334514
 31
0.0
  0
LINE
  5
1E9
330
1F
100
AcDbEntity
  8
PZT_SIDES
100
AcDbLine
 10
170.3412966758
 20
184.5388334514
 30
0.0
 11
170.3412966758
 21
183.5988334514
 31
0.0
  0
LINE
  5
1EA
330
1F
100
AcDbEntity
  8
PZT_SIDES
100
AcDbLine
 10
170.3712966758
 20
183.5688334514
 30
0.0
 11
170.8112966758
 21
183.5688334514
 31
0.0
  0
LINE
  5
1EB
330
1F
100
AcDbEntity
  8
PZT_SIDES
100
AcDbLine
 10
170.1912966758
 20
184.5388334514
 30
0.0
 11
170.1912966758
 21
183.4388334514
 31
0.0
  0
LINE
  5
1EC
330
1F
100
AcDbEntity
  8
PZT_SIDES
100
AcDbLine
 10
164.1912966758
 20
185.5657174348
 30
0.0
 11
164.1912966758
 21
185.3688334514
 31
0.0
  0
LINE
  5
1ED
330
1F
100
AcDbEntity
  8
PZT_SIDES
100
AcDbLine
 10
163.8912966758
 20
185.0688334514
 30
0.0
 11
163.5712966758
 21
185.0688334514
 31
0.0
  0
LINE
  5
1EE
330
1F
100
AcDbEntity
  8
PZT_SIDES
100
AcDbLine
 10
163.5412966758
 20
185.0388334514
 30
0.0
 11
163.5412966758
 21
183.5988334514
 31
0.0
  0
LINE
  5
1EF
330
1F
100
AcDbEntity
  8
PZT_SIDES
100
AcDbLine
 10
163.5712966758
 20
183.5688334514
 30
0.0
 11
164.0112966758
 21
183.5688334514
 31
0.0
  0
LINE
  5
1F0
330
1F
100
AcDbEntity
  8
PZT_SIDES
100
AcDbLine
 10
164.0412966758
 20
183.5988334514
 30
0.0
 11
164.0412966758
 21
184.5388334514
 31
0.0
  0
LINE
  5
1F1
330
1F
100
AcDbEntity
  8
PZT_SIDES
100
AcDbLine
 10
164.0712966758
 20
184.5688334514
 30
0.0
 11
164.1612966758
 21
184.5688334514
 31
0.0
  0
LINE
  5
1F2
330
1F
100
AcDbEntity
  8
PZT_SIDES
100
AcDbLine
 10
164.1912966758
 20
184.5388334514
 30
0.0
 11
164.1912966758
 21
183.4388334514
 31
0.0
  0
LINE
  5
1F3
330
1F
100
AcDbEntity
  8
PZT_RELEASE
100
AcDbLine
 10
166.7612966758
 20
196.0688334514
 30
0.0
 11
166.2112966758
 21
196.0688334514
 31
0.0
  0
LINE
  5
1F4
330
1F
100
AcDbEntity
  8
PZT_RELEASE
100
AcDbLine
 10
166.7912966758
 20
196.0388334514
 30
0.0
 11
166.7912966758
 21
195.6988334514
 31
0.0
  0
LINE
  5
1F5
330
1F
100
AcDbEntity
  8
PZT_RELEASE
100
AcDbLine
 10
166.8212966758
 20
195.6688334514
 30
0.0
 11
167.5612966758
 21
195.6688334514
 31
0.0
  0
LINE
  5
1F6
330
1F
100
AcDbEntity
  8
PZT_RELEASE
100
AcDbLine
 10
167.5912966758
 20
195.6988334514
 30
0.0
 11
167.5912966758
 21
196.0388334514
 31
0.0
  0
LINE
  5
1F7
330
1F
100
AcDbEntity
  8
PZT_RASTER
100
AcDbLine
 10
170.839580947
 20
183.5705491801
 30
0.0
 11
163.5223087134
 21
183.5705491801
 31
0.0
  0
LINE
  5
1F8
330
1F
100
AcDbEntity
  8
PZT_RASTER
100
AcDbLine
 10
170.839580947
 20
183.5705491801
 30
0.0
 11
170.839580947
 21
185.5657174348
 31
0.0
  0
LINE
  5
1F9
330
1F
100
AcDbEntity
  8
PZT_RASTER
100
AcDbLine
 10
170.839580947
 20
185.5657174348
 30
0.0
 11
163.5223087134
 21
185.5657174348
 31
0.0
  0
LINE
  5
1FA
330
1F
100
AcDbEntity
  8
PZT_RASTER
100
AcDbLine
 10
163.5223087134
 20
183.5705491801
 30
0.0
 11
163.5223087134
 21
185.5657174348
 31
0.0
  0
LINE
  5
1FB
330
1F
100
AcDbEntity
  8
PZT_RELEASE
100
AcDbLine
 10
167.6212966758
 20
196.0688334514
 30
0.0
 11
168.1712966758
 21
196.0688334514
 31
0.0
  0
LINE
  5
1FC
330
1F
100
AcDbEntity
  8
COPPER_A
100
AcDbLine
 10
166.2898926779
 20
196.0753579343
 30
0.0
 11
168.0890358436
 21
196.0753579343
 31
0.0
  0
LINE
  5
1FD
330
1F
100
AcDbEntity
  8
COPPER_A
100
AcDbLine
 10
166.2898926779
 20
196.0753579343
 30
0.0
 11
166.2898926779
 21
195.5719494679
 31
0.0
  0
LINE
  5
1FE
330
1F
100
AcDbEntity
  8
COPPER_A
100
AcDbLine
 10
166.2898926779
 20
195.5719494679
 30
0.0
 11
168.0890358436
 21
195.5719494679
 31
0.0
  0
LINE
  5
1FF
330
1F
100
AcDbEntity
  8
COPPER_A
100
AcDbLine
 10
168.0890358436
 20
196.0753579343
 30
0.0
 11
168.0890358436
 21
195.5719494679
 31
0.0
  0
LINE
  5
200
330
1F
100
AcDbEntity
  8
COPPER_A
100
AcDbLine
 10
165.1257280432
 20
185.5657174348
 30
0.0
 11
164.5712428055
 21
184.2182013466
 31
0.0
  0
LINE
  5
201
330
1F
100
AcDbEntity
  8
COPPER_A
100
AcDbLine
 10
164.5712428055
 20
184.2182013466
 30
0.0
 11
163.3987375632
 21
184.2182013466
 31
0.0
  0
LINE
  5
202
330
1F
100
AcDbEntity
  8
COPPER_A
100
AcDbLine
 10
163.3987375632
 20
184.2182013466
 30
0.0
 11
163.3987375632
 21
183.4442323689
 31
0.0
  0
LINE
  5
203
330
1F
100
AcDbEntity
  8
COPPER_A
100
AcDbLine
 10
163.3987375632
 20
183.4442323689
 30
0.0
 11
171.086444349
 21
183.4442323689
 31
0.0
  0
LINE
  5
204
330
1F
100
AcDbEntity
  8
COPPER_A
100
AcDbLine
 10
171.086444349
 20
183.4442323689
 30
0.0
 11
171.086444349
 21
184.1777701313
 31
0.0
  0
LINE
  5
205
330
1F
100
AcDbEntity
  8
COPPER_A
100
AcDbLine
 10
171.086444349
 20
184.1777701313
 30
0.0
 11
168.6085884429
 21
184.1777701313
 31
0.0
  0
LINE
  5
206
330
1F
100
AcDbEntity
  8
COPPER_A
100
AcDbLine
 10
168.6085884429
 20
184.1777701313
 30
0.0
 11
168.6085884429
 21
185.2867406068
 31
0.0
  0
LINE
  5
207
330
1F
100
AcDbEntity
  8
COPPER_A
100
AcDbLine
 10
168.6085884429
 20
185.2867406068
 30
0.0
 11
170.3112966758
 21
185.2867406068
 31
0.0
  0
LINE
  5
208
330
1F
100
AcDbEntity
  8
COPPER_A
100
AcDbLine
 10
170.3112966758
 20
185.2867406068
 30
0.0
 11
170.3112966758
 21
185.5657174348
 31
0.0
  0
LINE
  5
209
330
1F
100
AcDbEntity
  8
COPPER_A
100
AcDbLine
 10
170.3112966758
 20
185.5657174348
 30
0.0
 11
165.1257280432
 21
185.5657174348
 31
0.0
  0
LINE
  5
20A
330
1F
100
AcDbEntity
  8
COPPER_B
100
AcDbLine
 10
170.9460430678
 20
184.2592804351
 30
0.0
 11
169.9675407194
 21
184.2592804351
 31
0.0
  0
LINE
  5
20B
330
1F
100
AcDbEntity
  8
COPPER_B
100
AcDbLine
 10
169.9675407194
 20
184.2592804351
 30
0.0
 11
169.3098551957
 21
185.5657174348
 31
0.0
  0
LINE
  5
20C
330
1F
100
AcDbEntity
  8
COPPER_B
100
AcDbLine
 10
169.3098551957
 20
185.5657174348
 30
0.0
 11
165.3643710698
 21
185.5657174348
 31
0.0
  0
LINE
  5
20D
330
1F
100
AcDbEntity
  8
COPPER_B
100
AcDbLine
 10
165.3643710698
 20
185.5657174348
 30
0.0
 11
165.3643710698
 21
184.2182013466
 31
0.0
  0
LINE
  5
20E
330
1F
100
AcDbEntity
  8
COPPER_B
100
AcDbLine
 10
165.3643710698
 20
184.2182013466
 30
0.0
 11
165.0539859163
 21
184.2182013466
 31
0.0
  0
LINE
  5
20F
330
1F
100
AcDbEntity
  8
COPPER_B
100
AcDbLine
 10
165.0539859163
 20
184.2182013466
 30
0.0
 11
165.0539859163
 21
185.2867406068
 31
0.0
  0
LINE
  5
210
330
1F
100
AcDbEntity
  8
COPPER_B
100
AcDbLine
 10
165.0539859163
 20
185.2867406068
 30
0.0
 11
163.8912966758
 21
185.2867406068
 31
0.0
  0
LINE
  5
211
330
1F
100
AcDbEntity
  8
COPPER_B
100
AcDbLine
 10
163.8912966758
 20
185.2867406068
 30
0.0
 11
163.8912966758
 21
185.0588334514
 31
0.0
  0
LINE
  5
212
330
1F
100
AcDbEntity
  8
COPPER_B
100
AcDbLine
 10
164.7909476506
 20
185.0788334514
 30
0.0
 11
164.7909476506
 21
184.2182013466
 31
0.0
  0
LINE
  5
213
330
1F
100
AcDbEntity
  8
COPPER_B
100
AcDbLine
 10
164.7909476506
 20
184.2182013466
 30
0.0
 11
163.4441917303
 21
184.2182013466
 31
0.0
  0
LINE
  5
214
330
1F
100
AcDbEntity
  8
COPPER_B
100
AcDbLine
 10
163.4441917303
 20
184.2182013466
 30
0.0
 11
163.4441917303
 21
183.5488334514
 31
0.0
  0
LINE
  5
215
330
1F
100
AcDbEntity
  8
COPPER_B
100
AcDbLine
 10
163.4441917303
 20
183.5488334514
 30
0.0
 11
170.9460430678
 21
183.5488334514
 31
0.0
  0
LINE
  5
216
330
1F
100
AcDbEntity
  8
COPPER_B
100
AcDbLine
 10
170.9460430678
 20
183.5488334514
 30
0.0
 11
170.9460430678
 21
184.2592804351
 31
0.0
  0
LINE
  5
217
330
1F
100
AcDbEntity
  8
COPPER_B
100
AcDbLine
 10
164.7909476506
 20
185.0788334514
 30
0.0
 11
163.8912966758
 21
185.0588334514
 31
0.0
  0
LINE
  5
218
330
1F
100
AcDbEntity
  8
COPPER_B
100
AcDbLine
 10
166.2912966758
 20
196.0710243899
 30
0.0
 11
168.0890358436
 21
196.0710243899
 31
0.0
  0
LINE
  5
219
330
1F
100
AcDbEntity
  8
COPPER_B
100
AcDbLine
 10
166.2912966758
 20
196.0710243899
 30
0.0
 11
166.2912966758
 21
195.5719494679
 31
0.0
  0
LINE
  5
21A
330
1F
100
AcDbEntity
  8
COPPER_B
100
AcDbLine
 10
166.2912966758
 20
195.5719494679
 30
0.0
 11
168.0890358436
 21
195.5719494679
 31
0.0
  0
LINE
  5
21B
330
1F
100
AcDbEntity
  8
COPPER_B
100
AcDbLine
 10
168.0890358436
 20
196.0710243899
 30
0.0
 11
168.0890358436
 21
195.5719494679
 31
0.0
  0
ARC
  5
21C
330
1F
100
AcDbEntity
  8
CARBON
100
AcDbCircle
 10
167.5585824357
 20
184.7354359277
 30
0.0
 40
0.4000000000000057
100
AcDbArc
 50
90.0
 51
270.0
  0
ARC
  5
21D
330
1F
100
AcDbEntity
  8
CARBON
100
AcDbCircle
 10
169.0585824357
 20
184.7354359277
 30
0.0
 40
0.4000000000000057
100
AcDbArc
 50
270.0
 51
90.0
  0
CIRCLE
  5
21E
330
1F
100
AcDbEntity
  8
PZT_A
100
AcDbCircle
 10
169.0537932316
 20
184.7377884369
 30
0.0
 40
0.3749999999999947
  0
ARC
  5
21F
330
1F
100
AcDbEntity
  8
PZT_RELEASE
100
AcDbCircle
 10
166.7612966758
 20
196.0388334514
 30
0.0
 40
0.0300000000000011
100
AcDbArc
 50
0.0
 51
90.0
  0
ARC
  5
220
330
1F
100
AcDbEntity
  8
PZT_SIDES
100
AcDbCircle
 10
170.1612966758
 20
185.5657174348
 30
0.0
 40
0.030000000000072
100
AcDbArc
 50
0.0
 51
11.8597791209
  0
ARC
  5
221
330
1F
100
AcDbEntity
  8
PZT_SIDES
100
AcDbCircle
 10
170.4912966758
 20
185.3688334514
 30
0.0
 40
0.3000000000000114
100
AcDbArc
 50
180.0
 51
270.0
  0
ARC
  5
222
330
1F
100
AcDbEntity
  8
PZT_SIDES
100
AcDbCircle
 10
170.8112966758
 20
185.0388334514
 30
0.0
 40
0.0300000000000011
100
AcDbArc
 50
0.0
 51
90.0
  0
ARC
  5
223
330
1F
100
AcDbEntity
  8
PZT_SIDES
100
AcDbCircle
 10
170.8112966758
 20
183.5988334514
 30
0.0
 40
0.0300000000000011
100
AcDbArc
 50
270.0
 51
0.0
  0
ARC
  5
224
330
1F
100
AcDbEntity
  8
PZT_SIDES
100
AcDbCircle
 10
170.3712966758
 20
183.5988334514
 30
0.0
 40
0.0300000000000011
100
AcDbArc
 50
180.0
 51
270.0
  0
ARC
  5
225
330
1F
100
AcDbEntity
  8
PZT_SIDES
100
AcDbCircle
 10
170.3112966758
 20
184.5388334514
 30
0.0
 40
0.0300000000000011
100
AcDbArc
 50
0.0
 51
90.0
  0
ARC
  5
226
330
1F
100
AcDbEntity
  8
PZT_SIDES
100
AcDbCircle
 10
170.2212966758
 20
184.5388334514
 30
0.0
 40
0.0300000000000011
100
AcDbArc
 50
90.0
 51
180.0
  0
ARC
  5
227
330
1F
100
AcDbEntity
  8
PZT_SIDES
100
AcDbCircle
 10
168.1212966758
 20
195.5719494679
 30
0.0
 40
0.0300000000000164
100
AcDbArc
 50
180.0
 51
191.8597791209
  0
ARC
  5
228
330
1F
100
AcDbEntity
  8
PZT_SIDES
100
AcDbCircle
 10
166.2612966758
 20
195.5719494679
 30
0.0
 40
0.0300000000000164
100
AcDbArc
 50
348.1402208791
 51
0.0
  0
ARC
  5
229
330
1F
100
AcDbEntity
  8
PZT_SIDES
100
AcDbCircle
 10
164.2212966758
 20
185.5657174348
 30
0.0
 40
0.0300000000000011
100
AcDbArc
 50
168.140220879
 51
180.0
  0
ARC
  5
22A
330
1F
100
AcDbEntity
  8
PZT_SIDES
100
AcDbCircle
 10
163.8912966758
 20
185.3688334514
 30
0.0
 40
0.3000000000000114
100
AcDbArc
 50
270.0
 51
0.0
  0
ARC
  5
22B
330
1F
100
AcDbEntity
  8
PZT_SIDES
100
AcDbCircle
 10
163.5712966758
 20
185.0388334514
 30
0.0
 40
0.0300000000000011
100
AcDbArc
 50
90.0
 51
180.0
  0
ARC
  5
22C
330
1F
100
AcDbEntity
  8
PZT_SIDES
100
AcDbCircle
 10
163.5712966758
 20
183.5988334514
 30
0.0
 40
0.0300000000000011
100
AcDbArc
 50
180.0
 51
270.0
  0
ARC
  5
22D
330
1F
100
AcDbEntity
  8
PZT_SIDES
100
AcDbCircle
 10
164.0112966758
 20
183.5988334514
 30
0.0
 40
0.0300000000000011
100
AcDbArc
 50
270.0
 51
0.0
  0
ARC
  5
22E
330
1F
100
AcDbEntity
  8
PZT_SIDES
100
AcDbCircle
 10
164.0712966758
 20
184.5388334514
 30
0.0
 40
0.0300000000000011
100
AcDbArc
 50
90.0
 51
180.0
  0
ARC
  5
22F
330
1F
100
AcDbEntity
  8
PZT_SIDES
100
AcDbCircle
 10
164.1612966758
 20
184.5388334514
 30
0.0
 40
0.0300000000000011
100
AcDbArc
 50
0.0
 51
90.0
  0
ARC
  5
230
330
1F
100
AcDbEntity
  8
PZT_RELEASE
100
AcDbCircle
 10
166.8212966758
 20
195.6988334514
 30
0.0
 40
0.0300000000000011
100
AcDbArc
 50
180.0
 51
270.0
  0
ARC
  5
231
330
1F
100
AcDbEntity
  8
PZT_RELEASE
100
AcDbCircle
 10
167.5612966758
 20
195.6988334514
 30
0.0
 40
0.0300000000000011
100
AcDbArc
 50
270.0
 51
0.0
  0
ARC
  5
232
330
1F
100
AcDbEntity
  8
PZT_RELEASE
100
AcDbCircle
 10
167.6212966758
 20
196.0388334514
 30
0.0
 40
0.0300000000000011
100
AcDbArc
 50
90.0000000001
 51
180.0
  0
CIRCLE
  5
233
330
1F
100
AcDbEntity
  8
COPPER_A
100
AcDbCircle
 10
169.0585824357
 20
184.7354359277
 30
0.0
 40
0.3961532604650666
  0
ARC
  5
234
330
1F
100
AcDbEntity
  8
PZT
  6
Continuous
370
    25
100
AcDbCircle
 10
178.3348656118
 20
182.7915236421
 30
0.0
 40
0.0300000000000011
100
AcDbArc
 50
180.0
 51
270.0
  0
ARC
  5
235
330
1F
100
AcDbEntity
  8
PZT
  6
Continuous
370
    25
100
AcDbCircle
 10
178.2748656118
 20
183.7315236421
 30
0.0
 40
0.0300000000000011
100
AcDbArc
 50
0.0
 51
90.0
  0
ARC
  5
236
330
1F
100
AcDbEntity
  8
PZT
  6
Continuous
370
    25
100
AcDbCircle
 10
178.1848656118
 20
183.7315236421
 30
0.0
 40
0.0300000000000011
100
AcDbArc
 50
90.0
 51
180.0
  0
ARC
  5
237
330
1F
100
AcDbEntity
  8
PZT
  6
Continuous
370
    25
100
AcDbCircle
 10
178.1248656118
 20
182.7915236421
 30
0.0
 40
0.0300000000000011
100
AcDbArc
 50
270.0
 51
0.0
  0
ARC
  5
238
330
1F
100
AcDbEntity
  8
PZT
  6
Continuous
370
    25
100
AcDbCircle
 10
172.1848656118
 20
182.7915236421
 30
0.0
 40
0.0300000000000011
100
AcDbArc
 50
180.0
 51
270.0
  0
ARC
  5
239
330
1F
100
AcDbEntity
  8
PZT
  6
Continuous
370
    25
100
AcDbCircle
 10
172.1248656118
 20
183.7315236421
 30
0.0
 40
0.0300000000000011
100
AcDbArc
 50
0.0
 51
90.0
  0
ARC
  5
23A
330
1F
100
AcDbEntity
  8
PZT
  6
Continuous
370
    25
100
AcDbCircle
 10
172.0348656118
 20
183.7315236421
 30
0.0
 40
0.0300000000000011
100
AcDbArc
 50
90.0
 51
180.0
  0
ARC
  5
23B
330
1F
100
AcDbEntity
  8
PZT
  6
Continuous
370
    25
100
AcDbCircle
 10
171.9748656118
 20
182.7915236421
 30
0.0
 40
0.0300000000000011
100
AcDbArc
 50
270.0
 51
0.0
  0
ARC
  5
23C
330
1F
100
AcDbEntity
  8
PZT
  6
Continuous
370
    25
100
AcDbCircle
 10
171.5348656118
 20
182.7915236421
 30
0.0
 40
0.0300000000000011
100
AcDbArc
 50
180.0
 51
270.0
  0
ARC
  5
23D
330
1F
100
AcDbEntity
  8
PZT
  6
Continuous
370
    25
100
AcDbCircle
 10
171.5348656118
 20
184.2315236421
 30
0.0
 40
0.0300000000000011
100
AcDbArc
 50
90.0
 51
180.0
  0
ARC
  5
23E
330
1F
100
AcDbEntity
  8
PZT
  6
Continuous
370
    25
100
AcDbCircle
 10
171.8548656118
 20
184.5615236421
 30
0.0
 40
0.2999999999999829
100
AcDbArc
 50
270.0
 51
0.0
  0
ARC
  5
23F
330
1F
100
AcDbEntity
  8
PZT
  6
Continuous
370
    25
100
AcDbCircle
 10
172.1848656118
 20
184.7584076256
 30
0.0
 40
0.0300000000000011
100
AcDbArc
 50
168.140220879
 51
180.0
  0
ARC
  5
240
330
1F
100
AcDbEntity
  8
PZT
  6
Continuous
370
    25
100
AcDbCircle
 10
174.2248656118
 20
194.7646396586
 30
0.0
 40
0.0300000000000164
100
AcDbArc
 50
348.1402208791
 51
0.0
  0
ARC
  5
241
330
1F
100
AcDbEntity
  8
PZT
  6
Continuous
370
    25
100
AcDbCircle
 10
174.2848656118
 20
195.2315236421
 30
0.0
 40
0.0300000000000011
100
AcDbArc
 50
90.0
 51
180.0
  0
ARC
  5
242
330
1F
100
AcDbEntity
  8
PZT
  6
Continuous
370
    25
100
AcDbCircle
 10
174.7248656118
 20
195.2315236421
 30
0.0
 40
0.0300000000000011
100
AcDbArc
 50
0.0
 51
90.0
  0
ARC
  5
243
330
1F
100
AcDbEntity
  8
PZT
  6
Continuous
370
    25
100
AcDbCircle
 10
174.7848656118
 20
194.8915236421
 30
0.0
 40
0.0300000000000011
100
AcDbArc
 50
180.0
 51
270.0
  0
ARC
  5
244
330
1F
100
AcDbEntity
  8
PZT
  6
Continuous
370
    25
100
AcDbCircle
 10
175.5248656118
 20
194.8915236421
 30
0.0
 40
0.0300000000000011
100
AcDbArc
 50
270.0
 51
0.0
  0
ARC
  5
245
330
1F
100
AcDbEntity
  8
PZT
  6
Continuous
370
    25
100
AcDbCircle
 10
175.5848656118
 20
195.2315236421
 30
0.0
 40
0.0300000000000011
100
AcDbArc
 50
90.0
 51
180.0
  0
ARC
  5
246
330
1F
100
AcDbEntity
  8
PZT
  6
Continuous
370
    25
100
AcDbCircle
 10
176.0248656118
 20
195.2315236421
 30
0.0
 40
0.0300000000000011
100
AcDbArc
 50
0.0
 51
90.0
  0
ARC
  5
247
330
1F
100
AcDbEntity
  8
PZT
  6
Continuous
370
    25
100
AcDbCircle
 10
176.0848656118
 20
194.7646396586
 30
0.0
 40
0.0299999999999885
100
AcDbArc
 50
180.0
 51
191.859779121
  0
ARC
  5
248
330
1F
100
AcDbEntity
  8
PZT
  6
Continuous
370
    25
100
AcDbCircle
 10
178.1248656118
 20
184.7584076256
 30
0.0
 40
0.0300000000000011
100
AcDbArc
 50
0.0
 51
11.859779121
  0
ARC
  5
249
330
1F
100
AcDbEntity
  8
PZT
  6
Continuous
370
    25
100
AcDbCircle
 10
178.4548656118
 20
184.5615236421
 30
0.0
 40
0.3000000000000114
100
AcDbArc
 50
180.0
 51
270.0
  0
ARC
  5
24A
330
1F
100
AcDbEntity
  8
PZT
  6
Continuous
370
    25
100
AcDbCircle
 10
178.7748656118
 20
184.2315236421
 30
0.0
 40
0.0300000000000011
100
AcDbArc
 50
0.0
 51
90.0
  0
ARC
  5
24B
330
1F
100
AcDbEntity
  8
PZT
  6
Continuous
370
    25
100
AcDbCircle
 10
178.7748656118
 20
182.7915236421
 30
0.0
 40
0.0300000000000011
100
AcDbArc
 50
270.0
 51
0.0
  0
LINE
  5
24C
330
1F
100
AcDbEntity
  8
PZT
  6
Continuous
370
    25
100
AcDbLine
 10
171.5048656118
 20
184.2315236421
 30
0.0
 11
171.5048656118
 21
182.7915236421
 31
0.0
  0
LINE
  5
24D
330
1F
100
AcDbEntity
  8
PZT
  6
Continuous
370
    25
100
AcDbLine
 10
171.8548656118
 20
184.2615236421
 30
0.0
 11
171.5348656118
 21
184.2615236421
 31
0.0
  0
LINE
  5
24E
330
1F
100
AcDbEntity
  8
PZT
  6
Continuous
370
    25
100
AcDbLine
 10
172.1548656118
 20
184.7584076256
 30
0.0
 11
172.1548656118
 21
184.5615236421
 31
0.0
  0
LINE
  5
24F
330
1F
100
AcDbEntity
  8
PZT
  6
Continuous
370
    25
100
AcDbLine
 10
174.2542252167
 20
194.7584741416
 30
0.0
 11
172.1555060069
 21
184.7645731426
 31
0.0
  0
LINE
  5
250
330
1F
100
AcDbEntity
  8
PZT
  6
Continuous
370
    25
100
AcDbLine
 10
174.2548656118
 20
195.2315236421
 30
0.0
 11
174.2548656118
 21
194.7646396586
 31
0.0
  0
LINE
  5
251
330
1F
100
AcDbEntity
  8
PZT
  6
Continuous
370
    25
100
AcDbLine
 10
174.7248656118
 20
195.2615236421
 30
0.0
 11
174.2848656118
 21
195.2615236421
 31
0.0
  0
LINE
  5
252
330
1F
100
AcDbEntity
  8
PZT
  6
Continuous
370
    25
100
AcDbLine
 10
174.7548656118
 20
194.8915236421
 30
0.0
 11
174.7548656118
 21
195.2315236421
 31
0.0
  0
LINE
  5
253
330
1F
100
AcDbEntity
  8
PZT
  6
Continuous
370
    25
100
AcDbLine
 10
175.5248656118
 20
194.8615236421
 30
0.0
 11
174.7848656118
 21
194.8615236421
 31
0.0
  0
LINE
  5
254
330
1F
100
AcDbEntity
  8
PZT
  6
Continuous
370
    25
100
AcDbLine
 10
175.5548656118
 20
195.2315236421
 30
0.0
 11
175.5548656118
 21
194.8915236421
 31
0.0
  0
LINE
  5
255
330
1F
100
AcDbEntity
  8
PZT
  6
Continuous
370
    25
100
AcDbLine
 10
176.0248656118
 20
195.2615236421
 30
0.0
 11
175.5848656118
 21
195.2615236421
 31
0.0
  0
LINE
  5
256
330
1F
100
AcDbEntity
  8
PZT
  6
Continuous
370
    25
100
AcDbLine
 10
176.0548656118
 20
194.7646396586
 30
0.0
 11
176.0548656118
 21
195.2315236421
 31
0.0
  0
LINE
  5
257
330
1F
100
AcDbEntity
  8
PZT
  6
Continuous
370
    25
100
AcDbLine
 10
178.1542252167
 20
184.7645731426
 30
0.0
 11
176.0555060069
 21
194.7584741416
 31
0.0
  0
LINE
  5
258
330
1F
100
AcDbEntity
  8
PZT
  6
Continuous
370
    25
100
AcDbLine
 10
178.1548656118
 20
184.5615236421
 30
0.0
 11
178.1548656118
 21
184.7584076256
 31
0.0
  0
LINE
  5
259
330
1F
100
AcDbEntity
  8
PZT
  6
Continuous
370
    25
100
AcDbLine
 10
178.7748656118
 20
184.2615236421
 30
0.0
 11
178.4548656118
 21
184.2615236421
 31
0.0
  0
LINE
  5
25A
330
1F
100
AcDbEntity
  8
PZT
  6
Continuous
370
    25
100
AcDbLine
 10
178.8048656118
 20
182.7915236421
 30
0.0
 11
178.8048656118
 21
184.2315236421
 31
0.0
  0
LINE
  5
25B
330
1F
100
AcDbEntity
  8
PZT
  6
Continuous
370
    25
100
AcDbLine
 10
178.3348656118
 20
182.7615236421
 30
0.0
 11
178.7748656118
 21
182.7615236421
 31
0.0
  0
LINE
  5
25C
330
1F
100
AcDbEntity
  8
PZT
  6
Continuous
370
    25
100
AcDbLine
 10
178.3048656118
 20
183.7315236421
 30
0.0
 11
178.3048656118
 21
182.7915236421
 31
0.0
  0
LINE
  5
25D
330
1F
100
AcDbEntity
  8
PZT
  6
Continuous
370
    25
100
AcDbLine
 10
178.1848656118
 20
183.7615236421
 30
0.0
 11
178.2748656118
 21
183.7615236421
 31
0.0
  0
LINE
  5
25E
330
1F
100
AcDbEntity
  8
PZT
  6
Continuous
370
    25
100
AcDbLine
 10
178.1548656118
 20
182.7915236421
 30
0.0
 11
178.1548656118
 21
183.7315236421
 31
0.0
  0
LINE
  5
25F
330
1F
100
AcDbEntity
  8
PZT
  6
Continuous
370
    25
100
AcDbLine
 10
172.1848656118
 20
182.7615236421
 30
0.0
 11
178.1248656118
 21
182.7615236421
 31
0.0
  0
LINE
  5
260
330
1F
100
AcDbEntity
  8
PZT
  6
Continuous
370
    25
100
AcDbLine
 10
172.1548656118
 20
183.7315236421
 30
0.0
 11
172.1548656118
 21
182.7915236421
 31
0.0
  0
LINE
  5
261
330
1F
100
AcDbEntity
  8
PZT
  6
Continuous
370
    25
100
AcDbLine
 10
172.0348656118
 20
183.7615236421
 30
0.0
 11
172.1248656118
 21
183.7615236421
 31
0.0
  0
LINE
  5
262
330
1F
100
AcDbEntity
  8
PZT
  6
Continuous
370
    25
100
AcDbLine
 10
172.0048656118
 20
182.7915236421
 30
0.0
 11
172.0048656118
 21
183.7315236421
 31
0.0
  0
LINE
  5
263
330
1F
100
AcDbEntity
  8
PZT
  6
Continuous
370
    25
100
AcDbLine
 10
171.5348656118
 20
182.7615236421
 30
0.0
 11
171.9748656118
 21
182.7615236421
 31
0.0
  0
LINE
  5
264
330
1F
100
AcDbEntity
  8
CARBON
100
AcDbLine
 10
175.5221513717
 20
183.5281261184
 30
0.0
 11
177.0221513717
 21
183.5281261184
 31
0.0
  0
LINE
  5
265
330
1F
100
AcDbEntity
  8
CARBON
100
AcDbLine
 10
175.5221513717
 20
184.3281261184
 30
0.0
 11
177.0221513717
 21
184.3281261184
 31
0.0
  0
LINE
  5
266
330
1F
100
AcDbEntity
  8
PZT_RELEASE
100
AcDbLine
 10
171.3515903669
 20
182.7632393709
 30
0.0
 11
178.9700393461
 21
182.7632393709
 31
0.0
  0
LINE
  5
267
330
1F
100
AcDbEntity
  8
PZT_SIDES
100
AcDbLine
 10
174.2548656118
 20
194.7646396586
 30
0.0
 11
174.2548656118
 21
195.3646396586
 31
0.0
  0
LINE
  5
268
330
1F
100
AcDbEntity
  8
PZT_SIDES
100
AcDbLine
 10
176.0548656118
 20
194.7646396586
 30
0.0
 11
176.0548656118
 21
195.3646396586
 31
0.0
  0
LINE
  5
269
330
1F
100
AcDbEntity
  8
PZT_SIDES
100
AcDbLine
 10
174.2542252167
 20
194.7584741416
 30
0.0
 11
172.1555060069
 21
184.7645731426
 31
0.0
  0
LINE
  5
26A
330
1F
100
AcDbEntity
  8
PZT_SIDES
100
AcDbLine
 10
176.0555060069
 20
194.7584741416
 30
0.0
 11
178.1542252167
 21
184.7645731426
 31
0.0
  0
LINE
  5
26B
330
1F
100
AcDbEntity
  8
PZT_SIDES
100
AcDbLine
 10
178.1548656118
 20
184.7584076256
 30
0.0
 11
178.1548656118
 21
184.5615236421
 31
0.0
  0
LINE
  5
26C
330
1F
100
AcDbEntity
  8
PZT_RASTER
100
AcDbLine
 10
174.2542252167
 20
194.7584741416
 30
0.0
 11
176.053149883
 21
194.7584741416
 31
0.0
  0
LINE
  5
26D
330
1F
100
AcDbEntity
  8
PZT_RASTER
100
AcDbLine
 10
174.2542252167
 20
194.7584741416
 30
0.0
 11
174.2542252167
 21
195.2598079133
 31
0.0
  0
LINE
  5
26E
330
1F
100
AcDbEntity
  8
PZT_RASTER
100
AcDbLine
 10
174.2542252167
 20
195.2598079133
 30
0.0
 11
176.053149883
 21
195.2598079133
 31
0.0
  0
LINE
  5
26F
330
1F
100
AcDbEntity
  8
PZT_RASTER
100
AcDbLine
 10
176.053149883
 20
194.7584741416
 30
0.0
 11
176.053149883
 21
195.2598079133
 31
0.0
  0
LINE
  5
270
330
1F
100
AcDbEntity
  8
PZT_SIDES
100
AcDbLine
 10
178.4548656118
 20
184.2615236421
 30
0.0
 11
178.7748656118
 21
184.2615236421
 31
0.0
  0
LINE
  5
271
330
1F
100
AcDbEntity
  8
PZT_SIDES
100
AcDbLine
 10
178.8048656118
 20
184.2315236421
 30
0.0
 11
178.8048656118
 21
182.7915236421
 31
0.0
  0
LINE
  5
272
330
1F
100
AcDbEntity
  8
PZT_SIDES
100
AcDbLine
 10
178.1848656118
 20
183.7615236421
 30
0.0
 11
178.2748656118
 21
183.7615236421
 31
0.0
  0
LINE
  5
273
330
1F
100
AcDbEntity
  8
PZT_SIDES
100
AcDbLine
 10
178.3048656118
 20
183.7315236421
 30
0.0
 11
178.3048656118
 21
182.7915236421
 31
0.0
  0
LINE
  5
274
330
1F
100
AcDbEntity
  8
PZT_SIDES
100
AcDbLine
 10
178.3348656118
 20
182.7615236421
 30
0.0
 11
178.7748656118
 21
182.7615236421
 31
0.0
  0
LINE
  5
275
330
1F
100
AcDbEntity
  8
PZT_SIDES
100
AcDbLine
 10
178.1548656118
 20
183.7315236421
 30
0.0
 11
178.1548656118
 21
182.6315236421
 31
0.0
  0
LINE
  5
276
330
1F
100
AcDbEntity
  8
PZT_SIDES
100
AcDbLine
 10
172.1548656118
 20
184.7584076256
 30
0.0
 11
172.1548656118
 21
184.5615236421
 31
0.0
  0
LINE
  5
277
330
1F
100
AcDbEntity
  8
PZT_SIDES
100
AcDbLine
 10
171.8548656118
 20
184.2615236421
 30
0.0
 11
171.5348656118
 21
184.2615236421
 31
0.0
  0
LINE
  5
278
330
1F
100
AcDbEntity
  8
PZT_SIDES
100
AcDbLine
 10
171.5048656118
 20
184.2315236421
 30
0.0
 11
171.5048656118
 21
182.7915236421
 31
0.0
  0
LINE
  5
279
330
1F
100
AcDbEntity
  8
PZT_SIDES
100
AcDbLine
 10
171.5348656118
 20
182.7615236421
 30
0.0
 11
171.9748656118
 21
182.7615236421
 31
0.0
  0
LINE
  5
27A
330
1F
100
AcDbEntity
  8
PZT_SIDES
100
AcDbLine
 10
172.0048656118
 20
182.7915236421
 30
0.0
 11
172.0048656118
 21
183.7315236421
 31
0.0
  0
LINE
  5
27B
330
1F
100
AcDbEntity
  8
PZT_SIDES
100
AcDbLine
 10
172.0348656118
 20
183.7615236421
 30
0.0
 11
172.1248656118
 21
183.7615236421
 31
0.0
  0
LINE
  5
27C
330
1F
100
AcDbEntity
  8
PZT_SIDES
100
AcDbLine
 10
172.1548656118
 20
183.7315236421
 30
0.0
 11
172.1548656118
 21
182.6315236421
 31
0.0
  0
LINE
  5
27D
330
1F
100
AcDbEntity
  8
PZT_RELEASE
100
AcDbLine
 10
174.7248656118
 20
195.2615236421
 30
0.0
 11
174.1748656118
 21
195.2615236421
 31
0.0
  0
LINE
  5
27E
330
1F
100
AcDbEntity
  8
PZT_RELEASE
100
AcDbLine
 10
174.7548656118
 20
195.2315236421
 30
0.0
 11
174.7548656118
 21
194.8915236421
 31
0.0
  0
LINE
  5
27F
330
1F
100
AcDbEntity
  8
PZT_RELEASE
100
AcDbLine
 10
174.7848656118
 20
194.8615236421
 30
0.0
 11
175.5248656118
 21
194.8615236421
 31
0.0
  0
LINE
  5
280
330
1F
100
AcDbEntity
  8
PZT_RELEASE
100
AcDbLine
 10
175.5548656118
 20
194.8915236421
 30
0.0
 11
175.5548656118
 21
195.2315236421
 31
0.0
  0
LINE
  5
281
330
1F
100
AcDbEntity
  8
PZT_RASTER
100
AcDbLine
 10
178.803149883
 20
182.7632393709
 30
0.0
 11
171.4858776494
 21
182.7632393709
 31
0.0
  0
LINE
  5
282
330
1F
100
AcDbEntity
  8
PZT_RASTER
100
AcDbLine
 10
178.803149883
 20
182.7632393709
 30
0.0
 11
178.803149883
 21
184.7584076256
 31
0.0
  0
LINE
  5
283
330
1F
100
AcDbEntity
  8
PZT_RASTER
100
AcDbLine
 10
178.803149883
 20
184.7584076256
 30
0.0
 11
171.4858776494
 21
184.7584076256
 31
0.0
  0
LINE
  5
284
330
1F
100
AcDbEntity
  8
PZT_RASTER
100
AcDbLine
 10
171.4858776494
 20
182.7632393709
 30
0.0
 11
171.4858776494
 21
184.7584076256
 31
0.0
  0
LINE
  5
285
330
1F
100
AcDbEntity
  8
PZT_RELEASE
100
AcDbLine
 10
175.5848656118
 20
195.2615236421
 30
0.0
 11
176.1348656118
 21
195.2615236421
 31
0.0
  0
LINE
  5
286
330
1F
100
AcDbEntity
  8
COPPER_A
100
AcDbLine
 10
174.2534616139
 20
195.268048125
 30
0.0
 11
176.0526047796
 21
195.268048125
 31
0.0
  0
LINE
  5
287
330
1F
100
AcDbEntity
  8
COPPER_A
100
AcDbLine
 10
174.2534616139
 20
195.268048125
 30
0.0
 11
174.2534616139
 21
194.7646396586
 31
0.0
  0
LINE
  5
288
330
1F
100
AcDbEntity
  8
COPPER_A
100
AcDbLine
 10
174.2534616139
 20
194.7646396586
 30
0.0
 11
176.0526047796
 21
194.7646396586
 31
0.0
  0
LINE
  5
289
330
1F
100
AcDbEntity
  8
COPPER_A
100
AcDbLine
 10
176.0526047796
 20
195.268048125
 30
0.0
 11
176.0526047796
 21
194.7646396586
 31
0.0
  0
LINE
  5
28A
330
1F
100
AcDbEntity
  8
COPPER_A
100
AcDbLine
 10
173.0892969793
 20
184.7584076256
 30
0.0
 11
172.5348117415
 21
183.4108915373
 31
0.0
  0
LINE
  5
28B
330
1F
100
AcDbEntity
  8
COPPER_A
100
AcDbLine
 10
172.5348117415
 20
183.4108915373
 30
0.0
 11
171.3623064992
 21
183.4108915373
 31
0.0
  0
LINE
  5
28C
330
1F
100
AcDbEntity
  8
COPPER_A
100
AcDbLine
 10
171.3623064992
 20
183.4108915373
 30
0.0
 11
171.3623064992
 21
182.6369225596
 31
0.0
  0
LINE
  5
28D
330
1F
100
AcDbEntity
  8
COPPER_A
100
AcDbLine
 10
171.3623064992
 20
182.6369225596
 30
0.0
 11
179.0500132851
 21
182.6369225596
 31
0.0
  0
LINE
  5
28E
330
1F
100
AcDbEntity
  8
COPPER_A
100
AcDbLine
 10
179.0500132851
 20
182.6369225596
 30
0.0
 11
179.0500132851
 21
183.3704603221
 31
0.0
  0
LINE
  5
28F
330
1F
100
AcDbEntity
  8
COPPER_A
100
AcDbLine
 10
179.0500132851
 20
183.3704603221
 30
0.0
 11
176.5721573789
 21
183.3704603221
 31
0.0
  0
LINE
  5
290
330
1F
100
AcDbEntity
  8
COPPER_A
100
AcDbLine
 10
176.5721573789
 20
183.3704603221
 30
0.0
 11
176.5721573789
 21
184.4794307976
 31
0.0
  0
LINE
  5
291
330
1F
100
AcDbEntity
  8
COPPER_A
100
AcDbLine
 10
176.5721573789
 20
184.4794307976
 30
0.0
 11
178.2748656118
 21
184.4794307976
 31
0.0
  0
LINE
  5
292
330
1F
100
AcDbEntity
  8
COPPER_A
100
AcDbLine
 10
178.2748656118
 20
184.4794307976
 30
0.0
 11
178.2748656118
 21
184.7584076256
 31
0.0
  0
LINE
  5
293
330
1F
100
AcDbEntity
  8
COPPER_A
100
AcDbLine
 10
178.2748656118
 20
184.7584076256
 30
0.0
 11
173.0892969793
 21
184.7584076256
 31
0.0
  0
LINE
  5
294
330
1F
100
AcDbEntity
  8
COPPER_B
100
AcDbLine
 10
178.9096120038
 20
183.4519706259
 30
0.0
 11
177.9311096554
 21
183.4519706259
 31
0.0
  0
LINE
  5
295
330
1F
100
AcDbEntity
  8
COPPER_B
100
AcDbLine
 10
177.9311096554
 20
183.4519706259
 30
0.0
 11
177.2734241317
 21
184.7584076256
 31
0.0
  0
LINE
  5
296
330
1F
100
AcDbEntity
  8
COPPER_B
100
AcDbLine
 10
177.2734241317
 20
184.7584076256
 30
0.0
 11
173.3279400059
 21
184.7584076256
 31
0.0
  0
LINE
  5
297
330
1F
100
AcDbEntity
  8
COPPER_B
100
AcDbLine
 10
173.3279400059
 20
184.7584076256
 30
0.0
 11
173.3279400059
 21
183.4108915373
 31
0.0
  0
LINE
  5
298
330
1F
100
AcDbEntity
  8
COPPER_B
100
AcDbLine
 10
173.3279400059
 20
183.4108915373
 30
0.0
 11
173.0175548523
 21
183.4108915373
 31
0.0
  0
LINE
  5
299
330
1F
100
AcDbEntity
  8
COPPER_B
100
AcDbLine
 10
173.0175548523
 20
183.4108915373
 30
0.0
 11
173.0175548523
 21
184.4794307976
 31
0.0
  0
LINE
  5
29A
330
1F
100
AcDbEntity
  8
COPPER_B
100
AcDbLine
 10
173.0175548523
 20
184.4794307976
 30
0.0
 11
171.8548656118
 21
184.4794307976
 31
0.0
  0
LINE
  5
29B
330
1F
100
AcDbEntity
  8
COPPER_B
100
AcDbLine
 10
171.8548656118
 20
184.4794307976
 30
0.0
 11
171.8548656118
 21
184.2515236421
 31
0.0
  0
LINE
  5
29C
330
1F
100
AcDbEntity
  8
COPPER_B
100
AcDbLine
 10
172.7545165867
 20
184.2715236421
 30
0.0
 11
172.7545165867
 21
183.4108915373
 31
0.0
  0
LINE
  5
29D
330
1F
100
AcDbEntity
  8
COPPER_B
100
AcDbLine
 10
172.7545165867
 20
183.4108915373
 30
0.0
 11
171.4077606663
 21
183.4108915373
 31
0.0
  0
LINE
  5
29E
330
1F
100
AcDbEntity
  8
COPPER_B
100
AcDbLine
 10
171.4077606663
 20
183.4108915373
 30
0.0
 11
171.4077606663
 21
182.7415236421
 31
0.0
  0
LINE
  5
29F
330
1F
100
AcDbEntity
  8
COPPER_B
100
AcDbLine
 10
171.4077606663
 20
182.7415236421
 30
0.0
 11
178.9096120038
 21
182.7415236421
 31
0.0
  0
LINE
  5
2A0
330
1F
100
AcDbEntity
  8
COPPER_B
100
AcDbLine
 10
178.9096120038
 20
182.7415236421
 30
0.0
 11
178.9096120038
 21
183.4519706259
 31
0.0
  0
LINE
  5
2A1
330
1F
100
AcDbEntity
  8
COPPER_B
100
AcDbLine
 10
172.7545165867
 20
184.2715236421
 30
0.0
 11
171.8548656118
 21
184.2515236421
 31
0.0
  0
LINE
  5
2A2
330
1F
100
AcDbEntity
  8
COPPER_B
100
AcDbLine
 10
174.2548656118
 20
195.2637145807
 30
0.0
 11
176.0526047796
 21
195.2637145807
 31
0.0
  0
LINE
  5
2A3
330
1F
100
AcDbEntity
  8
COPPER_B
100
AcDbLine
 10
174.2548656118
 20
195.2637145807
 30
0.0
 11
174.2548656118
 21
194.7646396586
 31
0.0
  0
LINE
  5
2A4
330
1F
100
AcDbEntity
  8
COPPER_B
100
AcDbLine
 10
174.2548656118
 20
194.7646396586
 30
0.0
 11
176.0526047796
 21
194.7646396586
 31
0.0
  0
LINE
  5
2A5
330
1F
100
AcDbEntity
  8
COPPER_B
100
AcDbLine
 10
176.0526047796
 20
195.2637145807
 30
0.0
 11
176.0526047796
 21
194.7646396586
 31
0.0
  0
ARC
  5
2A6
330
1F
100
AcDbEntity
  8
CARBON
100
AcDbCircle
 10
175.5221513717
 20
183.9281261184
 30
0.0
 40
0.4000000000000341
100
AcDbArc
 50
90.0
 51
270.0
  0
ARC
  5
2A7
330
1F
100
AcDbEntity
  8
CARBON
100
AcDbCircle
 10
177.0221513717
 20
183.9281261184
 30
0.0
 40
0.4000000000000341
100
AcDbArc
 50
270.0
 51
90.0
  0
CIRCLE
  5
2A8
330
1F
100
AcDbEntity
  8
PZT_A
100
AcDbCircle
 10
177.0173621676
 20
183.9304786276
 30
0.0
 40
0.3749999999999947
  0
ARC
  5
2A9
330
1F
100
AcDbEntity
  8
PZT_RELEASE
100
AcDbCircle
 10
174.7248656118
 20
195.2315236421
 30
0.0
 40
0.0300000000000011
100
AcDbArc
 50
0.0
 51
90.0
  0
ARC
  5
2AA
330
1F
100
AcDbEntity
  8
PZT_SIDES
100
AcDbCircle
 10
178.1248656118
 20
184.7584076256
 30
0.0
 40
0.030000000000058
100
AcDbArc
 50
0.0000000001
 51
11.859779121
  0
ARC
  5
2AB
330
1F
100
AcDbEntity
  8
PZT_SIDES
100
AcDbCircle
 10
178.4548656118
 20
184.5615236421
 30
0.0
 40
0.3000000000000114
100
AcDbArc
 50
180.0
 51
270.0
  0
ARC
  5
2AC
330
1F
100
AcDbEntity
  8
PZT_SIDES
100
AcDbCircle
 10
178.7748656118
 20
184.2315236421
 30
0.0
 40
0.0300000000000011
100
AcDbArc
 50
0.0
 51
90.0
  0
ARC
  5
2AD
330
1F
100
AcDbEntity
  8
PZT_SIDES
100
AcDbCircle
 10
178.7748656118
 20
182.7915236421
 30
0.0
 40
0.0300000000000011
100
AcDbArc
 50
270.0
 51
0.0
  0
ARC
  5
2AE
330
1F
100
AcDbEntity
  8
PZT_SIDES
100
AcDbCircle
 10
178.3348656118
 20
182.7915236421
 30
0.0
 40
0.0300000000000011
100
AcDbArc
 50
180.0
 51
270.0
  0
ARC
  5
2AF
330
1F
100
AcDbEntity
  8
PZT_SIDES
100
AcDbCircle
 10
178.2748656118
 20
183.7315236421
 30
0.0
 40
0.0300000000000011
100
AcDbArc
 50
0.0
 51
90.0
  0
ARC
  5
2B0
330
1F
100
AcDbEntity
  8
PZT_SIDES
100
AcDbCircle
 10
178.1848656118
 20
183.7315236421
 30
0.0
 40
0.0300000000000011
100
AcDbArc
 50
90.0
 51
180.0
  0
ARC
  5
2B1
330
1F
100
AcDbEntity
  8
PZT_SIDES
100
AcDbCircle
 10
176.0848656118
 20
194.7646396586
 30
0.0
 40
0.0300000000000164
100
AcDbArc
 50
180.0
 51
191.8597791209
  0
ARC
  5
2B2
330
1F
100
AcDbEntity
  8
PZT_SIDES
100
AcDbCircle
 10
174.2248656118
 20
194.7646396586
 30
0.0
 40
0.0300000000000164
100
AcDbArc
 50
348.1402208791
 51
0.0
  0
ARC
  5
2B3
330
1F
100
AcDbEntity
  8
PZT_SIDES
100
AcDbCircle
 10
172.1848656118
 20
184.7584076256
 30
0.0
 40
0.0300000000000011
100
AcDbArc
 50
168.140220879
 51
180.0
  0
ARC
  5
2B4
330
1F
100
AcDbEntity
  8
PZT_SIDES
100
AcDbCircle
 10
171.8548656118
 20
184.5615236421
 30
0.0
 40
0.2999999999999829
100
AcDbArc
 50
270.0
 51
0.0
  0
ARC
  5
2B5
330
1F
100
AcDbEntity
  8
PZT_SIDES
100
AcDbCircle
 10
171.5348656118
 20
184.2315236421
 30
0.0
 40
0.0300000000000011
100
AcDbArc
 50
90.0
 51
180.0
  0
ARC
  5
2B6
330
1F
100
AcDbEntity
  8
PZT_SIDES
100
AcDbCircle
 10
171.5348656118
 20
182.7915236421
 30
0.0
 40
0.0300000000000011
100
AcDbArc
 50
180.0
 51
270.0
  0
ARC
  5
2B7
330
1F
100
AcDbEntity
  8
PZT_SIDES
100
AcDbCircle
 10
171.9748656118
 20
182.7915236421
 30
0.0
 40
0.0300000000000011
100
AcDbArc
 50
270.0
 51
0.0
  0
ARC
  5
2B8
330
1F
100
AcDbEntity
  8
PZT_SIDES
100
AcDbCircle
 10
172.0348656118
 20
183.7315236421
 30
0.0
 40
0.0300000000000011
100
AcDbArc
 50
90.0
 51
180.0
  0
ARC
  5
2B9
330
1F
100
AcDbEntity
  8
PZT_SIDES
100
AcDbCircle
 10
172.1248656118
 20
183.7315236421
 30
0.0
 40
0.0300000000000011
100
AcDbArc
 50
0.0
 51
90.0
  0
ARC
  5
2BA
330
1F
100
AcDbEntity
  8
PZT_RELEASE
100
AcDbCircle
 10
174.7848656118
 20
194.8915236421
 30
0.0
 40
0.0300000000000011
100
AcDbArc
 50
180.0
 51
270.0
  0
ARC
  5
2BB
330
1F
100
AcDbEntity
  8
PZT_RELEASE
100
AcDbCircle
 10
175.5248656118
 20
194.8915236421
 30
0.0
 40
0.0300000000000011
100
AcDbArc
 50
270.0
 51
0.0
  0
ARC
  5
2BC
330
1F
100
AcDbEntity
  8
PZT_RELEASE
100
AcDbCircle
 10
175.5848656118
 20
195.2315236421
 30
0.0
 40
0.0300000000000011
100
AcDbArc
 50
90.0000000001
 51
180.0
  0
CIRCLE
  5
2BD
330
1F
100
AcDbEntity
  8
COPPER_A
100
AcDbCircle
 10
177.0221513717
 20
183.9281261184
 30
0.0
 40
0.3961532604650666
  0
ARC
  5
2BE
330
1F
100
AcDbEntity
  8
PZT
  6
Continuous
370
    25
100
AcDbCircle
 10
168.0439224464
 20
198.4216401981
 30
0.0
 40
0.0300000000000011
100
AcDbArc
 50
0.0
 51
90.0
  0
ARC
  5
2BF
330
1F
100
AcDbEntity
  8
PZT
  6
Continuous
370
    25
100
AcDbCircle
 10
168.1039224464
 20
197.4816401981
 30
0.0
 40
0.0300000000000011
100
AcDbArc
 50
180.0
 51
270.0
  0
ARC
  5
2C0
330
1F
100
AcDbEntity
  8
PZT
  6
Continuous
370
    25
100
AcDbCircle
 10
168.1939224464
 20
197.4816401981
 30
0.0
 40
0.0300000000000011
100
AcDbArc
 50
270.0
 51
0.0
  0
ARC
  5
2C1
330
1F
100
AcDbEntity
  8
PZT
  6
Continuous
370
    25
100
AcDbCircle
 10
168.2539224464
 20
198.4216401981
 30
0.0
 40
0.0300000000000011
100
AcDbArc
 50
90.0
 51
180.0
  0
ARC
  5
2C2
330
1F
100
AcDbEntity
  8
PZT
  6
Continuous
370
    25
100
AcDbCircle
 10
174.1939224464
 20
198.4216401981
 30
0.0
 40
0.0300000000000011
100
AcDbArc
 50
0.0
 51
90.0
  0
ARC
  5
2C3
330
1F
100
AcDbEntity
  8
PZT
  6
Continuous
370
    25
100
AcDbCircle
 10
174.2539224464
 20
197.4816401981
 30
0.0
 40
0.0300000000000011
100
AcDbArc
 50
180.0
 51
270.0
  0
ARC
  5
2C4
330
1F
100
AcDbEntity
  8
PZT
  6
Continuous
370
    25
100
AcDbCircle
 10
174.3439224464
 20
197.4816401981
 30
0.0
 40
0.0300000000000011
100
AcDbArc
 50
270.0
 51
0.0
  0
ARC
  5
2C5
330
1F
100
AcDbEntity
  8
PZT
  6
Continuous
370
    25
100
AcDbCircle
 10
174.4039224464
 20
198.4216401981
 30
0.0
 40
0.0300000000000011
100
AcDbArc
 50
90.0
 51
180.0
  0
ARC
  5
2C6
330
1F
100
AcDbEntity
  8
PZT
  6
Continuous
370
    25
100
AcDbCircle
 10
174.8439224464
 20
198.4216401981
 30
0.0
 40
0.0300000000000011
100
AcDbArc
 50
0.0
 51
90.0
  0
ARC
  5
2C7
330
1F
100
AcDbEntity
  8
PZT
  6
Continuous
370
    25
100
AcDbCircle
 10
174.8439224464
 20
196.9816401981
 30
0.0
 40
0.0300000000000011
100
AcDbArc
 50
270.0
 51
0.0
  0
ARC
  5
2C8
330
1F
100
AcDbEntity
  8
PZT
  6
Continuous
370
    25
100
AcDbCircle
 10
174.5239224464
 20
196.6516401981
 30
0.0
 40
0.3000000000000114
100
AcDbArc
 50
90.0
 51
180.0
  0
ARC
  5
2C9
330
1F
100
AcDbEntity
  8
PZT
  6
Continuous
370
    25
100
AcDbCircle
 10
174.1939224464
 20
196.4547562147
 30
0.0
 40
0.0300000000000105
100
AcDbArc
 50
348.1402208791
 51
0.0
  0
ARC
  5
2CA
330
1F
100
AcDbEntity
  8
PZT
  6
Continuous
370
    25
100
AcDbCircle
 10
172.1539224464
 20
186.4485241816
 30
0.0
 40
0.0300000000000011
100
AcDbArc
 50
168.140220879
 51
180.0
  0
ARC
  5
2CB
330
1F
100
AcDbEntity
  8
PZT
  6
Continuous
370
    25
100
AcDbCircle
 10
172.0939224464
 20
185.9816401981
 30
0.0
 40
0.0300000000000011
100
AcDbArc
 50
270.0
 51
0.0
  0
ARC
  5
2CC
330
1F
100
AcDbEntity
  8
PZT
  6
Continuous
370
    25
100
AcDbCircle
 10
171.6539224464
 20
185.9816401981
 30
0.0
 40
0.0300000000000011
100
AcDbArc
 50
180.0
 51
270.0
  0
ARC
  5
2CD
330
1F
100
AcDbEntity
  8
PZT
  6
Continuous
370
    25
100
AcDbCircle
 10
171.5939224464
 20
186.3216401981
 30
0.0
 40
0.0300000000000011
100
AcDbArc
 50
0.0
 51
90.0
  0
ARC
  5
2CE
330
1F
100
AcDbEntity
  8
PZT
  6
Continuous
370
    25
100
AcDbCircle
 10
170.8539224464
 20
186.3216401981
 30
0.0
 40
0.0300000000000011
100
AcDbArc
 50
90.0
 51
180.0
  0
ARC
  5
2CF
330
1F
100
AcDbEntity
  8
PZT
  6
Continuous
370
    25
100
AcDbCircle
 10
170.7939224464
 20
185.9816401981
 30
0.0
 40
0.0300000000000011
100
AcDbArc
 50
270.0
 51
0.0
  0
ARC
  5
2D0
330
1F
100
AcDbEntity
  8
PZT
  6
Continuous
370
    25
100
AcDbCircle
 10
170.3539224464
 20
185.9816401981
 30
0.0
 40
0.0300000000000011
100
AcDbArc
 50
180.0
 51
270.0
  0
ARC
  5
2D1
330
1F
100
AcDbEntity
  8
PZT
  6
Continuous
370
    25
100
AcDbCircle
 10
170.2939224464
 20
186.4485241816
 30
0.0
 40
0.0300000000000011
100
AcDbArc
 50
0.0
 51
11.859779121
  0
ARC
  5
2D2
330
1F
100
AcDbEntity
  8
PZT
  6
Continuous
370
    25
100
AcDbCircle
 10
168.2539224464
 20
196.4547562147
 30
0.0
 40
0.0299999999999827
100
AcDbArc
 50
180.0
 51
191.8597791209
  0
ARC
  5
2D3
330
1F
100
AcDbEntity
  8
PZT
  6
Continuous
370
    25
100
AcDbCircle
 10
167.9239224464
 20
196.6516401981
 30
0.0
 40
0.3000000000000398
100
AcDbArc
 50
0.0
 51
90.0
  0
ARC
  5
2D4
330
1F
100
AcDbEntity
  8
PZT
  6
Continuous
370
    25
100
AcDbCircle
 10
167.6039224464
 20
196.9816401981
 30
0.0
 40
0.0300000000000011
100
AcDbArc
 50
180.0
 51
270.0
  0
ARC
  5
2D5
330
1F
100
AcDbEntity
  8
PZT
  6
Continuous
370
    25
100
AcDbCircle
 10
167.6039224464
 20
198.4216401981
 30
0.0
 40
0.0300000000000011
100
AcDbArc
 50
90.0
 51
180.0
  0
LINE
  5
2D6
330
1F
100
AcDbEntity
  8
PZT
  6
Continuous
370
    25
100
AcDbLine
 10
174.8739224464
 20
196.9816401981
 30
0.0
 11
174.8739224464
 21
198.4216401981
 31
0.0
  0
LINE
  5
2D7
330
1F
100
AcDbEntity
  8
PZT
  6
Continuous
370
    25
100
AcDbLine
 10
174.5239224464
 20
196.9516401981
 30
0.0
 11
174.8439224464
 21
196.9516401981
 31
0.0
  0
LINE
  5
2D8
330
1F
100
AcDbEntity
  8
PZT
  6
Continuous
370
    25
100
AcDbLine
 10
174.2239224464
 20
196.4547562147
 30
0.0
 11
174.2239224464
 21
196.6516401981
 31
0.0
  0
LINE
  5
2D9
330
1F
100
AcDbEntity
  8
PZT
  6
Continuous
370
    25
100
AcDbLine
 10
172.1245628415
 20
186.4546896986
 30
0.0
 11
174.2232820512
 21
196.4485906977
 31
0.0
  0
LINE
  5
2DA
330
1F
100
AcDbEntity
  8
PZT
  6
Continuous
370
    25
100
AcDbLine
 10
172.1239224464
 20
185.9816401981
 30
0.0
 11
172.1239224464
 21
186.4485241816
 31
0.0
  0
LINE
  5
2DB
330
1F
100
AcDbEntity
  8
PZT
  6
Continuous
370
    25
100
AcDbLine
 10
171.6539224464
 20
185.9516401981
 30
0.0
 11
172.0939224464
 21
185.9516401981
 31
0.0
  0
LINE
  5
2DC
330
1F
100
AcDbEntity
  8
PZT
  6
Continuous
370
    25
100
AcDbLine
 10
171.6239224464
 20
186.3216401981
 30
0.0
 11
171.6239224464
 21
185.9816401981
 31
0.0
  0
LINE
  5
2DD
330
1F
100
AcDbEntity
  8
PZT
  6
Continuous
370
    25
100
AcDbLine
 10
170.8539224464
 20
186.3516401981
 30
0.0
 11
171.5939224464
 21
186.3516401981
 31
0.0
  0
LINE
  5
2DE
330
1F
100
AcDbEntity
  8
PZT
  6
Continuous
370
    25
100
AcDbLine
 10
170.8239224464
 20
185.9816401981
 30
0.0
 11
170.8239224464
 21
186.3216401981
 31
0.0
  0
LINE
  5
2DF
330
1F
100
AcDbEntity
  8
PZT
  6
Continuous
370
    25
100
AcDbLine
 10
170.3539224464
 20
185.9516401981
 30
0.0
 11
170.7939224464
 21
185.9516401981
 31
0.0
  0
LINE
  5
2E0
330
1F
100
AcDbEntity
  8
PZT
  6
Continuous
370
    25
100
AcDbLine
 10
170.3239224464
 20
186.4485241816
 30
0.0
 11
170.3239224464
 21
185.9816401981
 31
0.0
  0
LINE
  5
2E1
330
1F
100
AcDbEntity
  8
PZT
  6
Continuous
370
    25
100
AcDbLine
 10
168.2245628415
 20
196.4485906977
 30
0.0
 11
170.3232820512
 21
186.4546896986
 31
0.0
  0
LINE
  5
2E2
330
1F
100
AcDbEntity
  8
PZT
  6
Continuous
370
    25
100
AcDbLine
 10
168.2239224464
 20
196.6516401981
 30
0.0
 11
168.2239224464
 21
196.4547562147
 31
0.0
  0
LINE
  5
2E3
330
1F
100
AcDbEntity
  8
PZT
  6
Continuous
370
    25
100
AcDbLine
 10
167.6039224464
 20
196.9516401981
 30
0.0
 11
167.9239224464
 21
196.9516401981
 31
0.0
  0
LINE
  5
2E4
330
1F
100
AcDbEntity
  8
PZT
  6
Continuous
370
    25
100
AcDbLine
 10
167.5739224464
 20
198.4216401981
 30
0.0
 11
167.5739224464
 21
196.9816401981
 31
0.0
  0
LINE
  5
2E5
330
1F
100
AcDbEntity
  8
PZT
  6
Continuous
370
    25
100
AcDbLine
 10
168.0439224464
 20
198.4516401981
 30
0.0
 11
167.6039224464
 21
198.4516401981
 31
0.0
  0
LINE
  5
2E6
330
1F
100
AcDbEntity
  8
PZT
  6
Continuous
370
    25
100
AcDbLine
 10
168.0739224464
 20
197.4816401981
 30
0.0
 11
168.0739224464
 21
198.4216401981
 31
0.0
  0
LINE
  5
2E7
330
1F
100
AcDbEntity
  8
PZT
  6
Continuous
370
    25
100
AcDbLine
 10
168.1939224464
 20
197.4516401981
 30
0.0
 11
168.1039224464
 21
197.4516401981
 31
0.0
  0
LINE
  5
2E8
330
1F
100
AcDbEntity
  8
PZT
  6
Continuous
370
    25
100
AcDbLine
 10
168.2239224464
 20
198.4216401981
 30
0.0
 11
168.2239224464
 21
197.4816401981
 31
0.0
  0
LINE
  5
2E9
330
1F
100
AcDbEntity
  8
PZT
  6
Continuous
370
    25
100
AcDbLine
 10
174.1939224464
 20
198.4516401981
 30
0.0
 11
168.2539224464
 21
198.4516401981
 31
0.0
  0
LINE
  5
2EA
330
1F
100
AcDbEntity
  8
PZT
  6
Continuous
370
    25
100
AcDbLine
 10
174.2239224464
 20
197.4816401981
 30
0.0
 11
174.2239224464
 21
198.4216401981
 31
0.0
  0
LINE
  5
2EB
330
1F
100
AcDbEntity
  8
PZT
  6
Continuous
370
    25
100
AcDbLine
 10
174.3439224464
 20
197.4516401981
 30
0.0
 11
174.2539224464
 21
197.4516401981
 31
0.0
  0
LINE
  5
2EC
330
1F
100
AcDbEntity
  8
PZT
  6
Continuous
370
    25
100
AcDbLine
 10
174.3739224464
 20
198.4216401981
 30
0.0
 11
174.3739224464
 21
197.4816401981
 31
0.0
  0
LINE
  5
2ED
330
1F
100
AcDbEntity
  8
PZT
  6
Continuous
370
    25
100
AcDbLine
 10
174.8439224464
 20
198.4516401981
 30
0.0
 11
174.4039224464
 21
198.4516401981
 31
0.0
  0
LINE
  5
2EE
330
1F
100
AcDbEntity
  8
CARBON
100
AcDbLine
 10
170.8566366864
 20
197.6850377219
 30
0.0
 11
169.3566366864
 21
197.6850377219
 31
0.0
  0
LINE
  5
2EF
330
1F
100
AcDbEntity
  8
CARBON
100
AcDbLine
 10
170.8566366864
 20
196.8850377219
 30
0.0
 11
169.3566366864
 21
196.8850377219
 31
0.0
  0
LINE
  5
2F0
330
1F
100
AcDbEntity
  8
PZT_RELEASE
100
AcDbLine
 10
175.0271976913
 20
198.4499244694
 30
0.0
 11
167.408748712
 21
198.4499244694
 31
0.0
  0
LINE
  5
2F1
330
1F
100
AcDbEntity
  8
PZT_SIDES
100
AcDbLine
 10
172.1239224464
 20
186.4485241816
 30
0.0
 11
172.1239224464
 21
185.8485241816
 31
0.0
  0
LINE
  5
2F2
330
1F
100
AcDbEntity
  8
PZT_SIDES
100
AcDbLine
 10
170.3239224464
 20
186.4485241816
 30
0.0
 11
170.3239224464
 21
185.8485241816
 31
0.0
  0
LINE
  5
2F3
330
1F
100
AcDbEntity
  8
PZT_SIDES
100
AcDbLine
 10
172.1245628415
 20
186.4546896986
 30
0.0
 11
174.2232820512
 21
196.4485906977
 31
0.0
  0
LINE
  5
2F4
330
1F
100
AcDbEntity
  8
PZT_SIDES
100
AcDbLine
 10
170.3232820512
 20
186.4546896986
 30
0.0
 11
168.2245628415
 21
196.4485906977
 31
0.0
  0
LINE
  5
2F5
330
1F
100
AcDbEntity
  8
PZT_SIDES
100
AcDbLine
 10
168.2239224464
 20
196.4547562147
 30
0.0
 11
168.2239224464
 21
196.6516401981
 31
0.0
  0
LINE
  5
2F6
330
1F
100
AcDbEntity
  8
PZT_RASTER
100
AcDbLine
 10
172.1245628415
 20
186.4546896986
 30
0.0
 11
170.3256381751
 21
186.4546896986
 31
0.0
  0
LINE
  5
2F7
330
1F
100
AcDbEntity
  8
PZT_RASTER
100
AcDbLine
 10
172.1245628415
 20
186.4546896986
 30
0.0
 11
172.1245628415
 21
185.9533559269
 31
0.0
  0
LINE
  5
2F8
330
1F
100
AcDbEntity
  8
PZT_RASTER
100
AcDbLine
 10
172.1245628415
 20
185.9533559269
 30
0.0
 11
170.3256381751
 21
185.9533559269
 31
0.0
  0
LINE
  5
2F9
330
1F
100
AcDbEntity
  8
PZT_RASTER
100
AcDbLine
 10
170.3256381751
 20
186.4546896986
 30
0.0
 11
170.3256381751
 21
185.9533559269
 31
0.0
  0
LINE
  5
2FA
330
1F
100
AcDbEntity
  8
PZT_SIDES
100
AcDbLine
 10
167.9239224464
 20
196.9516401981
 30
0.0
 11
167.6039224464
 21
196.9516401981
 31
0.0
  0
LINE
  5
2FB
330
1F
100
AcDbEntity
  8
PZT_SIDES
100
AcDbLine
 10
167.5739224464
 20
196.9816401981
 30
0.0
 11
167.5739224464
 21
198.4216401981
 31
0.0
  0
LINE
  5
2FC
330
1F
100
AcDbEntity
  8
PZT_SIDES
100
AcDbLine
 10
168.1939224464
 20
197.4516401981
 30
0.0
 11
168.1039224464
 21
197.4516401981
 31
0.0
  0
LINE
  5
2FD
330
1F
100
AcDbEntity
  8
PZT_SIDES
100
AcDbLine
 10
168.0739224464
 20
197.4816401981
 30
0.0
 11
168.0739224464
 21
198.4216401981
 31
0.0
  0
LINE
  5
2FE
330
1F
100
AcDbEntity
  8
PZT_SIDES
100
AcDbLine
 10
168.0439224464
 20
198.4516401981
 30
0.0
 11
167.6039224464
 21
198.4516401981
 31
0.0
  0
LINE
  5
2FF
330
1F
100
AcDbEntity
  8
PZT_SIDES
100
AcDbLine
 10
168.2239224464
 20
197.4816401981
 30
0.0
 11
168.2239224464
 21
198.5816401981
 31
0.0
  0
LINE
  5
300
330
1F
100
AcDbEntity
  8
PZT_SIDES
100
AcDbLine
 10
174.2239224464
 20
196.4547562147
 30
0.0
 11
174.2239224464
 21
196.6516401981
 31
0.0
  0
LINE
  5
301
330
1F
100
AcDbEntity
  8
PZT_SIDES
100
AcDbLine
 10
174.5239224464
 20
196.9516401981
 30
0.0
 11
174.8439224464
 21
196.9516401981
 31
0.0
  0
LINE
  5
302
330
1F
100
AcDbEntity
  8
PZT_SIDES
100
AcDbLine
 10
174.8739224464
 20
196.9816401981
 30
0.0
 11
174.8739224464
 21
198.4216401981
 31
0.0
  0
LINE
  5
303
330
1F
100
AcDbEntity
  8
PZT_SIDES
100
AcDbLine
 10
174.8439224464
 20
198.4516401981
 30
0.0
 11
174.4039224464
 21
198.4516401981
 31
0.0
  0
LINE
  5
304
330
1F
100
AcDbEntity
  8
PZT_SIDES
100
AcDbLine
 10
174.3739224464
 20
198.4216401981
 30
0.0
 11
174.3739224464
 21
197.4816401981
 31
0.0
  0
LINE
  5
305
330
1F
100
AcDbEntity
  8
PZT_SIDES
100
AcDbLine
 10
174.3439224464
 20
197.4516401981
 30
0.0
 11
174.2539224464
 21
197.4516401981
 31
0.0
  0
LINE
  5
306
330
1F
100
AcDbEntity
  8
PZT_SIDES
100
AcDbLine
 10
174.2239224464
 20
197.4816401981
 30
0.0
 11
174.2239224464
 21
198.5816401981
 31
0.0
  0
LINE
  5
307
330
1F
100
AcDbEntity
  8
PZT_RELEASE
100
AcDbLine
 10
171.6539224464
 20
185.9516401981
 30
0.0
 11
172.2039224464
 21
185.9516401981
 31
0.0
  0
LINE
  5
308
330
1F
100
AcDbEntity
  8
PZT_RELEASE
100
AcDbLine
 10
171.6239224464
 20
185.9816401981
 30
0.0
 11
171.6239224464
 21
186.3216401981
 31
0.0
  0
LINE
  5
309
330
1F
100
AcDbEntity
  8
PZT_RELEASE
100
AcDbLine
 10
171.5939224464
 20
186.3516401981
 30
0.0
 11
170.8539224464
 21
186.3516401981
 31
0.0
  0
LINE
  5
30A
330
1F
100
AcDbEntity
  8
PZT_RELEASE
100
AcDbLine
 10
170.8239224464
 20
186.3216401981
 30
0.0
 11
170.8239224464
 21
185.9816401981
 31
0.0
  0
LINE
  5
30B
330
1F
100
AcDbEntity
  8
PZT_RASTER
100
AcDbLine
 10
167.5756381751
 20
198.4499244694
 30
0.0
 11
174.8929104087
 21
198.4499244694
 31
0.0
  0
LINE
  5
30C
330
1F
100
AcDbEntity
  8
PZT_RASTER
100
AcDbLine
 10
167.5756381751
 20
198.4499244694
 30
0.0
 11
167.5756381751
 21
196.4547562147
 31
0.0
  0
LINE
  5
30D
330
1F
100
AcDbEntity
  8
PZT_RASTER
100
AcDbLine
 10
167.5756381751
 20
196.4547562147
 30
0.0
 11
174.8929104087
 21
196.4547562147
 31
0.0
  0
LINE
  5
30E
330
1F
100
AcDbEntity
  8
PZT_RASTER
100
AcDbLine
 10
174.8929104087
 20
198.4499244694
 30
0.0
 11
174.8929104087
 21
196.4547562147
 31
0.0
  0
LINE
  5
30F
330
1F
100
AcDbEntity
  8
PZT_RELEASE
100
AcDbLine
 10
170.7939224464
 20
185.9516401981
 30
0.0
 11
170.2439224464
 21
185.9516401981
 31
0.0
  0
LINE
  5
310
330
1F
100
AcDbEntity
  8
COPPER_A
100
AcDbLine
 10
172.1253264442
 20
185.9451157152
 30
0.0
 11
170.3261832785
 21
185.9451157152
 31
0.0
  0
LINE
  5
311
330
1F
100
AcDbEntity
  8
COPPER_A
100
AcDbLine
 10
172.1253264442
 20
185.9451157152
 30
0.0
 11
172.1253264442
 21
186.4485241816
 31
0.0
  0
LINE
  5
312
330
1F
100
AcDbEntity
  8
COPPER_A
100
AcDbLine
 10
172.1253264442
 20
186.4485241816
 30
0.0
 11
170.3261832785
 21
186.4485241816
 31
0.0
  0
LINE
  5
313
330
1F
100
AcDbEntity
  8
COPPER_A
100
AcDbLine
 10
170.3261832785
 20
185.9451157152
 30
0.0
 11
170.3261832785
 21
186.4485241816
 31
0.0
  0
LINE
  5
314
330
1F
100
AcDbEntity
  8
COPPER_A
100
AcDbLine
 10
173.2894910789
 20
196.4547562147
 30
0.0
 11
173.8439763166
 21
197.8022723029
 31
0.0
  0
LINE
  5
315
330
1F
100
AcDbEntity
  8
COPPER_A
100
AcDbLine
 10
173.8439763166
 20
197.8022723029
 30
0.0
 11
175.016481559
 21
197.8022723029
 31
0.0
  0
LINE
  5
316
330
1F
100
AcDbEntity
  8
COPPER_A
100
AcDbLine
 10
175.016481559
 20
197.8022723029
 30
0.0
 11
175.016481559
 21
198.5762412806
 31
0.0
  0
LINE
  5
317
330
1F
100
AcDbEntity
  8
COPPER_A
100
AcDbLine
 10
175.016481559
 20
198.5762412806
 30
0.0
 11
167.3287747731
 21
198.5762412806
 31
0.0
  0
LINE
  5
318
330
1F
100
AcDbEntity
  8
COPPER_A
100
AcDbLine
 10
167.3287747731
 20
198.5762412806
 30
0.0
 11
167.3287747731
 21
197.8427035182
 31
0.0
  0
LINE
  5
319
330
1F
100
AcDbEntity
  8
COPPER_A
100
AcDbLine
 10
167.3287747731
 20
197.8427035182
 30
0.0
 11
169.8066306793
 21
197.8427035182
 31
0.0
  0
LINE
  5
31A
330
1F
100
AcDbEntity
  8
COPPER_A
100
AcDbLine
 10
169.8066306793
 20
197.8427035182
 30
0.0
 11
169.8066306793
 21
196.7337330427
 31
0.0
  0
LINE
  5
31B
330
1F
100
AcDbEntity
  8
COPPER_A
100
AcDbLine
 10
169.8066306793
 20
196.7337330427
 30
0.0
 11
168.1039224464
 21
196.7337330427
 31
0.0
  0
LINE
  5
31C
330
1F
100
AcDbEntity
  8
COPPER_A
100
AcDbLine
 10
168.1039224464
 20
196.7337330427
 30
0.0
 11
168.1039224464
 21
196.4547562147
 31
0.0
  0
LINE
  5
31D
330
1F
100
AcDbEntity
  8
COPPER_A
100
AcDbLine
 10
168.1039224464
 20
196.4547562147
 30
0.0
 11
173.2894910789
 21
196.4547562147
 31
0.0
  0
LINE
  5
31E
330
1F
100
AcDbEntity
  8
COPPER_B
100
AcDbLine
 10
167.4691760544
 20
197.7611932144
 30
0.0
 11
168.4476784027
 21
197.7611932144
 31
0.0
  0
LINE
  5
31F
330
1F
100
AcDbEntity
  8
COPPER_B
100
AcDbLine
 10
168.4476784027
 20
197.7611932144
 30
0.0
 11
169.1053639264
 21
196.4547562147
 31
0.0
  0
LINE
  5
320
330
1F
100
AcDbEntity
  8
COPPER_B
100
AcDbLine
 10
169.1053639264
 20
196.4547562147
 30
0.0
 11
173.0508480523
 21
196.4547562147
 31
0.0
  0
LINE
  5
321
330
1F
100
AcDbEntity
  8
COPPER_B
100
AcDbLine
 10
173.0508480523
 20
196.4547562147
 30
0.0
 11
173.0508480523
 21
197.8022723029
 31
0.0
  0
LINE
  5
322
330
1F
100
AcDbEntity
  8
COPPER_B
100
AcDbLine
 10
173.0508480523
 20
197.8022723029
 30
0.0
 11
173.3612332058
 21
197.8022723029
 31
0.0
  0
LINE
  5
323
330
1F
100
AcDbEntity
  8
COPPER_B
100
AcDbLine
 10
173.3612332058
 20
197.8022723029
 30
0.0
 11
173.3612332058
 21
196.7337330427
 31
0.0
  0
LINE
  5
324
330
1F
100
AcDbEntity
  8
COPPER_B
100
AcDbLine
 10
173.3612332058
 20
196.7337330427
 30
0.0
 11
174.5239224464
 21
196.7337330427
 31
0.0
  0
LINE
  5
325
330
1F
100
AcDbEntity
  8
COPPER_B
100
AcDbLine
 10
174.5239224464
 20
196.7337330427
 30
0.0
 11
174.5239224464
 21
196.9616401981
 31
0.0
  0
LINE
  5
326
330
1F
100
AcDbEntity
  8
COPPER_B
100
AcDbLine
 10
173.6242714715
 20
196.9416401981
 30
0.0
 11
173.6242714715
 21
197.8022723029
 31
0.0
  0
LINE
  5
327
330
1F
100
AcDbEntity
  8
COPPER_B
100
AcDbLine
 10
173.6242714715
 20
197.8022723029
 30
0.0
 11
174.9710273918
 21
197.8022723029
 31
0.0
  0
LINE
  5
328
330
1F
100
AcDbEntity
  8
COPPER_B
100
AcDbLine
 10
174.9710273918
 20
197.8022723029
 30
0.0
 11
174.9710273918
 21
198.4716401981
 31
0.0
  0
LINE
  5
329
330
1F
100
AcDbEntity
  8
COPPER_B
100
AcDbLine
 10
174.9710273918
 20
198.4716401981
 30
0.0
 11
167.4691760544
 21
198.4716401981
 31
0.0
  0
LINE
  5
32A
330
1F
100
AcDbEntity
  8
COPPER_B
100
AcDbLine
 10
167.4691760544
 20
198.4716401981
 30
0.0
 11
167.4691760544
 21
197.7611932144
 31
0.0
  0
LINE
  5
32B
330
1F
100
AcDbEntity
  8
COPPER_B
100
AcDbLine
 10
173.6242714715
 20
196.9416401981
 30
0.0
 11
174.5239224464
 21
196.9616401981
 31
0.0
  0
LINE
  5
32C
330
1F
100
AcDbEntity
  8
COPPER_B
100
AcDbLine
 10
172.1239224464
 20
185.9494492596
 30
0.0
 11
170.3261832785
 21
185.9494492596
 31
0.0
  0
LINE
  5
32D
330
1F
100
AcDbEntity
  8
COPPER_B
100
AcDbLine
 10
172.1239224464
 20
185.9494492596
 30
0.0
 11
172.1239224464
 21
186.4485241816
 31
0.0
  0
LINE
  5
32E
330
1F
100
AcDbEntity
  8
COPPER_B
100
AcDbLine
 10
172.1239224464
 20
186.4485241816
 30
0.0
 11
170.3261832785
 21
186.4485241816
 31
0.0
  0
LINE
  5
32F
330
1F
100
AcDbEntity
  8
COPPER_B
100
AcDbLine
 10
170.3261832785
 20
185.9494492596
 30
0.0
 11
170.3261832785
 21
186.4485241816
 31
0.0
  0
ARC
  5
330
330
1F
100
AcDbEntity
  8
CARBON
100
AcDbCircle
 10
170.8566366864
 20
197.2850377219
 30
0.0
 40
0.4000000000000341
100
AcDbArc
 50
270.0
 51
90.0
  0
ARC
  5
331
330
1F
100
AcDbEntity
  8
CARBON
100
AcDbCircle
 10
169.3566366864
 20
197.2850377219
 30
0.0
 40
0.4000000000000341
100
AcDbArc
 50
90.0
 51
270.0
  0
CIRCLE
  5
332
330
1F
100
AcDbEntity
  8
PZT_A
100
AcDbCircle
 10
169.3614258905
 20
197.2826852126
 30
0.0
 40
0.3749999999999947
  0
ARC
  5
333
330
1F
100
AcDbEntity
  8
PZT_RELEASE
100
AcDbCircle
 10
171.6539224464
 20
185.9816401981
 30
0.0
 40
0.0300000000000011
100
AcDbArc
 50
180.0
 51
270.0
  0
ARC
  5
334
330
1F
100
AcDbEntity
  8
PZT_SIDES
100
AcDbCircle
 10
168.2539224464
 20
196.4547562147
 30
0.0
 40
0.030000000000058
100
AcDbArc
 50
180.0
 51
191.8597791209
  0
ARC
  5
335
330
1F
100
AcDbEntity
  8
PZT_SIDES
100
AcDbCircle
 10
167.9239224464
 20
196.6516401981
 30
0.0
 40
0.3000000000000114
100
AcDbArc
 50
0.0
 51
90.0
  0
ARC
  5
336
330
1F
100
AcDbEntity
  8
PZT_SIDES
100
AcDbCircle
 10
167.6039224464
 20
196.9816401981
 30
0.0
 40
0.0300000000000011
100
AcDbArc
 50
180.0
 51
270.0
  0
ARC
  5
337
330
1F
100
AcDbEntity
  8
PZT_SIDES
100
AcDbCircle
 10
167.6039224464
 20
198.4216401981
 30
0.0
 40
0.0300000000000011
100
AcDbArc
 50
90.0
 51
180.0
  0
ARC
  5
338
330
1F
100
AcDbEntity
  8
PZT_SIDES
100
AcDbCircle
 10
168.0439224464
 20
198.4216401981
 30
0.0
 40
0.0300000000000011
100
AcDbArc
 50
0.0
 51
90.0
  0
ARC
  5
339
330
1F
100
AcDbEntity
  8
PZT_SIDES
100
AcDbCircle
 10
168.1039224464
 20
197.4816401981
 30
0.0
 40
0.0300000000000011
100
AcDbArc
 50
180.0
 51
270.0
  0
ARC
  5
33A
330
1F
100
AcDbEntity
  8
PZT_SIDES
100
AcDbCircle
 10
168.1939224464
 20
197.4816401981
 30
0.0
 40
0.0300000000000011
100
AcDbArc
 50
270.0
 51
0.0
  0
ARC
  5
33B
330
1F
100
AcDbEntity
  8
PZT_SIDES
100
AcDbCircle
 10
170.2939224464
 20
186.4485241816
 30
0.0
 40
0.0300000000000011
100
AcDbArc
 50
0.0
 51
11.859779121
  0
ARC
  5
33C
330
1F
100
AcDbEntity
  8
PZT_SIDES
100
AcDbCircle
 10
172.1539224464
 20
186.4485241816
 30
0.0
 40
0.0300000000000164
100
AcDbArc
 50
168.1402208791
 51
180.0
  0
ARC
  5
33D
330
1F
100
AcDbEntity
  8
PZT_SIDES
100
AcDbCircle
 10
174.1939224464
 20
196.4547562147
 30
0.0
 40
0.0300000000000011
100
AcDbArc
 50
348.1402208791
 51
0.0
  0
ARC
  5
33E
330
1F
100
AcDbEntity
  8
PZT_SIDES
100
AcDbCircle
 10
174.5239224464
 20
196.6516401981
 30
0.0
 40
0.2999999999999829
100
AcDbArc
 50
90.0
 51
180.0
  0
ARC
  5
33F
330
1F
100
AcDbEntity
  8
PZT_SIDES
100
AcDbCircle
 10
174.8439224464
 20
196.9816401981
 30
0.0
 40
0.0300000000000011
100
AcDbArc
 50
270.0
 51
0.0
  0
ARC
  5
340
330
1F
100
AcDbEntity
  8
PZT_SIDES
100
AcDbCircle
 10
174.8439224464
 20
198.4216401981
 30
0.0
 40
0.0300000000000011
100
AcDbArc
 50
0.0
 51
90.0
  0
ARC
  5
341
330
1F
100
AcDbEntity
  8
PZT_SIDES
100
AcDbCircle
 10
174.4039224464
 20
198.4216401981
 30
0.0
 40
0.0300000000000011
100
AcDbArc
 50
90.0
 51
180.0
  0
ARC
  5
342
330
1F
100
AcDbEntity
  8
PZT_SIDES
100
AcDbCircle
 10
174.3439224464
 20
197.4816401981
 30
0.0
 40
0.0300000000000011
100
AcDbArc
 50
270.0
 51
0.0
  0
ARC
  5
343
330
1F
100
AcDbEntity
  8
PZT_SIDES
100
AcDbCircle
 10
174.2539224464
 20
197.4816401981
 30
0.0
 40
0.0300000000000011
100
AcDbArc
 50
180.0
 51
270.0000000001
  0
ARC
  5
344
330
1F
100
AcDbEntity
  8
PZT_RELEASE
100
AcDbCircle
 10
171.5939224464
 20
186.3216401981
 30
0.0
 40
0.0300000000000011
100
AcDbArc
 50
0.0
 51
90.0
  0
ARC
  5
345
330
1F
100
AcDbEntity
  8
PZT_RELEASE
100
AcDbCircle
 10
170.8539224464
 20
186.3216401981
 30
0.0
 40
0.0300000000000011
100
AcDbArc
 50
90.0
 51
180.0
  0
ARC
  5
346
330
1F
100
AcDbEntity
  8
PZT_RELEASE
100
AcDbCircle
 10
170.7939224464
 20
185.9816401981
 30
0.0
 40
0.0300000000000011
100
AcDbArc
 50
270.0
 51
0.0
  0
CIRCLE
  5
347
330
1F
100
AcDbEntity
  8
COPPER_A
100
AcDbCircle
 10
169.3566366864
 20
197.2850377219
 30
0.0
 40
0.3961532604650666
  0
ARC
  5
348
330
1F
100
AcDbEntity
  8
PZT
  6
Continuous
370
    25
100
AcDbCircle
 10
175.8644762619
 20
198.4023091052
 30
0.0
 40
0.0300000000000011
100
AcDbArc
 50
0.0
 51
90.0
  0
ARC
  5
349
330
1F
100
AcDbEntity
  8
PZT
  6
Continuous
370
    25
100
AcDbCircle
 10
175.9244762619
 20
197.4623091052
 30
0.0
 40
0.0300000000000011
100
AcDbArc
 50
180.0
 51
270.0
  0
ARC
  5
34A
330
1F
100
AcDbEntity
  8
PZT
  6
Continuous
370
    25
100
AcDbCircle
 10
176.0144762619
 20
197.4623091052
 30
0.0
 40
0.0300000000000011
100
AcDbArc
 50
270.0
 51
0.0
  0
ARC
  5
34B
330
1F
100
AcDbEntity
  8
PZT
  6
Continuous
370
    25
100
AcDbCircle
 10
176.0744762619
 20
198.4023091052
 30
0.0
 40
0.0300000000000011
100
AcDbArc
 50
90.0
 51
180.0
  0
ARC
  5
34C
330
1F
100
AcDbEntity
  8
PZT
  6
Continuous
370
    25
100
AcDbCircle
 10
182.0144762619
 20
198.4023091052
 30
0.0
 40
0.0300000000000011
100
AcDbArc
 50
0.0
 51
90.0
  0
ARC
  5
34D
330
1F
100
AcDbEntity
  8
PZT
  6
Continuous
370
    25
100
AcDbCircle
 10
182.0744762619
 20
197.4623091052
 30
0.0
 40
0.0300000000000011
100
AcDbArc
 50
180.0
 51
270.0
  0
ARC
  5
34E
330
1F
100
AcDbEntity
  8
PZT
  6
Continuous
370
    25
100
AcDbCircle
 10
182.1644762619
 20
197.4623091052
 30
0.0
 40
0.0300000000000011
100
AcDbArc
 50
270.0
 51
0.0
  0
ARC
  5
34F
330
1F
100
AcDbEntity
  8
PZT
  6
Continuous
370
    25
100
AcDbCircle
 10
182.2244762619
 20
198.4023091052
 30
0.0
 40
0.0300000000000011
100
AcDbArc
 50
90.0
 51
180.0
  0
ARC
  5
350
330
1F
100
AcDbEntity
  8
PZT
  6
Continuous
370
    25
100
AcDbCircle
 10
182.6644762619
 20
198.4023091052
 30
0.0
 40
0.0300000000000011
100
AcDbArc
 50
0.0
 51
90.0
  0
ARC
  5
351
330
1F
100
AcDbEntity
  8
PZT
  6
Continuous
370
    25
100
AcDbCircle
 10
182.6644762619
 20
196.9623091052
 30
0.0
 40
0.0300000000000011
100
AcDbArc
 50
270.0
 51
0.0
  0
ARC
  5
352
330
1F
100
AcDbEntity
  8
PZT
  6
Continuous
370
    25
100
AcDbCircle
 10
182.3444762619
 20
196.6323091052
 30
0.0
 40
0.3000000000000114
100
AcDbArc
 50
90.0
 51
180.0
  0
ARC
  5
353
330
1F
100
AcDbEntity
  8
PZT
  6
Continuous
370
    25
100
AcDbCircle
 10
182.0144762619
 20
196.4354251217
 30
0.0
 40
0.0300000000000164
100
AcDbArc
 50
348.1402208791
 51
0.0
  0
ARC
  5
354
330
1F
100
AcDbEntity
  8
PZT
  6
Continuous
370
    25
100
AcDbCircle
 10
179.9744762619
 20
186.4291930887
 30
0.0
 40
0.0300000000000164
100
AcDbArc
 50
168.1402208791
 51
180.0
  0
ARC
  5
355
330
1F
100
AcDbEntity
  8
PZT
  6
Continuous
370
    25
100
AcDbCircle
 10
179.9144762619
 20
185.9623091052
 30
0.0
 40
0.0300000000000011
100
AcDbArc
 50
270.0
 51
0.0
  0
ARC
  5
356
330
1F
100
AcDbEntity
  8
PZT
  6
Continuous
370
    25
100
AcDbCircle
 10
179.4744762619
 20
185.9623091052
 30
0.0
 40
0.0300000000000011
100
AcDbArc
 50
180.0
 51
270.0
  0
ARC
  5
357
330
1F
100
AcDbEntity
  8
PZT
  6
Continuous
370
    25
100
AcDbCircle
 10
179.4144762619
 20
186.3023091052
 30
0.0
 40
0.0300000000000011
100
AcDbArc
 50
0.0
 51
90.0
  0
ARC
  5
358
330
1F
100
AcDbEntity
  8
PZT
  6
Continuous
370
    25
100
AcDbCircle
 10
178.6744762619
 20
186.3023091052
 30
0.0
 40
0.0300000000000011
100
AcDbArc
 50
90.0
 51
180.0
  0
ARC
  5
359
330
1F
100
AcDbEntity
  8
PZT
  6
Continuous
370
    25
100
AcDbCircle
 10
178.6144762619
 20
185.9623091052
 30
0.0
 40
0.0300000000000011
100
AcDbArc
 50
270.0
 51
0.0
  0
ARC
  5
35A
330
1F
100
AcDbEntity
  8
PZT
  6
Continuous
370
    25
100
AcDbCircle
 10
178.1744762619
 20
185.9623091052
 30
0.0
 40
0.0300000000000011
100
AcDbArc
 50
180.0
 51
270.0
  0
ARC
  5
35B
330
1F
100
AcDbEntity
  8
PZT
  6
Continuous
370
    25
100
AcDbCircle
 10
178.1144762619
 20
186.4291930887
 30
0.0
 40
0.0300000000000011
100
AcDbArc
 50
0.0
 51
11.859779121
  0
ARC
  5
35C
330
1F
100
AcDbEntity
  8
PZT
  6
Continuous
370
    25
100
AcDbCircle
 10
176.0744762619
 20
196.4354251217
 30
0.0
 40
0.0299999999999885
100
AcDbArc
 50
180.0
 51
191.859779121
  0
ARC
  5
35D
330
1F
100
AcDbEntity
  8
PZT
  6
Continuous
370
    25
100
AcDbCircle
 10
175.7444762619
 20
196.6323091052
 30
0.0
 40
0.3000000000000114
100
AcDbArc
 50
0.0
 51
90.0
  0
ARC
  5
35E
330
1F
100
AcDbEntity
  8
PZT
  6
Continuous
370
    25
100
AcDbCircle
 10
175.4244762619
 20
196.9623091052
 30
0.0
 40
0.0300000000000011
100
AcDbArc
 50
180.0
 51
270.0
  0
ARC
  5
35F
330
1F
100
AcDbEntity
  8
PZT
  6
Continuous
370
    25
100
AcDbCircle
 10
175.4244762619
 20
198.4023091052
 30
0.0
 40
0.0300000000000011
100
AcDbArc
 50
90.0
 51
180.0
  0
LINE
  5
360
330
1F
100
AcDbEntity
  8
PZT
  6
Continuous
370
    25
100
AcDbLine
 10
182.6944762619
 20
196.9623091052
 30
0.0
 11
182.6944762619
 21
198.4023091052
 31
0.0
  0
LINE
  5
361
330
1F
100
AcDbEntity
  8
PZT
  6
Continuous
370
    25
100
AcDbLine
 10
182.3444762619
 20
196.9323091052
 30
0.0
 11
182.6644762619
 21
196.9323091052
 31
0.0
  0
LINE
  5
362
330
1F
100
AcDbEntity
  8
PZT
  6
Continuous
370
    25
100
AcDbLine
 10
182.0444762619
 20
196.4354251217
 30
0.0
 11
182.0444762619
 21
196.6323091052
 31
0.0
  0
LINE
  5
363
330
1F
100
AcDbEntity
  8
PZT
  6
Continuous
370
    25
100
AcDbLine
 10
179.945116657
 20
186.4353586057
 30
0.0
 11
182.0438358668
 21
196.4292596047
 31
0.0
  0
LINE
  5
364
330
1F
100
AcDbEntity
  8
PZT
  6
Continuous
370
    25
100
AcDbLine
 10
179.9444762619
 20
185.9623091052
 30
0.0
 11
179.9444762619
 21
186.4291930887
 31
0.0
  0
LINE
  5
365
330
1F
100
AcDbEntity
  8
PZT
  6
Continuous
370
    25
100
AcDbLine
 10
179.4744762619
 20
185.9323091052
 30
0.0
 11
179.9144762619
 21
185.9323091052
 31
0.0
  0
LINE
  5
366
330
1F
100
AcDbEntity
  8
PZT
  6
Continuous
370
    25
100
AcDbLine
 10
179.4444762619
 20
186.3023091052
 30
0.0
 11
179.4444762619
 21
185.9623091052
 31
0.0
  0
LINE
  5
367
330
1F
100
AcDbEntity
  8
PZT
  6
Continuous
370
    25
100
AcDbLine
 10
178.6744762619
 20
186.3323091052
 30
0.0
 11
179.4144762619
 21
186.3323091052
 31
0.0
  0
LINE
  5
368
330
1F
100
AcDbEntity
  8
PZT
  6
Continuous
370
    25
100
AcDbLine
 10
178.6444762619
 20
185.9623091052
 30
0.0
 11
178.6444762619
 21
186.3023091052
 31
0.0
  0
LINE
  5
369
330
1F
100
AcDbEntity
  8
PZT
  6
Continuous
370
    25
100
AcDbLine
 10
178.1744762619
 20
185.9323091052
 30
0.0
 11
178.6144762619
 21
185.9323091052
 31
0.0
  0
LINE
  5
36A
330
1F
100
AcDbEntity
  8
PZT
  6
Continuous
370
    25
100
AcDbLine
 10
178.1444762619
 20
186.4291930887
 30
0.0
 11
178.1444762619
 21
185.9623091052
 31
0.0
  0
LINE
  5
36B
330
1F
100
AcDbEntity
  8
PZT
  6
Continuous
370
    25
100
AcDbLine
 10
176.045116657
 20
196.4292596047
 30
0.0
 11
178.1438358668
 21
186.4353586057
 31
0.0
  0
LINE
  5
36C
330
1F
100
AcDbEntity
  8
PZT
  6
Continuous
370
    25
100
AcDbLine
 10
176.0444762619
 20
196.6323091052
 30
0.0
 11
176.0444762619
 21
196.4354251217
 31
0.0
  0
LINE
  5
36D
330
1F
100
AcDbEntity
  8
PZT
  6
Continuous
370
    25
100
AcDbLine
 10
175.4244762619
 20
196.9323091052
 30
0.0
 11
175.7444762619
 21
196.9323091052
 31
0.0
  0
LINE
  5
36E
330
1F
100
AcDbEntity
  8
PZT
  6
Continuous
370
    25
100
AcDbLine
 10
175.3944762619
 20
198.4023091052
 30
0.0
 11
175.3944762619
 21
196.9623091052
 31
0.0
  0
LINE
  5
36F
330
1F
100
AcDbEntity
  8
PZT
  6
Continuous
370
    25
100
AcDbLine
 10
175.8644762619
 20
198.4323091052
 30
0.0
 11
175.4244762619
 21
198.4323091052
 31
0.0
  0
LINE
  5
370
330
1F
100
AcDbEntity
  8
PZT
  6
Continuous
370
    25
100
AcDbLine
 10
175.8944762619
 20
197.4623091052
 30
0.0
 11
175.8944762619
 21
198.4023091052
 31
0.0
  0
LINE
  5
371
330
1F
100
AcDbEntity
  8
PZT
  6
Continuous
370
    25
100
AcDbLine
 10
176.0144762619
 20
197.4323091052
 30
0.0
 11
175.9244762619
 21
197.4323091052
 31
0.0
  0
LINE
  5
372
330
1F
100
AcDbEntity
  8
PZT
  6
Continuous
370
    25
100
AcDbLine
 10
176.0444762619
 20
198.4023091052
 30
0.0
 11
176.0444762619
 21
197.4623091052
 31
0.0
  0
LINE
  5
373
330
1F
100
AcDbEntity
  8
PZT
  6
Continuous
370
    25
100
AcDbLine
 10
182.0144762619
 20
198.4323091052
 30
0.0
 11
176.0744762619
 21
198.4323091052
 31
0.0
  0
LINE
  5
374
330
1F
100
AcDbEntity
  8
PZT
  6
Continuous
370
    25
100
AcDbLine
 10
182.0444762619
 20
197.4623091052
 30
0.0
 11
182.0444762619
 21
198.4023091052
 31
0.0
  0
LINE
  5
375
330
1F
100
AcDbEntity
  8
PZT
  6
Continuous
370
    25
100
AcDbLine
 10
182.1644762619
 20
197.4323091052
 30
0.0
 11
182.0744762619
 21
197.4323091052
 31
0.0
  0
LINE
  5
376
330
1F
100
AcDbEntity
  8
PZT
  6
Continuous
370
    25
100
AcDbLine
 10
182.1944762619
 20
198.4023091052
 30
0.0
 11
182.1944762619
 21
197.4623091052
 31
0.0
  0
LINE
  5
377
330
1F
100
AcDbEntity
  8
PZT
  6
Continuous
370
    25
100
AcDbLine
 10
182.6644762619
 20
198.4323091052
 30
0.0
 11
182.2244762619
 21
198.4323091052
 31
0.0
  0
LINE
  5
378
330
1F
100
AcDbEntity
  8
CARBON
100
AcDbLine
 10
178.677190502
 20
197.6657066289
 30
0.0
 11
177.177190502
 21
197.6657066289
 31
0.0
  0
LINE
  5
379
330
1F
100
AcDbEntity
  8
CARBON
100
AcDbLine
 10
178.677190502
 20
196.8657066289
 30
0.0
 11
177.177190502
 21
196.8657066289
 31
0.0
  0
LINE
  5
37A
330
1F
100
AcDbEntity
  8
PZT_RELEASE
100
AcDbLine
 10
182.8477515068
 20
198.4305933765
 30
0.0
 11
175.2293025276
 21
198.4305933765
 31
0.0
  0
LINE
  5
37B
330
1F
100
AcDbEntity
  8
PZT_SIDES
100
AcDbLine
 10
179.9444762619
 20
186.4291930887
 30
0.0
 11
179.9444762619
 21
185.8291930887
 31
0.0
  0
LINE
  5
37C
330
1F
100
AcDbEntity
  8
PZT_SIDES
100
AcDbLine
 10
178.1444762619
 20
186.4291930887
 30
0.0
 11
178.1444762619
 21
185.8291930887
 31
0.0
  0
LINE
  5
37D
330
1F
100
AcDbEntity
  8
PZT_SIDES
100
AcDbLine
 10
179.945116657
 20
186.4353586057
 30
0.0
 11
182.0438358668
 21
196.4292596047
 31
0.0
  0
LINE
  5
37E
330
1F
100
AcDbEntity
  8
PZT_SIDES
100
AcDbLine
 10
178.1438358668
 20
186.4353586057
 30
0.0
 11
176.045116657
 21
196.4292596047
 31
0.0
  0
LINE
  5
37F
330
1F
100
AcDbEntity
  8
PZT_SIDES
100
AcDbLine
 10
176.0444762619
 20
196.4354251217
 30
0.0
 11
176.0444762619
 21
196.6323091052
 31
0.0
  0
LINE
  5
380
330
1F
100
AcDbEntity
  8
PZT_RASTER
100
AcDbLine
 10
179.945116657
 20
186.4353586057
 30
0.0
 11
178.1461919907
 21
186.4353586057
 31
0.0
  0
LINE
  5
381
330
1F
100
AcDbEntity
  8
PZT_RASTER
100
AcDbLine
 10
179.945116657
 20
186.4353586057
 30
0.0
 11
179.945116657
 21
185.934024834
 31
0.0
  0
LINE
  5
382
330
1F
100
AcDbEntity
  8
PZT_RASTER
100
AcDbLine
 10
179.945116657
 20
185.934024834
 30
0.0
 11
178.1461919907
 21
185.934024834
 31
0.0
  0
LINE
  5
383
330
1F
100
AcDbEntity
  8
PZT_RASTER
100
AcDbLine
 10
178.1461919907
 20
186.4353586057
 30
0.0
 11
178.1461919907
 21
185.934024834
 31
0.0
  0
LINE
  5
384
330
1F
100
AcDbEntity
  8
PZT_SIDES
100
AcDbLine
 10
175.7444762619
 20
196.9323091052
 30
0.0
 11
175.4244762619
 21
196.9323091052
 31
0.0
  0
LINE
  5
385
330
1F
100
AcDbEntity
  8
PZT_SIDES
100
AcDbLine
 10
175.3944762619
 20
196.9623091052
 30
0.0
 11
175.3944762619
 21
198.4023091052
 31
0.0
  0
LINE
  5
386
330
1F
100
AcDbEntity
  8
PZT_SIDES
100
AcDbLine
 10
176.0144762619
 20
197.4323091052
 30
0.0
 11
175.9244762619
 21
197.4323091052
 31
0.0
  0
LINE
  5
387
330
1F
100
AcDbEntity
  8
PZT_SIDES
100
AcDbLine
 10
175.8944762619
 20
197.4623091052
 30
0.0
 11
175.8944762619
 21
198.4023091052
 31
0.0
  0
LINE
  5
388
330
1F
100
AcDbEntity
  8
PZT_SIDES
100
AcDbLine
 10
175.8644762619
 20
198.4323091052
 30
0.0
 11
175.4244762619
 21
198.4323091052
 31
0.0
  0
LINE
  5
389
330
1F
100
AcDbEntity
  8
PZT_SIDES
100
AcDbLine
 10
176.0444762619
 20
197.4623091052
 30
0.0
 11
176.0444762619
 21
198.5623091052
 31
0.0
  0
LINE
  5
38A
330
1F
100
AcDbEntity
  8
PZT_SIDES
100
AcDbLine
 10
182.0444762619
 20
196.4354251217
 30
0.0
 11
182.0444762619
 21
196.6323091052
 31
0.0
  0
LINE
  5
38B
330
1F
100
AcDbEntity
  8
PZT_SIDES
100
AcDbLine
 10
182.3444762619
 20
196.9323091052
 30
0.0
 11
182.6644762619
 21
196.9323091052
 31
0.0
  0
LINE
  5
38C
330
1F
100
AcDbEntity
  8
PZT_SIDES
100
AcDbLine
 10
182.6944762619
 20
196.9623091052
 30
0.0
 11
182.6944762619
 21
198.4023091052
 31
0.0
  0
LINE
  5
38D
330
1F
100
AcDbEntity
  8
PZT_SIDES
100
AcDbLine
 10
182.6644762619
 20
198.4323091052
 30
0.0
 11
182.2244762619
 21
198.4323091052
 31
0.0
  0
LINE
  5
38E
330
1F
100
AcDbEntity
  8
PZT_SIDES
100
AcDbLine
 10
182.1944762619
 20
198.4023091052
 30
0.0
 11
182.1944762619
 21
197.4623091052
 31
0.0
  0
LINE
  5
38F
330
1F
100
AcDbEntity
  8
PZT_SIDES
100
AcDbLine
 10
182.1644762619
 20
197.4323091052
 30
0.0
 11
182.0744762619
 21
197.4323091052
 31
0.0
  0
LINE
  5
390
330
1F
100
AcDbEntity
  8
PZT_SIDES
100
AcDbLine
 10
182.0444762619
 20
197.4623091052
 30
0.0
 11
182.0444762619
 21
198.5623091052
 31
0.0
  0
LINE
  5
391
330
1F
100
AcDbEntity
  8
PZT_RELEASE
100
AcDbLine
 10
179.4744762619
 20
185.9323091052
 30
0.0
 11
180.0244762619
 21
185.9323091052
 31
0.0
  0
LINE
  5
392
330
1F
100
AcDbEntity
  8
PZT_RELEASE
100
AcDbLine
 10
179.4444762619
 20
185.9623091052
 30
0.0
 11
179.4444762619
 21
186.3023091052
 31
0.0
  0
LINE
  5
393
330
1F
100
AcDbEntity
  8
PZT_RELEASE
100
AcDbLine
 10
179.4144762619
 20
186.3323091052
 30
0.0
 11
178.6744762619
 21
186.3323091052
 31
0.0
  0
LINE
  5
394
330
1F
100
AcDbEntity
  8
PZT_RELEASE
100
AcDbLine
 10
178.6444762619
 20
186.3023091052
 30
0.0
 11
178.6444762619
 21
185.9623091052
 31
0.0
  0
LINE
  5
395
330
1F
100
AcDbEntity
  8
PZT_RASTER
100
AcDbLine
 10
175.3961919907
 20
198.4305933765
 30
0.0
 11
182.7134642243
 21
198.4305933765
 31
0.0
  0
LINE
  5
396
330
1F
100
AcDbEntity
  8
PZT_RASTER
100
AcDbLine
 10
175.3961919907
 20
198.4305933765
 30
0.0
 11
175.3961919907
 21
196.4354251217
 31
0.0
  0
LINE
  5
397
330
1F
100
AcDbEntity
  8
PZT_RASTER
100
AcDbLine
 10
175.3961919907
 20
196.4354251217
 30
0.0
 11
182.7134642243
 21
196.4354251217
 31
0.0
  0
LINE
  5
398
330
1F
100
AcDbEntity
  8
PZT_RASTER
100
AcDbLine
 10
182.7134642243
 20
198.4305933765
 30
0.0
 11
182.7134642243
 21
196.4354251217
 31
0.0
  0
LINE
  5
399
330
1F
100
AcDbEntity
  8
PZT_RELEASE
100
AcDbLine
 10
178.6144762619
 20
185.9323091052
 30
0.0
 11
178.0644762619
 21
185.9323091052
 31
0.0
  0
LINE
  5
39A
330
1F
100
AcDbEntity
  8
COPPER_A
100
AcDbLine
 10
179.9458802598
 20
185.9257846223
 30
0.0
 11
178.1467370941
 21
185.9257846223
 31
0.0
  0
LINE
  5
39B
330
1F
100
AcDbEntity
  8
COPPER_A
100
AcDbLine
 10
179.9458802598
 20
185.9257846223
 30
0.0
 11
179.9458802598
 21
186.4291930887
 31
0.0
  0
LINE
  5
39C
330
1F
100
AcDbEntity
  8
COPPER_A
100
AcDbLine
 10
179.9458802598
 20
186.4291930887
 30
0.0
 11
178.1467370941
 21
186.4291930887
 31
0.0
  0
LINE
  5
39D
330
1F
100
AcDbEntity
  8
COPPER_A
100
AcDbLine
 10
178.1467370941
 20
185.9257846223
 30
0.0
 11
178.1467370941
 21
186.4291930887
 31
0.0
  0
LINE
  5
39E
330
1F
100
AcDbEntity
  8
COPPER_A
100
AcDbLine
 10
181.1100448945
 20
196.4354251217
 30
0.0
 11
181.6645301322
 21
197.78294121
 31
0.0
  0
LINE
  5
39F
330
1F
100
AcDbEntity
  8
COPPER_A
100
AcDbLine
 10
181.6645301322
 20
197.78294121
 30
0.0
 11
182.8370353746
 21
197.78294121
 31
0.0
  0
LINE
  5
3A0
330
1F
100
AcDbEntity
  8
COPPER_A
100
AcDbLine
 10
182.8370353746
 20
197.78294121
 30
0.0
 11
182.8370353746
 21
198.5569101877
 31
0.0
  0
LINE
  5
3A1
330
1F
100
AcDbEntity
  8
COPPER_A
100
AcDbLine
 10
182.8370353746
 20
198.5569101877
 30
0.0
 11
175.1493285887
 21
198.5569101877
 31
0.0
  0
LINE
  5
3A2
330
1F
100
AcDbEntity
  8
COPPER_A
100
AcDbLine
 10
175.1493285887
 20
198.5569101877
 30
0.0
 11
175.1493285887
 21
197.8233724253
 31
0.0
  0
LINE
  5
3A3
330
1F
100
AcDbEntity
  8
COPPER_A
100
AcDbLine
 10
175.1493285887
 20
197.8233724253
 30
0.0
 11
177.6271844949
 21
197.8233724253
 31
0.0
  0
LINE
  5
3A4
330
1F
100
AcDbEntity
  8
COPPER_A
100
AcDbLine
 10
177.6271844949
 20
197.8233724253
 30
0.0
 11
177.6271844949
 21
196.7144019498
 31
0.0
  0
LINE
  5
3A5
330
1F
100
AcDbEntity
  8
COPPER_A
100
AcDbLine
 10
177.6271844949
 20
196.7144019498
 30
0.0
 11
175.9244762619
 21
196.7144019498
 31
0.0
  0
LINE
  5
3A6
330
1F
100
AcDbEntity
  8
COPPER_A
100
AcDbLine
 10
175.9244762619
 20
196.7144019498
 30
0.0
 11
175.9244762619
 21
196.4354251217
 31
0.0
  0
LINE
  5
3A7
330
1F
100
AcDbEntity
  8
COPPER_A
100
AcDbLine
 10
175.9244762619
 20
196.4354251217
 30
0.0
 11
181.1100448945
 21
196.4354251217
 31
0.0
  0
LINE
  5
3A8
330
1F
100
AcDbEntity
  8
COPPER_B
100
AcDbLine
 10
175.28972987
 20
197.7418621214
 30
0.0
 11
176.2682322183
 21
197.7418621214
 31
0.0
  0
LINE
  5
3A9
330
1F
100
AcDbEntity
  8
COPPER_B
100
AcDbLine
 10
176.2682322183
 20
197.7418621214
 30
0.0
 11
176.925917742
 21
196.4354251217
 31
0.0
  0
LINE
  5
3AA
330
1F
100
AcDbEntity
  8
COPPER_B
100
AcDbLine
 10
176.925917742
 20
196.4354251217
 30
0.0
 11
180.8714018679
 21
196.4354251217
 31
0.0
  0
LINE
  5
3AB
330
1F
100
AcDbEntity
  8
COPPER_B
100
AcDbLine
 10
180.8714018679
 20
196.4354251217
 30
0.0
 11
180.8714018679
 21
197.78294121
 31
0.0
  0
LINE
  5
3AC
330
1F
100
AcDbEntity
  8
COPPER_B
100
AcDbLine
 10
180.8714018679
 20
197.78294121
 30
0.0
 11
181.1817870214
 21
197.78294121
 31
0.0
  0
LINE
  5
3AD
330
1F
100
AcDbEntity
  8
COPPER_B
100
AcDbLine
 10
181.1817870214
 20
197.78294121
 30
0.0
 11
181.1817870214
 21
196.7144019498
 31
0.0
  0
LINE
  5
3AE
330
1F
100
AcDbEntity
  8
COPPER_B
100
AcDbLine
 10
181.1817870214
 20
196.7144019498
 30
0.0
 11
182.3444762619
 21
196.7144019498
 31
0.0
  0
LINE
  5
3AF
330
1F
100
AcDbEntity
  8
COPPER_B
100
AcDbLine
 10
182.3444762619
 20
196.7144019498
 30
0.0
 11
182.3444762619
 21
196.9423091052
 31
0.0
  0
LINE
  5
3B0
330
1F
100
AcDbEntity
  8
COPPER_B
100
AcDbLine
 10
181.4448252871
 20
196.9223091052
 30
0.0
 11
181.4448252871
 21
197.78294121
 31
0.0
  0
LINE
  5
3B1
330
1F
100
AcDbEntity
  8
COPPER_B
100
AcDbLine
 10
181.4448252871
 20
197.78294121
 30
0.0
 11
182.7915812074
 21
197.78294121
 31
0.0
  0
LINE
  5
3B2
330
1F
100
AcDbEntity
  8
COPPER_B
100
AcDbLine
 10
182.7915812074
 20
197.78294121
 30
0.0
 11
182.7915812074
 21
198.4523091052
 31
0.0
  0
LINE
  5
3B3
330
1F
100
AcDbEntity
  8
COPPER_B
100
AcDbLine
 10
182.7915812074
 20
198.4523091052
 30
0.0
 11
175.28972987
 21
198.4523091052
 31
0.0
  0
LINE
  5
3B4
330
1F
100
AcDbEntity
  8
COPPER_B
100
AcDbLine
 10
175.28972987
 20
198.4523091052
 30
0.0
 11
175.28972987
 21
197.7418621214
 31
0.0
  0
LINE
  5
3B5
330
1F
100
AcDbEntity
  8
COPPER_B
100
AcDbLine
 10
181.4448252871
 20
196.9223091052
 30
0.0
 11
182.3444762619
 21
196.9423091052
 31
0.0
  0
LINE
  5
3B6
330
1F
100
AcDbEntity
  8
COPPER_B
100
AcDbLine
 10
179.9444762619
 20
185.9301181666
 30
0.0
 11
178.1467370941
 21
185.9301181666
 31
0.0
  0
LINE
  5
3B7
330
1F
100
AcDbEntity
  8
COPPER_B
100
AcDbLine
 10
179.9444762619
 20
185.9301181666
 30
0.0
 11
179.9444762619
 21
186.4291930887
 31
0.0
  0
LINE
  5
3B8
330
1F
100
AcDbEntity
  8
COPPER_B
100
AcDbLine
 10
179.9444762619
 20
186.4291930887
 30
0.0
 11
178.1467370941
 21
186.4291930887
 31
0.0
  0
LINE
  5
3B9
330
1F
100
AcDbEntity
  8
COPPER_B
100
AcDbLine
 10
178.1467370941
 20
185.9301181666
 30
0.0
 11
178.1467370941
 21
186.4291930887
 31
0.0
  0
ARC
  5
3BA
330
1F
100
AcDbEntity
  8
CARBON
100
AcDbCircle
 10
178.677190502
 20
197.2657066289
 30
0.0
 40
0.4000000000000341
100
AcDbArc
 50
270.0
 51
90.0
  0
ARC
  5
3BB
330
1F
100
AcDbEntity
  8
CARBON
100
AcDbCircle
 10
177.177190502
 20
197.2657066289
 30
0.0
 40
0.4000000000000341
100
AcDbArc
 50
90.0
 51
270.0
  0
CIRCLE
  5
3BC
330
1F
100
AcDbEntity
  8
PZT_A
100
AcDbCircle
 10
177.1819797061
 20
197.2633541197
 30
0.0
 40
0.3749999999999675
  0
ARC
  5
3BD
330
1F
100
AcDbEntity
  8
PZT_RELEASE
100
AcDbCircle
 10
179.4744762619
 20
185.9623091052
 30
0.0
 40
0.0300000000000011
100
AcDbArc
 50
180.0
 51
270.0
  0
ARC
  5
3BE
330
1F
100
AcDbEntity
  8
PZT_SIDES
100
AcDbCircle
 10
176.0744762619
 20
196.4354251217
 30
0.0
 40
0.030000000000058
100
AcDbArc
 50
180.0
 51
191.8597791209
  0
ARC
  5
3BF
330
1F
100
AcDbEntity
  8
PZT_SIDES
100
AcDbCircle
 10
175.7444762619
 20
196.6323091052
 30
0.0
 40
0.2999999999999829
100
AcDbArc
 50
0.0
 51
90.0
  0
ARC
  5
3C0
330
1F
100
AcDbEntity
  8
PZT_SIDES
100
AcDbCircle
 10
175.4244762619
 20
196.9623091052
 30
0.0
 40
0.0300000000000011
100
AcDbArc
 50
180.0
 51
270.0
  0
ARC
  5
3C1
330
1F
100
AcDbEntity
  8
PZT_SIDES
100
AcDbCircle
 10
175.4244762619
 20
198.4023091052
 30
0.0
 40
0.0300000000000011
100
AcDbArc
 50
90.0
 51
180.0
  0
ARC
  5
3C2
330
1F
100
AcDbEntity
  8
PZT_SIDES
100
AcDbCircle
 10
175.8644762619
 20
198.4023091052
 30
0.0
 40
0.0300000000000011
100
AcDbArc
 50
0.0
 51
90.0
  0
ARC
  5
3C3
330
1F
100
AcDbEntity
  8
PZT_SIDES
100
AcDbCircle
 10
175.9244762619
 20
197.4623091052
 30
0.0
 40
0.0300000000000011
100
AcDbArc
 50
180.0
 51
270.0
  0
ARC
  5
3C4
330
1F
100
AcDbEntity
  8
PZT_SIDES
100
AcDbCircle
 10
176.0144762619
 20
197.4623091052
 30
0.0
 40
0.0300000000000011
100
AcDbArc
 50
270.0
 51
0.0
  0
ARC
  5
3C5
330
1F
100
AcDbEntity
  8
PZT_SIDES
100
AcDbCircle
 10
178.1144762619
 20
186.4291930887
 30
0.0
 40
0.0300000000000011
100
AcDbArc
 50
0.0
 51
11.859779121
  0
ARC
  5
3C6
330
1F
100
AcDbEntity
  8
PZT_SIDES
100
AcDbCircle
 10
179.9744762619
 20
186.4291930887
 30
0.0
 40
0.0300000000000442
100
AcDbArc
 50
168.1402208791
 51
180.0
  0
ARC
  5
3C7
330
1F
100
AcDbEntity
  8
PZT_SIDES
100
AcDbCircle
 10
182.0144762619
 20
196.4354251217
 30
0.0
 40
0.0300000000000296
100
AcDbArc
 50
348.1402208791
 51
0.0
  0
ARC
  5
3C8
330
1F
100
AcDbEntity
  8
PZT_SIDES
100
AcDbCircle
 10
182.3444762619
 20
196.6323091052
 30
0.0
 40
0.2999999999999829
100
AcDbArc
 50
90.0
 51
180.0
  0
ARC
  5
3C9
330
1F
100
AcDbEntity
  8
PZT_SIDES
100
AcDbCircle
 10
182.6644762619
 20
196.9623091052
 30
0.0
 40
0.0300000000000011
100
AcDbArc
 50
270.0
 51
0.0
  0
ARC
  5
3CA
330
1F
100
AcDbEntity
  8
PZT_SIDES
100
AcDbCircle
 10
182.6644762619
 20
198.4023091052
 30
0.0
 40
0.0300000000000011
100
AcDbArc
 50
0.0
 51
90.0
  0
ARC
  5
3CB
330
1F
100
AcDbEntity
  8
PZT_SIDES
100
AcDbCircle
 10
182.2244762619
 20
198.4023091052
 30
0.0
 40
0.0300000000000011
100
AcDbArc
 50
90.0
 51
180.0
  0
ARC
  5
3CC
330
1F
100
AcDbEntity
  8
PZT_SIDES
100
AcDbCircle
 10
182.1644762619
 20
197.4623091052
 30
0.0
 40
0.0300000000000011
100
AcDbArc
 50
270.0
 51
0.0
  0
ARC
  5
3CD
330
1F
100
AcDbEntity
  8
PZT_SIDES
100
AcDbCircle
 10
182.0744762619
 20
197.4623091052
 30
0.0
 40
0.0300000000000011
100
AcDbArc
 50
180.0
 51
270.0000000001
  0
ARC
  5
3CE
330
1F
100
AcDbEntity
  8
PZT_RELEASE
100
AcDbCircle
 10
179.4144762619
 20
186.3023091052
 30
0.0
 40
0.0300000000000011
100
AcDbArc
 50
0.0
 51
90.0
  0
ARC
  5
3CF
330
1F
100
AcDbEntity
  8
PZT_RELEASE
100
AcDbCircle
 10
178.6744762619
 20
186.3023091052
 30
0.0
 40
0.0300000000000011
100
AcDbArc
 50
90.0
 51
180.0
  0
ARC
  5
3D0
330
1F
100
AcDbEntity
  8
PZT_RELEASE
100
AcDbCircle
 10
178.6144762619
 20
185.9623091052
 30
0.0
 40
0.0300000000000011
100
AcDbArc
 50
270.0
 51
0.0
  0
CIRCLE
  5
3D1
330
1F
100
AcDbEntity
  8
COPPER_A
100
AcDbCircle
 10
177.177190502
 20
197.2657066289
 30
0.0
 40
0.3961532604650855
  0
MTEXT
  5
3D3
330
1F
100
AcDbEntity
  8
0
  6
Continuous
 62
     7
100
AcDbMText
 10
0.0
 20
28.6610179074
 30
0.0
 40
10.2762
 41
0.0
 71
     1
 72
     1
  1
SOLIDWORKS Educational Product.
  7
SLDTEXTSTYLE0
 73
     1
 44
1.0
  0
MTEXT
  5
3D4
330
1F
100
AcDbEntity
  8
0
  6
Continuous
 62
     7
100
AcDbMText
 10
0.0
 20
13.2467179074
 30
0.0
 40
10.2762
 41
0.0
 71
     1
 72
     1
  1
For Instructional Use Only.
  7
SLDTEXTSTYLE0
 73
     1
 44
1.0
  0
ENDSEC
  0
SECTION
  2
OBJECTS
  0
DICTIONARY
  5
C
330
0
100
AcDbDictionary
281
     1
  3
ACAD_GROUP
350
D
  3
ACAD_LAYOUT
350
1A
  3
ACAD_MLINESTYLE
350
17
  3
ACAD_PLOTSETTINGS
350
19
  3
ACAD_PLOTSTYLENAME
350
E
  3
ACAD_SCALELIST
350
47
  3
DWGPROPS
350
3D5
  0
DICTIONARY
  5
D
102
{ACAD_REACTORS
330
C
102
}
330
C
100
AcDbDictionary
281
     1
  0
DICTIONARY
  5
1A
102
{ACAD_REACTORS
330
C
102
}
330
C
100
AcDbDictionary
281
     1
  3
Layout1
350
1E
  3
Layout2
350
26
  3
Model
350
22
  0
DICTIONARY
  5
17
102
{ACAD_REACTORS
330
C
102
}
330
C
100
AcDbDictionary
281
     1
  3
Standard
350
18
  0
DICTIONARY
  5
19
102
{ACAD_REACTORS
330
C
102
}
330
C
100
AcDbDictionary
281
     1
  0
ACDBDICTIONARYWDFLT
  5
E
102
{ACAD_REACTORS
330
C
102
}
330
C
100
AcDbDictionary
281
     1
  3
Normal
350
F
100
AcDbDictionaryWithDefault
340
F
  0
DICTIONARY
  5
47
102
{ACAD_REACTORS
330
C
102
}
330
C
100
AcDbDictionary
281
     1
  3
A0
350
48
  3
A1
350
49
  3
A2
350
4A
  3
A3
350
4B
  3
A4
350
4C
  3
A5
350
4D
  3
A6
350
4E
  3
A7
350
4F
  3
A8
350
50
  3
A9
350
51
  3
B0
350
52
  3
B1
350
53
  3
B2
350
54
  3
B3
350
55
  3
B4
350
56
  3
B5
350
57
  3
B6
350
58
  3
B7
350
59
  3
B8
350
5A
  3
B9
350
5B
  3
C0
350
5C
  3
C1
350
5D
  3
C2
350
5E
  3
C3
350
5F
  3
C4
350
60
  3
C5
350
61
  3
C6
350
62
  3
C7
350
63
  3
C8
350
64
  3
C9
350
65
  3
D0
350
66
  3
D1
350
67
  3
D2
350
68
  0
XRECORD
  5
3D5
102
{ACAD_REACTORS
330
C
102
}
330
C
100
AcDbXrecord
280
     1
  1
DWGPROPS COOKIE
  2

  3

  4

  6

  7

  8
aimrl
  9

300
=
301
=
302
=
303
=
304
=
305
=
306
=
307
=
308
=
309
=
 40
0.0
 41
2459465.725010185
 42
2459465.725011377
  1

 90
        0
  0
LAYOUT
  5
1E
102
{ACAD_REACTORS
330
1A
102
}
330
1A
100
AcDbPlotSettings
  1

  2
none_device
  4

  6

 40
0.0
 41
0.0
 42
0.0
 43
0.0
 44
0.0
 45
0.0
 46
0.0
 47
0.0
 48
0.0
 49
0.0
140
0.0
141
0.0
142
1.0
143
1.0
 70
   688
 72
     1
 73
     0
 74
     5
  7

 75
    16
147
1.0
148
0.0
149
0.0
100
AcDbLayout
  1
Layout1
 70
     1
 71
     1
 10
0.0
 20
0.0
 11
420.0
 21
297.0
 12
0.0
 22
0.0
 32
0.0
 14
1.0000000000E+20
 24
1.0000000000E+20
 34
1.0000000000E+20
 15
-1.0000000000E+20
 25
-1.0000000000E+20
 35
-1.0000000000E+20
146
0.0
 13
0.0
 23
0.0
 33
0.0
 16
1.0
 26
0.0
 36
0.0
 17
0.0
 27
1.0
 37
0.0
 76
     0
330
1B
  0
LAYOUT
  5
26
102
{ACAD_REACTORS
330
1A
102
}
330
1A
100
AcDbPlotSettings
  1

  2
none_device
  4

  6

 40
0.0
 41
0.0
 42
0.0
 43
0.0
 44
0.0
 45
0.0
 46
0.0
 47
0.0
 48
0.0
 49
0.0
140
0.0
141
0.0
142
1.0
143
1.0
 70
   688
 72
     1
 73
     0
 74
     5
  7

 75
    16
147
1.0
148
0.0
149
0.0
100
AcDbLayout
  1
Layout2
 70
     1
 71
     2
 10
0.0
 20
0.0
 11
0.0
 21
0.0
 12
0.0
 22
0.0
 32
0.0
 14
0.0
 24
0.0
 34
0.0
 15
0.0
 25
0.0
 35
0.0
146
0.0
 13
0.0
 23
0.0
 33
0.0
 16
1.0
 26
0.0
 36
0.0
 17
0.0
 27
1.0
 37
0.0
 76
     0
330
23
  0
LAYOUT
  5
22
102
{ACAD_REACTORS
330
1A
102
}
330
1A
100
AcDbPlotSettings
  1

  2
none_device
  4
Letter_(8.50_x_11.00_Inches)
  6

 40
6.35
 41
6.35
 42
6.35000508
 43
6.35000508
 44
215.9
 45
279.4
 46
0.0
 47
0.0
 48
0.0
 49
0.0
140
0.0
141
0.0
142
1.0
143
1.0
 70
  1712
 72
     1
 73
     0
 74
     0
  7

 75
     0
147
1.0
148
0.0
149
0.0
100
AcDbLayout
  1
Model
 70
     1
 71
     0
 10
0.0
 20
0.0
 11
841.0
 21
594.0
 12
0.0
 22
0.0
 32
0.0
 14
0.0
 24
0.0
 34
0.0
 15
841.0
 25
594.0
 35
0.0
146
0.0
 13
0.0
 23
0.0
 33
0.0
 16
1.0
 26
0.0
 36
0.0
 17
0.0
 27
1.0
 37
0.0
 76
     0
330
1F
331
29
  0
MLINESTYLE
  5
18
102
{ACAD_REACTORS
330
17
102
}
330
17
100
AcDbMlineStyle
  2
Standard
 70
     0
  3

 62
   256
 51
90.0
 52
90.0
 71
     2
 49
0.5
 62
   256
  6
BYLAYER
 49
-0.5
 62
   256
  6
BYLAYER
  0
ACDBPLACEHOLDER
  5
F
102
{ACAD_REACTORS
330
E
102
}
330
E
  0
SCALE
  5
48
102
{ACAD_REACTORS
330
47
102
}
330
47
100
AcDbScale
 70
     0
300
1:1
140
1.0
141
1.0
290
     1
  0
SCALE
  5
49
102
{ACAD_REACTORS
330
47
102
}
330
47
100
AcDbScale
 70
     0
300
1:2
140
1.0
141
2.0
290
     0
  0
SCALE
  5
4A
102
{ACAD_REACTORS
330
47
102
}
330
47
100
AcDbScale
 70
     0
300
1:4
140
1.0
141
4.0
290
     0
  0
SCALE
  5
4B
102
{ACAD_REACTORS
330
47
102
}
330
47
100
AcDbScale
 70
     0
300
1:5
140
1.0
141
5.0
290
     0
  0
SCALE
  5
4C
102
{ACAD_REACTORS
330
47
102
}
330
47
100
AcDbScale
 70
     0
300
1:8
140
1.0
141
8.0
290
     0
  0
SCALE
  5
4D
102
{ACAD_REACTORS
330
47
102
}
330
47
100
AcDbScale
 70
     0
300
1:10
140
1.0
141
10.0
290
     0
  0
SCALE
  5
4E
102
{ACAD_REACTORS
330
47
102
}
330
47
100
AcDbScale
 70
     0
300
1:16
140
1.0
141
16.0
290
     0
  0
SCALE
  5
4F
102
{ACAD_REACTORS
330
47
102
}
330
47
100
AcDbScale
 70
     0
300
1:20
140
1.0
141
20.0
290
     0
  0
SCALE
  5
50
102
{ACAD_REACTORS
330
47
102
}
330
47
100
AcDbScale
 70
     0
300
1:30
140
1.0
141
30.0
290
     0
  0
SCALE
  5
51
102
{ACAD_REACTORS
330
47
102
}
330
47
100
AcDbScale
 70
     0
300
1:40
140
1.0
141
40.0
290
     0
  0
SCALE
  5
52
102
{ACAD_REACTORS
330
47
102
}
330
47
100
AcDbScale
 70
     0
300
1:50
140
1.0
141
50.0
290
     0
  0
SCALE
  5
53
102
{ACAD_REACTORS
330
47
102
}
330
47
100
AcDbScale
 70
     0
300
1:100
140
1.0
141
100.0
290
     0
  0
SCALE
  5
54
102
{ACAD_REACTORS
330
47
102
}
330
47
100
AcDbScale
 70
     0
300
2:1
140
2.0
141
1.0
290
     0
  0
SCALE
  5
55
102
{ACAD_REACTORS
330
47
102
}
330
47
100
AcDbScale
 70
     0
300
4:1
140
4.0
141
1.0
290
     0
  0
SCALE
  5
56
102
{ACAD_REACTORS
330
47
102
}
330
47
100
AcDbScale
 70
     0
300
8:1
140
8.0
141
1.0
290
     0
  0
SCALE
  5
57
102
{ACAD_REACTORS
330
47
102
}
330
47
100
AcDbScale
 70
     0
300
10:1
140
10.0
141
1.0
290
     0
  0
SCALE
  5
58
102
{ACAD_REACTORS
330
47
102
}
330
47
100
AcDbScale
 70
     0
300
100:1
140
100.0
141
1.0
290
     0
  0
SCALE
  5
59
102
{ACAD_REACTORS
330
47
102
}
330
47
100
AcDbScale
 70
     0
300
1/128" = 1'-0"
140
0.0078125
141
12.0
290
     0
  0
SCALE
  5
5A
102
{ACAD_REACTORS
330
47
102
}
330
47
100
AcDbScale
 70
     0
300
1/64" = 1'-0"
140
0.015625
141
12.0
290
     0
  0
SCALE
  5
5B
102
{ACAD_REACTORS
330
47
102
}
330
47
100
AcDbScale
 70
     0
300
1/32" = 1'-0"
140
0.03125
141
12.0
290
     0
  0
SCALE
  5
5C
102
{ACAD_REACTORS
330
47
102
}
330
47
100
AcDbScale
 70
     0
300
1/16" = 1'-0"
140
0.0625
141
12.0
290
     0
  0
SCALE
  5
5D
102
{ACAD_REACTORS
330
47
102
}
330
47
100
AcDbScale
 70
     0
300
3/32" = 1'-0"
140
0.09375
141
12.0
290
     0
  0
SCALE
  5
5E
102
{ACAD_REACTORS
330
47
102
}
330
47
100
AcDbScale
 70
     0
300
1/8" = 1'-0"
140
0.125
141
12.0
290
     0
  0
SCALE
  5
5F
102
{ACAD_REACTORS
330
47
102
}
330
47
100
AcDbScale
 70
     0
300
3/16" = 1'-0"
140
0.1875
141
12.0
290
     0
  0
SCALE
  5
60
102
{ACAD_REACTORS
330
47
102
}
330
47
100
AcDbScale
 70
     0
300
1/4" = 1'-0"
140
0.25
141
12.0
290
     0
  0
SCALE
  5
61
102
{ACAD_REACTORS
330
47
102
}
330
47
100
AcDbScale
 70
     0
300
3/8" = 1'-0"
140
0.375
141
12.0
290
     0
  0
SCALE
  5
62
102
{ACAD_REACTORS
330
47
102
}
330
47
100
AcDbScale
 70
     0
300
1/2" = 1'-0"
140
0.5
141
12.0
290
     0
  0
SCALE
  5
63
102
{ACAD_REACTORS
330
47
102
}
330
47
100
AcDbScale
 70
     0
300
3/4" = 1'-0"
140
0.75
141
12.0
290
     0
  0
SCALE
  5
64
102
{ACAD_REACTORS
330
47
102
}
330
47
100
AcDbScale
 70
     0
300
1" = 1'-0"
140
1.0
141
12.0
290
     0
  0
SCALE
  5
65
102
{ACAD_REACTORS
330
47
102
}
330
47
100
AcDbScale
 70
     0
300
1-1/2" = 1'-0"
140
1.5
141
12.0
290
     0
  0
SCALE
  5
66
102
{ACAD_REACTORS
330
47
102
}
330
47
100
AcDbScale
 70
     0
300
3" = 1'-0"
140
3.0
141
12.0
290
     0
  0
SCALE
  5
67
102
{ACAD_REACTORS
330
47
102
}
330
47
100
AcDbScale
 70
     0
300
6" = 1'-0"
140
6.0
141
12.0
290
     0
  0
SCALE
  5
68
102
{ACAD_REACTORS
330
47
102
}
330
47
100
AcDbScale
 70
     0
300
1'-0" = 1'-0"
140
12.0
141
12.0
290
     0
  0
ENDSEC
  0
EOF
