  0
SECTION
  2
HEADER
  9
$ACADVER
  1
AC1024
  9
$ACADMAINTVER
 70
     6
  9
$DWGCODEPAGE
  3
ANSI_1252
  9
$LASTSAVEDBY
  1
AIMRL
  9
$INSBASE
 10
0.0
 20
0.0
 30
0.0
  9
$EXTMIN
 10
0.0
 20
0.0
 30
0.0
  9
$EXTMAX
 10
400.0
 20
297.0
 30
0.0
  9
$LIMMIN
 10
0.0
 20
0.0
  9
$LIMMAX
 10
400.0
 20
297.0
  9
$ORTHOMODE
 70
     0
  9
$REGENMODE
 70
     1
  9
$FILLMODE
 70
     1
  9
$QTEXTMODE
 70
     0
  9
$MIRRTEXT
 70
     1
  9
$LTSCALE
 40
1.0
  9
$ATTMODE
 70
     1
  9
$TEXTSIZE
 40
10.5
  9
$TRACEWID
 40
1.0
  9
$TEXTSTYLE
  7
Standard
  9
$CLAYER
  8
0
  9
$CELTYPE
  6
ByLayer
  9
$CECOLOR
 62
   256
  9
$CELTSCALE
 40
1.0
  9
$DISPSILH
 70
     0
  9
$DIMSCALE
 40
1.0
  9
$DIMASZ
 40
0.15
  9
$DIMEXO
 40
0.2
  9
$DIMDLI
 40
3.75
  9
$DIMRND
 40
0.0
  9
$DIMDLE
 40
0.0
  9
$DIMEXE
 40
0.1
  9
$DIMTP
 40
0.0
  9
$DIMTM
 40
0.0
  9
$DIMTXT
 40
0.45
  9
$DIMCEN
 40
2.5
  9
$DIMTSZ
 40
0.0
  9
$DIMTOL
 70
     0
  9
$DIMLIM
 70
     0
  9
$DIMTIH
 70
     1
  9
$DIMTOH
 70
     1
  9
$DIMSE1
 70
     0
  9
$DIMSE2
 70
     0
  9
$DIMTAD
 70
     1
  9
$DIMZIN
 70
     1
  9
$DIMBLK
  1

  9
$DIMASO
 70
     1
  9
$DIMSHO
 70
     1
  9
$DIMPOST
  1

  9
$DIMAPOST
  1

  9
$DIMALT
 70
     0
  9
$DIMALTD
 70
     3
  9
$DIMALTF
 40
0.0393700787
  9
$DIMLFAC
 40
0.3333333333
  9
$DIMTOFL
 70
     1
  9
$DIMTVP
 40
0.0
  9
$DIMTIX
 70
     0
  9
$DIMSOXD
 70
     0
  9
$DIMSAH
 70
     0
  9
$DIMBLK1
  1

  9
$DIMBLK2
  1

  9
$DIMSTYLE
  2
ISO-25
  9
$DIMCLRD
 70
     0
  9
$DIMCLRE
 70
     0
  9
$DIMCLRT
 70
     0
  9
$DIMTFAC
 40
1.0
  9
$DIMGAP
 40
0.524
  9
$DIMJUST
 70
     0
  9
$DIMSD1
 70
     0
  9
$DIMSD2
 70
     0
  9
$DIMTOLJ
 70
     0
  9
$DIMTZIN
 70
     1
  9
$DIMALTZ
 70
     0
  9
$DIMALTTZ
 70
     0
  9
$DIMUPT
 70
     0
  9
$DIMDEC
 70
     2
  9
$DIMTDEC
 70
     2
  9
$DIMALTU
 70
     2
  9
$DIMALTTD
 70
     3
  9
$DIMTXSTY
  7
Standard
  9
$DIMAUNIT
 70
     0
  9
$DIMADEC
 70
     2
  9
$DIMALTRND
 40
0.0
  9
$DIMAZIN
 70
     0
  9
$DIMDSEP
 70
    44
  9
$DIMATFIT
 70
     3
  9
$DIMFRAC
 70
     0
  9
$DIMLDRBLK
  1

  9
$DIMLUNIT
 70
     2
  9
$DIMLWD
 70
    -2
  9
$DIMLWE
 70
    -2
  9
$DIMTMOVE
 70
     0
  9
$DIMFXL
 40
1.0
  9
$DIMFXLON
 70
     0
  9
$DIMJOGANG
 40
0.7853981634
  9
$DIMTFILL
 70
     0
  9
$DIMTFILLCLR
 70
     0
  9
$DIMARCSYM
 70
     0
  9
$DIMLTYPE
  6

  9
$DIMLTEX1
  6

  9
$DIMLTEX2
  6

  9
$DIMTXTDIRECTION
 70
     0
  9
$LUNITS
 70
     2
  9
$LUPREC
 70
     4
  9
$SKETCHINC
 40
1.0
  9
$FILLETRAD
 40
10.0
  9
$AUNITS
 70
     0
  9
$AUPREC
 70
     2
  9
$MENU
  1
.
  9
$ELEVATION
 40
0.0
  9
$PELEVATION
 40
0.0
  9
$THICKNESS
 40
0.0
  9
$LIMCHECK
 70
     0
  9
$CHAMFERA
 40
0.0
  9
$CHAMFERB
 40
0.0
  9
$CHAMFERC
 40
0.0
  9
$CHAMFERD
 40
0.0
  9
$SKPOLY
 70
     0
  9
$TDCREATE
 40
2459166.609684074
  9
$TDUCREATE
 40
2459166.901350741
  9
$TDUPDATE
 40
2459166.609690405
  9
$TDUUPDATE
 40
2459166.901357072
  9
$TDINDWG
 40
0.0000000116
  9
$TDUSRTIMER
 40
0.0000000116
  9
$USRTIMER
 70
     1
  9
$ANGBASE
 50
0.0
  9
$ANGDIR
 70
     0
  9
$PDMODE
 70
     0
  9
$PDSIZE
 40
-1.0
  9
$PLINEWID
 40
0.0
  9
$SPLFRAME
 70
     0
  9
$SPLINETYPE
 70
     6
  9
$SPLINESEGS
 70
     8
  9
$HANDSEED
  5
2AF
  9
$SURFTAB1
 70
     6
  9
$SURFTAB2
 70
     6
  9
$SURFTYPE
 70
     6
  9
$SURFU
 70
     6
  9
$SURFV
 70
     6
  9
$UCSBASE
  2

  9
$UCSNAME
  2

  9
$UCSORG
 10
0.0
 20
0.0
 30
0.0
  9
$UCSXDIR
 10
1.0
 20
0.0
 30
0.0
  9
$UCSYDIR
 10
0.0
 20
1.0
 30
0.0
  9
$UCSORTHOREF
  2

  9
$UCSORTHOVIEW
 70
     0
  9
$UCSORGTOP
 10
0.0
 20
0.0
 30
0.0
  9
$UCSORGBOTTOM
 10
0.0
 20
0.0
 30
0.0
  9
$UCSORGLEFT
 10
0.0
 20
0.0
 30
0.0
  9
$UCSORGRIGHT
 10
0.0
 20
0.0
 30
0.0
  9
$UCSORGFRONT
 10
0.0
 20
0.0
 30
0.0
  9
$UCSORGBACK
 10
0.0
 20
0.0
 30
0.0
  9
$PUCSBASE
  2

  9
$PUCSNAME
  2

  9
$PUCSORG
 10
0.0
 20
0.0
 30
0.0
  9
$PUCSXDIR
 10
1.0
 20
0.0
 30
0.0
  9
$PUCSYDIR
 10
0.0
 20
1.0
 30
0.0
  9
$PUCSORTHOREF
  2

  9
$PUCSORTHOVIEW
 70
     0
  9
$PUCSORGTOP
 10
0.0
 20
0.0
 30
0.0
  9
$PUCSORGBOTTOM
 10
0.0
 20
0.0
 30
0.0
  9
$PUCSORGLEFT
 10
0.0
 20
0.0
 30
0.0
  9
$PUCSORGRIGHT
 10
0.0
 20
0.0
 30
0.0
  9
$PUCSORGFRONT
 10
0.0
 20
0.0
 30
0.0
  9
$PUCSORGBACK
 10
0.0
 20
0.0
 30
0.0
  9
$USERI1
 70
     0
  9
$USERI2
 70
     0
  9
$USERI3
 70
     0
  9
$USERI4
 70
     0
  9
$USERI5
 70
     0
  9
$USERR1
 40
0.0
  9
$USERR2
 40
0.0
  9
$USERR3
 40
0.0
  9
$USERR4
 40
0.0
  9
$USERR5
 40
0.0
  9
$WORLDVIEW
 70
     1
  9
$SHADEDGE
 70
     3
  9
$SHADEDIF
 70
    70
  9
$TILEMODE
 70
     1
  9
$MAXACTVP
 70
    64
  9
$PINSBASE
 10
0.0
 20
0.0
 30
0.0
  9
$PLIMCHECK
 70
     0
  9
$PEXTMIN
 10
1.0000000000E+20
 20
1.0000000000E+20
 30
1.0000000000E+20
  9
$PEXTMAX
 10
-1.0000000000E+20
 20
-1.0000000000E+20
 30
-1.0000000000E+20
  9
$PLIMMIN
 10
0.0
 20
0.0
  9
$PLIMMAX
 10
420.0
 20
297.0
  9
$UNITMODE
 70
     0
  9
$VISRETAIN
 70
     1
  9
$PLINEGEN
 70
     0
  9
$PSLTSCALE
 70
     1
  9
$TREEDEPTH
 70
  3020
  9
$CMLSTYLE
  2
Standard
  9
$CMLJUST
 70
     0
  9
$CMLSCALE
 40
20.0
  9
$PROXYGRAPHICS
 70
     1
  9
$MEASUREMENT
 70
     1
  9
$CELWEIGHT
370
    -1
  9
$ENDCAPS
280
     0
  9
$JOINSTYLE
280
     0
  9
$LWDISPLAY
290
     1
  9
$INSUNITS
 70
     4
  9
$HYPERLINKBASE
  1

  9
$STYLESHEET
  1

  9
$XEDIT
290
     1
  9
$CEPSNTYPE
380
     0
  9
$PSTYLEMODE
290
     1
  9
$FINGERPRINTGUID
  2
{cbfd4c95-79cd-4545-8cb9-254a351fa7a5}
  9
$VERSIONGUID
  2
{FAEB1C32-E019-11D5-929B-00C0DF256EC4}
  9
$EXTNAMES
290
     1
  9
$PSVPSCALE
 40
0.0
  9
$OLESTARTUP
290
     0
  9
$SORTENTS
280
   127
  9
$INDEXCTL
280
     0
  9
$HIDETEXT
280
     1
  9
$XCLIPFRAME
280
     2
  9
$HALOGAP
280
     0
  9
$OBSCOLOR
 70
   257
  9
$OBSLTYPE
280
     0
  9
$INTERSECTIONDISPLAY
280
     0
  9
$INTERSECTIONCOLOR
 70
   257
  9
$DIMASSOC
280
     2
  9
$PROJECTNAME
  1

  9
$CAMERADISPLAY
290
     0
  9
$LENSLENGTH
 40
50.0
  9
$CAMERAHEIGHT
 40
0.0
  9
$STEPSPERSEC
 40
2.0
  9
$STEPSIZE
 40
6.0
  9
$3DDWFPREC
 40
2.0
  9
$PSOLWIDTH
 40
5.0
  9
$PSOLHEIGHT
 40
80.0
  9
$LOFTANG1
 40
1.5707963268
  9
$LOFTANG2
 40
1.5707963268
  9
$LOFTMAG1
 40
0.0
  9
$LOFTMAG2
 40
0.0
  9
$LOFTPARAM
 70
     7
  9
$LOFTNORMALS
280
     1
  9
$LATITUDE
 40
37.795
  9
$LONGITUDE
 40
-122.394
  9
$NORTHDIRECTION
 40
0.0
  9
$TIMEZONE
 70
 -8000
  9
$LIGHTGLYPHDISPLAY
280
     1
  9
$TILEMODELIGHTSYNCH
280
     1
  9
$CMATERIAL
347
44
  9
$SOLIDHIST
280
     0
  9
$SHOWHIST
280
     1
  9
$DWFFRAME
280
     2
  9
$DGNFRAME
280
     2
  9
$REALWORLDSCALE
290
     1
  9
$INTERFERECOLOR
 62
   256
  9
$CSHADOW
280
     0
  9
$SHADOWPLANELOCATION
 40
0.0
  0
ENDSEC
  0
SECTION
  2
CLASSES
  0
CLASS
  1
ACDBDICTIONARYWDFLT
  2
AcDbDictionaryWithDefault
  3
ObjectDBX Classes
 90
        0
 91
        3
280
     0
281
     0
  0
CLASS
  1
VISUALSTYLE
  2
AcDbVisualStyle
  3
ObjectDBX Classes
 90
     4095
 91
        3
280
     0
281
     0
  0
CLASS
  1
MATERIAL
  2
AcDbMaterial
  3
ObjectDBX Classes
 90
     1153
 91
        3
280
     0
281
     0
  0
CLASS
  1
SCALE
  2
AcDbScale
  3
ObjectDBX Classes
 90
     1153
 91
        3
280
     0
281
     0
  0
CLASS
  1
TABLESTYLE
  2
AcDbTableStyle
  3
ObjectDBX Classes
 90
     4095
 91
        3
280
     0
281
     0
  0
CLASS
  1
MLEADERSTYLE
  2
AcDbMLeaderStyle
  3
ACDB_MLEADERSTYLE_CLASS
 90
     4095
 91
        3
280
     0
281
     0
  0
CLASS
  1
SUN
  2
AcDbSun
  3
SCENEOE
 90
     1153
 91
        3
280
     0
281
     0
  0
CLASS
  1
DICTIONARYVAR
  2
AcDbDictionaryVar
  3
ObjectDBX Classes
 90
        0
 91
        3
280
     0
281
     0
  0
CLASS
  1
CELLSTYLEMAP
  2
AcDbCellStyleMap
  3
ObjectDBX Classes
 90
     1152
 91
        3
280
     0
281
     0
  0
ENDSEC
  0
SECTION
  2
TABLES
  0
TABLE
  2
VPORT
  5
8
330
0
100
AcDbSymbolTable
 70
     1
  0
VPORT
  5
29
330
8
100
AcDbSymbolTableRecord
100
AcDbViewportTableRecord
  2
*Active
 70
     0
 10
0.0
 20
0.0
 11
1.0
 21
1.0
 12
200.0
 22
148.5
 13
0.0
 23
0.0
 14
10.0
 24
10.0
 15
10.0
 25
10.0
 16
0.0
 26
0.0
 36
1.0
 17
0.0
 27
0.0
 37
0.0
 40
297.0
 41
1.3468013468
 42
50.0
 43
0.0
 44
0.0
 50
0.0
 51
0.0
 71
     0
 72
  2000
 73
     1
 74
     3
 75
     0
 76
     0
 77
     0
 78
     0
281
     0
 65
     1
110
0.0
120
0.0
130
0.0
111
1.0
121
0.0
131
0.0
112
0.0
122
1.0
132
0.0
 79
     0
146
0.0
348
2F
 60
     3
 61
     5
292
     1
282
     1
141
0.0
142
0.0
 63
   250
361
6D
  0
ENDTAB
  0
TABLE
  2
LTYPE
  5
5
330
0
100
AcDbSymbolTable
 70
     6
  0
LTYPE
  5
14
330
5
100
AcDbSymbolTableRecord
100
AcDbLinetypeTableRecord
  2
ByBlock
 70
     0
  3

 72
    65
 73
     0
 40
0.0
  0
LTYPE
  5
15
330
5
100
AcDbSymbolTableRecord
100
AcDbLinetypeTableRecord
  2
ByLayer
 70
     0
  3

 72
    65
 73
     0
 40
0.0
  0
LTYPE
  5
16
330
5
100
AcDbSymbolTableRecord
100
AcDbLinetypeTableRecord
  2
Continuous
 70
     0
  3
Solid line
 72
    65
 73
     0
 40
0.0
  0
LTYPE
  5
6E
330
5
100
AcDbSymbolTableRecord
100
AcDbLinetypeTableRecord
  2
HIDDEN
 70
     0
  3
Hidden __ __ __ __ __ __ __ __ __ __ __ __ __ __
 72
    65
 73
     2
 40
1.905
 49
1.27
 74
     0
 49
-0.635
 74
     0
  0
LTYPE
  5
6F
330
5
100
AcDbSymbolTableRecord
100
AcDbLinetypeTableRecord
  2
PHANTOM
 70
     0
  3
Phantom ______  __  __  ______  __  __  ______
 72
    65
 73
     6
 40
12.7
 49
6.35
 74
     0
 49
-1.27
 74
     0
 49
1.27
 74
     0
 49
-1.27
 74
     0
 49
1.27
 74
     0
 49
-1.27
 74
     0
  0
LTYPE
  5
70
330
5
100
AcDbSymbolTableRecord
100
AcDbLinetypeTableRecord
  2
CENTER
 70
     0
  3
Center ____ _ ____ _ ____ _ ____ _ ____ _ ____
 72
    65
 73
     4
 40
10.16
 49
6.35
 74
     0
 49
-1.27
 74
     0
 49
1.27
 74
     0
 49
-1.27
 74
     0
  0
LTYPE
  5
71
330
5
100
AcDbSymbolTableRecord
100
AcDbLinetypeTableRecord
  2
CENTERX2
 70
     0
  3
Center (2x) ________  __  ________  __  _____
 72
    65
 73
     4
 40
20.32
 49
12.7
 74
     0
 49
-2.54
 74
     0
 49
2.54
 74
     0
 49
-2.54
 74
     0
  0
LTYPE
  5
72
330
5
100
AcDbSymbolTableRecord
100
AcDbLinetypeTableRecord
  2
DOT2
 70
     0
  3
Dot (.5x) ........................................
 72
    65
 73
     2
 40
0.635
 49
0.0
 74
     0
 49
-0.635
 74
     0
  0
ENDTAB
  0
TABLE
  2
LAYER
  5
2
330
0
100
AcDbSymbolTable
 70
     2
  0
LAYER
  5
10
330
2
100
AcDbSymbolTableRecord
100
AcDbLayerTableRecord
  2
0
 70
     0
 62
     7
  6
Continuous
370
    -3
390
F
347
46
  0
LAYER
  5
73
330
2
100
AcDbSymbolTableRecord
100
AcDbLayerTableRecord
  2
004_FINAL
 70
     0
 62
     1
  6
Continuous
370
    -3
390
F
347
46
  0
ENDTAB
  0
TABLE
  2
STYLE
  5
3
330
0
100
AcDbSymbolTable
 70
     3
  0
STYLE
  5
11
330
3
100
AcDbSymbolTableRecord
100
AcDbTextStyleTableRecord
  2
Standard
 70
     0
 40
0.0
 41
1.0
 50
0.0
 71
     0
 42
10.5
  3
txt
  4

  0
STYLE
  5
298
330
3
100
AcDbSymbolTableRecord
100
AcDbTextStyleTableRecord
  2
SLDTEXTSTYLE0
 70
     0
 40
0.0
 41
0.75
 50
0.0
 71
     0
 42
10.5
  3
TXT
  4

  0
STYLE
  5
2A1
330
3
100
AcDbSymbolTableRecord
100
AcDbTextStyleTableRecord
  2
SLDTEXTSTYLE1
 70
     0
 40
0.0
 41
0.7
 50
0.0
 71
     0
 42
10.5
  3
TXT
  4

  0
ENDTAB
  0
TABLE
  2
VIEW
  5
6
330
0
100
AcDbSymbolTable
 70
     0
  0
ENDTAB
  0
TABLE
  2
UCS
  5
7
330
0
100
AcDbSymbolTable
 70
     0
  0
ENDTAB
  0
TABLE
  2
APPID
  5
9
330
0
100
AcDbSymbolTable
 70
     1
  0
APPID
  5
12
330
9
100
AcDbSymbolTableRecord
100
AcDbRegAppTableRecord
  2
ACAD
 70
     0
  0
ENDTAB
  0
TABLE
  2
DIMSTYLE
  5
A
330
0
100
AcDbSymbolTable
 70
     2
100
AcDbDimStyleTable
  0
DIMSTYLE
105
27
330
A
100
AcDbSymbolTableRecord
100
AcDbDimStyleTableRecord
  2
ISO-25
 70
     0
 41
2.5
 42
0.625
 43
3.75
 44
1.25
 73
     0
 74
     0
 77
     1
 78
     8
140
2.5
141
2.5
143
0.0393700787
147
0.625
171
     3
172
     1
178
     0
271
     2
272
     2
274
     3
278
    44
283
     0
284
     8
340
11
  0
DIMSTYLE
105
299
102
{ACAD_REACTORS
330
297
102
}
330
A
100
AcDbSymbolTableRecord
100
AcDbDimStyleTableRecord
  2
SLDDIMSTYLE0
 70
     0
 41
0.15
 44
0.0
 45
0.000000001
 73
     0
 74
     0
 77
     1
 78
    12
 79
     3
140
0.45
144
0.3333333333
147
0.1125
172
     1
173
     1
178
     0
271
     2
272
     2
276
     2
284
    12
289
     0
340
298
341
29A
343
29A
344
29A
  0
ENDTAB
  0
TABLE
  2
BLOCK_RECORD
  5
1
330
0
100
AcDbSymbolTable
 70
     3
  0
BLOCK_RECORD
  5
1F
330
1
100
AcDbSymbolTableRecord
100
AcDbBlockTableRecord
  2
*Model_Space
340
22
 70
     0
280
     1
281
     0
  0
BLOCK_RECORD
  5
1B
330
1
100
AcDbSymbolTableRecord
100
AcDbBlockTableRecord
  2
*Paper_Space
340
1E
 70
     0
280
     1
281
     0
  0
BLOCK_RECORD
  5
23
330
1
100
AcDbSymbolTableRecord
100
AcDbBlockTableRecord
  2
*Paper_Space0
340
26
 70
     0
280
     1
281
     0
  0
BLOCK_RECORD
  5
29A
330
1
100
AcDbSymbolTableRecord
100
AcDbBlockTableRecord
  2
_None
340
0
 70
     0
280
     1
281
     0
  0
BLOCK_RECORD
  5
29D
330
1
100
AcDbSymbolTableRecord
100
AcDbBlockTableRecord
  2
_D
340
0
 70
     0
280
     1
281
     0
  0
ENDTAB
  0
ENDSEC
  0
SECTION
  2
BLOCKS
  0
BLOCK
  5
20
330
1F
100
AcDbEntity
  8
0
100
AcDbBlockBegin
  2
*Model_Space
 70
     0
 10
0.0
 20
0.0
 30
0.0
  3
*Model_Space
  1

  0
ENDBLK
  5
21
330
1F
100
AcDbEntity
  8
0
100
AcDbBlockEnd
  0
BLOCK
  5
1C
330
1B
100
AcDbEntity
 67
     1
  8
0
100
AcDbBlockBegin
  2
*Paper_Space
 70
     0
 10
0.0
 20
0.0
 30
0.0
  3
*Paper_Space
  1

  0
ENDBLK
  5
1D
330
1B
100
AcDbEntity
 67
     1
  8
0
100
AcDbBlockEnd
  0
BLOCK
  5
24
330
23
100
AcDbEntity
  8
0
100
AcDbBlockBegin
  2
*Paper_Space0
 70
     0
 10
0.0
 20
0.0
 30
0.0
  3
*Paper_Space0
  1

  0
ENDBLK
  5
25
330
23
100
AcDbEntity
  8
0
100
AcDbBlockEnd
  0
BLOCK
  5
29B
330
29A
100
AcDbEntity
  8
0
100
AcDbBlockBegin
  2
_None
 70
     0
 10
0.0
 20
0.0
 30
0.0
  3
_None
  1

  0
ENDBLK
  5
29C
330
29A
100
AcDbEntity
  8
0
100
AcDbBlockEnd
  0
BLOCK
  5
29E
330
29D
100
AcDbEntity
  8
0
100
AcDbBlockBegin
  2
_D
 70
     0
 10
0.0
 20
0.0
 30
0.0
  3
_D
  1

  0
MTEXT
  5
2A0
330
29D
100
AcDbEntity
  8
0
  6
Continuous
 62
     7
370
    18
100
AcDbMText
 10
199.7813477963
 20
530.8742107036
 30
0.0
 40
0.45
 41
0.0
 46
0.0
 71
     1
 72
     1
  1
7
  7
SLDTEXTSTYLE0
 73
     1
 44
1.0
  0
ENDBLK
  5
29F
330
29D
100
AcDbEntity
  8
0
100
AcDbBlockEnd
  0
ENDSEC
  0
SECTION
  2
ENTITIES
  0
LINE
  5
74
330
1F
100
AcDbEntity
  8
004_FINAL
100
AcDbLine
 10
531.3849361313
 20
473.3588860617
 30
0.0
 11
525.2949361313
 21
473.3588860617
 31
0.0
  0
LINE
  5
75
330
1F
100
AcDbEntity
  8
004_FINAL
100
AcDbLine
 10
525.2949361313
 20
471.8588860617
 30
0.0
 11
525.2949361313
 21
473.3588860617
 31
0.0
  0
LINE
  5
76
330
1F
100
AcDbEntity
  8
004_FINAL
100
AcDbLine
 10
525.2949361313
 20
471.8588860617
 30
0.0
 11
534.3849361313
 21
471.8588860617
 31
0.0
  0
LINE
  5
77
330
1F
100
AcDbEntity
  8
004_FINAL
100
AcDbLine
 10
531.4749361313
 20
468.8588860617
 30
0.0
 11
531.3849361313
 21
468.8588860617
 31
0.0
  0
LINE
  5
78
330
1F
100
AcDbEntity
  8
004_FINAL
100
AcDbLine
 10
531.3849361313
 20
466.9688860617
 30
0.0
 11
532.8849361313
 21
466.9688860617
 31
0.0
  0
LINE
  5
79
330
1F
100
AcDbEntity
  8
004_FINAL
100
AcDbLine
 10
534.6154711383
 20
468.6994210687
 30
0.0
 11
534.6154711383
 21
473.2038213082
 31
0.0
  0
LINE
  5
7A
330
1F
100
AcDbEntity
  8
004_FINAL
100
AcDbLine
 10
533.0513509145
 20
474.767941532
 30
0.0
 11
533.0513509145
 21
477.767941532
 31
0.0
  0
LINE
  5
7B
330
1F
100
AcDbEntity
  8
004_FINAL
100
AcDbLine
 10
535.5818595673
 20
480.2984501848
 30
0.0
 11
537.7668195211
 21
478.1134902309
 31
0.0
  0
LINE
  5
7C
330
1F
100
AcDbEntity
  8
004_FINAL
100
AcDbLine
 10
540.0154190853
 20
480.3620897951
 30
0.0
 11
537.7668195211
 21
478.1134902309
 31
0.0
  0
LINE
  5
7D
330
1F
100
AcDbEntity
  8
004_FINAL
100
AcDbLine
 10
535.5818595673
 20
480.2984501848
 30
0.0
 11
533.0513509145
 21
477.767941532
 31
0.0
  0
LINE
  5
7E
330
1F
100
AcDbEntity
  8
004_FINAL
100
AcDbLine
 10
533.0513509145
 20
474.767941532
 30
0.0
 11
534.6154711383
 21
473.2038213082
 31
0.0
  0
LINE
  5
7F
330
1F
100
AcDbEntity
  8
004_FINAL
100
AcDbLine
 10
534.6154711383
 20
468.6994210687
 30
0.0
 11
532.8849361313
 21
466.9688860617
 31
0.0
  0
LINE
  5
80
330
1F
100
AcDbEntity
  8
004_FINAL
100
AcDbLine
 10
531.3849361313
 20
466.9688860617
 30
0.0
 11
531.3849361313
 21
468.8588860617
 31
0.0
  0
LINE
  5
81
330
1F
100
AcDbEntity
  8
004_FINAL
100
AcDbLine
 10
534.3849361313
 20
468.8588860617
 30
0.0
 11
534.3849361313
 21
471.8588860617
 31
0.0
  0
LINE
  5
82
330
1F
100
AcDbEntity
  8
004_FINAL
100
AcDbLine
 10
531.3849361313
 20
473.3588860617
 30
0.0
 11
531.3849361313
 21
480.9656823283
 31
0.0
  0
LINE
  5
83
330
1F
100
AcDbEntity
  8
004_FINAL
100
AcDbLine
 10
540.1881398647
 20
480.9656823283
 30
0.0
 11
531.3849361313
 21
480.9656823283
 31
0.0
  0
LINE
  5
84
330
1F
100
AcDbEntity
  8
004_FINAL
100
AcDbLine
 10
540.1881398647
 20
480.9656823283
 30
0.0
 11
540.1881398647
 21
466.1771394534
 31
0.0
  0
LINE
  5
85
330
1F
100
AcDbEntity
  8
004_FINAL
100
AcDbLine
 10
540.1881398647
 20
466.1771394534
 30
0.0
 11
527.9766827396
 21
453.9656823283
 31
0.0
  0
LINE
  5
86
330
1F
100
AcDbEntity
  8
004_FINAL
100
AcDbLine
 10
527.9766827396
 20
453.9656823283
 30
0.0
 11
513.1881398647
 21
453.9656823283
 31
0.0
  0
LINE
  5
87
330
1F
100
AcDbEntity
  8
004_FINAL
100
AcDbLine
 10
513.1881398647
 20
453.9656823283
 30
0.0
 11
513.1881398647
 21
462.7688860618
 31
0.0
  0
LINE
  5
88
330
1F
100
AcDbEntity
  8
004_FINAL
100
AcDbLine
 10
513.1881398647
 20
462.7688860618
 30
0.0
 11
520.7949361313
 21
462.7688860618
 31
0.0
  0
LINE
  5
89
330
1F
100
AcDbEntity
  8
004_FINAL
100
AcDbLine
 10
520.7949361313
 20
462.7688860618
 30
0.0
 11
520.7949361313
 21
468.8588860617
 31
0.0
  0
LINE
  5
8A
330
1F
100
AcDbEntity
  8
004_FINAL
100
AcDbLine
 10
520.7949361313
 20
468.8588860617
 30
0.0
 11
522.2949361313
 21
468.8588860617
 31
0.0
  0
LINE
  5
8B
330
1F
100
AcDbEntity
  8
004_FINAL
100
AcDbLine
 10
522.2949361313
 20
468.8588860617
 30
0.0
 11
522.2949361313
 21
459.7688860618
 31
0.0
  0
LINE
  5
8C
330
1F
100
AcDbEntity
  8
004_FINAL
100
AcDbLine
 10
522.2949361313
 20
459.7688860618
 30
0.0
 11
525.2949361313
 21
459.7688860618
 31
0.0
  0
LINE
  5
8D
330
1F
100
AcDbEntity
  8
004_FINAL
100
AcDbLine
 10
525.2949361313
 20
462.6788860618
 30
0.0
 11
525.2949361311
 21
462.7688860618
 31
0.0
  0
LINE
  5
8E
330
1F
100
AcDbEntity
  8
004_FINAL
100
AcDbLine
 10
525.2949361311
 20
462.7688860618
 30
0.0
 11
527.1849361313
 21
462.7688860618
 31
0.0
  0
LINE
  5
8F
330
1F
100
AcDbEntity
  8
004_FINAL
100
AcDbLine
 10
527.1849361313
 20
462.7688860618
 30
0.0
 11
527.1849361313
 21
461.2688860618
 31
0.0
  0
LINE
  5
90
330
1F
100
AcDbEntity
  8
004_FINAL
100
AcDbLine
 10
527.1849361313
 20
461.2688860618
 30
0.0
 11
525.4544011241
 21
459.5383510546
 31
0.0
  0
LINE
  5
91
330
1F
100
AcDbEntity
  8
004_FINAL
100
AcDbLine
 10
525.4544011241
 20
459.5383510546
 30
0.0
 11
520.9500008848
 21
459.5383510546
 31
0.0
  0
LINE
  5
92
330
1F
100
AcDbEntity
  8
004_FINAL
100
AcDbLine
 10
520.9500008848
 20
459.5383510546
 30
0.0
 11
519.385880661
 21
461.1024712785
 31
0.0
  0
LINE
  5
93
330
1F
100
AcDbEntity
  8
004_FINAL
100
AcDbLine
 10
519.385880661
 20
461.1024712785
 30
0.0
 11
516.385880661
 21
461.1024712785
 31
0.0
  0
LINE
  5
94
330
1F
100
AcDbEntity
  8
004_FINAL
100
AcDbLine
 10
516.385880661
 20
461.1024712785
 30
0.0
 11
513.8553720082
 21
458.5719626257
 31
0.0
  0
LINE
  5
95
330
1F
100
AcDbEntity
  8
004_FINAL
100
AcDbLine
 10
513.8553720082
 20
458.5719626257
 30
0.0
 11
516.0403319621
 21
456.3870026718
 31
0.0
  0
LINE
  5
96
330
1F
100
AcDbEntity
  8
004_FINAL
100
AcDbLine
 10
516.0403319621
 20
456.3870026718
 30
0.0
 11
513.7888114348
 21
454.1354821446
 31
0.0
  0
LINE
  5
97
330
1F
100
AcDbEntity
  8
004_FINAL
100
AcDbLine
 10
513.7888114348
 20
454.1354821446
 30
0.0
 11
518.031452122
 21
454.1354821446
 31
0.0
  0
LINE
  5
98
330
1F
100
AcDbEntity
  8
004_FINAL
100
AcDbLine
 10
518.031452122
 20
454.1354821446
 30
0.0
 11
518.1616523056
 21
454.2656823283
 31
0.0
  0
LINE
  5
99
330
1F
100
AcDbEntity
  8
004_FINAL
100
AcDbLine
 10
518.1616523056
 20
454.2656823283
 30
0.0
 11
527.8524186709
 21
454.2656823283
 31
0.0
  0
LINE
  5
9A
330
1F
100
AcDbEntity
  8
004_FINAL
100
AcDbLine
 10
527.8524186709
 20
454.2656823283
 30
0.0
 11
539.8881398647
 21
466.3014035221
 31
0.0
  0
LINE
  5
9B
330
1F
100
AcDbEntity
  8
004_FINAL
100
AcDbLine
 10
539.8881398647
 20
466.3014035221
 30
0.0
 11
539.8881398647
 21
475.9921698873
 31
0.0
  0
LINE
  5
9C
330
1F
100
AcDbEntity
  8
004_FINAL
100
AcDbLine
 10
539.8881398647
 20
475.9921698873
 30
0.0
 11
540.0154190853
 21
476.119449108
 31
0.0
  0
LINE
  5
9D
330
1F
100
AcDbEntity
  8
004_FINAL
100
AcDbLine
 10
540.0154190853
 20
476.119449108
 30
0.0
 11
540.0154190853
 21
480.3620897951
 31
0.0
  0
LINE
  5
9E
330
1F
100
AcDbEntity
  8
004_FINAL
100
AcDbLine
 10
537.439735207
 20
474.1979338579
 30
0.0
 11
535.6454991776
 21
475.9921698873
 31
0.0
  0
LINE
  5
9F
330
1F
100
AcDbEntity
  8
004_FINAL
100
AcDbLine
 10
535.4333671432
 20
475.780037853
 30
0.0
 11
535.6454991776
 21
475.9921698873
 31
0.0
  0
LINE
  5
A0
330
1F
100
AcDbEntity
  8
004_FINAL
100
AcDbLine
 10
535.4333671432
 20
475.780037853
 30
0.0
 11
537.0154711383
 21
474.1979338579
 31
0.0
  0
LINE
  5
A1
330
1F
100
AcDbEntity
  8
004_FINAL
100
AcDbLine
 10
537.0154711383
 20
468.0956395515
 30
0.0
 11
537.0154711383
 21
474.1979338579
 31
0.0
  0
LINE
  5
A2
330
1F
100
AcDbEntity
  8
004_FINAL
100
AcDbLine
 10
537.0154711383
 20
468.0956395515
 30
0.0
 11
532.1873988443
 21
463.2675672575
 31
0.0
  0
LINE
  5
A3
330
1F
100
AcDbEntity
  8
004_FINAL
100
AcDbLine
 10
532.1873988443
 20
463.2675672575
 30
0.0
 11
528.3849361313
 21
466.1809209707
 31
0.0
  0
LINE
  5
A4
330
1F
100
AcDbEntity
  8
004_FINAL
100
AcDbLine
 10
528.3849361313
 20
466.1809209707
 30
0.0
 11
528.3849361313
 21
468.8588860617
 31
0.0
  0
LINE
  5
A5
330
1F
100
AcDbEntity
  8
004_FINAL
100
AcDbLine
 10
528.3849361313
 20
468.8588860617
 30
0.0
 11
525.2949361313
 21
468.8588860617
 31
0.0
  0
LINE
  5
A6
330
1F
100
AcDbEntity
  8
004_FINAL
100
AcDbLine
 10
525.2949361313
 20
468.8588860617
 30
0.0
 11
525.2949361313
 21
466.9688860618
 31
0.0
  0
LINE
  5
A7
330
1F
100
AcDbEntity
  8
004_FINAL
100
AcDbLine
 10
525.2949361313
 20
466.9688860618
 30
0.0
 11
527.1849361311
 21
466.9688860618
 31
0.0
  0
LINE
  5
A8
330
1F
100
AcDbEntity
  8
004_FINAL
100
AcDbLine
 10
531.1052434835
 20
462.1854118967
 30
0.0
 11
527.1849361311
 21
466.9688860618
 31
0.0
  0
LINE
  5
A9
330
1F
100
AcDbEntity
  8
004_FINAL
100
AcDbLine
 10
526.0581826414
 20
457.1383510546
 30
0.0
 11
531.1052434835
 21
462.1854118967
 31
0.0
  0
LINE
  5
AA
330
1F
100
AcDbEntity
  8
004_FINAL
100
AcDbLine
 10
526.0581826414
 20
457.1383510546
 30
0.0
 11
519.9558883351
 21
457.1383510546
 31
0.0
  0
LINE
  5
AB
330
1F
100
AcDbEntity
  8
004_FINAL
100
AcDbLine
 10
519.9558883351
 20
457.1383510546
 30
0.0
 11
518.3101447297
 21
458.7840946601
 31
0.0
  0
LINE
  5
AC
330
1F
100
AcDbEntity
  8
004_FINAL
100
AcDbLine
 10
518.3101447297
 20
458.7840946601
 30
0.0
 11
518.0980126953
 21
458.5719626257
 31
0.0
  0
LINE
  5
AD
330
1F
100
AcDbEntity
  8
004_FINAL
100
AcDbLine
 10
518.0980126953
 20
458.5719626257
 30
0.0
 11
519.9558883351
 21
456.7140869859
 31
0.0
  0
LINE
  5
AE
330
1F
100
AcDbEntity
  8
004_FINAL
100
AcDbLine
 10
519.9558883351
 20
456.7140869859
 30
0.0
 11
526.0581826414
 21
456.7140869859
 31
0.0
  0
LINE
  5
AF
330
1F
100
AcDbEntity
  8
004_FINAL
100
AcDbLine
 10
526.0581826414
 20
456.7140869859
 30
0.0
 11
537.439735207
 21
468.0956395515
 31
0.0
  0
LINE
  5
B0
330
1F
100
AcDbEntity
  8
004_FINAL
100
AcDbLine
 10
537.439735207
 20
474.1979338579
 30
0.0
 11
537.439735207
 21
468.0956395515
 31
0.0
  0
LINE
  5
B1
330
1F
100
AcDbEntity
  8
004_FINAL
100
AcDbLine
 10
508.6881398647
 20
485.4656823283
 30
0.0
 11
544.6881398647
 21
485.4656823283
 31
0.0
  0
LINE
  5
B2
330
1F
100
AcDbEntity
  8
004_FINAL
100
AcDbLine
 10
508.6881398647
 20
485.4656823283
 30
0.0
 11
508.6881398647
 21
449.4656823283
 31
0.0
  0
LINE
  5
B3
330
1F
100
AcDbEntity
  8
004_FINAL
100
AcDbLine
 10
508.6881398647
 20
449.4656823283
 30
0.0
 11
544.6881398647
 21
449.4656823283
 31
0.0
  0
LINE
  5
B4
330
1F
100
AcDbEntity
  8
004_FINAL
100
AcDbLine
 10
544.6881398647
 20
485.4656823283
 30
0.0
 11
544.6881398647
 21
449.4656823283
 31
0.0
  0
LINE
  5
B5
330
1F
100
AcDbEntity
  8
004_FINAL
100
AcDbLine
 10
522.5949361313
 20
473.3588860617
 30
0.0
 11
521.9949361313
 21
473.3588860617
 31
0.0
  0
LINE
  5
B6
330
1F
100
AcDbEntity
  8
004_FINAL
100
AcDbLine
 10
522.5949361313
 20
473.3588860617
 30
0.0
 11
522.5949361313
 21
475.7588860617
 31
0.0
  0
LINE
  5
B7
330
1F
100
AcDbEntity
  8
004_FINAL
100
AcDbLine
 10
522.5949361313
 20
475.7588860617
 30
0.0
 11
521.9949361313
 21
475.7588860617
 31
0.0
  0
LINE
  5
B8
330
1F
100
AcDbEntity
  8
004_FINAL
100
AcDbLine
 10
521.9949361313
 20
473.3588860617
 30
0.0
 11
521.9949361313
 21
475.7588860617
 31
0.0
  0
LINE
  5
B9
330
1F
100
AcDbEntity
  8
004_FINAL
100
AcDbLine
 10
520.7949361313
 20
471.5588860617
 30
0.0
 11
518.3949361313
 21
471.5588860617
 31
0.0
  0
LINE
  5
BA
330
1F
100
AcDbEntity
  8
004_FINAL
100
AcDbLine
 10
520.7949361313
 20
471.5588860617
 30
0.0
 11
520.7949361313
 21
472.1588860617
 31
0.0
  0
LINE
  5
BB
330
1F
100
AcDbEntity
  8
004_FINAL
100
AcDbLine
 10
520.7949361313
 20
472.1588860617
 30
0.0
 11
518.3949361313
 21
472.1588860617
 31
0.0
  0
LINE
  5
BC
330
1F
100
AcDbEntity
  8
004_FINAL
100
AcDbLine
 10
518.3949361313
 20
471.5588860617
 30
0.0
 11
518.3949361313
 21
472.1588860617
 31
0.0
  0
LINE
  5
BD
330
1F
100
AcDbEntity
  8
004_FINAL
100
AcDbLine
 10
287.1027509553
 20
356.4101212388
 30
0.0
 11
281.0127509553
 21
356.4101212388
 31
0.0
  0
LINE
  5
BE
330
1F
100
AcDbEntity
  8
004_FINAL
100
AcDbLine
 10
281.0127509553
 20
354.9101212388
 30
0.0
 11
281.0127509553
 21
356.4101212388
 31
0.0
  0
LINE
  5
BF
330
1F
100
AcDbEntity
  8
004_FINAL
100
AcDbLine
 10
281.0127509553
 20
354.9101212388
 30
0.0
 11
290.1027509551
 21
354.9101212388
 31
0.0
  0
LINE
  5
C0
330
1F
100
AcDbEntity
  8
004_FINAL
100
AcDbLine
 10
287.1927509551
 20
351.9101212388
 30
0.0
 11
287.1027509553
 21
351.9101212388
 31
0.0
  0
LINE
  5
C1
330
1F
100
AcDbEntity
  8
004_FINAL
100
AcDbLine
 10
287.1027509553
 20
350.0201212388
 30
0.0
 11
288.6027509553
 21
350.0201212388
 31
0.0
  0
LINE
  5
C2
330
1F
100
AcDbEntity
  8
004_FINAL
100
AcDbLine
 10
290.3332859623
 20
351.7506562458
 30
0.0
 11
290.3332859623
 21
356.2550564853
 31
0.0
  0
LINE
  5
C3
330
1F
100
AcDbEntity
  8
004_FINAL
100
AcDbLine
 10
288.7691657385
 20
357.8191767091
 30
0.0
 11
288.7691657385
 21
360.8191767091
 31
0.0
  0
LINE
  5
C4
330
1F
100
AcDbEntity
  8
004_FINAL
100
AcDbLine
 10
291.2996743913
 20
363.3496853619
 30
0.0
 11
293.4846343451
 21
361.164725408
 31
0.0
  0
LINE
  5
C5
330
1F
100
AcDbEntity
  8
004_FINAL
100
AcDbLine
 10
295.7332339093
 20
363.4133249722
 30
0.0
 11
293.4846343451
 21
361.164725408
 31
0.0
  0
LINE
  5
C6
330
1F
100
AcDbEntity
  8
004_FINAL
100
AcDbLine
 10
291.2996743913
 20
363.3496853619
 30
0.0
 11
288.7691657385
 21
360.8191767091
 31
0.0
  0
LINE
  5
C7
330
1F
100
AcDbEntity
  8
004_FINAL
100
AcDbLine
 10
288.7691657385
 20
357.8191767091
 30
0.0
 11
290.3332859623
 21
356.2550564853
 31
0.0
  0
LINE
  5
C8
330
1F
100
AcDbEntity
  8
004_FINAL
100
AcDbLine
 10
290.3332859623
 20
351.7506562458
 30
0.0
 11
288.6027509553
 21
350.0201212388
 31
0.0
  0
LINE
  5
C9
330
1F
100
AcDbEntity
  8
004_FINAL
100
AcDbLine
 10
287.1027509553
 20
350.0201212388
 30
0.0
 11
287.1027509553
 21
351.9101212388
 31
0.0
  0
LINE
  5
CA
330
1F
100
AcDbEntity
  8
004_FINAL
100
AcDbLine
 10
290.1027509551
 20
351.9101212388
 30
0.0
 11
290.1027509551
 21
354.9101212388
 31
0.0
  0
LINE
  5
CB
330
1F
100
AcDbEntity
  8
004_FINAL
100
AcDbLine
 10
287.1027509553
 20
356.4101212388
 30
0.0
 11
287.1027509553
 21
364.0169175054
 31
0.0
  0
LINE
  5
CC
330
1F
100
AcDbEntity
  8
004_FINAL
100
AcDbLine
 10
295.9059546885
 20
364.0169175054
 30
0.0
 11
287.1027509553
 21
364.0169175054
 31
0.0
  0
LINE
  5
CD
330
1F
100
AcDbEntity
  8
004_FINAL
100
AcDbLine
 10
295.9059546885
 20
364.0169175054
 30
0.0
 11
295.9059546885
 21
349.2283746305
 31
0.0
  0
LINE
  5
CE
330
1F
100
AcDbEntity
  8
004_FINAL
100
AcDbLine
 10
295.9059546885
 20
349.2283746305
 30
0.0
 11
283.6944975634
 21
337.0169175054
 31
0.0
  0
LINE
  5
CF
330
1F
100
AcDbEntity
  8
004_FINAL
100
AcDbLine
 10
283.6944975634
 20
337.0169175054
 30
0.0
 11
268.9059546885
 21
337.0169175054
 31
0.0
  0
LINE
  5
D0
330
1F
100
AcDbEntity
  8
004_FINAL
100
AcDbLine
 10
268.9059546885
 20
337.0169175054
 30
0.0
 11
268.9059546885
 21
345.8201212389
 31
0.0
  0
LINE
  5
D1
330
1F
100
AcDbEntity
  8
004_FINAL
100
AcDbLine
 10
268.9059546885
 20
345.8201212389
 30
0.0
 11
276.5127509551
 21
345.8201212389
 31
0.0
  0
LINE
  5
D2
330
1F
100
AcDbEntity
  8
004_FINAL
100
AcDbLine
 10
276.5127509551
 20
345.8201212389
 30
0.0
 11
276.5127509551
 21
351.9101212388
 31
0.0
  0
LINE
  5
D3
330
1F
100
AcDbEntity
  8
004_FINAL
100
AcDbLine
 10
276.5127509551
 20
351.9101212388
 30
0.0
 11
278.0127509553
 21
351.9101212388
 31
0.0
  0
LINE
  5
D4
330
1F
100
AcDbEntity
  8
004_FINAL
100
AcDbLine
 10
278.0127509553
 20
351.9101212388
 30
0.0
 11
278.0127509553
 21
342.8201212389
 31
0.0
  0
LINE
  5
D5
330
1F
100
AcDbEntity
  8
004_FINAL
100
AcDbLine
 10
278.0127509553
 20
342.8201212389
 30
0.0
 11
281.0127509553
 21
342.8201212389
 31
0.0
  0
LINE
  5
D6
330
1F
100
AcDbEntity
  8
004_FINAL
100
AcDbLine
 10
281.0127509553
 20
345.7301212389
 30
0.0
 11
281.0127509553
 21
345.8201212389
 31
0.0
  0
LINE
  5
D7
330
1F
100
AcDbEntity
  8
004_FINAL
100
AcDbLine
 10
281.0127509553
 20
345.8201212389
 30
0.0
 11
282.9027509553
 21
345.8201212389
 31
0.0
  0
LINE
  5
D8
330
1F
100
AcDbEntity
  8
004_FINAL
100
AcDbLine
 10
282.9027509553
 20
345.8201212389
 30
0.0
 11
282.9027509553
 21
344.3201212389
 31
0.0
  0
LINE
  5
D9
330
1F
100
AcDbEntity
  8
004_FINAL
100
AcDbLine
 10
282.9027509553
 20
344.3201212389
 30
0.0
 11
281.1722159481
 21
342.5895862317
 31
0.0
  0
LINE
  5
DA
330
1F
100
AcDbEntity
  8
004_FINAL
100
AcDbLine
 10
281.1722159481
 20
342.5895862317
 30
0.0
 11
276.6678157088
 21
342.5895862317
 31
0.0
  0
LINE
  5
DB
330
1F
100
AcDbEntity
  8
004_FINAL
100
AcDbLine
 10
276.6678157088
 20
342.5895862317
 30
0.0
 11
275.103695485
 21
344.1537064556
 31
0.0
  0
LINE
  5
DC
330
1F
100
AcDbEntity
  8
004_FINAL
100
AcDbLine
 10
275.103695485
 20
344.1537064556
 30
0.0
 11
272.103695485
 21
344.1537064556
 31
0.0
  0
LINE
  5
DD
330
1F
100
AcDbEntity
  8
004_FINAL
100
AcDbLine
 10
272.103695485
 20
344.1537064556
 30
0.0
 11
269.5731868322
 21
341.6231978028
 31
0.0
  0
LINE
  5
DE
330
1F
100
AcDbEntity
  8
004_FINAL
100
AcDbLine
 10
269.5731868322
 20
341.6231978028
 30
0.0
 11
271.7581467861
 21
339.4382378489
 31
0.0
  0
LINE
  5
DF
330
1F
100
AcDbEntity
  8
004_FINAL
100
AcDbLine
 10
271.7581467861
 20
339.4382378489
 30
0.0
 11
269.5066262589
 21
337.1867173217
 31
0.0
  0
LINE
  5
E0
330
1F
100
AcDbEntity
  8
004_FINAL
100
AcDbLine
 10
269.5066262589
 20
337.1867173217
 30
0.0
 11
273.749266946
 21
337.1867173217
 31
0.0
  0
LINE
  5
E1
330
1F
100
AcDbEntity
  8
004_FINAL
100
AcDbLine
 10
273.749266946
 20
337.1867173217
 30
0.0
 11
273.8794671297
 21
337.3169175054
 31
0.0
  0
LINE
  5
E2
330
1F
100
AcDbEntity
  8
004_FINAL
100
AcDbLine
 10
273.8794671297
 20
337.3169175054
 30
0.0
 11
283.5702334949
 21
337.3169175054
 31
0.0
  0
LINE
  5
E3
330
1F
100
AcDbEntity
  8
004_FINAL
100
AcDbLine
 10
283.5702334949
 20
337.3169175054
 30
0.0
 11
295.6059546887
 21
349.3526386992
 31
0.0
  0
LINE
  5
E4
330
1F
100
AcDbEntity
  8
004_FINAL
100
AcDbLine
 10
295.6059546887
 20
349.3526386992
 30
0.0
 11
295.6059546887
 21
359.0434050644
 31
0.0
  0
LINE
  5
E5
330
1F
100
AcDbEntity
  8
004_FINAL
100
AcDbLine
 10
295.6059546887
 20
359.0434050644
 30
0.0
 11
295.7332339093
 21
359.170684285
 31
0.0
  0
LINE
  5
E6
330
1F
100
AcDbEntity
  8
004_FINAL
100
AcDbLine
 10
295.7332339093
 20
359.170684285
 30
0.0
 11
295.7332339093
 21
363.4133249722
 31
0.0
  0
LINE
  5
E7
330
1F
100
AcDbEntity
  8
004_FINAL
100
AcDbLine
 10
293.1575500311
 20
357.249169035
 30
0.0
 11
291.3633140016
 21
359.0434050644
 31
0.0
  0
LINE
  5
E8
330
1F
100
AcDbEntity
  8
004_FINAL
100
AcDbLine
 10
291.1511819672
 20
358.8312730301
 30
0.0
 11
291.3633140016
 21
359.0434050644
 31
0.0
  0
LINE
  5
E9
330
1F
100
AcDbEntity
  8
004_FINAL
100
AcDbLine
 10
291.1511819672
 20
358.8312730301
 30
0.0
 11
292.7332859624
 21
357.249169035
 31
0.0
  0
LINE
  5
EA
330
1F
100
AcDbEntity
  8
004_FINAL
100
AcDbLine
 10
292.7332859624
 20
351.1468747286
 30
0.0
 11
292.7332859624
 21
357.249169035
 31
0.0
  0
LINE
  5
EB
330
1F
100
AcDbEntity
  8
004_FINAL
100
AcDbLine
 10
292.7332859624
 20
351.1468747286
 30
0.0
 11
287.9052136683
 21
346.3188024346
 31
0.0
  0
LINE
  5
EC
330
1F
100
AcDbEntity
  8
004_FINAL
100
AcDbLine
 10
287.9052136683
 20
346.3188024346
 30
0.0
 11
284.1027509553
 21
349.2321561478
 31
0.0
  0
LINE
  5
ED
330
1F
100
AcDbEntity
  8
004_FINAL
100
AcDbLine
 10
284.1027509553
 20
349.2321561478
 30
0.0
 11
284.1027509553
 21
351.9101212388
 31
0.0
  0
LINE
  5
EE
330
1F
100
AcDbEntity
  8
004_FINAL
100
AcDbLine
 10
284.1027509553
 20
351.9101212388
 30
0.0
 11
281.0127509553
 21
351.9101212388
 31
0.0
  0
LINE
  5
EF
330
1F
100
AcDbEntity
  8
004_FINAL
100
AcDbLine
 10
281.0127509553
 20
351.9101212388
 30
0.0
 11
281.0127509553
 21
350.0201212389
 31
0.0
  0
LINE
  5
F0
330
1F
100
AcDbEntity
  8
004_FINAL
100
AcDbLine
 10
281.0127509553
 20
350.0201212389
 30
0.0
 11
282.9027509552
 21
350.0201212389
 31
0.0
  0
LINE
  5
F1
330
1F
100
AcDbEntity
  8
004_FINAL
100
AcDbLine
 10
286.8230583075
 20
345.2366470738
 30
0.0
 11
282.9027509552
 21
350.0201212389
 31
0.0
  0
LINE
  5
F2
330
1F
100
AcDbEntity
  8
004_FINAL
100
AcDbLine
 10
281.7759974654
 20
340.1895862317
 30
0.0
 11
286.8230583075
 21
345.2366470738
 31
0.0
  0
LINE
  5
F3
330
1F
100
AcDbEntity
  8
004_FINAL
100
AcDbLine
 10
281.7759974654
 20
340.1895862317
 30
0.0
 11
275.6737031591
 21
340.1895862317
 31
0.0
  0
LINE
  5
F4
330
1F
100
AcDbEntity
  8
004_FINAL
100
AcDbLine
 10
275.6737031591
 20
340.1895862317
 30
0.0
 11
274.0279595537
 21
341.8353298371
 31
0.0
  0
LINE
  5
F5
330
1F
100
AcDbEntity
  8
004_FINAL
100
AcDbLine
 10
274.0279595537
 20
341.8353298371
 30
0.0
 11
273.8158275193
 21
341.6231978028
 31
0.0
  0
LINE
  5
F6
330
1F
100
AcDbEntity
  8
004_FINAL
100
AcDbLine
 10
273.8158275193
 20
341.6231978028
 30
0.0
 11
275.6737031591
 21
339.765322163
 31
0.0
  0
LINE
  5
F7
330
1F
100
AcDbEntity
  8
004_FINAL
100
AcDbLine
 10
275.6737031591
 20
339.765322163
 30
0.0
 11
281.7759974654
 21
339.765322163
 31
0.0
  0
LINE
  5
F8
330
1F
100
AcDbEntity
  8
004_FINAL
100
AcDbLine
 10
281.7759974654
 20
339.765322163
 30
0.0
 11
293.1575500311
 21
351.1468747286
 31
0.0
  0
LINE
  5
F9
330
1F
100
AcDbEntity
  8
004_FINAL
100
AcDbLine
 10
293.1575500311
 20
357.249169035
 30
0.0
 11
293.1575500311
 21
351.1468747286
 31
0.0
  0
LINE
  5
FA
330
1F
100
AcDbEntity
  8
004_FINAL
100
AcDbLine
 10
264.4059546887
 20
368.5169175053
 30
0.0
 11
300.4059546887
 21
368.5169175053
 31
0.0
  0
LINE
  5
FB
330
1F
100
AcDbEntity
  8
004_FINAL
100
AcDbLine
 10
300.4059546887
 20
368.5169175053
 30
0.0
 11
300.7059546883
 21
368.5169175053
 31
0.0
  0
LINE
  5
FC
330
1F
100
AcDbEntity
  8
004_FINAL
100
AcDbLine
 10
264.4059546887
 20
332.5169175053
 30
0.0
 11
300.4059546887
 21
332.5169175053
 31
0.0
  0
LINE
  5
FD
330
1F
100
AcDbEntity
  8
004_FINAL
100
AcDbLine
 10
278.3127509553
 20
356.4101212388
 30
0.0
 11
277.7127509553
 21
356.4101212388
 31
0.0
  0
LINE
  5
FE
330
1F
100
AcDbEntity
  8
004_FINAL
100
AcDbLine
 10
278.3127509553
 20
356.4101212388
 30
0.0
 11
278.3127509553
 21
358.8101212388
 31
0.0
  0
LINE
  5
FF
330
1F
100
AcDbEntity
  8
004_FINAL
100
AcDbLine
 10
278.3127509553
 20
358.8101212388
 30
0.0
 11
277.7127509553
 21
358.8101212388
 31
0.0
  0
LINE
  5
100
330
1F
100
AcDbEntity
  8
004_FINAL
100
AcDbLine
 10
277.7127509553
 20
356.4101212388
 30
0.0
 11
277.7127509553
 21
358.8101212388
 31
0.0
  0
LINE
  5
101
330
1F
100
AcDbEntity
  8
004_FINAL
100
AcDbLine
 10
276.5127509551
 20
354.6101212388
 30
0.0
 11
274.1127509552
 21
354.6101212388
 31
0.0
  0
LINE
  5
102
330
1F
100
AcDbEntity
  8
004_FINAL
100
AcDbLine
 10
276.5127509551
 20
354.6101212388
 30
0.0
 11
276.5127509551
 21
355.2101212388
 31
0.0
  0
LINE
  5
103
330
1F
100
AcDbEntity
  8
004_FINAL
100
AcDbLine
 10
276.5127509551
 20
355.2101212388
 30
0.0
 11
274.1127509552
 21
355.2101212388
 31
0.0
  0
LINE
  5
104
330
1F
100
AcDbEntity
  8
004_FINAL
100
AcDbLine
 10
274.1127509552
 20
354.6101212388
 30
0.0
 11
274.1127509552
 21
355.2101212388
 31
0.0
  0
LINE
  5
105
330
1F
100
AcDbEntity
  8
004_FINAL
100
AcDbLine
 10
323.4027509549
 20
356.4101212388
 30
0.0
 11
317.3127509549
 21
356.4101212388
 31
0.0
  0
LINE
  5
106
330
1F
100
AcDbEntity
  8
004_FINAL
100
AcDbLine
 10
317.3127509549
 20
354.9101212388
 30
0.0
 11
317.3127509549
 21
356.4101212388
 31
0.0
  0
LINE
  5
107
330
1F
100
AcDbEntity
  8
004_FINAL
100
AcDbLine
 10
317.3127509549
 20
354.9101212388
 30
0.0
 11
326.4027509547
 21
354.9101212388
 31
0.0
  0
LINE
  5
108
330
1F
100
AcDbEntity
  8
004_FINAL
100
AcDbLine
 10
323.4927509547
 20
351.9101212388
 30
0.0
 11
323.4027509549
 21
351.9101212388
 31
0.0
  0
LINE
  5
109
330
1F
100
AcDbEntity
  8
004_FINAL
100
AcDbLine
 10
323.4027509549
 20
350.0201212388
 30
0.0
 11
324.9027509549
 21
350.0201212388
 31
0.0
  0
LINE
  5
10A
330
1F
100
AcDbEntity
  8
004_FINAL
100
AcDbLine
 10
326.6332859619
 20
351.7506562458
 30
0.0
 11
326.6332859619
 21
356.2550564853
 31
0.0
  0
LINE
  5
10B
330
1F
100
AcDbEntity
  8
004_FINAL
100
AcDbLine
 10
325.0691657381
 20
357.8191767091
 30
0.0
 11
325.0691657381
 21
360.8191767091
 31
0.0
  0
LINE
  5
10C
330
1F
100
AcDbEntity
  8
004_FINAL
100
AcDbLine
 10
327.5996743909
 20
363.3496853619
 30
0.0
 11
329.7846343447
 21
361.164725408
 31
0.0
  0
LINE
  5
10D
330
1F
100
AcDbEntity
  8
004_FINAL
100
AcDbLine
 10
332.0332339089
 20
363.4133249722
 30
0.0
 11
329.7846343447
 21
361.164725408
 31
0.0
  0
LINE
  5
10E
330
1F
100
AcDbEntity
  8
004_FINAL
100
AcDbLine
 10
327.5996743909
 20
363.3496853619
 30
0.0
 11
325.0691657381
 21
360.8191767091
 31
0.0
  0
LINE
  5
10F
330
1F
100
AcDbEntity
  8
004_FINAL
100
AcDbLine
 10
325.0691657381
 20
357.8191767091
 30
0.0
 11
326.6332859619
 21
356.2550564853
 31
0.0
  0
LINE
  5
110
330
1F
100
AcDbEntity
  8
004_FINAL
100
AcDbLine
 10
326.6332859619
 20
351.7506562458
 30
0.0
 11
324.9027509549
 21
350.0201212388
 31
0.0
  0
LINE
  5
111
330
1F
100
AcDbEntity
  8
004_FINAL
100
AcDbLine
 10
323.4027509549
 20
350.0201212388
 30
0.0
 11
323.4027509549
 21
351.9101212388
 31
0.0
  0
LINE
  5
112
330
1F
100
AcDbEntity
  8
004_FINAL
100
AcDbLine
 10
326.4027509547
 20
351.9101212388
 30
0.0
 11
326.4027509547
 21
354.9101212388
 31
0.0
  0
LINE
  5
113
330
1F
100
AcDbEntity
  8
004_FINAL
100
AcDbLine
 10
323.4027509549
 20
356.4101212388
 30
0.0
 11
323.4027509549
 21
364.0169175054
 31
0.0
  0
LINE
  5
114
330
1F
100
AcDbEntity
  8
004_FINAL
100
AcDbLine
 10
332.2059546881
 20
364.0169175054
 30
0.0
 11
323.4027509549
 21
364.0169175054
 31
0.0
  0
LINE
  5
115
330
1F
100
AcDbEntity
  8
004_FINAL
100
AcDbLine
 10
332.2059546881
 20
364.0169175054
 30
0.0
 11
332.2059546881
 21
349.2283746305
 31
0.0
  0
LINE
  5
116
330
1F
100
AcDbEntity
  8
004_FINAL
100
AcDbLine
 10
332.2059546881
 20
349.2283746305
 30
0.0
 11
319.994497563
 21
337.0169175054
 31
0.0
  0
LINE
  5
117
330
1F
100
AcDbEntity
  8
004_FINAL
100
AcDbLine
 10
319.994497563
 20
337.0169175054
 30
0.0
 11
305.2059546881
 21
337.0169175054
 31
0.0
  0
LINE
  5
118
330
1F
100
AcDbEntity
  8
004_FINAL
100
AcDbLine
 10
305.2059546881
 20
337.0169175054
 30
0.0
 11
305.2059546881
 21
345.8201212389
 31
0.0
  0
LINE
  5
119
330
1F
100
AcDbEntity
  8
004_FINAL
100
AcDbLine
 10
305.2059546881
 20
345.8201212389
 30
0.0
 11
312.8127509547
 21
345.8201212389
 31
0.0
  0
LINE
  5
11A
330
1F
100
AcDbEntity
  8
004_FINAL
100
AcDbLine
 10
312.8127509547
 20
345.8201212389
 30
0.0
 11
312.8127509547
 21
351.9101212388
 31
0.0
  0
LINE
  5
11B
330
1F
100
AcDbEntity
  8
004_FINAL
100
AcDbLine
 10
312.8127509547
 20
351.9101212388
 30
0.0
 11
314.3127509549
 21
351.9101212388
 31
0.0
  0
LINE
  5
11C
330
1F
100
AcDbEntity
  8
004_FINAL
100
AcDbLine
 10
314.3127509549
 20
351.9101212388
 30
0.0
 11
314.3127509549
 21
342.8201212389
 31
0.0
  0
LINE
  5
11D
330
1F
100
AcDbEntity
  8
004_FINAL
100
AcDbLine
 10
314.3127509549
 20
342.8201212389
 30
0.0
 11
317.3127509549
 21
342.8201212389
 31
0.0
  0
LINE
  5
11E
330
1F
100
AcDbEntity
  8
004_FINAL
100
AcDbLine
 10
317.3127509549
 20
345.7301212389
 30
0.0
 11
317.3127509549
 21
345.8201212389
 31
0.0
  0
LINE
  5
11F
330
1F
100
AcDbEntity
  8
004_FINAL
100
AcDbLine
 10
317.3127509549
 20
345.8201212389
 30
0.0
 11
319.2027509549
 21
345.8201212389
 31
0.0
  0
LINE
  5
120
330
1F
100
AcDbEntity
  8
004_FINAL
100
AcDbLine
 10
319.2027509549
 20
345.8201212389
 30
0.0
 11
319.2027509549
 21
344.3201212389
 31
0.0
  0
LINE
  5
121
330
1F
100
AcDbEntity
  8
004_FINAL
100
AcDbLine
 10
319.2027509549
 20
344.3201212389
 30
0.0
 11
317.4722159477
 21
342.5895862317
 31
0.0
  0
LINE
  5
122
330
1F
100
AcDbEntity
  8
004_FINAL
100
AcDbLine
 10
317.4722159477
 20
342.5895862317
 30
0.0
 11
312.9678157084
 21
342.5895862317
 31
0.0
  0
LINE
  5
123
330
1F
100
AcDbEntity
  8
004_FINAL
100
AcDbLine
 10
312.9678157084
 20
342.5895862317
 30
0.0
 11
311.4036954846
 21
344.1537064556
 31
0.0
  0
LINE
  5
124
330
1F
100
AcDbEntity
  8
004_FINAL
100
AcDbLine
 10
311.4036954846
 20
344.1537064556
 30
0.0
 11
308.4036954846
 21
344.1537064556
 31
0.0
  0
LINE
  5
125
330
1F
100
AcDbEntity
  8
004_FINAL
100
AcDbLine
 10
308.4036954846
 20
344.1537064556
 30
0.0
 11
305.8731868318
 21
341.6231978028
 31
0.0
  0
LINE
  5
126
330
1F
100
AcDbEntity
  8
004_FINAL
100
AcDbLine
 10
305.8731868318
 20
341.6231978028
 30
0.0
 11
308.0581467857
 21
339.4382378489
 31
0.0
  0
LINE
  5
127
330
1F
100
AcDbEntity
  8
004_FINAL
100
AcDbLine
 10
308.0581467857
 20
339.4382378489
 30
0.0
 11
305.8066262585
 21
337.1867173217
 31
0.0
  0
LINE
  5
128
330
1F
100
AcDbEntity
  8
004_FINAL
100
AcDbLine
 10
305.8066262585
 20
337.1867173217
 30
0.0
 11
310.0492669456
 21
337.1867173217
 31
0.0
  0
LINE
  5
129
330
1F
100
AcDbEntity
  8
004_FINAL
100
AcDbLine
 10
310.0492669456
 20
337.1867173217
 30
0.0
 11
310.1794671293
 21
337.3169175054
 31
0.0
  0
LINE
  5
12A
330
1F
100
AcDbEntity
  8
004_FINAL
100
AcDbLine
 10
310.1794671293
 20
337.3169175054
 30
0.0
 11
319.8702334945
 21
337.3169175054
 31
0.0
  0
LINE
  5
12B
330
1F
100
AcDbEntity
  8
004_FINAL
100
AcDbLine
 10
319.8702334945
 20
337.3169175054
 30
0.0
 11
331.9059546883
 21
349.3526386992
 31
0.0
  0
LINE
  5
12C
330
1F
100
AcDbEntity
  8
004_FINAL
100
AcDbLine
 10
331.9059546883
 20
349.3526386992
 30
0.0
 11
331.9059546883
 21
359.0434050644
 31
0.0
  0
LINE
  5
12D
330
1F
100
AcDbEntity
  8
004_FINAL
100
AcDbLine
 10
331.9059546883
 20
359.0434050644
 30
0.0
 11
332.0332339089
 21
359.170684285
 31
0.0
  0
LINE
  5
12E
330
1F
100
AcDbEntity
  8
004_FINAL
100
AcDbLine
 10
332.0332339089
 20
359.170684285
 30
0.0
 11
332.0332339089
 21
363.4133249722
 31
0.0
  0
LINE
  5
12F
330
1F
100
AcDbEntity
  8
004_FINAL
100
AcDbLine
 10
329.4575500307
 20
357.249169035
 30
0.0
 11
327.6633140012
 21
359.0434050644
 31
0.0
  0
LINE
  5
130
330
1F
100
AcDbEntity
  8
004_FINAL
100
AcDbLine
 10
327.4511819668
 20
358.8312730301
 30
0.0
 11
327.6633140012
 21
359.0434050644
 31
0.0
  0
LINE
  5
131
330
1F
100
AcDbEntity
  8
004_FINAL
100
AcDbLine
 10
327.4511819668
 20
358.8312730301
 30
0.0
 11
329.033285962
 21
357.249169035
 31
0.0
  0
LINE
  5
132
330
1F
100
AcDbEntity
  8
004_FINAL
100
AcDbLine
 10
329.033285962
 20
351.1468747286
 30
0.0
 11
329.033285962
 21
357.249169035
 31
0.0
  0
LINE
  5
133
330
1F
100
AcDbEntity
  8
004_FINAL
100
AcDbLine
 10
329.033285962
 20
351.1468747286
 30
0.0
 11
324.2052136679
 21
346.3188024346
 31
0.0
  0
LINE
  5
134
330
1F
100
AcDbEntity
  8
004_FINAL
100
AcDbLine
 10
324.2052136679
 20
346.3188024346
 30
0.0
 11
320.4027509549
 21
349.2321561478
 31
0.0
  0
LINE
  5
135
330
1F
100
AcDbEntity
  8
004_FINAL
100
AcDbLine
 10
320.4027509549
 20
349.2321561478
 30
0.0
 11
320.4027509549
 21
351.9101212388
 31
0.0
  0
LINE
  5
136
330
1F
100
AcDbEntity
  8
004_FINAL
100
AcDbLine
 10
320.4027509549
 20
351.9101212388
 30
0.0
 11
317.3127509549
 21
351.9101212388
 31
0.0
  0
LINE
  5
137
330
1F
100
AcDbEntity
  8
004_FINAL
100
AcDbLine
 10
317.3127509549
 20
351.9101212388
 30
0.0
 11
317.3127509549
 21
350.0201212389
 31
0.0
  0
LINE
  5
138
330
1F
100
AcDbEntity
  8
004_FINAL
100
AcDbLine
 10
317.3127509549
 20
350.0201212389
 30
0.0
 11
319.2027509548
 21
350.0201212389
 31
0.0
  0
LINE
  5
139
330
1F
100
AcDbEntity
  8
004_FINAL
100
AcDbLine
 10
323.1230583071
 20
345.2366470738
 30
0.0
 11
319.2027509548
 21
350.0201212389
 31
0.0
  0
LINE
  5
13A
330
1F
100
AcDbEntity
  8
004_FINAL
100
AcDbLine
 10
318.075997465
 20
340.1895862317
 30
0.0
 11
323.1230583071
 21
345.2366470738
 31
0.0
  0
LINE
  5
13B
330
1F
100
AcDbEntity
  8
004_FINAL
100
AcDbLine
 10
318.075997465
 20
340.1895862317
 30
0.0
 11
311.9737031587
 21
340.1895862317
 31
0.0
  0
LINE
  5
13C
330
1F
100
AcDbEntity
  8
004_FINAL
100
AcDbLine
 10
311.9737031587
 20
340.1895862317
 30
0.0
 11
310.3279595533
 21
341.8353298371
 31
0.0
  0
LINE
  5
13D
330
1F
100
AcDbEntity
  8
004_FINAL
100
AcDbLine
 10
310.3279595533
 20
341.8353298371
 30
0.0
 11
310.115827519
 21
341.6231978028
 31
0.0
  0
LINE
  5
13E
330
1F
100
AcDbEntity
  8
004_FINAL
100
AcDbLine
 10
310.115827519
 20
341.6231978028
 30
0.0
 11
311.9737031587
 21
339.765322163
 31
0.0
  0
LINE
  5
13F
330
1F
100
AcDbEntity
  8
004_FINAL
100
AcDbLine
 10
311.9737031587
 20
339.765322163
 30
0.0
 11
318.075997465
 21
339.765322163
 31
0.0
  0
LINE
  5
140
330
1F
100
AcDbEntity
  8
004_FINAL
100
AcDbLine
 10
318.075997465
 20
339.765322163
 30
0.0
 11
329.4575500307
 21
351.1468747286
 31
0.0
  0
LINE
  5
141
330
1F
100
AcDbEntity
  8
004_FINAL
100
AcDbLine
 10
329.4575500307
 20
357.249169035
 30
0.0
 11
329.4575500307
 21
351.1468747286
 31
0.0
  0
LINE
  5
142
330
1F
100
AcDbEntity
  8
004_FINAL
100
AcDbLine
 10
300.7059546883
 20
368.5169175053
 30
0.0
 11
336.7059546883
 21
368.5169175053
 31
0.0
  0
LINE
  5
143
330
1F
100
AcDbEntity
  8
004_FINAL
100
AcDbLine
 10
300.7059546883
 20
332.5169175053
 30
0.0
 11
336.7059546883
 21
332.5169175053
 31
0.0
  0
LINE
  5
144
330
1F
100
AcDbEntity
  8
004_FINAL
100
AcDbLine
 10
314.6127509549
 20
356.4101212388
 30
0.0
 11
314.0127509549
 21
356.4101212388
 31
0.0
  0
LINE
  5
145
330
1F
100
AcDbEntity
  8
004_FINAL
100
AcDbLine
 10
314.6127509549
 20
356.4101212388
 30
0.0
 11
314.6127509549
 21
358.8101212388
 31
0.0
  0
LINE
  5
146
330
1F
100
AcDbEntity
  8
004_FINAL
100
AcDbLine
 10
314.6127509549
 20
358.8101212388
 30
0.0
 11
314.0127509549
 21
358.8101212388
 31
0.0
  0
LINE
  5
147
330
1F
100
AcDbEntity
  8
004_FINAL
100
AcDbLine
 10
314.0127509549
 20
356.4101212388
 30
0.0
 11
314.0127509549
 21
358.8101212388
 31
0.0
  0
LINE
  5
148
330
1F
100
AcDbEntity
  8
004_FINAL
100
AcDbLine
 10
312.8127509547
 20
354.6101212388
 30
0.0
 11
310.4127509548
 21
354.6101212388
 31
0.0
  0
LINE
  5
149
330
1F
100
AcDbEntity
  8
004_FINAL
100
AcDbLine
 10
312.8127509547
 20
354.6101212388
 30
0.0
 11
312.8127509547
 21
355.2101212388
 31
0.0
  0
LINE
  5
14A
330
1F
100
AcDbEntity
  8
004_FINAL
100
AcDbLine
 10
312.8127509547
 20
355.2101212388
 30
0.0
 11
310.4127509548
 21
355.2101212388
 31
0.0
  0
LINE
  5
14B
330
1F
100
AcDbEntity
  8
004_FINAL
100
AcDbLine
 10
310.4127509548
 20
354.6101212388
 30
0.0
 11
310.4127509548
 21
355.2101212388
 31
0.0
  0
LINE
  5
14C
330
1F
100
AcDbEntity
  8
004_FINAL
100
AcDbLine
 10
359.7027509545
 20
356.4101212388
 30
0.0
 11
353.6127509545
 21
356.4101212388
 31
0.0
  0
LINE
  5
14D
330
1F
100
AcDbEntity
  8
004_FINAL
100
AcDbLine
 10
353.6127509545
 20
354.9101212388
 30
0.0
 11
353.6127509545
 21
356.4101212388
 31
0.0
  0
LINE
  5
14E
330
1F
100
AcDbEntity
  8
004_FINAL
100
AcDbLine
 10
353.6127509545
 20
354.9101212388
 30
0.0
 11
362.7027509543
 21
354.9101212388
 31
0.0
  0
LINE
  5
14F
330
1F
100
AcDbEntity
  8
004_FINAL
100
AcDbLine
 10
359.7927509544
 20
351.9101212388
 30
0.0
 11
359.7027509545
 21
351.9101212388
 31
0.0
  0
LINE
  5
150
330
1F
100
AcDbEntity
  8
004_FINAL
100
AcDbLine
 10
359.7027509545
 20
350.0201212388
 30
0.0
 11
361.2027509545
 21
350.0201212388
 31
0.0
  0
LINE
  5
151
330
1F
100
AcDbEntity
  8
004_FINAL
100
AcDbLine
 10
362.9332859616
 20
351.7506562458
 30
0.0
 11
362.9332859616
 21
356.2550564853
 31
0.0
  0
LINE
  5
152
330
1F
100
AcDbEntity
  8
004_FINAL
100
AcDbLine
 10
361.3691657377
 20
357.8191767091
 30
0.0
 11
361.3691657377
 21
360.8191767091
 31
0.0
  0
LINE
  5
153
330
1F
100
AcDbEntity
  8
004_FINAL
100
AcDbLine
 10
363.8996743905
 20
363.3496853619
 30
0.0
 11
366.0846343444
 21
361.164725408
 31
0.0
  0
LINE
  5
154
330
1F
100
AcDbEntity
  8
004_FINAL
100
AcDbLine
 10
368.3332339085
 20
363.4133249722
 30
0.0
 11
366.0846343444
 21
361.164725408
 31
0.0
  0
LINE
  5
155
330
1F
100
AcDbEntity
  8
004_FINAL
100
AcDbLine
 10
363.8996743905
 20
363.3496853619
 30
0.0
 11
361.3691657377
 21
360.8191767091
 31
0.0
  0
LINE
  5
156
330
1F
100
AcDbEntity
  8
004_FINAL
100
AcDbLine
 10
361.3691657377
 20
357.8191767091
 30
0.0
 11
362.9332859616
 21
356.2550564853
 31
0.0
  0
LINE
  5
157
330
1F
100
AcDbEntity
  8
004_FINAL
100
AcDbLine
 10
362.9332859616
 20
351.7506562458
 30
0.0
 11
361.2027509545
 21
350.0201212388
 31
0.0
  0
LINE
  5
158
330
1F
100
AcDbEntity
  8
004_FINAL
100
AcDbLine
 10
359.7027509545
 20
350.0201212388
 30
0.0
 11
359.7027509545
 21
351.9101212388
 31
0.0
  0
LINE
  5
159
330
1F
100
AcDbEntity
  8
004_FINAL
100
AcDbLine
 10
362.7027509543
 20
351.9101212388
 30
0.0
 11
362.7027509543
 21
354.9101212388
 31
0.0
  0
LINE
  5
15A
330
1F
100
AcDbEntity
  8
004_FINAL
100
AcDbLine
 10
359.7027509545
 20
356.4101212388
 30
0.0
 11
359.7027509545
 21
364.0169175054
 31
0.0
  0
LINE
  5
15B
330
1F
100
AcDbEntity
  8
004_FINAL
100
AcDbLine
 10
368.5059546877
 20
364.0169175054
 30
0.0
 11
359.7027509545
 21
364.0169175054
 31
0.0
  0
LINE
  5
15C
330
1F
100
AcDbEntity
  8
004_FINAL
100
AcDbLine
 10
368.5059546877
 20
364.0169175054
 30
0.0
 11
368.5059546877
 21
349.2283746305
 31
0.0
  0
LINE
  5
15D
330
1F
100
AcDbEntity
  8
004_FINAL
100
AcDbLine
 10
368.5059546877
 20
349.2283746305
 30
0.0
 11
356.2944975626
 21
337.0169175054
 31
0.0
  0
LINE
  5
15E
330
1F
100
AcDbEntity
  8
004_FINAL
100
AcDbLine
 10
356.2944975626
 20
337.0169175054
 30
0.0
 11
341.5059546877
 21
337.0169175054
 31
0.0
  0
LINE
  5
15F
330
1F
100
AcDbEntity
  8
004_FINAL
100
AcDbLine
 10
341.5059546877
 20
337.0169175054
 30
0.0
 11
341.5059546877
 21
345.8201212389
 31
0.0
  0
LINE
  5
160
330
1F
100
AcDbEntity
  8
004_FINAL
100
AcDbLine
 10
341.5059546877
 20
345.8201212389
 30
0.0
 11
349.1127509543
 21
345.8201212389
 31
0.0
  0
LINE
  5
161
330
1F
100
AcDbEntity
  8
004_FINAL
100
AcDbLine
 10
349.1127509543
 20
345.8201212389
 30
0.0
 11
349.1127509543
 21
351.9101212388
 31
0.0
  0
LINE
  5
162
330
1F
100
AcDbEntity
  8
004_FINAL
100
AcDbLine
 10
349.1127509543
 20
351.9101212388
 30
0.0
 11
350.6127509545
 21
351.9101212388
 31
0.0
  0
LINE
  5
163
330
1F
100
AcDbEntity
  8
004_FINAL
100
AcDbLine
 10
350.6127509545
 20
351.9101212388
 30
0.0
 11
350.6127509545
 21
342.8201212389
 31
0.0
  0
LINE
  5
164
330
1F
100
AcDbEntity
  8
004_FINAL
100
AcDbLine
 10
350.6127509545
 20
342.8201212389
 30
0.0
 11
353.6127509545
 21
342.8201212389
 31
0.0
  0
LINE
  5
165
330
1F
100
AcDbEntity
  8
004_FINAL
100
AcDbLine
 10
353.6127509545
 20
345.7301212389
 30
0.0
 11
353.6127509545
 21
345.8201212389
 31
0.0
  0
LINE
  5
166
330
1F
100
AcDbEntity
  8
004_FINAL
100
AcDbLine
 10
353.6127509545
 20
345.8201212389
 30
0.0
 11
355.5027509545
 21
345.8201212389
 31
0.0
  0
LINE
  5
167
330
1F
100
AcDbEntity
  8
004_FINAL
100
AcDbLine
 10
355.5027509545
 20
345.8201212389
 30
0.0
 11
355.5027509545
 21
344.3201212389
 31
0.0
  0
LINE
  5
168
330
1F
100
AcDbEntity
  8
004_FINAL
100
AcDbLine
 10
355.5027509545
 20
344.3201212389
 30
0.0
 11
353.7722159473
 21
342.5895862317
 31
0.0
  0
LINE
  5
169
330
1F
100
AcDbEntity
  8
004_FINAL
100
AcDbLine
 10
353.7722159473
 20
342.5895862317
 30
0.0
 11
349.267815708
 21
342.5895862317
 31
0.0
  0
LINE
  5
16A
330
1F
100
AcDbEntity
  8
004_FINAL
100
AcDbLine
 10
349.267815708
 20
342.5895862317
 30
0.0
 11
347.7036954842
 21
344.1537064556
 31
0.0
  0
LINE
  5
16B
330
1F
100
AcDbEntity
  8
004_FINAL
100
AcDbLine
 10
347.7036954842
 20
344.1537064556
 30
0.0
 11
344.7036954842
 21
344.1537064556
 31
0.0
  0
LINE
  5
16C
330
1F
100
AcDbEntity
  8
004_FINAL
100
AcDbLine
 10
344.7036954842
 20
344.1537064556
 30
0.0
 11
342.1731868314
 21
341.6231978028
 31
0.0
  0
LINE
  5
16D
330
1F
100
AcDbEntity
  8
004_FINAL
100
AcDbLine
 10
342.1731868314
 20
341.6231978028
 30
0.0
 11
344.3581467853
 21
339.4382378489
 31
0.0
  0
LINE
  5
16E
330
1F
100
AcDbEntity
  8
004_FINAL
100
AcDbLine
 10
344.3581467853
 20
339.4382378489
 30
0.0
 11
342.1066262581
 21
337.1867173217
 31
0.0
  0
LINE
  5
16F
330
1F
100
AcDbEntity
  8
004_FINAL
100
AcDbLine
 10
342.1066262581
 20
337.1867173217
 30
0.0
 11
346.3492669452
 21
337.1867173217
 31
0.0
  0
LINE
  5
170
330
1F
100
AcDbEntity
  8
004_FINAL
100
AcDbLine
 10
346.3492669452
 20
337.1867173217
 30
0.0
 11
346.4794671289
 21
337.3169175054
 31
0.0
  0
LINE
  5
171
330
1F
100
AcDbEntity
  8
004_FINAL
100
AcDbLine
 10
346.4794671289
 20
337.3169175054
 30
0.0
 11
356.1702334941
 21
337.3169175054
 31
0.0
  0
LINE
  5
172
330
1F
100
AcDbEntity
  8
004_FINAL
100
AcDbLine
 10
356.1702334941
 20
337.3169175054
 30
0.0
 11
368.2059546879
 21
349.3526386992
 31
0.0
  0
LINE
  5
173
330
1F
100
AcDbEntity
  8
004_FINAL
100
AcDbLine
 10
368.2059546879
 20
349.3526386992
 30
0.0
 11
368.2059546879
 21
359.0434050644
 31
0.0
  0
LINE
  5
174
330
1F
100
AcDbEntity
  8
004_FINAL
100
AcDbLine
 10
368.2059546879
 20
359.0434050644
 30
0.0
 11
368.3332339085
 21
359.170684285
 31
0.0
  0
LINE
  5
175
330
1F
100
AcDbEntity
  8
004_FINAL
100
AcDbLine
 10
368.3332339085
 20
359.170684285
 30
0.0
 11
368.3332339085
 21
363.4133249722
 31
0.0
  0
LINE
  5
176
330
1F
100
AcDbEntity
  8
004_FINAL
100
AcDbLine
 10
365.7575500303
 20
357.249169035
 30
0.0
 11
363.9633140008
 21
359.0434050644
 31
0.0
  0
LINE
  5
177
330
1F
100
AcDbEntity
  8
004_FINAL
100
AcDbLine
 10
363.7511819664
 20
358.8312730301
 30
0.0
 11
363.9633140008
 21
359.0434050644
 31
0.0
  0
LINE
  5
178
330
1F
100
AcDbEntity
  8
004_FINAL
100
AcDbLine
 10
363.7511819664
 20
358.8312730301
 30
0.0
 11
365.3332859616
 21
357.249169035
 31
0.0
  0
LINE
  5
179
330
1F
100
AcDbEntity
  8
004_FINAL
100
AcDbLine
 10
365.3332859616
 20
351.1468747286
 30
0.0
 11
365.3332859616
 21
357.249169035
 31
0.0
  0
LINE
  5
17A
330
1F
100
AcDbEntity
  8
004_FINAL
100
AcDbLine
 10
365.3332859616
 20
351.1468747286
 30
0.0
 11
360.5052136675
 21
346.3188024346
 31
0.0
  0
LINE
  5
17B
330
1F
100
AcDbEntity
  8
004_FINAL
100
AcDbLine
 10
360.5052136675
 20
346.3188024346
 30
0.0
 11
356.7027509545
 21
349.2321561478
 31
0.0
  0
LINE
  5
17C
330
1F
100
AcDbEntity
  8
004_FINAL
100
AcDbLine
 10
356.7027509545
 20
349.2321561478
 30
0.0
 11
356.7027509545
 21
351.9101212388
 31
0.0
  0
LINE
  5
17D
330
1F
100
AcDbEntity
  8
004_FINAL
100
AcDbLine
 10
356.7027509545
 20
351.9101212388
 30
0.0
 11
353.6127509545
 21
351.9101212388
 31
0.0
  0
LINE
  5
17E
330
1F
100
AcDbEntity
  8
004_FINAL
100
AcDbLine
 10
353.6127509545
 20
351.9101212388
 30
0.0
 11
353.6127509545
 21
350.0201212389
 31
0.0
  0
LINE
  5
17F
330
1F
100
AcDbEntity
  8
004_FINAL
100
AcDbLine
 10
353.6127509545
 20
350.0201212389
 30
0.0
 11
355.5027509544
 21
350.0201212389
 31
0.0
  0
LINE
  5
180
330
1F
100
AcDbEntity
  8
004_FINAL
100
AcDbLine
 10
359.4230583068
 20
345.2366470738
 30
0.0
 11
355.5027509544
 21
350.0201212389
 31
0.0
  0
LINE
  5
181
330
1F
100
AcDbEntity
  8
004_FINAL
100
AcDbLine
 10
354.3759974647
 20
340.1895862317
 30
0.0
 11
359.4230583068
 21
345.2366470738
 31
0.0
  0
LINE
  5
182
330
1F
100
AcDbEntity
  8
004_FINAL
100
AcDbLine
 10
354.3759974647
 20
340.1895862317
 30
0.0
 11
348.2737031583
 21
340.1895862317
 31
0.0
  0
LINE
  5
183
330
1F
100
AcDbEntity
  8
004_FINAL
100
AcDbLine
 10
348.2737031583
 20
340.1895862317
 30
0.0
 11
346.6279595529
 21
341.8353298371
 31
0.0
  0
LINE
  5
184
330
1F
100
AcDbEntity
  8
004_FINAL
100
AcDbLine
 10
346.6279595529
 20
341.8353298371
 30
0.0
 11
346.4158275186
 21
341.6231978028
 31
0.0
  0
LINE
  5
185
330
1F
100
AcDbEntity
  8
004_FINAL
100
AcDbLine
 10
346.4158275186
 20
341.6231978028
 30
0.0
 11
348.2737031583
 21
339.765322163
 31
0.0
  0
LINE
  5
186
330
1F
100
AcDbEntity
  8
004_FINAL
100
AcDbLine
 10
348.2737031583
 20
339.765322163
 30
0.0
 11
354.3759974647
 21
339.765322163
 31
0.0
  0
LINE
  5
187
330
1F
100
AcDbEntity
  8
004_FINAL
100
AcDbLine
 10
354.3759974647
 20
339.765322163
 30
0.0
 11
365.7575500303
 21
351.1468747286
 31
0.0
  0
LINE
  5
188
330
1F
100
AcDbEntity
  8
004_FINAL
100
AcDbLine
 10
365.7575500303
 20
357.249169035
 30
0.0
 11
365.7575500303
 21
351.1468747286
 31
0.0
  0
LINE
  5
189
330
1F
100
AcDbEntity
  8
004_FINAL
100
AcDbLine
 10
337.0059546879
 20
368.5169175053
 30
0.0
 11
373.0059546879
 21
368.5169175053
 31
0.0
  0
LINE
  5
18A
330
1F
100
AcDbEntity
  8
004_FINAL
100
AcDbLine
 10
337.0059546879
 20
332.5169175053
 30
0.0
 11
373.0059546879
 21
332.5169175053
 31
0.0
  0
LINE
  5
18B
330
1F
100
AcDbEntity
  8
004_FINAL
100
AcDbLine
 10
336.7059546883
 20
368.5169175053
 30
0.0
 11
337.0059546879
 21
368.5169175053
 31
0.0
  0
LINE
  5
18C
330
1F
100
AcDbEntity
  8
004_FINAL
100
AcDbLine
 10
350.9127509545
 20
356.4101212388
 30
0.0
 11
350.3127509545
 21
356.4101212388
 31
0.0
  0
LINE
  5
18D
330
1F
100
AcDbEntity
  8
004_FINAL
100
AcDbLine
 10
350.9127509545
 20
356.4101212388
 30
0.0
 11
350.9127509545
 21
358.8101212388
 31
0.0
  0
LINE
  5
18E
330
1F
100
AcDbEntity
  8
004_FINAL
100
AcDbLine
 10
350.9127509545
 20
358.8101212388
 30
0.0
 11
350.3127509545
 21
358.8101212388
 31
0.0
  0
LINE
  5
18F
330
1F
100
AcDbEntity
  8
004_FINAL
100
AcDbLine
 10
350.3127509545
 20
356.4101212388
 30
0.0
 11
350.3127509545
 21
358.8101212388
 31
0.0
  0
LINE
  5
190
330
1F
100
AcDbEntity
  8
004_FINAL
100
AcDbLine
 10
349.1127509543
 20
354.6101212388
 30
0.0
 11
346.7127509544
 21
354.6101212388
 31
0.0
  0
LINE
  5
191
330
1F
100
AcDbEntity
  8
004_FINAL
100
AcDbLine
 10
349.1127509543
 20
354.6101212388
 30
0.0
 11
349.1127509543
 21
355.2101212388
 31
0.0
  0
LINE
  5
192
330
1F
100
AcDbEntity
  8
004_FINAL
100
AcDbLine
 10
349.1127509543
 20
355.2101212388
 30
0.0
 11
346.7127509544
 21
355.2101212388
 31
0.0
  0
LINE
  5
193
330
1F
100
AcDbEntity
  8
004_FINAL
100
AcDbLine
 10
346.7127509544
 20
354.6101212388
 30
0.0
 11
346.7127509544
 21
355.2101212388
 31
0.0
  0
LINE
  5
194
330
1F
100
AcDbEntity
  8
004_FINAL
100
AcDbLine
 10
323.4027509549
 20
311.4101212389
 30
0.0
 11
317.3127509549
 21
311.4101212389
 31
0.0
  0
LINE
  5
195
330
1F
100
AcDbEntity
  8
004_FINAL
100
AcDbLine
 10
317.3127509549
 20
309.9101212389
 30
0.0
 11
317.3127509549
 21
311.4101212389
 31
0.0
  0
LINE
  5
196
330
1F
100
AcDbEntity
  8
004_FINAL
100
AcDbLine
 10
317.3127509549
 20
309.9101212389
 30
0.0
 11
326.4027509547
 21
309.9101212389
 31
0.0
  0
LINE
  5
197
330
1F
100
AcDbEntity
  8
004_FINAL
100
AcDbLine
 10
323.4927509547
 20
306.9101212389
 30
0.0
 11
323.4027509549
 21
306.9101212389
 31
0.0
  0
LINE
  5
198
330
1F
100
AcDbEntity
  8
004_FINAL
100
AcDbLine
 10
323.4027509549
 20
305.0201212389
 30
0.0
 11
324.9027509549
 21
305.0201212389
 31
0.0
  0
LINE
  5
199
330
1F
100
AcDbEntity
  8
004_FINAL
100
AcDbLine
 10
326.6332859619
 20
306.7506562459
 30
0.0
 11
326.6332859619
 21
311.2550564854
 31
0.0
  0
LINE
  5
19A
330
1F
100
AcDbEntity
  8
004_FINAL
100
AcDbLine
 10
325.0691657381
 20
312.8191767092
 30
0.0
 11
325.0691657381
 21
315.8191767092
 31
0.0
  0
LINE
  5
19B
330
1F
100
AcDbEntity
  8
004_FINAL
100
AcDbLine
 10
327.5996743909
 20
318.349685362
 30
0.0
 11
329.7846343447
 21
316.1647254081
 31
0.0
  0
LINE
  5
19C
330
1F
100
AcDbEntity
  8
004_FINAL
100
AcDbLine
 10
332.0332339089
 20
318.4133249723
 30
0.0
 11
329.7846343447
 21
316.1647254081
 31
0.0
  0
LINE
  5
19D
330
1F
100
AcDbEntity
  8
004_FINAL
100
AcDbLine
 10
327.5996743909
 20
318.349685362
 30
0.0
 11
325.0691657381
 21
315.8191767092
 31
0.0
  0
LINE
  5
19E
330
1F
100
AcDbEntity
  8
004_FINAL
100
AcDbLine
 10
325.0691657381
 20
312.8191767092
 30
0.0
 11
326.6332859619
 21
311.2550564854
 31
0.0
  0
LINE
  5
19F
330
1F
100
AcDbEntity
  8
004_FINAL
100
AcDbLine
 10
326.6332859619
 20
306.7506562459
 30
0.0
 11
324.9027509549
 21
305.0201212389
 31
0.0
  0
LINE
  5
1A0
330
1F
100
AcDbEntity
  8
004_FINAL
100
AcDbLine
 10
323.4027509549
 20
305.0201212389
 30
0.0
 11
323.4027509549
 21
306.9101212389
 31
0.0
  0
LINE
  5
1A1
330
1F
100
AcDbEntity
  8
004_FINAL
100
AcDbLine
 10
326.4027509547
 20
306.9101212389
 30
0.0
 11
326.4027509547
 21
309.9101212389
 31
0.0
  0
LINE
  5
1A2
330
1F
100
AcDbEntity
  8
004_FINAL
100
AcDbLine
 10
323.4027509549
 20
311.4101212389
 30
0.0
 11
323.4027509549
 21
319.0169175055
 31
0.0
  0
LINE
  5
1A3
330
1F
100
AcDbEntity
  8
004_FINAL
100
AcDbLine
 10
332.2059546881
 20
319.0169175055
 30
0.0
 11
323.4027509549
 21
319.0169175055
 31
0.0
  0
LINE
  5
1A4
330
1F
100
AcDbEntity
  8
004_FINAL
100
AcDbLine
 10
332.2059546881
 20
319.0169175055
 30
0.0
 11
332.2059546881
 21
304.2283746306
 31
0.0
  0
LINE
  5
1A5
330
1F
100
AcDbEntity
  8
004_FINAL
100
AcDbLine
 10
332.2059546881
 20
304.2283746306
 30
0.0
 11
319.994497563
 21
292.0169175055
 31
0.0
  0
LINE
  5
1A6
330
1F
100
AcDbEntity
  8
004_FINAL
100
AcDbLine
 10
319.994497563
 20
292.0169175055
 30
0.0
 11
305.2059546881
 21
292.0169175055
 31
0.0
  0
LINE
  5
1A7
330
1F
100
AcDbEntity
  8
004_FINAL
100
AcDbLine
 10
305.2059546881
 20
292.0169175055
 30
0.0
 11
305.2059546881
 21
300.8201212391
 31
0.0
  0
LINE
  5
1A8
330
1F
100
AcDbEntity
  8
004_FINAL
100
AcDbLine
 10
305.2059546881
 20
300.8201212391
 30
0.0
 11
312.8127509547
 21
300.8201212391
 31
0.0
  0
LINE
  5
1A9
330
1F
100
AcDbEntity
  8
004_FINAL
100
AcDbLine
 10
312.8127509547
 20
300.8201212391
 30
0.0
 11
312.8127509547
 21
306.9101212389
 31
0.0
  0
LINE
  5
1AA
330
1F
100
AcDbEntity
  8
004_FINAL
100
AcDbLine
 10
312.8127509547
 20
306.9101212389
 30
0.0
 11
314.3127509549
 21
306.9101212389
 31
0.0
  0
LINE
  5
1AB
330
1F
100
AcDbEntity
  8
004_FINAL
100
AcDbLine
 10
314.3127509549
 20
306.9101212389
 30
0.0
 11
314.3127509549
 21
297.8201212391
 31
0.0
  0
LINE
  5
1AC
330
1F
100
AcDbEntity
  8
004_FINAL
100
AcDbLine
 10
314.3127509549
 20
297.8201212391
 30
0.0
 11
317.3127509549
 21
297.8201212391
 31
0.0
  0
LINE
  5
1AD
330
1F
100
AcDbEntity
  8
004_FINAL
100
AcDbLine
 10
317.3127509549
 20
300.7301212391
 30
0.0
 11
317.3127509549
 21
300.8201212391
 31
0.0
  0
LINE
  5
1AE
330
1F
100
AcDbEntity
  8
004_FINAL
100
AcDbLine
 10
317.3127509549
 20
300.8201212391
 30
0.0
 11
319.2027509549
 21
300.8201212391
 31
0.0
  0
LINE
  5
1AF
330
1F
100
AcDbEntity
  8
004_FINAL
100
AcDbLine
 10
319.2027509549
 20
300.8201212391
 30
0.0
 11
319.2027509549
 21
299.3201212391
 31
0.0
  0
LINE
  5
1B0
330
1F
100
AcDbEntity
  8
004_FINAL
100
AcDbLine
 10
319.2027509549
 20
299.3201212391
 30
0.0
 11
317.4722159477
 21
297.5895862319
 31
0.0
  0
LINE
  5
1B1
330
1F
100
AcDbEntity
  8
004_FINAL
100
AcDbLine
 10
317.4722159477
 20
297.5895862319
 30
0.0
 11
312.9678157084
 21
297.5895862319
 31
0.0
  0
LINE
  5
1B2
330
1F
100
AcDbEntity
  8
004_FINAL
100
AcDbLine
 10
312.9678157084
 20
297.5895862319
 30
0.0
 11
311.4036954846
 21
299.1537064557
 31
0.0
  0
LINE
  5
1B3
330
1F
100
AcDbEntity
  8
004_FINAL
100
AcDbLine
 10
311.4036954846
 20
299.1537064557
 30
0.0
 11
308.4036954846
 21
299.1537064557
 31
0.0
  0
LINE
  5
1B4
330
1F
100
AcDbEntity
  8
004_FINAL
100
AcDbLine
 10
308.4036954846
 20
299.1537064557
 30
0.0
 11
305.8731868318
 21
296.6231978029
 31
0.0
  0
LINE
  5
1B5
330
1F
100
AcDbEntity
  8
004_FINAL
100
AcDbLine
 10
305.8731868318
 20
296.6231978029
 30
0.0
 11
308.0581467857
 21
294.4382378491
 31
0.0
  0
LINE
  5
1B6
330
1F
100
AcDbEntity
  8
004_FINAL
100
AcDbLine
 10
308.0581467857
 20
294.4382378491
 30
0.0
 11
305.8066262585
 21
292.1867173218
 31
0.0
  0
LINE
  5
1B7
330
1F
100
AcDbEntity
  8
004_FINAL
100
AcDbLine
 10
305.8066262585
 20
292.1867173218
 30
0.0
 11
310.0492669456
 21
292.1867173218
 31
0.0
  0
LINE
  5
1B8
330
1F
100
AcDbEntity
  8
004_FINAL
100
AcDbLine
 10
310.0492669456
 20
292.1867173218
 30
0.0
 11
310.1794671293
 21
292.3169175055
 31
0.0
  0
LINE
  5
1B9
330
1F
100
AcDbEntity
  8
004_FINAL
100
AcDbLine
 10
310.1794671293
 20
292.3169175055
 30
0.0
 11
319.8702334945
 21
292.3169175055
 31
0.0
  0
LINE
  5
1BA
330
1F
100
AcDbEntity
  8
004_FINAL
100
AcDbLine
 10
319.8702334945
 20
292.3169175055
 30
0.0
 11
331.9059546883
 21
304.3526386993
 31
0.0
  0
LINE
  5
1BB
330
1F
100
AcDbEntity
  8
004_FINAL
100
AcDbLine
 10
331.9059546883
 20
304.3526386993
 30
0.0
 11
331.9059546883
 21
314.0434050646
 31
0.0
  0
LINE
  5
1BC
330
1F
100
AcDbEntity
  8
004_FINAL
100
AcDbLine
 10
331.9059546883
 20
314.0434050646
 30
0.0
 11
332.0332339089
 21
314.1706842852
 31
0.0
  0
LINE
  5
1BD
330
1F
100
AcDbEntity
  8
004_FINAL
100
AcDbLine
 10
332.0332339089
 20
314.1706842852
 30
0.0
 11
332.0332339089
 21
318.4133249723
 31
0.0
  0
LINE
  5
1BE
330
1F
100
AcDbEntity
  8
004_FINAL
100
AcDbLine
 10
329.4575500307
 20
312.2491690351
 30
0.0
 11
327.6633140012
 21
314.0434050646
 31
0.0
  0
LINE
  5
1BF
330
1F
100
AcDbEntity
  8
004_FINAL
100
AcDbLine
 10
327.4511819668
 20
313.8312730302
 30
0.0
 11
327.6633140012
 21
314.0434050646
 31
0.0
  0
LINE
  5
1C0
330
1F
100
AcDbEntity
  8
004_FINAL
100
AcDbLine
 10
327.4511819668
 20
313.8312730302
 30
0.0
 11
329.033285962
 21
312.2491690351
 31
0.0
  0
LINE
  5
1C1
330
1F
100
AcDbEntity
  8
004_FINAL
100
AcDbLine
 10
329.033285962
 20
306.1468747288
 30
0.0
 11
329.033285962
 21
312.2491690351
 31
0.0
  0
LINE
  5
1C2
330
1F
100
AcDbEntity
  8
004_FINAL
100
AcDbLine
 10
329.033285962
 20
306.1468747288
 30
0.0
 11
324.2052136679
 21
301.3188024347
 31
0.0
  0
LINE
  5
1C3
330
1F
100
AcDbEntity
  8
004_FINAL
100
AcDbLine
 10
324.2052136679
 20
301.3188024347
 30
0.0
 11
320.4027509549
 21
304.2321561479
 31
0.0
  0
LINE
  5
1C4
330
1F
100
AcDbEntity
  8
004_FINAL
100
AcDbLine
 10
320.4027509549
 20
304.2321561479
 30
0.0
 11
320.4027509549
 21
306.9101212389
 31
0.0
  0
LINE
  5
1C5
330
1F
100
AcDbEntity
  8
004_FINAL
100
AcDbLine
 10
320.4027509549
 20
306.9101212389
 30
0.0
 11
317.3127509549
 21
306.9101212389
 31
0.0
  0
LINE
  5
1C6
330
1F
100
AcDbEntity
  8
004_FINAL
100
AcDbLine
 10
317.3127509549
 20
306.9101212389
 30
0.0
 11
317.3127509549
 21
305.0201212391
 31
0.0
  0
LINE
  5
1C7
330
1F
100
AcDbEntity
  8
004_FINAL
100
AcDbLine
 10
317.3127509549
 20
305.0201212391
 30
0.0
 11
319.2027509548
 21
305.0201212391
 31
0.0
  0
LINE
  5
1C8
330
1F
100
AcDbEntity
  8
004_FINAL
100
AcDbLine
 10
323.1230583071
 20
300.2366470739
 30
0.0
 11
319.2027509548
 21
305.0201212391
 31
0.0
  0
LINE
  5
1C9
330
1F
100
AcDbEntity
  8
004_FINAL
100
AcDbLine
 10
318.075997465
 20
295.1895862318
 30
0.0
 11
323.1230583071
 21
300.2366470739
 31
0.0
  0
LINE
  5
1CA
330
1F
100
AcDbEntity
  8
004_FINAL
100
AcDbLine
 10
318.075997465
 20
295.1895862318
 30
0.0
 11
311.9737031587
 21
295.1895862318
 31
0.0
  0
LINE
  5
1CB
330
1F
100
AcDbEntity
  8
004_FINAL
100
AcDbLine
 10
311.9737031587
 20
295.1895862318
 30
0.0
 11
310.3279595533
 21
296.8353298373
 31
0.0
  0
LINE
  5
1CC
330
1F
100
AcDbEntity
  8
004_FINAL
100
AcDbLine
 10
310.3279595533
 20
296.8353298373
 30
0.0
 11
310.115827519
 21
296.6231978029
 31
0.0
  0
LINE
  5
1CD
330
1F
100
AcDbEntity
  8
004_FINAL
100
AcDbLine
 10
310.115827519
 20
296.6231978029
 30
0.0
 11
311.9737031587
 21
294.7653221632
 31
0.0
  0
LINE
  5
1CE
330
1F
100
AcDbEntity
  8
004_FINAL
100
AcDbLine
 10
311.9737031587
 20
294.7653221632
 30
0.0
 11
318.075997465
 21
294.7653221632
 31
0.0
  0
LINE
  5
1CF
330
1F
100
AcDbEntity
  8
004_FINAL
100
AcDbLine
 10
318.075997465
 20
294.7653221632
 30
0.0
 11
329.4575500307
 21
306.1468747288
 31
0.0
  0
LINE
  5
1D0
330
1F
100
AcDbEntity
  8
004_FINAL
100
AcDbLine
 10
329.4575500307
 20
312.2491690351
 30
0.0
 11
329.4575500307
 21
306.1468747288
 31
0.0
  0
LINE
  5
1D1
330
1F
100
AcDbEntity
  8
004_FINAL
100
AcDbLine
 10
300.7059546883
 20
323.5169175055
 30
0.0
 11
336.7059546883
 21
323.5169175055
 31
0.0
  0
LINE
  5
1D2
330
1F
100
AcDbEntity
  8
004_FINAL
100
AcDbLine
 10
337.0059546879
 20
332.5169175053
 30
0.0
 11
336.7059546883
 21
332.5169175053
 31
0.0
  0
LINE
  5
1D3
330
1F
100
AcDbEntity
  8
004_FINAL
100
AcDbLine
 10
300.7059546883
 20
287.5169175055
 30
0.0
 11
336.7059546883
 21
287.5169175055
 31
0.0
  0
LINE
  5
1D4
330
1F
100
AcDbEntity
  8
004_FINAL
100
AcDbLine
 10
264.4059546887
 20
368.5169175053
 30
0.0
 11
255.3326014466
 21
368.5169175053
 31
0.0
  0
LINE
  5
1D5
330
1F
100
AcDbEntity
  8
004_FINAL
100
AcDbLine
 10
314.6127509549
 20
311.4101212389
 30
0.0
 11
314.0127509549
 21
311.4101212389
 31
0.0
  0
LINE
  5
1D6
330
1F
100
AcDbEntity
  8
004_FINAL
100
AcDbLine
 10
314.6127509549
 20
311.4101212389
 30
0.0
 11
314.6127509549
 21
313.8101212389
 31
0.0
  0
LINE
  5
1D7
330
1F
100
AcDbEntity
  8
004_FINAL
100
AcDbLine
 10
314.6127509549
 20
313.8101212389
 30
0.0
 11
314.0127509549
 21
313.8101212389
 31
0.0
  0
LINE
  5
1D8
330
1F
100
AcDbEntity
  8
004_FINAL
100
AcDbLine
 10
314.0127509549
 20
311.4101212389
 30
0.0
 11
314.0127509549
 21
313.8101212389
 31
0.0
  0
LINE
  5
1D9
330
1F
100
AcDbEntity
  8
004_FINAL
100
AcDbLine
 10
312.8127509547
 20
309.6101212389
 30
0.0
 11
310.4127509548
 21
309.6101212389
 31
0.0
  0
LINE
  5
1DA
330
1F
100
AcDbEntity
  8
004_FINAL
100
AcDbLine
 10
312.8127509547
 20
309.6101212389
 30
0.0
 11
312.8127509547
 21
310.2101212389
 31
0.0
  0
LINE
  5
1DB
330
1F
100
AcDbEntity
  8
004_FINAL
100
AcDbLine
 10
312.8127509547
 20
310.2101212389
 30
0.0
 11
310.4127509548
 21
310.2101212389
 31
0.0
  0
LINE
  5
1DC
330
1F
100
AcDbEntity
  8
004_FINAL
100
AcDbLine
 10
310.4127509548
 20
309.6101212389
 30
0.0
 11
310.4127509548
 21
310.2101212389
 31
0.0
  0
LINE
  5
1DD
330
1F
100
AcDbEntity
  8
004_FINAL
100
AcDbLine
 10
359.7027509545
 20
311.4101212389
 30
0.0
 11
353.6127509545
 21
311.4101212389
 31
0.0
  0
LINE
  5
1DE
330
1F
100
AcDbEntity
  8
004_FINAL
100
AcDbLine
 10
353.6127509545
 20
309.9101212389
 30
0.0
 11
353.6127509545
 21
311.4101212389
 31
0.0
  0
LINE
  5
1DF
330
1F
100
AcDbEntity
  8
004_FINAL
100
AcDbLine
 10
353.6127509545
 20
309.9101212389
 30
0.0
 11
362.7027509543
 21
309.9101212389
 31
0.0
  0
LINE
  5
1E0
330
1F
100
AcDbEntity
  8
004_FINAL
100
AcDbLine
 10
359.7927509544
 20
306.9101212389
 30
0.0
 11
359.7027509545
 21
306.9101212389
 31
0.0
  0
LINE
  5
1E1
330
1F
100
AcDbEntity
  8
004_FINAL
100
AcDbLine
 10
359.7027509545
 20
305.0201212389
 30
0.0
 11
361.2027509545
 21
305.0201212389
 31
0.0
  0
LINE
  5
1E2
330
1F
100
AcDbEntity
  8
004_FINAL
100
AcDbLine
 10
362.9332859616
 20
306.7506562459
 30
0.0
 11
362.9332859616
 21
311.2550564854
 31
0.0
  0
LINE
  5
1E3
330
1F
100
AcDbEntity
  8
004_FINAL
100
AcDbLine
 10
361.3691657377
 20
312.8191767092
 30
0.0
 11
361.3691657377
 21
315.8191767092
 31
0.0
  0
LINE
  5
1E4
330
1F
100
AcDbEntity
  8
004_FINAL
100
AcDbLine
 10
363.8996743905
 20
318.349685362
 30
0.0
 11
366.0846343444
 21
316.1647254081
 31
0.0
  0
LINE
  5
1E5
330
1F
100
AcDbEntity
  8
004_FINAL
100
AcDbLine
 10
368.3332339085
 20
318.4133249723
 30
0.0
 11
366.0846343444
 21
316.1647254081
 31
0.0
  0
LINE
  5
1E6
330
1F
100
AcDbEntity
  8
004_FINAL
100
AcDbLine
 10
363.8996743905
 20
318.349685362
 30
0.0
 11
361.3691657377
 21
315.8191767092
 31
0.0
  0
LINE
  5
1E7
330
1F
100
AcDbEntity
  8
004_FINAL
100
AcDbLine
 10
361.3691657377
 20
312.8191767092
 30
0.0
 11
362.9332859616
 21
311.2550564854
 31
0.0
  0
LINE
  5
1E8
330
1F
100
AcDbEntity
  8
004_FINAL
100
AcDbLine
 10
362.9332859616
 20
306.7506562459
 30
0.0
 11
361.2027509545
 21
305.0201212389
 31
0.0
  0
LINE
  5
1E9
330
1F
100
AcDbEntity
  8
004_FINAL
100
AcDbLine
 10
359.7027509545
 20
305.0201212389
 30
0.0
 11
359.7027509545
 21
306.9101212389
 31
0.0
  0
LINE
  5
1EA
330
1F
100
AcDbEntity
  8
004_FINAL
100
AcDbLine
 10
362.7027509543
 20
306.9101212389
 30
0.0
 11
362.7027509543
 21
309.9101212389
 31
0.0
  0
LINE
  5
1EB
330
1F
100
AcDbEntity
  8
004_FINAL
100
AcDbLine
 10
359.7027509545
 20
311.4101212389
 30
0.0
 11
359.7027509545
 21
319.0169175055
 31
0.0
  0
LINE
  5
1EC
330
1F
100
AcDbEntity
  8
004_FINAL
100
AcDbLine
 10
368.5059546877
 20
319.0169175055
 30
0.0
 11
359.7027509545
 21
319.0169175055
 31
0.0
  0
LINE
  5
1ED
330
1F
100
AcDbEntity
  8
004_FINAL
100
AcDbLine
 10
368.5059546877
 20
319.0169175055
 30
0.0
 11
368.5059546877
 21
304.2283746306
 31
0.0
  0
LINE
  5
1EE
330
1F
100
AcDbEntity
  8
004_FINAL
100
AcDbLine
 10
368.5059546877
 20
304.2283746306
 30
0.0
 11
356.2944975626
 21
292.0169175055
 31
0.0
  0
LINE
  5
1EF
330
1F
100
AcDbEntity
  8
004_FINAL
100
AcDbLine
 10
356.2944975626
 20
292.0169175055
 30
0.0
 11
341.5059546877
 21
292.0169175055
 31
0.0
  0
LINE
  5
1F0
330
1F
100
AcDbEntity
  8
004_FINAL
100
AcDbLine
 10
341.5059546877
 20
292.0169175055
 30
0.0
 11
341.5059546877
 21
300.8201212391
 31
0.0
  0
LINE
  5
1F1
330
1F
100
AcDbEntity
  8
004_FINAL
100
AcDbLine
 10
341.5059546877
 20
300.8201212391
 30
0.0
 11
349.1127509543
 21
300.8201212391
 31
0.0
  0
LINE
  5
1F2
330
1F
100
AcDbEntity
  8
004_FINAL
100
AcDbLine
 10
349.1127509543
 20
300.8201212391
 30
0.0
 11
349.1127509543
 21
306.9101212389
 31
0.0
  0
LINE
  5
1F3
330
1F
100
AcDbEntity
  8
004_FINAL
100
AcDbLine
 10
349.1127509543
 20
306.9101212389
 30
0.0
 11
350.6127509545
 21
306.9101212389
 31
0.0
  0
LINE
  5
1F4
330
1F
100
AcDbEntity
  8
004_FINAL
100
AcDbLine
 10
350.6127509545
 20
306.9101212389
 30
0.0
 11
350.6127509545
 21
297.8201212391
 31
0.0
  0
LINE
  5
1F5
330
1F
100
AcDbEntity
  8
004_FINAL
100
AcDbLine
 10
350.6127509545
 20
297.8201212391
 30
0.0
 11
353.6127509545
 21
297.8201212391
 31
0.0
  0
LINE
  5
1F6
330
1F
100
AcDbEntity
  8
004_FINAL
100
AcDbLine
 10
353.6127509545
 20
300.7301212391
 30
0.0
 11
353.6127509545
 21
300.8201212391
 31
0.0
  0
LINE
  5
1F7
330
1F
100
AcDbEntity
  8
004_FINAL
100
AcDbLine
 10
353.6127509545
 20
300.8201212391
 30
0.0
 11
355.5027509545
 21
300.8201212391
 31
0.0
  0
LINE
  5
1F8
330
1F
100
AcDbEntity
  8
004_FINAL
100
AcDbLine
 10
355.5027509545
 20
300.8201212391
 30
0.0
 11
355.5027509545
 21
299.3201212391
 31
0.0
  0
LINE
  5
1F9
330
1F
100
AcDbEntity
  8
004_FINAL
100
AcDbLine
 10
355.5027509545
 20
299.3201212391
 30
0.0
 11
353.7722159473
 21
297.5895862319
 31
0.0
  0
LINE
  5
1FA
330
1F
100
AcDbEntity
  8
004_FINAL
100
AcDbLine
 10
353.7722159473
 20
297.5895862319
 30
0.0
 11
349.267815708
 21
297.5895862319
 31
0.0
  0
LINE
  5
1FB
330
1F
100
AcDbEntity
  8
004_FINAL
100
AcDbLine
 10
349.267815708
 20
297.5895862319
 30
0.0
 11
347.7036954842
 21
299.1537064557
 31
0.0
  0
LINE
  5
1FC
330
1F
100
AcDbEntity
  8
004_FINAL
100
AcDbLine
 10
347.7036954842
 20
299.1537064557
 30
0.0
 11
344.7036954842
 21
299.1537064557
 31
0.0
  0
LINE
  5
1FD
330
1F
100
AcDbEntity
  8
004_FINAL
100
AcDbLine
 10
344.7036954842
 20
299.1537064557
 30
0.0
 11
342.1731868314
 21
296.6231978029
 31
0.0
  0
LINE
  5
1FE
330
1F
100
AcDbEntity
  8
004_FINAL
100
AcDbLine
 10
342.1731868314
 20
296.6231978029
 30
0.0
 11
344.3581467853
 21
294.4382378491
 31
0.0
  0
LINE
  5
1FF
330
1F
100
AcDbEntity
  8
004_FINAL
100
AcDbLine
 10
344.3581467853
 20
294.4382378491
 30
0.0
 11
342.1066262581
 21
292.1867173218
 31
0.0
  0
LINE
  5
200
330
1F
100
AcDbEntity
  8
004_FINAL
100
AcDbLine
 10
342.1066262581
 20
292.1867173218
 30
0.0
 11
346.3492669452
 21
292.1867173218
 31
0.0
  0
LINE
  5
201
330
1F
100
AcDbEntity
  8
004_FINAL
100
AcDbLine
 10
346.3492669452
 20
292.1867173218
 30
0.0
 11
346.4794671289
 21
292.3169175055
 31
0.0
  0
LINE
  5
202
330
1F
100
AcDbEntity
  8
004_FINAL
100
AcDbLine
 10
346.4794671289
 20
292.3169175055
 30
0.0
 11
356.1702334941
 21
292.3169175055
 31
0.0
  0
LINE
  5
203
330
1F
100
AcDbEntity
  8
004_FINAL
100
AcDbLine
 10
356.1702334941
 20
292.3169175055
 30
0.0
 11
368.2059546879
 21
304.3526386993
 31
0.0
  0
LINE
  5
204
330
1F
100
AcDbEntity
  8
004_FINAL
100
AcDbLine
 10
368.2059546879
 20
304.3526386993
 30
0.0
 11
368.2059546879
 21
314.0434050646
 31
0.0
  0
LINE
  5
205
330
1F
100
AcDbEntity
  8
004_FINAL
100
AcDbLine
 10
368.2059546879
 20
314.0434050646
 30
0.0
 11
368.3332339085
 21
314.1706842852
 31
0.0
  0
LINE
  5
206
330
1F
100
AcDbEntity
  8
004_FINAL
100
AcDbLine
 10
368.3332339085
 20
314.1706842852
 30
0.0
 11
368.3332339085
 21
318.4133249723
 31
0.0
  0
LINE
  5
207
330
1F
100
AcDbEntity
  8
004_FINAL
100
AcDbLine
 10
365.7575500303
 20
312.2491690351
 30
0.0
 11
363.9633140008
 21
314.0434050646
 31
0.0
  0
LINE
  5
208
330
1F
100
AcDbEntity
  8
004_FINAL
100
AcDbLine
 10
363.7511819664
 20
313.8312730302
 30
0.0
 11
363.9633140008
 21
314.0434050646
 31
0.0
  0
LINE
  5
209
330
1F
100
AcDbEntity
  8
004_FINAL
100
AcDbLine
 10
363.7511819664
 20
313.8312730302
 30
0.0
 11
365.3332859616
 21
312.2491690351
 31
0.0
  0
LINE
  5
20A
330
1F
100
AcDbEntity
  8
004_FINAL
100
AcDbLine
 10
365.3332859616
 20
306.1468747288
 30
0.0
 11
365.3332859616
 21
312.2491690351
 31
0.0
  0
LINE
  5
20B
330
1F
100
AcDbEntity
  8
004_FINAL
100
AcDbLine
 10
365.3332859616
 20
306.1468747288
 30
0.0
 11
360.5052136675
 21
301.3188024347
 31
0.0
  0
LINE
  5
20C
330
1F
100
AcDbEntity
  8
004_FINAL
100
AcDbLine
 10
360.5052136675
 20
301.3188024347
 30
0.0
 11
356.7027509545
 21
304.2321561479
 31
0.0
  0
LINE
  5
20D
330
1F
100
AcDbEntity
  8
004_FINAL
100
AcDbLine
 10
356.7027509545
 20
304.2321561479
 30
0.0
 11
356.7027509545
 21
306.9101212389
 31
0.0
  0
LINE
  5
20E
330
1F
100
AcDbEntity
  8
004_FINAL
100
AcDbLine
 10
356.7027509545
 20
306.9101212389
 30
0.0
 11
353.6127509545
 21
306.9101212389
 31
0.0
  0
LINE
  5
20F
330
1F
100
AcDbEntity
  8
004_FINAL
100
AcDbLine
 10
353.6127509545
 20
306.9101212389
 30
0.0
 11
353.6127509545
 21
305.0201212391
 31
0.0
  0
LINE
  5
210
330
1F
100
AcDbEntity
  8
004_FINAL
100
AcDbLine
 10
353.6127509545
 20
305.0201212391
 30
0.0
 11
355.5027509544
 21
305.0201212391
 31
0.0
  0
LINE
  5
211
330
1F
100
AcDbEntity
  8
004_FINAL
100
AcDbLine
 10
359.4230583068
 20
300.2366470739
 30
0.0
 11
355.5027509544
 21
305.0201212391
 31
0.0
  0
LINE
  5
212
330
1F
100
AcDbEntity
  8
004_FINAL
100
AcDbLine
 10
354.3759974647
 20
295.1895862318
 30
0.0
 11
359.4230583068
 21
300.2366470739
 31
0.0
  0
LINE
  5
213
330
1F
100
AcDbEntity
  8
004_FINAL
100
AcDbLine
 10
354.3759974647
 20
295.1895862318
 30
0.0
 11
348.2737031583
 21
295.1895862318
 31
0.0
  0
LINE
  5
214
330
1F
100
AcDbEntity
  8
004_FINAL
100
AcDbLine
 10
348.2737031583
 20
295.1895862318
 30
0.0
 11
346.6279595529
 21
296.8353298373
 31
0.0
  0
LINE
  5
215
330
1F
100
AcDbEntity
  8
004_FINAL
100
AcDbLine
 10
346.6279595529
 20
296.8353298373
 30
0.0
 11
346.4158275186
 21
296.6231978029
 31
0.0
  0
LINE
  5
216
330
1F
100
AcDbEntity
  8
004_FINAL
100
AcDbLine
 10
346.4158275186
 20
296.6231978029
 30
0.0
 11
348.2737031583
 21
294.7653221632
 31
0.0
  0
LINE
  5
217
330
1F
100
AcDbEntity
  8
004_FINAL
100
AcDbLine
 10
348.2737031583
 20
294.7653221632
 30
0.0
 11
354.3759974647
 21
294.7653221632
 31
0.0
  0
LINE
  5
218
330
1F
100
AcDbEntity
  8
004_FINAL
100
AcDbLine
 10
354.3759974647
 20
294.7653221632
 30
0.0
 11
365.7575500303
 21
306.1468747288
 31
0.0
  0
LINE
  5
219
330
1F
100
AcDbEntity
  8
004_FINAL
100
AcDbLine
 10
365.7575500303
 20
312.2491690351
 30
0.0
 11
365.7575500303
 21
306.1468747288
 31
0.0
  0
LINE
  5
21A
330
1F
100
AcDbEntity
  8
004_FINAL
100
AcDbLine
 10
337.0059546879
 20
323.5169175055
 30
0.0
 11
373.0059546879
 21
323.5169175055
 31
0.0
  0
LINE
  5
21B
330
1F
100
AcDbEntity
  8
004_FINAL
100
AcDbLine
 10
300.4059546887
 20
332.5169175053
 30
0.0
 11
300.7059546883
 21
332.5169175053
 31
0.0
  0
LINE
  5
21C
330
1F
100
AcDbEntity
  8
004_FINAL
100
AcDbLine
 10
337.0059546879
 20
287.5169175055
 30
0.0
 11
373.0059546879
 21
287.5169175055
 31
0.0
  0
LINE
  5
21D
330
1F
100
AcDbEntity
  8
004_FINAL
100
AcDbLine
 10
300.4059546887
 20
323.5169175055
 30
0.0
 11
300.7059546883
 21
323.5169175055
 31
0.0
  0
LINE
  5
21E
330
1F
100
AcDbEntity
  8
004_FINAL
100
AcDbLine
 10
350.9127509545
 20
311.4101212389
 30
0.0
 11
350.3127509545
 21
311.4101212389
 31
0.0
  0
LINE
  5
21F
330
1F
100
AcDbEntity
  8
004_FINAL
100
AcDbLine
 10
350.9127509545
 20
311.4101212389
 30
0.0
 11
350.9127509545
 21
313.8101212389
 31
0.0
  0
LINE
  5
220
330
1F
100
AcDbEntity
  8
004_FINAL
100
AcDbLine
 10
350.9127509545
 20
313.8101212389
 30
0.0
 11
350.3127509545
 21
313.8101212389
 31
0.0
  0
LINE
  5
221
330
1F
100
AcDbEntity
  8
004_FINAL
100
AcDbLine
 10
350.3127509545
 20
311.4101212389
 30
0.0
 11
350.3127509545
 21
313.8101212389
 31
0.0
  0
LINE
  5
222
330
1F
100
AcDbEntity
  8
004_FINAL
100
AcDbLine
 10
349.1127509543
 20
309.6101212389
 30
0.0
 11
346.7127509544
 21
309.6101212389
 31
0.0
  0
LINE
  5
223
330
1F
100
AcDbEntity
  8
004_FINAL
100
AcDbLine
 10
349.1127509543
 20
309.6101212389
 30
0.0
 11
349.1127509543
 21
310.2101212389
 31
0.0
  0
LINE
  5
224
330
1F
100
AcDbEntity
  8
004_FINAL
100
AcDbLine
 10
349.1127509543
 20
310.2101212389
 30
0.0
 11
346.7127509544
 21
310.2101212389
 31
0.0
  0
LINE
  5
225
330
1F
100
AcDbEntity
  8
004_FINAL
100
AcDbLine
 10
346.7127509544
 20
309.6101212389
 30
0.0
 11
346.7127509544
 21
310.2101212389
 31
0.0
  0
LINE
  5
226
330
1F
100
AcDbEntity
  8
004_FINAL
100
AcDbLine
 10
287.1027509553
 20
311.4101212389
 30
0.0
 11
281.0127509553
 21
311.4101212389
 31
0.0
  0
LINE
  5
227
330
1F
100
AcDbEntity
  8
004_FINAL
100
AcDbLine
 10
281.0127509553
 20
309.9101212389
 30
0.0
 11
281.0127509553
 21
311.4101212389
 31
0.0
  0
LINE
  5
228
330
1F
100
AcDbEntity
  8
004_FINAL
100
AcDbLine
 10
281.0127509553
 20
309.9101212389
 30
0.0
 11
290.1027509551
 21
309.9101212389
 31
0.0
  0
LINE
  5
229
330
1F
100
AcDbEntity
  8
004_FINAL
100
AcDbLine
 10
287.1927509551
 20
306.9101212389
 30
0.0
 11
287.1027509553
 21
306.9101212389
 31
0.0
  0
LINE
  5
22A
330
1F
100
AcDbEntity
  8
004_FINAL
100
AcDbLine
 10
287.1027509553
 20
305.0201212389
 30
0.0
 11
288.6027509553
 21
305.0201212389
 31
0.0
  0
LINE
  5
22B
330
1F
100
AcDbEntity
  8
004_FINAL
100
AcDbLine
 10
290.3332859623
 20
306.7506562459
 30
0.0
 11
290.3332859623
 21
311.2550564854
 31
0.0
  0
LINE
  5
22C
330
1F
100
AcDbEntity
  8
004_FINAL
100
AcDbLine
 10
288.7691657385
 20
312.8191767092
 30
0.0
 11
288.7691657385
 21
315.8191767092
 31
0.0
  0
LINE
  5
22D
330
1F
100
AcDbEntity
  8
004_FINAL
100
AcDbLine
 10
291.2996743913
 20
318.349685362
 30
0.0
 11
293.4846343451
 21
316.1647254081
 31
0.0
  0
LINE
  5
22E
330
1F
100
AcDbEntity
  8
004_FINAL
100
AcDbLine
 10
295.7332339093
 20
318.4133249723
 30
0.0
 11
293.4846343451
 21
316.1647254081
 31
0.0
  0
LINE
  5
22F
330
1F
100
AcDbEntity
  8
004_FINAL
100
AcDbLine
 10
291.2996743913
 20
318.349685362
 30
0.0
 11
288.7691657385
 21
315.8191767092
 31
0.0
  0
LINE
  5
230
330
1F
100
AcDbEntity
  8
004_FINAL
100
AcDbLine
 10
288.7691657385
 20
312.8191767092
 30
0.0
 11
290.3332859623
 21
311.2550564854
 31
0.0
  0
LINE
  5
231
330
1F
100
AcDbEntity
  8
004_FINAL
100
AcDbLine
 10
290.3332859623
 20
306.7506562459
 30
0.0
 11
288.6027509553
 21
305.0201212389
 31
0.0
  0
LINE
  5
232
330
1F
100
AcDbEntity
  8
004_FINAL
100
AcDbLine
 10
287.1027509553
 20
305.0201212389
 30
0.0
 11
287.1027509553
 21
306.9101212389
 31
0.0
  0
LINE
  5
233
330
1F
100
AcDbEntity
  8
004_FINAL
100
AcDbLine
 10
290.1027509551
 20
306.9101212389
 30
0.0
 11
290.1027509551
 21
309.9101212389
 31
0.0
  0
LINE
  5
234
330
1F
100
AcDbEntity
  8
004_FINAL
100
AcDbLine
 10
287.1027509553
 20
311.4101212389
 30
0.0
 11
287.1027509553
 21
319.0169175055
 31
0.0
  0
LINE
  5
235
330
1F
100
AcDbEntity
  8
004_FINAL
100
AcDbLine
 10
295.9059546885
 20
319.0169175055
 30
0.0
 11
287.1027509553
 21
319.0169175055
 31
0.0
  0
LINE
  5
236
330
1F
100
AcDbEntity
  8
004_FINAL
100
AcDbLine
 10
295.9059546885
 20
319.0169175055
 30
0.0
 11
295.9059546885
 21
304.2283746306
 31
0.0
  0
LINE
  5
237
330
1F
100
AcDbEntity
  8
004_FINAL
100
AcDbLine
 10
295.9059546885
 20
304.2283746306
 30
0.0
 11
283.6944975634
 21
292.0169175055
 31
0.0
  0
LINE
  5
238
330
1F
100
AcDbEntity
  8
004_FINAL
100
AcDbLine
 10
283.6944975634
 20
292.0169175055
 30
0.0
 11
268.9059546885
 21
292.0169175055
 31
0.0
  0
LINE
  5
239
330
1F
100
AcDbEntity
  8
004_FINAL
100
AcDbLine
 10
268.9059546885
 20
292.0169175055
 30
0.0
 11
268.9059546885
 21
300.8201212391
 31
0.0
  0
LINE
  5
23A
330
1F
100
AcDbEntity
  8
004_FINAL
100
AcDbLine
 10
268.9059546885
 20
300.8201212391
 30
0.0
 11
276.5127509551
 21
300.8201212391
 31
0.0
  0
LINE
  5
23B
330
1F
100
AcDbEntity
  8
004_FINAL
100
AcDbLine
 10
276.5127509551
 20
300.8201212391
 30
0.0
 11
276.5127509551
 21
306.9101212389
 31
0.0
  0
LINE
  5
23C
330
1F
100
AcDbEntity
  8
004_FINAL
100
AcDbLine
 10
276.5127509551
 20
306.9101212389
 30
0.0
 11
278.0127509553
 21
306.9101212389
 31
0.0
  0
LINE
  5
23D
330
1F
100
AcDbEntity
  8
004_FINAL
100
AcDbLine
 10
278.0127509553
 20
306.9101212389
 30
0.0
 11
278.0127509553
 21
297.8201212391
 31
0.0
  0
LINE
  5
23E
330
1F
100
AcDbEntity
  8
004_FINAL
100
AcDbLine
 10
278.0127509553
 20
297.8201212391
 30
0.0
 11
281.0127509553
 21
297.8201212391
 31
0.0
  0
LINE
  5
23F
330
1F
100
AcDbEntity
  8
004_FINAL
100
AcDbLine
 10
281.0127509553
 20
300.7301212391
 30
0.0
 11
281.0127509553
 21
300.8201212391
 31
0.0
  0
LINE
  5
240
330
1F
100
AcDbEntity
  8
004_FINAL
100
AcDbLine
 10
281.0127509553
 20
300.8201212391
 30
0.0
 11
282.9027509553
 21
300.8201212391
 31
0.0
  0
LINE
  5
241
330
1F
100
AcDbEntity
  8
004_FINAL
100
AcDbLine
 10
282.9027509553
 20
300.8201212391
 30
0.0
 11
282.9027509553
 21
299.3201212391
 31
0.0
  0
LINE
  5
242
330
1F
100
AcDbEntity
  8
004_FINAL
100
AcDbLine
 10
282.9027509553
 20
299.3201212391
 30
0.0
 11
281.1722159481
 21
297.5895862319
 31
0.0
  0
LINE
  5
243
330
1F
100
AcDbEntity
  8
004_FINAL
100
AcDbLine
 10
281.1722159481
 20
297.5895862319
 30
0.0
 11
276.6678157088
 21
297.5895862319
 31
0.0
  0
LINE
  5
244
330
1F
100
AcDbEntity
  8
004_FINAL
100
AcDbLine
 10
276.6678157088
 20
297.5895862319
 30
0.0
 11
275.103695485
 21
299.1537064557
 31
0.0
  0
LINE
  5
245
330
1F
100
AcDbEntity
  8
004_FINAL
100
AcDbLine
 10
275.103695485
 20
299.1537064557
 30
0.0
 11
272.103695485
 21
299.1537064557
 31
0.0
  0
LINE
  5
246
330
1F
100
AcDbEntity
  8
004_FINAL
100
AcDbLine
 10
272.103695485
 20
299.1537064557
 30
0.0
 11
269.5731868322
 21
296.6231978029
 31
0.0
  0
LINE
  5
247
330
1F
100
AcDbEntity
  8
004_FINAL
100
AcDbLine
 10
269.5731868322
 20
296.6231978029
 30
0.0
 11
271.7581467861
 21
294.4382378491
 31
0.0
  0
LINE
  5
248
330
1F
100
AcDbEntity
  8
004_FINAL
100
AcDbLine
 10
271.7581467861
 20
294.4382378491
 30
0.0
 11
269.5066262589
 21
292.1867173218
 31
0.0
  0
LINE
  5
249
330
1F
100
AcDbEntity
  8
004_FINAL
100
AcDbLine
 10
269.5066262589
 20
292.1867173218
 30
0.0
 11
273.749266946
 21
292.1867173218
 31
0.0
  0
LINE
  5
24A
330
1F
100
AcDbEntity
  8
004_FINAL
100
AcDbLine
 10
273.749266946
 20
292.1867173218
 30
0.0
 11
273.8794671297
 21
292.3169175055
 31
0.0
  0
LINE
  5
24B
330
1F
100
AcDbEntity
  8
004_FINAL
100
AcDbLine
 10
273.8794671297
 20
292.3169175055
 30
0.0
 11
283.5702334949
 21
292.3169175055
 31
0.0
  0
LINE
  5
24C
330
1F
100
AcDbEntity
  8
004_FINAL
100
AcDbLine
 10
283.5702334949
 20
292.3169175055
 30
0.0
 11
295.6059546887
 21
304.3526386993
 31
0.0
  0
LINE
  5
24D
330
1F
100
AcDbEntity
  8
004_FINAL
100
AcDbLine
 10
295.6059546887
 20
304.3526386993
 30
0.0
 11
295.6059546887
 21
314.0434050646
 31
0.0
  0
LINE
  5
24E
330
1F
100
AcDbEntity
  8
004_FINAL
100
AcDbLine
 10
295.6059546887
 20
314.0434050646
 30
0.0
 11
295.7332339093
 21
314.1706842852
 31
0.0
  0
LINE
  5
24F
330
1F
100
AcDbEntity
  8
004_FINAL
100
AcDbLine
 10
295.7332339093
 20
314.1706842852
 30
0.0
 11
295.7332339093
 21
318.4133249723
 31
0.0
  0
LINE
  5
250
330
1F
100
AcDbEntity
  8
004_FINAL
100
AcDbLine
 10
293.1575500311
 20
312.2491690351
 30
0.0
 11
291.3633140016
 21
314.0434050646
 31
0.0
  0
LINE
  5
251
330
1F
100
AcDbEntity
  8
004_FINAL
100
AcDbLine
 10
291.1511819672
 20
313.8312730302
 30
0.0
 11
291.3633140016
 21
314.0434050646
 31
0.0
  0
LINE
  5
252
330
1F
100
AcDbEntity
  8
004_FINAL
100
AcDbLine
 10
291.1511819672
 20
313.8312730302
 30
0.0
 11
292.7332859624
 21
312.2491690351
 31
0.0
  0
LINE
  5
253
330
1F
100
AcDbEntity
  8
004_FINAL
100
AcDbLine
 10
292.7332859624
 20
306.1468747288
 30
0.0
 11
292.7332859624
 21
312.2491690351
 31
0.0
  0
LINE
  5
254
330
1F
100
AcDbEntity
  8
004_FINAL
100
AcDbLine
 10
292.7332859624
 20
306.1468747288
 30
0.0
 11
287.9052136683
 21
301.3188024347
 31
0.0
  0
LINE
  5
255
330
1F
100
AcDbEntity
  8
004_FINAL
100
AcDbLine
 10
287.9052136683
 20
301.3188024347
 30
0.0
 11
284.1027509553
 21
304.2321561479
 31
0.0
  0
LINE
  5
256
330
1F
100
AcDbEntity
  8
004_FINAL
100
AcDbLine
 10
284.1027509553
 20
304.2321561479
 30
0.0
 11
284.1027509553
 21
306.9101212389
 31
0.0
  0
LINE
  5
257
330
1F
100
AcDbEntity
  8
004_FINAL
100
AcDbLine
 10
284.1027509553
 20
306.9101212389
 30
0.0
 11
281.0127509553
 21
306.9101212389
 31
0.0
  0
LINE
  5
258
330
1F
100
AcDbEntity
  8
004_FINAL
100
AcDbLine
 10
281.0127509553
 20
306.9101212389
 30
0.0
 11
281.0127509553
 21
305.0201212391
 31
0.0
  0
LINE
  5
259
330
1F
100
AcDbEntity
  8
004_FINAL
100
AcDbLine
 10
281.0127509553
 20
305.0201212391
 30
0.0
 11
282.9027509552
 21
305.0201212391
 31
0.0
  0
LINE
  5
25A
330
1F
100
AcDbEntity
  8
004_FINAL
100
AcDbLine
 10
286.8230583075
 20
300.2366470739
 30
0.0
 11
282.9027509552
 21
305.0201212391
 31
0.0
  0
LINE
  5
25B
330
1F
100
AcDbEntity
  8
004_FINAL
100
AcDbLine
 10
281.7759974654
 20
295.1895862318
 30
0.0
 11
286.8230583075
 21
300.2366470739
 31
0.0
  0
LINE
  5
25C
330
1F
100
AcDbEntity
  8
004_FINAL
100
AcDbLine
 10
281.7759974654
 20
295.1895862318
 30
0.0
 11
275.6737031591
 21
295.1895862318
 31
0.0
  0
LINE
  5
25D
330
1F
100
AcDbEntity
  8
004_FINAL
100
AcDbLine
 10
275.6737031591
 20
295.1895862318
 30
0.0
 11
274.0279595537
 21
296.8353298373
 31
0.0
  0
LINE
  5
25E
330
1F
100
AcDbEntity
  8
004_FINAL
100
AcDbLine
 10
274.0279595537
 20
296.8353298373
 30
0.0
 11
273.8158275193
 21
296.6231978029
 31
0.0
  0
LINE
  5
25F
330
1F
100
AcDbEntity
  8
004_FINAL
100
AcDbLine
 10
273.8158275193
 20
296.6231978029
 30
0.0
 11
275.6737031591
 21
294.7653221632
 31
0.0
  0
LINE
  5
260
330
1F
100
AcDbEntity
  8
004_FINAL
100
AcDbLine
 10
275.6737031591
 20
294.7653221632
 30
0.0
 11
281.7759974654
 21
294.7653221632
 31
0.0
  0
LINE
  5
261
330
1F
100
AcDbEntity
  8
004_FINAL
100
AcDbLine
 10
281.7759974654
 20
294.7653221632
 30
0.0
 11
293.1575500311
 21
306.1468747288
 31
0.0
  0
LINE
  5
262
330
1F
100
AcDbEntity
  8
004_FINAL
100
AcDbLine
 10
293.1575500311
 20
312.2491690351
 30
0.0
 11
293.1575500311
 21
306.1468747288
 31
0.0
  0
LINE
  5
263
330
1F
100
AcDbEntity
  8
004_FINAL
100
AcDbLine
 10
264.4059546887
 20
323.5169175055
 30
0.0
 11
300.4059546887
 21
323.5169175055
 31
0.0
  0
LINE
  5
264
330
1F
100
AcDbEntity
  8
004_FINAL
100
AcDbLine
 10
336.7059546883
 20
323.5169175055
 30
0.0
 11
337.0059546879
 21
323.5169175055
 31
0.0
  0
LINE
  5
265
330
1F
100
AcDbEntity
  8
004_FINAL
100
AcDbLine
 10
264.4059546887
 20
287.5169175055
 30
0.0
 11
300.4059546887
 21
287.5169175055
 31
0.0
  0
LINE
  5
266
330
1F
100
AcDbEntity
  8
004_FINAL
100
AcDbLine
 10
264.4059546887
 20
332.5169175053
 30
0.0
 11
255.3326014466
 21
332.5169175053
 31
0.0
  0
LINE
  5
267
330
1F
100
AcDbEntity
  8
004_FINAL
100
AcDbLine
 10
278.3127509553
 20
311.4101212389
 30
0.0
 11
277.7127509553
 21
311.4101212389
 31
0.0
  0
LINE
  5
268
330
1F
100
AcDbEntity
  8
004_FINAL
100
AcDbLine
 10
278.3127509553
 20
311.4101212389
 30
0.0
 11
278.3127509553
 21
313.8101212389
 31
0.0
  0
LINE
  5
269
330
1F
100
AcDbEntity
  8
004_FINAL
100
AcDbLine
 10
278.3127509553
 20
313.8101212389
 30
0.0
 11
277.7127509553
 21
313.8101212389
 31
0.0
  0
LINE
  5
26A
330
1F
100
AcDbEntity
  8
004_FINAL
100
AcDbLine
 10
277.7127509553
 20
311.4101212389
 30
0.0
 11
277.7127509553
 21
313.8101212389
 31
0.0
  0
LINE
  5
26B
330
1F
100
AcDbEntity
  8
004_FINAL
100
AcDbLine
 10
276.5127509551
 20
309.6101212389
 30
0.0
 11
274.1127509552
 21
309.6101212389
 31
0.0
  0
LINE
  5
26C
330
1F
100
AcDbEntity
  8
004_FINAL
100
AcDbLine
 10
276.5127509551
 20
309.6101212389
 30
0.0
 11
276.5127509551
 21
310.2101212389
 31
0.0
  0
LINE
  5
26D
330
1F
100
AcDbEntity
  8
004_FINAL
100
AcDbLine
 10
276.5127509551
 20
310.2101212389
 30
0.0
 11
274.1127509552
 21
310.2101212389
 31
0.0
  0
LINE
  5
26E
330
1F
100
AcDbEntity
  8
004_FINAL
100
AcDbLine
 10
274.1127509552
 20
309.6101212389
 30
0.0
 11
274.1127509552
 21
310.2101212389
 31
0.0
  0
LINE
  5
26F
330
1F
100
AcDbEntity
  8
004_FINAL
100
AcDbLine
 10
255.3326014466
 20
368.5169175053
 30
0.0
 11
255.3326014466
 21
332.5169175053
 31
0.0
  0
LINE
  5
270
330
1F
100
AcDbEntity
  8
004_FINAL
100
AcDbLine
 10
264.4059546887
 20
323.5169175055
 30
0.0
 11
255.3326014466
 21
323.5169175055
 31
0.0
  0
LINE
  5
271
330
1F
100
AcDbEntity
  8
004_FINAL
100
AcDbLine
 10
337.0059546879
 20
287.5169175055
 30
0.0
 11
336.7059546883
 21
287.5169175055
 31
0.0
  0
LINE
  5
272
330
1F
100
AcDbEntity
  8
004_FINAL
100
AcDbLine
 10
264.4059546887
 20
287.5169175055
 30
0.0
 11
255.3326014466
 21
287.5169175055
 31
0.0
  0
LINE
  5
273
330
1F
100
AcDbEntity
  8
004_FINAL
100
AcDbLine
 10
255.3326014466
 20
323.5169175055
 30
0.0
 11
255.3326014466
 21
287.5169175055
 31
0.0
  0
LINE
  5
274
330
1F
100
AcDbEntity
  8
004_FINAL
100
AcDbLine
 10
373.0059546879
 20
368.5169175053
 30
0.0
 11
382.0521311247
 21
368.5169175053
 31
0.0
  0
LINE
  5
275
330
1F
100
AcDbEntity
  8
004_FINAL
100
AcDbLine
 10
300.7059546883
 20
287.5169175055
 30
0.0
 11
300.4059546887
 21
287.5169175055
 31
0.0
  0
LINE
  5
276
330
1F
100
AcDbEntity
  8
004_FINAL
100
AcDbLine
 10
373.0059546879
 20
332.5169175053
 30
0.0
 11
382.0521311247
 21
332.5169175053
 31
0.0
  0
LINE
  5
277
330
1F
100
AcDbEntity
  8
004_FINAL
100
AcDbLine
 10
382.0521311247
 20
368.5169175053
 30
0.0
 11
382.0521311247
 21
332.5169175053
 31
0.0
  0
LINE
  5
278
330
1F
100
AcDbEntity
  8
004_FINAL
100
AcDbLine
 10
373.0059546879
 20
323.5169175055
 30
0.0
 11
382.0521311246
 21
323.5169175055
 31
0.0
  0
LINE
  5
279
330
1F
100
AcDbEntity
  8
004_FINAL
100
AcDbLine
 10
373.0059546879
 20
287.5169175055
 30
0.0
 11
382.0521311246
 21
287.5169175055
 31
0.0
  0
LINE
  5
27A
330
1F
100
AcDbEntity
  8
004_FINAL
100
AcDbLine
 10
382.0521311246
 20
323.5169175055
 30
0.0
 11
382.0521311246
 21
287.5169175055
 31
0.0
  0
ARC
  5
27B
330
1F
100
AcDbEntity
  8
004_FINAL
100
AcDbCircle
 10
524.90507005
 20
461.2238860618
 30
0.0
 40
1.506326844123856
100
AcDbArc
 50
285.000000231
 51
74.999999769
  0
ARC
  5
27C
330
1F
100
AcDbEntity
  8
004_FINAL
100
AcDbCircle
 10
532.9299361313
 20
469.2487521367
 30
0.0
 40
1.506326842502016
100
AcDbArc
 50
195.0000000009
 51
344.9999999992
  0
CIRCLE
  5
27D
330
1F
100
AcDbEntity
  8
004_FINAL
100
AcDbCircle
 10
532.9299361313
 20
469.2487521367
 30
0.0
 40
0.224999999985114
  0
CIRCLE
  5
27E
330
1F
100
AcDbEntity
  8
004_FINAL
100
AcDbCircle
 10
524.90507005
 20
461.2238860618
 30
0.0
 40
0.2250000030794124
  0
ARC
  5
27F
330
1F
100
AcDbEntity
  8
004_FINAL
100
AcDbCircle
 10
280.622884874
 20
344.2751212389
 30
0.0
 40
1.506326844123856
100
AcDbArc
 50
285.000000231
 51
74.999999769
  0
ARC
  5
280
330
1F
100
AcDbEntity
  8
004_FINAL
100
AcDbCircle
 10
288.6477509551
 20
352.2999873138
 30
0.0
 40
1.506326842501875
100
AcDbArc
 50
195.0000000009
 51
344.9999999992
  0
CIRCLE
  5
281
330
1F
100
AcDbEntity
  8
004_FINAL
100
AcDbCircle
 10
288.6477509551
 20
352.2999873138
 30
0.0
 40
0.2250000001604179
  0
CIRCLE
  5
282
330
1F
100
AcDbEntity
  8
004_FINAL
100
AcDbCircle
 10
280.622884874
 20
344.2751212389
 30
0.0
 40
0.2250000030794124
  0
ARC
  5
283
330
1F
100
AcDbEntity
  8
004_FINAL
100
AcDbCircle
 10
316.9228848736
 20
344.2751212389
 30
0.0
 40
1.506326844123826
100
AcDbArc
 50
285.000000231
 51
74.999999769
  0
ARC
  5
284
330
1F
100
AcDbEntity
  8
004_FINAL
100
AcDbCircle
 10
324.9477509547
 20
352.2999873138
 30
0.0
 40
1.506326842501875
100
AcDbArc
 50
195.0000000009
 51
344.9999999992
  0
CIRCLE
  5
285
330
1F
100
AcDbEntity
  8
004_FINAL
100
AcDbCircle
 10
324.9477509547
 20
352.2999873138
 30
0.0
 40
0.2250000005387066
  0
CIRCLE
  5
286
330
1F
100
AcDbEntity
  8
004_FINAL
100
AcDbCircle
 10
316.9228848736
 20
344.2751212389
 30
0.0
 40
0.2250000034576633
  0
ARC
  5
287
330
1F
100
AcDbEntity
  8
004_FINAL
100
AcDbCircle
 10
353.2228848732
 20
344.2751212389
 30
0.0
 40
1.506326844123841
100
AcDbArc
 50
285.000000231
 51
74.999999769
  0
ARC
  5
288
330
1F
100
AcDbEntity
  8
004_FINAL
100
AcDbCircle
 10
361.2477509543
 20
352.2999873138
 30
0.0
 40
1.506326842501875
100
AcDbArc
 50
195.0000000009
 51
344.9999999992
  0
CIRCLE
  5
289
330
1F
100
AcDbEntity
  8
004_FINAL
100
AcDbCircle
 10
361.2477509543
 20
352.2999873138
 30
0.0
 40
0.2250000009134075
  0
CIRCLE
  5
28A
330
1F
100
AcDbEntity
  8
004_FINAL
100
AcDbCircle
 10
353.2228848732
 20
344.2751212389
 30
0.0
 40
0.2250000038323643
  0
ARC
  5
28B
330
1F
100
AcDbEntity
  8
004_FINAL
100
AcDbCircle
 10
316.9228848736
 20
299.2751212391
 30
0.0
 40
1.506326844123841
100
AcDbArc
 50
285.000000231
 51
74.999999769
  0
ARC
  5
28C
330
1F
100
AcDbEntity
  8
004_FINAL
100
AcDbCircle
 10
324.9477509547
 20
307.2999873139
 30
0.0
 40
1.506326842501915
100
AcDbArc
 50
195.0000000009
 51
344.9999999992
  0
CIRCLE
  5
28D
330
1F
100
AcDbEntity
  8
004_FINAL
100
AcDbCircle
 10
324.9477509547
 20
307.2999873139
 30
0.0
 40
0.225000000499518
  0
CIRCLE
  5
28E
330
1F
100
AcDbEntity
  8
004_FINAL
100
AcDbCircle
 10
316.9228848736
 20
299.2751212391
 30
0.0
 40
0.2250000034185291
  0
ARC
  5
28F
330
1F
100
AcDbEntity
  8
004_FINAL
100
AcDbCircle
 10
353.2228848732
 20
299.2751212391
 30
0.0
 40
1.506326844123826
100
AcDbArc
 50
285.000000231
 51
74.999999769
  0
ARC
  5
290
330
1F
100
AcDbEntity
  8
004_FINAL
100
AcDbCircle
 10
361.2477509544
 20
307.2999873139
 30
0.0
 40
1.506326842501836
100
AcDbArc
 50
195.0000000009
 51
344.9999999992
  0
CIRCLE
  5
291
330
1F
100
AcDbEntity
  8
004_FINAL
100
AcDbCircle
 10
361.2477509544
 20
307.2999873139
 30
0.0
 40
0.2250000008741646
  0
CIRCLE
  5
292
330
1F
100
AcDbEntity
  8
004_FINAL
100
AcDbCircle
 10
353.2228848732
 20
299.2751212391
 30
0.0
 40
0.2250000037931757
  0
ARC
  5
293
330
1F
100
AcDbEntity
  8
004_FINAL
100
AcDbCircle
 10
280.622884874
 20
299.2751212391
 30
0.0
 40
1.506326844125803
100
AcDbArc
 50
285.000000231
 51
74.9999997691
  0
ARC
  5
294
330
1F
100
AcDbEntity
  8
004_FINAL
100
AcDbCircle
 10
288.6477509551
 20
307.2999873139
 30
0.0
 40
1.506326842501836
100
AcDbArc
 50
195.0000000009
 51
344.9999999992
  0
CIRCLE
  5
295
330
1F
100
AcDbEntity
  8
004_FINAL
100
AcDbCircle
 10
288.6477509551
 20
307.2999873139
 30
0.0
 40
0.2250000001212293
  0
CIRCLE
  5
296
330
1F
100
AcDbEntity
  8
004_FINAL
100
AcDbCircle
 10
280.622884874
 20
299.2751212391
 30
0.0
 40
0.2250000030407844
  0
DIMENSION
  5
297
330
1F
100
AcDbEntity
  8
0
  6
Continuous
 62
     7
370
    18
100
AcDbDimension
280
     0
  2
_D
 10
199.9475977962
 20
530.2941302061
 30
0.0
 11
199.9475977962
 21
530.2941302061
 31
0.0
 70
   160
  1
<>
 71
     1
 42
-1.0
 73
     0
 74
     0
 75
     0
  3
SLDDIMSTYLE0
100
AcDbAlignedDimension
 13
186.4475977962
 23
530.2941302061
 33
0.0
 14
213.4475977962
 24
530.2941302061
 34
0.0
 50
90.0
100
AcDbRotatedDimension
  0
MTEXT
  5
2A2
330
1F
100
AcDbEntity
  8
0
  6
Continuous
 62
     7
100
AcDbMText
 10
0.0
 20
14.3305089537
 30
0.0
 40
5.1381
 41
0.0
 46
0.0
 71
     1
 72
     1
  1
SOLIDWORKS Educational Product.
  7
SLDTEXTSTYLE1
 73
     1
 44
1.0
  0
MTEXT
  5
2A3
330
1F
100
AcDbEntity
  8
0
  6
Continuous
 62
     7
100
AcDbMText
 10
0.0
 20
6.6233589537
 30
0.0
 40
5.1381
 41
0.0
 46
0.0
 71
     1
 72
     1
  1
For Instructional Use Only.
  7
SLDTEXTSTYLE1
 73
     1
 44
1.0
  0
ENDSEC
  0
SECTION
  2
OBJECTS
  0
DICTIONARY
  5
C
330
0
100
AcDbDictionary
281
     1
  3
ACAD_DETAILVIEWSTYLE
350
2AB
  3
ACAD_GROUP
350
D
  3
ACAD_LAYOUT
350
1A
  3
ACAD_MATERIAL
350
43
  3
ACAD_MLEADERSTYLE
350
6B
  3
ACAD_MLINESTYLE
350
17
  3
ACAD_PLOTSETTINGS
350
19
  3
ACAD_PLOTSTYLENAME
350
E
  3
ACAD_SCALELIST
350
47
  3
ACAD_SECTIONVIEWSTYLE
350
2AC
  3
ACAD_TABLESTYLE
350
69
  3
ACAD_VISUALSTYLE
350
2A
  3
ACDB_RECOMPOSE_DATA
350
2A8
  3
AcDbVariableDictionary
350
2A4
  0
SUN
  5
6D
330
29
100
AcDbSun
 90
        1
290
     0
 63
     7
421
 16777215
 40
1.0
291
     1
 91
  2455826
 92
 54000000
292
     0
 70
     2
 71
   256
280
     1
  0
DICTIONARY
  5
2AB
102
{ACAD_REACTORS
330
C
102
}
330
C
100
AcDbDictionary
281
     1
  0
DICTIONARY
  5
D
102
{ACAD_REACTORS
330
C
102
}
330
C
100
AcDbDictionary
281
     1
  0
DICTIONARY
  5
1A
102
{ACAD_REACTORS
330
C
102
}
330
C
100
AcDbDictionary
281
     1
  3
Layout1
350
1E
  3
Layout2
350
26
  3
Model
350
22
  0
DICTIONARY
  5
43
102
{ACAD_REACTORS
330
C
102
}
330
C
100
AcDbDictionary
281
     1
  3
ByBlock
350
45
  3
ByLayer
350
44
  3
Global
350
46
  0
DICTIONARY
  5
6B
102
{ACAD_REACTORS
330
C
102
}
330
C
100
AcDbDictionary
281
     1
  3
Standard
350
6C
  0
DICTIONARY
  5
17
102
{ACAD_REACTORS
330
C
102
}
330
C
100
AcDbDictionary
281
     1
  3
Standard
350
18
  0
DICTIONARY
  5
19
102
{ACAD_REACTORS
330
C
102
}
330
C
100
AcDbDictionary
281
     1
  0
ACDBDICTIONARYWDFLT
  5
E
102
{ACAD_REACTORS
330
C
102
}
330
C
100
AcDbDictionary
281
     1
  3
Normal
350
F
100
AcDbDictionaryWithDefault
340
F
  0
DICTIONARY
  5
47
102
{ACAD_REACTORS
330
C
102
}
330
C
100
AcDbDictionary
281
     1
  3
A0
350
48
  3
A1
350
49
  3
A2
350
4A
  3
A3
350
4B
  3
A4
350
4C
  3
A5
350
4D
  3
A6
350
4E
  3
A7
350
4F
  3
A8
350
50
  3
A9
350
51
  3
B0
350
52
  3
B1
350
53
  3
B2
350
54
  3
B3
350
55
  3
B4
350
56
  3
B5
350
57
  3
B6
350
58
  3
B7
350
59
  3
B8
350
5A
  3
B9
350
5B
  3
C0
350
5C
  3
C1
350
5D
  3
C2
350
5E
  3
C3
350
5F
  3
C4
350
60
  3
C5
350
61
  3
C6
350
62
  3
C7
350
63
  3
C8
350
64
  3
C9
350
65
  3
D0
350
66
  3
D1
350
67
  3
D2
350
68
  0
DICTIONARY
  5
2AC
102
{ACAD_REACTORS
330
C
102
}
330
C
100
AcDbDictionary
281
     1
  0
DICTIONARY
  5
69
102
{ACAD_REACTORS
330
C
102
}
330
C
100
AcDbDictionary
281
     1
  3
Standard
350
6A
  0
DICTIONARY
  5
2A
102
{ACAD_REACTORS
330
C
102
}
330
C
100
AcDbDictionary
281
     1
  3
2dWireframe
350
2F
  3
Basic
350
32
  3
Brighten
350
36
  3
ColorChange
350
3A
  3
Conceptual
350
34
  3
Dim
350
35
  3
EdgeColorOff
350
3D
  3
Facepattern
350
39
  3
Flat
350
2B
  3
FlatWithEdges
350
2C
  3
Gouraud
350
2D
  3
GouraudWithEdges
350
2E
  3
Hidden
350
31
  3
JitterOff
350
3B
  3
Linepattern
350
38
  3
OverhangOff
350
3C
  3
Realistic
350
33
  3
Shaded
350
42
  3
Shaded with edges
350
41
  3
Shades of Gray
350
3E
  3
Sketchy
350
3F
  3
Thicken
350
37
  3
Wireframe
350
30
  3
X-Ray
350
40
  0
XRECORD
  5
2A8
102
{ACAD_REACTORS
330
C
102
}
330
C
100
AcDbXrecord
280
     1
 90
        1
330
6A
  0
DICTIONARY
  5
2A4
102
{ACAD_REACTORS
330
C
102
}
330
C
100
AcDbDictionary
281
     1
  3
CANNOSCALE
350
2A5
  3
CENTEREXE
350
2AD
  3
CENTERLTYPEFILE
350
2AE
  3
CMLEADERSTYLE
350
2AA
  3
CTABLESTYLE
350
2A9
  0
LAYOUT
  5
1E
102
{ACAD_REACTORS
330
1A
102
}
330
1A
100
AcDbPlotSettings
  1

  2
none_device
  4

  6

 40
0.0
 41
0.0
 42
0.0
 43
0.0
 44
0.0
 45
0.0
 46
0.0
 47
0.0
 48
0.0
 49
0.0
140
0.0
141
0.0
142
1.0
143
1.0
 70
   688
 72
     1
 73
     0
 74
     5
  7

 75
    16
 76
     0
 77
     2
 78
   300
147
1.0
148
0.0
149
0.0
100
AcDbLayout
  1
Layout1
 70
     1
 71
     1
 10
0.0
 20
0.0
 11
420.0
 21
297.0
 12
0.0
 22
0.0
 32
0.0
 14
1.0000000000E+20
 24
1.0000000000E+20
 34
1.0000000000E+20
 15
-1.0000000000E+20
 25
-1.0000000000E+20
 35
-1.0000000000E+20
146
0.0
 13
0.0
 23
0.0
 33
0.0
 16
1.0
 26
0.0
 36
0.0
 17
0.0
 27
1.0
 37
0.0
 76
     0
330
1B
  0
LAYOUT
  5
26
102
{ACAD_REACTORS
330
1A
102
}
330
1A
100
AcDbPlotSettings
  1

  2
none_device
  4

  6

 40
0.0
 41
0.0
 42
0.0
 43
0.0
 44
0.0
 45
0.0
 46
0.0
 47
0.0
 48
0.0
 49
0.0
140
0.0
141
0.0
142
1.0
143
1.0
 70
   688
 72
     1
 73
     0
 74
     5
  7

 75
    16
 76
     0
 77
     2
 78
   300
147
1.0
148
0.0
149
0.0
100
AcDbLayout
  1
Layout2
 70
     1
 71
     2
 10
0.0
 20
0.0
 11
0.0
 21
0.0
 12
0.0
 22
0.0
 32
0.0
 14
0.0
 24
0.0
 34
0.0
 15
0.0
 25
0.0
 35
0.0
146
0.0
 13
0.0
 23
0.0
 33
0.0
 16
1.0
 26
0.0
 36
0.0
 17
0.0
 27
1.0
 37
0.0
 76
     0
330
23
  0
LAYOUT
  5
22
102
{ACAD_REACTORS
330
1A
102
}
330
1A
100
AcDbPlotSettings
  1

  2
none_device
  4
Letter_(8.50_x_11.00_Inches)
  6

 40
6.35
 41
6.35
 42
6.35000508
 43
6.35000508
 44
215.9
 45
279.4
 46
0.0
 47
0.0
 48
0.0
 49
0.0
140
0.0
141
0.0
142
1.0
143
1.0
 70
  1712
 72
     1
 73
     0
 74
     0
  7

 75
     0
 76
     0
 77
     2
 78
   300
147
1.0
148
0.0
149
0.0
100
AcDbLayout
  1
Model
 70
     1
 71
     0
 10
0.0
 20
0.0
 11
400.0
 21
297.0
 12
0.0
 22
0.0
 32
0.0
 14
0.0
 24
0.0
 34
0.0
 15
400.0
 25
297.0
 35
0.0
146
0.0
 13
0.0
 23
0.0
 33
0.0
 16
1.0
 26
0.0
 36
0.0
 17
0.0
 27
1.0
 37
0.0
 76
     0
330
1F
331
29
  0
MATERIAL
  5
45
102
{ACAD_REACTORS
330
43
102
}
330
43
100
AcDbMaterial
  1
ByBlock
 72
     1
 94
      127
  0
MATERIAL
  5
44
102
{ACAD_REACTORS
330
43
102
}
330
43
100
AcDbMaterial
  1
ByLayer
 72
     1
 94
      127
  0
MATERIAL
  5
46
102
{ACAD_REACTORS
330
43
102
}
330
43
100
AcDbMaterial
  1
Global
 72
     1
 94
      127
  0
MLEADERSTYLE
  5
6C
102
{ACAD_REACTORS
330
6B
102
}
330
6B
100
AcDbMLeaderStyle
179
     2
170
     2
171
     1
172
     0
 90
        2
 40
0.0
 41
0.0
173
     1
 91
-1056964608
340
14
 92
       -2
290
     1
 42
2.0
291
     1
 43
8.0
  3
Standard
341
0
 44
4.0
300

342
11
174
     1
178
     6
175
     1
176
     0
 93
-1056964608
 45
4.0
292
     0
297
     0
 46
4.0
343
0
 94
-1056964608
 47
1.0
 49
1.0
140
1.0
293
     1
141
0.0
294
     1
177
     0
142
1.0
295
     0
296
     0
143
3.75
271
     0
272
     9
273
     9
  0
MLINESTYLE
  5
18
102
{ACAD_REACTORS
330
17
102
}
330
17
100
AcDbMlineStyle
  2
Standard
 70
     0
  3

 62
   256
 51
90.0
 52
90.0
 71
     2
 49
0.5
 62
   256
  6
BYLAYER
 49
-0.5
 62
   256
  6
BYLAYER
  0
ACDBPLACEHOLDER
  5
F
102
{ACAD_REACTORS
330
E
102
}
330
E
  0
SCALE
  5
48
102
{ACAD_REACTORS
330
47
102
}
330
47
100
AcDbScale
 70
     0
300
1:1
140
1.0
141
1.0
290
     1
  0
SCALE
  5
49
102
{ACAD_REACTORS
330
47
102
}
330
47
100
AcDbScale
 70
     0
300
1:2
140
1.0
141
2.0
290
     0
  0
SCALE
  5
4A
102
{ACAD_REACTORS
330
47
102
}
330
47
100
AcDbScale
 70
     0
300
1:4
140
1.0
141
4.0
290
     0
  0
SCALE
  5
4B
102
{ACAD_REACTORS
330
47
102
}
330
47
100
AcDbScale
 70
     0
300
1:5
140
1.0
141
5.0
290
     0
  0
SCALE
  5
4C
102
{ACAD_REACTORS
330
47
102
}
330
47
100
AcDbScale
 70
     0
300
1:8
140
1.0
141
8.0
290
     0
  0
SCALE
  5
4D
102
{ACAD_REACTORS
330
47
102
}
330
47
100
AcDbScale
 70
     0
300
1:10
140
1.0
141
10.0
290
     0
  0
SCALE
  5
4E
102
{ACAD_REACTORS
330
47
102
}
330
47
100
AcDbScale
 70
     0
300
1:16
140
1.0
141
16.0
290
     0
  0
SCALE
  5
4F
102
{ACAD_REACTORS
330
47
102
}
330
47
100
AcDbScale
 70
     0
300
1:20
140
1.0
141
20.0
290
     0
  0
SCALE
  5
50
102
{ACAD_REACTORS
330
47
102
}
330
47
100
AcDbScale
 70
     0
300
1:30
140
1.0
141
30.0
290
     0
  0
SCALE
  5
51
102
{ACAD_REACTORS
330
47
102
}
330
47
100
AcDbScale
 70
     0
300
1:40
140
1.0
141
40.0
290
     0
  0
SCALE
  5
52
102
{ACAD_REACTORS
330
47
102
}
330
47
100
AcDbScale
 70
     0
300
1:50
140
1.0
141
50.0
290
     0
  0
SCALE
  5
53
102
{ACAD_REACTORS
330
47
102
}
330
47
100
AcDbScale
 70
     0
300
1:100
140
1.0
141
100.0
290
     0
  0
SCALE
  5
54
102
{ACAD_REACTORS
330
47
102
}
330
47
100
AcDbScale
 70
     0
300
2:1
140
2.0
141
1.0
290
     0
  0
SCALE
  5
55
102
{ACAD_REACTORS
330
47
102
}
330
47
100
AcDbScale
 70
     0
300
4:1
140
4.0
141
1.0
290
     0
  0
SCALE
  5
56
102
{ACAD_REACTORS
330
47
102
}
330
47
100
AcDbScale
 70
     0
300
8:1
140
8.0
141
1.0
290
     0
  0
SCALE
  5
57
102
{ACAD_REACTORS
330
47
102
}
330
47
100
AcDbScale
 70
     0
300
10:1
140
10.0
141
1.0
290
     0
  0
SCALE
  5
58
102
{ACAD_REACTORS
330
47
102
}
330
47
100
AcDbScale
 70
     0
300
100:1
140
100.0
141
1.0
290
     0
  0
SCALE
  5
59
102
{ACAD_REACTORS
330
47
102
}
330
47
100
AcDbScale
 70
     0
300
1/128" = 1'-0"
140
0.0078125
141
12.0
290
     0
  0
SCALE
  5
5A
102
{ACAD_REACTORS
330
47
102
}
330
47
100
AcDbScale
 70
     0
300
1/64" = 1'-0"
140
0.015625
141
12.0
290
     0
  0
SCALE
  5
5B
102
{ACAD_REACTORS
330
47
102
}
330
47
100
AcDbScale
 70
     0
300
1/32" = 1'-0"
140
0.03125
141
12.0
290
     0
  0
SCALE
  5
5C
102
{ACAD_REACTORS
330
47
102
}
330
47
100
AcDbScale
 70
     0
300
1/16" = 1'-0"
140
0.0625
141
12.0
290
     0
  0
SCALE
  5
5D
102
{ACAD_REACTORS
330
47
102
}
330
47
100
AcDbScale
 70
     0
300
3/32" = 1'-0"
140
0.09375
141
12.0
290
     0
  0
SCALE
  5
5E
102
{ACAD_REACTORS
330
47
102
}
330
47
100
AcDbScale
 70
     0
300
1/8" = 1'-0"
140
0.125
141
12.0
290
     0
  0
SCALE
  5
5F
102
{ACAD_REACTORS
330
47
102
}
330
47
100
AcDbScale
 70
     0
300
3/16" = 1'-0"
140
0.1875
141
12.0
290
     0
  0
SCALE
  5
60
102
{ACAD_REACTORS
330
47
102
}
330
47
100
AcDbScale
 70
     0
300
1/4" = 1'-0"
140
0.25
141
12.0
290
     0
  0
SCALE
  5
61
102
{ACAD_REACTORS
330
47
102
}
330
47
100
AcDbScale
 70
     0
300
3/8" = 1'-0"
140
0.375
141
12.0
290
     0
  0
SCALE
  5
62
102
{ACAD_REACTORS
330
47
102
}
330
47
100
AcDbScale
 70
     0
300
1/2" = 1'-0"
140
0.5
141
12.0
290
     0
  0
SCALE
  5
63
102
{ACAD_REACTORS
330
47
102
}
330
47
100
AcDbScale
 70
     0
300
3/4" = 1'-0"
140
0.75
141
12.0
290
     0
  0
SCALE
  5
64
102
{ACAD_REACTORS
330
47
102
}
330
47
100
AcDbScale
 70
     0
300
1" = 1'-0"
140
1.0
141
12.0
290
     0
  0
SCALE
  5
65
102
{ACAD_REACTORS
330
47
102
}
330
47
100
AcDbScale
 70
     0
300
1-1/2" = 1'-0"
140
1.5
141
12.0
290
     0
  0
SCALE
  5
66
102
{ACAD_REACTORS
330
47
102
}
330
47
100
AcDbScale
 70
     0
300
3" = 1'-0"
140
3.0
141
12.0
290
     0
  0
SCALE
  5
67
102
{ACAD_REACTORS
330
47
102
}
330
47
100
AcDbScale
 70
     0
300
6" = 1'-0"
140
6.0
141
12.0
290
     0
  0
SCALE
  5
68
102
{ACAD_REACTORS
330
47
102
}
330
47
100
AcDbScale
 70
     0
300
1'-0" = 1'-0"
140
12.0
141
12.0
290
     0
  0
TABLESTYLE
  5
6A
102
{ACAD_REACTORS
330
69
102
}
102
{ACAD_XDICTIONARY
360
2A6
102
}
330
69
100
AcDbTableStyle
  3
Standard
 70
     0
 71
     0
 40
0.06
 41
0.06
280
     0
281
     0
  7
Standard
140
4.5
170
     2
 62
     0
 63
   257
283
     0
 90
        4
 91
        0
  1

274
    -2
284
     1
 64
     0
275
    -2
285
     1
 65
     0
276
    -2
286
     1
 66
     0
277
    -2
287
     1
 67
     0
278
    -2
288
     1
 68
     0
279
    -2
289
     1
 69
     0
  7
Standard
140
6.0
170
     5
 62
     0
 63
   257
283
     0
 90
        4
 91
        0
  1

274
    -2
284
     1
 64
     0
275
    -2
285
     1
 65
     0
276
    -2
286
     1
 66
     0
277
    -2
287
     1
 67
     0
278
    -2
288
     1
 68
     0
279
    -2
289
     1
 69
     0
  7
Standard
140
4.5
170
     5
 62
     0
 63
   257
283
     0
 90
        4
 91
        0
  1

274
    -2
284
     1
 64
     0
275
    -2
285
     1
 65
     0
276
    -2
286
     1
 66
     0
277
    -2
287
     1
 67
     0
278
    -2
288
     1
 68
     0
279
    -2
289
     1
 69
     0
  0
VISUALSTYLE
  5
2F
102
{ACAD_REACTORS
330
2A
102
}
330
2A
100
AcDbVisualStyle
  2
2dWireframe
 70
     4
177
     2
291
     0
 71
     0
176
     1
 72
     2
176
     1
 73
     0
176
     1
 90
        0
176
     1
 40
0.6
176
     1
 41
30.0
176
     1
 62
     5
 63
     7
421
 16777215
176
     1
 74
     1
176
     1
 91
        4
176
     1
 64
     7
176
     1
 65
   257
176
     1
 75
     1
176
     1
175
     1
176
     1
 42
1.0
176
     1
 92
        0
176
     1
 66
   257
176
     1
 43
1.0
176
     1
 76
     1
176
     1
 77
     6
176
     1
 78
     2
176
     1
 67
     7
176
     1
 79
     5
176
     1
170
     0
176
     1
171
     0
176
     1
290
     0
176
     1
 93
        1
176
     1
 44
0.0
176
     1
173
     0
176
     1
  0
VISUALSTYLE
  5
32
102
{ACAD_REACTORS
330
2A
102
}
330
2A
100
AcDbVisualStyle
  2
Basic
 70
     7
177
     2
291
     1
 71
     1
176
     1
 72
     0
176
     1
 73
     1
176
     1
 90
        0
176
     1
 40
0.6
176
     1
 41
30.0
176
     1
 62
     5
 63
     7
421
 16777215
176
     1
 74
     0
176
     1
 91
        4
176
     1
 64
     7
176
     1
 65
   257
176
     1
 75
     1
176
     1
175
     1
176
     1
 42
1.0
176
     1
 92
        8
176
     1
 66
     7
176
     1
 43
1.0
176
     1
 76
     1
176
     1
 77
     6
176
     1
 78
     2
176
     1
 67
     7
176
     1
 79
     5
176
     1
170
     0
176
     1
171
     0
176
     1
290
     0
176
     1
 93
        1
176
     1
 44
0.0
176
     1
173
     0
176
     1
  0
VISUALSTYLE
  5
36
102
{ACAD_REACTORS
330
2A
102
}
330
2A
100
AcDbVisualStyle
  2
Brighten
 70
    12
177
     2
291
     1
 71
     2
176
     1
 72
     2
176
     1
 73
     0
176
     1
 90
        0
176
     1
 40
0.6
176
     1
 41
30.0
176
     1
 62
     5
 63
     7
421
 16777215
176
     1
 74
     1
176
     1
 91
        4
176
     1
 64
     7
176
     1
 65
   257
176
     1
 75
     1
176
     1
175
     1
176
     1
 42
1.0
176
     1
 92
        8
176
     1
 66
     7
176
     1
 43
1.0
176
     1
 76
     1
176
     1
 77
     6
176
     1
 78
     2
176
     1
 67
     7
176
     1
 79
     5
176
     1
170
     0
176
     1
171
     0
176
     1
290
     0
176
     1
 93
        1
176
     1
 44
50.0
176
     1
173
     0
176
     1
  0
VISUALSTYLE
  5
3A
102
{ACAD_REACTORS
330
2A
102
}
330
2A
100
AcDbVisualStyle
  2
ColorChange
 70
    16
177
     2
291
     1
 71
     2
176
     1
 72
     2
176
     1
 73
     3
176
     1
 90
        0
176
     1
 40
0.6
176
     1
 41
30.0
176
     1
 62
     5
 63
     8
421
  8421504
176
     1
 74
     1
176
     1
 91
        4
176
     1
 64
     7
176
     1
 65
   257
176
     1
 75
     1
176
     1
175
     1
176
     1
 42
1.0
176
     1
 92
        8
176
     1
 66
     8
424
  8421504
176
     1
 43
1.0
176
     1
 76
     1
176
     1
 77
     6
176
     1
 78
     2
176
     1
 67
     7
176
     1
 79
     5
176
     1
170
     0
176
     1
171
     0
176
     1
290
     0
176
     1
 93
        1
176
     1
 44
0.0
176
     1
173
     0
176
     1
  0
VISUALSTYLE
  5
34
102
{ACAD_REACTORS
330
2A
102
}
330
2A
100
AcDbVisualStyle
  2
Conceptual
 70
     9
177
     2
291
     0
 71
     3
176
     1
 72
     2
176
     1
 73
     0
176
     1
 90
        0
176
     1
 40
0.6
176
     1
 41
30.0
176
     1
 62
     5
 63
     7
421
 16777215
176
     1
 74
     2
176
     1
 91
        2
176
     1
 64
     7
176
     1
 65
   257
176
     1
 75
     1
176
     1
175
     1
176
     1
 42
179.0
176
     1
 92
        8
176
     1
 66
     7
176
     1
 43
1.0
176
     1
 76
     1
176
     1
 77
     6
176
     1
 78
     2
176
     1
 67
     7
176
     1
 79
     3
176
     1
170
     0
176
     1
171
     0
176
     1
290
     0
176
     1
 93
        1
176
     1
 44
0.0
176
     1
173
     0
176
     1
  0
VISUALSTYLE
  5
35
102
{ACAD_REACTORS
330
2A
102
}
330
2A
100
AcDbVisualStyle
  2
Dim
 70
    11
177
     2
291
     1
 71
     2
176
     1
 72
     2
176
     1
 73
     0
176
     1
 90
        0
176
     1
 40
0.6
176
     1
 41
30.0
176
     1
 62
     5
 63
     7
421
 16777215
176
     1
 74
     1
176
     1
 91
        4
176
     1
 64
     7
176
     1
 65
   257
176
     1
 75
     1
176
     1
175
     1
176
     1
 42
1.0
176
     1
 92
        8
176
     1
 66
     7
176
     1
 43
1.0
176
     1
 76
     1
176
     1
 77
     6
176
     1
 78
     2
176
     1
 67
     7
176
     1
 79
     5
176
     1
170
     0
176
     1
171
     0
176
     1
290
     0
176
     1
 93
        1
176
     1
 44
-50.0
176
     1
173
     0
176
     1
  0
VISUALSTYLE
  5
3D
102
{ACAD_REACTORS
330
2A
102
}
330
2A
100
AcDbVisualStyle
  2
EdgeColorOff
 70
    22
177
     2
291
     1
 71
     2
176
     0
 72
     2
176
     0
 73
     0
176
     0
 90
        0
176
     0
 40
0.6
176
     0
 41
30.0
176
     0
 62
     5
 63
     7
421
 16777215
176
     0
 74
     1
176
     0
 91
        4
176
     0
 64
     7
176
     0
 65
   257
176
     0
 75
     1
176
     0
175
     1
176
     0
 42
1.0
176
     0
 92
        8
176
     2
 66
     7
176
     0
 43
1.0
176
     0
 76
     1
176
     0
 77
     6
176
     0
 78
     2
176
     0
 67
     7
176
     0
 79
     5
176
     0
170
     0
176
     0
171
     0
176
     0
290
     0
176
     0
 93
        1
176
     0
 44
0.0
176
     0
173
     0
176
     0
  0
VISUALSTYLE
  5
39
102
{ACAD_REACTORS
330
2A
102
}
330
2A
100
AcDbVisualStyle
  2
Facepattern
 70
    15
177
     2
291
     1
 71
     2
176
     1
 72
     2
176
     1
 73
     0
176
     1
 90
        0
176
     1
 40
0.6
176
     1
 41
30.0
176
     1
 62
     5
 63
     7
421
 16777215
176
     1
 74
     1
176
     1
 91
        4
176
     1
 64
     7
176
     1
 65
   257
176
     1
 75
     1
176
     1
175
     1
176
     1
 42
1.0
176
     1
 92
        8
176
     1
 66
     7
176
     1
 43
1.0
176
     1
 76
     1
176
     1
 77
     6
176
     1
 78
     2
176
     1
 67
     7
176
     1
 79
     5
176
     1
170
     0
176
     1
171
     0
176
     1
290
     0
176
     1
 93
        1
176
     1
 44
0.0
176
     1
173
     0
176
     1
  0
VISUALSTYLE
  5
2B
102
{ACAD_REACTORS
330
2A
102
}
330
2A
100
AcDbVisualStyle
  2
Flat
 70
     0
177
     2
291
     1
 71
     2
176
     1
 72
     1
176
     1
 73
     1
176
     1
 90
        2
176
     1
 40
0.6
176
     1
 41
30.0
176
     1
 62
     5
 63
     7
421
 16777215
176
     1
 74
     0
176
     1
 91
        0
176
     1
 64
     7
176
     1
 65
   257
176
     1
 75
     1
176
     1
175
     1
176
     1
 42
1.0
176
     1
 92
        8
176
     1
 66
     7
176
     1
 43
1.0
176
     1
 76
     1
176
     1
 77
     6
176
     1
 78
     2
176
     1
 67
     7
176
     1
 79
     5
176
     1
170
     0
176
     1
171
     0
176
     1
290
     0
176
     1
 93
       13
176
     1
 44
0.0
176
     1
173
     0
176
     1
  0
VISUALSTYLE
  5
2C
102
{ACAD_REACTORS
330
2A
102
}
330
2A
100
AcDbVisualStyle
  2
FlatWithEdges
 70
     1
177
     2
291
     1
 71
     2
176
     1
 72
     1
176
     1
 73
     1
176
     1
 90
        2
176
     1
 40
0.6
176
     1
 41
30.0
176
     1
 62
     5
 63
     7
421
 16777215
176
     1
 74
     1
176
     1
 91
        0
176
     1
 64
     7
176
     1
 65
   257
176
     1
 75
     1
176
     1
175
     1
176
     1
 42
1.0
176
     1
 92
        0
176
     1
 66
   257
176
     1
 43
1.0
176
     1
 76
     1
176
     1
 77
     6
176
     1
 78
     2
176
     1
 67
     7
176
     1
 79
     5
176
     1
170
     0
176
     1
171
     0
176
     1
290
     0
176
     1
 93
       13
176
     1
 44
0.0
176
     1
173
     0
176
     1
  0
VISUALSTYLE
  5
2D
102
{ACAD_REACTORS
330
2A
102
}
330
2A
100
AcDbVisualStyle
  2
Gouraud
 70
     2
177
     2
291
     1
 71
     2
176
     1
 72
     2
176
     1
 73
     1
176
     1
 90
        2
176
     1
 40
0.6
176
     1
 41
30.0
176
     1
 62
     5
 63
     7
421
 16777215
176
     1
 74
     0
176
     1
 91
        0
176
     1
 64
     7
176
     1
 65
   257
176
     1
 75
     1
176
     1
175
     1
176
     1
 42
1.0
176
     1
 92
        0
176
     1
 66
     7
176
     1
 43
1.0
176
     1
 76
     1
176
     1
 77
     6
176
     1
 78
     2
176
     1
 67
     7
176
     1
 79
     5
176
     1
170
     0
176
     1
171
     0
176
     1
290
     0
176
     1
 93
       13
176
     1
 44
0.0
176
     1
173
     0
176
     1
  0
VISUALSTYLE
  5
2E
102
{ACAD_REACTORS
330
2A
102
}
330
2A
100
AcDbVisualStyle
  2
GouraudWithEdges
 70
     3
177
     2
291
     1
 71
     2
176
     1
 72
     2
176
     1
 73
     1
176
     1
 90
        2
176
     1
 40
0.6
176
     1
 41
30.0
176
     1
 62
     5
 63
     7
421
 16777215
176
     1
 74
     1
176
     1
 91
        0
176
     1
 64
     7
176
     1
 65
   257
176
     1
 75
     1
176
     1
175
     1
176
     1
 42
1.0
176
     1
 92
        0
176
     1
 66
   257
176
     1
 43
1.0
176
     1
 76
     1
176
     1
 77
     6
176
     1
 78
     2
176
     1
 67
     7
176
     1
 79
     5
176
     1
170
     0
176
     1
171
     0
176
     1
290
     0
176
     1
 93
       13
176
     1
 44
0.0
176
     1
173
     0
176
     1
  0
VISUALSTYLE
  5
31
102
{ACAD_REACTORS
330
2A
102
}
330
2A
100
AcDbVisualStyle
  2
Hidden
 70
     6
177
     2
291
     0
 71
     1
176
     1
 72
     2
176
     1
 73
     2
176
     1
 90
        0
176
     1
 40
0.6
176
     1
 41
30.0
176
     1
 62
     5
 63
     7
421
 16777215
176
     1
 74
     2
176
     1
 91
        2
176
     1
 64
     7
176
     1
 65
   257
176
     1
 75
     2
176
     1
175
     1
176
     1
 42
40.0
176
     1
 92
        0
176
     1
 66
   257
176
     1
 43
1.0
176
     1
 76
     1
176
     1
 77
     6
176
     1
 78
     2
176
     1
 67
     7
176
     1
 79
     3
176
     1
170
     0
176
     1
171
     0
176
     1
290
     0
176
     1
 93
        1
176
     1
 44
0.0
176
     1
173
     0
176
     1
  0
VISUALSTYLE
  5
3B
102
{ACAD_REACTORS
330
2A
102
}
330
2A
100
AcDbVisualStyle
  2
JitterOff
 70
    20
177
     2
291
     1
 71
     2
176
     0
 72
     2
176
     0
 73
     0
176
     0
 90
        0
176
     0
 40
0.6
176
     0
 41
30.0
176
     0
 62
     5
 63
     7
421
 16777215
176
     0
 74
     1
176
     0
 91
        4
176
     0
 64
     7
176
     0
 65
   257
176
     0
 75
     1
176
     0
175
     1
176
     0
 42
1.0
176
     0
 92
       10
176
     2
 66
     7
176
     0
 43
1.0
176
     0
 76
     1
176
     0
 77
     6
176
     0
 78
     2
176
     0
 67
     7
176
     0
 79
     5
176
     0
170
     0
176
     0
171
     0
176
     0
290
     0
176
     0
 93
        1
176
     0
 44
0.0
176
     0
173
     0
176
     0
  0
VISUALSTYLE
  5
38
102
{ACAD_REACTORS
330
2A
102
}
330
2A
100
AcDbVisualStyle
  2
Linepattern
 70
    14
177
     2
291
     1
 71
     2
176
     1
 72
     2
176
     1
 73
     0
176
     1
 90
        0
176
     1
 40
0.6
176
     1
 41
30.0
176
     1
 62
     5
 63
     7
421
 16777215
176
     1
 74
     1
176
     1
 91
        4
176
     1
 64
     7
176
     1
 65
   257
176
     1
 75
     7
176
     1
175
     7
176
     1
 42
1.0
176
     1
 92
        8
176
     1
 66
     7
176
     1
 43
1.0
176
     1
 76
     1
176
     1
 77
     6
176
     1
 78
     2
176
     1
 67
     7
176
     1
 79
     5
176
     1
170
     0
176
     1
171
     0
176
     1
290
     0
176
     1
 93
        1
176
     1
 44
0.0
176
     1
173
     0
176
     1
  0
VISUALSTYLE
  5
3C
102
{ACAD_REACTORS
330
2A
102
}
330
2A
100
AcDbVisualStyle
  2
OverhangOff
 70
    21
177
     2
291
     1
 71
     2
176
     0
 72
     2
176
     0
 73
     0
176
     0
 90
        0
176
     0
 40
0.6
176
     0
 41
30.0
176
     0
 62
     5
 63
     7
421
 16777215
176
     0
 74
     1
176
     0
 91
        4
176
     0
 64
     7
176
     0
 65
   257
176
     0
 75
     1
176
     0
175
     1
176
     0
 42
1.0
176
     0
 92
        9
176
     2
 66
     7
176
     0
 43
1.0
176
     0
 76
     1
176
     0
 77
     6
176
     0
 78
     2
176
     0
 67
     7
176
     0
 79
     5
176
     0
170
     0
176
     0
171
     0
176
     0
290
     0
176
     0
 93
        1
176
     0
 44
0.0
176
     0
173
     0
176
     0
  0
VISUALSTYLE
  5
33
102
{ACAD_REACTORS
330
2A
102
}
330
2A
100
AcDbVisualStyle
  2
Realistic
 70
     8
177
     2
291
     0
 71
     2
176
     1
 72
     3
176
     1
 73
     0
176
     1
 90
        2
176
     1
 40
0.6
176
     1
 41
30.0
176
     1
 62
     5
 63
     7
421
 16777215
176
     1
 74
     0
176
     1
 91
        0
176
     1
 64
     7
176
     1
 65
   257
176
     1
 75
     1
176
     1
175
     1
176
     1
 42
1.0
176
     1
 92
        8
176
     1
 66
   257
176
     1
 43
1.0
176
     1
 76
     1
176
     1
 77
     6
176
     1
 78
     2
176
     1
 67
     7
176
     1
 79
     3
176
     1
170
     0
176
     1
171
     0
176
     1
290
     0
176
     1
 93
       13
176
     1
 44
0.0
176
     1
173
     0
176
     1
  0
VISUALSTYLE
  5
42
102
{ACAD_REACTORS
330
2A
102
}
330
2A
100
AcDbVisualStyle
  2
Shaded
 70
    27
177
     2
291
     0
 71
     2
176
     1
 72
     2
176
     1
 73
     1
176
     1
 90
        2
176
     1
 40
0.6
176
     1
 41
30.0
176
     1
 62
     5
 63
     7
421
 16777215
176
     1
 74
     0
176
     1
 91
        4
176
     1
 64
     7
176
     1
 65
   257
176
     1
 75
     1
176
     1
175
     1
176
     1
 42
1.0
176
     1
 92
        8
176
     1
 66
   257
176
     1
 43
1.0
176
     1
 76
     1
176
     1
 77
     6
176
     1
 78
     2
176
     1
 67
     8
425
  7895160
176
     1
 79
     3
176
     1
170
     0
176
     1
171
     0
176
     1
290
     0
176
     1
 93
        5
176
     1
 44
0.0
176
     1
173
     0
176
     1
  0
VISUALSTYLE
  5
41
102
{ACAD_REACTORS
330
2A
102
}
330
2A
100
AcDbVisualStyle
  2
Shaded with edges
 70
    26
177
     2
291
     0
 71
     2
176
     1
 72
     2
176
     1
 73
     1
176
     1
 90
        2
176
     1
 40
0.6
176
     1
 41
30.0
176
     1
 62
     5
 63
     7
421
 16777215
176
     1
 74
     1
176
     1
 91
       10
176
     1
 64
     7
176
     1
 65
   257
176
     1
 75
     2
176
     1
175
     1
176
     1
 42
1.0
176
     1
 92
        8
176
     1
 66
   257
176
     1
 43
1.0
176
     1
 76
     1
176
     1
 77
     6
176
     1
 78
     2
176
     1
 67
     7
176
     1
 79
     3
176
     1
170
     0
176
     1
171
     0
176
     1
290
     0
176
     1
 93
        5
176
     1
 44
0.0
176
     1
173
     0
176
     1
  0
VISUALSTYLE
  5
3E
102
{ACAD_REACTORS
330
2A
102
}
330
2A
100
AcDbVisualStyle
  2
Shades of Gray
 70
    23
177
     2
291
     0
 71
     2
176
     1
 72
     2
176
     1
 73
     3
176
     1
 90
        0
176
     1
 40
0.6
176
     1
 41
30.0
176
     1
 62
     5
 63
     7
421
 16777215
176
     1
 74
     2
176
     1
 91
        2
176
     1
 64
     7
176
     1
 65
     7
176
     1
 75
     1
176
     1
175
     1
176
     1
 42
40.0
176
     1
 92
        8
176
     1
 66
     7
176
     1
 43
1.0
176
     1
 76
     1
176
     1
 77
     6
176
     1
 78
     2
176
     1
 67
     7
176
     1
 79
     3
176
     1
170
     0
176
     1
171
     0
176
     1
290
     0
176
     1
 93
        1
176
     1
 44
0.0
176
     1
173
     0
176
     1
  0
VISUALSTYLE
  5
3F
102
{ACAD_REACTORS
330
2A
102
}
330
2A
100
AcDbVisualStyle
  2
Sketchy
 70
    24
177
     2
291
     0
 71
     1
176
     1
 72
     2
176
     1
 73
     2
176
     1
 90
        0
176
     1
 40
0.6
176
     1
 41
30.0
176
     1
 62
     5
 63
     7
421
 16777215
176
     1
 74
     2
176
     1
 91
        2
176
     1
 64
     7
176
     1
 65
     7
176
     1
 75
     1
176
     1
175
     1
176
     1
 42
40.0
176
     1
 92
       11
176
     1
 66
     7
176
     1
 43
1.0
176
     1
 76
     1
176
     1
 77
     6
176
     1
 78
     2
176
     1
 67
     7
176
     1
 79
     6
176
     1
170
     0
176
     1
171
     0
176
     1
290
     0
176
     1
 93
        1
176
     1
 44
0.0
176
     1
173
     0
176
     1
  0
VISUALSTYLE
  5
37
102
{ACAD_REACTORS
330
2A
102
}
330
2A
100
AcDbVisualStyle
  2
Thicken
 70
    13
177
     2
291
     1
 71
     2
176
     1
 72
     2
176
     1
 73
     0
176
     1
 90
        0
176
     1
 40
0.6
176
     1
 41
30.0
176
     1
 62
     5
 63
     7
421
 16777215
176
     1
 74
     1
176
     1
 91
        4
176
     1
 64
     7
176
     1
 65
   257
176
     1
 75
     1
176
     1
175
     1
176
     1
 42
1.0
176
     1
 92
       12
176
     1
 66
     7
176
     1
 43
1.0
176
     1
 76
     1
176
     1
 77
     6
176
     1
 78
     2
176
     1
 67
     7
176
     1
 79
     5
176
     1
170
     0
176
     1
171
     0
176
     1
290
     0
176
     1
 93
        1
176
     1
 44
0.0
176
     1
173
     0
176
     1
  0
VISUALSTYLE
  5
30
102
{ACAD_REACTORS
330
2A
102
}
330
2A
100
AcDbVisualStyle
  2
Wireframe
 70
     5
177
     2
291
     0
 71
     0
176
     1
 72
     2
176
     1
 73
     0
176
     1
 90
        0
176
     1
 40
0.6
176
     1
 41
30.0
176
     1
 62
     5
 63
     7
421
 16777215
176
     1
 74
     1
176
     1
 91
        4
176
     1
 64
     7
176
     1
 65
   257
176
     1
 75
     1
176
     1
175
     1
176
     1
 42
1.0
176
     1
 92
        0
176
     1
 66
   257
176
     1
 43
1.0
176
     1
 76
     1
176
     1
 77
     6
176
     1
 78
     2
176
     1
 67
     7
176
     1
 79
     3
176
     1
170
     0
176
     1
171
     0
176
     1
290
     0
176
     1
 93
        1
176
     1
 44
0.0
176
     1
173
     0
176
     1
  0
VISUALSTYLE
  5
40
102
{ACAD_REACTORS
330
2A
102
}
330
2A
100
AcDbVisualStyle
  2
X-Ray
 70
    25
177
     2
291
     0
 71
     2
176
     1
 72
     2
176
     1
 73
     1
176
     1
 90
        1
176
     1
 40
0.5
176
     1
 41
30.0
176
     1
 62
     5
 63
     7
421
 16777215
176
     1
 74
     1
176
     1
 91
        0
176
     1
 64
     7
176
     1
 65
   257
176
     1
 75
     1
176
     1
175
     1
176
     1
 42
1.0
176
     1
 92
        8
176
     1
 66
     7
176
     1
 43
1.0
176
     1
 76
     1
176
     1
 77
     6
176
     1
 78
     2
176
     1
 67
     7
176
     1
 79
     3
176
     1
170
     0
176
     1
171
     0
176
     1
290
     0
176
     1
 93
       13
176
     1
 44
0.0
176
     1
173
     0
176
     1
  0
DICTIONARYVAR
  5
2A5
102
{ACAD_REACTORS
330
2A4
102
}
330
2A4
100
DictionaryVariables
280
     0
  1
1:1
  0
DICTIONARYVAR
  5
2AD
102
{ACAD_REACTORS
330
2A4
102
}
330
2A4
100
DictionaryVariables
280
     0
  1
3.500000
  0
DICTIONARYVAR
  5
2AE
102
{ACAD_REACTORS
330
2A4
102
}
330
2A4
100
DictionaryVariables
280
     0
  1
acadiso.lin
  0
DICTIONARYVAR
  5
2AA
102
{ACAD_REACTORS
330
2A4
102
}
330
2A4
100
DictionaryVariables
280
     0
  1
Standard
  0
DICTIONARYVAR
  5
2A9
102
{ACAD_REACTORS
330
2A4
102
}
330
2A4
100
DictionaryVariables
280
     0
  1
Standard
  0
DICTIONARY
  5
2A6
330
6A
100
AcDbDictionary
280
     1
281
     1
  3
ACAD_ROUNDTRIP_2008_TABLESTYLE_CELLSTYLEMAP
360
2A7
  0
CELLSTYLEMAP
  5
2A7
102
{ACAD_REACTORS
330
2A6
102
}
330
2A6
100
AcDbCellStyleMap
 90
        3
300
CELLSTYLE
  1
TABLEFORMAT_BEGIN
 90
        5
170
     1
 91
        0
 92
    32768
 62
   257
 93
        1
300
CONTENTFORMAT
  1
CONTENTFORMAT_BEGIN
 90
        0
 91
        0
 92
        4
 93
        0
300

 40
0.0
140
1.0
 94
        5
 62
     0
340
11
144
6.0
309
CONTENTFORMAT_END
171
     1
301
MARGIN
  1
CELLMARGIN_BEGIN
 40
1.5
 40
1.5
 40
1.5
 40
1.5
 40
1.5
 40
1.5
309
CELLMARGIN_END
 94
        6
 95
        1
302
GRIDFORMAT
  1
GRIDFORMAT_BEGIN
 90
        0
 91
        1
 62
     0
 92
       -2
340
14
 93
        0
 40
0.045
309
GRIDFORMAT_END
 95
        2
302
GRIDFORMAT
  1
GRIDFORMAT_BEGIN
 90
        0
 91
        1
 62
     0
 92
       -2
340
14
 93
        0
 40
0.045
309
GRIDFORMAT_END
 95
        4
302
GRIDFORMAT
  1
GRIDFORMAT_BEGIN
 90
        0
 91
        1
 62
     0
 92
       -2
340
14
 93
        0
 40
0.045
309
GRIDFORMAT_END
 95
        8
302
GRIDFORMAT
  1
GRIDFORMAT_BEGIN
 90
        0
 91
        1
 62
     0
 92
       -2
340
14
 93
        0
 40
0.045
309
GRIDFORMAT_END
 95
       16
302
GRIDFORMAT
  1
GRIDFORMAT_BEGIN
 90
        0
 91
        1
 62
     0
 92
       -2
340
14
 93
        0
 40
0.045
309
GRIDFORMAT_END
 95
       32
302
GRIDFORMAT
  1
GRIDFORMAT_BEGIN
 90
        0
 91
        1
 62
     0
 92
       -2
340
14
 93
        0
 40
0.045
309
GRIDFORMAT_END
309
TABLEFORMAT_END
  1
CELLSTYLE_BEGIN
 90
        1
 91
        1
300
_TITLE
309
CELLSTYLE_END
300
CELLSTYLE
  1
TABLEFORMAT_BEGIN
 90
        5
170
     1
 91
        0
 92
        0
 62
   257
 93
        1
300
CONTENTFORMAT
  1
CONTENTFORMAT_BEGIN
 90
        0
 91
        0
 92
        4
 93
        0
300

 40
0.0
140
1.0
 94
        5
 62
     0
340
11
144
4.5
309
CONTENTFORMAT_END
171
     1
301
MARGIN
  1
CELLMARGIN_BEGIN
 40
1.5
 40
1.5
 40
1.5
 40
1.5
 40
1.5
 40
1.5
309
CELLMARGIN_END
 94
        6
 95
        1
302
GRIDFORMAT
  1
GRIDFORMAT_BEGIN
 90
        0
 91
        1
 62
     0
 92
       -2
340
14
 93
        0
 40
0.045
309
GRIDFORMAT_END
 95
        2
302
GRIDFORMAT
  1
GRIDFORMAT_BEGIN
 90
        0
 91
        1
 62
     0
 92
       -2
340
14
 93
        0
 40
0.045
309
GRIDFORMAT_END
 95
        4
302
GRIDFORMAT
  1
GRIDFORMAT_BEGIN
 90
        0
 91
        1
 62
     0
 92
       -2
340
14
 93
        0
 40
0.045
309
GRIDFORMAT_END
 95
        8
302
GRIDFORMAT
  1
GRIDFORMAT_BEGIN
 90
        0
 91
        1
 62
     0
 92
       -2
340
14
 93
        0
 40
0.045
309
GRIDFORMAT_END
 95
       16
302
GRIDFORMAT
  1
GRIDFORMAT_BEGIN
 90
        0
 91
        1
 62
     0
 92
       -2
340
14
 93
        0
 40
0.045
309
GRIDFORMAT_END
 95
       32
302
GRIDFORMAT
  1
GRIDFORMAT_BEGIN
 90
        0
 91
        1
 62
     0
 92
       -2
340
14
 93
        0
 40
0.045
309
GRIDFORMAT_END
309
TABLEFORMAT_END
  1
CELLSTYLE_BEGIN
 90
        2
 91
        1
300
_HEADER
309
CELLSTYLE_END
300
CELLSTYLE
  1
TABLEFORMAT_BEGIN
 90
        5
170
     1
 91
        0
 92
        0
 62
   257
 93
        1
300
CONTENTFORMAT
  1
CONTENTFORMAT_BEGIN
 90
        0
 91
        0
 92
        4
 93
        0
300

 40
0.0
140
1.0
 94
        2
 62
     0
340
11
144
4.5
309
CONTENTFORMAT_END
171
     1
301
MARGIN
  1
CELLMARGIN_BEGIN
 40
1.5
 40
1.5
 40
1.5
 40
1.5
 40
1.5
 40
1.5
309
CELLMARGIN_END
 94
        6
 95
        1
302
GRIDFORMAT
  1
GRIDFORMAT_BEGIN
 90
        0
 91
        1
 62
     0
 92
       -2
340
14
 93
        0
 40
0.045
309
GRIDFORMAT_END
 95
        2
302
GRIDFORMAT
  1
GRIDFORMAT_BEGIN
 90
        0
 91
        1
 62
     0
 92
       -2
340
14
 93
        0
 40
0.045
309
GRIDFORMAT_END
 95
        4
302
GRIDFORMAT
  1
GRIDFORMAT_BEGIN
 90
        0
 91
        1
 62
     0
 92
       -2
340
14
 93
        0
 40
0.045
309
GRIDFORMAT_END
 95
        8
302
GRIDFORMAT
  1
GRIDFORMAT_BEGIN
 90
        0
 91
        1
 62
     0
 92
       -2
340
14
 93
        0
 40
0.045
309
GRIDFORMAT_END
 95
       16
302
GRIDFORMAT
  1
GRIDFORMAT_BEGIN
 90
        0
 91
        1
 62
     0
 92
       -2
340
14
 93
        0
 40
0.045
309
GRIDFORMAT_END
 95
       32
302
GRIDFORMAT
  1
GRIDFORMAT_BEGIN
 90
        0
 91
        1
 62
     0
 92
       -2
340
14
 93
        0
 40
0.045
309
GRIDFORMAT_END
309
TABLEFORMAT_END
  1
CELLSTYLE_BEGIN
 90
        3
 91
        2
300
_DATA
309
CELLSTYLE_END
  0
ENDSEC
  0
EOF
