  0
SECTION
  2
HEADER
  9
$ACADVER
  1
AC1015
  9
$ACADMAINTVER
 70
     6
  9
$DWGCODEPAGE
  3
ANSI_1252
  9
$INSBASE
 10
0.0
 20
0.0
 30
0.0
  9
$EXTMIN
 10
0.0
 20
0.0
 30
0.0
  9
$EXTMAX
 10
420.0
 20
297.0
 30
0.0
  9
$LIMMIN
 10
0.0
 20
0.0
  9
$LIMMAX
 10
420.0
 20
297.0
  9
$ORTHOMODE
 70
     0
  9
$REGENMODE
 70
     1
  9
$FILLMODE
 70
     1
  9
$QTEXTMODE
 70
     0
  9
$MIRRTEXT
 70
     1
  9
$LTSCALE
 40
1.0
  9
$ATTMODE
 70
     1
  9
$TEXTSIZE
 40
3.5
  9
$TRACEWID
 40
1.0
  9
$TEXTSTYLE
  7
Standard
  9
$CLAYER
  8
0
  9
$CELTYPE
  6
ByLayer
  9
$CECOLOR
 62
   256
  9
$CELTSCALE
 40
1.0
  9
$DISPSILH
 70
     0
  9
$DIMSCALE
 40
1.0
  9
$DIMASZ
 40
3.302
  9
$DIMEXO
 40
1.0
  9
$DIMDLI
 40
3.75
  9
$DIMRND
 40
0.0
  9
$DIMDLE
 40
0.0
  9
$DIMEXE
 40
1.0
  9
$DIMTP
 40
0.0
  9
$DIMTM
 40
0.0
  9
$DIMTXT
 40
3.5
  9
$DIMCEN
 40
2.5
  9
$DIMTSZ
 40
0.0
  9
$DIMTOL
 70
     0
  9
$DIMLIM
 70
     0
  9
$DIMTIH
 70
     1
  9
$DIMTOH
 70
     1
  9
$DIMSE1
 70
     0
  9
$DIMSE2
 70
     0
  9
$DIMTAD
 70
     1
  9
$DIMZIN
 70
     1
  9
$DIMBLK
  1

  9
$DIMASO
 70
     1
  9
$DIMSHO
 70
     1
  9
$DIMPOST
  1

  9
$DIMAPOST
  1

  9
$DIMALT
 70
     0
  9
$DIMALTD
 70
     3
  9
$DIMALTF
 40
0.0393700787
  9
$DIMLFAC
 40
1.0
  9
$DIMTOFL
 70
     1
  9
$DIMTVP
 40
0.0
  9
$DIMTIX
 70
     0
  9
$DIMSOXD
 70
     0
  9
$DIMSAH
 70
     0
  9
$DIMBLK1
  1

  9
$DIMBLK2
  1

  9
$DIMSTYLE
  2
ISO-25
  9
$DIMCLRD
 70
     0
  9
$DIMCLRE
 70
     0
  9
$DIMCLRT
 70
     0
  9
$DIMTFAC
 40
1.0
  9
$DIMGAP
 40
1.524
  9
$DIMJUST
 70
     0
  9
$DIMSD1
 70
     0
  9
$DIMSD2
 70
     0
  9
$DIMTOLJ
 70
     0
  9
$DIMTZIN
 70
     1
  9
$DIMALTZ
 70
     0
  9
$DIMALTTZ
 70
     0
  9
$DIMUPT
 70
     0
  9
$DIMDEC
 70
     2
  9
$DIMTDEC
 70
     2
  9
$DIMALTU
 70
     2
  9
$DIMALTTD
 70
     3
  9
$DIMTXSTY
  7
Standard
  9
$DIMAUNIT
 70
     0
  9
$DIMADEC
 70
     2
  9
$DIMALTRND
 40
0.0
  9
$DIMAZIN
 70
     0
  9
$DIMDSEP
 70
    44
  9
$DIMATFIT
 70
     3
  9
$DIMFRAC
 70
     0
  9
$DIMLDRBLK
  1

  9
$DIMLUNIT
 70
     2
  9
$DIMLWD
 70
    -2
  9
$DIMLWE
 70
    -2
  9
$DIMTMOVE
 70
     0
  9
$LUNITS
 70
     2
  9
$LUPREC
 70
     2
  9
$SKETCHINC
 40
1.0
  9
$FILLETRAD
 40
10.0
  9
$AUNITS
 70
     0
  9
$AUPREC
 70
     2
  9
$MENU
  1
.
  9
$ELEVATION
 40
0.0
  9
$PELEVATION
 40
0.0
  9
$THICKNESS
 40
0.0
  9
$LIMCHECK
 70
     0
  9
$CHAMFERA
 40
0.0
  9
$CHAMFERB
 40
0.0
  9
$CHAMFERC
 40
0.0
  9
$CHAMFERD
 40
0.0
  9
$SKPOLY
 70
     0
  9
$TDCREATE
 40
2459285.611716227
  9
$TDUCREATE
 40
2459285.903382894
  9
$TDUPDATE
 40
2459285.611716343
  9
$TDUUPDATE
 40
2459285.903383009
  9
$TDINDWG
 40
0.0000000116
  9
$TDUSRTIMER
 40
0.0000000116
  9
$USRTIMER
 70
     1
  9
$ANGBASE
 50
0.0
  9
$ANGDIR
 70
     0
  9
$PDMODE
 70
     0
  9
$PDSIZE
 40
-1.0
  9
$PLINEWID
 40
0.0
  9
$SPLFRAME
 70
     0
  9
$SPLINETYPE
 70
     6
  9
$SPLINESEGS
 70
     8
  9
$HANDSEED
  5
15B
  9
$SURFTAB1
 70
     6
  9
$SURFTAB2
 70
     6
  9
$SURFTYPE
 70
     6
  9
$SURFU
 70
     6
  9
$SURFV
 70
     6
  9
$UCSBASE
  2

  9
$UCSNAME
  2

  9
$UCSORG
 10
0.0
 20
0.0
 30
0.0
  9
$UCSXDIR
 10
1.0
 20
0.0
 30
0.0
  9
$UCSYDIR
 10
0.0
 20
1.0
 30
0.0
  9
$UCSORTHOREF
  2

  9
$UCSORTHOVIEW
 70
     0
  9
$UCSORGTOP
 10
0.0
 20
0.0
 30
0.0
  9
$UCSORGBOTTOM
 10
0.0
 20
0.0
 30
0.0
  9
$UCSORGLEFT
 10
0.0
 20
0.0
 30
0.0
  9
$UCSORGRIGHT
 10
0.0
 20
0.0
 30
0.0
  9
$UCSORGFRONT
 10
0.0
 20
0.0
 30
0.0
  9
$UCSORGBACK
 10
0.0
 20
0.0
 30
0.0
  9
$PUCSBASE
  2

  9
$PUCSNAME
  2

  9
$PUCSORG
 10
0.0
 20
0.0
 30
0.0
  9
$PUCSXDIR
 10
1.0
 20
0.0
 30
0.0
  9
$PUCSYDIR
 10
0.0
 20
1.0
 30
0.0
  9
$PUCSORTHOREF
  2

  9
$PUCSORTHOVIEW
 70
     0
  9
$PUCSORGTOP
 10
0.0
 20
0.0
 30
0.0
  9
$PUCSORGBOTTOM
 10
0.0
 20
0.0
 30
0.0
  9
$PUCSORGLEFT
 10
0.0
 20
0.0
 30
0.0
  9
$PUCSORGRIGHT
 10
0.0
 20
0.0
 30
0.0
  9
$PUCSORGFRONT
 10
0.0
 20
0.0
 30
0.0
  9
$PUCSORGBACK
 10
0.0
 20
0.0
 30
0.0
  9
$USERI1
 70
     0
  9
$USERI2
 70
     0
  9
$USERI3
 70
     0
  9
$USERI4
 70
     0
  9
$USERI5
 70
     0
  9
$USERR1
 40
0.0
  9
$USERR2
 40
0.0
  9
$USERR3
 40
0.0
  9
$USERR4
 40
0.0
  9
$USERR5
 40
0.0
  9
$WORLDVIEW
 70
     1
  9
$SHADEDGE
 70
     3
  9
$SHADEDIF
 70
    70
  9
$TILEMODE
 70
     1
  9
$MAXACTVP
 70
    64
  9
$PINSBASE
 10
0.0
 20
0.0
 30
0.0
  9
$PLIMCHECK
 70
     0
  9
$PEXTMIN
 10
1.0000000000E+20
 20
1.0000000000E+20
 30
1.0000000000E+20
  9
$PEXTMAX
 10
-1.0000000000E+20
 20
-1.0000000000E+20
 30
-1.0000000000E+20
  9
$PLIMMIN
 10
0.0
 20
0.0
  9
$PLIMMAX
 10
420.0
 20
297.0
  9
$UNITMODE
 70
     0
  9
$VISRETAIN
 70
     1
  9
$PLINEGEN
 70
     0
  9
$PSLTSCALE
 70
     1
  9
$TREEDEPTH
 70
  3020
  9
$CMLSTYLE
  2
Standard
  9
$CMLJUST
 70
     0
  9
$CMLSCALE
 40
20.0
  9
$PROXYGRAPHICS
 70
     1
  9
$MEASUREMENT
 70
     1
  9
$CELWEIGHT
370
    -1
  9
$ENDCAPS
280
     0
  9
$JOINSTYLE
280
     0
  9
$LWDISPLAY
290
     1
  9
$INSUNITS
 70
     4
  9
$HYPERLINKBASE
  1

  9
$STYLESHEET
  1

  9
$XEDIT
290
     1
  9
$CEPSNTYPE
380
     0
  9
$PSTYLEMODE
290
     1
  9
$FINGERPRINTGUID
  2
{479979ef-0572-4fa4-afcb-48091c24d900}
  9
$VERSIONGUID
  2
{FAEB1C32-E019-11D5-929B-00C0DF256EC4}
  9
$EXTNAMES
290
     1
  9
$PSVPSCALE
 40
0.0
  9
$OLESTARTUP
290
     0
  0
ENDSEC
  0
SECTION
  2
CLASSES
  0
CLASS
  1
ACDBDICTIONARYWDFLT
  2
AcDbDictionaryWithDefault
  3
ObjectDBX Classes
 90
        0
280
     0
281
     0
  0
CLASS
  1
VISUALSTYLE
  2
AcDbVisualStyle
  3
ObjectDBX Classes
 90
     4095
280
     0
281
     0
  0
CLASS
  1
MATERIAL
  2
AcDbMaterial
  3
ObjectDBX Classes
 90
     1153
280
     0
281
     0
  0
CLASS
  1
SCALE
  2
AcDbScale
  3
ObjectDBX Classes
 90
     1153
280
     0
281
     0
  0
CLASS
  1
TABLESTYLE
  2
AcDbTableStyle
  3
ObjectDBX Classes
 90
     4095
280
     0
281
     0
  0
CLASS
  1
MLEADERSTYLE
  2
AcDbMLeaderStyle
  3
ACDB_MLEADERSTYLE_CLASS
 90
     4095
280
     0
281
     0
  0
CLASS
  1
SUN
  2
AcDbSun
  3
SCENEOE
 90
     1153
280
     0
281
     0
  0
CLASS
  1
ACDBPLACEHOLDER
  2
AcDbPlaceHolder
  3
ObjectDBX Classes
 90
        0
280
     0
281
     0
  0
CLASS
  1
LAYOUT
  2
AcDbLayout
  3
ObjectDBX Classes
 90
        0
280
     0
281
     0
  0
ENDSEC
  0
SECTION
  2
TABLES
  0
TABLE
  2
VPORT
  5
8
330
0
100
AcDbSymbolTable
 70
     1
  0
VPORT
  5
29
330
8
100
AcDbSymbolTableRecord
100
AcDbViewportTableRecord
  2
*Active
 70
     0
 10
0.0
 20
0.0
 11
1.0
 21
1.0
 12
210.0
 22
148.5
 13
0.0
 23
0.0
 14
10.0
 24
10.0
 15
10.0
 25
10.0
 16
0.0
 26
0.0
 36
1.0
 17
0.0
 27
0.0
 37
0.0
 40
297.0
 41
1.4141414141
 42
50.0
 43
0.0
 44
0.0
 50
0.0
 51
0.0
 71
     0
 72
  2000
 73
     1
 74
     3
 75
     0
 76
     0
 77
     0
 78
     0
281
     0
 65
     1
110
0.0
120
0.0
130
0.0
111
1.0
121
0.0
131
0.0
112
0.0
122
1.0
132
0.0
 79
     0
146
0.0
  0
ENDTAB
  0
TABLE
  2
LTYPE
  5
5
330
0
100
AcDbSymbolTable
 70
     6
  0
LTYPE
  5
14
330
5
100
AcDbSymbolTableRecord
100
AcDbLinetypeTableRecord
  2
ByBlock
 70
     0
  3

 72
    65
 73
     0
 40
0.0
  0
LTYPE
  5
15
330
5
100
AcDbSymbolTableRecord
100
AcDbLinetypeTableRecord
  2
ByLayer
 70
     0
  3

 72
    65
 73
     0
 40
0.0
  0
LTYPE
  5
16
330
5
100
AcDbSymbolTableRecord
100
AcDbLinetypeTableRecord
  2
Continuous
 70
     0
  3
Solid line
 72
    65
 73
     0
 40
0.0
  0
LTYPE
  5
6E
330
5
100
AcDbSymbolTableRecord
100
AcDbLinetypeTableRecord
  2
HIDDEN
 70
     0
  3
Hidden __ __ __ __ __ __ __ __ __ __ __ __ __ __
 72
    65
 73
     2
 40
1.905
 49
1.27
 74
     0
 49
-0.635
 74
     0
  0
LTYPE
  5
6F
330
5
100
AcDbSymbolTableRecord
100
AcDbLinetypeTableRecord
  2
PHANTOM
 70
     0
  3
Phantom ______  __  __  ______  __  __  ______
 72
    65
 73
     6
 40
12.7
 49
6.35
 74
     0
 49
-1.27
 74
     0
 49
1.27
 74
     0
 49
-1.27
 74
     0
 49
1.27
 74
     0
 49
-1.27
 74
     0
  0
LTYPE
  5
70
330
5
100
AcDbSymbolTableRecord
100
AcDbLinetypeTableRecord
  2
CENTER
 70
     0
  3
Center ____ _ ____ _ ____ _ ____ _ ____ _ ____
 72
    65
 73
     4
 40
10.16
 49
6.35
 74
     0
 49
-1.27
 74
     0
 49
1.27
 74
     0
 49
-1.27
 74
     0
  0
LTYPE
  5
71
330
5
100
AcDbSymbolTableRecord
100
AcDbLinetypeTableRecord
  2
CENTERX2
 70
     0
  3
Center (2x) ________  __  ________  __  _____
 72
    65
 73
     4
 40
20.32
 49
12.7
 74
     0
 49
-2.54
 74
     0
 49
2.54
 74
     0
 49
-2.54
 74
     0
  0
LTYPE
  5
72
330
5
100
AcDbSymbolTableRecord
100
AcDbLinetypeTableRecord
  2
DOT2
 70
     0
  3
Dot (.5x) ........................................
 72
    65
 73
     2
 40
0.635
 49
0.0
 74
     0
 49
-0.635
 74
     0
  0
ENDTAB
  0
TABLE
  2
LAYER
  5
2
330
0
100
AcDbSymbolTable
 70
     2
  0
LAYER
  5
10
330
2
100
AcDbSymbolTableRecord
100
AcDbLayerTableRecord
  2
0
 70
     0
 62
     7
  6
Continuous
370
    -3
390
F
  0
LAYER
  5
73
330
2
100
AcDbSymbolTableRecord
100
AcDbLayerTableRecord
  2
RELEASE-FINAL
 70
     0
 62
     1
  6
Continuous
370
    -3
390
F
  0
ENDTAB
  0
TABLE
  2
STYLE
  5
3
330
0
100
AcDbSymbolTable
 70
     2
  0
STYLE
  5
11
330
3
100
AcDbSymbolTableRecord
100
AcDbTextStyleTableRecord
  2
Standard
 70
     0
 40
0.0
 41
1.0
 50
0.0
 71
     0
 42
3.5
  3
txt
  4

  0
STYLE
  5
157
330
3
100
AcDbSymbolTableRecord
100
AcDbTextStyleTableRecord
  2
SLDTEXTSTYLE0
 70
     0
 40
0.0
 41
0.7
 50
0.0
 71
     0
 42
3.5
  3
TXT
  4

  0
ENDTAB
  0
TABLE
  2
VIEW
  5
6
330
0
100
AcDbSymbolTable
 70
     0
  0
ENDTAB
  0
TABLE
  2
UCS
  5
7
330
0
100
AcDbSymbolTable
 70
     0
  0
ENDTAB
  0
TABLE
  2
APPID
  5
9
330
0
100
AcDbSymbolTable
 70
     1
  0
APPID
  5
12
330
9
100
AcDbSymbolTableRecord
100
AcDbRegAppTableRecord
  2
ACAD
 70
     0
  0
ENDTAB
  0
TABLE
  2
DIMSTYLE
  5
A
330
0
100
AcDbSymbolTable
 70
     1
100
AcDbDimStyleTable
  0
DIMSTYLE
105
27
330
A
100
AcDbSymbolTableRecord
100
AcDbDimStyleTableRecord
  2
ISO-25
 70
     0
 41
2.5
 42
0.625
 43
3.75
 44
1.25
 73
     0
 74
     0
 77
     1
 78
     8
140
2.5
141
2.5
143
0.0393700787
147
0.625
171
     3
172
     1
178
     0
271
     2
272
     2
274
     3
278
    44
283
     0
284
     8
340
11
  0
ENDTAB
  0
TABLE
  2
BLOCK_RECORD
  5
1
330
0
100
AcDbSymbolTable
 70
     3
  0
BLOCK_RECORD
  5
1F
330
1
100
AcDbSymbolTableRecord
100
AcDbBlockTableRecord
  2
*Model_Space
340
22
  0
BLOCK_RECORD
  5
1B
330
1
100
AcDbSymbolTableRecord
100
AcDbBlockTableRecord
  2
*Paper_Space
340
1E
  0
BLOCK_RECORD
  5
23
330
1
100
AcDbSymbolTableRecord
100
AcDbBlockTableRecord
  2
*Paper_Space0
340
26
  0
BLOCK_RECORD
  5
74
330
1
100
AcDbSymbolTableRecord
100
AcDbBlockTableRecord
  2
a_LegA_cut_01_rigid_
340
0
  0
BLOCK_RECORD
  5
78
330
1
100
AcDbSymbolTableRecord
100
AcDbBlockTableRecord
  2
a_LegA_cut_01_release_
340
0
102
{BLKREFS
331
156
102
}
  0
ENDTAB
  0
ENDSEC
  0
SECTION
  2
BLOCKS
  0
BLOCK
  5
20
330
1F
100
AcDbEntity
  8
0
100
AcDbBlockBegin
  2
*Model_Space
 70
     0
 10
0.0
 20
0.0
 30
0.0
  3
*Model_Space
  1

  0
ENDBLK
  5
21
330
1F
100
AcDbEntity
  8
0
100
AcDbBlockEnd
  0
BLOCK
  5
1C
330
1B
100
AcDbEntity
 67
     1
  8
0
100
AcDbBlockBegin
  2
*Paper_Space
 70
     0
 10
0.0
 20
0.0
 30
0.0
  3
*Paper_Space
  1

  0
ENDBLK
  5
1D
330
1B
100
AcDbEntity
 67
     1
  8
0
100
AcDbBlockEnd
  0
BLOCK
  5
24
330
23
100
AcDbEntity
  8
0
100
AcDbBlockBegin
  2
*Paper_Space0
 70
     0
 10
0.0
 20
0.0
 30
0.0
  3
*Paper_Space0
  1

  0
ENDBLK
  5
25
330
23
100
AcDbEntity
  8
0
100
AcDbBlockEnd
  0
BLOCK
  5
75
330
74
100
AcDbEntity
  8
0
100
AcDbBlockBegin
  2
a_LegA_cut_01_rigid_
 70
     0
 10
0.0
 20
0.0
 30
0.0
  3
a_LegA_cut_01_rigid_
  1

  0
LINE
  5
77
330
74
100
AcDbEntity
  8
RELEASE-FINAL
  6
Continuous
 62
   174
370
    25
100
AcDbLine
 10
6.5743757332
 20
14.0170832471
 30
0.0
 11
8.0743757332
 21
14.0170832471
 31
0.0
  0
ENDBLK
  5
76
330
74
100
AcDbEntity
  8
0
100
AcDbBlockEnd
  0
BLOCK
  5
79
330
78
100
AcDbEntity
  8
0
100
AcDbBlockBegin
  2
a_LegA_cut_01_release_
 70
     0
 10
0.0
 20
0.0
 30
0.0
  3
a_LegA_cut_01_release_
  1

  0
ARC
  5
7B
330
78
100
AcDbEntity
  8
RELEASE-FINAL
  6
Continuous
 62
     1
370
    25
100
AcDbCircle
 10
19.1815061426
 20
8.0943112676
 30
0.0
 40
1.500000000000003
100
AcDbArc
 50
270.0
 51
19.4712206345
  0
ARC
  5
7C
330
78
100
AcDbEntity
  8
RELEASE-FINAL
  6
Continuous
 62
     1
370
    25
100
AcDbCircle
 10
19.0099332674
 20
5.0943112676
 30
0.0
 40
1.499999999999999
100
AcDbArc
 50
90.0
 51
160.5287793655
  0
ARC
  5
7D
330
78
100
AcDbEntity
  8
RELEASE-FINAL
  6
Continuous
 62
     1
370
    25
100
AcDbCircle
 10
8.2672925802
 20
19.0085248299
 30
0.0
 40
1.500000000000001
100
AcDbArc
 50
70.5287793655
 51
180.0
  0
ARC
  5
7E
330
78
100
AcDbEntity
  8
RELEASE-FINAL
  6
Continuous
 62
     1
370
    25
100
AcDbCircle
 10
17.7672925802
 20
7.5943112676
 30
0.0
 40
2.999999999965548
100
AcDbArc
 50
19.471220635
 51
90.0
  0
ARC
  5
7F
330
78
100
AcDbEntity
  8
RELEASE-FINAL
  6
Continuous
 62
     1
370
    25
100
AcDbCircle
 10
14.7672925803
 20
6.5943112676
 30
0.0
 40
2.999999999990913
100
AcDbArc
 50
270.0
 51
340.5287793654
  0
ARC
  5
80
330
78
100
AcDbEntity
  8
RELEASE-FINAL
  6
Continuous
 62
     1
370
    25
100
AcDbCircle
 10
9.7672925803
 20
9.5943112676
 30
0.0
 40
6.000000000000001
100
AcDbArc
 50
180.0
 51
270.0
  0
ARC
  5
81
330
78
100
AcDbEntity
  8
RELEASE-FINAL
  6
Continuous
 62
     1
370
    25
100
AcDbCircle
 10
6.7672925803
 20
14.5943112676
 30
0.0
 40
3.000000000000008
100
AcDbArc
 50
109.4712206345
 51
180.0
  0
ARC
  5
82
330
78
100
AcDbEntity
  8
RELEASE-FINAL
  6
Continuous
 62
     1
370
    25
100
AcDbCircle
 10
5.2672925802
 20
18.8369519547
 30
0.0
 40
1.499999999990899
100
AcDbArc
 50
289.4712206347
 51
0.0
  0
ARC
  5
83
330
78
100
AcDbEntity
  8
RELEASE-FINAL
  6
Continuous
 62
     1
370
    25
100
AcDbCircle
 10
7.7672925802
 20
17.5943112676
 30
0.0
 40
2.999999999965547
100
AcDbArc
 50
0.0
 51
70.528779365
  0
ARC
  5
84
330
78
100
AcDbEntity
  8
RELEASE-FINAL
  6
Continuous
 62
     1
370
    25
100
AcDbCircle
 10
7.1172925802
 20
9.8443112676
 30
0.0
 40
1.100000000000023
100
AcDbArc
 50
180.0
 51
270.0
  0
ARC
  5
85
330
78
100
AcDbEntity
  8
RELEASE-FINAL
  6
Continuous
 62
     1
370
    25
100
AcDbCircle
 10
10.0172925801
 20
6.9443112676
 30
0.0
 40
1.100000000000009
100
AcDbArc
 50
180.0
 51
270.0
  0
LINE
  5
86
330
78
100
AcDbEntity
  8
RELEASE-FINAL
  6
Continuous
 62
     1
370
    25
100
AcDbLine
 10
21.7572925802
 20
21.5843112676
 30
0.0
 11
0.7772925802
 21
21.5843112676
 31
0.0
  0
LINE
  5
87
330
78
100
AcDbEntity
  8
RELEASE-FINAL
  6
Continuous
 62
     1
370
    25
100
AcDbLine
 10
21.7572925802
 20
0.6043112676
 30
0.0
 11
21.7572925802
 21
21.5843112676
 31
0.0
  0
LINE
  5
88
330
78
100
AcDbEntity
  8
RELEASE-FINAL
  6
Continuous
 62
     1
370
    25
100
AcDbLine
 10
0.7672925802
 20
21.5943112676
 30
0.0
 11
0.7672925802
 21
0.5943112676
 31
0.0
  0
LINE
  5
89
330
78
100
AcDbEntity
  8
RELEASE-FINAL
  6
Continuous
 62
     1
370
    25
100
AcDbLine
 10
21.7672925802
 20
21.5943112676
 30
0.0
 11
0.7672925802
 21
21.5943112676
 31
0.0
  0
LINE
  5
8A
330
78
100
AcDbEntity
  8
RELEASE-FINAL
  6
Continuous
 62
     1
370
    25
100
AcDbLine
 10
0.7772925802
 20
0.6043112676
 30
0.0
 11
21.7572925802
 21
0.6043112676
 31
0.0
  0
LINE
  5
8B
330
78
100
AcDbEntity
  8
RELEASE-FINAL
  6
Continuous
 62
     1
370
    25
100
AcDbLine
 10
0.7772925802
 20
21.5843112676
 30
0.0
 11
0.7772925802
 21
0.6043112676
 31
0.0
  0
LINE
  5
8C
330
78
100
AcDbEntity
  8
RELEASE-FINAL
  6
Continuous
 62
     1
370
    25
100
AcDbLine
 10
21.7672925802
 20
0.5943112676
 30
0.0
 11
21.7672925802
 21
21.5943112676
 31
0.0
  0
LINE
  5
8D
330
78
100
AcDbEntity
  8
RELEASE-FINAL
  6
Continuous
 62
     1
370
    25
100
AcDbLine
 10
0.7672925802
 20
0.5943112676
 30
0.0
 11
21.7672925802
 21
0.5943112676
 31
0.0
  0
LINE
  5
8E
330
78
100
AcDbEntity
  8
RELEASE-FINAL
  6
Continuous
 62
     1
370
    25
100
AcDbLine
 10
17.7672925802
 20
10.5943112675
 30
0.0
 11
12.7672925801
 21
10.5943112675
 31
0.0
  0
LINE
  5
8F
330
78
100
AcDbEntity
  8
RELEASE-FINAL
  6
Continuous
 62
     1
370
    25
100
AcDbLine
 10
12.7672925801
 20
10.5943112675
 30
0.0
 11
12.7672925801
 21
10.0943112676
 31
0.0
  0
LINE
  5
90
330
78
100
AcDbEntity
  8
RELEASE-FINAL
  6
Continuous
 62
     1
370
    25
100
AcDbLine
 10
11.2672925801
 20
11.0943112676
 30
0.0
 11
10.2672925802
 21
11.0943112676
 31
0.0
  0
LINE
  5
91
330
78
100
AcDbEntity
  8
RELEASE-FINAL
  6
Continuous
 62
     1
370
    25
100
AcDbLine
 10
10.2672925802
 20
12.5943112676
 30
0.0
 11
10.7672925802
 21
12.5943112676
 31
0.0
  0
LINE
  5
92
330
78
100
AcDbEntity
  8
RELEASE-FINAL
  6
Continuous
 62
     1
370
    25
100
AcDbLine
 10
10.7672925802
 20
12.5943112676
 30
0.0
 11
10.7672925802
 21
17.5943112676
 31
0.0
  0
LINE
  5
93
330
78
100
AcDbEntity
  8
RELEASE-FINAL
  6
Continuous
 62
     1
370
    25
100
AcDbLine
 10
11.2672925801
 20
10.0943112676
 30
0.0
 11
11.2672925801
 21
11.0943112676
 31
0.0
  0
LINE
  5
94
330
78
100
AcDbEntity
  8
RELEASE-FINAL
  6
Continuous
 62
     1
370
    25
100
AcDbLine
 10
19.0099332674
 20
6.5943112676
 30
0.0
 11
19.1815061426
 21
6.5943112676
 31
0.0
  0
LINE
  5
95
330
78
100
AcDbEntity
  8
RELEASE-FINAL
  6
Continuous
 62
     1
370
    25
100
AcDbLine
 10
9.7672925803
 20
3.5943112676
 30
0.0
 11
14.7672925803
 21
3.5943112676
 31
0.0
  0
LINE
  5
96
330
78
100
AcDbEntity
  8
RELEASE-FINAL
  6
Continuous
 62
     1
370
    25
100
AcDbLine
 10
3.7672925803
 20
14.5943112676
 30
0.0
 11
3.7672925803
 21
9.5943112676
 31
0.0
  0
LINE
  5
97
330
78
100
AcDbEntity
  8
RELEASE-FINAL
  6
Continuous
 62
     1
370
    25
100
AcDbLine
 10
6.7672925802
 20
19.0085248299
 30
0.0
 11
6.7672925802
 21
18.8369519547
 31
0.0
  0
LINE
  5
98
330
78
100
AcDbEntity
  8
RELEASE-FINAL
  6
Continuous
 62
     1
370
    25
100
AcDbLine
 10
6.0172925802
 20
11.2443112676
 30
0.0
 11
6.3172925802
 21
14.0443112676
 31
0.0
  0
LINE
  5
99
330
78
100
AcDbEntity
  8
RELEASE-FINAL
  6
Continuous
 62
     1
370
    25
100
AcDbLine
 10
6.3172925802
 20
14.0443112676
 30
0.0
 11
6.4233585973
 21
14.1503772848
 31
0.0
  0
LINE
  5
9A
330
78
100
AcDbEntity
  8
RELEASE-FINAL
  6
Continuous
 62
     1
370
    25
100
AcDbLine
 10
6.4233585973
 20
14.1503772848
 30
0.0
 11
6.3526479192
 21
14.2210879629
 31
0.0
  0
LINE
  5
9B
330
78
100
AcDbEntity
  8
RELEASE-FINAL
  6
Continuous
 62
     1
370
    25
100
AcDbLine
 10
5.645541138
 20
15.6353015252
 30
0.0
 11
5.2919877474
 21
15.2817481347
 31
0.0
  0
LINE
  5
9C
330
78
100
AcDbEntity
  8
RELEASE-FINAL
  6
Continuous
 62
     1
370
    25
100
AcDbLine
 10
6.3526479192
 20
15.6353015252
 30
0.0
 11
5.645541138
 21
15.6353015252
 31
0.0
  0
LINE
  5
9D
330
78
100
AcDbEntity
  8
RELEASE-FINAL
  6
Continuous
 62
     1
370
    25
100
AcDbLine
 10
7.3172925801
 20
14.6706568643
 30
0.0
 11
6.3526479192
 21
15.6353015252
 31
0.0
  0
LINE
  5
9E
330
78
100
AcDbEntity
  8
RELEASE-FINAL
  6
Continuous
 62
     1
370
    25
100
AcDbLine
 10
7.3172925801
 20
9.8443112676
 30
0.0
 11
7.3172925801
 21
14.6706568643
 31
0.0
  0
LINE
  5
9F
330
78
100
AcDbEntity
  8
RELEASE-FINAL
  6
Continuous
 62
     1
370
    25
100
AcDbLine
 10
7.6172925801
 20
9.8443112676
 30
0.0
 11
7.3172925801
 21
9.8443112676
 31
0.0
  0
LINE
  5
A0
330
78
100
AcDbEntity
  8
RELEASE-FINAL
  6
Continuous
 62
     1
370
    25
100
AcDbLine
 10
7.6172925801
 20
9.9443112676
 30
0.0
 11
7.6172925801
 21
9.8443112676
 31
0.0
  0
LINE
  5
A1
330
78
100
AcDbEntity
  8
RELEASE-FINAL
  6
Continuous
 62
     1
370
    25
100
AcDbLine
 10
9.1172925802
 20
9.6103366714
 30
0.0
 11
9.1172925802
 21
9.9443112676
 31
0.0
  0
LINE
  5
A2
330
78
100
AcDbEntity
  8
RELEASE-FINAL
  6
Continuous
 62
     1
370
    25
100
AcDbLine
 10
7.6172925802
 20
8.7443112676
 30
0.0
 11
9.1172925802
 21
9.6103366714
 31
0.0
  0
LINE
  5
A3
330
78
100
AcDbEntity
  8
RELEASE-FINAL
  6
Continuous
 62
     1
370
    25
100
AcDbLine
 10
7.6172925802
 20
8.7443112676
 30
0.0
 11
7.1172925802
 21
8.7443112676
 31
0.0
  0
LINE
  5
A4
330
78
100
AcDbEntity
  8
RELEASE-FINAL
  6
Continuous
 62
     1
370
    25
100
AcDbLine
 10
6.0172925802
 20
9.8443112676
 30
0.0
 11
6.0172925802
 21
9.9443112676
 31
0.0
  0
LINE
  5
A5
330
78
100
AcDbEntity
  8
RELEASE-FINAL
  6
Continuous
 62
     1
370
    25
100
AcDbLine
 10
6.0172925802
 20
9.9443112676
 30
0.0
 11
6.6172925802
 21
9.9443112676
 31
0.0
  0
LINE
  5
A6
330
78
100
AcDbEntity
  8
RELEASE-FINAL
  6
Continuous
 62
     1
370
    25
100
AcDbLine
 10
6.6172925802
 20
9.9443112676
 30
0.0
 11
6.6172925802
 21
10.2443112676
 31
0.0
  0
LINE
  5
A7
330
78
100
AcDbEntity
  8
RELEASE-FINAL
  6
Continuous
 62
     1
370
    25
100
AcDbLine
 10
6.6172925802
 20
10.2443112676
 30
0.0
 11
6.0172925802
 21
10.2443112676
 31
0.0
  0
LINE
  5
A8
330
78
100
AcDbEntity
  8
RELEASE-FINAL
  6
Continuous
 62
     1
370
    25
100
AcDbLine
 10
6.0172925802
 20
10.2443112676
 30
0.0
 11
6.0172925802
 21
11.2443112676
 31
0.0
  0
LINE
  5
A9
330
78
100
AcDbEntity
  8
RELEASE-FINAL
  6
Continuous
 62
     1
370
    25
100
AcDbLine
 10
14.8436381768
 20
7.1443112676
 30
0.0
 11
15.8082828378
 21
6.1796666066
 31
0.0
  0
LINE
  5
AA
330
78
100
AcDbEntity
  8
RELEASE-FINAL
  6
Continuous
 62
     1
370
    25
100
AcDbLine
 10
15.8082828378
 20
6.1796666066
 30
0.0
 11
15.8082828378
 21
5.4725598254
 31
0.0
  0
LINE
  5
AB
330
78
100
AcDbEntity
  8
RELEASE-FINAL
  6
Continuous
 62
     1
370
    25
100
AcDbLine
 10
15.8082828378
 20
5.4725598254
 30
0.0
 11
15.4547294472
 21
5.1190064349
 31
0.0
  0
LINE
  5
AC
330
78
100
AcDbEntity
  8
RELEASE-FINAL
  6
Continuous
 62
     1
370
    25
100
AcDbLine
 10
14.3233585973
 20
6.2503772848
 30
0.0
 11
14.3940692754
 21
6.1796666067
 31
0.0
  0
LINE
  5
AD
330
78
100
AcDbEntity
  8
RELEASE-FINAL
  6
Continuous
 62
     1
370
    25
100
AcDbLine
 10
14.2172925801
 20
6.1443112676
 30
0.0
 11
14.3233585973
 21
6.2503772848
 31
0.0
  0
LINE
  5
AE
330
78
100
AcDbEntity
  8
RELEASE-FINAL
  6
Continuous
 62
     1
370
    25
100
AcDbLine
 10
11.4172925801
 20
5.8443112676
 30
0.0
 11
14.2172925801
 21
6.1443112676
 31
0.0
  0
LINE
  5
AF
330
78
100
AcDbEntity
  8
RELEASE-FINAL
  6
Continuous
 62
     1
370
    25
100
AcDbLine
 10
10.0172925801
 20
5.8443112676
 30
0.0
 11
10.1172925801
 21
5.8443112676
 31
0.0
  0
LINE
  5
B0
330
78
100
AcDbEntity
  8
RELEASE-FINAL
  6
Continuous
 62
     1
370
    25
100
AcDbLine
 10
10.1172925801
 20
7.4443112676
 30
0.0
 11
10.0172925801
 21
7.4443112676
 31
0.0
  0
LINE
  5
B1
330
78
100
AcDbEntity
  8
RELEASE-FINAL
  6
Continuous
 62
     1
370
    25
100
AcDbLine
 10
9.7833179838
 20
8.9443112676
 30
0.0
 11
10.1172925801
 21
8.9443112676
 31
0.0
  0
LINE
  5
B2
330
78
100
AcDbEntity
  8
RELEASE-FINAL
  6
Continuous
 62
     1
370
    25
100
AcDbLine
 10
10.1172925801
 20
6.4443112676
 30
0.0
 11
10.4172925801
 21
6.4443112676
 31
0.0
  0
LINE
  5
B3
330
78
100
AcDbEntity
  8
RELEASE-FINAL
  6
Continuous
 62
     1
370
    25
100
AcDbLine
 10
8.9172925801
 20
7.4443112676
 30
0.0
 11
9.7833179838
 21
8.9443112676
 31
0.0
  0
LINE
  5
B4
330
78
100
AcDbEntity
  8
RELEASE-FINAL
  6
Continuous
 62
     1
370
    25
100
AcDbLine
 10
10.1172925801
 20
5.8443112676
 30
0.0
 11
10.1172925801
 21
6.4443112676
 31
0.0
  0
LINE
  5
B5
330
78
100
AcDbEntity
  8
RELEASE-FINAL
  6
Continuous
 62
     1
370
    25
100
AcDbLine
 10
10.4172925801
 20
6.4443112676
 30
0.0
 11
10.4172925801
 21
5.8443112676
 31
0.0
  0
LINE
  5
B6
330
78
100
AcDbEntity
  8
RELEASE-FINAL
  6
Continuous
 62
     1
370
    25
100
AcDbLine
 10
10.0172925801
 20
7.4443112676
 30
0.0
 11
10.0172925801
 21
7.1443112676
 31
0.0
  0
LINE
  5
B7
330
78
100
AcDbEntity
  8
RELEASE-FINAL
  6
Continuous
 62
     1
370
    25
100
AcDbLine
 10
10.4172925801
 20
5.8443112676
 30
0.0
 11
11.4172925801
 21
5.8443112676
 31
0.0
  0
LINE
  5
B8
330
78
100
AcDbEntity
  8
RELEASE-FINAL
  6
Continuous
 62
     1
370
    25
100
AcDbLine
 10
8.9172925801
 20
6.9443112676
 30
0.0
 11
8.9172925801
 21
7.4443112676
 31
0.0
  0
LINE
  5
B9
330
78
100
AcDbEntity
  8
RELEASE-FINAL
  6
Continuous
 62
     1
370
    25
100
AcDbLine
 10
10.0172925801
 20
7.1443112676
 30
0.0
 11
14.8436381768
 21
7.1443112676
 31
0.0
  0
LINE
  5
BA
330
78
100
AcDbEntity
  8
RELEASE-FINAL
  6
Continuous
 62
     1
370
    25
100
AcDbLine
 10
15.4429168469
 20
8.6686870008
 30
0.0
 11
15.4429168469
 21
8.4686870008
 31
0.0
  0
LINE
  5
BB
330
78
100
AcDbEntity
  8
RELEASE-FINAL
  6
Continuous
 62
     1
370
    25
100
AcDbLine
 10
15.4429168469
 20
8.4686870008
 30
0.0
 11
15.8429168469
 21
8.4686870008
 31
0.0
  0
LINE
  5
BC
330
78
100
AcDbEntity
  8
RELEASE-FINAL
  6
Continuous
 62
     1
370
    25
100
AcDbLine
 10
15.8429168469
 20
8.4686870008
 30
0.0
 11
15.8429168469
 21
8.6686870008
 31
0.0
  0
LINE
  5
BD
330
78
100
AcDbEntity
  8
RELEASE-FINAL
  6
Continuous
 62
     1
370
    25
100
AcDbLine
 10
16.3929168469
 20
8.6686870008
 30
0.0
 11
16.3929168469
 21
7.1686870008
 31
0.0
  0
LINE
  5
BE
330
78
100
AcDbEntity
  8
RELEASE-FINAL
  6
Continuous
 62
     1
370
    25
100
AcDbLine
 10
16.3929168469
 20
7.1686870008
 30
0.0
 11
14.8929168469
 21
7.1686870008
 31
0.0
  0
LINE
  5
BF
330
78
100
AcDbEntity
  8
RELEASE-FINAL
  6
Continuous
 62
     1
370
    25
100
AcDbLine
 10
15.8429168469
 20
9.0686870008
 30
0.0
 11
15.8429168469
 21
8.6686870008
 31
0.0
  0
LINE
  5
C0
330
78
100
AcDbEntity
  8
RELEASE-FINAL
  6
Continuous
 62
     1
370
    25
100
AcDbLine
 10
15.8429168469
 20
8.6686870008
 30
0.0
 11
15.4429168469
 21
8.6686870008
 31
0.0
  0
LINE
  5
C1
330
78
100
AcDbEntity
  8
RELEASE-FINAL
  6
Continuous
 62
     1
370
    25
100
AcDbLine
 10
15.4429168469
 20
8.6686870008
 30
0.0
 11
15.4429168469
 21
9.0686870008
 31
0.0
  0
LINE
  5
C2
330
78
100
AcDbEntity
  8
RELEASE-FINAL
  6
Continuous
 62
     1
370
    25
100
AcDbLine
 10
14.8929168469
 20
9.0686870008
 30
0.0
 11
14.8929168469
 21
10.5686870008
 31
0.0
  0
LINE
  5
C3
330
78
100
AcDbEntity
  8
RELEASE-FINAL
  6
Continuous
 62
     1
370
    25
100
AcDbLine
 10
14.8929168469
 20
10.5686870008
 30
0.0
 11
16.3929168469
 21
10.5686870008
 31
0.0
  0
LINE
  5
C4
330
78
100
AcDbEntity
  8
RELEASE-FINAL
  6
Continuous
 62
     1
370
    25
100
AcDbLine
 10
11.3530790177
 20
7.5300977052
 30
0.0
 11
11.6287032845
 21
7.2544734384
 31
0.0
  0
LINE
  5
C5
330
78
100
AcDbEntity
  8
RELEASE-FINAL
  6
Continuous
 62
     1
370
    25
100
AcDbLine
 10
12.7672925801
 20
8.9443112676
 30
0.0
 11
13.0429168469
 21
8.6686870008
 31
0.0
  0
LINE
  5
C6
330
78
100
AcDbEntity
  8
RELEASE-FINAL
  6
Continuous
 62
     1
370
    25
100
AcDbLine
 10
7.7030790177
 20
11.1800977052
 30
0.0
 11
7.4274547509
 21
11.455721972
 31
0.0
  0
LINE
  5
C7
330
78
100
AcDbEntity
  8
RELEASE-FINAL
  6
Continuous
 62
     1
370
    25
100
AcDbLine
 10
9.1172925801
 20
12.5943112676
 30
0.0
 11
8.8416683133
 21
12.8699355344
 31
0.0
  0
LINE
  5
C8
330
78
100
AcDbEntity
  8
RELEASE-FINAL
  6
Continuous
 62
     1
370
    25
100
AcDbLine
 10
7.3416683133
 20
17.7199355344
 30
0.0
 11
7.3416683133
 21
14.7199355344
 31
0.0
  0
LINE
  5
C9
330
78
100
AcDbEntity
  8
RELEASE-FINAL
  6
Continuous
 62
     1
370
    25
100
AcDbLine
 10
8.8416683133
 20
14.7199355344
 30
0.0
 11
8.8416683133
 21
17.7199355344
 31
0.0
  0
LINE
  5
CA
330
78
100
AcDbEntity
  8
RELEASE-FINAL
  6
Continuous
 62
     1
370
    25
100
AcDbLine
 10
12.7672925801
 20
9.9443112676
 30
0.0
 11
12.7672925801
 21
8.9443112676
 31
0.0
  0
LINE
  5
CB
330
78
100
AcDbEntity
  8
RELEASE-FINAL
  6
Continuous
 62
     1
370
    25
100
AcDbLine
 10
11.3530790177
 20
7.5300977052
 30
0.0
 11
11.2672925801
 21
7.4443112676
 31
0.0
  0
LINE
  5
CC
330
78
100
AcDbEntity
  8
RELEASE-FINAL
  6
Continuous
 62
     1
370
    25
100
AcDbLine
 10
11.2672925801
 20
7.4443112676
 30
0.0
 11
10.2672925801
 21
7.4443112676
 31
0.0
  0
LINE
  5
CD
330
78
100
AcDbEntity
  8
RELEASE-FINAL
  6
Continuous
 62
     1
370
    25
100
AcDbLine
 10
10.3672925801
 20
8.9443112676
 30
0.0
 11
11.2672925801
 21
9.8443112676
 31
0.0
  0
LINE
  5
CE
330
78
100
AcDbEntity
  8
RELEASE-FINAL
  6
Continuous
 62
     1
370
    25
100
AcDbLine
 10
12.2172925802
 20
9.3443112676
 30
0.0
 11
11.8172925802
 21
9.3443112676
 31
0.0
  0
LINE
  5
CF
330
78
100
AcDbEntity
  8
RELEASE-FINAL
  6
Continuous
 62
     1
370
    25
100
AcDbLine
 10
12.2172925802
 20
9.6443112676
 30
0.0
 11
12.2172925802
 21
9.3443112676
 31
0.0
  0
LINE
  5
D0
330
78
100
AcDbEntity
  8
RELEASE-FINAL
  6
Continuous
 62
     1
370
    25
100
AcDbLine
 10
11.8172925802
 20
9.6443112676
 30
0.0
 11
12.2172925802
 21
9.6443112676
 31
0.0
  0
LINE
  5
D1
330
78
100
AcDbEntity
  8
RELEASE-FINAL
  6
Continuous
 62
     1
370
    25
100
AcDbLine
 10
11.8172925802
 20
9.3443112676
 30
0.0
 11
11.8172925802
 21
9.6443112676
 31
0.0
  0
LINE
  5
D2
330
78
100
AcDbEntity
  8
RELEASE-FINAL
  6
Continuous
 62
     1
370
    25
100
AcDbLine
 10
10.2672925801
 20
8.9443112676
 30
0.0
 11
10.3672925801
 21
8.9443112676
 31
0.0
  0
LINE
  5
D3
330
78
100
AcDbEntity
  8
RELEASE-FINAL
  6
Continuous
 62
     1
370
    25
100
AcDbLine
 10
11.2672925801
 20
9.8443112676
 30
0.0
 11
11.2672925801
 21
9.9443112676
 31
0.0
  0
LINE
  5
D4
330
78
100
AcDbEntity
  8
RELEASE-FINAL
  6
Continuous
 62
     1
370
    25
100
AcDbLine
 10
9.1172925802
 20
10.1943112676
 30
0.0
 11
10.0172925802
 21
11.0943112676
 31
0.0
  0
LINE
  5
D5
330
78
100
AcDbEntity
  8
RELEASE-FINAL
  6
Continuous
 62
     1
370
    25
100
AcDbLine
 10
9.1172925802
 20
10.0943112676
 30
0.0
 11
9.1172925802
 21
10.1943112676
 31
0.0
  0
LINE
  5
D6
330
78
100
AcDbEntity
  8
RELEASE-FINAL
  6
Continuous
 62
     1
370
    25
100
AcDbLine
 10
7.6172925801
 20
11.0943112676
 30
0.0
 11
7.6172925801
 21
10.0943112676
 31
0.0
  0
LINE
  5
D7
330
78
100
AcDbEntity
  8
RELEASE-FINAL
  6
Continuous
 62
     1
370
    25
100
AcDbLine
 10
7.7030790177
 20
11.1800977052
 30
0.0
 11
7.6172925801
 21
11.0943112676
 31
0.0
  0
LINE
  5
D8
330
78
100
AcDbEntity
  8
RELEASE-FINAL
  6
Continuous
 62
     1
370
    25
100
AcDbLine
 10
9.8172925802
 20
12.0443112676
 30
0.0
 11
9.5172925802
 21
12.0443112676
 31
0.0
  0
LINE
  5
D9
330
78
100
AcDbEntity
  8
RELEASE-FINAL
  6
Continuous
 62
     1
370
    25
100
AcDbLine
 10
9.5172925802
 20
12.0443112676
 30
0.0
 11
9.5172925802
 21
11.6443112676
 31
0.0
  0
LINE
  5
DA
330
78
100
AcDbEntity
  8
RELEASE-FINAL
  6
Continuous
 62
     1
370
    25
100
AcDbLine
 10
9.5172925802
 20
11.6443112676
 30
0.0
 11
9.8172925802
 21
11.6443112676
 31
0.0
  0
LINE
  5
DB
330
78
100
AcDbEntity
  8
RELEASE-FINAL
  6
Continuous
 62
     1
370
    25
100
AcDbLine
 10
9.8172925802
 20
11.6443112676
 30
0.0
 11
9.8172925802
 21
12.0443112676
 31
0.0
  0
LINE
  5
DC
330
78
100
AcDbEntity
  8
RELEASE-FINAL
  6
Continuous
 62
     1
370
    25
100
AcDbLine
 10
10.1172925802
 20
12.5943112676
 30
0.0
 11
9.1172925801
 21
12.5943112676
 31
0.0
  0
LINE
  5
DD
330
78
100
AcDbEntity
  8
RELEASE-FINAL
  6
Continuous
 62
     1
370
    25
100
AcDbLine
 10
10.0172925802
 20
11.0943112676
 30
0.0
 11
10.1172925802
 21
11.0943112676
 31
0.0
  0
LINE
  5
DE
330
78
100
AcDbEntity
  8
RELEASE-FINAL
  6
Continuous
 62
     1
370
    25
100
AcDbLine
 10
8.8416683133
 20
14.5699355344
 30
0.0
 11
8.8416683133
 21
13.5699355344
 31
0.0
  0
LINE
  5
DF
330
78
100
AcDbEntity
  8
RELEASE-FINAL
  6
Continuous
 62
     1
370
    25
100
AcDbLine
 10
8.2916683133
 20
13.5699355344
 30
0.0
 11
8.2916683133
 21
13.1699355344
 31
0.0
  0
LINE
  5
E0
330
78
100
AcDbEntity
  8
RELEASE-FINAL
  6
Continuous
 62
     1
370
    25
100
AcDbLine
 10
8.2916683133
 20
13.1699355344
 30
0.0
 11
7.8916683133
 21
13.1699355344
 31
0.0
  0
LINE
  5
E1
330
78
100
AcDbEntity
  8
RELEASE-FINAL
  6
Continuous
 62
     1
370
    25
100
AcDbLine
 10
7.8916683133
 20
13.1699355344
 30
0.0
 11
7.8916683133
 21
13.5699355344
 31
0.0
  0
LINE
  5
E2
330
78
100
AcDbEntity
  8
RELEASE-FINAL
  6
Continuous
 62
     1
370
    25
100
AcDbLine
 10
7.3416683133
 20
13.5699355344
 30
0.0
 11
7.3416683133
 21
14.5699355344
 31
0.0
  0
LINE
  5
E3
330
78
100
AcDbEntity
  8
RELEASE-FINAL
  6
Continuous
 62
     1
370
    25
100
AcDbLine
 10
14.7429168469
 20
7.1686870008
 30
0.0
 11
13.7429168469
 21
7.1686870008
 31
0.0
  0
LINE
  5
E4
330
78
100
AcDbEntity
  8
RELEASE-FINAL
  6
Continuous
 62
     1
370
    25
100
AcDbLine
 10
13.7429168469
 20
7.7186870008
 30
0.0
 11
13.3429168469
 21
7.7186870008
 31
0.0
  0
LINE
  5
E5
330
78
100
AcDbEntity
  8
RELEASE-FINAL
  6
Continuous
 62
     1
370
    25
100
AcDbLine
 10
13.3429168469
 20
7.7186870008
 30
0.0
 11
13.3429168469
 21
8.1186870008
 31
0.0
  0
LINE
  5
E6
330
78
100
AcDbEntity
  8
RELEASE-FINAL
  6
Continuous
 62
     1
370
    25
100
AcDbLine
 10
13.3429168469
 20
8.1186870008
 30
0.0
 11
13.7429168469
 21
8.1186870008
 31
0.0
  0
LINE
  5
E7
330
78
100
AcDbEntity
  8
RELEASE-FINAL
  6
Continuous
 62
     1
370
    25
100
AcDbLine
 10
13.7429168469
 20
8.6686870008
 30
0.0
 11
14.7429168469
 21
8.6686870008
 31
0.0
  0
LINE
  5
E8
330
78
100
AcDbEntity
  8
RELEASE-FINAL
  6
Continuous
 62
     1
370
    25
100
AcDbLine
 10
7.8916683133
 20
12.9699355344
 30
0.0
 11
7.8916683133
 21
13.1699355344
 31
0.0
  0
LINE
  5
E9
330
78
100
AcDbEntity
  8
RELEASE-FINAL
  6
Continuous
 62
     1
370
    25
100
AcDbLine
 10
8.2916683133
 20
12.9699355344
 30
0.0
 11
7.8916683133
 21
12.9699355344
 31
0.0
  0
LINE
  5
EA
330
78
100
AcDbEntity
  8
RELEASE-FINAL
  6
Continuous
 62
     1
370
    25
100
AcDbLine
 10
8.2916683133
 20
13.1699355344
 30
0.0
 11
8.2916683133
 21
12.9699355344
 31
0.0
  0
LINE
  5
EB
330
78
100
AcDbEntity
  8
RELEASE-FINAL
  6
Continuous
 62
     1
370
    25
100
AcDbLine
 10
8.8416683133
 20
12.8699355344
 30
0.0
 11
8.8416683133
 21
13.1699355344
 31
0.0
  0
LINE
  5
EC
330
78
100
AcDbEntity
  8
RELEASE-FINAL
  6
Continuous
 62
     1
370
    25
100
AcDbLine
 10
7.3416683133
 20
11.3699355344
 30
0.0
 11
7.4274547509
 21
11.455721972
 31
0.0
  0
LINE
  5
ED
330
78
100
AcDbEntity
  8
RELEASE-FINAL
  6
Continuous
 62
     1
370
    25
100
AcDbLine
 10
7.3416683133
 20
13.1699355344
 30
0.0
 11
7.3416683133
 21
11.3699355344
 31
0.0
  0
LINE
  5
EE
330
78
100
AcDbEntity
  8
RELEASE-FINAL
  6
Continuous
 62
     1
370
    25
100
AcDbLine
 10
13.0429168469
 20
8.6686870008
 30
0.0
 11
13.3429168469
 21
8.6686870008
 31
0.0
  0
LINE
  5
EF
330
78
100
AcDbEntity
  8
RELEASE-FINAL
  6
Continuous
 62
     1
370
    25
100
AcDbLine
 10
13.3429168469
 20
8.1186870008
 30
0.0
 11
13.1429168469
 21
8.1186870008
 31
0.0
  0
LINE
  5
F0
330
78
100
AcDbEntity
  8
RELEASE-FINAL
  6
Continuous
 62
     1
370
    25
100
AcDbLine
 10
13.1429168469
 20
8.1186870008
 30
0.0
 11
13.1429168469
 21
7.7186870008
 31
0.0
  0
LINE
  5
F1
330
78
100
AcDbEntity
  8
RELEASE-FINAL
  6
Continuous
 62
     1
370
    25
100
AcDbLine
 10
13.1429168469
 20
7.7186870008
 30
0.0
 11
13.3429168469
 21
7.7186870008
 31
0.0
  0
LINE
  5
F2
330
78
100
AcDbEntity
  8
RELEASE-FINAL
  6
Continuous
 62
     1
370
    25
100
AcDbLine
 10
13.3429168469
 20
7.1686870008
 30
0.0
 11
11.5429168469
 21
7.1686870008
 31
0.0
  0
LINE
  5
F3
330
78
100
AcDbEntity
  8
RELEASE-FINAL
  6
Continuous
 62
     1
370
    25
100
AcDbLine
 10
11.5429168469
 20
7.1686870008
 30
0.0
 11
11.6287032845
 21
7.2544734384
 31
0.0
  0
LINE
  5
F4
330
78
100
AcDbEntity
  8
RELEASE-FINAL
  6
Continuous
 62
     1
370
    25
100
AcDbLine
 10
7.3416683133
 20
18.8699355344
 30
0.0
 11
7.3416683133
 21
17.8699355344
 31
0.0
  0
LINE
  5
F5
330
78
100
AcDbEntity
  8
RELEASE-FINAL
  6
Continuous
 62
     1
370
    25
100
AcDbLine
 10
7.7416683133
 20
18.8699355344
 30
0.0
 11
7.3416683133
 21
18.8699355344
 31
0.0
  0
LINE
  5
F6
330
78
100
AcDbEntity
  8
RELEASE-FINAL
  6
Continuous
 62
     1
370
    25
100
AcDbLine
 10
7.7416683133
 20
19.4699355344
 30
0.0
 11
7.7416683133
 21
18.8699355344
 31
0.0
  0
LINE
  5
F7
330
78
100
AcDbEntity
  8
RELEASE-FINAL
  6
Continuous
 62
     1
370
    25
100
AcDbLine
 10
7.4416683133
 20
19.4699355344
 30
0.0
 11
7.7416683133
 21
19.4699355344
 31
0.0
  0
LINE
  5
F8
330
78
100
AcDbEntity
  8
RELEASE-FINAL
  6
Continuous
 62
     1
370
    25
100
AcDbLine
 10
7.4416683133
 20
19.8699355344
 30
0.0
 11
7.4416683133
 21
19.4699355344
 31
0.0
  0
LINE
  5
F9
330
78
100
AcDbEntity
  8
RELEASE-FINAL
  6
Continuous
 62
     1
370
    25
100
AcDbLine
 10
8.7416683133
 20
19.8699355344
 30
0.0
 11
7.4416683133
 21
19.8699355344
 31
0.0
  0
LINE
  5
FA
330
78
100
AcDbEntity
  8
RELEASE-FINAL
  6
Continuous
 62
     1
370
    25
100
AcDbLine
 10
8.7416683133
 20
19.4699355344
 30
0.0
 11
8.7416683133
 21
19.8699355344
 31
0.0
  0
LINE
  5
FB
330
78
100
AcDbEntity
  8
RELEASE-FINAL
  6
Continuous
 62
     1
370
    25
100
AcDbLine
 10
8.4416683133
 20
19.4699355344
 30
0.0
 11
8.7416683133
 21
19.4699355344
 31
0.0
  0
LINE
  5
FC
330
78
100
AcDbEntity
  8
RELEASE-FINAL
  6
Continuous
 62
     1
370
    25
100
AcDbLine
 10
8.4416683133
 20
18.8699355344
 30
0.0
 11
8.4416683133
 21
19.4699355344
 31
0.0
  0
LINE
  5
FD
330
78
100
AcDbEntity
  8
RELEASE-FINAL
  6
Continuous
 62
     1
370
    25
100
AcDbLine
 10
8.8416683133
 20
18.8699355344
 30
0.0
 11
8.4416683133
 21
18.8699355344
 31
0.0
  0
LINE
  5
FE
330
78
100
AcDbEntity
  8
RELEASE-FINAL
  6
Continuous
 62
     1
370
    25
100
AcDbLine
 10
8.8416683133
 20
17.8699355344
 30
0.0
 11
8.8416683133
 21
18.8699355344
 31
0.0
  0
LINE
  5
FF
330
78
100
AcDbEntity
  8
RELEASE-FINAL
  6
Continuous
 62
     1
370
    25
100
AcDbLine
 10
16.5429168469
 20
10.5686870008
 30
0.0
 11
17.5429168469
 21
10.5686870008
 31
0.0
  0
LINE
  5
100
330
78
100
AcDbEntity
  8
RELEASE-FINAL
  6
Continuous
 62
     1
370
    25
100
AcDbLine
 10
17.5429168469
 20
10.5686870008
 30
0.0
 11
17.5429168469
 21
10.1686870008
 31
0.0
  0
LINE
  5
101
330
78
100
AcDbEntity
  8
RELEASE-FINAL
  6
Continuous
 62
     1
370
    25
100
AcDbLine
 10
17.5429168469
 20
10.1686870008
 30
0.0
 11
18.1429168469
 21
10.1686870008
 31
0.0
  0
LINE
  5
102
330
78
100
AcDbEntity
  8
RELEASE-FINAL
  6
Continuous
 62
     1
370
    25
100
AcDbLine
 10
18.1429168469
 20
10.1686870008
 30
0.0
 11
18.1429168469
 21
10.4686870008
 31
0.0
  0
LINE
  5
103
330
78
100
AcDbEntity
  8
RELEASE-FINAL
  6
Continuous
 62
     1
370
    25
100
AcDbLine
 10
18.1429168469
 20
10.4686870008
 30
0.0
 11
18.5429168469
 21
10.4686870008
 31
0.0
  0
LINE
  5
104
330
78
100
AcDbEntity
  8
RELEASE-FINAL
  6
Continuous
 62
     1
370
    25
100
AcDbLine
 10
18.5429168469
 20
10.4686870008
 30
0.0
 11
18.5429168469
 21
9.1686870008
 31
0.0
  0
LINE
  5
105
330
78
100
AcDbEntity
  8
RELEASE-FINAL
  6
Continuous
 62
     1
370
    25
100
AcDbLine
 10
18.5429168469
 20
9.1686870008
 30
0.0
 11
18.1429168469
 21
9.1686870008
 31
0.0
  0
LINE
  5
106
330
78
100
AcDbEntity
  8
RELEASE-FINAL
  6
Continuous
 62
     1
370
    25
100
AcDbLine
 10
18.1429168469
 20
9.1686870008
 30
0.0
 11
18.1429168469
 21
9.4686870008
 31
0.0
  0
LINE
  5
107
330
78
100
AcDbEntity
  8
RELEASE-FINAL
  6
Continuous
 62
     1
370
    25
100
AcDbLine
 10
18.1429168469
 20
9.4686870008
 30
0.0
 11
17.5429168469
 21
9.4686870008
 31
0.0
  0
LINE
  5
108
330
78
100
AcDbEntity
  8
RELEASE-FINAL
  6
Continuous
 62
     1
370
    25
100
AcDbLine
 10
17.5429168469
 20
9.4686870008
 30
0.0
 11
17.5429168469
 21
9.0686870008
 31
0.0
  0
LINE
  5
109
330
78
100
AcDbEntity
  8
RELEASE-FINAL
  6
Continuous
 62
     1
370
    25
100
AcDbLine
 10
17.5429168469
 20
9.0686870008
 30
0.0
 11
16.5429168469
 21
9.0686870008
 31
0.0
  0
LINE
  5
10A
330
78
100
AcDbEntity
  8
RELEASE-FINAL
  6
Continuous
 62
     1
370
    25
100
AcDbLine
 10
8.8416683133
 20
13.5699355344
 30
0.0
 11
8.8416683133
 21
13.1699355344
 31
0.0
  0
LINE
  5
10B
330
78
100
AcDbEntity
  8
RELEASE-FINAL
  6
Continuous
 62
     1
370
    25
100
AcDbLine
 10
16.3929168469
 20
9.0686870008
 30
0.0
 11
16.3929168469
 21
8.6686870008
 31
0.0
  0
LINE
  5
10C
330
78
100
AcDbEntity
  8
RELEASE-FINAL
  6
Continuous
 62
     1
370
    25
100
AcDbLine
 10
13.7429168469
 20
8.6686870008
 30
0.0
 11
13.3429168469
 21
8.6686870008
 31
0.0
  0
LINE
  5
10D
330
78
100
AcDbEntity
  8
RELEASE-FINAL
  6
Continuous
 62
     1
370
    25
100
AcDbLine
 10
13.3429168469
 20
7.1686870008
 30
0.0
 11
13.7429168469
 21
7.1686870008
 31
0.0
  0
LINE
  5
10E
330
78
100
AcDbEntity
  8
RELEASE-FINAL
  6
Continuous
 62
     1
370
    25
100
AcDbLine
 10
14.8929168469
 20
9.0686870008
 30
0.0
 11
14.8929168469
 21
8.6686870008
 31
0.0
  0
LINE
  5
10F
330
78
100
AcDbEntity
  8
RELEASE-FINAL
  6
Continuous
 62
     1
370
    25
100
AcDbLine
 10
7.3416683133
 20
13.1699355344
 30
0.0
 11
7.3416683133
 21
13.5699355344
 31
0.0
  0
LINE
  5
110
330
78
100
AcDbEntity
  8
RELEASE-FINAL
  6
Continuous
 62
     1
370
    25
100
AcDbLine
 10
15.1718867348
 20
4.8361637224
 30
0.0
 11
15.4547294472
 21
5.1190064349
 31
0.0
  0
LINE
  5
111
330
78
100
AcDbEntity
  8
RELEASE-FINAL
  6
Continuous
 62
     1
370
    25
100
AcDbLine
 10
14.111226563
 20
5.8968238942
 30
0.0
 11
14.3940692754
 21
6.1796666067
 31
0.0
  0
LINE
  5
112
330
78
100
AcDbEntity
  8
RELEASE-FINAL
  6
Continuous
 62
     1
370
    25
100
AcDbLine
 10
5.009145035
 20
14.9989054222
 30
0.0
 11
5.2919877474
 21
15.2817481347
 31
0.0
  0
LINE
  5
113
330
78
100
AcDbEntity
  8
RELEASE-FINAL
  6
Continuous
 62
     1
370
    25
100
AcDbLine
 10
6.0698052067
 20
13.9382452505
 30
0.0
 11
6.3526479192
 21
14.2210879629
 31
0.0
  0
LINE
  5
114
330
78
100
AcDbEntity
  8
RELEASE-FINAL
  6
Continuous
 62
     1
370
    25
100
AcDbLine
 10
14.111226563
 20
5.8968238942
 30
0.0
 11
13.8990945286
 21
5.6846918598
 31
0.0
  0
LINE
  5
115
330
78
100
AcDbEntity
  8
RELEASE-FINAL
  6
Continuous
 62
     1
370
    25
100
AcDbLine
 10
14.7204148722
 20
4.3846918598
 30
0.0
 11
15.1718867348
 21
4.8361637224
 31
0.0
  0
LINE
  5
116
330
78
100
AcDbEntity
  8
RELEASE-FINAL
  6
Continuous
 62
     1
370
    25
100
AcDbLine
 10
8.6777741851
 20
4.3846918598
 30
0.0
 11
14.7204148722
 21
4.3846918598
 31
0.0
  0
LINE
  5
117
330
78
100
AcDbEntity
  8
RELEASE-FINAL
  6
Continuous
 62
     1
370
    25
100
AcDbLine
 10
6.6751008483
 20
6.3873651966
 30
0.0
 11
8.6777741851
 21
4.3846918598
 31
0.0
  0
LINE
  5
118
330
78
100
AcDbEntity
  8
RELEASE-FINAL
  6
Continuous
 62
     1
370
    25
100
AcDbLine
 10
9.4990945286
 20
5.6846918598
 30
0.0
 11
7.73576102
 21
7.4480253684
 31
0.0
  0
LINE
  5
119
330
78
100
AcDbEntity
  8
RELEASE-FINAL
  6
Continuous
 62
     1
370
    25
100
AcDbLine
 10
13.8990945286
 20
5.6846918598
 30
0.0
 11
9.4990945286
 21
5.6846918598
 31
0.0
  0
LINE
  5
11A
330
78
100
AcDbEntity
  8
RELEASE-FINAL
  6
Continuous
 62
     1
370
    25
100
AcDbLine
 10
5.8576731724
 20
9.3261132161
 30
0.0
 11
7.621006681
 21
7.5627797075
 31
0.0
  0
LINE
  5
11B
330
78
100
AcDbEntity
  8
RELEASE-FINAL
  6
Continuous
 62
     1
370
    25
100
AcDbLine
 10
6.5603465092
 20
6.5021195357
 30
0.0
 11
4.5576731724
 21
8.5047928725
 31
0.0
  0
LINE
  5
11C
330
78
100
AcDbEntity
  8
RELEASE-FINAL
  6
Continuous
 62
     1
370
    25
100
AcDbLine
 10
4.5576731724
 20
8.5047928725
 30
0.0
 11
4.5576731724
 21
14.5474335596
 31
0.0
  0
LINE
  5
11D
330
78
100
AcDbEntity
  8
RELEASE-FINAL
  6
Continuous
 62
     1
370
    25
100
AcDbLine
 10
4.5576731724
 20
14.5474335596
 30
0.0
 11
5.009145035
 21
14.9989054222
 31
0.0
  0
LINE
  5
11E
330
78
100
AcDbEntity
  8
RELEASE-FINAL
  6
Continuous
 62
     1
370
    25
100
AcDbLine
 10
6.0698052067
 20
13.9382452505
 30
0.0
 11
5.8576731724
 21
13.7261132161
 31
0.0
  0
LINE
  5
11F
330
78
100
AcDbEntity
  8
RELEASE-FINAL
  6
Continuous
 62
     1
370
    25
100
AcDbLine
 10
5.8576731724
 20
13.7261132161
 30
0.0
 11
5.8576731724
 21
9.3261132161
 31
0.0
  0
LINE
  5
120
330
78
100
AcDbEntity
  8
RELEASE-FINAL
  6
Continuous
 62
     1
370
    25
100
AcDbLine
 10
16.5014578666
 20
9.0686870008
 30
0.0
 11
16.5429168469
 21
9.0686870008
 31
0.0
  0
LINE
  5
121
330
78
100
AcDbEntity
  8
RELEASE-FINAL
  6
Continuous
 62
     1
370
    25
100
AcDbLine
 10
16.5014578666
 20
10.5686870008
 30
0.0
 11
16.5429168469
 21
10.5686870008
 31
0.0
  0
LINE
  5
122
330
78
100
AcDbEntity
  8
RELEASE-FINAL
  6
Continuous
 62
     1
370
    25
100
AcDbLine
 10
16.4343758273
 20
9.0686870008
 30
0.0
 11
16.3929168469
 21
9.0686870008
 31
0.0
  0
LINE
  5
123
330
78
100
AcDbEntity
  8
RELEASE-FINAL
  6
Continuous
 62
     1
370
    25
100
AcDbLine
 10
16.4343758273
 20
10.5686870008
 30
0.0
 11
16.3929168469
 21
10.5686870008
 31
0.0
  0
LINE
  5
124
330
78
100
AcDbEntity
  8
RELEASE-FINAL
  6
Continuous
 62
     1
370
    25
100
AcDbLine
 10
16.4343758273
 20
9.0686870008
 30
0.0
 11
16.5014578666
 21
9.0686870008
 31
0.0
  0
LINE
  5
125
330
78
100
AcDbEntity
  8
RELEASE-FINAL
  6
Continuous
 62
     1
370
    25
100
AcDbLine
 10
16.4343758273
 20
10.5686870008
 30
0.0
 11
16.5014578666
 21
10.5686870008
 31
0.0
  0
LINE
  5
126
330
78
100
AcDbEntity
  8
RELEASE-FINAL
  6
Continuous
 62
     1
370
    25
100
AcDbLine
 10
9.1172925802
 20
10.0943112676
 30
0.0
 11
9.1172925802
 21
10.0528522872
 31
0.0
  0
LINE
  5
127
330
78
100
AcDbEntity
  8
RELEASE-FINAL
  6
Continuous
 62
     1
370
    25
100
AcDbLine
 10
7.6172925801
 20
10.0943112676
 30
0.0
 11
7.6172925801
 21
10.0528522872
 31
0.0
  0
LINE
  5
128
330
78
100
AcDbEntity
  8
RELEASE-FINAL
  6
Continuous
 62
     1
370
    25
100
AcDbLine
 10
9.1172925802
 20
9.9443112676
 30
0.0
 11
9.1172925802
 21
9.9857702479
 31
0.0
  0
LINE
  5
129
330
78
100
AcDbEntity
  8
RELEASE-FINAL
  6
Continuous
 62
     1
370
    25
100
AcDbLine
 10
7.6172925801
 20
9.9443112676
 30
0.0
 11
7.6172925801
 21
9.9857702479
 31
0.0
  0
LINE
  5
12A
330
78
100
AcDbEntity
  8
RELEASE-FINAL
  6
Continuous
 62
     1
370
    25
100
AcDbLine
 10
9.1172925802
 20
10.0528522872
 30
0.0
 11
9.1172925802
 21
9.9857702479
 31
0.0
  0
LINE
  5
12B
330
78
100
AcDbEntity
  8
RELEASE-FINAL
  6
Continuous
 62
     1
370
    25
100
AcDbLine
 10
7.6172925801
 20
10.0528522872
 30
0.0
 11
7.6172925801
 21
9.9857702479
 31
0.0
  0
LINE
  5
12C
330
78
100
AcDbEntity
  8
RELEASE-FINAL
  6
Continuous
 62
     1
370
    25
100
AcDbLine
 10
8.8416683133
 20
17.7199355344
 30
0.0
 11
8.8416683133
 21
17.7613945148
 31
0.0
  0
LINE
  5
12D
330
78
100
AcDbEntity
  8
RELEASE-FINAL
  6
Continuous
 62
     1
370
    25
100
AcDbLine
 10
7.3416683133
 20
17.7199355344
 30
0.0
 11
7.3416683133
 21
17.7613945148
 31
0.0
  0
LINE
  5
12E
330
78
100
AcDbEntity
  8
RELEASE-FINAL
  6
Continuous
 62
     1
370
    25
100
AcDbLine
 10
7.3416683133
 20
17.8699355344
 30
0.0
 11
7.3416683133
 21
17.8284765541
 31
0.0
  0
LINE
  5
12F
330
78
100
AcDbEntity
  8
RELEASE-FINAL
  6
Continuous
 62
     1
370
    25
100
AcDbLine
 10
8.8416683133
 20
17.8699355344
 30
0.0
 11
8.8416683133
 21
17.8284765541
 31
0.0
  0
LINE
  5
130
330
78
100
AcDbEntity
  8
RELEASE-FINAL
  6
Continuous
 62
     1
370
    25
100
AcDbLine
 10
7.3416683133
 20
17.8284765541
 30
0.0
 11
7.3416683133
 21
17.7613945148
 31
0.0
  0
LINE
  5
131
330
78
100
AcDbEntity
  8
RELEASE-FINAL
  6
Continuous
 62
     1
370
    25
100
AcDbLine
 10
8.8416683133
 20
17.8284765541
 30
0.0
 11
8.8416683133
 21
17.7613945148
 31
0.0
  0
LINE
  5
132
330
78
100
AcDbEntity
  8
RELEASE-FINAL
  6
Continuous
 62
     1
370
    25
100
AcDbLine
 10
11.2672925801
 20
10.0943112676
 30
0.0
 11
11.2672925801
 21
10.0528522872
 31
0.0
  0
LINE
  5
133
330
78
100
AcDbEntity
  8
RELEASE-FINAL
  6
Continuous
 62
     1
370
    25
100
AcDbLine
 10
12.7672925801
 20
10.0943112676
 30
0.0
 11
12.7672925801
 21
10.0528522872
 31
0.0
  0
LINE
  5
134
330
78
100
AcDbEntity
  8
RELEASE-FINAL
  6
Continuous
 62
     1
370
    25
100
AcDbLine
 10
12.7672925801
 20
9.9443112676
 30
0.0
 11
12.7672925801
 21
9.9857702479
 31
0.0
  0
LINE
  5
135
330
78
100
AcDbEntity
  8
RELEASE-FINAL
  6
Continuous
 62
     1
370
    25
100
AcDbLine
 10
11.2672925801
 20
9.9443112676
 30
0.0
 11
11.2672925801
 21
9.9857702479
 31
0.0
  0
LINE
  5
136
330
78
100
AcDbEntity
  8
RELEASE-FINAL
  6
Continuous
 62
     1
370
    25
100
AcDbLine
 10
12.7672925801
 20
9.9857702479
 30
0.0
 11
12.7672925801
 21
10.0528522872
 31
0.0
  0
LINE
  5
137
330
78
100
AcDbEntity
  8
RELEASE-FINAL
  6
Continuous
 62
     1
370
    25
100
AcDbLine
 10
11.2672925801
 20
9.9857702479
 30
0.0
 11
11.2672925801
 21
10.0528522872
 31
0.0
  0
LINE
  5
138
330
78
100
AcDbEntity
  8
RELEASE-FINAL
  6
Continuous
 62
     1
370
    25
100
AcDbLine
 10
10.1172925802
 20
12.5943112676
 30
0.0
 11
10.1587515605
 21
12.5943112676
 31
0.0
  0
LINE
  5
139
330
78
100
AcDbEntity
  8
RELEASE-FINAL
  6
Continuous
 62
     1
370
    25
100
AcDbLine
 10
10.1172925802
 20
11.0943112676
 30
0.0
 11
10.1587515605
 21
11.0943112676
 31
0.0
  0
LINE
  5
13A
330
78
100
AcDbEntity
  8
RELEASE-FINAL
  6
Continuous
 62
     1
370
    25
100
AcDbLine
 10
10.2672925802
 20
12.5943112676
 30
0.0
 11
10.2258335998
 21
12.5943112676
 31
0.0
  0
LINE
  5
13B
330
78
100
AcDbEntity
  8
RELEASE-FINAL
  6
Continuous
 62
     1
370
    25
100
AcDbLine
 10
10.2672925802
 20
11.0943112676
 30
0.0
 11
10.2258335998
 21
11.0943112676
 31
0.0
  0
LINE
  5
13C
330
78
100
AcDbEntity
  8
RELEASE-FINAL
  6
Continuous
 62
     1
370
    25
100
AcDbLine
 10
10.1587515605
 20
12.5943112676
 30
0.0
 11
10.2258335998
 21
12.5943112676
 31
0.0
  0
LINE
  5
13D
330
78
100
AcDbEntity
  8
RELEASE-FINAL
  6
Continuous
 62
     1
370
    25
100
AcDbLine
 10
10.1587515605
 20
11.0943112676
 30
0.0
 11
10.2258335998
 21
11.0943112676
 31
0.0
  0
LINE
  5
13E
330
78
100
AcDbEntity
  8
RELEASE-FINAL
  6
Continuous
 62
     1
370
    25
100
AcDbLine
 10
7.6296950028
 20
7.5540913856
 30
0.0
 11
7.659010929
 21
7.5247754594
 31
0.0
  0
LINE
  5
13F
330
78
100
AcDbEntity
  8
RELEASE-FINAL
  6
Continuous
 62
     1
370
    25
100
AcDbLine
 10
6.5690348311
 20
6.4934312138
 30
0.0
 11
6.5983507573
 21
6.4641152876
 31
0.0
  0
LINE
  5
140
330
78
100
AcDbEntity
  8
RELEASE-FINAL
  6
Continuous
 62
     1
370
    25
100
AcDbLine
 10
7.73576102
 20
7.4480253684
 30
0.0
 11
7.7064450939
 21
7.4773412945
 31
0.0
  0
LINE
  5
141
330
78
100
AcDbEntity
  8
RELEASE-FINAL
  6
Continuous
 62
     1
370
    25
100
AcDbLine
 10
6.6751008483
 20
6.3873651966
 30
0.0
 11
6.6457849222
 21
6.4166811227
 31
0.0
  0
LINE
  5
142
330
78
100
AcDbEntity
  8
RELEASE-FINAL
  6
Continuous
 62
     1
370
    25
100
AcDbLine
 10
7.659010929
 20
7.5247754594
 30
0.0
 11
7.7064450939
 21
7.4773412945
 31
0.0
  0
LINE
  5
143
330
78
100
AcDbEntity
  8
RELEASE-FINAL
  6
Continuous
 62
     1
370
    25
100
AcDbLine
 10
6.5983507573
 20
6.4641152876
 30
0.0
 11
6.6457849222
 21
6.4166811227
 31
0.0
  0
LINE
  5
144
330
78
100
AcDbEntity
  8
RELEASE-FINAL
  6
Continuous
 62
     1
370
    25
100
AcDbLine
 10
7.3416683133
 20
14.5699355344
 30
0.0
 11
7.3416683133
 21
14.6113945148
 31
0.0
  0
LINE
  5
145
330
78
100
AcDbEntity
  8
RELEASE-FINAL
  6
Continuous
 62
     1
370
    25
100
AcDbLine
 10
8.8416683133
 20
14.5699355344
 30
0.0
 11
8.8416683133
 21
14.6113945148
 31
0.0
  0
LINE
  5
146
330
78
100
AcDbEntity
  8
RELEASE-FINAL
  6
Continuous
 62
     1
370
    25
100
AcDbLine
 10
7.3416683133
 20
14.7199355344
 30
0.0
 11
7.3416683133
 21
14.6784765541
 31
0.0
  0
LINE
  5
147
330
78
100
AcDbEntity
  8
RELEASE-FINAL
  6
Continuous
 62
     1
370
    25
100
AcDbLine
 10
8.8416683133
 20
14.7199355344
 30
0.0
 11
8.8416683133
 21
14.6784765541
 31
0.0
  0
LINE
  5
148
330
78
100
AcDbEntity
  8
RELEASE-FINAL
  6
Continuous
 62
     1
370
    25
100
AcDbLine
 10
7.3416683133
 20
14.6113945148
 30
0.0
 11
7.3416683133
 21
14.6784765541
 31
0.0
  0
LINE
  5
149
330
78
100
AcDbEntity
  8
RELEASE-FINAL
  6
Continuous
 62
     1
370
    25
100
AcDbLine
 10
8.8416683133
 20
14.6113945148
 30
0.0
 11
8.8416683133
 21
14.6784765541
 31
0.0
  0
LINE
  5
14A
330
78
100
AcDbEntity
  8
RELEASE-FINAL
  6
Continuous
 62
     1
370
    25
100
AcDbLine
 10
14.7429168469
 20
8.6686870008
 30
0.0
 11
14.7843758273
 21
8.6686870008
 31
0.0
  0
LINE
  5
14B
330
78
100
AcDbEntity
  8
RELEASE-FINAL
  6
Continuous
 62
     1
370
    25
100
AcDbLine
 10
14.7429168469
 20
7.1686870008
 30
0.0
 11
14.7843758273
 21
7.1686870008
 31
0.0
  0
LINE
  5
14C
330
78
100
AcDbEntity
  8
RELEASE-FINAL
  6
Continuous
 62
     1
370
    25
100
AcDbLine
 10
14.8929168469
 20
8.6686870008
 30
0.0
 11
14.8514578666
 21
8.6686870008
 31
0.0
  0
LINE
  5
14D
330
78
100
AcDbEntity
  8
RELEASE-FINAL
  6
Continuous
 62
     1
370
    25
100
AcDbLine
 10
14.8929168469
 20
7.1686870008
 30
0.0
 11
14.8514578666
 21
7.1686870008
 31
0.0
  0
LINE
  5
14E
330
78
100
AcDbEntity
  8
RELEASE-FINAL
  6
Continuous
 62
     1
370
    25
100
AcDbLine
 10
14.7843758273
 20
8.6686870008
 30
0.0
 11
14.8514578666
 21
8.6686870008
 31
0.0
  0
LINE
  5
14F
330
78
100
AcDbEntity
  8
RELEASE-FINAL
  6
Continuous
 62
     1
370
    25
100
AcDbLine
 10
14.7843758273
 20
7.1686870008
 30
0.0
 11
14.8514578666
 21
7.1686870008
 31
0.0
  0
LINE
  5
150
330
78
100
AcDbEntity
  8
RELEASE-FINAL
  6
Continuous
 62
     1
370
    25
100
AcDbLine
 10
10.1172925801
 20
7.4443112676
 30
0.0
 11
10.1587515604
 21
7.4443112676
 31
0.0
  0
LINE
  5
151
330
78
100
AcDbEntity
  8
RELEASE-FINAL
  6
Continuous
 62
     1
370
    25
100
AcDbLine
 10
10.1172925801
 20
8.9443112676
 30
0.0
 11
10.1587515604
 21
8.9443112676
 31
0.0
  0
LINE
  5
152
330
78
100
AcDbEntity
  8
RELEASE-FINAL
  6
Continuous
 62
     1
370
    25
100
AcDbLine
 10
10.2672925801
 20
7.4443112676
 30
0.0
 11
10.2258335997
 21
7.4443112676
 31
0.0
  0
LINE
  5
153
330
78
100
AcDbEntity
  8
RELEASE-FINAL
  6
Continuous
 62
     1
370
    25
100
AcDbLine
 10
10.2672925801
 20
8.9443112676
 30
0.0
 11
10.2258335997
 21
8.9443112676
 31
0.0
  0
LINE
  5
154
330
78
100
AcDbEntity
  8
RELEASE-FINAL
  6
Continuous
 62
     1
370
    25
100
AcDbLine
 10
10.1587515604
 20
7.4443112676
 30
0.0
 11
10.2258335997
 21
7.4443112676
 31
0.0
  0
LINE
  5
155
330
78
100
AcDbEntity
  8
RELEASE-FINAL
  6
Continuous
 62
     1
370
    25
100
AcDbLine
 10
10.1587515604
 20
8.9443112676
 30
0.0
 11
10.2258335997
 21
8.9443112676
 31
0.0
  0
ENDBLK
  5
7A
330
78
100
AcDbEntity
  8
0
100
AcDbBlockEnd
  0
ENDSEC
  0
SECTION
  2
ENTITIES
  0
INSERT
  5
156
330
1F
100
AcDbEntity
  8
RELEASE-FINAL
100
AcDbBlockReference
  2
a_LegA_cut_01_release_
 10
55.8180213738
 20
130.7985518869
 30
0.0
  0
MTEXT
  5
158
330
1F
100
AcDbEntity
  8
0
  6
Continuous
 62
     7
100
AcDbMText
 10
0.0
 20
14.3305089537
 30
0.0
 40
5.1381
 41
0.0
 71
     1
 72
     1
  1
SOLIDWORKS Educational Product.
  7
SLDTEXTSTYLE0
 73
     1
 44
1.0
  0
MTEXT
  5
159
330
1F
100
AcDbEntity
  8
0
  6
Continuous
 62
     7
100
AcDbMText
 10
0.0
 20
6.6233589537
 30
0.0
 40
5.1381
 41
0.0
 71
     1
 72
     1
  1
For Instructional Use Only.
  7
SLDTEXTSTYLE0
 73
     1
 44
1.0
  0
ENDSEC
  0
SECTION
  2
OBJECTS
  0
DICTIONARY
  5
C
330
0
100
AcDbDictionary
281
     1
  3
ACAD_GROUP
350
D
  3
ACAD_LAYOUT
350
1A
  3
ACAD_MLINESTYLE
350
17
  3
ACAD_PLOTSETTINGS
350
19
  3
ACAD_PLOTSTYLENAME
350
E
  3
ACAD_SCALELIST
350
47
  3
DWGPROPS
350
15A
  0
DICTIONARY
  5
D
102
{ACAD_REACTORS
330
C
102
}
330
C
100
AcDbDictionary
281
     1
  0
DICTIONARY
  5
1A
102
{ACAD_REACTORS
330
C
102
}
330
C
100
AcDbDictionary
281
     1
  3
Layout1
350
1E
  3
Layout2
350
26
  3
Model
350
22
  0
DICTIONARY
  5
17
102
{ACAD_REACTORS
330
C
102
}
330
C
100
AcDbDictionary
281
     1
  3
Standard
350
18
  0
DICTIONARY
  5
19
102
{ACAD_REACTORS
330
C
102
}
330
C
100
AcDbDictionary
281
     1
  0
ACDBDICTIONARYWDFLT
  5
E
102
{ACAD_REACTORS
330
C
102
}
330
C
100
AcDbDictionary
281
     1
  3
Normal
350
F
100
AcDbDictionaryWithDefault
340
F
  0
DICTIONARY
  5
47
102
{ACAD_REACTORS
330
C
102
}
330
C
100
AcDbDictionary
281
     1
  3
A0
350
48
  3
A1
350
49
  3
A2
350
4A
  3
A3
350
4B
  3
A4
350
4C
  3
A5
350
4D
  3
A6
350
4E
  3
A7
350
4F
  3
A8
350
50
  3
A9
350
51
  3
B0
350
52
  3
B1
350
53
  3
B2
350
54
  3
B3
350
55
  3
B4
350
56
  3
B5
350
57
  3
B6
350
58
  3
B7
350
59
  3
B8
350
5A
  3
B9
350
5B
  3
C0
350
5C
  3
C1
350
5D
  3
C2
350
5E
  3
C3
350
5F
  3
C4
350
60
  3
C5
350
61
  3
C6
350
62
  3
C7
350
63
  3
C8
350
64
  3
C9
350
65
  3
D0
350
66
  3
D1
350
67
  3
D2
350
68
  0
XRECORD
  5
15A
102
{ACAD_REACTORS
330
C
102
}
330
C
100
AcDbXrecord
280
     1
  1
DWGPROPS COOKIE
  2

  3

  4

  6

  7

  8
aimrl
  9

300
=
301
=
302
=
303
=
304
=
305
=
306
=
307
=
308
=
309
=
 40
0.0
 41
2459285.903382894
 42
2459285.903383009
  1

 90
        0
  0
LAYOUT
  5
1E
102
{ACAD_REACTORS
330
1A
102
}
330
1A
100
AcDbPlotSettings
  1

  2
none_device
  4

  6

 40
0.0
 41
0.0
 42
0.0
 43
0.0
 44
0.0
 45
0.0
 46
0.0
 47
0.0
 48
0.0
 49
0.0
140
0.0
141
0.0
142
1.0
143
1.0
 70
   688
 72
     1
 73
     0
 74
     5
  7

 75
    16
147
1.0
148
0.0
149
0.0
100
AcDbLayout
  1
Layout1
 70
     1
 71
     1
 10
0.0
 20
0.0
 11
420.0
 21
297.0
 12
0.0
 22
0.0
 32
0.0
 14
1.0000000000E+20
 24
1.0000000000E+20
 34
1.0000000000E+20
 15
-1.0000000000E+20
 25
-1.0000000000E+20
 35
-1.0000000000E+20
146
0.0
 13
0.0
 23
0.0
 33
0.0
 16
1.0
 26
0.0
 36
0.0
 17
0.0
 27
1.0
 37
0.0
 76
     0
330
1B
  0
LAYOUT
  5
26
102
{ACAD_REACTORS
330
1A
102
}
330
1A
100
AcDbPlotSettings
  1

  2
none_device
  4

  6

 40
0.0
 41
0.0
 42
0.0
 43
0.0
 44
0.0
 45
0.0
 46
0.0
 47
0.0
 48
0.0
 49
0.0
140
0.0
141
0.0
142
1.0
143
1.0
 70
   688
 72
     1
 73
     0
 74
     5
  7

 75
    16
147
1.0
148
0.0
149
0.0
100
AcDbLayout
  1
Layout2
 70
     1
 71
     2
 10
0.0
 20
0.0
 11
0.0
 21
0.0
 12
0.0
 22
0.0
 32
0.0
 14
0.0
 24
0.0
 34
0.0
 15
0.0
 25
0.0
 35
0.0
146
0.0
 13
0.0
 23
0.0
 33
0.0
 16
1.0
 26
0.0
 36
0.0
 17
0.0
 27
1.0
 37
0.0
 76
     0
330
23
  0
LAYOUT
  5
22
102
{ACAD_REACTORS
330
1A
102
}
330
1A
100
AcDbPlotSettings
  1

  2
none_device
  4
Letter_(8.50_x_11.00_Inches)
  6

 40
6.35
 41
6.35
 42
6.35000508
 43
6.35000508
 44
215.9
 45
279.4
 46
0.0
 47
0.0
 48
0.0
 49
0.0
140
0.0
141
0.0
142
1.0
143
1.0
 70
  1712
 72
     1
 73
     0
 74
     0
  7

 75
     0
147
1.0
148
0.0
149
0.0
100
AcDbLayout
  1
Model
 70
     1
 71
     0
 10
0.0
 20
0.0
 11
420.0
 21
297.0
 12
0.0
 22
0.0
 32
0.0
 14
0.0
 24
0.0
 34
0.0
 15
420.0
 25
297.0
 35
0.0
146
0.0
 13
0.0
 23
0.0
 33
0.0
 16
1.0
 26
0.0
 36
0.0
 17
0.0
 27
1.0
 37
0.0
 76
     0
330
1F
331
29
  0
MLINESTYLE
  5
18
102
{ACAD_REACTORS
330
17
102
}
330
17
100
AcDbMlineStyle
  2
Standard
 70
     0
  3

 62
   256
 51
90.0
 52
90.0
 71
     2
 49
0.5
 62
   256
  6
BYLAYER
 49
-0.5
 62
   256
  6
BYLAYER
  0
ACDBPLACEHOLDER
  5
F
102
{ACAD_REACTORS
330
E
102
}
330
E
  0
SCALE
  5
48
102
{ACAD_REACTORS
330
47
102
}
330
47
100
AcDbScale
 70
     0
300
1:1
140
1.0
141
1.0
290
     1
  0
SCALE
  5
49
102
{ACAD_REACTORS
330
47
102
}
330
47
100
AcDbScale
 70
     0
300
1:2
140
1.0
141
2.0
290
     0
  0
SCALE
  5
4A
102
{ACAD_REACTORS
330
47
102
}
330
47
100
AcDbScale
 70
     0
300
1:4
140
1.0
141
4.0
290
     0
  0
SCALE
  5
4B
102
{ACAD_REACTORS
330
47
102
}
330
47
100
AcDbScale
 70
     0
300
1:5
140
1.0
141
5.0
290
     0
  0
SCALE
  5
4C
102
{ACAD_REACTORS
330
47
102
}
330
47
100
AcDbScale
 70
     0
300
1:8
140
1.0
141
8.0
290
     0
  0
SCALE
  5
4D
102
{ACAD_REACTORS
330
47
102
}
330
47
100
AcDbScale
 70
     0
300
1:10
140
1.0
141
10.0
290
     0
  0
SCALE
  5
4E
102
{ACAD_REACTORS
330
47
102
}
330
47
100
AcDbScale
 70
     0
300
1:16
140
1.0
141
16.0
290
     0
  0
SCALE
  5
4F
102
{ACAD_REACTORS
330
47
102
}
330
47
100
AcDbScale
 70
     0
300
1:20
140
1.0
141
20.0
290
     0
  0
SCALE
  5
50
102
{ACAD_REACTORS
330
47
102
}
330
47
100
AcDbScale
 70
     0
300
1:30
140
1.0
141
30.0
290
     0
  0
SCALE
  5
51
102
{ACAD_REACTORS
330
47
102
}
330
47
100
AcDbScale
 70
     0
300
1:40
140
1.0
141
40.0
290
     0
  0
SCALE
  5
52
102
{ACAD_REACTORS
330
47
102
}
330
47
100
AcDbScale
 70
     0
300
1:50
140
1.0
141
50.0
290
     0
  0
SCALE
  5
53
102
{ACAD_REACTORS
330
47
102
}
330
47
100
AcDbScale
 70
     0
300
1:100
140
1.0
141
100.0
290
     0
  0
SCALE
  5
54
102
{ACAD_REACTORS
330
47
102
}
330
47
100
AcDbScale
 70
     0
300
2:1
140
2.0
141
1.0
290
     0
  0
SCALE
  5
55
102
{ACAD_REACTORS
330
47
102
}
330
47
100
AcDbScale
 70
     0
300
4:1
140
4.0
141
1.0
290
     0
  0
SCALE
  5
56
102
{ACAD_REACTORS
330
47
102
}
330
47
100
AcDbScale
 70
     0
300
8:1
140
8.0
141
1.0
290
     0
  0
SCALE
  5
57
102
{ACAD_REACTORS
330
47
102
}
330
47
100
AcDbScale
 70
     0
300
10:1
140
10.0
141
1.0
290
     0
  0
SCALE
  5
58
102
{ACAD_REACTORS
330
47
102
}
330
47
100
AcDbScale
 70
     0
300
100:1
140
100.0
141
1.0
290
     0
  0
SCALE
  5
59
102
{ACAD_REACTORS
330
47
102
}
330
47
100
AcDbScale
 70
     0
300
1/128" = 1'-0"
140
0.0078125
141
12.0
290
     0
  0
SCALE
  5
5A
102
{ACAD_REACTORS
330
47
102
}
330
47
100
AcDbScale
 70
     0
300
1/64" = 1'-0"
140
0.015625
141
12.0
290
     0
  0
SCALE
  5
5B
102
{ACAD_REACTORS
330
47
102
}
330
47
100
AcDbScale
 70
     0
300
1/32" = 1'-0"
140
0.03125
141
12.0
290
     0
  0
SCALE
  5
5C
102
{ACAD_REACTORS
330
47
102
}
330
47
100
AcDbScale
 70
     0
300
1/16" = 1'-0"
140
0.0625
141
12.0
290
     0
  0
SCALE
  5
5D
102
{ACAD_REACTORS
330
47
102
}
330
47
100
AcDbScale
 70
     0
300
3/32" = 1'-0"
140
0.09375
141
12.0
290
     0
  0
SCALE
  5
5E
102
{ACAD_REACTORS
330
47
102
}
330
47
100
AcDbScale
 70
     0
300
1/8" = 1'-0"
140
0.125
141
12.0
290
     0
  0
SCALE
  5
5F
102
{ACAD_REACTORS
330
47
102
}
330
47
100
AcDbScale
 70
     0
300
3/16" = 1'-0"
140
0.1875
141
12.0
290
     0
  0
SCALE
  5
60
102
{ACAD_REACTORS
330
47
102
}
330
47
100
AcDbScale
 70
     0
300
1/4" = 1'-0"
140
0.25
141
12.0
290
     0
  0
SCALE
  5
61
102
{ACAD_REACTORS
330
47
102
}
330
47
100
AcDbScale
 70
     0
300
3/8" = 1'-0"
140
0.375
141
12.0
290
     0
  0
SCALE
  5
62
102
{ACAD_REACTORS
330
47
102
}
330
47
100
AcDbScale
 70
     0
300
1/2" = 1'-0"
140
0.5
141
12.0
290
     0
  0
SCALE
  5
63
102
{ACAD_REACTORS
330
47
102
}
330
47
100
AcDbScale
 70
     0
300
3/4" = 1'-0"
140
0.75
141
12.0
290
     0
  0
SCALE
  5
64
102
{ACAD_REACTORS
330
47
102
}
330
47
100
AcDbScale
 70
     0
300
1" = 1'-0"
140
1.0
141
12.0
290
     0
  0
SCALE
  5
65
102
{ACAD_REACTORS
330
47
102
}
330
47
100
AcDbScale
 70
     0
300
1-1/2" = 1'-0"
140
1.5
141
12.0
290
     0
  0
SCALE
  5
66
102
{ACAD_REACTORS
330
47
102
}
330
47
100
AcDbScale
 70
     0
300
3" = 1'-0"
140
3.0
141
12.0
290
     0
  0
SCALE
  5
67
102
{ACAD_REACTORS
330
47
102
}
330
47
100
AcDbScale
 70
     0
300
6" = 1'-0"
140
6.0
141
12.0
290
     0
  0
SCALE
  5
68
102
{ACAD_REACTORS
330
47
102
}
330
47
100
AcDbScale
 70
     0
300
1'-0" = 1'-0"
140
12.0
141
12.0
290
     0
  0
ENDSEC
  0
EOF
