  0
SECTION
  2
HEADER
  9
$ACADVER
  1
AC1027
  9
$ACADMAINTVER
 70
   125
  9
$DWGCODEPAGE
  3
ANSI_1252
  9
$LASTSAVEDBY
  1
aimrl
  9
$REQUIREDVERSIONS
160
                 0
  9
$INSBASE
 10
0.0
 20
0.0
 30
0.0
  9
$EXTMIN
 10
0.0
 20
0.0
 30
0.0
  9
$EXTMAX
 10
22.0
 20
21.0
 30
0.0
  9
$LIMMIN
 10
0.0
 20
0.0
  9
$LIMMAX
 10
420.0
 20
297.0
  9
$ORTHOMODE
 70
     0
  9
$REGENMODE
 70
     1
  9
$FILLMODE
 70
     1
  9
$QTEXTMODE
 70
     0
  9
$MIRRTEXT
 70
     1
  9
$LTSCALE
 40
1.0
  9
$ATTMODE
 70
     1
  9
$TEXTSIZE
 40
3.5
  9
$TRACEWID
 40
1.0
  9
$TEXTSTYLE
  7
Standard
  9
$CLAYER
  8
Rigid
  9
$CELTYPE
  6
ByLayer
  9
$CECOLOR
 62
   256
  9
$CELTSCALE
 40
1.0
  9
$DISPSILH
 70
     0
  9
$DIMSCALE
 40
1.0
  9
$DIMASZ
 40
3.301999999999999
  9
$DIMEXO
 40
1.0
  9
$DIMDLI
 40
3.75
  9
$DIMRND
 40
0.0
  9
$DIMDLE
 40
0.0
  9
$DIMEXE
 40
1.0
  9
$DIMTP
 40
0.0
  9
$DIMTM
 40
0.0
  9
$DIMTXT
 40
3.5
  9
$DIMCEN
 40
2.5
  9
$DIMTSZ
 40
0.0
  9
$DIMTOL
 70
     0
  9
$DIMLIM
 70
     0
  9
$DIMTIH
 70
     1
  9
$DIMTOH
 70
     1
  9
$DIMSE1
 70
     0
  9
$DIMSE2
 70
     0
  9
$DIMTAD
 70
     1
  9
$DIMZIN
 70
     1
  9
$DIMBLK
  1

  9
$DIMASO
 70
     1
  9
$DIMSHO
 70
     1
  9
$DIMPOST
  1

  9
$DIMAPOST
  1

  9
$DIMALT
 70
     0
  9
$DIMALTD
 70
     3
  9
$DIMALTF
 40
0.0393700787401575
  9
$DIMLFAC
 40
1.0
  9
$DIMTOFL
 70
     1
  9
$DIMTVP
 40
0.0
  9
$DIMTIX
 70
     0
  9
$DIMSOXD
 70
     0
  9
$DIMSAH
 70
     0
  9
$DIMBLK1
  1

  9
$DIMBLK2
  1

  9
$DIMSTYLE
  2
ISO-25
  9
$DIMCLRD
 70
     0
  9
$DIMCLRE
 70
     0
  9
$DIMCLRT
 70
     0
  9
$DIMTFAC
 40
1.0
  9
$DIMGAP
 40
1.524
  9
$DIMJUST
 70
     0
  9
$DIMSD1
 70
     0
  9
$DIMSD2
 70
     0
  9
$DIMTOLJ
 70
     0
  9
$DIMTZIN
 70
     1
  9
$DIMALTZ
 70
     0
  9
$DIMALTTZ
 70
     0
  9
$DIMUPT
 70
     0
  9
$DIMDEC
 70
     2
  9
$DIMTDEC
 70
     2
  9
$DIMALTU
 70
     2
  9
$DIMALTTD
 70
     3
  9
$DIMTXSTY
  7
Standard
  9
$DIMAUNIT
 70
     0
  9
$DIMADEC
 70
     2
  9
$DIMALTRND
 40
0.0
  9
$DIMAZIN
 70
     0
  9
$DIMDSEP
 70
    44
  9
$DIMATFIT
 70
     3
  9
$DIMFRAC
 70
     0
  9
$DIMLDRBLK
  1

  9
$DIMLUNIT
 70
     2
  9
$DIMLWD
 70
    -2
  9
$DIMLWE
 70
    -2
  9
$DIMTMOVE
 70
     0
  9
$DIMFXL
 40
1.0
  9
$DIMFXLON
 70
     0
  9
$DIMJOGANG
 40
0.7853981633974483
  9
$DIMTFILL
 70
     0
  9
$DIMTFILLCLR
 70
     0
  9
$DIMARCSYM
 70
     0
  9
$DIMLTYPE
  6

  9
$DIMLTEX1
  6

  9
$DIMLTEX2
  6

  9
$DIMTXTDIRECTION
 70
     0
  9
$LUNITS
 70
     2
  9
$LUPREC
 70
     2
  9
$SKETCHINC
 40
1.0
  9
$FILLETRAD
 40
10.0
  9
$AUNITS
 70
     0
  9
$AUPREC
 70
     2
  9
$MENU
  1
.
  9
$ELEVATION
 40
0.0
  9
$PELEVATION
 40
0.0
  9
$THICKNESS
 40
0.0
  9
$LIMCHECK
 70
     0
  9
$CHAMFERA
 40
0.0
  9
$CHAMFERB
 40
0.0
  9
$CHAMFERC
 40
0.0
  9
$CHAMFERD
 40
0.0
  9
$SKPOLY
 70
     0
  9
$TDCREATE
 40
2459285.827476852
  9
$TDUCREATE
 40
2459286.119154120
  9
$TDUPDATE
 40
2459285.851400463
  9
$TDUUPDATE
 40
2459286.143067129
  9
$TDINDWG
 40
0.0106134375
  9
$TDUSRTIMER
 40
0.0106134375
  9
$USRTIMER
 70
     1
  9
$ANGBASE
 50
0.0
  9
$ANGDIR
 70
     0
  9
$PDMODE
 70
     0
  9
$PDSIZE
 40
-1.0
  9
$PLINEWID
 40
0.0
  9
$SPLFRAME
 70
     0
  9
$SPLINETYPE
 70
     6
  9
$SPLINESEGS
 70
     8
  9
$HANDSEED
  5
4CE
  9
$SURFTAB1
 70
     6
  9
$SURFTAB2
 70
     6
  9
$SURFTYPE
 70
     6
  9
$SURFU
 70
     6
  9
$SURFV
 70
     6
  9
$UCSBASE
  2

  9
$UCSNAME
  2

  9
$UCSORG
 10
0.0
 20
0.0
 30
0.0
  9
$UCSXDIR
 10
1.0
 20
0.0
 30
0.0
  9
$UCSYDIR
 10
0.0
 20
1.0
 30
0.0
  9
$UCSORTHOREF
  2

  9
$UCSORTHOVIEW
 70
     0
  9
$UCSORGTOP
 10
0.0
 20
0.0
 30
0.0
  9
$UCSORGBOTTOM
 10
0.0
 20
0.0
 30
0.0
  9
$UCSORGLEFT
 10
0.0
 20
0.0
 30
0.0
  9
$UCSORGRIGHT
 10
0.0
 20
0.0
 30
0.0
  9
$UCSORGFRONT
 10
0.0
 20
0.0
 30
0.0
  9
$UCSORGBACK
 10
0.0
 20
0.0
 30
0.0
  9
$PUCSBASE
  2

  9
$PUCSNAME
  2

  9
$PUCSORG
 10
0.0
 20
0.0
 30
0.0
  9
$PUCSXDIR
 10
1.0
 20
0.0
 30
0.0
  9
$PUCSYDIR
 10
0.0
 20
1.0
 30
0.0
  9
$PUCSORTHOREF
  2

  9
$PUCSORTHOVIEW
 70
     0
  9
$PUCSORGTOP
 10
0.0
 20
0.0
 30
0.0
  9
$PUCSORGBOTTOM
 10
0.0
 20
0.0
 30
0.0
  9
$PUCSORGLEFT
 10
0.0
 20
0.0
 30
0.0
  9
$PUCSORGRIGHT
 10
0.0
 20
0.0
 30
0.0
  9
$PUCSORGFRONT
 10
0.0
 20
0.0
 30
0.0
  9
$PUCSORGBACK
 10
0.0
 20
0.0
 30
0.0
  9
$USERI1
 70
     0
  9
$USERI2
 70
     0
  9
$USERI3
 70
     0
  9
$USERI4
 70
     0
  9
$USERI5
 70
     0
  9
$USERR1
 40
0.0
  9
$USERR2
 40
0.0
  9
$USERR3
 40
0.0
  9
$USERR4
 40
0.0
  9
$USERR5
 40
0.0
  9
$WORLDVIEW
 70
     1
  9
$SHADEDGE
 70
     3
  9
$SHADEDIF
 70
    70
  9
$TILEMODE
 70
     1
  9
$MAXACTVP
 70
    64
  9
$PINSBASE
 10
0.0
 20
0.0
 30
0.0
  9
$PLIMCHECK
 70
     0
  9
$PEXTMIN
 10
1.000000000000000E+20
 20
1.000000000000000E+20
 30
1.000000000000000E+20
  9
$PEXTMAX
 10
-1.000000000000000E+20
 20
-1.000000000000000E+20
 30
-1.000000000000000E+20
  9
$PLIMMIN
 10
0.0
 20
0.0
  9
$PLIMMAX
 10
420.0
 20
297.0
  9
$UNITMODE
 70
     0
  9
$VISRETAIN
 70
     1
  9
$PLINEGEN
 70
     0
  9
$PSLTSCALE
 70
     1
  9
$TREEDEPTH
 70
  3020
  9
$CMLSTYLE
  2
Standard
  9
$CMLJUST
 70
     0
  9
$CMLSCALE
 40
20.0
  9
$PROXYGRAPHICS
 70
     1
  9
$MEASUREMENT
 70
     1
  9
$CELWEIGHT
370
    -1
  9
$ENDCAPS
280
     0
  9
$JOINSTYLE
280
     0
  9
$LWDISPLAY
290
     1
  9
$INSUNITS
 70
     4
  9
$HYPERLINKBASE
  1

  9
$STYLESHEET
  1

  9
$XEDIT
290
     1
  9
$CEPSNTYPE
380
     0
  9
$PSTYLEMODE
290
     1
  9
$FINGERPRINTGUID
  2
{dcda66a5-e566-4159-9689-91de3a58e5f7}
  9
$VERSIONGUID
  2
{ABB6B992-AD4E-5040-A7E0-FF1045084852}
  9
$EXTNAMES
290
     1
  9
$PSVPSCALE
 40
0.0
  9
$OLESTARTUP
290
     0
  9
$SORTENTS
280
   127
  9
$INDEXCTL
280
     0
  9
$HIDETEXT
280
     0
  9
$XCLIPFRAME
280
     2
  9
$HALOGAP
280
     0
  9
$OBSCOLOR
 70
   257
  9
$OBSLTYPE
280
     0
  9
$INTERSECTIONDISPLAY
280
     0
  9
$INTERSECTIONCOLOR
 70
   257
  9
$DIMASSOC
280
     1
  9
$PROJECTNAME
  1

  9
$CAMERADISPLAY
290
     0
  9
$LENSLENGTH
 40
50.0
  9
$CAMERAHEIGHT
 40
0.0
  9
$STEPSPERSEC
 40
2.0
  9
$STEPSIZE
 40
6.0
  9
$3DDWFPREC
 40
2.0
  9
$PSOLWIDTH
 40
0.25
  9
$PSOLHEIGHT
 40
4.0
  9
$LOFTANG1
 40
1.570796326794896
  9
$LOFTANG2
 40
1.570796326794896
  9
$LOFTMAG1
 40
0.0
  9
$LOFTMAG2
 40
0.0
  9
$LOFTPARAM
 70
     7
  9
$LOFTNORMALS
280
     1
  9
$LATITUDE
 40
37.795
  9
$LONGITUDE
 40
-122.394
  9
$NORTHDIRECTION
 40
0.0
  9
$TIMEZONE
 70
 -8000
  9
$LIGHTGLYPHDISPLAY
280
     1
  9
$TILEMODELIGHTSYNCH
280
     1
  9
$CMATERIAL
347
170
  9
$SOLIDHIST
280
     0
  9
$SHOWHIST
280
     1
  9
$DWFFRAME
280
     2
  9
$DGNFRAME
280
     0
  9
$REALWORLDSCALE
290
     1
  9
$INTERFERECOLOR
 62
     1
  9
$INTERFEREOBJVS
345
192
  9
$INTERFEREVPVS
346
18F
  9
$CSHADOW
280
     0
  9
$SHADOWPLANELOCATION
 40
0.0
  0
ENDSEC
  0
SECTION
  2
CLASSES
  0
CLASS
  1
ACDBDICTIONARYWDFLT
  2
AcDbDictionaryWithDefault
  3
ObjectDBX Classes
 90
        0
 91
        1
280
     0
281
     0
  0
CLASS
  1
VISUALSTYLE
  2
AcDbVisualStyle
  3
ObjectDBX Classes
 90
     4095
 91
       24
280
     0
281
     0
  0
CLASS
  1
MATERIAL
  2
AcDbMaterial
  3
ObjectDBX Classes
 90
     1153
 91
        3
280
     0
281
     0
  0
CLASS
  1
SCALE
  2
AcDbScale
  3
ObjectDBX Classes
 90
     1153
 91
       33
280
     0
281
     0
  0
CLASS
  1
TABLESTYLE
  2
AcDbTableStyle
  3
ObjectDBX Classes
 90
     4095
 91
        1
280
     0
281
     0
  0
CLASS
  1
MLEADERSTYLE
  2
AcDbMLeaderStyle
  3
ACDB_MLEADERSTYLE_CLASS
 90
     4095
 91
        1
280
     0
281
     0
  0
CLASS
  1
SUN
  2
AcDbSun
  3
SCENEOE
 90
     1153
 91
        0
280
     0
281
     0
  0
CLASS
  1
ACDBSECTIONVIEWSTYLE
  2
AcDbSectionViewStyle
  3
ObjectDBX Classes
 90
     1025
 91
        1
280
     0
281
     0
  0
CLASS
  1
ACDBDETAILVIEWSTYLE
  2
AcDbDetailViewStyle
  3
ObjectDBX Classes
 90
     1025
 91
        1
280
     0
281
     0
  0
CLASS
  1
DICTIONARYVAR
  2
AcDbDictionaryVar
  3
ObjectDBX Classes
 90
        0
 91
        9
280
     0
281
     0
  0
CLASS
  1
CELLSTYLEMAP
  2
AcDbCellStyleMap
  3
ObjectDBX Classes
 90
     1152
 91
        1
280
     0
281
     0
  0
ENDSEC
  0
SECTION
  2
TABLES
  0
TABLE
  2
VPORT
  5
8
330
0
100
AcDbSymbolTable
 70
     1
1001
ACAD
1000
DbSaveVer
1071
      224
  0
VPORT
  5
29
330
8
100
AcDbSymbolTableRecord
100
AcDbViewportTableRecord
  2
*Active
 70
     0
 10
0.0
 20
0.0
 11
1.0
 21
1.0
 12
20.32999314929531
 22
17.30051125863833
 13
0.0
 23
0.0
 14
10.0
 24
10.0
 15
10.0
 25
10.0
 16
0.0
 26
0.0
 36
1.0
 17
0.0
 27
0.0
 37
0.0
 40
52.05975847062322
 41
1.49757281553398
 42
50.0
 43
0.0
 44
0.0
 50
0.0
 51
0.0
 71
     0
 72
  2000
 73
     1
 74
     3
 75
     0
 76
     0
 77
     0
 78
     0
281
     0
 65
     1
110
0.0
120
0.0
130
0.0
111
1.0
121
0.0
131
0.0
112
0.0
122
1.0
132
0.0
 79
     0
146
0.0
348
18E
 60
     3
 61
     5
292
     1
282
     1
141
0.0
142
0.0
 63
   250
421
  3355443
1001
ACAD_NAV_VCDISPLAY
1070
     3
  0
ENDTAB
  0
TABLE
  2
LTYPE
  5
5
330
0
100
AcDbSymbolTable
 70
     6
  0
LTYPE
  5
14
330
5
100
AcDbSymbolTableRecord
100
AcDbLinetypeTableRecord
  2
ByBlock
 70
     0
  3

 72
    65
 73
     0
 40
0.0
  0
LTYPE
  5
15
330
5
100
AcDbSymbolTableRecord
100
AcDbLinetypeTableRecord
  2
ByLayer
 70
     0
  3

 72
    65
 73
     0
 40
0.0
  0
LTYPE
  5
16
330
5
100
AcDbSymbolTableRecord
100
AcDbLinetypeTableRecord
  2
Continuous
 70
     0
  3
Solid line
 72
    65
 73
     0
 40
0.0
  0
LTYPE
  5
6E
330
5
100
AcDbSymbolTableRecord
100
AcDbLinetypeTableRecord
  2
HIDDEN
 70
     0
  3
Hidden __ __ __ __ __ __ __ __ __ __ __ __ __ __
 72
    65
 73
     2
 40
1.905
 49
1.27
 74
     0
 49
-0.635
 74
     0
  0
LTYPE
  5
6F
330
5
100
AcDbSymbolTableRecord
100
AcDbLinetypeTableRecord
  2
PHANTOM
 70
     0
  3
Phantom ______  __  __  ______  __  __  ______
 72
    65
 73
     6
 40
12.7
 49
6.349999999999999
 74
     0
 49
-1.27
 74
     0
 49
1.27
 74
     0
 49
-1.27
 74
     0
 49
1.27
 74
     0
 49
-1.27
 74
     0
  0
LTYPE
  5
70
330
5
100
AcDbSymbolTableRecord
100
AcDbLinetypeTableRecord
  2
CENTER
 70
     0
  3
Center ____ _ ____ _ ____ _ ____ _ ____ _ ____
 72
    65
 73
     4
 40
10.16
 49
6.349999999999999
 74
     0
 49
-1.27
 74
     0
 49
1.27
 74
     0
 49
-1.27
 74
     0
  0
LTYPE
  5
71
330
5
100
AcDbSymbolTableRecord
100
AcDbLinetypeTableRecord
  2
CENTERX2
 70
     0
  3
Center (2x) ________  __  ________  __  _____
 72
    65
 73
     4
 40
20.32
 49
12.7
 74
     0
 49
-2.54
 74
     0
 49
2.54
 74
     0
 49
-2.54
 74
     0
  0
LTYPE
  5
72
330
5
100
AcDbSymbolTableRecord
100
AcDbLinetypeTableRecord
  2
DOT2
 70
     0
  3
Dot (.5x) ........................................
 72
    65
 73
     2
 40
0.635
 49
0.0
 74
     0
 49
-0.635
 74
     0
  0
ENDTAB
  0
TABLE
  2
LAYER
  5
2
102
{ACAD_XDICTIONARY
360
1B2
102
}
330
0
100
AcDbSymbolTable
 70
     4
  0
LAYER
  5
10
102
{ACAD_XDICTIONARY
360
1AD
102
}
330
2
100
AcDbSymbolTableRecord
100
AcDbLayerTableRecord
  2
0
 70
     0
 62
   255
  6
Continuous
370
    -3
390
F
347
180
348
0
  0
LAYER
  5
1D8
330
2
100
AcDbSymbolTableRecord
100
AcDbLayerTableRecord
  2
All
 70
     0
 62
   224
  6
Continuous
370
    -3
390
F
347
180
348
0
1001
AcAecLayerStandard
1000

1000

1001
AcCmTransparency
1071
        0
  0
LAYER
  5
3CD
330
2
100
AcDbSymbolTableRecord
100
AcDbLayerTableRecord
  2
Rigid
 70
     0
 62
   172
  6
Continuous
370
    -3
390
F
347
180
348
0
1001
AcAecLayerStandard
1000

1000

1001
AcCmTransparency
1071
        0
  0
LAYER
  5
3CE
330
2
100
AcDbSymbolTableRecord
100
AcDbLayerTableRecord
  2
Final_ReleaseCut
 70
     0
 62
    10
  6
Continuous
370
    -3
390
F
347
180
348
0
1001
AcAecLayerStandard
1000

1000

1001
AcCmTransparency
1071
        0
  0
ENDTAB
  0
TABLE
  2
STYLE
  5
3
330
0
100
AcDbSymbolTable
 70
     2
  0
STYLE
  5
11
330
3
100
AcDbSymbolTableRecord
100
AcDbTextStyleTableRecord
  2
Standard
 70
     0
 40
0.0
 41
1.0
 50
0.0
 71
     0
 42
3.5
  3
txt
  4

  0
STYLE
  5
16A
330
3
100
AcDbSymbolTableRecord
100
AcDbTextStyleTableRecord
  2
SLDTEXTSTYLE0
 70
     0
 40
0.0
 41
0.7
 50
0.0
 71
     0
 42
3.5
  3
TXT
  4

  0
ENDTAB
  0
TABLE
  2
VIEW
  5
6
330
0
100
AcDbSymbolTable
 70
     0
  0
ENDTAB
  0
TABLE
  2
UCS
  5
7
330
0
100
AcDbSymbolTable
 70
     0
  0
ENDTAB
  0
TABLE
  2
APPID
  5
9
330
0
100
AcDbSymbolTable
 70
     5
  0
APPID
  5
12
330
9
100
AcDbSymbolTableRecord
100
AcDbRegAppTableRecord
  2
ACAD
 70
     0
  0
APPID
  5
1B8
330
9
100
AcDbSymbolTableRecord
100
AcDbRegAppTableRecord
  2
ACAD_NAV_VCDISPLAY
 70
     0
  0
APPID
  5
1D9
330
9
100
AcDbSymbolTableRecord
100
AcDbRegAppTableRecord
  2
AcAecLayerStandard
 70
     0
  0
APPID
  5
1DA
330
9
100
AcDbSymbolTableRecord
100
AcDbRegAppTableRecord
  2
AcCmTransparency
 70
     0
  0
APPID
  5
489
330
9
100
AcDbSymbolTableRecord
100
AcDbRegAppTableRecord
  2
ACAD_EXEMPT_FROM_CAD_STANDARDS
 70
     0
  0
ENDTAB
  0
TABLE
  2
DIMSTYLE
  5
A
330
0
100
AcDbSymbolTable
 70
     1
100
AcDbDimStyleTable
 71
     1
340
27
  0
DIMSTYLE
105
27
330
A
100
AcDbSymbolTableRecord
100
AcDbDimStyleTableRecord
  2
ISO-25
 70
     0
 41
2.5
 42
0.625
 43
3.75
 44
1.25
 73
     0
 74
     0
 77
     1
 78
     8
140
2.5
141
2.5
143
0.03937007874016
147
0.625
171
     3
172
     1
271
     2
272
     2
274
     3
278
    44
283
     0
284
     8
340
11
  0
ENDTAB
  0
TABLE
  2
BLOCK_RECORD
  5
1
330
0
100
AcDbSymbolTable
 70
     1
  0
BLOCK_RECORD
  5
1F
330
1
100
AcDbSymbolTableRecord
100
AcDbBlockTableRecord
  2
*Model_Space
340
22
 70
     0
280
     1
281
     0
  0
BLOCK_RECORD
  5
1B
330
1
100
AcDbSymbolTableRecord
100
AcDbBlockTableRecord
  2
*Paper_Space
340
1E
 70
     0
280
     1
281
     0
  0
BLOCK_RECORD
  5
23
330
1
100
AcDbSymbolTableRecord
100
AcDbBlockTableRecord
  2
*Paper_Space0
340
26
 70
     0
280
     1
281
     0
  0
ENDTAB
  0
ENDSEC
  0
SECTION
  2
BLOCKS
  0
BLOCK
  5
20
330
1F
100
AcDbEntity
  8
0
100
AcDbBlockBegin
  2
*Model_Space
 70
     0
 10
0.0
 20
0.0
 30
0.0
  3
*Model_Space
  1

  0
ENDBLK
  5
21
330
1F
100
AcDbEntity
  8
0
100
AcDbBlockEnd
  0
BLOCK
  5
1C
330
1B
100
AcDbEntity
 67
     1
  8
0
100
AcDbBlockBegin
  2
*Paper_Space
 70
     0
 10
0.0
 20
0.0
 30
0.0
  3
*Paper_Space
  1

  0
ENDBLK
  5
1D
330
1B
100
AcDbEntity
 67
     1
  8
0
100
AcDbBlockEnd
  0
BLOCK
  5
24
330
23
100
AcDbEntity
 67
     1
  8
0
100
AcDbBlockBegin
  2
*Paper_Space0
 70
     0
 10
0.0
 20
0.0
 30
0.0
  3
*Paper_Space0
  1

  0
ENDBLK
  5
25
330
23
100
AcDbEntity
 67
     1
  8
0
100
AcDbBlockEnd
  0
ENDSEC
  0
SECTION
  2
ENTITIES
  0
LINE
  5
73
330
1F
100
AcDbEntity
  8
All
  6
Continuous
370
    25
100
AcDbLine
 10
12.12562426675612
 20
9.074375733243954
 30
0.0
 11
12.12562426675612
 21
7.574375733243954
 31
0.0
  0
LINE
  5
74
330
1F
100
AcDbEntity
  8
All
  6
Continuous
370
    25
100
AcDbLine
 10
12.12562426675612
 20
9.074375733243954
 30
0.0
 11
11.97562426675611
 21
9.074375733243954
 31
0.0
  0
LINE
  5
75
330
1F
100
AcDbEntity
  8
All
  6
Continuous
370
    25
100
AcDbLine
 10
12.12562426675612
 20
7.574375733243954
 30
0.0
 11
11.97562426675611
 21
7.574375733243954
 31
0.0
  0
LINE
  5
76
330
1F
100
AcDbEntity
  8
All
  6
Continuous
370
    25
100
AcDbLine
 10
11.97562426675611
 20
9.074375733243954
 30
0.0
 11
11.97562426675611
 21
7.574375733243954
 31
0.0
  0
LINE
  5
77
330
1F
100
AcDbEntity
  8
All
  6
Continuous
370
    25
100
AcDbLine
 10
5.362402422737574
 20
7.959780117957308
 30
0.0
 11
4.301742250957744
 21
6.899119946177478
 31
0.0
  0
LINE
  5
78
330
1F
100
AcDbEntity
  8
All
  6
Continuous
370
    25
100
AcDbLine
 10
5.46846843991554
 20
7.853714100779342
 30
0.0
 11
5.362402422737574
 21
7.959780117957308
 31
0.0
  0
LINE
  5
79
330
1F
100
AcDbEntity
  8
All
  6
Continuous
370
    25
100
AcDbLine
 10
5.46846843991554
 20
7.853714100779342
 30
0.0
 11
4.407808268135738
 21
6.793053928999512
 31
0.0
  0
LINE
  5
7A
330
1F
100
AcDbEntity
  8
All
  6
Continuous
370
    25
100
AcDbLine
 10
4.407808268135738
 20
6.793053928999512
 30
0.0
 11
4.301742250957744
 21
6.899119946177478
 31
0.0
  0
LINE
  5
7B
330
1F
100
AcDbEntity
  8
All
  6
Continuous
370
    25
100
AcDbLine
 10
14.12562426675617
 20
10.9743757332439
 30
0.0
 11
14.12562426675617
 21
9.474375733243903
 31
0.0
  0
LINE
  5
7C
330
1F
100
AcDbEntity
  8
All
  6
Continuous
370
    25
100
AcDbLine
 10
14.12562426675617
 20
10.9743757332439
 30
0.0
 11
14.27562426675615
 21
10.9743757332439
 31
0.0
  0
LINE
  5
7D
330
1F
100
AcDbEntity
  8
All
  6
Continuous
370
    25
100
AcDbLine
 10
14.27562426675615
 20
10.9743757332439
 30
0.0
 11
14.27562426675615
 21
9.474375733243903
 31
0.0
  0
LINE
  5
7E
330
1F
100
AcDbEntity
  8
All
  6
Continuous
370
    25
100
AcDbLine
 10
14.12562426675617
 20
9.474375733243903
 30
0.0
 11
14.27562426675615
 21
9.474375733243903
 31
0.0
  0
LINE
  5
7F
330
1F
100
AcDbEntity
  8
All
  6
Continuous
370
    25
100
AcDbLine
 10
5.074375733243897
 20
18.27562426675612
 30
0.0
 11
3.574375733243925
 21
18.27562426675612
 31
0.0
  0
LINE
  5
80
330
1F
100
AcDbEntity
  8
All
  6
Continuous
370
    25
100
AcDbLine
 10
3.574375733243897
 20
18.12562426675615
 30
0.0
 11
3.574375733243925
 21
18.27562426675612
 31
0.0
  0
LINE
  5
81
330
1F
100
AcDbEntity
  8
All
  6
Continuous
370
    25
100
AcDbLine
 10
5.074375733243897
 20
18.12562426675612
 30
0.0
 11
5.074375733243897
 21
18.27562426675612
 31
0.0
  0
LINE
  5
82
330
1F
100
AcDbEntity
  8
All
  6
Continuous
370
    25
100
AcDbLine
 10
5.074375733243897
 20
18.12562426675612
 30
0.0
 11
3.574375733243897
 21
18.12562426675615
 31
0.0
  0
LINE
  5
83
330
1F
100
AcDbEntity
  8
All
  6
Continuous
370
    25
100
AcDbLine
 10
8.0
 20
13.0
 30
0.0
 11
8.0
 21
11.5
 31
0.0
  0
LINE
  5
84
330
1F
100
AcDbEntity
  8
All
  6
Continuous
370
    25
100
AcDbLine
 10
8.0
 20
11.5
 30
0.0
 11
7.850000000000022
 21
11.5
 31
0.0
  0
LINE
  5
85
330
1F
100
AcDbEntity
  8
All
  6
Continuous
370
    25
100
AcDbLine
 10
8.0
 20
13.0
 30
0.0
 11
7.850000000000022
 21
13.0
 31
0.0
  0
LINE
  5
86
330
1F
100
AcDbEntity
  8
All
  6
Continuous
370
    25
100
AcDbLine
 10
7.850000000000022
 20
13.0
 30
0.0
 11
7.850000000000022
 21
11.5
 31
0.0
  0
LINE
  5
87
330
1F
100
AcDbEntity
  8
All
  6
Continuous
370
    25
100
AcDbLine
 10
8.000000000000085
 20
7.850000000000022
 30
0.0
 11
7.850000000000079
 21
7.850000000000022
 31
0.0
  0
LINE
  5
88
330
1F
100
AcDbEntity
  8
All
  6
Continuous
370
    25
100
AcDbLine
 10
8.000000000000085
 20
9.350000000000022
 30
0.0
 11
8.000000000000085
 21
7.850000000000022
 31
0.0
  0
LINE
  5
89
330
1F
100
AcDbEntity
  8
All
  6
Continuous
370
    25
100
AcDbLine
 10
7.850000000000079
 20
9.350000000000022
 30
0.0
 11
7.850000000000079
 21
7.850000000000022
 31
0.0
  0
LINE
  5
8A
330
1F
100
AcDbEntity
  8
All
  6
Continuous
370
    25
100
AcDbLine
 10
8.000000000000085
 20
9.350000000000022
 30
0.0
 11
7.850000000000079
 21
9.350000000000022
 31
0.0
  0
LINE
  5
8B
330
1F
100
AcDbEntity
  8
All
  6
Continuous
370
    25
100
AcDbLine
 10
6.850000000000051
 20
10.50000000000008
 30
0.0
 11
5.350000000000022
 21
10.50000000000008
 31
0.0
  0
LINE
  5
8C
330
1F
100
AcDbEntity
  8
All
  6
Continuous
370
    25
100
AcDbLine
 10
6.850000000000051
 20
10.35000000000008
 30
0.0
 11
6.850000000000051
 21
10.50000000000008
 31
0.0
  0
LINE
  5
8D
330
1F
100
AcDbEntity
  8
All
  6
Continuous
370
    25
100
AcDbLine
 10
6.850000000000051
 20
10.35000000000008
 30
0.0
 11
5.350000000000022
 21
10.35000000000008
 31
0.0
  0
LINE
  5
8E
330
1F
100
AcDbEntity
  8
All
  6
Continuous
370
    25
100
AcDbLine
 10
5.350000000000022
 20
10.35000000000008
 30
0.0
 11
5.350000000000022
 21
10.50000000000008
 31
0.0
  0
LINE
  5
8F
330
1F
100
AcDbEntity
  8
All
  6
Continuous
370
    25
100
AcDbLine
 10
5.074375733243925
 20
14.6256242667562
 30
0.0
 11
5.074375733243925
 21
14.47562426675623
 31
0.0
  0
LINE
  5
90
330
1F
100
AcDbEntity
  8
All
  6
Continuous
370
    25
100
AcDbLine
 10
5.074375733243925
 20
14.6256242667562
 30
0.0
 11
6.574375733243925
 21
14.6256242667562
 31
0.0
  0
LINE
  5
91
330
1F
100
AcDbEntity
  8
All
  6
Continuous
370
    25
100
AcDbLine
 10
6.574375733243925
 20
14.6256242667562
 30
0.0
 11
6.574375733243925
 21
14.4756242667562
 31
0.0
  0
LINE
  5
92
330
1F
100
AcDbEntity
  8
All
  6
Continuous
370
    25
100
AcDbLine
 10
5.074375733243925
 20
14.47562426675623
 30
0.0
 11
6.574375733243925
 21
14.4756242667562
 31
0.0
  0
LINE
  5
93
330
1F
100
AcDbEntity
  8
All
  6
Continuous
370
    25
100
AcDbLine
 10
9.0
 20
10.35000000000002
 30
0.0
 11
10.5
 21
10.35000000000002
 31
0.0
  0
LINE
  5
94
330
1F
100
AcDbEntity
  8
All
  6
Continuous
370
    25
100
AcDbLine
 10
9.0
 20
10.5
 30
0.0
 11
9.0
 21
10.35000000000002
 31
0.0
  0
LINE
  5
95
330
1F
100
AcDbEntity
  8
All
  6
Continuous
370
    25
100
AcDbLine
 10
10.5
 20
10.5
 30
0.0
 11
10.5
 21
10.35000000000002
 31
0.0
  0
LINE
  5
96
330
1F
100
AcDbEntity
  8
All
  6
Continuous
370
    25
100
AcDbLine
 10
9.0
 20
10.5
 30
0.0
 11
10.5
 21
10.5
 31
0.0
  0
LINE
  5
97
330
1F
100
AcDbEntity
  8
All
  6
Continuous
370
    25
100
AcDbLine
 10
5.074375733243925
 20
14.6256242667562
 30
0.0
 11
3.574375733243925
 21
18.12562426675623
 31
0.0
  0
LINE
  5
98
330
1F
100
AcDbEntity
  8
All
  6
Continuous
370
    25
100
AcDbLine
 10
5.074375733243925
 20
18.1256242667562
 30
0.0
 11
6.574375733243925
 21
14.6256242667562
 31
0.0
  0
LINE
  5
99
330
1F
100
AcDbEntity
  8
All
  6
Continuous
370
    25
100
AcDbLine
 10
21.99000000000001
 20
20.99000000000001
 30
0.0
 11
0.0099999999999909
 21
20.99000000000001
 31
0.0
  0
LINE
  5
9A
330
1F
100
AcDbEntity
  8
All
  6
Continuous
370
    25
100
AcDbLine
 10
22.0
 20
0.0
 30
0.0
 11
22.0
 21
21.0
 31
0.0
  0
LINE
  5
9B
330
1F
100
AcDbEntity
  8
All
  6
Continuous
370
    25
100
AcDbLine
 10
0.0099999999999909
 20
20.99000000000001
 30
0.0
 11
0.0099999999999909
 21
0.0099999999999909
 31
0.0
  0
LINE
  5
9C
330
1F
100
AcDbEntity
  8
All
  6
Continuous
370
    25
100
AcDbLine
 10
22.0
 20
21.0
 30
0.0
 11
0.0
 21
21.0
 31
0.0
  0
LINE
  5
9D
330
1F
100
AcDbEntity
  8
All
  6
Continuous
370
    25
100
AcDbLine
 10
0.0099999999999909
 20
0.0099999999999909
 30
0.0
 11
21.99000000000001
 21
0.0099999999999909
 31
0.0
  0
LINE
  5
9E
330
1F
100
AcDbEntity
  8
All
  6
Continuous
370
    25
100
AcDbLine
 10
21.99000000000001
 20
0.0099999999999909
 30
0.0
 11
21.99000000000001
 21
20.99000000000001
 31
0.0
  0
LINE
  5
9F
330
1F
100
AcDbEntity
  8
All
  6
Continuous
370
    25
100
AcDbLine
 10
0.0
 20
0.0
 30
0.0
 11
22.0
 21
0.0
 31
0.0
  0
LINE
  5
A0
330
1F
100
AcDbEntity
  8
All
  6
Continuous
370
    25
100
AcDbLine
 10
0.0
 20
21.0
 30
0.0
 11
0.0
 21
0.0
 31
0.0
  0
LINE
  5
A1
330
1F
100
AcDbEntity
  8
All
  6
Continuous
370
    25
100
AcDbLine
 10
14.27562426675615
 20
10.9743757332439
 30
0.0
 11
15.02562426675615
 21
10.9743757332439
 31
0.0
  0
LINE
  5
A2
330
1F
100
AcDbEntity
  8
All
  6
Continuous
370
    25
100
AcDbLine
 10
15.02562426675615
 20
10.9743757332439
 30
0.0
 11
15.02562426675615
 21
10.57437573324392
 31
0.0
  0
LINE
  5
A3
330
1F
100
AcDbEntity
  8
All
  6
Continuous
370
    25
100
AcDbLine
 10
15.02562426675615
 20
10.57437573324392
 30
0.0
 11
15.62562426675617
 21
10.57437573324392
 31
0.0
  0
LINE
  5
A4
330
1F
100
AcDbEntity
  8
All
  6
Continuous
370
    25
100
AcDbLine
 10
15.62562426675617
 20
10.57437573324392
 30
0.0
 11
15.62562426675617
 21
10.82437573324392
 31
0.0
  0
LINE
  5
A5
330
1F
100
AcDbEntity
  8
All
  6
Continuous
370
    25
100
AcDbLine
 10
15.62562426675617
 20
10.82437573324392
 30
0.0
 11
15.92562426675616
 21
10.82437573324392
 31
0.0
  0
LINE
  5
A6
330
1F
100
AcDbEntity
  8
All
  6
Continuous
370
    25
100
AcDbLine
 10
15.92562426675616
 20
10.82437573324392
 30
0.0
 11
15.92562426675616
 21
9.624375733243908
 31
0.0
  0
LINE
  5
A7
330
1F
100
AcDbEntity
  8
All
  6
Continuous
370
    25
100
AcDbLine
 10
15.92562426675616
 20
9.624375733243908
 30
0.0
 11
15.62562426675617
 21
9.624375733243908
 31
0.0
  0
LINE
  5
A8
330
1F
100
AcDbEntity
  8
All
  6
Continuous
370
    25
100
AcDbLine
 10
15.62562426675617
 20
9.624375733243908
 30
0.0
 11
15.62562426675617
 21
9.874375733243937
 31
0.0
  0
LINE
  5
A9
330
1F
100
AcDbEntity
  8
All
  6
Continuous
370
    25
100
AcDbLine
 10
15.62562426675617
 20
9.874375733243937
 30
0.0
 11
15.02562426675615
 21
9.874375733243937
 31
0.0
  0
LINE
  5
AA
330
1F
100
AcDbEntity
  8
All
  6
Continuous
370
    25
100
AcDbLine
 10
15.02562426675615
 20
9.874375733243937
 30
0.0
 11
15.02562426675615
 21
9.474375733243931
 31
0.0
  0
LINE
  5
AB
330
1F
100
AcDbEntity
  8
All
  6
Continuous
370
    25
100
AcDbLine
 10
15.02562426675615
 20
9.474375733243931
 30
0.0
 11
14.27562426675615
 21
9.474375733243931
 31
0.0
  0
LINE
  5
AC
330
1F
100
AcDbEntity
  8
All
  6
Continuous
370
    25
100
AcDbLine
 10
3.574375733243925
 20
19.02562426675612
 30
0.0
 11
3.574375733243925
 21
18.27562426675612
 31
0.0
  0
LINE
  5
AD
330
1F
100
AcDbEntity
  8
All
  6
Continuous
370
    25
100
AcDbLine
 10
3.974375733243931
 20
19.02562426675612
 30
0.0
 11
3.574375733243925
 21
19.02562426675612
 31
0.0
  0
LINE
  5
AE
330
1F
100
AcDbEntity
  8
All
  6
Continuous
370
    25
100
AcDbLine
 10
3.974375733243931
 20
19.62562426675615
 30
0.0
 11
3.974375733243931
 21
19.02562426675612
 31
0.0
  0
LINE
  5
AF
330
1F
100
AcDbEntity
  8
All
  6
Continuous
370
    25
100
AcDbLine
 10
3.724375733243931
 20
19.62562426675615
 30
0.0
 11
3.974375733243931
 21
19.62562426675615
 31
0.0
  0
LINE
  5
B0
330
1F
100
AcDbEntity
  8
All
  6
Continuous
370
    25
100
AcDbLine
 10
3.724375733243931
 20
19.92562426675613
 30
0.0
 11
3.724375733243931
 21
19.62562426675615
 31
0.0
  0
LINE
  5
B1
330
1F
100
AcDbEntity
  8
All
  6
Continuous
370
    25
100
AcDbLine
 10
4.924375733243891
 20
19.92562426675613
 30
0.0
 11
3.724375733243931
 21
19.92562426675613
 31
0.0
  0
LINE
  5
B2
330
1F
100
AcDbEntity
  8
All
  6
Continuous
370
    25
100
AcDbLine
 10
4.924375733243891
 20
19.62562426675612
 30
0.0
 11
4.924375733243891
 21
19.92562426675613
 31
0.0
  0
LINE
  5
B3
330
1F
100
AcDbEntity
  8
All
  6
Continuous
370
    25
100
AcDbLine
 10
4.674375733243891
 20
19.62562426675612
 30
0.0
 11
4.924375733243891
 21
19.62562426675612
 31
0.0
  0
LINE
  5
B4
330
1F
100
AcDbEntity
  8
All
  6
Continuous
370
    25
100
AcDbLine
 10
4.674375733243891
 20
19.02562426675612
 30
0.0
 11
4.674375733243891
 21
19.62562426675612
 31
0.0
  0
LINE
  5
B5
330
1F
100
AcDbEntity
  8
All
  6
Continuous
370
    25
100
AcDbLine
 10
5.074375733243925
 20
19.02562426675612
 30
0.0
 11
4.674375733243891
 21
19.02562426675612
 31
0.0
  0
LINE
  5
B6
330
1F
100
AcDbEntity
  8
All
  6
Continuous
370
    25
100
AcDbLine
 10
5.074375733243897
 20
18.27562426675612
 30
0.0
 11
5.074375733243925
 21
19.02562426675612
 31
0.0
  0
LINE
  5
B7
330
1F
100
AcDbEntity
  8
All
  6
Continuous
370
    25
100
AcDbLine
 10
11.84393398282211
 20
6.3025126265847
 30
0.0
 11
12.90459415460194
 21
5.241852454804899
 31
0.0
  0
LINE
  5
B8
330
1F
100
AcDbEntity
  8
All
  6
Continuous
370
    25
100
AcDbLine
 10
12.90459415460194
 20
5.241852454804899
 30
0.0
 11
13.18743686707657
 21
5.524695167279503
 31
0.0
  0
LINE
  5
B9
330
1F
100
AcDbEntity
  8
All
  6
Continuous
370
    25
100
AcDbLine
 10
12.12677669529674
 20
6.585355339059333
 30
0.0
 11
13.18743686707657
 21
5.524695167279503
 31
0.0
  0
LINE
  5
BA
330
1F
100
AcDbEntity
  8
All
  6
Continuous
370
    25
100
AcDbLine
 10
11.84393398282211
 20
6.3025126265847
 30
0.0
 11
12.12677669529674
 21
6.585355339059333
 31
0.0
  0
LINE
  5
BB
330
1F
100
AcDbEntity
  8
All
  6
Continuous
370
    25
100
AcDbLine
 10
2.741852454804927
 20
15.40459415460196
 30
0.0
 11
3.024695167279531
 21
15.68743686707657
 31
0.0
  0
LINE
  5
BC
330
1F
100
AcDbEntity
  8
All
  6
Continuous
370
    25
100
AcDbLine
 10
3.024695167279531
 20
15.68743686707657
 30
0.0
 11
4.085355339059361
 21
14.62677669529674
 31
0.0
  0
LINE
  5
BD
330
1F
100
AcDbEntity
  8
All
  6
Continuous
370
    25
100
AcDbLine
 10
2.741852454804927
 20
15.40459415460196
 30
0.0
 11
3.802512626584729
 21
14.34393398282213
 31
0.0
  0
LINE
  5
BE
330
1F
100
AcDbEntity
  8
All
  6
Continuous
370
    25
100
AcDbLine
 10
3.802512626584729
 20
14.34393398282213
 30
0.0
 11
4.085355339059361
 21
14.62677669529674
 31
0.0
  0
LINE
  5
BF
330
1F
100
AcDbEntity
  8
All
  6
Continuous
370
    25
100
AcDbLine
 10
11.47562426675617
 20
8.524375733243914
 30
0.0
 11
11.47562426675617
 21
9.074375733243897
 31
0.0
  0
LINE
  5
C0
330
1F
100
AcDbEntity
  8
All
  6
Continuous
370
    25
100
AcDbLine
 10
11.47562426675617
 20
8.524375733243914
 30
0.0
 11
11.07562426675619
 21
8.524375733243886
 31
0.0
  0
LINE
  5
C1
330
1F
100
AcDbEntity
  8
All
  6
Continuous
370
    25
100
AcDbLine
 10
11.07562426675619
 20
8.524375733243886
 30
0.0
 11
11.07562426675619
 21
9.074375733243897
 31
0.0
  0
LINE
  5
C2
330
1F
100
AcDbEntity
  8
All
  6
Continuous
370
    25
100
AcDbLine
 10
11.47562426675617
 20
9.074375733243897
 30
0.0
 11
11.07562426675619
 21
9.074375733243897
 31
0.0
  0
LINE
  5
C3
330
1F
100
AcDbEntity
  8
All
  6
Continuous
370
    25
100
AcDbLine
 10
6.574375733243925
 20
13.97562426675623
 30
0.0
 11
6.024375733243886
 21
13.97562426675623
 31
0.0
  0
LINE
  5
C4
330
1F
100
AcDbEntity
  8
All
  6
Continuous
370
    25
100
AcDbLine
 10
6.574375733243925
 20
13.97562426675623
 30
0.0
 11
6.574375733243925
 21
13.57562426675619
 31
0.0
  0
LINE
  5
C5
330
1F
100
AcDbEntity
  8
All
  6
Continuous
370
    25
100
AcDbLine
 10
6.574375733243925
 20
13.57562426675619
 30
0.0
 11
6.024375733243886
 21
13.57562426675619
 31
0.0
  0
LINE
  5
C6
330
1F
100
AcDbEntity
  8
All
  6
Continuous
370
    25
100
AcDbLine
 10
6.024375733243886
 20
13.97562426675623
 30
0.0
 11
6.024375733243886
 21
13.57562426675619
 31
0.0
  0
LINE
  5
C7
330
1F
100
AcDbEntity
  8
All
  6
Continuous
370
    25
100
AcDbLine
 10
13.62562426675617
 20
9.474375733243903
 30
0.0
 11
13.07562426675614
 21
9.474375733243903
 31
0.0
  0
LINE
  5
C8
330
1F
100
AcDbEntity
  8
All
  6
Continuous
370
    25
100
AcDbLine
 10
13.62562426675617
 20
9.474375733243903
 30
0.0
 11
13.62562426675617
 21
9.074375733243897
 31
0.0
  0
LINE
  5
C9
330
1F
100
AcDbEntity
  8
All
  6
Continuous
370
    25
100
AcDbLine
 10
13.62562426675617
 20
9.074375733243897
 30
0.0
 11
13.07562426675616
 21
9.074375733243897
 31
0.0
  0
LINE
  5
CA
330
1F
100
AcDbEntity
  8
All
  6
Continuous
370
    25
100
AcDbLine
 10
13.07562426675614
 20
9.474375733243903
 30
0.0
 11
13.07562426675616
 21
9.074375733243897
 31
0.0
  0
LINE
  5
CB
330
1F
100
AcDbEntity
  8
All
  6
Continuous
370
    25
100
AcDbLine
 10
11.07562426675611
 20
8.124375733243937
 30
0.0
 11
11.07562426675611
 21
7.574375733243954
 31
0.0
  0
LINE
  5
CC
330
1F
100
AcDbEntity
  8
All
  6
Continuous
370
    25
100
AcDbLine
 10
11.07562426675611
 20
8.124375733243937
 30
0.0
 11
11.47562426675611
 21
8.124375733243937
 31
0.0
  0
LINE
  5
CD
330
1F
100
AcDbEntity
  8
All
  6
Continuous
370
    25
100
AcDbLine
 10
11.47562426675611
 20
8.124375733243937
 30
0.0
 11
11.47562426675611
 21
7.574375733243954
 31
0.0
  0
LINE
  5
CE
330
1F
100
AcDbEntity
  8
All
  6
Continuous
370
    25
100
AcDbLine
 10
11.07562426675611
 20
7.574375733243954
 30
0.0
 11
11.47562426675611
 21
7.574375733243954
 31
0.0
  0
LINE
  5
CF
330
1F
100
AcDbEntity
  8
All
  6
Continuous
370
    25
100
AcDbLine
 10
12.67562426675616
 20
9.474375733243903
 30
0.0
 11
12.67562426675616
 21
9.074375733243897
 31
0.0
  0
LINE
  5
D0
330
1F
100
AcDbEntity
  8
All
  6
Continuous
370
    25
100
AcDbLine
 10
12.67562426675616
 20
9.074375733243897
 30
0.0
 11
12.12562426675615
 21
9.074375733243897
 31
0.0
  0
LINE
  5
D1
330
1F
100
AcDbEntity
  8
All
  6
Continuous
370
    25
100
AcDbLine
 10
12.12562426675615
 20
9.474375733243874
 30
0.0
 11
12.12562426675615
 21
9.074375733243897
 31
0.0
  0
LINE
  5
D2
330
1F
100
AcDbEntity
  8
All
  6
Continuous
370
    25
100
AcDbLine
 10
12.67562426675616
 20
9.474375733243903
 30
0.0
 11
12.12562426675615
 21
9.474375733243874
 31
0.0
  0
LINE
  5
D3
330
1F
100
AcDbEntity
  8
All
  6
Continuous
370
    25
100
AcDbLine
 10
5.074375733243925
 20
13.57562426675619
 30
0.0
 11
5.074375733243925
 21
13.97562426675623
 31
0.0
  0
LINE
  5
D4
330
1F
100
AcDbEntity
  8
All
  6
Continuous
370
    25
100
AcDbLine
 10
5.074375733243925
 20
13.97562426675623
 30
0.0
 11
5.624375733243937
 21
13.97562426675623
 31
0.0
  0
LINE
  5
D5
330
1F
100
AcDbEntity
  8
All
  6
Continuous
370
    25
100
AcDbLine
 10
5.074375733243925
 20
13.57562426675619
 30
0.0
 11
5.624375733243908
 21
13.57562426675619
 31
0.0
  0
LINE
  5
D6
330
1F
100
AcDbEntity
  8
All
  6
Continuous
370
    25
100
AcDbLine
 10
5.624375733243908
 20
13.57562426675619
 30
0.0
 11
5.624375733243937
 21
13.97562426675623
 31
0.0
  0
LINE
  5
D7
330
1F
100
AcDbEntity
  8
All
  6
Continuous
370
    25
100
AcDbLine
 10
5.435786437626916
 20
11.58578643762701
 30
0.0
 11
6.850000000000022
 21
13.00000000000008
 31
0.0
  0
LINE
  5
D8
330
1F
100
AcDbEntity
  8
All
  6
Continuous
370
    25
100
AcDbLine
 10
5.16016217087079
 20
11.86141070438313
 30
0.0
 11
6.574375733243925
 21
13.27562426675621
 31
0.0
  0
LINE
  5
D9
330
1F
100
AcDbEntity
  8
All
  6
Continuous
370
    25
100
AcDbLine
 10
6.850000000000022
 20
13.00000000000008
 30
0.0
 11
6.574375733243925
 21
13.27562426675621
 31
0.0
  0
LINE
  5
DA
330
1F
100
AcDbEntity
  8
All
  6
Continuous
370
    25
100
AcDbLine
 10
5.435786437626916
 20
11.58578643762701
 30
0.0
 11
5.16016217087079
 21
11.86141070438313
 31
0.0
  0
LINE
  5
DB
330
1F
100
AcDbEntity
  8
All
  6
Continuous
370
    25
100
AcDbLine
 10
10.50000000000008
 20
9.350000000000022
 30
0.0
 11
9.08578643762695
 21
7.935786437626887
 31
0.0
  0
LINE
  5
DC
330
1F
100
AcDbEntity
  8
All
  6
Continuous
370
    25
100
AcDbLine
 10
10.77562426675618
 20
9.074375733243897
 30
0.0
 11
9.361410704383075
 21
7.66016217087079
 31
0.0
  0
LINE
  5
DD
330
1F
100
AcDbEntity
  8
All
  6
Continuous
370
    25
100
AcDbLine
 10
10.50000000000008
 20
9.350000000000022
 30
0.0
 11
10.77562426675618
 21
9.074375733243897
 31
0.0
  0
LINE
  5
DE
330
1F
100
AcDbEntity
  8
All
  6
Continuous
370
    25
100
AcDbLine
 10
9.08578643762695
 20
7.935786437626887
 30
0.0
 11
9.361410704383075
 21
7.66016217087079
 31
0.0
  0
LINE
  5
DF
330
1F
100
AcDbEntity
  8
All
  6
Continuous
370
    25
100
AcDbLine
 10
14.12562426675617
 20
9.474375733243903
 30
0.0
 11
13.07562426675614
 21
9.474375733243903
 31
0.0
  0
LINE
  5
E0
330
1F
100
AcDbEntity
  8
All
  6
Continuous
370
    25
100
AcDbLine
 10
13.07562426675616
 20
9.074375733243897
 30
0.0
 11
12.67562426675616
 21
9.074375733243897
 31
0.0
  0
LINE
  5
E1
330
1F
100
AcDbEntity
  8
All
  6
Continuous
370
    25
100
AcDbLine
 10
12.12562426675615
 20
10.97437573324387
 30
0.0
 11
14.12562426675617
 21
10.9743757332439
 31
0.0
  0
LINE
  5
E2
330
1F
100
AcDbEntity
  8
All
  6
Continuous
370
    25
100
AcDbLine
 10
12.12562426675615
 20
9.474375733243874
 30
0.0
 11
12.12562426675615
 21
10.97437573324387
 31
0.0
  0
LINE
  5
E3
330
1F
100
AcDbEntity
  8
All
  6
Continuous
370
    25
100
AcDbLine
 10
2.290380592228757
 20
14.95312229202579
 30
0.0
 11
2.741852454804927
 21
15.40459415460196
 31
0.0
  0
LINE
  5
E4
330
1F
100
AcDbEntity
  8
All
  6
Continuous
370
    25
100
AcDbLine
 10
3.802512626584729
 20
14.34393398282213
 30
0.0
 11
3.590380592228768
 21
14.13180194846615
 31
0.0
  0
LINE
  5
E5
330
1F
100
AcDbEntity
  8
All
  6
Continuous
370
    25
100
AcDbLine
 10
3.590380592228768
 20
14.13180194846615
 30
0.0
 11
3.590380592228768
 21
10.56022907321235
 31
0.0
  0
ARC
  5
E6
330
1F
100
AcDbEntity
  8
All
  6
Continuous
370
    25
100
AcDbCircle
 10
5.590380592228768
 20
10.56022907321235
 30
0.0
 40
2.000000000000015
100
AcDbArc
 50
180.0
 51
225.0000000000011
  0
LINE
  5
E7
330
1F
100
AcDbEntity
  8
All
  6
Continuous
370
    25
100
AcDbLine
 10
4.176167029855662
 20
9.146015510839248
 30
0.0
 11
5.353714100779342
 21
7.96846843991554
 31
0.0
  0
LINE
  5
E8
330
1F
100
AcDbEntity
  8
All
  6
Continuous
370
    25
100
AcDbLine
 10
5.353714100779342
 20
7.96846843991554
 30
0.0
 11
4.293053928999512
 21
6.907808268135738
 31
0.0
  0
LINE
  5
E9
330
1F
100
AcDbEntity
  8
All
  6
Continuous
370
    25
100
AcDbLine
 10
4.293053928999512
 20
6.907808268135738
 30
0.0
 11
2.876167029855679
 21
8.324695167279628
 31
0.0
  0
ARC
  5
EA
330
1F
100
AcDbEntity
  8
All
  6
Continuous
370
    25
100
AcDbCircle
 10
4.290380592228757
 20
9.738908729652706
 30
0.0
 40
2.0
100
AcDbArc
 50
180.0
 51
225.0000000000011
  0
LINE
  5
EB
330
1F
100
AcDbEntity
  8
All
  6
Continuous
370
    25
100
AcDbLine
 10
2.290380592228757
 20
9.738908729652706
 30
0.0
 11
2.290380592228757
 21
14.95312229202579
 31
0.0
  0
LINE
  5
EC
330
1F
100
AcDbEntity
  8
All
  6
Continuous
370
    25
100
AcDbLine
 10
6.646015510839248
 20
6.676167029855662
 30
0.0
 11
5.468468439915568
 21
7.853714100779342
 31
0.0
  0
ARC
  5
ED
330
1F
100
AcDbEntity
  8
All
  6
Continuous
370
    25
100
AcDbCircle
 10
8.060229073212354
 20
8.09038059222874
 30
0.0
 40
2.0
100
AcDbArc
 50
225.0
 51
270.0
  0
LINE
  5
EE
330
1F
100
AcDbEntity
  8
All
  6
Continuous
370
    25
100
AcDbLine
 10
11.84393398282211
 20
6.3025126265847
 30
0.0
 11
11.63180194846614
 21
6.09038059222874
 31
0.0
  0
LINE
  5
EF
330
1F
100
AcDbEntity
  8
All
  6
Continuous
370
    25
100
AcDbLine
 10
4.407808268135738
 20
6.793053928999512
 30
0.0
 11
5.8246951672796
 21
5.37616702985565
 31
0.0
  0
LINE
  5
F0
330
1F
100
AcDbEntity
  8
All
  6
Continuous
370
    25
100
AcDbLine
 10
12.4531222920258
 20
4.790380592228757
 30
0.0
 11
12.90459415460194
 21
5.241852454804899
 31
0.0
  0
LINE
  5
F1
330
1F
100
AcDbEntity
  8
All
  6
Continuous
370
    25
100
AcDbLine
 10
7.238908729652706
 20
4.790380592228757
 30
0.0
 11
12.4531222920258
 21
4.790380592228757
 31
0.0
  0
LINE
  5
F2
330
1F
100
AcDbEntity
  8
All
  6
Continuous
370
    25
100
AcDbLine
 10
11.63180194846614
 20
6.09038059222874
 30
0.0
 11
8.060229073212354
 21
6.09038059222874
 31
0.0
  0
ARC
  5
F3
330
1F
100
AcDbEntity
  8
All
  6
Continuous
370
    25
100
AcDbCircle
 10
7.238908729652706
 20
6.790380592228757
 30
0.0
 40
2.000000000000015
100
AcDbArc
 50
225.0000000000011
 51
270.0
  0
LINE
  5
F4
330
1F
100
AcDbEntity
  8
All
  6
Continuous
370
    25
100
AcDbLine
 10
3.085355339059361
 20
15.7480970388564
 30
0.0
 11
3.024695167279531
 21
15.68743686707657
 31
0.0
  0
ARC
  5
F5
330
1F
100
AcDbEntity
  8
All
  6
Continuous
370
    25
100
AcDbCircle
 10
3.792462120245915
 20
15.04099025766985
 30
0.0
 40
1.000000000000007
100
AcDbArc
 50
93.47770684972555
 51
135.0
  0
ARC
  5
F6
330
1F
100
AcDbEntity
  8
All
  6
Continuous
370
    25
100
AcDbCircle
 10
3.671141776686283
 20
15.04099025766985
 30
0.0
 40
0.999999999999985
100
AcDbArc
 50
45.0
 51
86.5222931502762
  0
LINE
  5
F7
330
1F
100
AcDbEntity
  8
All
  6
Continuous
370
    25
100
AcDbLine
 10
4.464213562373117
 20
15.66213203435606
 30
0.0
 11
4.378248557872808
 21
15.74809703885637
 31
0.0
  0
ARC
  5
F8
330
1F
100
AcDbEntity
  8
All
  6
Continuous
370
    25
100
AcDbCircle
 10
3.050000000000039
 20
14.24791847198298
 30
0.0
 40
1.999999999999975
100
AcDbArc
 50
0.0
 51
45.0
  0
LINE
  5
F9
330
1F
100
AcDbEntity
  8
All
  6
Continuous
370
    25
100
AcDbLine
 10
5.050000000000011
 20
10.25000000000008
 30
0.0
 11
5.050000000000011
 21
14.24791847198298
 31
0.0
  0
LINE
  5
FA
330
1F
100
AcDbEntity
  8
All
  6
Continuous
370
    25
100
AcDbLine
 10
5.350000000000022
 20
10.25000000000008
 30
0.0
 11
5.050000000000011
 21
10.25000000000008
 31
0.0
  0
LINE
  5
FB
330
1F
100
AcDbEntity
  8
All
  6
Continuous
370
    25
100
AcDbLine
 10
5.350000000000022
 20
10.35000000000008
 30
0.0
 11
5.350000000000022
 21
10.25000000000008
 31
0.0
  0
LINE
  5
FC
330
1F
100
AcDbEntity
  8
All
  6
Continuous
370
    25
100
AcDbLine
 10
6.850000000000051
 20
10.01602540378451
 30
0.0
 11
6.850000000000051
 21
10.35000000000008
 31
0.0
  0
LINE
  5
FD
330
1F
100
AcDbEntity
  8
All
  6
Continuous
370
    25
100
AcDbLine
 10
5.58205080756889
 20
9.283974596215642
 30
0.0
 11
6.850000000000051
 21
10.01602540378451
 31
0.0
  0
ARC
  5
FE
330
1F
100
AcDbEntity
  8
All
  6
Continuous
370
    25
100
AcDbCircle
 10
5.08205080756889
 20
10.15000000000009
 30
0.0
 40
1.000000000000008
100
AcDbArc
 50
270.0
 51
299.9999999999997
  0
LINE
  5
FF
330
1F
100
AcDbEntity
  8
All
  6
Continuous
370
    25
100
AcDbLine
 10
5.08205080756889
 20
9.15000000000009
 30
0.0
 11
4.850000000000022
 21
9.15000000000009
 31
0.0
  0
ARC
  5
100
330
1F
100
AcDbEntity
  8
All
  6
Continuous
370
    25
100
AcDbCircle
 10
4.850000000000022
 20
10.25000000000008
 30
0.0
 40
1.099999999999994
100
AcDbArc
 50
180.0
 51
270.0
  0
LINE
  5
101
330
1F
100
AcDbEntity
  8
All
  6
Continuous
370
    25
100
AcDbLine
 10
3.750000000000028
 20
10.25000000000008
 30
0.0
 11
3.750000000000028
 21
10.35000000000008
 31
0.0
  0
LINE
  5
102
330
1F
100
AcDbEntity
  8
All
  6
Continuous
370
    25
100
AcDbLine
 10
4.350000000000022
 20
10.35000000000008
 30
0.0
 11
4.350000000000022
 21
10.65000000000009
 31
0.0
  0
LINE
  5
103
330
1F
100
AcDbEntity
  8
All
  6
Continuous
370
    25
100
AcDbLine
 10
4.350000000000022
 20
10.65000000000009
 30
0.0
 11
3.750000000000028
 21
10.65000000000009
 31
0.0
  0
LINE
  5
104
330
1F
100
AcDbEntity
  8
All
  6
Continuous
370
    25
100
AcDbLine
 10
3.750000000000028
 20
10.65000000000009
 30
0.0
 11
3.750000000000028
 21
11.65000000000009
 31
0.0
  0
LINE
  5
105
330
1F
100
AcDbEntity
  8
All
  6
Continuous
370
    25
100
AcDbLine
 10
3.750000000000028
 20
11.65000000000009
 30
0.0
 11
4.017308802049029
 21
14.14488215245745
 31
0.0
  0
ARC
  5
106
330
1F
100
AcDbEntity
  8
All
  6
Continuous
370
    25
100
AcDbCircle
 10
5.01161795596883
 20
14.0383490288232
 30
0.0
 40
0.9999999999999989
100
AcDbArc
 50
148.8207641913986
 51
173.8844964337154
  0
LINE
  5
107
330
1F
100
AcDbEntity
  8
All
  6
Continuous
370
    25
100
AcDbLine
 10
4.156066017178005
 20
14.5560660171781
 30
0.0
 11
3.024695167279531
 21
15.68743686707657
 31
0.0
  0
LINE
  5
108
330
1F
100
AcDbEntity
  8
All
  6
Continuous
370
    25
100
AcDbLine
 10
3.750000000000028
 20
10.35000000000008
 30
0.0
 11
4.350000000000022
 21
10.35000000000008
 31
0.0
  0
LINE
  5
109
330
1F
100
AcDbEntity
  8
All
  6
Continuous
370
    25
100
AcDbLine
 10
8.15000000000009
 20
6.850000000000022
 30
0.0
 11
8.15000000000009
 21
6.25
 31
0.0
  0
LINE
  5
10A
330
1F
100
AcDbEntity
  8
All
  6
Continuous
370
    25
100
AcDbLine
 10
7.850000000000079
 20
6.850000000000022
 30
0.0
 11
8.15000000000009
 21
6.850000000000022
 31
0.0
  0
LINE
  5
10B
330
1F
100
AcDbEntity
  8
All
  6
Continuous
370
    25
100
AcDbLine
 10
6.783974596215642
 20
8.082050807568862
 30
0.0
 11
7.51602540378451
 21
9.350000000000022
 31
0.0
  0
LINE
  5
10C
330
1F
100
AcDbEntity
  8
All
  6
Continuous
370
    25
100
AcDbLine
 10
7.51602540378451
 20
9.350000000000022
 30
0.0
 11
7.850000000000108
 21
9.350000000000022
 31
0.0
  0
LINE
  5
10D
330
1F
100
AcDbEntity
  8
All
  6
Continuous
370
    25
100
AcDbLine
 10
7.750000000000085
 20
7.850000000000022
 30
0.0
 11
7.750000000000085
 21
7.549999999999982
 31
0.0
  0
ARC
  5
10E
330
1F
100
AcDbEntity
  8
All
  6
Continuous
370
    25
100
AcDbCircle
 10
11.74791847198295
 20
5.549999999999982
 30
0.0
 40
2.000000000000036
100
AcDbArc
 50
45.0
 51
90.0
  0
LINE
  5
10F
330
1F
100
AcDbEntity
  8
All
  6
Continuous
370
    25
100
AcDbLine
 10
13.16213203435606
 20
6.964213562373117
 30
0.0
 11
13.2480970388564
 21
6.87824855787278
 31
0.0
  0
ARC
  5
110
330
1F
100
AcDbEntity
  8
All
  6
Continuous
370
    25
100
AcDbCircle
 10
12.54099025766985
 20
6.171141776686226
 30
0.0
 40
1.000000000000007
100
AcDbArc
 50
3.477706849725531
 51
45.0
  0
ARC
  5
111
330
1F
100
AcDbEntity
  8
All
  6
Continuous
370
    25
100
AcDbCircle
 10
12.54099025766985
 20
6.292462120245886
 30
0.0
 40
1.000000000000007
100
AcDbArc
 50
315.0000000000012
 51
356.5222931502745
  0
LINE
  5
112
330
1F
100
AcDbEntity
  8
All
  6
Continuous
370
    25
100
AcDbLine
 10
13.2480970388564
 20
5.585355339059333
 30
0.0
 11
13.18743686707657
 21
5.524695167279503
 31
0.0
  0
LINE
  5
113
330
1F
100
AcDbEntity
  8
All
  6
Continuous
370
    25
100
AcDbLine
 10
12.05606601717809
 20
6.656066017178005
 30
0.0
 11
13.18743686707657
 21
5.524695167279503
 31
0.0
  0
ARC
  5
114
330
1F
100
AcDbEntity
  8
All
  6
Continuous
370
    25
100
AcDbCircle
 10
11.53834902882318
 20
7.51161795596883
 30
0.0
 40
1.000000000000021
100
AcDbArc
 50
276.1155035662862
 51
301.1792358086036
  0
LINE
  5
115
330
1F
100
AcDbEntity
  8
All
  6
Continuous
370
    25
100
AcDbLine
 10
9.15000000000009
 20
6.25
 30
0.0
 11
11.64488215245745
 21
6.517308802049001
 31
0.0
  0
ARC
  5
116
330
1F
100
AcDbEntity
  8
All
  6
Continuous
370
    25
100
AcDbCircle
 10
7.65000000000009
 20
7.582050807568862
 30
0.0
 40
1.000000000000008
100
AcDbArc
 50
150.0000000000003
 51
179.9999999999984
  0
LINE
  5
117
330
1F
100
AcDbEntity
  8
All
  6
Continuous
370
    25
100
AcDbLine
 10
7.850000000000079
 20
6.25
 30
0.0
 11
7.850000000000079
 21
6.850000000000022
 31
0.0
  0
LINE
  5
118
330
1F
100
AcDbEntity
  8
All
  6
Continuous
370
    25
100
AcDbLine
 10
6.65000000000009
 20
7.350000000000022
 30
0.0
 11
6.65000000000009
 21
7.58205080756889
 31
0.0
  0
LINE
  5
119
330
1F
100
AcDbEntity
  8
All
  6
Continuous
370
    25
100
AcDbLine
 10
7.850000000000079
 20
7.850000000000022
 30
0.0
 11
7.750000000000085
 21
7.850000000000022
 31
0.0
  0
ARC
  5
11A
330
1F
100
AcDbEntity
  8
All
  6
Continuous
370
    25
100
AcDbCircle
 10
7.750000000000085
 20
7.350000000000022
 30
0.0
 40
1.100000000000022
100
AcDbArc
 50
180.0
 51
270.0
  0
LINE
  5
11B
330
1F
100
AcDbEntity
  8
All
  6
Continuous
370
    25
100
AcDbLine
 10
7.750000000000085
 20
7.549999999999982
 30
0.0
 11
11.74791847198295
 21
7.549999999999982
 31
0.0
  0
LINE
  5
11C
330
1F
100
AcDbEntity
  8
All
  6
Continuous
370
    25
100
AcDbLine
 10
7.750000000000085
 20
6.25
 30
0.0
 11
7.850000000000079
 21
6.25
 31
0.0
  0
LINE
  5
11D
330
1F
100
AcDbEntity
  8
All
  6
Continuous
370
    25
100
AcDbLine
 10
8.15000000000009
 20
6.25
 30
0.0
 11
9.15000000000009
 21
6.25
 31
0.0
  0
LINE
  5
11E
330
1F
100
AcDbEntity
  8
All
  6
Continuous
370
    25
100
AcDbLine
 10
12.67562426675616
 20
9.074375733243897
 30
0.0
 11
12.67562426675616
 21
8.874375733243908
 31
0.0
  0
LINE
  5
11F
330
1F
100
AcDbEntity
  8
All
  6
Continuous
370
    25
100
AcDbLine
 10
12.67562426675616
 20
8.874375733243908
 30
0.0
 11
13.07562426675616
 21
8.874375733243908
 31
0.0
  0
LINE
  5
120
330
1F
100
AcDbEntity
  8
All
  6
Continuous
370
    25
100
AcDbLine
 10
13.07562426675616
 20
8.874375733243908
 30
0.0
 11
13.07562426675616
 21
9.074375733243897
 31
0.0
  0
LINE
  5
121
330
1F
100
AcDbEntity
  8
All
  6
Continuous
370
    25
100
AcDbLine
 10
13.62562426675617
 20
9.074375733243897
 30
0.0
 11
13.62562426675617
 21
7.574375733243897
 31
0.0
  0
LINE
  5
122
330
1F
100
AcDbEntity
  8
All
  6
Continuous
370
    25
100
AcDbLine
 10
13.62562426675617
 20
7.574375733243897
 30
0.0
 11
12.12562426675617
 21
7.574375733243897
 31
0.0
  0
LINE
  5
123
330
1F
100
AcDbEntity
  8
All
  6
Continuous
370
    25
100
AcDbLine
 10
11.97562426675617
 20
7.574375733243897
 30
0.0
 11
11.47562426675617
 21
7.574375733243897
 31
0.0
  0
LINE
  5
124
330
1F
100
AcDbEntity
  8
All
  6
Continuous
370
    25
100
AcDbLine
 10
11.07562426675619
 20
8.12437573324388
 30
0.0
 11
11.07562426675619
 21
8.524375733243914
 31
0.0
  0
LINE
  5
125
330
1F
100
AcDbEntity
  8
All
  6
Continuous
370
    25
100
AcDbLine
 10
11.47562426675617
 20
9.074375733243897
 30
0.0
 11
11.97562426675617
 21
9.074375733243897
 31
0.0
  0
LINE
  5
126
330
1F
100
AcDbEntity
  8
All
  6
Continuous
370
    25
100
AcDbLine
 10
1.5
 20
13.53589838486223
 30
0.0
 11
1.5
 21
9.5
 31
0.0
  0
ARC
  5
127
330
1F
100
AcDbEntity
  8
All
  6
Continuous
370
    25
100
AcDbCircle
 10
10.5
 20
7.5
 30
0.0
 40
4.0
100
AcDbArc
 50
270.0
 51
347.2053704862561
  0
LINE
  5
128
330
1F
100
AcDbEntity
  8
All
  6
Continuous
370
    25
100
AcDbLine
 10
16.0
 20
9.0
 30
0.0
 11
16.0
 21
11.0
 31
0.0
  0
LINE
  5
129
330
1F
100
AcDbEntity
  8
All
  6
Continuous
370
    25
100
AcDbLine
 10
16.0
 20
11.0
 30
0.0
 11
10.5
 21
11.0
 31
0.0
  0
LINE
  5
12A
330
1F
100
AcDbEntity
  8
All
  6
Continuous
370
    25
100
AcDbLine
 10
9.0
 20
10.5
 30
0.0
 11
9.0
 21
11.5
 31
0.0
  0
LINE
  5
12B
330
1F
100
AcDbEntity
  8
All
  6
Continuous
370
    25
100
AcDbLine
 10
9.0
 20
11.5
 30
0.0
 11
8.0
 21
11.5
 31
0.0
  0
LINE
  5
12C
330
1F
100
AcDbEntity
  8
All
  6
Continuous
370
    25
100
AcDbLine
 10
8.0
 20
13.0
 30
0.0
 11
8.5
 21
13.0
 31
0.0
  0
LINE
  5
12D
330
1F
100
AcDbEntity
  8
All
  6
Continuous
370
    25
100
AcDbLine
 10
8.5
 20
13.0
 30
0.0
 11
8.5
 21
16.0
 31
0.0
  0
LINE
  5
12E
330
1F
100
AcDbEntity
  8
All
  6
Continuous
370
    25
100
AcDbLine
 10
4.5
 20
20.0
 30
0.0
 11
3.5
 21
20.0
 31
0.0
  0
LINE
  5
12F
330
1F
100
AcDbEntity
  8
All
  6
Continuous
370
    25
100
AcDbLine
 10
3.5
 20
20.0
 30
0.0
 11
3.5
 21
18.82740100699144
 31
0.0
  0
ARC
  5
130
330
1F
100
AcDbEntity
  8
All
  6
Continuous
370
    25
100
AcDbCircle
 10
-0.5
 20
18.82740100699144
 30
0.0
 40
4.000000000000006
100
AcDbArc
 50
318.590377890729
 51
0.0
  0
ARC
  5
131
330
1F
100
AcDbEntity
  8
All
  6
Continuous
370
    25
100
AcDbCircle
 10
5.5
 20
13.53589838486223
 30
0.0
 40
4.000000000000006
100
AcDbArc
 50
138.590377890729
 51
180.0
  0
LINE
  5
132
330
1F
100
AcDbEntity
  8
All
  6
Continuous
370
    25
100
AcDbLine
 10
16.0
 20
13.64999999999997
 30
0.0
 11
14.5
 21
13.64999999999997
 31
0.0
  0
LINE
  5
133
330
1F
100
AcDbEntity
  8
All
  6
Continuous
370
    25
100
AcDbLine
 10
17.5
 20
7.850000000000022
 30
0.0
 11
17.5
 21
8.25
 31
0.0
  0
LINE
  5
134
330
1F
100
AcDbEntity
  8
All
  6
Continuous
370
    25
100
AcDbLine
 10
7.5
 20
3.5
 30
0.0
 11
10.5
 21
3.5
 31
0.0
  0
ARC
  5
135
330
1F
100
AcDbEntity
  8
All
  6
Continuous
370
    25
100
AcDbCircle
 10
7.5
 20
9.5
 30
0.0
 40
6.0
100
AcDbArc
 50
180.0
 51
270.0
  0
LINE
  5
136
330
1F
100
AcDbEntity
  8
All
  6
Continuous
370
    25
100
AcDbLine
 10
17.5
 20
8.25
 30
0.0
 11
16.0
 21
8.25
 31
0.0
  0
LINE
  5
137
330
1F
100
AcDbEntity
  8
All
  6
Continuous
370
    25
100
AcDbLine
 10
16.0
 20
8.25
 30
0.0
 11
16.0
 21
7.850000000000022
 31
0.0
  0
LINE
  5
138
330
1F
100
AcDbEntity
  8
All
  6
Continuous
370
    25
100
AcDbLine
 10
16.0
 20
7.850000000000022
 30
0.0
 11
17.5
 21
7.850000000000022
 31
0.0
  0
LINE
  5
139
330
1F
100
AcDbEntity
  8
All
  6
Continuous
370
    25
100
AcDbLine
 10
21.0
 20
13.65
 30
0.0
 11
19.0
 21
13.65
 31
0.0
  0
LINE
  5
13A
330
1F
100
AcDbEntity
  8
All
  6
Continuous
370
    25
100
AcDbLine
 10
19.0
 20
13.65
 30
0.0
 11
19.0
 21
13.25
 31
0.0
  0
LINE
  5
13B
330
1F
100
AcDbEntity
  8
All
  6
Continuous
370
    25
100
AcDbLine
 10
21.0
 20
13.25
 30
0.0
 11
21.0
 21
13.65
 31
0.0
  0
LINE
  5
13C
330
1F
100
AcDbEntity
  8
All
  6
Continuous
370
    25
100
AcDbLine
 10
19.0
 20
8.25
 30
0.0
 11
19.0
 21
7.850000000000022
 31
0.0
  0
LINE
  5
13D
330
1F
100
AcDbEntity
  8
All
  6
Continuous
370
    25
100
AcDbLine
 10
14.5
 20
13.64999999999997
 30
0.0
 11
14.5
 21
13.25
 31
0.0
  0
LINE
  5
13E
330
1F
100
AcDbEntity
  8
All
  6
Continuous
370
    25
100
AcDbLine
 10
21.0
 20
8.25
 30
0.0
 11
19.0
 21
8.25
 31
0.0
  0
LINE
  5
13F
330
1F
100
AcDbEntity
  8
All
  6
Continuous
370
    25
100
AcDbLine
 10
19.0
 20
7.850000000000022
 30
0.0
 11
21.0
 21
7.850000000000022
 31
0.0
  0
LINE
  5
140
330
1F
100
AcDbEntity
  8
All
  6
Continuous
370
    25
100
AcDbLine
 10
21.0
 20
7.850000000000022
 30
0.0
 11
21.0
 21
8.25
 31
0.0
  0
ARC
  5
141
330
1F
100
AcDbEntity
  8
All
  6
Continuous
370
    25
100
AcDbCircle
 10
4.5
 20
16.0
 30
0.0
 40
4.0
100
AcDbArc
 50
0.0
 51
90.0
  0
ARC
  5
142
330
1F
100
AcDbEntity
  8
All
  6
Continuous
370
    25
100
AcDbCircle
 10
18.3013609308278
 20
5.728343253631379
 30
0.0
 40
3.99999999999999
100
AcDbArc
 50
125.1234623817957
 51
167.2053704862561
  0
LINE
  5
143
330
1F
100
AcDbEntity
  8
All
  6
Continuous
370
    25
100
AcDbLine
 10
19.0
 20
13.25
 30
0.0
 11
21.0
 21
13.25
 31
0.0
  0
LINE
  5
144
330
1F
100
AcDbEntity
  8
All
  6
Continuous
370
    25
100
AcDbLine
 10
10.5
 20
11.0
 30
0.0
 11
10.5
 21
10.5
 31
0.0
  0
LINE
  5
145
330
1F
100
AcDbEntity
  8
All
  6
Continuous
370
    25
100
AcDbLine
 10
16.0
 20
13.25
 30
0.0
 11
16.0
 21
13.64999999999997
 31
0.0
  0
LINE
  5
146
330
1F
100
AcDbEntity
  8
All
  6
Continuous
370
    25
100
AcDbLine
 10
14.5
 20
13.25
 30
0.0
 11
16.0
 21
13.25
 31
0.0
  0
LINE
  5
147
330
1F
100
AcDbEntity
  8
All
  6
Continuous
370
    25
100
AcDbLine
 10
6.850000000000022
 20
10.60000000000008
 30
0.0
 11
7.750000000000028
 21
11.50000000000008
 31
0.0
  0
LINE
  5
148
330
1F
100
AcDbEntity
  8
All
  6
Continuous
370
    25
100
AcDbLine
 10
6.850000000000022
 20
10.50000000000008
 30
0.0
 11
6.850000000000022
 21
10.60000000000008
 31
0.0
  0
LINE
  5
149
330
1F
100
AcDbEntity
  8
All
  6
Continuous
370
    25
100
AcDbLine
 10
6.850000000000022
 20
13.00000000000008
 30
0.0
 11
5.350000000000022
 21
11.50000000000008
 31
0.0
  0
LINE
  5
14A
330
1F
100
AcDbEntity
  8
All
  6
Continuous
370
    25
100
AcDbLine
 10
7.850000000000022
 20
13.00000000000008
 30
0.0
 11
6.850000000000022
 21
13.00000000000008
 31
0.0
  0
LINE
  5
14B
330
1F
100
AcDbEntity
  8
All
  6
Continuous
370
    25
100
AcDbLine
 10
5.350000000000022
 20
11.50000000000008
 30
0.0
 11
5.350000000000022
 21
10.50000000000008
 31
0.0
  0
LINE
  5
14C
330
1F
100
AcDbEntity
  8
All
  6
Continuous
370
    25
100
AcDbLine
 10
7.550000000000011
 20
12.0500000000001
 30
0.0
 11
7.550000000000011
 21
12.4500000000001
 31
0.0
  0
LINE
  5
14D
330
1F
100
AcDbEntity
  8
All
  6
Continuous
370
    25
100
AcDbLine
 10
7.250000000000028
 20
12.0500000000001
 30
0.0
 11
7.550000000000011
 21
12.0500000000001
 31
0.0
  0
LINE
  5
14E
330
1F
100
AcDbEntity
  8
All
  6
Continuous
370
    25
100
AcDbLine
 10
7.550000000000011
 20
12.4500000000001
 30
0.0
 11
7.250000000000028
 21
12.4500000000001
 31
0.0
  0
LINE
  5
14F
330
1F
100
AcDbEntity
  8
All
  6
Continuous
370
    25
100
AcDbLine
 10
7.250000000000028
 20
12.4500000000001
 30
0.0
 11
7.250000000000028
 21
12.0500000000001
 31
0.0
  0
LINE
  5
150
330
1F
100
AcDbEntity
  8
All
  6
Continuous
370
    25
100
AcDbLine
 10
7.750000000000028
 20
11.50000000000008
 30
0.0
 11
7.850000000000022
 21
11.50000000000008
 31
0.0
  0
LINE
  5
151
330
1F
100
AcDbEntity
  8
All
  6
Continuous
370
    25
100
AcDbLine
 10
9.550000000000068
 20
9.75
 30
0.0
 11
9.550000000000068
 21
10.05000000000001
 31
0.0
  0
LINE
  5
152
330
1F
100
AcDbEntity
  8
All
  6
Continuous
370
    25
100
AcDbLine
 10
10.50000000000008
 20
10.34999999999999
 30
0.0
 11
10.50000000000008
 21
9.350000000000022
 31
0.0
  0
LINE
  5
153
330
1F
100
AcDbEntity
  8
All
  6
Continuous
370
    25
100
AcDbLine
 10
9.950000000000045
 20
10.05000000000001
 30
0.0
 11
9.950000000000045
 21
9.75
 31
0.0
  0
LINE
  5
154
330
1F
100
AcDbEntity
  8
All
  6
Continuous
370
    25
100
AcDbLine
 10
9.000000000000085
 20
10.25
 30
0.0
 11
9.000000000000085
 21
10.35000000000002
 31
0.0
  0
LINE
  5
155
330
1F
100
AcDbEntity
  8
All
  6
Continuous
370
    25
100
AcDbLine
 10
9.550000000000068
 20
10.05000000000001
 30
0.0
 11
9.950000000000045
 21
10.05000000000001
 31
0.0
  0
LINE
  5
156
330
1F
100
AcDbEntity
  8
All
  6
Continuous
370
    25
100
AcDbLine
 10
9.950000000000045
 20
9.75
 30
0.0
 11
9.550000000000068
 21
9.75
 31
0.0
  0
LINE
  5
157
330
1F
100
AcDbEntity
  8
All
  6
Continuous
370
    25
100
AcDbLine
 10
8.100000000000079
 20
9.350000000000022
 30
0.0
 11
9.000000000000085
 21
10.25
 31
0.0
  0
LINE
  5
158
330
1F
100
AcDbEntity
  8
All
  6
Continuous
370
    25
100
AcDbLine
 10
8.000000000000085
 20
9.350000000000022
 30
0.0
 11
8.100000000000079
 21
9.350000000000022
 31
0.0
  0
LINE
  5
159
330
1F
100
AcDbEntity
  8
All
  6
Continuous
370
    25
100
AcDbLine
 10
9.000000000000085
 20
7.850000000000022
 30
0.0
 11
8.000000000000085
 21
7.850000000000022
 31
0.0
  0
LINE
  5
15A
330
1F
100
AcDbEntity
  8
All
  6
Continuous
370
    25
100
AcDbLine
 10
10.50000000000008
 20
9.350000000000022
 30
0.0
 11
9.000000000000085
 21
7.850000000000022
 31
0.0
  0
LINE
  5
15B
330
1F
100
AcDbEntity
  8
All
  6
Continuous
370
    25
100
AcDbLine
 10
5.624375733243908
 20
13.3756242667562
 30
0.0
 11
5.624375733243908
 21
13.57562426675619
 31
0.0
  0
LINE
  5
15C
330
1F
100
AcDbEntity
  8
All
  6
Continuous
370
    25
100
AcDbLine
 10
6.024375733243914
 20
13.3756242667562
 30
0.0
 11
5.624375733243908
 21
13.3756242667562
 31
0.0
  0
LINE
  5
15D
330
1F
100
AcDbEntity
  8
All
  6
Continuous
370
    25
100
AcDbLine
 10
6.024375733243914
 20
13.57562426675619
 30
0.0
 11
6.024375733243914
 21
13.3756242667562
 31
0.0
  0
LINE
  5
15E
330
1F
100
AcDbEntity
  8
All
  6
Continuous
370
    25
100
AcDbLine
 10
6.574375733243925
 20
13.27562426675621
 30
0.0
 11
6.574375733243925
 21
13.57562426675619
 31
0.0
  0
LINE
  5
15F
330
1F
100
AcDbEntity
  8
All
  6
Continuous
370
    25
100
AcDbLine
 10
5.074375733243925
 20
11.77562426675621
 30
0.0
 11
6.574375733243925
 21
13.27562426675621
 31
0.0
  0
LINE
  5
160
330
1F
100
AcDbEntity
  8
All
  6
Continuous
370
    25
100
AcDbLine
 10
5.074375733243925
 20
13.57562426675619
 30
0.0
 11
5.074375733243925
 21
11.77562426675621
 31
0.0
  0
LINE
  5
161
330
1F
100
AcDbEntity
  8
All
  6
Continuous
370
    25
100
AcDbLine
 10
10.77562426675618
 20
9.074375733243897
 30
0.0
 11
11.07562426675619
 21
9.074375733243897
 31
0.0
  0
LINE
  5
162
330
1F
100
AcDbEntity
  8
All
  6
Continuous
370
    25
100
AcDbLine
 10
11.07562426675619
 20
8.524375733243914
 30
0.0
 11
10.87562426675617
 21
8.524375733243914
 31
0.0
  0
LINE
  5
163
330
1F
100
AcDbEntity
  8
All
  6
Continuous
370
    25
100
AcDbLine
 10
10.87562426675617
 20
8.524375733243914
 30
0.0
 11
10.87562426675617
 21
8.12437573324388
 31
0.0
  0
LINE
  5
164
330
1F
100
AcDbEntity
  8
All
  6
Continuous
370
    25
100
AcDbLine
 10
10.87562426675617
 20
8.12437573324388
 30
0.0
 11
11.07562426675619
 21
8.12437573324388
 31
0.0
  0
LINE
  5
165
330
1F
100
AcDbEntity
  8
All
  6
Continuous
370
    25
100
AcDbLine
 10
11.07562426675619
 20
7.574375733243897
 30
0.0
 11
9.27562426675621
 21
7.574375733243897
 31
0.0
  0
LINE
  5
166
330
1F
100
AcDbEntity
  8
All
  6
Continuous
370
    25
100
AcDbLine
 10
9.27562426675621
 20
7.574375733243897
 30
0.0
 11
10.77562426675618
 21
9.074375733243897
 31
0.0
  0
LINE
  5
167
330
1F
100
AcDbEntity
  8
All
  6
Continuous
370
    25
100
AcDbLine
 10
6.574375733243925
 20
14.47562426675623
 30
0.0
 11
6.574375733243925
 21
13.97562426675623
 31
0.0
  0
LINE
  5
168
330
1F
100
AcDbEntity
  8
All
  6
Continuous
370
    25
100
AcDbLine
 10
6.024375733243914
 20
13.57562426675619
 30
0.0
 11
5.624375733243908
 21
13.57562426675619
 31
0.0
  0
LINE
  5
169
330
1F
100
AcDbEntity
  8
All
  6
Continuous
370
    25
100
AcDbLine
 10
5.074375733243925
 20
13.97562426675623
 30
0.0
 11
5.074375733243925
 21
14.47562426675623
 31
0.0
  0
LINE
  5
2D7
330
1F
100
AcDbEntity
  8
Final_ReleaseCut
  6
Continuous
370
    25
100
AcDbLine
 10
12.12562426675612
 20
9.074375733243954
 30
0.0
 11
11.97562426675611
 21
9.074375733243954
 31
0.0
  0
LINE
  5
2D8
330
1F
100
AcDbEntity
  8
Final_ReleaseCut
  6
Continuous
370
    25
100
AcDbLine
 10
12.12562426675612
 20
7.574375733243954
 30
0.0
 11
11.97562426675611
 21
7.574375733243954
 31
0.0
  0
LINE
  5
2DB
330
1F
100
AcDbEntity
  8
Final_ReleaseCut
  6
Continuous
370
    25
100
AcDbLine
 10
5.46846843991554
 20
7.853714100779342
 30
0.0
 11
5.362402422737574
 21
7.959780117957308
 31
0.0
  0
LINE
  5
2DD
330
1F
100
AcDbEntity
  8
Final_ReleaseCut
  6
Continuous
370
    25
100
AcDbLine
 10
4.407808268135738
 20
6.793053928999512
 30
0.0
 11
4.301742250957744
 21
6.899119946177478
 31
0.0
  0
LINE
  5
2DF
330
1F
100
AcDbEntity
  8
Final_ReleaseCut
  6
Continuous
370
    25
100
AcDbLine
 10
14.12562426675617
 20
10.9743757332439
 30
0.0
 11
14.27562426675615
 21
10.9743757332439
 31
0.0
  0
LINE
  5
2E1
330
1F
100
AcDbEntity
  8
Final_ReleaseCut
  6
Continuous
370
    25
100
AcDbLine
 10
14.12562426675617
 20
9.474375733243903
 30
0.0
 11
14.27562426675615
 21
9.474375733243903
 31
0.0
  0
LINE
  5
2E3
330
1F
100
AcDbEntity
  8
Final_ReleaseCut
  6
Continuous
370
    25
100
AcDbLine
 10
3.574375733243897
 20
18.12562426675615
 30
0.0
 11
3.574375733243925
 21
18.27562426675612
 31
0.0
  0
LINE
  5
2E4
330
1F
100
AcDbEntity
  8
Final_ReleaseCut
  6
Continuous
370
    25
100
AcDbLine
 10
5.074375733243897
 20
18.12562426675612
 30
0.0
 11
5.074375733243897
 21
18.27562426675612
 31
0.0
  0
LINE
  5
2E7
330
1F
100
AcDbEntity
  8
Final_ReleaseCut
  6
Continuous
370
    25
100
AcDbLine
 10
8.0
 20
11.5
 30
0.0
 11
7.850000000000022
 21
11.5
 31
0.0
  0
LINE
  5
2E8
330
1F
100
AcDbEntity
  8
Final_ReleaseCut
  6
Continuous
370
    25
100
AcDbLine
 10
8.0
 20
13.0
 30
0.0
 11
7.850000000000022
 21
13.0
 31
0.0
  0
LINE
  5
2EA
330
1F
100
AcDbEntity
  8
Final_ReleaseCut
  6
Continuous
370
    25
100
AcDbLine
 10
8.000000000000085
 20
7.850000000000022
 30
0.0
 11
7.850000000000079
 21
7.850000000000022
 31
0.0
  0
LINE
  5
2ED
330
1F
100
AcDbEntity
  8
Final_ReleaseCut
  6
Continuous
370
    25
100
AcDbLine
 10
8.000000000000085
 20
9.350000000000022
 30
0.0
 11
7.850000000000079
 21
9.350000000000022
 31
0.0
  0
LINE
  5
2EF
330
1F
100
AcDbEntity
  8
Final_ReleaseCut
  6
Continuous
370
    25
100
AcDbLine
 10
6.850000000000051
 20
10.35000000000008
 30
0.0
 11
6.850000000000051
 21
10.50000000000008
 31
0.0
  0
LINE
  5
2F1
330
1F
100
AcDbEntity
  8
Final_ReleaseCut
  6
Continuous
370
    25
100
AcDbLine
 10
5.350000000000022
 20
10.35000000000008
 30
0.0
 11
5.350000000000022
 21
10.50000000000008
 31
0.0
  0
LINE
  5
2F2
330
1F
100
AcDbEntity
  8
Final_ReleaseCut
  6
Continuous
370
    25
100
AcDbLine
 10
5.074375733243925
 20
14.6256242667562
 30
0.0
 11
5.074375733243925
 21
14.47562426675623
 31
0.0
  0
LINE
  5
2F4
330
1F
100
AcDbEntity
  8
Final_ReleaseCut
  6
Continuous
370
    25
100
AcDbLine
 10
6.574375733243925
 20
14.6256242667562
 30
0.0
 11
6.574375733243925
 21
14.4756242667562
 31
0.0
  0
LINE
  5
2F7
330
1F
100
AcDbEntity
  8
Final_ReleaseCut
  6
Continuous
370
    25
100
AcDbLine
 10
9.0
 20
10.5
 30
0.0
 11
9.0
 21
10.35000000000002
 31
0.0
  0
LINE
  5
2F8
330
1F
100
AcDbEntity
  8
Final_ReleaseCut
  6
Continuous
370
    25
100
AcDbLine
 10
10.5
 20
10.5
 30
0.0
 11
10.5
 21
10.35000000000002
 31
0.0
  0
LINE
  5
2FA
330
1F
100
AcDbEntity
  8
Final_ReleaseCut
  6
Continuous
370
    25
100
AcDbLine
 10
5.074375733243925
 20
14.6256242667562
 30
0.0
 11
3.574375733243925
 21
18.12562426675623
 31
0.0
  0
LINE
  5
2FB
330
1F
100
AcDbEntity
  8
Final_ReleaseCut
  6
Continuous
370
    25
100
AcDbLine
 10
5.074375733243925
 20
18.1256242667562
 30
0.0
 11
6.574375733243925
 21
14.6256242667562
 31
0.0
  0
LINE
  5
2FD
330
1F
100
AcDbEntity
  8
Final_ReleaseCut
  6
Continuous
370
    25
100
AcDbLine
 10
22.0
 20
0.0
 30
0.0
 11
22.0
 21
21.0
 31
0.0
  0
LINE
  5
2FF
330
1F
100
AcDbEntity
  8
Final_ReleaseCut
  6
Continuous
370
    25
100
AcDbLine
 10
22.0
 20
21.0
 30
0.0
 11
0.0
 21
21.0
 31
0.0
  0
LINE
  5
302
330
1F
100
AcDbEntity
  8
Final_ReleaseCut
  6
Continuous
370
    25
100
AcDbLine
 10
0.0
 20
0.0
 30
0.0
 11
22.0
 21
0.0
 31
0.0
  0
LINE
  5
303
330
1F
100
AcDbEntity
  8
Final_ReleaseCut
  6
Continuous
370
    25
100
AcDbLine
 10
0.0
 20
21.0
 30
0.0
 11
0.0
 21
0.0
 31
0.0
  0
LINE
  5
304
330
1F
100
AcDbEntity
  8
Final_ReleaseCut
  6
Continuous
370
    25
100
AcDbLine
 10
14.27562426675615
 20
10.9743757332439
 30
0.0
 11
15.02562426675615
 21
10.9743757332439
 31
0.0
  0
LINE
  5
305
330
1F
100
AcDbEntity
  8
Final_ReleaseCut
  6
Continuous
370
    25
100
AcDbLine
 10
15.02562426675615
 20
10.9743757332439
 30
0.0
 11
15.02562426675615
 21
10.57437573324392
 31
0.0
  0
LINE
  5
306
330
1F
100
AcDbEntity
  8
Final_ReleaseCut
  6
Continuous
370
    25
100
AcDbLine
 10
15.02562426675615
 20
10.57437573324392
 30
0.0
 11
15.62562426675617
 21
10.57437573324392
 31
0.0
  0
LINE
  5
307
330
1F
100
AcDbEntity
  8
Final_ReleaseCut
  6
Continuous
370
    25
100
AcDbLine
 10
15.62562426675617
 20
10.57437573324392
 30
0.0
 11
15.62562426675617
 21
10.82437573324392
 31
0.0
  0
LINE
  5
308
330
1F
100
AcDbEntity
  8
Final_ReleaseCut
  6
Continuous
370
    25
100
AcDbLine
 10
15.62562426675617
 20
10.82437573324392
 30
0.0
 11
15.92562426675616
 21
10.82437573324392
 31
0.0
  0
LINE
  5
309
330
1F
100
AcDbEntity
  8
Final_ReleaseCut
  6
Continuous
370
    25
100
AcDbLine
 10
15.92562426675616
 20
10.82437573324392
 30
0.0
 11
15.92562426675616
 21
9.624375733243908
 31
0.0
  0
LINE
  5
30A
330
1F
100
AcDbEntity
  8
Final_ReleaseCut
  6
Continuous
370
    25
100
AcDbLine
 10
15.92562426675616
 20
9.624375733243908
 30
0.0
 11
15.62562426675617
 21
9.624375733243908
 31
0.0
  0
LINE
  5
30B
330
1F
100
AcDbEntity
  8
Final_ReleaseCut
  6
Continuous
370
    25
100
AcDbLine
 10
15.62562426675617
 20
9.624375733243908
 30
0.0
 11
15.62562426675617
 21
9.874375733243937
 31
0.0
  0
LINE
  5
30C
330
1F
100
AcDbEntity
  8
Final_ReleaseCut
  6
Continuous
370
    25
100
AcDbLine
 10
15.62562426675617
 20
9.874375733243937
 30
0.0
 11
15.02562426675615
 21
9.874375733243937
 31
0.0
  0
LINE
  5
30D
330
1F
100
AcDbEntity
  8
Final_ReleaseCut
  6
Continuous
370
    25
100
AcDbLine
 10
15.02562426675615
 20
9.874375733243937
 30
0.0
 11
15.02562426675615
 21
9.474375733243931
 31
0.0
  0
LINE
  5
30E
330
1F
100
AcDbEntity
  8
Final_ReleaseCut
  6
Continuous
370
    25
100
AcDbLine
 10
15.02562426675615
 20
9.474375733243931
 30
0.0
 11
14.27562426675615
 21
9.474375733243931
 31
0.0
  0
LINE
  5
30F
330
1F
100
AcDbEntity
  8
Final_ReleaseCut
  6
Continuous
370
    25
100
AcDbLine
 10
3.574375733243925
 20
19.02562426675612
 30
0.0
 11
3.574375733243925
 21
18.27562426675612
 31
0.0
  0
LINE
  5
310
330
1F
100
AcDbEntity
  8
Final_ReleaseCut
  6
Continuous
370
    25
100
AcDbLine
 10
3.974375733243931
 20
19.02562426675612
 30
0.0
 11
3.574375733243925
 21
19.02562426675612
 31
0.0
  0
LINE
  5
311
330
1F
100
AcDbEntity
  8
Final_ReleaseCut
  6
Continuous
370
    25
100
AcDbLine
 10
3.974375733243931
 20
19.62562426675615
 30
0.0
 11
3.974375733243931
 21
19.02562426675612
 31
0.0
  0
LINE
  5
312
330
1F
100
AcDbEntity
  8
Final_ReleaseCut
  6
Continuous
370
    25
100
AcDbLine
 10
3.724375733243931
 20
19.62562426675615
 30
0.0
 11
3.974375733243931
 21
19.62562426675615
 31
0.0
  0
LINE
  5
313
330
1F
100
AcDbEntity
  8
Final_ReleaseCut
  6
Continuous
370
    25
100
AcDbLine
 10
3.724375733243931
 20
19.92562426675613
 30
0.0
 11
3.724375733243931
 21
19.62562426675615
 31
0.0
  0
LINE
  5
314
330
1F
100
AcDbEntity
  8
Final_ReleaseCut
  6
Continuous
370
    25
100
AcDbLine
 10
4.924375733243891
 20
19.92562426675613
 30
0.0
 11
3.724375733243931
 21
19.92562426675613
 31
0.0
  0
LINE
  5
315
330
1F
100
AcDbEntity
  8
Final_ReleaseCut
  6
Continuous
370
    25
100
AcDbLine
 10
4.924375733243891
 20
19.62562426675612
 30
0.0
 11
4.924375733243891
 21
19.92562426675613
 31
0.0
  0
LINE
  5
316
330
1F
100
AcDbEntity
  8
Final_ReleaseCut
  6
Continuous
370
    25
100
AcDbLine
 10
4.674375733243891
 20
19.62562426675612
 30
0.0
 11
4.924375733243891
 21
19.62562426675612
 31
0.0
  0
LINE
  5
317
330
1F
100
AcDbEntity
  8
Final_ReleaseCut
  6
Continuous
370
    25
100
AcDbLine
 10
4.674375733243891
 20
19.02562426675612
 30
0.0
 11
4.674375733243891
 21
19.62562426675612
 31
0.0
  0
LINE
  5
318
330
1F
100
AcDbEntity
  8
Final_ReleaseCut
  6
Continuous
370
    25
100
AcDbLine
 10
5.074375733243925
 20
19.02562426675612
 30
0.0
 11
4.674375733243891
 21
19.02562426675612
 31
0.0
  0
LINE
  5
319
330
1F
100
AcDbEntity
  8
Final_ReleaseCut
  6
Continuous
370
    25
100
AcDbLine
 10
5.074375733243897
 20
18.27562426675612
 30
0.0
 11
5.074375733243925
 21
19.02562426675612
 31
0.0
  0
LINE
  5
31B
330
1F
100
AcDbEntity
  8
Final_ReleaseCut
  6
Continuous
370
    25
100
AcDbLine
 10
12.90459415460194
 20
5.241852454804899
 30
0.0
 11
13.18743686707657
 21
5.524695167279503
 31
0.0
  0
LINE
  5
31D
330
1F
100
AcDbEntity
  8
Final_ReleaseCut
  6
Continuous
370
    25
100
AcDbLine
 10
11.84393398282211
 20
6.3025126265847
 30
0.0
 11
12.12677669529674
 21
6.585355339059333
 31
0.0
  0
LINE
  5
31E
330
1F
100
AcDbEntity
  8
Final_ReleaseCut
  6
Continuous
370
    25
100
AcDbLine
 10
2.741852454804927
 20
15.40459415460196
 30
0.0
 11
3.024695167279531
 21
15.68743686707657
 31
0.0
  0
LINE
  5
321
330
1F
100
AcDbEntity
  8
Final_ReleaseCut
  6
Continuous
370
    25
100
AcDbLine
 10
3.802512626584729
 20
14.34393398282213
 30
0.0
 11
4.085355339059361
 21
14.62677669529674
 31
0.0
  0
LINE
  5
323
330
1F
100
AcDbEntity
  8
Final_ReleaseCut
  6
Continuous
370
    25
100
AcDbLine
 10
11.47562426675617
 20
8.524375733243914
 30
0.0
 11
11.07562426675619
 21
8.524375733243886
 31
0.0
  0
LINE
  5
325
330
1F
100
AcDbEntity
  8
Final_ReleaseCut
  6
Continuous
370
    25
100
AcDbLine
 10
11.47562426675617
 20
9.074375733243897
 30
0.0
 11
11.07562426675619
 21
9.074375733243897
 31
0.0
  0
LINE
  5
327
330
1F
100
AcDbEntity
  8
Final_ReleaseCut
  6
Continuous
370
    25
100
AcDbLine
 10
6.574375733243925
 20
13.97562426675623
 30
0.0
 11
6.574375733243925
 21
13.57562426675619
 31
0.0
  0
LINE
  5
329
330
1F
100
AcDbEntity
  8
Final_ReleaseCut
  6
Continuous
370
    25
100
AcDbLine
 10
6.024375733243886
 20
13.97562426675623
 30
0.0
 11
6.024375733243886
 21
13.57562426675619
 31
0.0
  0
LINE
  5
32B
330
1F
100
AcDbEntity
  8
Final_ReleaseCut
  6
Continuous
370
    25
100
AcDbLine
 10
13.62562426675617
 20
9.474375733243903
 30
0.0
 11
13.62562426675617
 21
9.074375733243897
 31
0.0
  0
LINE
  5
32D
330
1F
100
AcDbEntity
  8
Final_ReleaseCut
  6
Continuous
370
    25
100
AcDbLine
 10
13.07562426675614
 20
9.474375733243903
 30
0.0
 11
13.07562426675616
 21
9.074375733243897
 31
0.0
  0
LINE
  5
32F
330
1F
100
AcDbEntity
  8
Final_ReleaseCut
  6
Continuous
370
    25
100
AcDbLine
 10
11.07562426675611
 20
8.124375733243937
 30
0.0
 11
11.47562426675611
 21
8.124375733243937
 31
0.0
  0
LINE
  5
331
330
1F
100
AcDbEntity
  8
Final_ReleaseCut
  6
Continuous
370
    25
100
AcDbLine
 10
11.07562426675611
 20
7.574375733243954
 30
0.0
 11
11.47562426675611
 21
7.574375733243954
 31
0.0
  0
LINE
  5
332
330
1F
100
AcDbEntity
  8
Final_ReleaseCut
  6
Continuous
370
    25
100
AcDbLine
 10
12.67562426675616
 20
9.474375733243903
 30
0.0
 11
12.67562426675616
 21
9.074375733243897
 31
0.0
  0
LINE
  5
334
330
1F
100
AcDbEntity
  8
Final_ReleaseCut
  6
Continuous
370
    25
100
AcDbLine
 10
12.12562426675615
 20
9.474375733243874
 30
0.0
 11
12.12562426675615
 21
9.074375733243897
 31
0.0
  0
LINE
  5
336
330
1F
100
AcDbEntity
  8
Final_ReleaseCut
  6
Continuous
370
    25
100
AcDbLine
 10
5.074375733243925
 20
13.57562426675619
 30
0.0
 11
5.074375733243925
 21
13.97562426675623
 31
0.0
  0
LINE
  5
339
330
1F
100
AcDbEntity
  8
Final_ReleaseCut
  6
Continuous
370
    25
100
AcDbLine
 10
5.624375733243908
 20
13.57562426675619
 30
0.0
 11
5.624375733243937
 21
13.97562426675623
 31
0.0
  0
LINE
  5
33C
330
1F
100
AcDbEntity
  8
Final_ReleaseCut
  6
Continuous
370
    25
100
AcDbLine
 10
6.850000000000022
 20
13.00000000000008
 30
0.0
 11
6.574375733243925
 21
13.27562426675621
 31
0.0
  0
LINE
  5
33D
330
1F
100
AcDbEntity
  8
Final_ReleaseCut
  6
Continuous
370
    25
100
AcDbLine
 10
5.435786437626916
 20
11.58578643762701
 30
0.0
 11
5.16016217087079
 21
11.86141070438313
 31
0.0
  0
LINE
  5
340
330
1F
100
AcDbEntity
  8
Final_ReleaseCut
  6
Continuous
370
    25
100
AcDbLine
 10
10.50000000000008
 20
9.350000000000022
 30
0.0
 11
10.77562426675618
 21
9.074375733243897
 31
0.0
  0
LINE
  5
341
330
1F
100
AcDbEntity
  8
Final_ReleaseCut
  6
Continuous
370
    25
100
AcDbLine
 10
9.08578643762695
 20
7.935786437626887
 30
0.0
 11
9.361410704383075
 21
7.66016217087079
 31
0.0
  0
LINE
  5
342
330
1F
100
AcDbEntity
  8
Final_ReleaseCut
  6
Continuous
370
    25
100
AcDbLine
 10
14.12562426675617
 20
9.474375733243903
 30
0.0
 11
13.62562426675617
 21
9.474375733243903
 31
0.0
  0
LINE
  5
343
330
1F
100
AcDbEntity
  8
Final_ReleaseCut
  6
Continuous
370
    25
100
AcDbLine
 10
13.07562426675616
 20
9.074375733243897
 30
0.0
 11
12.67562426675616
 21
9.074375733243897
 31
0.0
  0
LINE
  5
344
330
1F
100
AcDbEntity
  8
Final_ReleaseCut
  6
Continuous
370
    25
100
AcDbLine
 10
12.12562426675615
 20
10.97437573324387
 30
0.0
 11
14.12562426675617
 21
10.9743757332439
 31
0.0
  0
LINE
  5
345
330
1F
100
AcDbEntity
  8
Final_ReleaseCut
  6
Continuous
370
    25
100
AcDbLine
 10
12.12562426675615
 20
9.474375733243874
 30
0.0
 11
12.12562426675615
 21
10.97437573324387
 31
0.0
  0
LINE
  5
346
330
1F
100
AcDbEntity
  8
Final_ReleaseCut
  6
Continuous
370
    25
100
AcDbLine
 10
2.290380592228757
 20
14.95312229202579
 30
0.0
 11
2.741852454804927
 21
15.40459415460196
 31
0.0
  0
LINE
  5
347
330
1F
100
AcDbEntity
  8
Final_ReleaseCut
  6
Continuous
370
    25
100
AcDbLine
 10
3.802512626584729
 20
14.34393398282213
 30
0.0
 11
3.590380592228768
 21
14.13180194846615
 31
0.0
  0
LINE
  5
348
330
1F
100
AcDbEntity
  8
Final_ReleaseCut
  6
Continuous
370
    25
100
AcDbLine
 10
3.590380592228768
 20
14.13180194846615
 30
0.0
 11
3.590380592228768
 21
10.56022907321235
 31
0.0
  0
ARC
  5
349
330
1F
100
AcDbEntity
  8
Final_ReleaseCut
  6
Continuous
370
    25
100
AcDbCircle
 10
5.590380592228768
 20
10.56022907321235
 30
0.0
 40
2.000000000000015
100
AcDbArc
 50
180.0
 51
225.0000000000012
  0
LINE
  5
34A
330
1F
100
AcDbEntity
  8
Final_ReleaseCut
  6
Continuous
370
    25
100
AcDbLine
 10
4.176167029855662
 20
9.146015510839248
 30
0.0
 11
5.353714100779342
 21
7.96846843991554
 31
0.0
  0
LINE
  5
34C
330
1F
100
AcDbEntity
  8
Final_ReleaseCut
  6
Continuous
370
    25
100
AcDbLine
 10
4.293053928999512
 20
6.907808268135738
 30
0.0
 11
2.876167029855679
 21
8.324695167279628
 31
0.0
  0
ARC
  5
34D
330
1F
100
AcDbEntity
  8
Final_ReleaseCut
  6
Continuous
370
    25
100
AcDbCircle
 10
4.290380592228757
 20
9.738908729652706
 30
0.0
 40
2.0
100
AcDbArc
 50
180.0
 51
225.0000000000012
  0
LINE
  5
34E
330
1F
100
AcDbEntity
  8
Final_ReleaseCut
  6
Continuous
370
    25
100
AcDbLine
 10
2.290380592228757
 20
9.738908729652706
 30
0.0
 11
2.290380592228757
 21
14.95312229202579
 31
0.0
  0
LINE
  5
34F
330
1F
100
AcDbEntity
  8
Final_ReleaseCut
  6
Continuous
370
    25
100
AcDbLine
 10
6.646015510839248
 20
6.676167029855662
 30
0.0
 11
5.468468439915568
 21
7.853714100779342
 31
0.0
  0
ARC
  5
350
330
1F
100
AcDbEntity
  8
Final_ReleaseCut
  6
Continuous
370
    25
100
AcDbCircle
 10
8.060229073212354
 20
8.09038059222874
 30
0.0
 40
2.0
100
AcDbArc
 50
225.0
 51
270.0
  0
LINE
  5
351
330
1F
100
AcDbEntity
  8
Final_ReleaseCut
  6
Continuous
370
    25
100
AcDbLine
 10
11.84393398282211
 20
6.3025126265847
 30
0.0
 11
11.63180194846614
 21
6.09038059222874
 31
0.0
  0
LINE
  5
352
330
1F
100
AcDbEntity
  8
Final_ReleaseCut
  6
Continuous
370
    25
100
AcDbLine
 10
4.407808268135738
 20
6.793053928999512
 30
0.0
 11
5.8246951672796
 21
5.37616702985565
 31
0.0
  0
LINE
  5
353
330
1F
100
AcDbEntity
  8
Final_ReleaseCut
  6
Continuous
370
    25
100
AcDbLine
 10
12.4531222920258
 20
4.790380592228757
 30
0.0
 11
12.90459415460194
 21
5.241852454804899
 31
0.0
  0
LINE
  5
354
330
1F
100
AcDbEntity
  8
Final_ReleaseCut
  6
Continuous
370
    25
100
AcDbLine
 10
7.238908729652706
 20
4.790380592228757
 30
0.0
 11
12.4531222920258
 21
4.790380592228757
 31
0.0
  0
LINE
  5
355
330
1F
100
AcDbEntity
  8
Final_ReleaseCut
  6
Continuous
370
    25
100
AcDbLine
 10
11.63180194846614
 20
6.09038059222874
 30
0.0
 11
8.060229073212354
 21
6.09038059222874
 31
0.0
  0
ARC
  5
356
330
1F
100
AcDbEntity
  8
Final_ReleaseCut
  6
Continuous
370
    25
100
AcDbCircle
 10
7.238908729652706
 20
6.790380592228757
 30
0.0
 40
2.000000000000015
100
AcDbArc
 50
225.0000000000012
 51
270.0
  0
LINE
  5
357
330
1F
100
AcDbEntity
  8
Final_ReleaseCut
  6
Continuous
370
    25
100
AcDbLine
 10
3.085355339059361
 20
15.7480970388564
 30
0.0
 11
3.024695167279531
 21
15.68743686707657
 31
0.0
  0
ARC
  5
358
330
1F
100
AcDbEntity
  8
Final_ReleaseCut
  6
Continuous
370
    25
100
AcDbCircle
 10
3.792462120245915
 20
15.04099025766985
 30
0.0
 40
1.000000000000007
100
AcDbArc
 50
93.4777068497255
 51
134.9999999999999
  0
ARC
  5
359
330
1F
100
AcDbEntity
  8
Final_ReleaseCut
  6
Continuous
370
    25
100
AcDbCircle
 10
3.671141776686283
 20
15.04099025766985
 30
0.0
 40
0.999999999999985
100
AcDbArc
 50
45.00000000000009
 51
86.52229315027616
  0
LINE
  5
35A
330
1F
100
AcDbEntity
  8
Final_ReleaseCut
  6
Continuous
370
    25
100
AcDbLine
 10
4.464213562373117
 20
15.66213203435606
 30
0.0
 11
4.378248557872808
 21
15.74809703885637
 31
0.0
  0
ARC
  5
35B
330
1F
100
AcDbEntity
  8
Final_ReleaseCut
  6
Continuous
370
    25
100
AcDbCircle
 10
3.050000000000039
 20
14.24791847198298
 30
0.0
 40
1.999999999999975
100
AcDbArc
 50
0.0
 51
45.00000000000009
  0
LINE
  5
35C
330
1F
100
AcDbEntity
  8
Final_ReleaseCut
  6
Continuous
370
    25
100
AcDbLine
 10
5.050000000000011
 20
10.25000000000008
 30
0.0
 11
5.050000000000011
 21
14.24791847198298
 31
0.0
  0
LINE
  5
35D
330
1F
100
AcDbEntity
  8
Final_ReleaseCut
  6
Continuous
370
    25
100
AcDbLine
 10
5.350000000000022
 20
10.25000000000008
 30
0.0
 11
5.050000000000011
 21
10.25000000000008
 31
0.0
  0
LINE
  5
35E
330
1F
100
AcDbEntity
  8
Final_ReleaseCut
  6
Continuous
370
    25
100
AcDbLine
 10
5.350000000000022
 20
10.35000000000008
 30
0.0
 11
5.350000000000022
 21
10.25000000000008
 31
0.0
  0
LINE
  5
35F
330
1F
100
AcDbEntity
  8
Final_ReleaseCut
  6
Continuous
370
    25
100
AcDbLine
 10
6.850000000000051
 20
10.01602540378451
 30
0.0
 11
6.850000000000051
 21
10.35000000000008
 31
0.0
  0
LINE
  5
360
330
1F
100
AcDbEntity
  8
Final_ReleaseCut
  6
Continuous
370
    25
100
AcDbLine
 10
5.58205080756889
 20
9.283974596215642
 30
0.0
 11
6.850000000000051
 21
10.01602540378451
 31
0.0
  0
ARC
  5
361
330
1F
100
AcDbEntity
  8
Final_ReleaseCut
  6
Continuous
370
    25
100
AcDbCircle
 10
5.08205080756889
 20
10.15000000000009
 30
0.0
 40
1.000000000000008
100
AcDbArc
 50
270.0
 51
299.9999999999998
  0
LINE
  5
362
330
1F
100
AcDbEntity
  8
Final_ReleaseCut
  6
Continuous
370
    25
100
AcDbLine
 10
5.08205080756889
 20
9.15000000000009
 30
0.0
 11
4.850000000000022
 21
9.15000000000009
 31
0.0
  0
ARC
  5
363
330
1F
100
AcDbEntity
  8
Final_ReleaseCut
  6
Continuous
370
    25
100
AcDbCircle
 10
4.850000000000022
 20
10.25000000000008
 30
0.0
 40
1.099999999999994
100
AcDbArc
 50
180.0
 51
270.0
  0
LINE
  5
364
330
1F
100
AcDbEntity
  8
Final_ReleaseCut
  6
Continuous
370
    25
100
AcDbLine
 10
3.750000000000028
 20
10.25000000000008
 30
0.0
 11
3.750000000000028
 21
10.35000000000008
 31
0.0
  0
LINE
  5
365
330
1F
100
AcDbEntity
  8
Final_ReleaseCut
  6
Continuous
370
    25
100
AcDbLine
 10
4.350000000000022
 20
10.35000000000008
 30
0.0
 11
4.350000000000022
 21
10.65000000000009
 31
0.0
  0
LINE
  5
366
330
1F
100
AcDbEntity
  8
Final_ReleaseCut
  6
Continuous
370
    25
100
AcDbLine
 10
4.350000000000022
 20
10.65000000000009
 30
0.0
 11
3.750000000000028
 21
10.65000000000009
 31
0.0
  0
LINE
  5
367
330
1F
100
AcDbEntity
  8
Final_ReleaseCut
  6
Continuous
370
    25
100
AcDbLine
 10
3.750000000000028
 20
10.65000000000009
 30
0.0
 11
3.750000000000028
 21
11.65000000000009
 31
0.0
  0
LINE
  5
368
330
1F
100
AcDbEntity
  8
Final_ReleaseCut
  6
Continuous
370
    25
100
AcDbLine
 10
3.750000000000028
 20
11.65000000000009
 30
0.0
 11
4.017308802049029
 21
14.14488215245745
 31
0.0
  0
ARC
  5
369
330
1F
100
AcDbEntity
  8
Final_ReleaseCut
  6
Continuous
370
    25
100
AcDbCircle
 10
5.01161795596883
 20
14.0383490288232
 30
0.0
 40
0.9999999999999989
100
AcDbArc
 50
148.8207641913985
 51
173.8844964337154
  0
LINE
  5
36A
330
1F
100
AcDbEntity
  8
Final_ReleaseCut
  6
Continuous
370
    25
100
AcDbLine
 10
4.156066017178005
 20
14.5560660171781
 30
0.0
 11
4.085355339059362
 21
14.62677669529674
 31
0.0
  0
LINE
  5
36B
330
1F
100
AcDbEntity
  8
Final_ReleaseCut
  6
Continuous
370
    25
100
AcDbLine
 10
3.750000000000028
 20
10.35000000000008
 30
0.0
 11
4.350000000000022
 21
10.35000000000008
 31
0.0
  0
LINE
  5
36C
330
1F
100
AcDbEntity
  8
Final_ReleaseCut
  6
Continuous
370
    25
100
AcDbLine
 10
8.15000000000009
 20
6.850000000000022
 30
0.0
 11
8.15000000000009
 21
6.25
 31
0.0
  0
LINE
  5
36D
330
1F
100
AcDbEntity
  8
Final_ReleaseCut
  6
Continuous
370
    25
100
AcDbLine
 10
7.850000000000079
 20
6.850000000000022
 30
0.0
 11
8.15000000000009
 21
6.850000000000022
 31
0.0
  0
LINE
  5
36E
330
1F
100
AcDbEntity
  8
Final_ReleaseCut
  6
Continuous
370
    25
100
AcDbLine
 10
6.783974596215642
 20
8.082050807568862
 30
0.0
 11
7.51602540378451
 21
9.350000000000022
 31
0.0
  0
LINE
  5
36F
330
1F
100
AcDbEntity
  8
Final_ReleaseCut
  6
Continuous
370
    25
100
AcDbLine
 10
7.51602540378451
 20
9.350000000000022
 30
0.0
 11
7.850000000000108
 21
9.350000000000022
 31
0.0
  0
LINE
  5
370
330
1F
100
AcDbEntity
  8
Final_ReleaseCut
  6
Continuous
370
    25
100
AcDbLine
 10
7.750000000000085
 20
7.850000000000022
 30
0.0
 11
7.750000000000085
 21
7.549999999999982
 31
0.0
  0
ARC
  5
371
330
1F
100
AcDbEntity
  8
Final_ReleaseCut
  6
Continuous
370
    25
100
AcDbCircle
 10
11.74791847198295
 20
5.549999999999982
 30
0.0
 40
2.000000000000036
100
AcDbArc
 50
45.00000000000009
 51
90.0
  0
LINE
  5
372
330
1F
100
AcDbEntity
  8
Final_ReleaseCut
  6
Continuous
370
    25
100
AcDbLine
 10
13.16213203435606
 20
6.964213562373117
 30
0.0
 11
13.2480970388564
 21
6.87824855787278
 31
0.0
  0
ARC
  5
373
330
1F
100
AcDbEntity
  8
Final_ReleaseCut
  6
Continuous
370
    25
100
AcDbCircle
 10
12.54099025766985
 20
6.171141776686226
 30
0.0
 40
1.000000000000007
100
AcDbArc
 50
3.477706849725533
 51
45.00000000000009
  0
ARC
  5
374
330
1F
100
AcDbEntity
  8
Final_ReleaseCut
  6
Continuous
370
    25
100
AcDbCircle
 10
12.54099025766985
 20
6.292462120245886
 30
0.0
 40
1.000000000000007
100
AcDbArc
 50
315.0000000000011
 51
356.5222931502745
  0
LINE
  5
375
330
1F
100
AcDbEntity
  8
Final_ReleaseCut
  6
Continuous
370
    25
100
AcDbLine
 10
13.2480970388564
 20
5.585355339059333
 30
0.0
 11
13.18743686707657
 21
5.524695167279503
 31
0.0
  0
LINE
  5
376
330
1F
100
AcDbEntity
  8
Final_ReleaseCut
  6
Continuous
370
    25
100
AcDbLine
 10
12.05606601717809
 20
6.656066017178005
 30
0.0
 11
12.12677669529675
 21
6.585355339059347
 31
0.0
  0
ARC
  5
377
330
1F
100
AcDbEntity
  8
Final_ReleaseCut
  6
Continuous
370
    25
100
AcDbCircle
 10
11.53834902882318
 20
7.51161795596883
 30
0.0
 40
1.000000000000021
100
AcDbArc
 50
276.1155035662862
 51
301.1792358086035
  0
LINE
  5
378
330
1F
100
AcDbEntity
  8
Final_ReleaseCut
  6
Continuous
370
    25
100
AcDbLine
 10
9.15000000000009
 20
6.25
 30
0.0
 11
11.64488215245745
 21
6.517308802049001
 31
0.0
  0
ARC
  5
379
330
1F
100
AcDbEntity
  8
Final_ReleaseCut
  6
Continuous
370
    25
100
AcDbCircle
 10
7.65000000000009
 20
7.582050807568862
 30
0.0
 40
1.000000000000008
100
AcDbArc
 50
150.0000000000003
 51
179.9999999999984
  0
LINE
  5
37A
330
1F
100
AcDbEntity
  8
Final_ReleaseCut
  6
Continuous
370
    25
100
AcDbLine
 10
7.850000000000079
 20
6.25
 30
0.0
 11
7.850000000000079
 21
6.850000000000022
 31
0.0
  0
LINE
  5
37B
330
1F
100
AcDbEntity
  8
Final_ReleaseCut
  6
Continuous
370
    25
100
AcDbLine
 10
6.65000000000009
 20
7.350000000000022
 30
0.0
 11
6.65000000000009
 21
7.58205080756889
 31
0.0
  0
LINE
  5
37C
330
1F
100
AcDbEntity
  8
Final_ReleaseCut
  6
Continuous
370
    25
100
AcDbLine
 10
7.850000000000079
 20
7.850000000000022
 30
0.0
 11
7.750000000000085
 21
7.850000000000022
 31
0.0
  0
ARC
  5
37D
330
1F
100
AcDbEntity
  8
Final_ReleaseCut
  6
Continuous
370
    25
100
AcDbCircle
 10
7.750000000000085
 20
7.350000000000022
 30
0.0
 40
1.100000000000022
100
AcDbArc
 50
180.0
 51
270.0
  0
LINE
  5
37E
330
1F
100
AcDbEntity
  8
Final_ReleaseCut
  6
Continuous
370
    25
100
AcDbLine
 10
7.750000000000085
 20
7.549999999999982
 30
0.0
 11
11.74791847198295
 21
7.549999999999982
 31
0.0
  0
LINE
  5
37F
330
1F
100
AcDbEntity
  8
Final_ReleaseCut
  6
Continuous
370
    25
100
AcDbLine
 10
7.750000000000085
 20
6.25
 30
0.0
 11
7.850000000000079
 21
6.25
 31
0.0
  0
LINE
  5
380
330
1F
100
AcDbEntity
  8
Final_ReleaseCut
  6
Continuous
370
    25
100
AcDbLine
 10
8.15000000000009
 20
6.25
 30
0.0
 11
9.15000000000009
 21
6.25
 31
0.0
  0
LINE
  5
381
330
1F
100
AcDbEntity
  8
Final_ReleaseCut
  6
Continuous
370
    25
100
AcDbLine
 10
12.67562426675616
 20
9.074375733243897
 30
0.0
 11
12.67562426675616
 21
8.874375733243908
 31
0.0
  0
LINE
  5
382
330
1F
100
AcDbEntity
  8
Final_ReleaseCut
  6
Continuous
370
    25
100
AcDbLine
 10
12.67562426675616
 20
8.874375733243908
 30
0.0
 11
13.07562426675616
 21
8.874375733243908
 31
0.0
  0
LINE
  5
383
330
1F
100
AcDbEntity
  8
Final_ReleaseCut
  6
Continuous
370
    25
100
AcDbLine
 10
13.07562426675616
 20
8.874375733243908
 30
0.0
 11
13.07562426675616
 21
9.074375733243897
 31
0.0
  0
LINE
  5
384
330
1F
100
AcDbEntity
  8
Final_ReleaseCut
  6
Continuous
370
    25
100
AcDbLine
 10
13.62562426675617
 20
9.074375733243897
 30
0.0
 11
13.62562426675617
 21
7.574375733243897
 31
0.0
  0
LINE
  5
385
330
1F
100
AcDbEntity
  8
Final_ReleaseCut
  6
Continuous
370
    25
100
AcDbLine
 10
13.62562426675617
 20
7.574375733243897
 30
0.0
 11
12.12562426675617
 21
7.574375733243897
 31
0.0
  0
LINE
  5
386
330
1F
100
AcDbEntity
  8
Final_ReleaseCut
  6
Continuous
370
    25
100
AcDbLine
 10
11.97562426675617
 20
7.574375733243897
 30
0.0
 11
11.47562426675617
 21
7.574375733243897
 31
0.0
  0
LINE
  5
387
330
1F
100
AcDbEntity
  8
Final_ReleaseCut
  6
Continuous
370
    25
100
AcDbLine
 10
11.07562426675619
 20
8.12437573324388
 30
0.0
 11
11.07562426675619
 21
8.524375733243914
 31
0.0
  0
LINE
  5
388
330
1F
100
AcDbEntity
  8
Final_ReleaseCut
  6
Continuous
370
    25
100
AcDbLine
 10
11.47562426675617
 20
9.074375733243897
 30
0.0
 11
11.97562426675617
 21
9.074375733243897
 31
0.0
  0
LINE
  5
389
330
1F
100
AcDbEntity
  8
Final_ReleaseCut
  6
Continuous
370
    25
100
AcDbLine
 10
1.5
 20
13.53589838486223
 30
0.0
 11
1.5
 21
9.5
 31
0.0
  0
ARC
  5
38A
330
1F
100
AcDbEntity
  8
Final_ReleaseCut
  6
Continuous
370
    25
100
AcDbCircle
 10
10.5
 20
7.5
 30
0.0
 40
4.0
100
AcDbArc
 50
270.0
 51
347.2053704862561
  0
LINE
  5
38B
330
1F
100
AcDbEntity
  8
Final_ReleaseCut
  6
Continuous
370
    25
100
AcDbLine
 10
16.0
 20
9.0
 30
0.0
 11
16.0
 21
11.0
 31
0.0
  0
LINE
  5
38C
330
1F
100
AcDbEntity
  8
Final_ReleaseCut
  6
Continuous
370
    25
100
AcDbLine
 10
16.0
 20
11.0
 30
0.0
 11
10.5
 21
11.0
 31
0.0
  0
LINE
  5
38D
330
1F
100
AcDbEntity
  8
Final_ReleaseCut
  6
Continuous
370
    25
100
AcDbLine
 10
9.0
 20
10.5
 30
0.0
 11
9.0
 21
11.5
 31
0.0
  0
LINE
  5
38E
330
1F
100
AcDbEntity
  8
Final_ReleaseCut
  6
Continuous
370
    25
100
AcDbLine
 10
9.0
 20
11.5
 30
0.0
 11
8.0
 21
11.5
 31
0.0
  0
LINE
  5
38F
330
1F
100
AcDbEntity
  8
Final_ReleaseCut
  6
Continuous
370
    25
100
AcDbLine
 10
8.0
 20
13.0
 30
0.0
 11
8.5
 21
13.0
 31
0.0
  0
LINE
  5
390
330
1F
100
AcDbEntity
  8
Final_ReleaseCut
  6
Continuous
370
    25
100
AcDbLine
 10
8.5
 20
13.0
 30
0.0
 11
8.5
 21
16.0
 31
0.0
  0
LINE
  5
391
330
1F
100
AcDbEntity
  8
Final_ReleaseCut
  6
Continuous
370
    25
100
AcDbLine
 10
4.5
 20
20.0
 30
0.0
 11
3.5
 21
20.0
 31
0.0
  0
LINE
  5
392
330
1F
100
AcDbEntity
  8
Final_ReleaseCut
  6
Continuous
370
    25
100
AcDbLine
 10
3.5
 20
20.0
 30
0.0
 11
3.5
 21
18.82740100699144
 31
0.0
  0
ARC
  5
393
330
1F
100
AcDbEntity
  8
Final_ReleaseCut
  6
Continuous
370
    25
100
AcDbCircle
 10
-0.5
 20
18.82740100699144
 30
0.0
 40
4.000000000000006
100
AcDbArc
 50
318.5903778907291
 51
0.0
  0
ARC
  5
394
330
1F
100
AcDbEntity
  8
Final_ReleaseCut
  6
Continuous
370
    25
100
AcDbCircle
 10
5.5
 20
13.53589838486223
 30
0.0
 40
4.000000000000006
100
AcDbArc
 50
138.5903778907291
 51
180.0
  0
LINE
  5
395
330
1F
100
AcDbEntity
  8
Final_ReleaseCut
  6
Continuous
370
    25
100
AcDbLine
 10
16.0
 20
13.64999999999997
 30
0.0
 11
14.5
 21
13.64999999999997
 31
0.0
  0
LINE
  5
396
330
1F
100
AcDbEntity
  8
Final_ReleaseCut
  6
Continuous
370
    25
100
AcDbLine
 10
17.5
 20
7.850000000000022
 30
0.0
 11
17.5
 21
8.25
 31
0.0
  0
LINE
  5
397
330
1F
100
AcDbEntity
  8
Final_ReleaseCut
  6
Continuous
370
    25
100
AcDbLine
 10
7.5
 20
3.5
 30
0.0
 11
10.5
 21
3.5
 31
0.0
  0
ARC
  5
398
330
1F
100
AcDbEntity
  8
Final_ReleaseCut
  6
Continuous
370
    25
100
AcDbCircle
 10
7.5
 20
9.5
 30
0.0
 40
6.0
100
AcDbArc
 50
180.0
 51
270.0
  0
LINE
  5
399
330
1F
100
AcDbEntity
  8
Final_ReleaseCut
  6
Continuous
370
    25
100
AcDbLine
 10
17.5
 20
8.25
 30
0.0
 11
16.0
 21
8.25
 31
0.0
  0
LINE
  5
39A
330
1F
100
AcDbEntity
  8
Final_ReleaseCut
  6
Continuous
370
    25
100
AcDbLine
 10
16.0
 20
8.25
 30
0.0
 11
16.0
 21
7.850000000000022
 31
0.0
  0
LINE
  5
39B
330
1F
100
AcDbEntity
  8
Final_ReleaseCut
  6
Continuous
370
    25
100
AcDbLine
 10
16.0
 20
7.850000000000022
 30
0.0
 11
17.5
 21
7.850000000000022
 31
0.0
  0
LINE
  5
39C
330
1F
100
AcDbEntity
  8
Final_ReleaseCut
  6
Continuous
370
    25
100
AcDbLine
 10
21.0
 20
13.65
 30
0.0
 11
19.0
 21
13.65
 31
0.0
  0
LINE
  5
39D
330
1F
100
AcDbEntity
  8
Final_ReleaseCut
  6
Continuous
370
    25
100
AcDbLine
 10
19.0
 20
13.65
 30
0.0
 11
19.0
 21
13.25
 31
0.0
  0
LINE
  5
39E
330
1F
100
AcDbEntity
  8
Final_ReleaseCut
  6
Continuous
370
    25
100
AcDbLine
 10
21.0
 20
13.25
 30
0.0
 11
21.0
 21
13.65
 31
0.0
  0
LINE
  5
39F
330
1F
100
AcDbEntity
  8
Final_ReleaseCut
  6
Continuous
370
    25
100
AcDbLine
 10
19.0
 20
8.25
 30
0.0
 11
19.0
 21
7.850000000000022
 31
0.0
  0
LINE
  5
3A0
330
1F
100
AcDbEntity
  8
Final_ReleaseCut
  6
Continuous
370
    25
100
AcDbLine
 10
14.5
 20
13.64999999999997
 30
0.0
 11
14.5
 21
13.25
 31
0.0
  0
LINE
  5
3A1
330
1F
100
AcDbEntity
  8
Final_ReleaseCut
  6
Continuous
370
    25
100
AcDbLine
 10
21.0
 20
8.25
 30
0.0
 11
19.0
 21
8.25
 31
0.0
  0
LINE
  5
3A2
330
1F
100
AcDbEntity
  8
Final_ReleaseCut
  6
Continuous
370
    25
100
AcDbLine
 10
19.0
 20
7.850000000000022
 30
0.0
 11
21.0
 21
7.850000000000022
 31
0.0
  0
LINE
  5
3A3
330
1F
100
AcDbEntity
  8
Final_ReleaseCut
  6
Continuous
370
    25
100
AcDbLine
 10
21.0
 20
7.850000000000022
 30
0.0
 11
21.0
 21
8.25
 31
0.0
  0
ARC
  5
3A4
330
1F
100
AcDbEntity
  8
Final_ReleaseCut
  6
Continuous
370
    25
100
AcDbCircle
 10
4.5
 20
16.0
 30
0.0
 40
4.0
100
AcDbArc
 50
0.0
 51
90.0
  0
ARC
  5
3A5
330
1F
100
AcDbEntity
  8
Final_ReleaseCut
  6
Continuous
370
    25
100
AcDbCircle
 10
18.3013609308278
 20
5.728343253631379
 30
0.0
 40
3.99999999999999
100
AcDbArc
 50
125.1234623817956
 51
167.2053704862561
  0
LINE
  5
3A6
330
1F
100
AcDbEntity
  8
Final_ReleaseCut
  6
Continuous
370
    25
100
AcDbLine
 10
19.0
 20
13.25
 30
0.0
 11
21.0
 21
13.25
 31
0.0
  0
LINE
  5
3A7
330
1F
100
AcDbEntity
  8
Final_ReleaseCut
  6
Continuous
370
    25
100
AcDbLine
 10
10.5
 20
11.0
 30
0.0
 11
10.5
 21
10.5
 31
0.0
  0
LINE
  5
3A8
330
1F
100
AcDbEntity
  8
Final_ReleaseCut
  6
Continuous
370
    25
100
AcDbLine
 10
16.0
 20
13.25
 30
0.0
 11
16.0
 21
13.64999999999997
 31
0.0
  0
LINE
  5
3A9
330
1F
100
AcDbEntity
  8
Final_ReleaseCut
  6
Continuous
370
    25
100
AcDbLine
 10
14.5
 20
13.25
 30
0.0
 11
16.0
 21
13.25
 31
0.0
  0
LINE
  5
3AA
330
1F
100
AcDbEntity
  8
Final_ReleaseCut
  6
Continuous
370
    25
100
AcDbLine
 10
6.850000000000022
 20
10.60000000000008
 30
0.0
 11
7.750000000000028
 21
11.50000000000008
 31
0.0
  0
LINE
  5
3AB
330
1F
100
AcDbEntity
  8
Final_ReleaseCut
  6
Continuous
370
    25
100
AcDbLine
 10
6.850000000000022
 20
10.50000000000008
 30
0.0
 11
6.850000000000022
 21
10.60000000000008
 31
0.0
  0
LINE
  5
3AC
330
1F
100
AcDbEntity
  8
Final_ReleaseCut
  6
Continuous
370
    25
100
AcDbLine
 10
5.435786437626931
 20
11.58578643762699
 30
0.0
 11
5.350000000000022
 21
11.50000000000008
 31
0.0
  0
LINE
  5
3AD
330
1F
100
AcDbEntity
  8
Final_ReleaseCut
  6
Continuous
370
    25
100
AcDbLine
 10
7.850000000000022
 20
13.00000000000008
 30
0.0
 11
6.850000000000022
 21
13.00000000000008
 31
0.0
  0
LINE
  5
3AE
330
1F
100
AcDbEntity
  8
Final_ReleaseCut
  6
Continuous
370
    25
100
AcDbLine
 10
5.350000000000022
 20
11.50000000000008
 30
0.0
 11
5.350000000000022
 21
10.50000000000008
 31
0.0
  0
LINE
  5
3AF
330
1F
100
AcDbEntity
  8
Final_ReleaseCut
  6
Continuous
370
    25
100
AcDbLine
 10
7.550000000000011
 20
12.0500000000001
 30
0.0
 11
7.550000000000011
 21
12.4500000000001
 31
0.0
  0
LINE
  5
3B0
330
1F
100
AcDbEntity
  8
Final_ReleaseCut
  6
Continuous
370
    25
100
AcDbLine
 10
7.250000000000028
 20
12.0500000000001
 30
0.0
 11
7.550000000000011
 21
12.0500000000001
 31
0.0
  0
LINE
  5
3B1
330
1F
100
AcDbEntity
  8
Final_ReleaseCut
  6
Continuous
370
    25
100
AcDbLine
 10
7.550000000000011
 20
12.4500000000001
 30
0.0
 11
7.250000000000028
 21
12.4500000000001
 31
0.0
  0
LINE
  5
3B2
330
1F
100
AcDbEntity
  8
Final_ReleaseCut
  6
Continuous
370
    25
100
AcDbLine
 10
7.250000000000028
 20
12.4500000000001
 30
0.0
 11
7.250000000000028
 21
12.0500000000001
 31
0.0
  0
LINE
  5
3B3
330
1F
100
AcDbEntity
  8
Final_ReleaseCut
  6
Continuous
370
    25
100
AcDbLine
 10
7.750000000000028
 20
11.50000000000008
 30
0.0
 11
7.850000000000022
 21
11.50000000000008
 31
0.0
  0
LINE
  5
3B4
330
1F
100
AcDbEntity
  8
Final_ReleaseCut
  6
Continuous
370
    25
100
AcDbLine
 10
9.550000000000068
 20
9.75
 30
0.0
 11
9.550000000000068
 21
10.05000000000001
 31
0.0
  0
LINE
  5
3B5
330
1F
100
AcDbEntity
  8
Final_ReleaseCut
  6
Continuous
370
    25
100
AcDbLine
 10
10.50000000000008
 20
10.34999999999999
 30
0.0
 11
10.50000000000008
 21
9.350000000000022
 31
0.0
  0
LINE
  5
3B6
330
1F
100
AcDbEntity
  8
Final_ReleaseCut
  6
Continuous
370
    25
100
AcDbLine
 10
9.950000000000045
 20
10.05000000000001
 30
0.0
 11
9.950000000000045
 21
9.75
 31
0.0
  0
LINE
  5
3B7
330
1F
100
AcDbEntity
  8
Final_ReleaseCut
  6
Continuous
370
    25
100
AcDbLine
 10
9.000000000000085
 20
10.25
 30
0.0
 11
9.000000000000085
 21
10.35000000000002
 31
0.0
  0
LINE
  5
3B8
330
1F
100
AcDbEntity
  8
Final_ReleaseCut
  6
Continuous
370
    25
100
AcDbLine
 10
9.550000000000068
 20
10.05000000000001
 30
0.0
 11
9.950000000000045
 21
10.05000000000001
 31
0.0
  0
LINE
  5
3B9
330
1F
100
AcDbEntity
  8
Final_ReleaseCut
  6
Continuous
370
    25
100
AcDbLine
 10
9.950000000000045
 20
9.75
 30
0.0
 11
9.550000000000068
 21
9.75
 31
0.0
  0
LINE
  5
3BA
330
1F
100
AcDbEntity
  8
Final_ReleaseCut
  6
Continuous
370
    25
100
AcDbLine
 10
8.100000000000079
 20
9.350000000000022
 30
0.0
 11
9.000000000000085
 21
10.25
 31
0.0
  0
LINE
  5
3BB
330
1F
100
AcDbEntity
  8
Final_ReleaseCut
  6
Continuous
370
    25
100
AcDbLine
 10
8.000000000000085
 20
9.350000000000022
 30
0.0
 11
8.100000000000079
 21
9.350000000000022
 31
0.0
  0
LINE
  5
3BC
330
1F
100
AcDbEntity
  8
Final_ReleaseCut
  6
Continuous
370
    25
100
AcDbLine
 10
9.000000000000085
 20
7.850000000000022
 30
0.0
 11
8.000000000000085
 21
7.850000000000022
 31
0.0
  0
LINE
  5
3BD
330
1F
100
AcDbEntity
  8
Final_ReleaseCut
  6
Continuous
370
    25
100
AcDbLine
 10
9.08578643762695
 20
7.935786437626886
 30
0.0
 11
9.000000000000085
 21
7.850000000000022
 31
0.0
  0
LINE
  5
3BE
330
1F
100
AcDbEntity
  8
Final_ReleaseCut
  6
Continuous
370
    25
100
AcDbLine
 10
5.624375733243908
 20
13.3756242667562
 30
0.0
 11
5.624375733243908
 21
13.57562426675619
 31
0.0
  0
LINE
  5
3BF
330
1F
100
AcDbEntity
  8
Final_ReleaseCut
  6
Continuous
370
    25
100
AcDbLine
 10
6.024375733243914
 20
13.3756242667562
 30
0.0
 11
5.624375733243908
 21
13.3756242667562
 31
0.0
  0
LINE
  5
3C0
330
1F
100
AcDbEntity
  8
Final_ReleaseCut
  6
Continuous
370
    25
100
AcDbLine
 10
6.024375733243914
 20
13.57562426675619
 30
0.0
 11
6.024375733243914
 21
13.3756242667562
 31
0.0
  0
LINE
  5
3C1
330
1F
100
AcDbEntity
  8
Final_ReleaseCut
  6
Continuous
370
    25
100
AcDbLine
 10
6.574375733243925
 20
13.27562426675621
 30
0.0
 11
6.574375733243925
 21
13.57562426675619
 31
0.0
  0
LINE
  5
3C2
330
1F
100
AcDbEntity
  8
Final_ReleaseCut
  6
Continuous
370
    25
100
AcDbLine
 10
5.074375733243925
 20
11.77562426675621
 30
0.0
 11
5.16016217087082
 21
11.8614107043831
 31
0.0
  0
LINE
  5
3C3
330
1F
100
AcDbEntity
  8
Final_ReleaseCut
  6
Continuous
370
    25
100
AcDbLine
 10
5.074375733243925
 20
13.57562426675619
 30
0.0
 11
5.074375733243925
 21
11.77562426675621
 31
0.0
  0
LINE
  5
3C4
330
1F
100
AcDbEntity
  8
Final_ReleaseCut
  6
Continuous
370
    25
100
AcDbLine
 10
10.77562426675618
 20
9.074375733243897
 30
0.0
 11
11.07562426675619
 21
9.074375733243897
 31
0.0
  0
LINE
  5
3C5
330
1F
100
AcDbEntity
  8
Final_ReleaseCut
  6
Continuous
370
    25
100
AcDbLine
 10
11.07562426675619
 20
8.524375733243914
 30
0.0
 11
10.87562426675617
 21
8.524375733243914
 31
0.0
  0
LINE
  5
3C6
330
1F
100
AcDbEntity
  8
Final_ReleaseCut
  6
Continuous
370
    25
100
AcDbLine
 10
10.87562426675617
 20
8.524375733243914
 30
0.0
 11
10.87562426675617
 21
8.12437573324388
 31
0.0
  0
LINE
  5
3C7
330
1F
100
AcDbEntity
  8
Final_ReleaseCut
  6
Continuous
370
    25
100
AcDbLine
 10
10.87562426675617
 20
8.12437573324388
 30
0.0
 11
11.07562426675619
 21
8.12437573324388
 31
0.0
  0
LINE
  5
3C8
330
1F
100
AcDbEntity
  8
Final_ReleaseCut
  6
Continuous
370
    25
100
AcDbLine
 10
11.07562426675619
 20
7.574375733243897
 30
0.0
 11
9.27562426675621
 21
7.574375733243897
 31
0.0
  0
LINE
  5
3C9
330
1F
100
AcDbEntity
  8
Final_ReleaseCut
  6
Continuous
370
    25
100
AcDbLine
 10
9.27562426675621
 20
7.574375733243897
 30
0.0
 11
9.361410704383088
 21
7.660162170870776
 31
0.0
  0
LINE
  5
3CA
330
1F
100
AcDbEntity
  8
Final_ReleaseCut
  6
Continuous
370
    25
100
AcDbLine
 10
6.574375733243925
 20
14.47562426675623
 30
0.0
 11
6.574375733243925
 21
13.97562426675623
 31
0.0
  0
LINE
  5
3CB
330
1F
100
AcDbEntity
  8
Final_ReleaseCut
  6
Continuous
370
    25
100
AcDbLine
 10
6.024375733243914
 20
13.57562426675619
 30
0.0
 11
5.624375733243908
 21
13.57562426675619
 31
0.0
  0
LINE
  5
3CC
330
1F
100
AcDbEntity
  8
Final_ReleaseCut
  6
Continuous
370
    25
100
AcDbLine
 10
5.074375733243925
 20
13.97562426675623
 30
0.0
 11
5.074375733243925
 21
14.47562426675623
 31
0.0
  0
LINE
  5
427
330
1F
100
AcDbEntity
  8
Rigid
  6
Continuous
370
    25
100
AcDbLine
 10
5.362402422737574
 20
7.959780117957308
 30
0.0
 11
4.301742250957744
 21
6.899119946177478
 31
0.0
  0
LINE
  5
428
330
1F
100
AcDbEntity
  8
Rigid
  6
Continuous
370
    25
100
AcDbLine
 10
5.46846843991554
 20
7.853714100779342
 30
0.0
 11
5.362402422737574
 21
7.959780117957308
 31
0.0
  0
LINE
  5
429
330
1F
100
AcDbEntity
  8
Rigid
  6
Continuous
370
    25
100
AcDbLine
 10
5.46846843991554
 20
7.853714100779342
 30
0.0
 11
4.407808268135738
 21
6.793053928999512
 31
0.0
  0
LINE
  5
42A
330
1F
100
AcDbEntity
  8
Rigid
  6
Continuous
370
    25
100
AcDbLine
 10
4.407808268135738
 20
6.793053928999512
 30
0.0
 11
4.301742250957744
 21
6.899119946177478
 31
0.0
  0
LINE
  5
42B
330
1F
100
AcDbEntity
  8
Rigid
  6
Continuous
370
    25
100
AcDbLine
 10
14.27562426675615
 20
10.9743757332439
 30
0.0
 11
14.27562426675615
 21
9.474375733243903
 31
0.0
  0
LINE
  5
42C
330
1F
100
AcDbEntity
  8
Rigid
  6
Continuous
370
    25
100
AcDbLine
 10
14.12562426675617
 20
9.474375733243903
 30
0.0
 11
14.27562426675615
 21
9.474375733243903
 31
0.0
  0
LINE
  5
42D
330
1F
100
AcDbEntity
  8
Rigid
  6
Continuous
370
    25
100
AcDbLine
 10
14.12562426675617
 20
10.9743757332439
 30
0.0
 11
14.27562426675615
 21
10.9743757332439
 31
0.0
  0
LINE
  5
42E
330
1F
100
AcDbEntity
  8
Rigid
  6
Continuous
370
    25
100
AcDbLine
 10
14.12562426675617
 20
10.9743757332439
 30
0.0
 11
14.12562426675617
 21
9.474375733243903
 31
0.0
  0
LINE
  5
42F
330
1F
100
AcDbEntity
  8
Rigid
  6
Continuous
370
    25
100
AcDbLine
 10
5.074375733243897
 20
18.27562426675612
 30
0.0
 11
3.574375733243925
 21
18.27562426675612
 31
0.0
  0
LINE
  5
430
330
1F
100
AcDbEntity
  8
Rigid
  6
Continuous
370
    25
100
AcDbLine
 10
3.574375733243897
 20
18.12562426675615
 30
0.0
 11
3.574375733243925
 21
18.27562426675612
 31
0.0
  0
LINE
  5
431
330
1F
100
AcDbEntity
  8
Rigid
  6
Continuous
370
    25
100
AcDbLine
 10
5.074375733243897
 20
18.12562426675612
 30
0.0
 11
3.574375733243897
 21
18.12562426675615
 31
0.0
  0
LINE
  5
432
330
1F
100
AcDbEntity
  8
Rigid
  6
Continuous
370
    25
100
AcDbLine
 10
5.074375733243897
 20
18.12562426675612
 30
0.0
 11
5.074375733243897
 21
18.27562426675612
 31
0.0
  0
LINE
  5
433
330
1F
100
AcDbEntity
  8
Rigid
  6
Continuous
370
    25
100
AcDbLine
 10
7.850000000000022
 20
13.0
 30
0.0
 11
7.850000000000022
 21
11.5
 31
0.0
  0
LINE
  5
434
330
1F
100
AcDbEntity
  8
Rigid
  6
Continuous
370
    25
100
AcDbLine
 10
8.0
 20
13.0
 30
0.0
 11
7.850000000000022
 21
13.0
 31
0.0
  0
LINE
  5
435
330
1F
100
AcDbEntity
  8
Rigid
  6
Continuous
370
    25
100
AcDbLine
 10
8.0
 20
13.0
 30
0.0
 11
8.0
 21
11.5
 31
0.0
  0
LINE
  5
436
330
1F
100
AcDbEntity
  8
Rigid
  6
Continuous
370
    25
100
AcDbLine
 10
8.0
 20
11.5
 30
0.0
 11
7.850000000000022
 21
11.5
 31
0.0
  0
LINE
  5
437
330
1F
100
AcDbEntity
  8
Rigid
  6
Continuous
370
    25
100
AcDbLine
 10
8.000000000000085
 20
9.350000000000022
 30
0.0
 11
8.000000000000085
 21
7.850000000000022
 31
0.0
  0
LINE
  5
438
330
1F
100
AcDbEntity
  8
Rigid
  6
Continuous
370
    25
100
AcDbLine
 10
8.000000000000085
 20
7.850000000000022
 30
0.0
 11
7.850000000000079
 21
7.850000000000022
 31
0.0
  0
LINE
  5
439
330
1F
100
AcDbEntity
  8
Rigid
  6
Continuous
370
    25
100
AcDbLine
 10
7.850000000000079
 20
9.350000000000022
 30
0.0
 11
7.850000000000079
 21
7.850000000000022
 31
0.0
  0
LINE
  5
43A
330
1F
100
AcDbEntity
  8
Rigid
  6
Continuous
370
    25
100
AcDbLine
 10
8.000000000000085
 20
9.350000000000022
 30
0.0
 11
7.850000000000079
 21
9.350000000000022
 31
0.0
  0
LINE
  5
43B
330
1F
100
AcDbEntity
  8
Rigid
  6
Continuous
370
    25
100
AcDbLine
 10
6.850000000000051
 20
10.50000000000008
 30
0.0
 11
5.350000000000022
 21
10.50000000000008
 31
0.0
  0
LINE
  5
43C
330
1F
100
AcDbEntity
  8
Rigid
  6
Continuous
370
    25
100
AcDbLine
 10
6.850000000000051
 20
10.35000000000008
 30
0.0
 11
6.850000000000051
 21
10.50000000000008
 31
0.0
  0
LINE
  5
43D
330
1F
100
AcDbEntity
  8
Rigid
  6
Continuous
370
    25
100
AcDbLine
 10
6.850000000000051
 20
10.35000000000008
 30
0.0
 11
5.350000000000022
 21
10.35000000000008
 31
0.0
  0
LINE
  5
43E
330
1F
100
AcDbEntity
  8
Rigid
  6
Continuous
370
    25
100
AcDbLine
 10
5.350000000000022
 20
10.35000000000008
 30
0.0
 11
5.350000000000022
 21
10.50000000000008
 31
0.0
  0
LINE
  5
43F
330
1F
100
AcDbEntity
  8
Rigid
  6
Continuous
370
    25
100
AcDbLine
 10
5.074375733243925
 20
14.47562426675623
 30
0.0
 11
6.574375733243925
 21
14.4756242667562
 31
0.0
  0
LINE
  5
440
330
1F
100
AcDbEntity
  8
Rigid
  6
Continuous
370
    25
100
AcDbLine
 10
5.074375733243925
 20
14.6256242667562
 30
0.0
 11
5.074375733243925
 21
14.47562426675623
 31
0.0
  0
LINE
  5
441
330
1F
100
AcDbEntity
  8
Rigid
  6
Continuous
370
    25
100
AcDbLine
 10
5.074375733243925
 20
14.6256242667562
 30
0.0
 11
6.574375733243925
 21
14.6256242667562
 31
0.0
  0
LINE
  5
442
330
1F
100
AcDbEntity
  8
Rigid
  6
Continuous
370
    25
100
AcDbLine
 10
6.574375733243925
 20
14.6256242667562
 30
0.0
 11
6.574375733243925
 21
14.4756242667562
 31
0.0
  0
LINE
  5
443
330
1F
100
AcDbEntity
  8
Rigid
  6
Continuous
370
    25
100
AcDbLine
 10
9.0
 20
10.35000000000002
 30
0.0
 11
10.5
 21
10.35000000000002
 31
0.0
  0
LINE
  5
444
330
1F
100
AcDbEntity
  8
Rigid
  6
Continuous
370
    25
100
AcDbLine
 10
9.0
 20
10.5
 30
0.0
 11
9.0
 21
10.35000000000002
 31
0.0
  0
LINE
  5
445
330
1F
100
AcDbEntity
  8
Rigid
  6
Continuous
370
    25
100
AcDbLine
 10
9.0
 20
10.5
 30
0.0
 11
10.5
 21
10.5
 31
0.0
  0
LINE
  5
446
330
1F
100
AcDbEntity
  8
Rigid
  6
Continuous
370
    25
100
AcDbLine
 10
10.5
 20
10.5
 30
0.0
 11
10.5
 21
10.35000000000002
 31
0.0
  0
LINE
  5
447
330
1F
100
AcDbEntity
  8
Rigid
  6
Continuous
370
    25
100
AcDbLine
 10
11.97562426675611
 20
9.074375733243954
 30
0.0
 11
11.97562426675611
 21
7.574375733243954
 31
0.0
  0
LINE
  5
448
330
1F
100
AcDbEntity
  8
Rigid
  6
Continuous
370
    25
100
AcDbLine
 10
12.12562426675612
 20
9.074375733243954
 30
0.0
 11
12.12562426675612
 21
7.574375733243954
 31
0.0
  0
LINE
  5
449
330
1F
100
AcDbEntity
  8
Rigid
  6
Continuous
370
    25
100
AcDbLine
 10
12.12562426675612
 20
7.574375733243954
 30
0.0
 11
11.97562426675611
 21
7.574375733243954
 31
0.0
  0
LINE
  5
44A
330
1F
100
AcDbEntity
  8
Rigid
  6
Continuous
370
    25
100
AcDbLine
 10
12.12562426675612
 20
9.074375733243954
 30
0.0
 11
11.97562426675611
 21
9.074375733243954
 31
0.0
  0
LINE
  5
44E
330
1F
100
AcDbEntity
  8
Rigid
  6
Continuous
370
    25
100
AcDbLine
 10
0.0
 20
21.0
 30
0.0
 11
0.0
 21
0.0
 31
0.0
  0
LINE
  5
44F
330
1F
100
AcDbEntity
  8
Rigid
  6
Continuous
370
    25
100
AcDbLine
 10
22.0
 20
21.0
 30
0.0
 11
0.0
 21
21.0
 31
0.0
  0
LINE
  5
450
330
1F
100
AcDbEntity
  8
Rigid
  6
Continuous
370
    25
100
AcDbLine
 10
22.0
 20
0.0
 30
0.0
 11
22.0
 21
21.0
 31
0.0
  0
LINE
  5
452
330
1F
100
AcDbEntity
  8
Rigid
  6
Continuous
370
    25
100
AcDbLine
 10
0.0
 20
0.0
 30
0.0
 11
22.0
 21
0.0
 31
0.0
  0
LINE
  5
453
330
1F
100
AcDbEntity
  8
Rigid
  6
Continuous
370
    25
100
AcDbLine
 10
11.84393398282211
 20
6.3025126265847
 30
0.0
 11
12.90459415460194
 21
5.241852454804899
 31
0.0
  0
LINE
  5
454
330
1F
100
AcDbEntity
  8
Rigid
  6
Continuous
370
    25
100
AcDbLine
 10
12.12677669529674
 20
6.585355339059333
 30
0.0
 11
13.18743686707657
 21
5.524695167279503
 31
0.0
  0
LINE
  5
455
330
1F
100
AcDbEntity
  8
Rigid
  6
Continuous
370
    25
100
AcDbLine
 10
11.84393398282211
 20
6.3025126265847
 30
0.0
 11
12.12677669529674
 21
6.585355339059333
 31
0.0
  0
LINE
  5
456
330
1F
100
AcDbEntity
  8
Rigid
  6
Continuous
370
    25
100
AcDbLine
 10
12.90459415460194
 20
5.241852454804899
 30
0.0
 11
13.18743686707657
 21
5.524695167279503
 31
0.0
  0
LINE
  5
457
330
1F
100
AcDbEntity
  8
Rigid
  6
Continuous
370
    25
100
AcDbLine
 10
2.741852454804927
 20
15.40459415460196
 30
0.0
 11
3.024695167279531
 21
15.68743686707657
 31
0.0
  0
LINE
  5
458
330
1F
100
AcDbEntity
  8
Rigid
  6
Continuous
370
    25
100
AcDbLine
 10
3.024695167279531
 20
15.68743686707657
 30
0.0
 11
4.085355339059361
 21
14.62677669529674
 31
0.0
  0
LINE
  5
459
330
1F
100
AcDbEntity
  8
Rigid
  6
Continuous
370
    25
100
AcDbLine
 10
2.741852454804927
 20
15.40459415460196
 30
0.0
 11
3.802512626584729
 21
14.34393398282213
 31
0.0
  0
LINE
  5
45A
330
1F
100
AcDbEntity
  8
Rigid
  6
Continuous
370
    25
100
AcDbLine
 10
3.802512626584729
 20
14.34393398282213
 30
0.0
 11
4.085355339059361
 21
14.62677669529674
 31
0.0
  0
LINE
  5
45B
330
1F
100
AcDbEntity
  8
Rigid
  6
Continuous
370
    25
100
AcDbLine
 10
11.47562426675617
 20
8.524375733243914
 30
0.0
 11
11.47562426675617
 21
9.074375733243897
 31
0.0
  0
LINE
  5
45C
330
1F
100
AcDbEntity
  8
Rigid
  6
Continuous
370
    25
100
AcDbLine
 10
11.47562426675617
 20
8.524375733243914
 30
0.0
 11
11.07562426675619
 21
8.524375733243886
 31
0.0
  0
LINE
  5
45D
330
1F
100
AcDbEntity
  8
Rigid
  6
Continuous
370
    25
100
AcDbLine
 10
11.07562426675619
 20
8.524375733243886
 30
0.0
 11
11.07562426675619
 21
9.074375733243897
 31
0.0
  0
LINE
  5
45E
330
1F
100
AcDbEntity
  8
Rigid
  6
Continuous
370
    25
100
AcDbLine
 10
11.47562426675617
 20
9.074375733243897
 30
0.0
 11
11.07562426675619
 21
9.074375733243897
 31
0.0
  0
LINE
  5
45F
330
1F
100
AcDbEntity
  8
Rigid
  6
Continuous
370
    25
100
AcDbLine
 10
6.574375733243925
 20
13.97562426675623
 30
0.0
 11
6.024375733243886
 21
13.97562426675623
 31
0.0
  0
LINE
  5
460
330
1F
100
AcDbEntity
  8
Rigid
  6
Continuous
370
    25
100
AcDbLine
 10
6.024375733243886
 20
13.97562426675623
 30
0.0
 11
6.024375733243886
 21
13.57562426675619
 31
0.0
  0
LINE
  5
461
330
1F
100
AcDbEntity
  8
Rigid
  6
Continuous
370
    25
100
AcDbLine
 10
6.574375733243925
 20
13.97562426675623
 30
0.0
 11
6.574375733243925
 21
13.57562426675619
 31
0.0
  0
LINE
  5
462
330
1F
100
AcDbEntity
  8
Rigid
  6
Continuous
370
    25
100
AcDbLine
 10
6.574375733243925
 20
13.57562426675619
 30
0.0
 11
6.024375733243886
 21
13.57562426675619
 31
0.0
  0
LINE
  5
463
330
1F
100
AcDbEntity
  8
Rigid
  6
Continuous
370
    25
100
AcDbLine
 10
13.62562426675617
 20
9.474375733243903
 30
0.0
 11
13.62562426675617
 21
9.074375733243897
 31
0.0
  0
LINE
  5
464
330
1F
100
AcDbEntity
  8
Rigid
  6
Continuous
370
    25
100
AcDbLine
 10
13.62562426675617
 20
9.074375733243897
 30
0.0
 11
13.07562426675616
 21
9.074375733243897
 31
0.0
  0
LINE
  5
465
330
1F
100
AcDbEntity
  8
Rigid
  6
Continuous
370
    25
100
AcDbLine
 10
13.07562426675614
 20
9.474375733243903
 30
0.0
 11
13.07562426675616
 21
9.074375733243897
 31
0.0
  0
LINE
  5
466
330
1F
100
AcDbEntity
  8
Rigid
  6
Continuous
370
    25
100
AcDbLine
 10
13.62562426675617
 20
9.474375733243903
 30
0.0
 11
13.07562426675614
 21
9.474375733243903
 31
0.0
  0
LINE
  5
467
330
1F
100
AcDbEntity
  8
Rigid
  6
Continuous
370
    25
100
AcDbLine
 10
11.07562426675611
 20
8.124375733243937
 30
0.0
 11
11.47562426675611
 21
8.124375733243937
 31
0.0
  0
LINE
  5
468
330
1F
100
AcDbEntity
  8
Rigid
  6
Continuous
370
    25
100
AcDbLine
 10
11.07562426675611
 20
7.574375733243954
 30
0.0
 11
11.47562426675611
 21
7.574375733243954
 31
0.0
  0
LINE
  5
469
330
1F
100
AcDbEntity
  8
Rigid
  6
Continuous
370
    25
100
AcDbLine
 10
11.47562426675611
 20
8.124375733243937
 30
0.0
 11
11.47562426675611
 21
7.574375733243954
 31
0.0
  0
LINE
  5
46A
330
1F
100
AcDbEntity
  8
Rigid
  6
Continuous
370
    25
100
AcDbLine
 10
11.07562426675611
 20
8.124375733243937
 30
0.0
 11
11.07562426675611
 21
7.574375733243954
 31
0.0
  0
LINE
  5
46B
330
1F
100
AcDbEntity
  8
Rigid
  6
Continuous
370
    25
100
AcDbLine
 10
12.67562426675616
 20
9.474375733243903
 30
0.0
 11
12.67562426675616
 21
9.074375733243897
 31
0.0
  0
LINE
  5
46C
330
1F
100
AcDbEntity
  8
Rigid
  6
Continuous
370
    25
100
AcDbLine
 10
12.67562426675616
 20
9.074375733243897
 30
0.0
 11
12.12562426675615
 21
9.074375733243897
 31
0.0
  0
LINE
  5
46D
330
1F
100
AcDbEntity
  8
Rigid
  6
Continuous
370
    25
100
AcDbLine
 10
12.12562426675615
 20
9.474375733243874
 30
0.0
 11
12.12562426675615
 21
9.074375733243897
 31
0.0
  0
LINE
  5
46E
330
1F
100
AcDbEntity
  8
Rigid
  6
Continuous
370
    25
100
AcDbLine
 10
12.67562426675616
 20
9.474375733243903
 30
0.0
 11
12.12562426675615
 21
9.474375733243874
 31
0.0
  0
LINE
  5
46F
330
1F
100
AcDbEntity
  8
Rigid
  6
Continuous
370
    25
100
AcDbLine
 10
5.074375733243925
 20
13.57562426675619
 30
0.0
 11
5.624375733243908
 21
13.57562426675619
 31
0.0
  0
LINE
  5
470
330
1F
100
AcDbEntity
  8
Rigid
  6
Continuous
370
    25
100
AcDbLine
 10
5.074375733243925
 20
13.57562426675619
 30
0.0
 11
5.074375733243925
 21
13.97562426675623
 31
0.0
  0
LINE
  5
471
330
1F
100
AcDbEntity
  8
Rigid
  6
Continuous
370
    25
100
AcDbLine
 10
5.074375733243925
 20
13.97562426675623
 30
0.0
 11
5.624375733243937
 21
13.97562426675623
 31
0.0
  0
LINE
  5
472
330
1F
100
AcDbEntity
  8
Rigid
  6
Continuous
370
    25
100
AcDbLine
 10
5.624375733243908
 20
13.57562426675619
 30
0.0
 11
5.624375733243937
 21
13.97562426675623
 31
0.0
  0
LINE
  5
473
330
1F
100
AcDbEntity
  8
Rigid
  6
Continuous
370
    25
100
AcDbLine
 10
5.435786437626916
 20
11.58578643762701
 30
0.0
 11
6.850000000000022
 21
13.00000000000008
 31
0.0
  0
LINE
  5
474
330
1F
100
AcDbEntity
  8
Rigid
  6
Continuous
370
    25
100
AcDbLine
 10
5.16016217087079
 20
11.86141070438313
 30
0.0
 11
6.574375733243925
 21
13.27562426675621
 31
0.0
  0
LINE
  5
475
330
1F
100
AcDbEntity
  8
Rigid
  6
Continuous
370
    25
100
AcDbLine
 10
5.435786437626916
 20
11.58578643762701
 30
0.0
 11
5.16016217087079
 21
11.86141070438313
 31
0.0
  0
LINE
  5
476
330
1F
100
AcDbEntity
  8
Rigid
  6
Continuous
370
    25
100
AcDbLine
 10
6.850000000000022
 20
13.00000000000008
 30
0.0
 11
6.574375733243925
 21
13.27562426675621
 31
0.0
  0
LINE
  5
477
330
1F
100
AcDbEntity
  8
Rigid
  6
Continuous
370
    25
100
AcDbLine
 10
10.50000000000008
 20
9.350000000000022
 30
0.0
 11
9.08578643762695
 21
7.935786437626887
 31
0.0
  0
LINE
  5
478
330
1F
100
AcDbEntity
  8
Rigid
  6
Continuous
370
    25
100
AcDbLine
 10
10.77562426675618
 20
9.074375733243897
 30
0.0
 11
9.361410704383075
 21
7.66016217087079
 31
0.0
  0
LINE
  5
479
330
1F
100
AcDbEntity
  8
Rigid
  6
Continuous
370
    25
100
AcDbLine
 10
10.50000000000008
 20
9.350000000000022
 30
0.0
 11
10.77562426675618
 21
9.074375733243897
 31
0.0
  0
LINE
  5
47A
330
1F
100
AcDbEntity
  8
Rigid
  6
Continuous
370
    25
100
AcDbLine
 10
9.08578643762695
 20
7.935786437626887
 30
0.0
 11
9.361410704383075
 21
7.66016217087079
 31
0.0
  0
LWPOLYLINE
  5
49B
330
1F
100
AcDbEntity
  8
Rigid
100
AcDbPolyline
 90
        4
 70
     1
 43
0.0
 10
14.5
 20
13.64999999999997
 10
16.0
 20
13.64999999999997
 10
16.0
 20
13.25
 10
14.5
 20
13.25
  0
LWPOLYLINE
  5
49C
330
1F
100
AcDbEntity
  8
Rigid
100
AcDbPolyline
 90
        4
 70
     1
 43
0.0
 10
19.0
 20
13.25
 10
21.0
 20
13.25
 10
21.0
 20
13.65
 10
19.0
 20
13.65
  0
LWPOLYLINE
  5
49D
330
1F
100
AcDbEntity
  8
Rigid
100
AcDbPolyline
 90
        4
 70
     1
 43
0.0
 10
16.0
 20
8.25
 10
17.5
 20
8.25
 10
17.5
 20
7.850000000000022
 10
16.0
 20
7.850000000000022
  0
LWPOLYLINE
  5
49E
330
1F
100
AcDbEntity
  8
Rigid
100
AcDbPolyline
 90
        4
 70
     1
 43
0.0
 10
19.0
 20
7.850000000000022
 10
21.0
 20
7.850000000000022
 10
21.0
 20
8.25
 10
19.0
 20
8.25
  0
ENDSEC
  0
SECTION
  2
OBJECTS
  0
DICTIONARY
  5
C
330
0
100
AcDbDictionary
281
     1
  3
ACAD_CIP_PREVIOUS_PRODUCT_INFO
350
1AC
  3
ACAD_COLOR
350
1A1
  3
ACAD_DETAILVIEWSTYLE
350
1A8
  3
ACAD_GROUP
350
D
  3
ACAD_LAYOUT
350
1A
  3
ACAD_MATERIAL
350
16F
  3
ACAD_MLEADERSTYLE
350
1A4
  3
ACAD_MLINESTYLE
350
17
  3
ACAD_PLOTSETTINGS
350
19
  3
ACAD_PLOTSTYLENAME
350
E
  3
ACAD_SCALELIST
350
47
  3
ACAD_SECTIONVIEWSTYLE
350
1A6
  3
ACAD_TABLESTYLE
350
1A2
  3
ACAD_VISUALSTYLE
350
188
  3
ACDB_RECOMPOSE_DATA
350
4C1
  3
AcDbVariableDictionary
350
1CA
  3
AcDsDecomposeData
350
4C7
  0
DICTIONARY
  5
1B2
330
2
100
AcDbDictionary
280
     1
281
     1
  3
ACAD_LAYERSTATES
360
1B3
  0
DICTIONARY
  5
1AD
330
10
100
AcDbDictionary
280
     1
281
     1
  3
ADSK_XREC_LAYER_RECONCILED
360
1AE
  0
XRECORD
  5
1AC
102
{ACAD_REACTORS
330
C
102
}
330
C
100
AcDbXrecord
280
     1
300
ACD
300
2021
300

  0
DICTIONARY
  5
1A1
102
{ACAD_REACTORS
330
C
102
}
330
C
100
AcDbDictionary
281
     1
  0
DICTIONARY
  5
1A8
102
{ACAD_REACTORS
330
C
102
}
330
C
100
AcDbDictionary
281
     1
  3
Metric50
350
1A9
  0
DICTIONARY
  5
D
102
{ACAD_REACTORS
330
C
102
}
330
C
100
AcDbDictionary
281
     1
  0
DICTIONARY
  5
1A
102
{ACAD_REACTORS
330
C
102
}
330
C
100
AcDbDictionary
281
     1
  3
Layout1
350
1E
  3
Layout2
350
26
  3
Model
350
22
  0
DICTIONARY
  5
16F
102
{ACAD_REACTORS
330
C
102
}
330
C
100
AcDbDictionary
281
     1
  3
ByBlock
350
178
  3
ByLayer
350
170
  3
Global
350
180
  0
DICTIONARY
  5
1A4
102
{ACAD_REACTORS
330
C
102
}
330
C
100
AcDbDictionary
281
     1
  3
Standard
350
1A5
  0
DICTIONARY
  5
17
102
{ACAD_REACTORS
330
C
102
}
330
C
100
AcDbDictionary
281
     1
  3
Standard
350
18
  0
DICTIONARY
  5
19
102
{ACAD_REACTORS
330
C
102
}
330
C
100
AcDbDictionary
281
     1
  0
ACDBDICTIONARYWDFLT
  5
E
102
{ACAD_REACTORS
330
C
102
}
330
C
100
AcDbDictionary
281
     1
  3
Normal
350
F
100
AcDbDictionaryWithDefault
340
F
  0
DICTIONARY
  5
47
102
{ACAD_REACTORS
330
C
102
}
330
C
100
AcDbDictionary
281
     1
  3
A0
350
48
  3
A1
350
49
  3
A2
350
4A
  3
A3
350
4B
  3
A4
350
4C
  3
A5
350
4D
  3
A6
350
4E
  3
A7
350
4F
  3
A8
350
50
  3
A9
350
51
  3
B0
350
52
  3
B1
350
53
  3
B2
350
54
  3
B3
350
55
  3
B4
350
56
  3
B5
350
57
  3
B6
350
58
  3
B7
350
59
  3
B8
350
5A
  3
B9
350
5B
  3
C0
350
5C
  3
C1
350
5D
  3
C2
350
5E
  3
C3
350
5F
  3
C4
350
60
  3
C5
350
61
  3
C6
350
62
  3
C7
350
63
  3
C8
350
64
  3
C9
350
65
  3
D0
350
66
  3
D1
350
67
  3
D2
350
68
  0
DICTIONARY
  5
1A6
102
{ACAD_REACTORS
330
C
102
}
330
C
100
AcDbDictionary
281
     1
  3
Metric50
350
1A7
  0
DICTIONARY
  5
1A2
102
{ACAD_REACTORS
330
C
102
}
330
C
100
AcDbDictionary
281
     1
  3
Standard
350
1A3
  0
DICTIONARY
  5
188
102
{ACAD_REACTORS
330
C
102
}
330
C
100
AcDbDictionary
281
     1
  3
2dWireframe
350
18E
  3
Basic
350
18D
  3
Brighten
350
194
  3
ColorChange
350
198
  3
Conceptual
350
191
  3
Dim
350
193
  3
EdgeColorOff
350
1A0
  3
Facepattern
350
197
  3
Flat
350
189
  3
FlatWithEdges
350
18A
  3
Gouraud
350
18B
  3
GouraudWithEdges
350
18C
  3
Hidden
350
190
  3
JitterOff
350
19E
  3
Linepattern
350
196
  3
OverhangOff
350
19F
  3
Realistic
350
192
  3
Shaded
350
19D
  3
Shaded with edges
350
19C
  3
Shades of Gray
350
199
  3
Sketchy
350
19A
  3
Thicken
350
195
  3
Wireframe
350
18F
  3
X-Ray
350
19B
  0
XRECORD
  5
4C1
102
{ACAD_REACTORS
330
C
102
}
330
C
100
AcDbXrecord
280
     1
 90
        1
330
1A3
  0
DICTIONARY
  5
1CA
102
{ACAD_REACTORS
330
C
102
}
330
C
100
AcDbDictionary
281
     1
  3
CANNOSCALE
350
1D0
  3
CMLEADERSTYLE
350
1CC
  3
CTABLESTYLE
350
1CB
  3
CVIEWDETAILSTYLE
350
1CD
  3
CVIEWSECTIONSTYLE
350
1CE
  3
LAYEREVAL
350
1D2
  3
LAYERNOTIFY
350
1D3
  3
LIGHTINGUNITS
350
1D1
  3
MSLTSCALE
350
1CF
  0
DICTIONARY
  5
4C7
102
{ACAD_REACTORS
330
C
102
}
330
C
100
AcDbDictionary
281
     1
  3
AcDsRecords
350
4C9
  3
AcDsSchemas
350
4C8
1001
ACAD
1070
     2
  0
DICTIONARY
  5
1B3
102
{ACAD_REACTORS
330
1B2
102
}
330
1B2
100
AcDbDictionary
281
     1
  0
XRECORD
  5
1AE
102
{ACAD_REACTORS
330
1AD
102
}
330
1AD
100
AcDbXrecord
280
     1
290
     1
  0
ACDBDETAILVIEWSTYLE
  5
1A9
102
{ACAD_XDICTIONARY
360
4CC
102
}
102
{ACAD_REACTORS
330
1A8
102
}
330
1A8
100
AcDbModelDocViewStyle
 70
     0
  3
Metric50
290
     0
100
AcDbDetailViewStyle
 70
     0
 71
     0
 90
        3
 71
     1
340
11
 62
   256
 40
5.0
340
0
 62
   256
 40
5.0
300

 40
0.0
280
     1
 71
     2
340
16
 90
       25
 62
   256
 71
     3
340
11
 62
   256
 40
5.0
 90
        0
 40
15.0
 90
        1
300
%<\AcVar ViewDetailId>% (%<\AcVar ViewScale \f "%sn">%)
 71
     4
340
16
 90
       25
 62
   256
340
16
 90
       25
 62
   256
280
     0
  0
LAYOUT
  5
1E
102
{ACAD_REACTORS
330
1A
102
}
330
1A
100
AcDbPlotSettings
  1

  2
none_device
  4

  6

 40
0.0
 41
0.0
 42
0.0
 43
0.0
 44
0.0
 45
0.0
 46
0.0
 47
0.0
 48
0.0
 49
0.0
140
0.0
141
0.0
142
1.0
143
1.0
 70
   688
 72
     1
 73
     0
 74
     5
  7

 75
    16
147
1.0
 76
     0
 77
     2
 78
   300
148
0.0
149
0.0
100
AcDbLayout
  1
Layout1
 70
     1
 71
     1
 10
0.0
 20
0.0
 11
420.0
 21
297.0
 12
0.0
 22
0.0
 32
0.0
 14
1.000000000000000E+20
 24
1.000000000000000E+20
 34
1.000000000000000E+20
 15
-1.000000000000000E+20
 25
-1.000000000000000E+20
 35
-1.000000000000000E+20
146
0.0
 13
0.0
 23
0.0
 33
0.0
 16
1.0
 26
0.0
 36
0.0
 17
0.0
 27
1.0
 37
0.0
 76
     0
330
1B
  0
LAYOUT
  5
26
102
{ACAD_REACTORS
330
1A
102
}
330
1A
100
AcDbPlotSettings
  1

  2
none_device
  4

  6

 40
0.0
 41
0.0
 42
0.0
 43
0.0
 44
0.0
 45
0.0
 46
0.0
 47
0.0
 48
0.0
 49
0.0
140
0.0
141
0.0
142
1.0
143
1.0
 70
   688
 72
     1
 73
     0
 74
     5
  7

 75
    16
147
1.0
 76
     0
 77
     2
 78
   300
148
0.0
149
0.0
100
AcDbLayout
  1
Layout2
 70
     1
 71
     2
 10
0.0
 20
0.0
 11
0.0
 21
0.0
 12
0.0
 22
0.0
 32
0.0
 14
0.0
 24
0.0
 34
0.0
 15
0.0
 25
0.0
 35
0.0
146
0.0
 13
0.0
 23
0.0
 33
0.0
 16
1.0
 26
0.0
 36
0.0
 17
0.0
 27
1.0
 37
0.0
 76
     0
330
23
  0
LAYOUT
  5
22
102
{ACAD_REACTORS
330
1A
102
}
330
1A
100
AcDbPlotSettings
  1

  2
none_device
  4
Letter_(8.50_x_11.00_Inches)
  6

 40
6.349999999999999
 41
6.349999999999999
 42
6.350005079999999
 43
6.350005079999999
 44
215.9
 45
279.4
 46
0.0
 47
0.0
 48
0.0
 49
0.0
140
0.0
141
0.0
142
1.0
143
1.0
 70
  1712
 72
     1
 73
     0
 74
     0
  7

 75
     0
147
1.0
 76
     0
 77
     2
 78
   300
148
0.0
149
0.0
100
AcDbLayout
  1
Model
 70
     1
 71
     0
 10
0.0
 20
0.0
 11
420.0
 21
297.0
 12
0.0
 22
0.0
 32
0.0
 14
0.0
 24
0.0
 34
0.0
 15
420.0
 25
297.0
 35
0.0
146
0.0
 13
0.0
 23
0.0
 33
0.0
 16
1.0
 26
0.0
 36
0.0
 17
0.0
 27
1.0
 37
0.0
 76
     0
330
1F
331
29
  0
MATERIAL
  5
178
102
{ACAD_XDICTIONARY
360
179
102
}
102
{ACAD_REACTORS
330
16F
102
}
330
16F
100
AcDbMaterial
  1
ByBlock
 72
     0
 43
0.0008202099737533
 43
0.0
 43
0.0
 43
0.0
 43
0.0
 43
0.0008202099737533
 43
0.0
 43
0.0
 43
0.0
 43
0.0
 43
1.0
 43
0.0
 43
0.0
 43
0.0
 43
0.0
 43
1.0
 77
     0
 47
0.0008202099737533
 47
0.0
 47
0.0
 47
0.0
 47
0.0
 47
0.0008202099737533
 47
0.0
 47
0.0
 47
0.0
 47
0.0
 47
1.0
 47
0.0
 47
0.0
 47
0.0
 47
0.0
 47
1.0
171
     0
 49
0.0008202099737533
 49
0.0
 49
0.0
 49
0.0
 49
0.0
 49
0.0008202099737533
 49
0.0
 49
0.0
 49
0.0
 49
0.0
 49
1.0
 49
0.0
 49
0.0
 49
0.0
 49
0.0
 49
1.0
175
     0
142
0.0008202099737533
142
0.0
142
0.0
142
0.0
142
0.0
142
0.0008202099737533
142
0.0
142
0.0
142
0.0
142
0.0
142
1.0
142
0.0
142
0.0
142
0.0
142
0.0
142
1.0
179
     0
144
0.0008202099737533
144
0.0
144
0.0
144
0.0
144
0.0
144
0.0008202099737533
144
0.0
144
0.0
144
0.0
144
0.0
144
1.0
144
0.0
144
0.0
144
0.0
144
0.0
144
1.0
147
0.0008202099737533
147
0.0
147
0.0
147
0.0
147
0.0
147
0.0008202099737533
147
0.0
147
0.0
147
0.0
147
0.0
147
1.0
147
0.0
147
0.0
147
0.0
147
0.0
147
1.0
  0
MATERIAL
  5
170
102
{ACAD_XDICTIONARY
360
171
102
}
102
{ACAD_REACTORS
330
16F
102
}
330
16F
100
AcDbMaterial
  1
ByLayer
 72
     0
 43
0.0008202099737533
 43
0.0
 43
0.0
 43
0.0
 43
0.0
 43
0.0008202099737533
 43
0.0
 43
0.0
 43
0.0
 43
0.0
 43
1.0
 43
0.0
 43
0.0
 43
0.0
 43
0.0
 43
1.0
 77
     0
 47
0.0008202099737533
 47
0.0
 47
0.0
 47
0.0
 47
0.0
 47
0.0008202099737533
 47
0.0
 47
0.0
 47
0.0
 47
0.0
 47
1.0
 47
0.0
 47
0.0
 47
0.0
 47
0.0
 47
1.0
171
     0
 49
0.0008202099737533
 49
0.0
 49
0.0
 49
0.0
 49
0.0
 49
0.0008202099737533
 49
0.0
 49
0.0
 49
0.0
 49
0.0
 49
1.0
 49
0.0
 49
0.0
 49
0.0
 49
0.0
 49
1.0
175
     0
142
0.0008202099737533
142
0.0
142
0.0
142
0.0
142
0.0
142
0.0008202099737533
142
0.0
142
0.0
142
0.0
142
0.0
142
1.0
142
0.0
142
0.0
142
0.0
142
0.0
142
1.0
179
     0
144
0.0008202099737533
144
0.0
144
0.0
144
0.0
144
0.0
144
0.0008202099737533
144
0.0
144
0.0
144
0.0
144
0.0
144
1.0
144
0.0
144
0.0
144
0.0
144
0.0
144
1.0
147
0.0008202099737533
147
0.0
147
0.0
147
0.0
147
0.0
147
0.0008202099737533
147
0.0
147
0.0
147
0.0
147
0.0
147
1.0
147
0.0
147
0.0
147
0.0
147
0.0
147
1.0
  0
MATERIAL
  5
180
102
{ACAD_XDICTIONARY
360
181
102
}
102
{ACAD_REACTORS
330
16F
102
}
330
16F
100
AcDbMaterial
  1
Global
 72
     0
 43
0.0008202099737533
 43
0.0
 43
0.0
 43
0.0
 43
0.0
 43
0.0008202099737533
 43
0.0
 43
0.0
 43
0.0
 43
0.0
 43
1.0
 43
0.0
 43
0.0
 43
0.0
 43
0.0
 43
1.0
 77
     0
 47
0.0008202099737533
 47
0.0
 47
0.0
 47
0.0
 47
0.0
 47
0.0008202099737533
 47
0.0
 47
0.0
 47
0.0
 47
0.0
 47
1.0
 47
0.0
 47
0.0
 47
0.0
 47
0.0
 47
1.0
171
     0
 49
0.0008202099737533
 49
0.0
 49
0.0
 49
0.0
 49
0.0
 49
0.0008202099737533
 49
0.0
 49
0.0
 49
0.0
 49
0.0
 49
1.0
 49
0.0
 49
0.0
 49
0.0
 49
0.0
 49
1.0
175
     0
142
0.0008202099737533
142
0.0
142
0.0
142
0.0
142
0.0
142
0.0008202099737533
142
0.0
142
0.0
142
0.0
142
0.0
142
1.0
142
0.0
142
0.0
142
0.0
142
0.0
142
1.0
179
     0
144
0.0008202099737533
144
0.0
144
0.0
144
0.0
144
0.0
144
0.0008202099737533
144
0.0
144
0.0
144
0.0
144
0.0
144
1.0
144
0.0
144
0.0
144
0.0
144
0.0
144
1.0
147
0.0008202099737533
147
0.0
147
0.0
147
0.0
147
0.0
147
0.0008202099737533
147
0.0
147
0.0
147
0.0
147
0.0
147
1.0
147
0.0
147
0.0
147
0.0
147
0.0
147
1.0
  0
MLEADERSTYLE
  5
1A5
102
{ACAD_REACTORS
330
1A4
102
}
330
1A4
100
AcDbMLeaderStyle
179
     2
170
     2
171
     1
172
     0
 90
        2
 40
0.0
 41
0.0
173
     1
 91
-1056964608
340
14
 92
       -2
290
     1
 42
2.0
291
     1
 43
0.36
  3
Standard
 44
4.0
300

342
11
174
     1
178
     6
175
     1
176
     0
 93
-1056964608
 45
4.0
292
     0
297
     0
 46
4.0
 94
-1056964608
 47
1.0
 49
1.0
140
1.0
293
     1
141
0.0
294
     1
177
     0
142
1.0
295
     0
296
     0
143
0.125
271
     0
272
     9
273
     9
298
     1
  0
MLINESTYLE
  5
18
102
{ACAD_REACTORS
330
17
102
}
330
17
100
AcDbMlineStyle
  2
STANDARD
 70
     0
  3

 62
   256
 51
90.0
 52
90.0
 71
     2
 49
0.5
 62
   256
  6
BYLAYER
 49
-0.5
 62
   256
  6
BYLAYER
  0
ACDBPLACEHOLDER
  5
F
102
{ACAD_REACTORS
330
E
102
}
330
E
  0
SCALE
  5
48
102
{ACAD_REACTORS
330
47
102
}
330
47
100
AcDbScale
 70
     0
300
1:1
140
1.0
141
1.0
290
     1
  0
SCALE
  5
49
102
{ACAD_REACTORS
330
47
102
}
330
47
100
AcDbScale
 70
     0
300
1:2
140
1.0
141
2.0
290
     0
  0
SCALE
  5
4A
102
{ACAD_REACTORS
330
47
102
}
330
47
100
AcDbScale
 70
     0
300
1:4
140
1.0
141
4.0
290
     0
  0
SCALE
  5
4B
102
{ACAD_REACTORS
330
47
102
}
330
47
100
AcDbScale
 70
     0
300
1:5
140
1.0
141
5.0
290
     0
  0
SCALE
  5
4C
102
{ACAD_REACTORS
330
47
102
}
330
47
100
AcDbScale
 70
     0
300
1:8
140
1.0
141
8.0
290
     0
  0
SCALE
  5
4D
102
{ACAD_REACTORS
330
47
102
}
330
47
100
AcDbScale
 70
     0
300
1:10
140
1.0
141
10.0
290
     0
  0
SCALE
  5
4E
102
{ACAD_REACTORS
330
47
102
}
330
47
100
AcDbScale
 70
     0
300
1:16
140
1.0
141
16.0
290
     0
  0
SCALE
  5
4F
102
{ACAD_REACTORS
330
47
102
}
330
47
100
AcDbScale
 70
     0
300
1:20
140
1.0
141
20.0
290
     0
  0
SCALE
  5
50
102
{ACAD_REACTORS
330
47
102
}
330
47
100
AcDbScale
 70
     0
300
1:30
140
1.0
141
30.0
290
     0
  0
SCALE
  5
51
102
{ACAD_REACTORS
330
47
102
}
330
47
100
AcDbScale
 70
     0
300
1:40
140
1.0
141
40.0
290
     0
  0
SCALE
  5
52
102
{ACAD_REACTORS
330
47
102
}
330
47
100
AcDbScale
 70
     0
300
1:50
140
1.0
141
50.0
290
     0
  0
SCALE
  5
53
102
{ACAD_REACTORS
330
47
102
}
330
47
100
AcDbScale
 70
     0
300
1:100
140
1.0
141
100.0
290
     0
  0
SCALE
  5
54
102
{ACAD_REACTORS
330
47
102
}
330
47
100
AcDbScale
 70
     0
300
2:1
140
2.0
141
1.0
290
     0
  0
SCALE
  5
55
102
{ACAD_REACTORS
330
47
102
}
330
47
100
AcDbScale
 70
     0
300
4:1
140
4.0
141
1.0
290
     0
  0
SCALE
  5
56
102
{ACAD_REACTORS
330
47
102
}
330
47
100
AcDbScale
 70
     0
300
8:1
140
8.0
141
1.0
290
     0
  0
SCALE
  5
57
102
{ACAD_REACTORS
330
47
102
}
330
47
100
AcDbScale
 70
     0
300
10:1
140
10.0
141
1.0
290
     0
  0
SCALE
  5
58
102
{ACAD_REACTORS
330
47
102
}
330
47
100
AcDbScale
 70
     0
300
100:1
140
100.0
141
1.0
290
     0
  0
SCALE
  5
59
102
{ACAD_REACTORS
330
47
102
}
330
47
100
AcDbScale
 70
     0
300
1/128" = 1'-0"
140
0.0078125
141
12.0
290
     0
  0
SCALE
  5
5A
102
{ACAD_REACTORS
330
47
102
}
330
47
100
AcDbScale
 70
     0
300
1/64" = 1'-0"
140
0.015625
141
12.0
290
     0
  0
SCALE
  5
5B
102
{ACAD_REACTORS
330
47
102
}
330
47
100
AcDbScale
 70
     0
300
1/32" = 1'-0"
140
0.03125
141
12.0
290
     0
  0
SCALE
  5
5C
102
{ACAD_REACTORS
330
47
102
}
330
47
100
AcDbScale
 70
     0
300
1/16" = 1'-0"
140
0.0625
141
12.0
290
     0
  0
SCALE
  5
5D
102
{ACAD_REACTORS
330
47
102
}
330
47
100
AcDbScale
 70
     0
300
3/32" = 1'-0"
140
0.09375
141
12.0
290
     0
  0
SCALE
  5
5E
102
{ACAD_REACTORS
330
47
102
}
330
47
100
AcDbScale
 70
     0
300
1/8" = 1'-0"
140
0.125
141
12.0
290
     0
  0
SCALE
  5
5F
102
{ACAD_REACTORS
330
47
102
}
330
47
100
AcDbScale
 70
     0
300
3/16" = 1'-0"
140
0.1875
141
12.0
290
     0
  0
SCALE
  5
60
102
{ACAD_REACTORS
330
47
102
}
330
47
100
AcDbScale
 70
     0
300
1/4" = 1'-0"
140
0.25
141
12.0
290
     0
  0
SCALE
  5
61
102
{ACAD_REACTORS
330
47
102
}
330
47
100
AcDbScale
 70
     0
300
3/8" = 1'-0"
140
0.375
141
12.0
290
     0
  0
SCALE
  5
62
102
{ACAD_REACTORS
330
47
102
}
330
47
100
AcDbScale
 70
     0
300
1/2" = 1'-0"
140
0.5
141
12.0
290
     0
  0
SCALE
  5
63
102
{ACAD_REACTORS
330
47
102
}
330
47
100
AcDbScale
 70
     0
300
3/4" = 1'-0"
140
0.75
141
12.0
290
     0
  0
SCALE
  5
64
102
{ACAD_REACTORS
330
47
102
}
330
47
100
AcDbScale
 70
     0
300
1" = 1'-0"
140
1.0
141
12.0
290
     0
  0
SCALE
  5
65
102
{ACAD_REACTORS
330
47
102
}
330
47
100
AcDbScale
 70
     0
300
1-1/2" = 1'-0"
140
1.5
141
12.0
290
     0
  0
SCALE
  5
66
102
{ACAD_REACTORS
330
47
102
}
330
47
100
AcDbScale
 70
     0
300
3" = 1'-0"
140
3.0
141
12.0
290
     0
  0
SCALE
  5
67
102
{ACAD_REACTORS
330
47
102
}
330
47
100
AcDbScale
 70
     0
300
6" = 1'-0"
140
6.0
141
12.0
290
     0
  0
SCALE
  5
68
102
{ACAD_REACTORS
330
47
102
}
330
47
100
AcDbScale
 70
     0
300
1'-0" = 1'-0"
140
12.0
141
12.0
290
     0
  0
ACDBSECTIONVIEWSTYLE
  5
1A7
102
{ACAD_XDICTIONARY
360
4CA
102
}
102
{ACAD_REACTORS
330
1A6
102
}
330
1A6
100
AcDbModelDocViewStyle
 70
     0
  3
Metric50
290
     0
100
AcDbSectionViewStyle
 70
     0
 71
     0
 90
      102
 71
     1
340
11
 62
   256
 40
5.0
340
0
340
0
 62
   256
 40
5.0
300
I, O, Q, S, X, Z
 40
10.0
 90
        0
 40
2.5
 90
        0
 71
     2
340
16
 90
       25
 62
   256
340
16
 90
       50
 62
   256
 40
5.0
 40
2.5
 40
5.0
 71
     3
340
11
 62
   256
 40
5.0
 90
        0
 40
15.0
 90
        1
300
%<\AcVar ViewSectionStartId>%-%<\AcVar ViewSectionEndId>% (%<\AcVar ViewScale \f "%sn">%)
 71
     4
 62
   256
 62
   257
300
ANSI31
 40
1.0
 90
        0
290
     0
290
     0
 90
        6
 40
0.0
 40
1.570796326794896
 40
0.2617993877991494
 40
1.308996938995747
 40
-0.2617993877991494
 40
1.832595714594046
  0
TABLESTYLE
  5
1A3
102
{ACAD_XDICTIONARY
360
4BF
102
}
102
{ACAD_REACTORS
330
1A2
102
}
330
1A2
100
AcDbTableStyle
280
     0
  3
Standard
 70
     0
 71
     0
 40
1.5
 41
1.5
280
     0
281
     0
  7
Standard
140
4.5
170
     2
 62
     0
 63
     7
283
     0
 90
      512
 91
        0
  1

274
    -2
284
     1
 64
     0
275
    -2
285
     1
 65
     0
276
    -2
286
     1
 66
     0
277
    -2
287
     1
 67
     0
278
    -2
288
     1
 68
     0
279
    -2
289
     1
 69
     0
  7
Standard
140
6.0
170
     5
 62
     0
 63
     7
283
     0
 90
      512
 91
        0
  1

274
    -2
284
     1
 64
     0
275
    -2
285
     1
 65
     0
276
    -2
286
     1
 66
     0
277
    -2
287
     1
 67
     0
278
    -2
288
     1
 68
     0
279
    -2
289
     1
 69
     0
  7
Standard
140
4.5
170
     5
 62
     0
 63
     7
283
     0
 90
      512
 91
        0
  1

274
    -2
284
     1
 64
     0
275
    -2
285
     1
 65
     0
276
    -2
286
     1
 66
     0
277
    -2
287
     1
 67
     0
278
    -2
288
     1
 68
     0
279
    -2
289
     1
 69
     0
  0
VISUALSTYLE
  5
18E
102
{ACAD_REACTORS
330
188
102
}
330
188
100
AcDbVisualStyle
  2
2dWireframe
 70
     4
177
     3
291
     0
 70
    58
 90
        0
176
     1
 90
        2
176
     1
 90
        0
176
     1
 90
        0
176
     1
 40
0.6
176
     1
 40
30.0
176
     1
 62
     7
420
 16777215
176
     1
 90
        1
176
     1
 90
        4
176
     1
 62
     7
176
     1
 62
   257
176
     1
 90
        1
176
     1
 90
        1
176
     1
 40
1.0
176
     1
 90
        0
176
     1
 62
   257
176
     1
 40
1.0
176
     1
 90
        1
176
     1
 90
        6
176
     1
 90
        2
176
     1
 62
     7
176
     1
 90
        5
176
     1
 90
        0
176
     1
 90
        0
176
     1
290
     0
176
     1
 90
        1
176
     1
 40
0.0
176
     1
 90
        0
176
     1
290
     1
176
     1
290
     1
176
     1
290
     0
176
     1
290
     0
176
     1
290
     0
176
     1
290
     0
176
     1
290
     0
176
     1
290
     0
176
     1
290
     0
176
     1
 90
       50
176
     1
 40
0.0
176
     1
 40
1.0
176
     1
 90
        0
176
     1
 62
    18
420
        0
176
     1
 90
       50
176
     1
 90
        3
176
     1
 62
     5
420
      255
176
     1
290
     0
176
     1
 90
       50
176
     1
 90
       50
176
     1
 90
       50
176
     1
290
     0
176
     1
 90
       50
176
     1
 62
   256
176
     0
 40
1.0
176
     0
 90
        2
176
     1
  1
strokes_ogs.tif
176
     1
290
     0
176
     1
 40
1.0
176
     1
 40
1.0
176
     1
1001
ACAD
1000
AcDbSavedByObjectVersion
1070
     0
  0
VISUALSTYLE
  5
18D
102
{ACAD_REACTORS
330
188
102
}
330
188
100
AcDbVisualStyle
  2
Basic
 70
     7
177
     3
291
     1
 70
    58
 90
        1
176
     1
 90
        0
176
     1
 90
        1
176
     1
 90
        0
176
     1
 40
0.6
176
     1
 40
30.0
176
     1
 62
     7
420
 16777215
176
     1
 90
        0
176
     1
 90
        4
176
     1
 62
     7
176
     1
 62
   257
176
     1
 90
        1
176
     1
 90
        1
176
     1
 40
1.0
176
     1
 90
        8
176
     1
 62
     7
176
     1
 40
1.0
176
     1
 90
        1
176
     1
 90
        6
176
     1
 90
        2
176
     1
 62
     7
176
     1
 90
        5
176
     1
 90
        0
176
     1
 90
        0
176
     1
290
     0
176
     1
 90
        1
176
     1
 40
0.0
176
     1
 90
        0
176
     1
290
     0
176
     1
290
     1
176
     1
290
     1
176
     1
290
     0
176
     1
290
     0
176
     1
290
     0
176
     1
290
     0
176
     1
290
     0
176
     1
290
     0
176
     1
 90
       50
176
     1
 40
0.0
176
     1
 40
1.0
176
     1
 90
        0
176
     1
 62
    18
420
        0
176
     1
 90
       50
176
     1
 90
        3
176
     1
 62
     5
420
      255
176
     1
290
     0
176
     1
 90
       50
176
     1
 90
       50
176
     1
 90
       50
176
     1
290
     0
176
     1
 90
       50
176
     1
 62
   256
176
     0
 40
1.0
176
     0
 90
        2
176
     1
  1
strokes_ogs.tif
176
     1
290
     0
176
     1
 40
1.0
176
     1
 40
1.0
176
     1
1001
ACAD
1000
AcDbSavedByObjectVersion
1070
     0
  0
VISUALSTYLE
  5
194
102
{ACAD_REACTORS
330
188
102
}
330
188
100
AcDbVisualStyle
  2
Brighten
 70
    12
177
     3
291
     1
 70
    58
 90
        2
176
     1
 90
        2
176
     1
 90
        0
176
     1
 90
        0
176
     1
 40
0.6
176
     1
 40
30.0
176
     1
 62
     7
420
 16777215
176
     1
 90
        1
176
     1
 90
        4
176
     1
 62
     7
176
     1
 62
   257
176
     1
 90
        1
176
     1
 90
        1
176
     1
 40
1.0
176
     1
 90
        8
176
     1
 62
     7
176
     1
 40
1.0
176
     1
 90
        1
176
     1
 90
        6
176
     1
 90
        2
176
     1
 62
     7
176
     1
 90
        5
176
     1
 90
        0
176
     1
 90
        0
176
     1
290
     0
176
     1
 90
        1
176
     1
 40
50.0
176
     1
 90
        0
176
     1
290
     0
176
     1
290
     1
176
     1
290
     1
176
     1
290
     0
176
     1
290
     0
176
     1
290
     0
176
     1
290
     0
176
     1
290
     0
176
     1
290
     0
176
     1
 90
       50
176
     1
 40
0.0
176
     1
 40
1.0
176
     1
 90
        0
176
     1
 62
    18
420
        0
176
     1
 90
       50
176
     1
 90
        3
176
     1
 62
     5
420
      255
176
     1
290
     0
176
     1
 90
       50
176
     1
 90
       50
176
     1
 90
       50
176
     1
290
     0
176
     1
 90
       50
176
     1
 62
   256
176
     0
 40
1.0
176
     0
 90
        2
176
     1
  1
strokes_ogs.tif
176
     1
290
     0
176
     1
 40
1.0
176
     1
 40
1.0
176
     1
1001
ACAD
1000
AcDbSavedByObjectVersion
1070
     0
  0
VISUALSTYLE
  5
198
102
{ACAD_REACTORS
330
188
102
}
330
188
100
AcDbVisualStyle
  2
ColorChange
 70
    16
177
     3
291
     1
 70
    58
 90
        2
176
     1
 90
        2
176
     1
 90
        3
176
     1
 90
        0
176
     1
 40
0.6
176
     1
 40
30.0
176
     1
 62
     8
420
  8421504
176
     1
 90
        1
176
     1
 90
        4
176
     1
 62
     7
176
     1
 62
   257
176
     1
 90
        1
176
     1
 90
        1
176
     1
 40
1.0
176
     1
 90
        8
176
     1
 62
     8
420
  8421504
176
     1
 40
1.0
176
     1
 90
        1
176
     1
 90
        6
176
     1
 90
        2
176
     1
 62
     7
176
     1
 90
        5
176
     1
 90
        0
176
     1
 90
        0
176
     1
290
     0
176
     1
 90
        1
176
     1
 40
0.0
176
     1
 90
        0
176
     1
290
     0
176
     1
290
     1
176
     1
290
     1
176
     1
290
     0
176
     1
290
     0
176
     1
290
     0
176
     1
290
     0
176
     1
290
     0
176
     1
290
     0
176
     1
 90
       50
176
     1
 40
0.0
176
     1
 40
1.0
176
     1
 90
        0
176
     1
 62
    18
420
        0
176
     1
 90
       50
176
     1
 90
        3
176
     1
 62
     5
420
      255
176
     1
290
     0
176
     1
 90
       50
176
     1
 90
       50
176
     1
 90
       50
176
     1
290
     0
176
     1
 90
       50
176
     1
 62
   256
176
     0
 40
1.0
176
     0
 90
        2
176
     1
  1
strokes_ogs.tif
176
     1
290
     0
176
     1
 40
1.0
176
     1
 40
1.0
176
     1
1001
ACAD
1000
AcDbSavedByObjectVersion
1070
     0
  0
VISUALSTYLE
  5
191
102
{ACAD_REACTORS
330
188
102
}
330
188
100
AcDbVisualStyle
  2
Conceptual
 70
     9
177
     3
291
     0
 70
    58
 90
        3
176
     1
 90
        2
176
     1
 90
        0
176
     1
 90
        0
176
     1
 40
0.6
176
     1
 40
30.0
176
     1
 62
     7
420
 16777215
176
     1
 90
        2
176
     1
 90
        2
176
     1
 62
     7
176
     1
 62
   257
176
     1
 90
        1
176
     1
 90
        1
176
     1
 40
179.0
176
     1
 90
        8
176
     1
 62
     7
176
     1
 40
1.0
176
     1
 90
        1
176
     1
 90
        6
176
     1
 90
        2
176
     1
 62
     7
176
     1
 90
        3
176
     1
 90
        0
176
     1
 90
        0
176
     1
290
     0
176
     1
 90
        1
176
     1
 40
0.0
176
     1
 90
        0
176
     1
290
     0
176
     1
290
     1
176
     1
290
     1
176
     1
290
     0
176
     1
290
     0
176
     1
290
     0
176
     1
290
     0
176
     1
290
     0
176
     1
290
     0
176
     1
 90
       50
176
     1
 40
0.0
176
     1
 40
1.0
176
     1
 90
        0
176
     1
 62
    18
420
        0
176
     1
 90
       50
176
     1
 90
        3
176
     1
 62
     5
420
      255
176
     1
290
     0
176
     1
 90
       50
176
     1
 90
       50
176
     1
 90
       50
176
     1
290
     0
176
     1
 90
       50
176
     1
 62
   256
176
     0
 40
1.0
176
     0
 90
        2
176
     1
  1
strokes_ogs.tif
176
     1
290
     0
176
     1
 40
1.0
176
     1
 40
1.0
176
     1
1001
ACAD
1000
AcDbSavedByObjectVersion
1070
     0
  0
VISUALSTYLE
  5
193
102
{ACAD_REACTORS
330
188
102
}
330
188
100
AcDbVisualStyle
  2
Dim
 70
    11
177
     3
291
     1
 70
    58
 90
        2
176
     1
 90
        2
176
     1
 90
        0
176
     1
 90
        0
176
     1
 40
0.6
176
     1
 40
30.0
176
     1
 62
     7
420
 16777215
176
     1
 90
        1
176
     1
 90
        4
176
     1
 62
     7
176
     1
 62
   257
176
     1
 90
        1
176
     1
 90
        1
176
     1
 40
1.0
176
     1
 90
        8
176
     1
 62
     7
176
     1
 40
1.0
176
     1
 90
        1
176
     1
 90
        6
176
     1
 90
        2
176
     1
 62
     7
176
     1
 90
        5
176
     1
 90
        0
176
     1
 90
        0
176
     1
290
     0
176
     1
 90
        1
176
     1
 40
-50.0
176
     1
 90
        0
176
     1
290
     0
176
     1
290
     1
176
     1
290
     1
176
     1
290
     0
176
     1
290
     0
176
     1
290
     0
176
     1
290
     0
176
     1
290
     0
176
     1
290
     0
176
     1
 90
       50
176
     1
 40
0.0
176
     1
 40
1.0
176
     1
 90
        0
176
     1
 62
    18
420
        0
176
     1
 90
       50
176
     1
 90
        3
176
     1
 62
     5
420
      255
176
     1
290
     0
176
     1
 90
       50
176
     1
 90
       50
176
     1
 90
       50
176
     1
290
     0
176
     1
 90
       50
176
     1
 62
   256
176
     0
 40
1.0
176
     0
 90
        2
176
     1
  1
strokes_ogs.tif
176
     1
290
     0
176
     1
 40
1.0
176
     1
 40
1.0
176
     1
1001
ACAD
1000
AcDbSavedByObjectVersion
1070
     0
  0
VISUALSTYLE
  5
1A0
102
{ACAD_REACTORS
330
188
102
}
330
188
100
AcDbVisualStyle
  2
EdgeColorOff
 70
    22
177
     3
291
     1
 70
    58
 90
        2
176
     0
 90
        2
176
     0
 90
        0
176
     0
 90
        0
176
     0
 40
0.6
176
     0
 40
30.0
176
     0
 62
     7
420
 16777215
176
     0
 90
        1
176
     0
 90
        4
176
     0
 62
     7
176
     0
 62
   257
176
     0
 90
        1
176
     0
 90
        1
176
     0
 40
1.0
176
     0
 90
        8
176
     2
 62
     7
176
     0
 40
1.0
176
     0
 90
        1
176
     0
 90
        6
176
     0
 90
        2
176
     0
 62
     7
176
     0
 90
        5
176
     0
 90
        0
176
     0
 90
        0
176
     0
290
     0
176
     0
 90
        1
176
     0
 40
0.0
176
     0
 90
        0
176
     0
290
     0
176
     0
290
     1
176
     0
290
     1
176
     0
290
     0
176
     0
290
     0
176
     0
290
     0
176
     0
290
     0
176
     0
290
     0
176
     0
290
     0
176
     0
 90
       50
176
     0
 40
0.0
176
     0
 40
1.0
176
     0
 90
        0
176
     0
 62
    18
420
        0
176
     0
 90
       50
176
     0
 90
        3
176
     0
 62
     5
420
      255
176
     0
290
     0
176
     0
 90
       50
176
     0
 90
       50
176
     0
 90
       50
176
     0
290
     0
176
     0
 90
       50
176
     0
 62
   256
176
     0
 40
1.0
176
     0
 90
        2
176
     0
  1
strokes_ogs.tif
176
     0
290
     0
176
     0
 40
1.0
176
     0
 40
1.0
176
     0
1001
ACAD
1000
AcDbSavedByObjectVersion
1070
     0
  0
VISUALSTYLE
  5
197
102
{ACAD_REACTORS
330
188
102
}
330
188
100
AcDbVisualStyle
  2
Facepattern
 70
    15
177
     3
291
     1
 70
    58
 90
        2
176
     1
 90
        2
176
     1
 90
        0
176
     1
 90
        0
176
     1
 40
0.6
176
     1
 40
30.0
176
     1
 62
     7
420
 16777215
176
     1
 90
        1
176
     1
 90
        4
176
     1
 62
     7
176
     1
 62
   257
176
     1
 90
        1
176
     1
 90
        1
176
     1
 40
1.0
176
     1
 90
        8
176
     1
 62
     7
176
     1
 40
1.0
176
     1
 90
        1
176
     1
 90
        6
176
     1
 90
        2
176
     1
 62
     7
176
     1
 90
        5
176
     1
 90
        0
176
     1
 90
        0
176
     1
290
     0
176
     1
 90
        1
176
     1
 40
0.0
176
     1
 90
        0
176
     1
290
     0
176
     1
290
     1
176
     1
290
     1
176
     1
290
     0
176
     1
290
     0
176
     1
290
     0
176
     1
290
     0
176
     1
290
     0
176
     1
290
     0
176
     1
 90
       50
176
     1
 40
0.0
176
     1
 40
1.0
176
     1
 90
        0
176
     1
 62
    18
420
        0
176
     1
 90
       50
176
     1
 90
        3
176
     1
 62
     5
420
      255
176
     1
290
     0
176
     1
 90
       50
176
     1
 90
       50
176
     1
 90
       50
176
     1
290
     0
176
     1
 90
       50
176
     1
 62
   256
176
     0
 40
1.0
176
     0
 90
        2
176
     1
  1
strokes_ogs.tif
176
     1
290
     0
176
     1
 40
1.0
176
     1
 40
1.0
176
     1
1001
ACAD
1000
AcDbSavedByObjectVersion
1070
     0
  0
VISUALSTYLE
  5
189
102
{ACAD_REACTORS
330
188
102
}
330
188
100
AcDbVisualStyle
  2
Flat
 70
     0
177
     3
291
     1
 70
    58
 90
        2
176
     1
 90
        1
176
     1
 90
        1
176
     1
 90
        2
176
     1
 40
0.6
176
     1
 40
30.0
176
     1
 62
     7
420
 16777215
176
     1
 90
        0
176
     1
 90
        0
176
     1
 62
     7
176
     1
 62
   257
176
     1
 90
        1
176
     1
 90
        1
176
     1
 40
1.0
176
     1
 90
        8
176
     1
 62
     7
176
     1
 40
1.0
176
     1
 90
        1
176
     1
 90
        6
176
     1
 90
        2
176
     1
 62
     7
176
     1
 90
        5
176
     1
 90
        0
176
     1
 90
        0
176
     1
290
     0
176
     1
 90
       13
176
     1
 40
0.0
176
     1
 90
        0
176
     1
290
     0
176
     1
290
     1
176
     1
290
     1
176
     1
290
     0
176
     1
290
     0
176
     1
290
     0
176
     1
290
     0
176
     1
290
     0
176
     1
290
     0
176
     1
 90
       50
176
     1
 40
0.0
176
     1
 40
1.0
176
     1
 90
        0
176
     1
 62
    18
420
        0
176
     1
 90
       50
176
     1
 90
        3
176
     1
 62
     5
420
      255
176
     1
290
     0
176
     1
 90
       50
176
     1
 90
       50
176
     1
 90
       50
176
     1
290
     0
176
     1
 90
       50
176
     1
 62
   256
176
     0
 40
1.0
176
     0
 90
        2
176
     1
  1
strokes_ogs.tif
176
     1
290
     0
176
     1
 40
1.0
176
     1
 40
1.0
176
     1
1001
ACAD
1000
AcDbSavedByObjectVersion
1070
     0
  0
VISUALSTYLE
  5
18A
102
{ACAD_REACTORS
330
188
102
}
330
188
100
AcDbVisualStyle
  2
FlatWithEdges
 70
     1
177
     3
291
     1
 70
    58
 90
        2
176
     1
 90
        1
176
     1
 90
        1
176
     1
 90
        2
176
     1
 40
0.6
176
     1
 40
30.0
176
     1
 62
     7
420
 16777215
176
     1
 90
        1
176
     1
 90
        0
176
     1
 62
     7
176
     1
 62
   257
176
     1
 90
        1
176
     1
 90
        1
176
     1
 40
1.0
176
     1
 90
        0
176
     1
 62
   257
176
     1
 40
1.0
176
     1
 90
        1
176
     1
 90
        6
176
     1
 90
        2
176
     1
 62
     7
176
     1
 90
        5
176
     1
 90
        0
176
     1
 90
        0
176
     1
290
     0
176
     1
 90
       13
176
     1
 40
0.0
176
     1
 90
        0
176
     1
290
     0
176
     1
290
     1
176
     1
290
     1
176
     1
290
     0
176
     1
290
     0
176
     1
290
     0
176
     1
290
     0
176
     1
290
     0
176
     1
290
     0
176
     1
 90
       50
176
     1
 40
0.0
176
     1
 40
1.0
176
     1
 90
        0
176
     1
 62
    18
420
        0
176
     1
 90
       50
176
     1
 90
        3
176
     1
 62
     5
420
      255
176
     1
290
     0
176
     1
 90
       50
176
     1
 90
       50
176
     1
 90
       50
176
     1
290
     0
176
     1
 90
       50
176
     1
 62
   256
176
     0
 40
1.0
176
     0
 90
        2
176
     1
  1
strokes_ogs.tif
176
     1
290
     0
176
     1
 40
1.0
176
     1
 40
1.0
176
     1
1001
ACAD
1000
AcDbSavedByObjectVersion
1070
     0
  0
VISUALSTYLE
  5
18B
102
{ACAD_REACTORS
330
188
102
}
330
188
100
AcDbVisualStyle
  2
Gouraud
 70
     2
177
     3
291
     1
 70
    58
 90
        2
176
     1
 90
        2
176
     1
 90
        1
176
     1
 90
        2
176
     1
 40
0.6
176
     1
 40
30.0
176
     1
 62
     7
420
 16777215
176
     1
 90
        0
176
     1
 90
        0
176
     1
 62
     7
176
     1
 62
   257
176
     1
 90
        1
176
     1
 90
        1
176
     1
 40
1.0
176
     1
 90
        0
176
     1
 62
     7
176
     1
 40
1.0
176
     1
 90
        1
176
     1
 90
        6
176
     1
 90
        2
176
     1
 62
     7
176
     1
 90
        5
176
     1
 90
        0
176
     1
 90
        0
176
     1
290
     0
176
     1
 90
       13
176
     1
 40
0.0
176
     1
 90
        0
176
     1
290
     0
176
     1
290
     1
176
     1
290
     1
176
     1
290
     0
176
     1
290
     0
176
     1
290
     0
176
     1
290
     0
176
     1
290
     0
176
     1
290
     0
176
     1
 90
       50
176
     1
 40
0.0
176
     1
 40
1.0
176
     1
 90
        0
176
     1
 62
    18
420
        0
176
     1
 90
       50
176
     1
 90
        3
176
     1
 62
     5
420
      255
176
     1
290
     0
176
     1
 90
       50
176
     1
 90
       50
176
     1
 90
       50
176
     1
290
     0
176
     1
 90
       50
176
     1
 62
   256
176
     0
 40
1.0
176
     0
 90
        2
176
     1
  1
strokes_ogs.tif
176
     1
290
     0
176
     1
 40
1.0
176
     1
 40
1.0
176
     1
1001
ACAD
1000
AcDbSavedByObjectVersion
1070
     0
  0
VISUALSTYLE
  5
18C
102
{ACAD_REACTORS
330
188
102
}
330
188
100
AcDbVisualStyle
  2
GouraudWithEdges
 70
     3
177
     3
291
     1
 70
    58
 90
        2
176
     1
 90
        2
176
     1
 90
        1
176
     1
 90
        2
176
     1
 40
0.6
176
     1
 40
30.0
176
     1
 62
     7
420
 16777215
176
     1
 90
        1
176
     1
 90
        0
176
     1
 62
     7
176
     1
 62
   257
176
     1
 90
        1
176
     1
 90
        1
176
     1
 40
1.0
176
     1
 90
        0
176
     1
 62
   257
176
     1
 40
1.0
176
     1
 90
        1
176
     1
 90
        6
176
     1
 90
        2
176
     1
 62
     7
176
     1
 90
        5
176
     1
 90
        0
176
     1
 90
        0
176
     1
290
     0
176
     1
 90
       13
176
     1
 40
0.0
176
     1
 90
        0
176
     1
290
     0
176
     1
290
     1
176
     1
290
     1
176
     1
290
     0
176
     1
290
     0
176
     1
290
     0
176
     1
290
     0
176
     1
290
     0
176
     1
290
     0
176
     1
 90
       50
176
     1
 40
0.0
176
     1
 40
1.0
176
     1
 90
        0
176
     1
 62
    18
420
        0
176
     1
 90
       50
176
     1
 90
        3
176
     1
 62
     5
420
      255
176
     1
290
     0
176
     1
 90
       50
176
     1
 90
       50
176
     1
 90
       50
176
     1
290
     0
176
     1
 90
       50
176
     1
 62
   256
176
     0
 40
1.0
176
     0
 90
        2
176
     1
  1
strokes_ogs.tif
176
     1
290
     0
176
     1
 40
1.0
176
     1
 40
1.0
176
     1
1001
ACAD
1000
AcDbSavedByObjectVersion
1070
     0
  0
VISUALSTYLE
  5
190
102
{ACAD_REACTORS
330
188
102
}
330
188
100
AcDbVisualStyle
  2
Hidden
 70
     6
177
     3
291
     0
 70
    58
 90
        1
176
     1
 90
        2
176
     1
 90
        2
176
     1
 90
        0
176
     1
 40
0.6
176
     1
 40
30.0
176
     1
 62
     7
420
 16777215
176
     1
 90
        2
176
     1
 90
        2
176
     1
 62
     7
176
     1
 62
   257
176
     1
 90
        2
176
     1
 90
        1
176
     1
 40
40.0
176
     1
 90
        0
176
     1
 62
   257
176
     1
 40
1.0
176
     1
 90
        1
176
     1
 90
        6
176
     1
 90
        2
176
     1
 62
     7
176
     1
 90
        3
176
     1
 90
        0
176
     1
 90
        0
176
     1
290
     0
176
     1
 90
        1
176
     1
 40
0.0
176
     1
 90
        0
176
     1
290
     0
176
     1
290
     1
176
     1
290
     1
176
     1
290
     0
176
     1
290
     0
176
     1
290
     0
176
     1
290
     0
176
     1
290
     0
176
     1
290
     0
176
     1
 90
       50
176
     1
 40
0.0
176
     1
 40
1.0
176
     1
 90
        0
176
     1
 62
    18
420
        0
176
     1
 90
       50
176
     1
 90
        3
176
     1
 62
     5
420
      255
176
     1
290
     0
176
     1
 90
       50
176
     1
 90
       50
176
     1
 90
       50
176
     1
290
     0
176
     1
 90
       50
176
     1
 62
   256
176
     0
 40
1.0
176
     0
 90
        2
176
     1
  1
strokes_ogs.tif
176
     1
290
     0
176
     1
 40
1.0
176
     1
 40
1.0
176
     1
1001
ACAD
1000
AcDbSavedByObjectVersion
1070
     0
  0
VISUALSTYLE
  5
19E
102
{ACAD_REACTORS
330
188
102
}
330
188
100
AcDbVisualStyle
  2
JitterOff
 70
    20
177
     3
291
     1
 70
    58
 90
        2
176
     0
 90
        2
176
     0
 90
        0
176
     0
 90
        0
176
     0
 40
0.6
176
     0
 40
30.0
176
     0
 62
     7
420
 16777215
176
     0
 90
        1
176
     0
 90
        4
176
     0
 62
     7
176
     0
 62
   257
176
     0
 90
        1
176
     0
 90
        1
176
     0
 40
1.0
176
     0
 90
       10
176
     2
 62
     7
176
     0
 40
1.0
176
     0
 90
        1
176
     0
 90
        6
176
     0
 90
        2
176
     0
 62
     7
176
     0
 90
        5
176
     0
 90
        0
176
     0
 90
        0
176
     0
290
     0
176
     0
 90
        1
176
     0
 40
0.0
176
     0
 90
        0
176
     0
290
     0
176
     0
290
     1
176
     0
290
     1
176
     0
290
     0
176
     0
290
     0
176
     0
290
     0
176
     0
290
     0
176
     0
290
     0
176
     0
290
     0
176
     0
 90
       50
176
     0
 40
0.0
176
     0
 40
1.0
176
     0
 90
        0
176
     0
 62
    18
420
        0
176
     0
 90
       50
176
     0
 90
        3
176
     0
 62
     5
420
      255
176
     0
290
     0
176
     0
 90
       50
176
     0
 90
       50
176
     0
 90
       50
176
     0
290
     0
176
     0
 90
       50
176
     0
 62
   256
176
     0
 40
1.0
176
     0
 90
        2
176
     0
  1
strokes_ogs.tif
176
     0
290
     0
176
     0
 40
1.0
176
     0
 40
1.0
176
     0
1001
ACAD
1000
AcDbSavedByObjectVersion
1070
     0
  0
VISUALSTYLE
  5
196
102
{ACAD_REACTORS
330
188
102
}
330
188
100
AcDbVisualStyle
  2
Linepattern
 70
    14
177
     3
291
     1
 70
    58
 90
        2
176
     1
 90
        2
176
     1
 90
        0
176
     1
 90
        0
176
     1
 40
0.6
176
     1
 40
30.0
176
     1
 62
     7
420
 16777215
176
     1
 90
        1
176
     1
 90
        4
176
     1
 62
     7
176
     1
 62
   257
176
     1
 90
        7
176
     1
 90
        7
176
     1
 40
1.0
176
     1
 90
        8
176
     1
 62
     7
176
     1
 40
1.0
176
     1
 90
        1
176
     1
 90
        6
176
     1
 90
        2
176
     1
 62
     7
176
     1
 90
        5
176
     1
 90
        0
176
     1
 90
        0
176
     1
290
     0
176
     1
 90
        1
176
     1
 40
0.0
176
     1
 90
        0
176
     1
290
     0
176
     1
290
     1
176
     1
290
     1
176
     1
290
     0
176
     1
290
     0
176
     1
290
     0
176
     1
290
     0
176
     1
290
     0
176
     1
290
     0
176
     1
 90
       50
176
     1
 40
0.0
176
     1
 40
1.0
176
     1
 90
        0
176
     1
 62
    18
420
        0
176
     1
 90
       50
176
     1
 90
        3
176
     1
 62
     5
420
      255
176
     1
290
     0
176
     1
 90
       50
176
     1
 90
       50
176
     1
 90
       50
176
     1
290
     0
176
     1
 90
       50
176
     1
 62
   256
176
     0
 40
1.0
176
     0
 90
        2
176
     1
  1
strokes_ogs.tif
176
     1
290
     0
176
     1
 40
1.0
176
     1
 40
1.0
176
     1
1001
ACAD
1000
AcDbSavedByObjectVersion
1070
     0
  0
VISUALSTYLE
  5
19F
102
{ACAD_REACTORS
330
188
102
}
330
188
100
AcDbVisualStyle
  2
OverhangOff
 70
    21
177
     3
291
     1
 70
    58
 90
        2
176
     0
 90
        2
176
     0
 90
        0
176
     0
 90
        0
176
     0
 40
0.6
176
     0
 40
30.0
176
     0
 62
     7
420
 16777215
176
     0
 90
        1
176
     0
 90
        4
176
     0
 62
     7
176
     0
 62
   257
176
     0
 90
        1
176
     0
 90
        1
176
     0
 40
1.0
176
     0
 90
        9
176
     2
 62
     7
176
     0
 40
1.0
176
     0
 90
        1
176
     0
 90
        6
176
     0
 90
        2
176
     0
 62
     7
176
     0
 90
        5
176
     0
 90
        0
176
     0
 90
        0
176
     0
290
     0
176
     0
 90
        1
176
     0
 40
0.0
176
     0
 90
        0
176
     0
290
     0
176
     0
290
     1
176
     0
290
     1
176
     0
290
     0
176
     0
290
     0
176
     0
290
     0
176
     0
290
     0
176
     0
290
     0
176
     0
290
     0
176
     0
 90
       50
176
     0
 40
0.0
176
     0
 40
1.0
176
     0
 90
        0
176
     0
 62
    18
420
        0
176
     0
 90
       50
176
     0
 90
        3
176
     0
 62
     5
420
      255
176
     0
290
     0
176
     0
 90
       50
176
     0
 90
       50
176
     0
 90
       50
176
     0
290
     0
176
     0
 90
       50
176
     0
 62
   256
176
     0
 40
1.0
176
     0
 90
        2
176
     0
  1
strokes_ogs.tif
176
     0
290
     0
176
     0
 40
1.0
176
     0
 40
1.0
176
     0
1001
ACAD
1000
AcDbSavedByObjectVersion
1070
     0
  0
VISUALSTYLE
  5
192
102
{ACAD_REACTORS
330
188
102
}
330
188
100
AcDbVisualStyle
  2
Realistic
 70
     8
177
     3
291
     0
 70
    58
 90
        2
176
     1
 90
        3
176
     1
 90
        0
176
     1
 90
        2
176
     1
 40
0.6
176
     1
 40
30.0
176
     1
 62
     7
420
 16777215
176
     1
 90
        0
176
     1
 90
        0
176
     1
 62
     7
176
     1
 62
   257
176
     1
 90
        1
176
     1
 90
        1
176
     1
 40
1.0
176
     1
 90
        8
176
     1
 62
   257
176
     1
 40
1.0
176
     1
 90
        1
176
     1
 90
        6
176
     1
 90
        2
176
     1
 62
     7
176
     1
 90
        3
176
     1
 90
        0
176
     1
 90
        0
176
     1
290
     0
176
     1
 90
       13
176
     1
 40
0.0
176
     1
 90
        0
176
     1
290
     0
176
     1
290
     1
176
     1
290
     1
176
     1
290
     0
176
     1
290
     0
176
     1
290
     0
176
     1
290
     0
176
     1
290
     0
176
     1
290
     0
176
     1
 90
       50
176
     1
 40
0.0
176
     1
 40
1.0
176
     1
 90
        0
176
     1
 62
    18
420
        0
176
     1
 90
       50
176
     1
 90
        3
176
     1
 62
     5
420
      255
176
     1
290
     0
176
     1
 90
       50
176
     1
 90
       50
176
     1
 90
       50
176
     1
290
     0
176
     1
 90
       50
176
     1
 62
   256
176
     0
 40
1.0
176
     0
 90
        2
176
     1
  1
strokes_ogs.tif
176
     1
290
     0
176
     1
 40
1.0
176
     1
 40
1.0
176
     1
1001
ACAD
1000
AcDbSavedByObjectVersion
1070
     0
  0
VISUALSTYLE
  5
19D
102
{ACAD_REACTORS
330
188
102
}
330
188
100
AcDbVisualStyle
  2
Shaded
 70
    27
177
     3
291
     0
 70
    58
 90
        2
176
     1
 90
        2
176
     1
 90
        1
176
     1
 90
        2
176
     1
 40
0.6
176
     1
 40
30.0
176
     1
 62
     7
420
 16777215
176
     1
 90
        0
176
     1
 90
        4
176
     1
 62
     7
176
     1
 62
   257
176
     1
 90
        1
176
     1
 90
        1
176
     1
 40
1.0
176
     1
 90
        8
176
     1
 62
   257
176
     1
 40
1.0
176
     1
 90
        1
176
     1
 90
        6
176
     1
 90
        2
176
     1
 62
     8
420
  7895160
176
     1
 90
        3
176
     1
 90
        0
176
     1
 90
        0
176
     1
290
     0
176
     1
 90
        5
176
     1
 40
0.0
176
     1
 90
        0
176
     1
290
     0
176
     1
290
     1
176
     1
290
     1
176
     1
290
     0
176
     1
290
     0
176
     1
290
     0
176
     1
290
     0
176
     1
290
     0
176
     1
290
     0
176
     1
 90
       50
176
     1
 40
0.0
176
     1
 40
1.0
176
     1
 90
        0
176
     1
 62
    18
420
        0
176
     1
 90
       50
176
     1
 90
        3
176
     1
 62
     5
420
      255
176
     1
290
     0
176
     1
 90
       50
176
     1
 90
       50
176
     1
 90
       50
176
     1
290
     0
176
     1
 90
       50
176
     1
 62
   256
176
     0
 40
1.0
176
     0
 90
        2
176
     1
  1
strokes_ogs.tif
176
     1
290
     0
176
     1
 40
1.0
176
     1
 40
1.0
176
     1
1001
ACAD
1000
AcDbSavedByObjectVersion
1070
     0
  0
VISUALSTYLE
  5
19C
102
{ACAD_REACTORS
330
188
102
}
330
188
100
AcDbVisualStyle
  2
Shaded with edges
 70
    26
177
     3
291
     0
 70
    58
 90
        2
176
     1
 90
        2
176
     1
 90
        1
176
     1
 90
        2
176
     1
 40
0.6
176
     1
 40
30.0
176
     1
 62
     7
420
 16777215
176
     1
 90
        1
176
     1
 90
        2
176
     1
 62
     7
176
     1
 62
   257
176
     1
 90
        2
176
     1
 90
        1
176
     1
 40
1.0
176
     1
 90
        8
176
     1
 62
   257
176
     1
 40
1.0
176
     1
 90
        1
176
     1
 90
        6
176
     1
 90
        2
176
     1
 62
     7
176
     1
 90
        3
176
     1
 90
        0
176
     1
 90
        0
176
     1
290
     0
176
     1
 90
        5
176
     1
 40
0.0
176
     1
 90
        0
176
     1
290
     0
176
     1
290
     1
176
     1
290
     1
176
     1
290
     0
176
     1
290
     0
176
     1
290
     0
176
     1
290
     0
176
     1
290
     0
176
     1
290
     0
176
     1
 90
       50
176
     1
 40
0.0
176
     1
 40
1.0
176
     1
 90
        0
176
     1
 62
    18
420
        0
176
     1
 90
       50
176
     1
 90
        3
176
     1
 62
     5
420
      255
176
     1
290
     0
176
     1
 90
       50
176
     1
 90
       50
176
     1
 90
       50
176
     1
290
     0
176
     1
 90
       50
176
     1
 62
   256
176
     0
 40
1.0
176
     0
 90
        2
176
     1
  1
strokes_ogs.tif
176
     1
290
     0
176
     1
 40
1.0
176
     1
 40
1.0
176
     1
1001
ACAD
1000
AcDbSavedByObjectVersion
1070
     0
  0
VISUALSTYLE
  5
199
102
{ACAD_REACTORS
330
188
102
}
330
188
100
AcDbVisualStyle
  2
Shades of Gray
 70
    23
177
     3
291
     0
 70
    58
 90
        2
176
     1
 90
        2
176
     1
 90
        3
176
     1
 90
        0
176
     1
 40
0.6
176
     1
 40
30.0
176
     1
 62
     7
420
 16777215
176
     1
 90
        2
176
     1
 90
        2
176
     1
 62
     7
176
     1
 62
     7
176
     1
 90
        1
176
     1
 90
        1
176
     1
 40
40.0
176
     1
 90
        8
176
     1
 62
     7
176
     1
 40
1.0
176
     1
 90
        1
176
     1
 90
        6
176
     1
 90
        2
176
     1
 62
     7
176
     1
 90
        3
176
     1
 90
        0
176
     1
 90
        0
176
     1
290
     0
176
     1
 90
        1
176
     1
 40
0.0
176
     1
 90
        0
176
     1
290
     0
176
     1
290
     1
176
     1
290
     1
176
     1
290
     0
176
     1
290
     0
176
     1
290
     0
176
     1
290
     0
176
     1
290
     0
176
     1
290
     0
176
     1
 90
       50
176
     1
 40
0.0
176
     1
 40
1.0
176
     1
 90
        0
176
     1
 62
    18
420
        0
176
     1
 90
       50
176
     1
 90
        3
176
     1
 62
     5
420
      255
176
     1
290
     0
176
     1
 90
       50
176
     1
 90
       50
176
     1
 90
       50
176
     1
290
     0
176
     1
 90
       50
176
     1
 62
   256
176
     0
 40
1.0
176
     0
 90
        2
176
     1
  1
strokes_ogs.tif
176
     1
290
     0
176
     1
 40
1.0
176
     1
 40
1.0
176
     1
1001
ACAD
1000
AcDbSavedByObjectVersion
1070
     0
  0
VISUALSTYLE
  5
19A
102
{ACAD_REACTORS
330
188
102
}
330
188
100
AcDbVisualStyle
  2
Sketchy
 70
    24
177
     3
291
     0
 70
    58
 90
        1
176
     1
 90
        2
176
     1
 90
        2
176
     1
 90
        0
176
     1
 40
0.6
176
     1
 40
30.0
176
     1
 62
     7
420
 16777215
176
     1
 90
        2
176
     1
 90
        2
176
     1
 62
     7
176
     1
 62
     7
176
     1
 90
        1
176
     1
 90
        1
176
     1
 40
40.0
176
     1
 90
       11
176
     1
 62
     7
176
     1
 40
1.0
176
     1
 90
        1
176
     1
 90
        6
176
     1
 90
        2
176
     1
 62
     7
176
     1
 90
        6
176
     1
 90
        0
176
     1
 90
        0
176
     1
290
     0
176
     1
 90
        1
176
     1
 40
0.0
176
     1
 90
        0
176
     1
290
     0
176
     1
290
     1
176
     1
290
     1
176
     1
290
     0
176
     1
290
     0
176
     1
290
     0
176
     1
290
     0
176
     1
290
     0
176
     1
290
     0
176
     1
 90
       50
176
     1
 40
0.0
176
     1
 40
1.0
176
     1
 90
        0
176
     1
 62
    18
420
        0
176
     1
 90
       50
176
     1
 90
        3
176
     1
 62
     5
420
      255
176
     1
290
     0
176
     1
 90
       50
176
     1
 90
       50
176
     1
 90
       50
176
     1
290
     0
176
     1
 90
       50
176
     1
 62
   256
176
     0
 40
1.0
176
     0
 90
        2
176
     1
  1
strokes_ogs.tif
176
     1
290
     0
176
     1
 40
1.0
176
     1
 40
1.0
176
     1
1001
ACAD
1000
AcDbSavedByObjectVersion
1070
     0
  0
VISUALSTYLE
  5
195
102
{ACAD_REACTORS
330
188
102
}
330
188
100
AcDbVisualStyle
  2
Thicken
 70
    13
177
     3
291
     1
 70
    58
 90
        2
176
     1
 90
        2
176
     1
 90
        0
176
     1
 90
        0
176
     1
 40
0.6
176
     1
 40
30.0
176
     1
 62
     7
420
 16777215
176
     1
 90
        1
176
     1
 90
        4
176
     1
 62
     7
176
     1
 62
   257
176
     1
 90
        1
176
     1
 90
        1
176
     1
 40
1.0
176
     1
 90
       12
176
     1
 62
     7
176
     1
 40
1.0
176
     1
 90
        1
176
     1
 90
        6
176
     1
 90
        2
176
     1
 62
     7
176
     1
 90
        5
176
     1
 90
        0
176
     1
 90
        0
176
     1
290
     0
176
     1
 90
        1
176
     1
 40
0.0
176
     1
 90
        0
176
     1
290
     0
176
     1
290
     1
176
     1
290
     1
176
     1
290
     0
176
     1
290
     0
176
     1
290
     0
176
     1
290
     0
176
     1
290
     0
176
     1
290
     0
176
     1
 90
       50
176
     1
 40
0.0
176
     1
 40
1.0
176
     1
 90
        0
176
     1
 62
    18
420
        0
176
     1
 90
       50
176
     1
 90
        3
176
     1
 62
     5
420
      255
176
     1
290
     0
176
     1
 90
       50
176
     1
 90
       50
176
     1
 90
       50
176
     1
290
     0
176
     1
 90
       50
176
     1
 62
   256
176
     0
 40
1.0
176
     0
 90
        2
176
     1
  1
strokes_ogs.tif
176
     1
290
     0
176
     1
 40
1.0
176
     1
 40
1.0
176
     1
1001
ACAD
1000
AcDbSavedByObjectVersion
1070
     0
  0
VISUALSTYLE
  5
18F
102
{ACAD_REACTORS
330
188
102
}
330
188
100
AcDbVisualStyle
  2
Wireframe
 70
     5
177
     3
291
     0
 70
    58
 90
        0
176
     1
 90
        2
176
     1
 90
        0
176
     1
 90
        0
176
     1
 40
0.6
176
     1
 40
30.0
176
     1
 62
     7
420
 16777215
176
     1
 90
        1
176
     1
 90
        4
176
     1
 62
     7
176
     1
 62
   257
176
     1
 90
        1
176
     1
 90
        1
176
     1
 40
1.0
176
     1
 90
        0
176
     1
 62
   257
176
     1
 40
1.0
176
     1
 90
        1
176
     1
 90
        6
176
     1
 90
        2
176
     1
 62
     7
176
     1
 90
        3
176
     1
 90
        0
176
     1
 90
        0
176
     1
290
     0
176
     1
 90
        1
176
     1
 40
0.0
176
     1
 90
        0
176
     1
290
     0
176
     1
290
     1
176
     1
290
     1
176
     1
290
     0
176
     1
290
     0
176
     1
290
     0
176
     1
290
     0
176
     1
290
     0
176
     1
290
     0
176
     1
 90
       50
176
     1
 40
0.0
176
     1
 40
1.0
176
     1
 90
        0
176
     1
 62
    18
420
        0
176
     1
 90
       50
176
     1
 90
        3
176
     1
 62
     5
420
      255
176
     1
290
     0
176
     1
 90
       50
176
     1
 90
       50
176
     1
 90
       50
176
     1
290
     0
176
     1
 90
       50
176
     1
 62
   256
176
     0
 40
1.0
176
     0
 90
        2
176
     1
  1
strokes_ogs.tif
176
     1
290
     0
176
     1
 40
1.0
176
     1
 40
1.0
176
     1
1001
ACAD
1000
AcDbSavedByObjectVersion
1070
     0
  0
VISUALSTYLE
  5
19B
102
{ACAD_REACTORS
330
188
102
}
330
188
100
AcDbVisualStyle
  2
X-Ray
 70
    25
177
     3
291
     0
 70
    58
 90
        2
176
     1
 90
        2
176
     1
 90
        1
176
     1
 90
        1
176
     1
 40
0.5
176
     1
 40
30.0
176
     1
 62
     7
420
 16777215
176
     1
 90
        1
176
     1
 90
        0
176
     1
 62
     7
176
     1
 62
   257
176
     1
 90
        1
176
     1
 90
        1
176
     1
 40
1.0
176
     1
 90
        8
176
     1
 62
     7
176
     1
 40
1.0
176
     1
 90
        1
176
     1
 90
        6
176
     1
 90
        2
176
     1
 62
     7
176
     1
 90
        3
176
     1
 90
        0
176
     1
 90
        0
176
     1
290
     0
176
     1
 90
       13
176
     1
 40
0.0
176
     1
 90
        0
176
     1
290
     0
176
     1
290
     1
176
     1
290
     1
176
     1
290
     0
176
     1
290
     0
176
     1
290
     0
176
     1
290
     0
176
     1
290
     0
176
     1
290
     0
176
     1
 90
       50
176
     1
 40
0.0
176
     1
 40
1.0
176
     1
 90
        0
176
     1
 62
    18
420
        0
176
     1
 90
       50
176
     1
 90
        3
176
     1
 62
     5
420
      255
176
     1
290
     0
176
     1
 90
       50
176
     1
 90
       50
176
     1
 90
       50
176
     1
290
     0
176
     1
 90
       50
176
     1
 62
   256
176
     0
 40
1.0
176
     0
 90
        2
176
     1
  1
strokes_ogs.tif
176
     1
290
     0
176
     1
 40
1.0
176
     1
 40
1.0
176
     1
1001
ACAD
1000
AcDbSavedByObjectVersion
1070
     0
  0
DICTIONARYVAR
  5
1D0
102
{ACAD_REACTORS
330
1CA
102
}
330
1CA
100
DictionaryVariables
280
     0
  1
1:1
  0
DICTIONARYVAR
  5
1CC
102
{ACAD_REACTORS
330
1CA
102
}
330
1CA
100
DictionaryVariables
280
     0
  1
STANDARD
  0
DICTIONARYVAR
  5
1CB
102
{ACAD_REACTORS
330
1CA
102
}
330
1CA
100
DictionaryVariables
280
     0
  1
STANDARD
  0
DICTIONARYVAR
  5
1CD
102
{ACAD_REACTORS
330
1CA
102
}
330
1CA
100
DictionaryVariables
280
     0
  1
Metric50
  0
DICTIONARYVAR
  5
1CE
102
{ACAD_REACTORS
330
1CA
102
}
330
1CA
100
DictionaryVariables
280
     0
  1
Metric50
  0
DICTIONARYVAR
  5
1D2
102
{ACAD_REACTORS
330
1CA
102
}
330
1CA
100
DictionaryVariables
280
     0
  1
1
  0
DICTIONARYVAR
  5
1D3
102
{ACAD_REACTORS
330
1CA
102
}
330
1CA
100
DictionaryVariables
280
     0
  1
15
  0
DICTIONARYVAR
  5
1D1
102
{ACAD_REACTORS
330
1CA
102
}
330
1CA
100
DictionaryVariables
280
     0
  1
0
  0
DICTIONARYVAR
  5
1CF
102
{ACAD_REACTORS
330
1CA
102
}
330
1CA
100
DictionaryVariables
280
     0
  1
0
  0
DICTIONARY
  5
4C9
102
{ACAD_REACTORS
330
4C7
102
}
330
4C7
100
AcDbDictionary
281
     1
  0
DICTIONARY
  5
4C8
102
{ACAD_REACTORS
330
4C7
102
}
330
4C7
100
AcDbDictionary
281
     1
  3
1197864319264
350
4C2
  3
1197864319280
350
4C3
  3
1197864319296
350
4C4
  3
1197864319312
350
4C5
  3
1197864319328
350
4C6
  0
DICTIONARY
  5
4CC
330
1A9
100
AcDbDictionary
280
     1
281
     1
  3
ACAD_XREC_ROUNDTRIP
360
4CD
  0
DICTIONARY
  5
179
330
178
100
AcDbDictionary
280
     1
281
     1
  3
BUMPTILE
360
17B
  3
DIFFUSETILE
360
17A
  3
OPACITYTILE
360
17E
  3
REFLECTIONTILE
360
17D
  3
REFRACTIONTILE
360
17F
  3
SPECULARTILE
360
17C
  0
DICTIONARY
  5
171
330
170
100
AcDbDictionary
280
     1
281
     1
  3
BUMPTILE
360
173
  3
DIFFUSETILE
360
172
  3
OPACITYTILE
360
176
  3
REFLECTIONTILE
360
175
  3
REFRACTIONTILE
360
177
  3
SPECULARTILE
360
174
  0
DICTIONARY
  5
181
330
180
100
AcDbDictionary
280
     1
281
     1
  3
BUMPTILE
360
183
  3
DIFFUSETILE
360
182
  3
OPACITYTILE
360
186
  3
REFLECTIONTILE
360
185
  3
REFRACTIONTILE
360
187
  3
SPECULARTILE
360
184
  0
DICTIONARY
  5
4CA
330
1A7
100
AcDbDictionary
280
     1
281
     1
  3
ACAD_XREC_ROUNDTRIP
360
4CB
  0
DICTIONARY
  5
4BF
330
1A3
100
AcDbDictionary
280
     1
281
     1
  3
ACAD_ROUNDTRIP_2008_TABLESTYLE_CELLSTYLEMAP
360
4C0
  0
XRECORD
  5
4C2
102
{ACAD_REACTORS
330
4C8
102
}
330
4C8
100
AcDbXrecord
280
     1
  1
AcDb_Thumbnail_Schema
102
{ATTRRECORD
341
4C3
  2
AcDbDs::TreatedAsObjectData
280
     1
291
     1
102
ATTRRECORD}
102
{ATTRRECORD
341
4C4
  2
AcDbDs::Legacy
280
     1
291
     1
102
ATTRRECORD}
  2
AcDbDs::ID
280
    10
 91
        8
102
{ATTRRECORD
341
4C5
  2
AcDs:Indexable
280
     1
291
     1
102
ATTRRECORD}
102
{ATTRRECORD
341
4C6
  2
AcDbDs::HandleAttribute
280
     7
282
     1
102
ATTRRECORD}
  2
Thumbnail_Data
280
    15
 91
        0
  0
XRECORD
  5
4C3
102
{ACAD_REACTORS
330
4C8
102
}
330
4C8
100
AcDbXrecord
280
     1
  1
AcDbDs::TreatedAsObjectDataSchema
  2
AcDbDs::TreatedAsObjectData
280
     1
 91
        0
  0
XRECORD
  5
4C4
102
{ACAD_REACTORS
330
4C8
102
}
330
4C8
100
AcDbXrecord
280
     1
  1
AcDbDs::LegacySchema
  2
AcDbDs::Legacy
280
     1
 91
        0
  0
XRECORD
  5
4C5
102
{ACAD_REACTORS
330
4C8
102
}
330
4C8
100
AcDbXrecord
280
     1
  1
AcDbDs::IndexedPropertySchema
  2
AcDs:Indexable
280
     1
 91
        0
  0
XRECORD
  5
4C6
102
{ACAD_REACTORS
330
4C8
102
}
330
4C8
100
AcDbXrecord
280
     1
  1
AcDbDs::HandleAttributeSchema
  2
AcDbDs::HandleAttribute
280
     7
 91
        1
284
     1
  0
XRECORD
  5
4CD
102
{ACAD_REACTORS
330
4CC
102
}
330
4CC
100
AcDbXrecord
280
     1
102
DISPLAYNAME
  1
Metric50
102
FLAGS
 90
        0
  0
XRECORD
  5
17B
102
{ACAD_REACTORS
330
179
102
}
330
179
100
AcDbXrecord
280
     1
270
     1
271
     1
  0
XRECORD
  5
17A
102
{ACAD_REACTORS
330
179
102
}
330
179
100
AcDbXrecord
280
     1
270
     1
271
     1
  0
XRECORD
  5
17E
102
{ACAD_REACTORS
330
179
102
}
330
179
100
AcDbXrecord
280
     1
270
     1
271
     1
  0
XRECORD
  5
17D
102
{ACAD_REACTORS
330
179
102
}
330
179
100
AcDbXrecord
280
     1
270
     1
271
     1
  0
XRECORD
  5
17F
102
{ACAD_REACTORS
330
179
102
}
330
179
100
AcDbXrecord
280
     1
270
     1
271
     1
  0
XRECORD
  5
17C
102
{ACAD_REACTORS
330
179
102
}
330
179
100
AcDbXrecord
280
     1
270
     1
271
     1
  0
XRECORD
  5
173
102
{ACAD_REACTORS
330
171
102
}
330
171
100
AcDbXrecord
280
     1
270
     1
271
     1
  0
XRECORD
  5
172
102
{ACAD_REACTORS
330
171
102
}
330
171
100
AcDbXrecord
280
     1
270
     1
271
     1
  0
XRECORD
  5
176
102
{ACAD_REACTORS
330
171
102
}
330
171
100
AcDbXrecord
280
     1
270
     1
271
     1
  0
XRECORD
  5
175
102
{ACAD_REACTORS
330
171
102
}
330
171
100
AcDbXrecord
280
     1
270
     1
271
     1
  0
XRECORD
  5
177
102
{ACAD_REACTORS
330
171
102
}
330
171
100
AcDbXrecord
280
     1
270
     1
271
     1
  0
XRECORD
  5
174
102
{ACAD_REACTORS
330
171
102
}
330
171
100
AcDbXrecord
280
     1
270
     1
271
     1
  0
XRECORD
  5
183
102
{ACAD_REACTORS
330
181
102
}
330
181
100
AcDbXrecord
280
     1
270
     1
271
     1
  0
XRECORD
  5
182
102
{ACAD_REACTORS
330
181
102
}
330
181
100
AcDbXrecord
280
     1
270
     1
271
     1
  0
XRECORD
  5
186
102
{ACAD_REACTORS
330
181
102
}
330
181
100
AcDbXrecord
280
     1
270
     1
271
     1
  0
XRECORD
  5
185
102
{ACAD_REACTORS
330
181
102
}
330
181
100
AcDbXrecord
280
     1
270
     1
271
     1
  0
XRECORD
  5
187
102
{ACAD_REACTORS
330
181
102
}
330
181
100
AcDbXrecord
280
     1
270
     1
271
     1
  0
XRECORD
  5
184
102
{ACAD_REACTORS
330
181
102
}
330
181
100
AcDbXrecord
280
     1
270
     1
271
     1
  0
XRECORD
  5
4CB
102
{ACAD_REACTORS
330
4CA
102
}
330
4CA
100
AcDbXrecord
280
     1
102
DISPLAYNAME
  1
Metric50
102
FLAGS
 90
        0
  0
CELLSTYLEMAP
  5
4C0
102
{ACAD_REACTORS
330
4BF
102
}
330
4BF
100
AcDbCellStyleMap
 90
        3
300
CELLSTYLE
  1
TABLEFORMAT_BEGIN
 90
        5
170
     1
 91
        0
 92
    32768
 62
   257
 93
        1
300
CONTENTFORMAT
  1
CONTENTFORMAT_BEGIN
 90
        0
 91
        0
 92
      512
 93
        0
300

 40
0.0
140
1.0
 94
        5
 62
     0
340
11
144
6.0
309
CONTENTFORMAT_END
171
     1
301
MARGIN
  1
CELLMARGIN_BEGIN
 40
1.5
 40
1.5
 40
1.5
 40
1.5
 40
4.5
 40
4.5
309
CELLMARGIN_END
 94
        6
 95
        1
302
GRIDFORMAT
  1
GRIDFORMAT_BEGIN
 90
        0
 91
        1
 62
     0
 92
       -2
340
0
 93
        0
 40
1.125
309
GRIDFORMAT_END
 95
        2
302
GRIDFORMAT
  1
GRIDFORMAT_BEGIN
 90
        0
 91
        1
 62
     0
 92
       -2
340
0
 93
        0
 40
1.125
309
GRIDFORMAT_END
 95
        4
302
GRIDFORMAT
  1
GRIDFORMAT_BEGIN
 90
        0
 91
        1
 62
     0
 92
       -2
340
0
 93
        0
 40
1.125
309
GRIDFORMAT_END
 95
        8
302
GRIDFORMAT
  1
GRIDFORMAT_BEGIN
 90
        0
 91
        1
 62
     0
 92
       -2
340
0
 93
        0
 40
1.125
309
GRIDFORMAT_END
 95
       16
302
GRIDFORMAT
  1
GRIDFORMAT_BEGIN
 90
        0
 91
        1
 62
     0
 92
       -2
340
0
 93
        0
 40
1.125
309
GRIDFORMAT_END
 95
       32
302
GRIDFORMAT
  1
GRIDFORMAT_BEGIN
 90
        0
 91
        1
 62
     0
 92
       -2
340
0
 93
        0
 40
1.125
309
GRIDFORMAT_END
309
TABLEFORMAT_END
  1
CELLSTYLE_BEGIN
 90
        1
 91
        1
300
_TITLE
309
CELLSTYLE_END
300
CELLSTYLE
  1
TABLEFORMAT_BEGIN
 90
        5
170
     1
 91
        0
 92
        0
 62
   257
 93
        1
300
CONTENTFORMAT
  1
CONTENTFORMAT_BEGIN
 90
        0
 91
        0
 92
      512
 93
        0
300

 40
0.0
140
1.0
 94
        5
 62
     0
340
11
144
4.5
309
CONTENTFORMAT_END
171
     1
301
MARGIN
  1
CELLMARGIN_BEGIN
 40
1.5
 40
1.5
 40
1.5
 40
1.5
 40
4.5
 40
4.5
309
CELLMARGIN_END
 94
        6
 95
        1
302
GRIDFORMAT
  1
GRIDFORMAT_BEGIN
 90
        0
 91
        1
 62
     0
 92
       -2
340
0
 93
        0
 40
1.125
309
GRIDFORMAT_END
 95
        2
302
GRIDFORMAT
  1
GRIDFORMAT_BEGIN
 90
        0
 91
        1
 62
     0
 92
       -2
340
0
 93
        0
 40
1.125
309
GRIDFORMAT_END
 95
        4
302
GRIDFORMAT
  1
GRIDFORMAT_BEGIN
 90
        0
 91
        1
 62
     0
 92
       -2
340
0
 93
        0
 40
1.125
309
GRIDFORMAT_END
 95
        8
302
GRIDFORMAT
  1
GRIDFORMAT_BEGIN
 90
        0
 91
        1
 62
     0
 92
       -2
340
0
 93
        0
 40
1.125
309
GRIDFORMAT_END
 95
       16
302
GRIDFORMAT
  1
GRIDFORMAT_BEGIN
 90
        0
 91
        1
 62
     0
 92
       -2
340
0
 93
        0
 40
1.125
309
GRIDFORMAT_END
 95
       32
302
GRIDFORMAT
  1
GRIDFORMAT_BEGIN
 90
        0
 91
        1
 62
     0
 92
       -2
340
0
 93
        0
 40
1.125
309
GRIDFORMAT_END
309
TABLEFORMAT_END
  1
CELLSTYLE_BEGIN
 90
        2
 91
        1
300
_HEADER
309
CELLSTYLE_END
300
CELLSTYLE
  1
TABLEFORMAT_BEGIN
 90
        5
170
     1
 91
        0
 92
        0
 62
   257
 93
        1
300
CONTENTFORMAT
  1
CONTENTFORMAT_BEGIN
 90
        0
 91
        0
 92
      512
 93
        0
300

 40
0.0
140
1.0
 94
        2
 62
     0
340
11
144
4.5
309
CONTENTFORMAT_END
171
     1
301
MARGIN
  1
CELLMARGIN_BEGIN
 40
1.5
 40
1.5
 40
1.5
 40
1.5
 40
4.5
 40
4.5
309
CELLMARGIN_END
 94
        6
 95
        1
302
GRIDFORMAT
  1
GRIDFORMAT_BEGIN
 90
        0
 91
        1
 62
     0
 92
       -2
340
0
 93
        0
 40
1.125
309
GRIDFORMAT_END
 95
        2
302
GRIDFORMAT
  1
GRIDFORMAT_BEGIN
 90
        0
 91
        1
 62
     0
 92
       -2
340
0
 93
        0
 40
1.125
309
GRIDFORMAT_END
 95
        4
302
GRIDFORMAT
  1
GRIDFORMAT_BEGIN
 90
        0
 91
        1
 62
     0
 92
       -2
340
0
 93
        0
 40
1.125
309
GRIDFORMAT_END
 95
        8
302
GRIDFORMAT
  1
GRIDFORMAT_BEGIN
 90
        0
 91
        1
 62
     0
 92
       -2
340
0
 93
        0
 40
1.125
309
GRIDFORMAT_END
 95
       16
302
GRIDFORMAT
  1
GRIDFORMAT_BEGIN
 90
        0
 91
        1
 62
     0
 92
       -2
340
0
 93
        0
 40
1.125
309
GRIDFORMAT_END
 95
       32
302
GRIDFORMAT
  1
GRIDFORMAT_BEGIN
 90
        0
 91
        1
 62
     0
 92
       -2
340
0
 93
        0
 40
1.125
309
GRIDFORMAT_END
309
TABLEFORMAT_END
  1
CELLSTYLE_BEGIN
 90
        3
 91
        2
300
_DATA
309
CELLSTYLE_END
  0
ENDSEC
  0
SECTION
  2
ACDSDATA
 70
     2
 71
     8
  0
ACDSSCHEMA
 90
        0
  1
AcDb_Thumbnail_Schema
  2
AcDbDs::ID
280
    10
 91
        8
  2
Thumbnail_Data
280
    15
 91
        0
101
ACDSRECORD
 95
        0
 90
        1
  2
AcDbDs::TreatedAsObjectData
280
     1
291
     1
101
ACDSRECORD
 95
        0
 90
        2
  2
AcDbDs::Legacy
280
     1
291
     1
101
ACDSRECORD
  1
AcDbDs::ID
 90
        3
  2
AcDs:Indexable
280
     1
291
     1
101
ACDSRECORD
  1
AcDbDs::ID
 90
        4
  2
AcDbDs::HandleAttribute
280
     7
282
     1
  0
ACDSSCHEMA
 90
        1
  1
AcDbDs::TreatedAsObjectDataSchema
  2
AcDbDs::TreatedAsObjectData
280
     1
 91
        0
  0
ACDSSCHEMA
 90
        2
  1
AcDbDs::LegacySchema
  2
AcDbDs::Legacy
280
     1
 91
        0
  0
ACDSSCHEMA
 90
        3
  1
AcDbDs::IndexedPropertySchema
  2
AcDs:Indexable
280
     1
 91
        0
  0
ACDSSCHEMA
 90
        4
  1
AcDbDs::HandleAttributeSchema
  2
AcDbDs::HandleAttribute
280
     7
 91
        1
284
     1
  0
ACDSRECORD
 90
        0
  2
AcDbDs::ID
280
    10
320
22
  2
Thumbnail_Data
280
    15
 94
     1856
310
89504E470D0A1A0A0000000D4948445200000100000000AB0803000000BE00B2CD00000300504C5445212830FFFFFF2128300000000000000000000000000000000000000000000000000000330000660000990000CC0000FF0033000033330033660033990033CC0033FF0066000066330066660066990066CC0066FF0099
310
000099330099660099990099CC0099FF00CC0000CC3300CC6600CC9900CCCC00CCFF00FF0000FF3300FF6600FF9900FFCC00FFFF3300003300333300663300993300CC3300FF3333003333333333663333993333CC3333FF3366003366333366663366993366CC3366FF3399003399333399663399993399CC3399FF33CC00
310
33CC3333CC6633CC9933CCCC33CCFF33FF0033FF3333FF6633FF9933FFCC33FFFF6600006600336600666600996600CC6600FF6633006633336633666633996633CC6633FF6666006666336666666666996666CC6666FF6699006699336699666699996699CC6699FF66CC0066CC3366CC6666CC9966CCCC66CCFF66FF0066
310
FF3366FF6666FF9966FFCC66FFFF9900009900339900669900999900CC9900FF9933009933339933669933999933CC9933FF9966009966339966669966999966CC9966FF9999009999339999669999999999CC9999FF99CC0099CC3399CC6699CC9999CCCC99CCFF99FF0099FF3399FF6699FF9999FFCC99FFFFCC0000CC00
310
33CC0066CC0099CC00CCCC00FFCC3300CC3333CC3366CC3399CC33CCCC33FFCC6600CC6633CC6666CC6699CC66CCCC66FFCC9900CC9933CC9966CC9999CC99CCCC99FFCCCC00CCCC33CCCC66CCCC99CCCCCCCCCCFFCCFF00CCFF33CCFF66CCFF99CCFFCCCCFFFFFF0000FF0033FF0066FF0099FF00CCFF00FFFF3300FF3333
310
FF3366FF3399FF33CCFF33FFFF6600FF6633FF6666FF6699FF66CCFF66FFFF9900FF9933FF9966FF9999FF99CCFF99FFFFCC00FFCC33FFCC66FFCC99FFCCCCFFCCFFFFFF00FFFF33FFFF66FFFF99FFFFCCFFFFFF0000000D0D0D1A1A1A2828283535354343435050505D5D5D6B6B6B787878868686939393A1A1A1AEAEAEBB
310
BBBBC9C9C9D6D6D6E4E4E4F1F1F1FFFFFF0000000000000000000000000000000000000000000000000000000000002E4550F10000022B4944415478DAED9C016EC3300800F900BFDB7B795B1BD776889B584937B52BDC4D9AA275AAC4CDC6049A890000000000000000000000000000000000000000000000000000000000
310
00000000000000C049F46FF86201FFE85D10F061017627BD8017158411202F3A0822A07C958BCC2BE025035156408FDD520AF0258D255F01570D841060BF30808000026CD804E9055C321040803DE5C17C025A15DC04583201DA83BEBE04BE5F80992E9789052C5783814C024ADCFAA39B7A389D0051CB2AC06A1580809209
310
5458014702B643807526104880B9C49056C07D0FDCEB02CBB7051E164A0E580A23C929A064C1C402EA11907A05D417AE8C482209F077428905ACDFCDA147E3C3280296D1903FEAFBA5F55F8E2C40CE08D8EF144511D07ED8F7C1D0258BBC027C2364CD836904988BBD5EA95FF68F7D5192E0FE3DC2D73744DA1EE87FE0560F
310
2C85A16E124350016316A82F686B10F4451253C09A056C10A0CBB920FE28308929607BD4F5BD2FA3005B0FC738FD0037192CF158BD1768713A01267105D46688D5C3602D80B5D6C0C7B7075186A3753EB617E67C5A14663AAC6B461CEB9DE9E7C7C20890B106AE5B41CD9D1431058C6BDC36A8CA745E1EE43342935DBE24FB
310
24020EE2545193D802E6066C167F9407265C3FE089797F30CA1323935D6E9241C0A32BB617BE491201B2D3F339311F08F7D0948BF9D47424E053632EFDE514F08977410002108000042000010840C05B0564FF171A0000000000000000000000000000F07E6EA40150144CF300A60000000049454E44AE42608282AACE0473
310
0140CA007A3C0F3A00C41D8026CEF73D4071D230267EC36B837900CD9E079942B8ABFDDF037078E0400780FD4577BB8BA33980CFA16F6B0718B0E9603CC02EFE6F67D7003062D385DDD561AD18EB2F258A85705FFC865787CF86FA9FCDC43612C021FE0E8031BB8EEC96C5353BD0FFA8180060BF8250B8EA36FA010A350089
310
F89B93204EAB7CE9491B66002800A4E26FEE06A704385FEFC8C5DF04007107908DBF05003221C0EE0AC861BBBC66E26F004031BB3D9104516AB6AA9FFCD8A81D609A6E10E5C4753238BE023072DFF14880933DB0C9B5FFEC6E601F00E3763D0FDD786E06D0348EA86218BBF1FE4980CA459ED900605F31E0B997B674BC6ECF
310
B466801F80BAC56BAB336AF4AD371D2F5BB3AEDA33F71EF5BC6ACBBC6E78E0FEC39E374DD9D70DB70E02BBBAC1A3C0981B86A705380A346DE0DA93C14D0B58EADA090014267E37DC83DEB920820E00205901F801F8FB09A209E09B3034F95CA2BBDABFF45F19C2B54D9C8779A0CA8980038025A432406E02AC893A3803D804
310
87DAC0B7FF5D47CFB6C602FCEB10905A152965D194804380EAB58D635B4F08E0CEF86DF70AB7AC881D051C03F4D440C3021CB690DC1AFF75805F3207D277C48B2F400000000049454E44AE426082
  0
ENDSEC
  0
EOF
